%TF.GenerationSoftware,KiCad,Pcbnew,8.0.2-1*%
%TF.CreationDate,2024-11-11T18:57:46+10:00*%
%TF.ProjectId,ae_emblem_led_pcb,61655f65-6d62-46c6-956d-5f6c65645f70,rev?*%
%TF.SameCoordinates,Original*%
%TF.FileFunction,Legend,Bot*%
%TF.FilePolarity,Positive*%
%FSLAX46Y46*%
G04 Gerber Fmt 4.6, Leading zero omitted, Abs format (unit mm)*
G04 Created by KiCad (PCBNEW 8.0.2-1) date 2024-11-11 18:57:46*
%MOMM*%
%LPD*%
G01*
G04 APERTURE LIST*
%ADD10C,0.150000*%
%ADD11C,0.120000*%
%ADD12R,1.800000X0.700000*%
%ADD13R,2.500000X1.800000*%
%ADD14C,0.800000*%
%ADD15C,5.000000*%
G04 APERTURE END LIST*
D10*
X152154820Y-74941666D02*
X152869105Y-74941666D01*
X152869105Y-74941666D02*
X153011962Y-74894047D01*
X153011962Y-74894047D02*
X153107201Y-74798809D01*
X153107201Y-74798809D02*
X153154820Y-74655952D01*
X153154820Y-74655952D02*
X153154820Y-74560714D01*
X153154820Y-75941666D02*
X153154820Y-75370238D01*
X153154820Y-75655952D02*
X152154820Y-75655952D01*
X152154820Y-75655952D02*
X152297677Y-75560714D01*
X152297677Y-75560714D02*
X152392915Y-75465476D01*
X152392915Y-75465476D02*
X152440534Y-75370238D01*
D11*
%TO.C,J1*%
X156140001Y-72350000D02*
X155700001Y-72350000D01*
X159300001Y-72350000D02*
X158860001Y-72350000D01*
X159300001Y-78200000D02*
X159300001Y-72350000D01*
X155700001Y-72350000D02*
X155700001Y-74040000D01*
X153900001Y-74040000D02*
X155700001Y-74040000D01*
X155700001Y-78200000D02*
X155700001Y-76510000D01*
X156140001Y-78200000D02*
X155700001Y-78200000D01*
X158860001Y-78200000D02*
X159300001Y-78200000D01*
%TD*%
%LPC*%
D12*
%TO.C,J1*%
X154800001Y-74650000D03*
X154800001Y-75900000D03*
D13*
X157500000Y-72400000D03*
X157500000Y-78150000D03*
%TD*%
D14*
%TO.C,REF\u002A\u002A*%
X155100825Y-82600000D03*
X155650000Y-81274175D03*
X155650000Y-83925825D03*
X156975825Y-80725000D03*
D15*
X156975825Y-82600000D03*
D14*
X156975825Y-84475000D03*
X158301650Y-81274175D03*
X158301650Y-83925825D03*
X158850825Y-82600000D03*
%TD*%
%TO.C,REF\u002A\u002A*%
X131325000Y-82600000D03*
X131874175Y-81274175D03*
X131874175Y-83925825D03*
X133200000Y-80725000D03*
D15*
X133200000Y-82600000D03*
D14*
X133200000Y-84475000D03*
X134525825Y-81274175D03*
X134525825Y-83925825D03*
X135075000Y-82600000D03*
%TD*%
%LPD*%
M02*
