%TF.GenerationSoftware,KiCad,Pcbnew,8.0.2-1*%
%TF.CreationDate,2024-11-11T18:57:46+10:00*%
%TF.ProjectId,ae_emblem_led_pcb,61655f65-6d62-46c6-956d-5f6c65645f70,rev?*%
%TF.SameCoordinates,Original*%
%TF.FileFunction,Soldermask,Top*%
%TF.FilePolarity,Negative*%
%FSLAX46Y46*%
G04 Gerber Fmt 4.6, Leading zero omitted, Abs format (unit mm)*
G04 Created by KiCad (PCBNEW 8.0.2-1) date 2024-11-11 18:57:46*
%MOMM*%
%LPD*%
G01*
G04 APERTURE LIST*
G04 Aperture macros list*
%AMRoundRect*
0 Rectangle with rounded corners*
0 $1 Rounding radius*
0 $2 $3 $4 $5 $6 $7 $8 $9 X,Y pos of 4 corners*
0 Add a 4 corners polygon primitive as box body*
4,1,4,$2,$3,$4,$5,$6,$7,$8,$9,$2,$3,0*
0 Add four circle primitives for the rounded corners*
1,1,$1+$1,$2,$3*
1,1,$1+$1,$4,$5*
1,1,$1+$1,$6,$7*
1,1,$1+$1,$8,$9*
0 Add four rect primitives between the rounded corners*
20,1,$1+$1,$2,$3,$4,$5,0*
20,1,$1+$1,$4,$5,$6,$7,0*
20,1,$1+$1,$6,$7,$8,$9,0*
20,1,$1+$1,$8,$9,$2,$3,0*%
G04 Aperture macros list end*
%ADD10RoundRect,0.147500X-0.147500X-0.172500X0.147500X-0.172500X0.147500X0.172500X-0.147500X0.172500X0*%
%ADD11RoundRect,0.135000X-0.135000X-0.185000X0.135000X-0.185000X0.135000X0.185000X-0.135000X0.185000X0*%
%ADD12C,0.800000*%
%ADD13C,5.000000*%
G04 APERTURE END LIST*
D10*
%TO.C,D5*%
X151255000Y-80550000D03*
X152225000Y-80550000D03*
%TD*%
D11*
%TO.C,R5*%
X151230000Y-81750000D03*
X152250000Y-81750000D03*
%TD*%
D10*
%TO.C,D4*%
X144515000Y-73300000D03*
X145485000Y-73300000D03*
%TD*%
%TO.C,D1*%
X144615000Y-90500000D03*
X145585000Y-90500000D03*
%TD*%
%TO.C,D3*%
X144515000Y-80300000D03*
X145485000Y-80300000D03*
%TD*%
D11*
%TO.C,R2*%
X144515000Y-81500000D03*
X145535000Y-81500000D03*
%TD*%
D10*
%TO.C,D2*%
X139915000Y-85400000D03*
X140885000Y-85400000D03*
%TD*%
D11*
%TO.C,R4*%
X139890000Y-86700000D03*
X140910000Y-86700000D03*
%TD*%
%TO.C,R6*%
X151430000Y-90900000D03*
X152450000Y-90900000D03*
%TD*%
%TO.C,R1*%
X144590000Y-91800000D03*
X145610000Y-91800000D03*
%TD*%
%TO.C,R3*%
X144490000Y-74500000D03*
X145510000Y-74500000D03*
%TD*%
D10*
%TO.C,D6*%
X151455000Y-89600000D03*
X152425000Y-89600000D03*
%TD*%
D12*
%TO.C,REF\u002A\u002A*%
X155100825Y-82600000D03*
X155650000Y-81274175D03*
X155650000Y-83925825D03*
X156975825Y-80725000D03*
D13*
X156975825Y-82600000D03*
D12*
X156975825Y-84475000D03*
X158301650Y-81274175D03*
X158301650Y-83925825D03*
X158850825Y-82600000D03*
%TD*%
%TO.C,REF\u002A\u002A*%
X131325000Y-82600000D03*
X131874175Y-81274175D03*
X131874175Y-83925825D03*
X133200000Y-80725000D03*
D13*
X133200000Y-82600000D03*
D12*
X133200000Y-84475000D03*
X134525825Y-81274175D03*
X134525825Y-83925825D03*
X135075000Y-82600000D03*
%TD*%
M02*
