M48
; DRILL file {KiCad 8.0.2-1} date 2024-11-11T18:57:46+1000
; FORMAT={-:-/ absolute / inch / decimal}
; #@! TF.CreationDate,2024-11-11T18:57:46+10:00
; #@! TF.GenerationSoftware,Kicad,Pcbnew,8.0.2-1
; #@! TF.FileFunction,Plated,1,2,PTH
FMAT,2
INCH
; #@! TA.AperFunction,Plated,PTH,ViaDrill
T1C0.0118
; #@! TA.AperFunction,Plated,PTH,ComponentDrill
T2C0.0197
; #@! TA.AperFunction,Plated,PTH,ComponentDrill
T3C0.0984
%
G90
G05
T1
X5.4803Y-3.3622
X5.5787Y-3.6299
X5.5827Y-3.2362
X5.6555Y-2.8858
X5.6594Y-3.6299
X5.6614Y-3.1614
X5.6654Y-3.563
X5.6693Y-3.2362
X5.7559Y-3.2362
X5.8524Y-3.2362
X5.9268Y-3.1713
X5.9346Y-3.5276
X5.9902Y-3.0709
T2
X5.1703Y-3.252
X5.1919Y-3.1998
X5.1919Y-3.3042
X5.2441Y-3.1781
X5.2441Y-3.3258
X5.2963Y-3.1998
X5.2963Y-3.3042
X5.3179Y-3.252
X6.1063Y-3.252
X6.128Y-3.1998
X6.128Y-3.3042
X6.1802Y-3.1781
X6.1802Y-3.3258
X6.2323Y-3.1998
X6.2323Y-3.3042
X6.254Y-3.252
T3
X5.2441Y-3.252
X6.1802Y-3.252
M30
