%TF.GenerationSoftware,KiCad,Pcbnew,8.0.2-1*%
%TF.CreationDate,2024-11-11T18:57:46+10:00*%
%TF.ProjectId,ae_emblem_led_pcb,61655f65-6d62-46c6-956d-5f6c65645f70,rev?*%
%TF.SameCoordinates,Original*%
%TF.FileFunction,Copper,L1,Top*%
%TF.FilePolarity,Positive*%
%FSLAX46Y46*%
G04 Gerber Fmt 4.6, Leading zero omitted, Abs format (unit mm)*
G04 Created by KiCad (PCBNEW 8.0.2-1) date 2024-11-11 18:57:46*
%MOMM*%
%LPD*%
G01*
G04 APERTURE LIST*
G04 Aperture macros list*
%AMRoundRect*
0 Rectangle with rounded corners*
0 $1 Rounding radius*
0 $2 $3 $4 $5 $6 $7 $8 $9 X,Y pos of 4 corners*
0 Add a 4 corners polygon primitive as box body*
4,1,4,$2,$3,$4,$5,$6,$7,$8,$9,$2,$3,0*
0 Add four circle primitives for the rounded corners*
1,1,$1+$1,$2,$3*
1,1,$1+$1,$4,$5*
1,1,$1+$1,$6,$7*
1,1,$1+$1,$8,$9*
0 Add four rect primitives between the rounded corners*
20,1,$1+$1,$2,$3,$4,$5,0*
20,1,$1+$1,$4,$5,$6,$7,0*
20,1,$1+$1,$6,$7,$8,$9,0*
20,1,$1+$1,$8,$9,$2,$3,0*%
G04 Aperture macros list end*
%TA.AperFunction,SMDPad,CuDef*%
%ADD10RoundRect,0.147500X-0.147500X-0.172500X0.147500X-0.172500X0.147500X0.172500X-0.147500X0.172500X0*%
%TD*%
%TA.AperFunction,SMDPad,CuDef*%
%ADD11RoundRect,0.135000X-0.135000X-0.185000X0.135000X-0.185000X0.135000X0.185000X-0.135000X0.185000X0*%
%TD*%
%TA.AperFunction,ComponentPad*%
%ADD12C,0.800000*%
%TD*%
%TA.AperFunction,ComponentPad*%
%ADD13C,5.000000*%
%TD*%
%TA.AperFunction,ViaPad*%
%ADD14C,0.600000*%
%TD*%
%TA.AperFunction,ViaPad*%
%ADD15C,0.500000*%
%TD*%
%TA.AperFunction,Conductor*%
%ADD16C,0.200000*%
%TD*%
G04 APERTURE END LIST*
D10*
%TO.P,D5,1,K*%
%TO.N,GND*%
X151255000Y-80550000D03*
%TO.P,D5,2,A*%
%TO.N,Net-(D5-A)*%
X152225000Y-80550000D03*
%TD*%
D11*
%TO.P,R5,1*%
%TO.N,GPIO21*%
X151230000Y-81750000D03*
%TO.P,R5,2*%
%TO.N,Net-(D5-A)*%
X152250000Y-81750000D03*
%TD*%
D10*
%TO.P,D4,1,K*%
%TO.N,GND*%
X144515000Y-73300000D03*
%TO.P,D4,2,A*%
%TO.N,Net-(D4-A)*%
X145485000Y-73300000D03*
%TD*%
%TO.P,D1,1,K*%
%TO.N,GND*%
X144615000Y-90500000D03*
%TO.P,D1,2,A*%
%TO.N,Net-(D1-A)*%
X145585000Y-90500000D03*
%TD*%
%TO.P,D3,1,K*%
%TO.N,GND*%
X144515000Y-80300000D03*
%TO.P,D3,2,A*%
%TO.N,Net-(D3-A)*%
X145485000Y-80300000D03*
%TD*%
D11*
%TO.P,R2,1*%
%TO.N,GPIO21*%
X144515000Y-81500000D03*
%TO.P,R2,2*%
%TO.N,Net-(D3-A)*%
X145535000Y-81500000D03*
%TD*%
D10*
%TO.P,D2,1,K*%
%TO.N,GND*%
X139915000Y-85400000D03*
%TO.P,D2,2,A*%
%TO.N,Net-(D2-A)*%
X140885000Y-85400000D03*
%TD*%
D11*
%TO.P,R4,1*%
%TO.N,GPIO21*%
X139890000Y-86700000D03*
%TO.P,R4,2*%
%TO.N,Net-(D2-A)*%
X140910000Y-86700000D03*
%TD*%
%TO.P,R6,1*%
%TO.N,GPIO21*%
X151430000Y-90900000D03*
%TO.P,R6,2*%
%TO.N,Net-(D6-A)*%
X152450000Y-90900000D03*
%TD*%
%TO.P,R1,1*%
%TO.N,GPIO21*%
X144590000Y-91800000D03*
%TO.P,R1,2*%
%TO.N,Net-(D1-A)*%
X145610000Y-91800000D03*
%TD*%
%TO.P,R3,1*%
%TO.N,GPIO21*%
X144490000Y-74500000D03*
%TO.P,R3,2*%
%TO.N,Net-(D4-A)*%
X145510000Y-74500000D03*
%TD*%
D10*
%TO.P,D6,1,K*%
%TO.N,GND*%
X151455000Y-89600000D03*
%TO.P,D6,2,A*%
%TO.N,Net-(D6-A)*%
X152425000Y-89600000D03*
%TD*%
D12*
%TO.P,REF\u002A\u002A,1*%
%TO.N,N/C*%
X155100825Y-82600000D03*
X155650000Y-81274175D03*
X155650000Y-83925825D03*
X156975825Y-80725000D03*
D13*
X156975825Y-82600000D03*
D12*
X156975825Y-84475000D03*
X158301650Y-81274175D03*
X158301650Y-83925825D03*
X158850825Y-82600000D03*
%TD*%
%TO.P,REF\u002A\u002A,1*%
%TO.N,N/C*%
X131325000Y-82600000D03*
X131874175Y-81274175D03*
X131874175Y-83925825D03*
X133200000Y-80725000D03*
D13*
X133200000Y-82600000D03*
D12*
X133200000Y-84475000D03*
X134525825Y-81274175D03*
X134525825Y-83925825D03*
X135075000Y-82600000D03*
%TD*%
D14*
%TO.N,GPIO21*%
X152150000Y-78000000D03*
D15*
X148650000Y-82200000D03*
X143750000Y-92200000D03*
X144000000Y-82200000D03*
X146200000Y-82200000D03*
X141800000Y-82200000D03*
X141700000Y-92200000D03*
%TO.N,GND*%
X139200000Y-85400000D03*
X150540000Y-80550000D03*
X143800000Y-80300000D03*
X143650000Y-73300000D03*
X143900000Y-90500000D03*
X150740000Y-89600000D03*
%TD*%
D16*
%TO.N,GPIO21*%
X144100000Y-92550000D02*
X144500000Y-92550000D01*
X143750000Y-92200000D02*
X144100000Y-92550000D01*
X140700000Y-92200000D02*
X138650000Y-90150000D01*
X141700000Y-92200000D02*
X140700000Y-92200000D01*
X138650000Y-90150000D02*
X138650000Y-86700000D01*
X141800000Y-82200000D02*
X139550000Y-82200000D01*
X138650000Y-83100000D02*
X138650000Y-86700000D01*
X139550000Y-82200000D02*
X138650000Y-83100000D01*
X148650000Y-82200000D02*
X148850000Y-82400000D01*
X148850000Y-82400000D02*
X152600000Y-82400000D01*
X152600000Y-82400000D02*
X152820000Y-82180000D01*
X152820000Y-82180000D02*
X152820000Y-78670000D01*
X152820000Y-78670000D02*
X152150000Y-78000000D01*
X146200000Y-82400000D02*
X146200000Y-82200000D01*
X144000000Y-82200000D02*
X144200000Y-82400000D01*
X144200000Y-82400000D02*
X146200000Y-82400000D01*
X151230000Y-81750000D02*
X151230000Y-82390706D01*
X151230000Y-82390706D02*
X151233680Y-82394386D01*
%TO.N,Net-(D6-A)*%
X152425000Y-89600000D02*
X152425000Y-90875000D01*
X152425000Y-90875000D02*
X152450000Y-90900000D01*
%TO.N,GPIO21*%
X144500000Y-92550000D02*
X149780000Y-92550000D01*
X149780000Y-92550000D02*
X151430000Y-90900000D01*
%TO.N,GND*%
X150740000Y-89600000D02*
X151455000Y-89600000D01*
%TO.N,Net-(D2-A)*%
X140885000Y-86675000D02*
X140910000Y-86700000D01*
X140885000Y-85400000D02*
X140885000Y-86675000D01*
%TO.N,Net-(D3-A)*%
X145485000Y-80300000D02*
X145485000Y-81450000D01*
X145485000Y-81450000D02*
X145535000Y-81500000D01*
%TO.N,Net-(D4-A)*%
X145485000Y-73300000D02*
X145485000Y-74475000D01*
X145485000Y-74475000D02*
X145510000Y-74500000D01*
%TO.N,Net-(D5-A)*%
X152225000Y-80550000D02*
X152225000Y-81725000D01*
X152225000Y-81725000D02*
X152250000Y-81750000D01*
%TO.N,GPIO21*%
X144515000Y-82400000D02*
X146200000Y-82400000D01*
X139250000Y-86700000D02*
X139890000Y-86700000D01*
X144590000Y-92540000D02*
X144590000Y-91800000D01*
X144500000Y-92550000D02*
X144600000Y-92550000D01*
X144490000Y-74740000D02*
X144490000Y-74500000D01*
X144950000Y-75200000D02*
X144490000Y-74740000D01*
X149350000Y-75200000D02*
X144950000Y-75200000D01*
X144600000Y-92550000D02*
X144590000Y-92540000D01*
X138650000Y-86700000D02*
X139250000Y-86700000D01*
X152150000Y-78000000D02*
X149350000Y-75200000D01*
X144515000Y-81500000D02*
X144515000Y-82400000D01*
%TO.N,GND*%
X139915000Y-85400000D02*
X139200000Y-85400000D01*
X144515000Y-80300000D02*
X143800000Y-80300000D01*
X151255000Y-80550000D02*
X150540000Y-80550000D01*
X144515000Y-73300000D02*
X143650000Y-73300000D01*
X144615000Y-90500000D02*
X143900000Y-90500000D01*
%TO.N,Net-(D1-A)*%
X145585000Y-91775000D02*
X145610000Y-91800000D01*
X145585000Y-90500000D02*
X145585000Y-91775000D01*
%TD*%
M02*
