%TF.GenerationSoftware,KiCad,Pcbnew,7.0.7*%
%TF.CreationDate,2023-09-08T11:37:07+10:00*%
%TF.ProjectId,rear_screen,72656172-5f73-4637-9265-656e2e6b6963,v0.2*%
%TF.SameCoordinates,Original*%
%TF.FileFunction,Paste,Top*%
%TF.FilePolarity,Positive*%
%FSLAX46Y46*%
G04 Gerber Fmt 4.6, Leading zero omitted, Abs format (unit mm)*
G04 Created by KiCad (PCBNEW 7.0.7) date 2023-09-08 11:37:07*
%MOMM*%
%LPD*%
G01*
G04 APERTURE LIST*
G04 Aperture macros list*
%AMRoundRect*
0 Rectangle with rounded corners*
0 $1 Rounding radius*
0 $2 $3 $4 $5 $6 $7 $8 $9 X,Y pos of 4 corners*
0 Add a 4 corners polygon primitive as box body*
4,1,4,$2,$3,$4,$5,$6,$7,$8,$9,$2,$3,0*
0 Add four circle primitives for the rounded corners*
1,1,$1+$1,$2,$3*
1,1,$1+$1,$4,$5*
1,1,$1+$1,$6,$7*
1,1,$1+$1,$8,$9*
0 Add four rect primitives between the rounded corners*
20,1,$1+$1,$2,$3,$4,$5,0*
20,1,$1+$1,$4,$5,$6,$7,0*
20,1,$1+$1,$6,$7,$8,$9,0*
20,1,$1+$1,$8,$9,$2,$3,0*%
%AMRotRect*
0 Rectangle, with rotation*
0 The origin of the aperture is its center*
0 $1 length*
0 $2 width*
0 $3 Rotation angle, in degrees counterclockwise*
0 Add horizontal line*
21,1,$1,$2,0,0,$3*%
G04 Aperture macros list end*
%ADD10RoundRect,0.225000X-0.225000X-0.250000X0.225000X-0.250000X0.225000X0.250000X-0.225000X0.250000X0*%
%ADD11RoundRect,0.200000X0.200000X0.275000X-0.200000X0.275000X-0.200000X-0.275000X0.200000X-0.275000X0*%
%ADD12RoundRect,0.112500X0.187500X0.112500X-0.187500X0.112500X-0.187500X-0.112500X0.187500X-0.112500X0*%
%ADD13R,1.200000X1.200000*%
%ADD14RotRect,0.600000X0.900000X315.000000*%
%ADD15RotRect,0.600000X0.900000X225.000000*%
%ADD16RotRect,0.600000X1.050000X225.000000*%
%ADD17RoundRect,0.242500X-0.242500X-0.382500X0.242500X-0.382500X0.242500X0.382500X-0.242500X0.382500X0*%
%ADD18RoundRect,0.150000X-0.650000X-0.150000X0.650000X-0.150000X0.650000X0.150000X-0.650000X0.150000X0*%
%ADD19R,0.900000X0.600000*%
%ADD20R,0.600000X0.900000*%
%ADD21R,0.600000X1.050000*%
%ADD22R,1.070000X0.800000*%
%ADD23RotRect,0.282800X0.282800X225.000000*%
%ADD24R,0.200000X0.600000*%
%ADD25R,0.300000X0.850000*%
%ADD26R,0.850000X0.300000*%
%ADD27RoundRect,0.225000X0.225000X0.250000X-0.225000X0.250000X-0.225000X-0.250000X0.225000X-0.250000X0*%
%ADD28RoundRect,0.225000X-0.250000X0.225000X-0.250000X-0.225000X0.250000X-0.225000X0.250000X0.225000X0*%
%ADD29RoundRect,0.200000X-0.200000X-0.275000X0.200000X-0.275000X0.200000X0.275000X-0.200000X0.275000X0*%
%ADD30R,2.500000X1.500000*%
%ADD31RoundRect,0.150000X0.150000X0.700000X-0.150000X0.700000X-0.150000X-0.700000X0.150000X-0.700000X0*%
%ADD32RoundRect,0.500000X0.500000X0.900000X-0.500000X0.900000X-0.500000X-0.900000X0.500000X-0.900000X0*%
%ADD33RoundRect,0.250000X-1.500000X-0.550000X1.500000X-0.550000X1.500000X0.550000X-1.500000X0.550000X0*%
%ADD34RoundRect,0.150000X-0.150000X0.512500X-0.150000X-0.512500X0.150000X-0.512500X0.150000X0.512500X0*%
%ADD35R,1.050000X0.600000*%
%ADD36RoundRect,0.218750X-0.256250X0.218750X-0.256250X-0.218750X0.256250X-0.218750X0.256250X0.218750X0*%
%ADD37RoundRect,0.200000X-0.275000X0.200000X-0.275000X-0.200000X0.275000X-0.200000X0.275000X0.200000X0*%
G04 APERTURE END LIST*
D10*
%TO.C,C14*%
X149225000Y-64400000D03*
X150775000Y-64400000D03*
%TD*%
%TO.C,C13*%
X152425000Y-64400000D03*
X153975000Y-64400000D03*
%TD*%
D11*
%TO.C,R7*%
X173256249Y-69250000D03*
X171606249Y-69250000D03*
%TD*%
D12*
%TO.C,D3*%
X116650000Y-129700000D03*
X114550000Y-129700000D03*
%TD*%
D13*
%TO.C,D7*%
X173900000Y-81699999D03*
X173900000Y-78899999D03*
%TD*%
D14*
%TO.C,Q2*%
X156813172Y-117936827D03*
X156000000Y-118750000D03*
X155186827Y-119563172D03*
X157414213Y-118537868D03*
X156601040Y-119351040D03*
X155787868Y-120164213D03*
X158015254Y-119138908D03*
X157202081Y-119952081D03*
X156388908Y-120765254D03*
D15*
X159839589Y-119930868D03*
X158934493Y-120835965D03*
X158085965Y-121684493D03*
X157180868Y-122589589D03*
D16*
X155816152Y-115865004D03*
X154918126Y-116763030D03*
X154013030Y-117668126D03*
X153115004Y-118566152D03*
%TD*%
D17*
%TO.C,U2*%
X131235000Y-65975000D03*
X131235000Y-67525000D03*
X132435000Y-65975000D03*
X132435000Y-67525000D03*
D18*
X129185000Y-64845000D03*
X129185000Y-66115000D03*
X129185000Y-67385000D03*
X129185000Y-68655000D03*
X134485000Y-68655000D03*
X134485000Y-67385000D03*
X134485000Y-66115000D03*
X134485000Y-64845000D03*
%TD*%
D19*
%TO.C,Q3*%
X139020000Y-122000000D03*
X137870000Y-122000000D03*
X136720000Y-122000000D03*
X139020000Y-122850000D03*
X137870000Y-122850000D03*
X136720000Y-122850000D03*
X139020000Y-123700000D03*
X137870000Y-123700000D03*
X136720000Y-123700000D03*
D20*
X139750000Y-125550000D03*
X138470000Y-125550000D03*
X137270000Y-125550000D03*
X135990000Y-125550000D03*
D21*
X139780000Y-119830000D03*
X138510000Y-119830000D03*
X137230000Y-119830000D03*
X135960000Y-119830000D03*
%TD*%
D22*
%TO.C,U4*%
X157320000Y-98500000D03*
D23*
X156785000Y-98700000D03*
D24*
X156685000Y-98400000D03*
D22*
X157320000Y-97500000D03*
D23*
X156785000Y-97300000D03*
D24*
X156685000Y-97600000D03*
D25*
X155770000Y-96550000D03*
X155270000Y-96550000D03*
D26*
X154570000Y-97250000D03*
X154570000Y-97750000D03*
X154570000Y-98250000D03*
X154570000Y-98750000D03*
D25*
X155270000Y-99450000D03*
X155770000Y-99450000D03*
%TD*%
D27*
%TO.C,C3*%
X164275000Y-84500000D03*
X162725000Y-84500000D03*
%TD*%
D28*
%TO.C,C9*%
X138000000Y-68450000D03*
X138000000Y-70000000D03*
%TD*%
D19*
%TO.C,Q6*%
X112400000Y-120700000D03*
X111250000Y-120700000D03*
X110100000Y-120700000D03*
X112400000Y-121550000D03*
X111250000Y-121550000D03*
X110100000Y-121550000D03*
X112400000Y-122400000D03*
X111250000Y-122400000D03*
X110100000Y-122400000D03*
D20*
X113130000Y-124250000D03*
X111850000Y-124250000D03*
X110650000Y-124250000D03*
X109370000Y-124250000D03*
D21*
X113160000Y-118530000D03*
X111890000Y-118530000D03*
X110610000Y-118530000D03*
X109340000Y-118530000D03*
%TD*%
D28*
%TO.C,C10*%
X123320000Y-67975000D03*
X123320000Y-69525000D03*
%TD*%
D17*
%TO.C,U1*%
X116605000Y-65525000D03*
X116605000Y-67075000D03*
X117805000Y-65525000D03*
X117805000Y-67075000D03*
D18*
X114555000Y-64395000D03*
X114555000Y-65665000D03*
X114555000Y-66935000D03*
X114555000Y-68205000D03*
X119855000Y-68205000D03*
X119855000Y-66935000D03*
X119855000Y-65665000D03*
X119855000Y-64395000D03*
%TD*%
D27*
%TO.C,C12*%
X155845000Y-101000000D03*
X154295000Y-101000000D03*
%TD*%
D29*
%TO.C,R5*%
X142925000Y-64400000D03*
X144575000Y-64400000D03*
%TD*%
D27*
%TO.C,C6*%
X165875000Y-74800000D03*
X164325000Y-74800000D03*
%TD*%
D28*
%TO.C,C8*%
X136400000Y-68450000D03*
X136400000Y-70000000D03*
%TD*%
D30*
%TO.C,L1*%
X170200000Y-82450000D03*
X170200000Y-78750000D03*
%TD*%
D31*
%TO.C,J7*%
X153375000Y-66800000D03*
X152125000Y-66800000D03*
X150875000Y-66800000D03*
X149625000Y-66800000D03*
X148375000Y-66800000D03*
X147125000Y-66800000D03*
X145875000Y-66800000D03*
X144625000Y-66800000D03*
D32*
X155900000Y-69650000D03*
X142100000Y-69650000D03*
%TD*%
D33*
%TO.C,C1*%
X168800000Y-87000000D03*
X174200000Y-87000000D03*
%TD*%
D29*
%TO.C,R6*%
X145925000Y-64400000D03*
X147575000Y-64400000D03*
%TD*%
D11*
%TO.C,R3*%
X164024999Y-78400000D03*
X162374999Y-78400000D03*
%TD*%
D34*
%TO.C,U3*%
X166050000Y-80200001D03*
X165100000Y-80200001D03*
X164150000Y-80200001D03*
X164150000Y-82475001D03*
X165100000Y-82475001D03*
X166050000Y-82475001D03*
%TD*%
D12*
%TO.C,D2*%
X91300000Y-129600000D03*
X89200000Y-129600000D03*
%TD*%
D10*
%TO.C,C4*%
X165425000Y-78400000D03*
X166975000Y-78400000D03*
%TD*%
D12*
%TO.C,D5*%
X167300000Y-129700000D03*
X165200000Y-129700000D03*
%TD*%
D28*
%TO.C,C11*%
X121720000Y-67975000D03*
X121720000Y-69525000D03*
%TD*%
D20*
%TO.C,Q7*%
X90555435Y-97625877D03*
X90555435Y-96475877D03*
X90555435Y-95325877D03*
X89705435Y-97625877D03*
X89705435Y-96475877D03*
X89705435Y-95325877D03*
X88855435Y-97625877D03*
X88855435Y-96475877D03*
X88855435Y-95325877D03*
D19*
X87005435Y-98355877D03*
X87005435Y-97075877D03*
X87005435Y-95875877D03*
X87005435Y-94595877D03*
D35*
X92725435Y-98385877D03*
X92725435Y-97115877D03*
X92725435Y-95835877D03*
X92725435Y-94565877D03*
%TD*%
D33*
%TO.C,C5*%
X168700000Y-74100000D03*
X174300000Y-74100000D03*
%TD*%
D27*
%TO.C,C7*%
X165874999Y-76500000D03*
X164324999Y-76500000D03*
%TD*%
D12*
%TO.C,D4*%
X142250000Y-129600000D03*
X140150000Y-129600000D03*
%TD*%
D29*
%TO.C,R8*%
X171581248Y-67639999D03*
X173231248Y-67639999D03*
%TD*%
D36*
%TO.C,D6*%
X174831248Y-67762503D03*
X174831248Y-69337503D03*
%TD*%
D27*
%TO.C,C2*%
X164275000Y-86000000D03*
X162725000Y-86000000D03*
%TD*%
D37*
%TO.C,R4*%
X162399999Y-79875000D03*
X162399999Y-81525000D03*
%TD*%
D19*
%TO.C,Q4*%
X131600000Y-122050000D03*
X130450000Y-122050000D03*
X129300000Y-122050000D03*
X131600000Y-122900000D03*
X130450000Y-122900000D03*
X129300000Y-122900000D03*
X131600000Y-123750000D03*
X130450000Y-123750000D03*
X129300000Y-123750000D03*
D20*
X132330000Y-125600000D03*
X131050000Y-125600000D03*
X129850000Y-125600000D03*
X128570000Y-125600000D03*
D21*
X132360000Y-119880000D03*
X131090000Y-119880000D03*
X129810000Y-119880000D03*
X128540000Y-119880000D03*
%TD*%
D20*
%TO.C,Q1*%
X154700000Y-126950000D03*
X154700000Y-128100000D03*
X154700000Y-129250000D03*
X155550000Y-126950000D03*
X155550000Y-128100000D03*
X155550000Y-129250000D03*
X156400000Y-126950000D03*
X156400000Y-128100000D03*
X156400000Y-129250000D03*
D19*
X158250000Y-126220000D03*
X158250000Y-127500000D03*
X158250000Y-128700000D03*
X158250000Y-129980000D03*
D35*
X152530000Y-126190000D03*
X152530000Y-127460000D03*
X152530000Y-128740000D03*
X152530000Y-130010000D03*
%TD*%
M02*
