%TF.GenerationSoftware,KiCad,Pcbnew,7.0.7*%
%TF.CreationDate,2023-09-08T11:37:07+10:00*%
%TF.ProjectId,rear_screen,72656172-5f73-4637-9265-656e2e6b6963,v0.2*%
%TF.SameCoordinates,Original*%
%TF.FileFunction,Soldermask,Top*%
%TF.FilePolarity,Negative*%
%FSLAX46Y46*%
G04 Gerber Fmt 4.6, Leading zero omitted, Abs format (unit mm)*
G04 Created by KiCad (PCBNEW 7.0.7) date 2023-09-08 11:37:07*
%MOMM*%
%LPD*%
G01*
G04 APERTURE LIST*
G04 Aperture macros list*
%AMRoundRect*
0 Rectangle with rounded corners*
0 $1 Rounding radius*
0 $2 $3 $4 $5 $6 $7 $8 $9 X,Y pos of 4 corners*
0 Add a 4 corners polygon primitive as box body*
4,1,4,$2,$3,$4,$5,$6,$7,$8,$9,$2,$3,0*
0 Add four circle primitives for the rounded corners*
1,1,$1+$1,$2,$3*
1,1,$1+$1,$4,$5*
1,1,$1+$1,$6,$7*
1,1,$1+$1,$8,$9*
0 Add four rect primitives between the rounded corners*
20,1,$1+$1,$2,$3,$4,$5,0*
20,1,$1+$1,$4,$5,$6,$7,0*
20,1,$1+$1,$6,$7,$8,$9,0*
20,1,$1+$1,$8,$9,$2,$3,0*%
%AMRotRect*
0 Rectangle, with rotation*
0 The origin of the aperture is its center*
0 $1 length*
0 $2 width*
0 $3 Rotation angle, in degrees counterclockwise*
0 Add horizontal line*
21,1,$1,$2,0,0,$3*%
%AMFreePoly0*
4,1,21,3.024497,2.399497,3.045000,2.350000,3.045000,-2.350000,3.024497,-2.399497,2.975000,-2.420000,1.425000,-2.420000,1.375503,-2.399497,1.355000,-2.350000,1.355000,-2.170000,-1.650000,-2.170000,-1.699497,-2.149497,-1.720000,-2.100000,-1.720000,2.100000,-1.699497,2.149497,-1.650000,2.170000,1.355000,2.170000,1.355000,2.350000,1.375503,2.399497,1.425000,2.420000,2.975000,2.420000,
3.024497,2.399497,3.024497,2.399497,$1*%
G04 Aperture macros list end*
%ADD10RoundRect,0.225000X-0.225000X-0.250000X0.225000X-0.250000X0.225000X0.250000X-0.225000X0.250000X0*%
%ADD11R,0.900000X2.000000*%
%ADD12RoundRect,1.025000X1.025000X1.025000X-1.025000X1.025000X-1.025000X-1.025000X1.025000X-1.025000X0*%
%ADD13C,4.100000*%
%ADD14RoundRect,0.200000X0.200000X0.275000X-0.200000X0.275000X-0.200000X-0.275000X0.200000X-0.275000X0*%
%ADD15C,5.600000*%
%ADD16RoundRect,0.112500X0.187500X0.112500X-0.187500X0.112500X-0.187500X-0.112500X0.187500X-0.112500X0*%
%ADD17R,1.200000X1.200000*%
%ADD18RoundRect,0.070000X-0.159099X0.654074X-0.654074X0.159099X0.159099X-0.654074X0.654074X-0.159099X0*%
%ADD19FreePoly0,315.000000*%
%ADD20RoundRect,0.150000X-0.650000X-0.150000X0.650000X-0.150000X0.650000X0.150000X-0.650000X0.150000X0*%
%ADD21R,2.410000X3.100000*%
%ADD22RoundRect,0.070000X0.350000X0.575000X-0.350000X0.575000X-0.350000X-0.575000X0.350000X-0.575000X0*%
%ADD23FreePoly0,270.000000*%
%ADD24R,1.070000X0.800000*%
%ADD25RotRect,0.282800X0.282800X225.000000*%
%ADD26R,0.200000X0.600000*%
%ADD27R,0.300000X0.850000*%
%ADD28R,0.850000X0.300000*%
%ADD29RoundRect,0.225000X0.225000X0.250000X-0.225000X0.250000X-0.225000X-0.250000X0.225000X-0.250000X0*%
%ADD30RoundRect,0.225000X-0.250000X0.225000X-0.250000X-0.225000X0.250000X-0.225000X0.250000X0.225000X0*%
%ADD31RoundRect,0.200000X-0.200000X-0.275000X0.200000X-0.275000X0.200000X0.275000X-0.200000X0.275000X0*%
%ADD32C,4.916000*%
%ADD33R,4.916000X4.916000*%
%ADD34O,2.600000X1.300000*%
%ADD35R,2.000000X0.900000*%
%ADD36RoundRect,1.025000X-1.025000X1.025000X-1.025000X-1.025000X1.025000X-1.025000X1.025000X1.025000X0*%
%ADD37R,2.500000X1.500000*%
%ADD38RoundRect,0.150000X0.150000X0.700000X-0.150000X0.700000X-0.150000X-0.700000X0.150000X-0.700000X0*%
%ADD39RoundRect,0.500000X0.500000X0.900000X-0.500000X0.900000X-0.500000X-0.900000X0.500000X-0.900000X0*%
%ADD40RoundRect,0.250000X-1.500000X-0.550000X1.500000X-0.550000X1.500000X0.550000X-1.500000X0.550000X0*%
%ADD41RoundRect,0.150000X-0.150000X0.512500X-0.150000X-0.512500X0.150000X-0.512500X0.150000X0.512500X0*%
%ADD42RoundRect,0.070000X0.575000X-0.350000X0.575000X0.350000X-0.575000X0.350000X-0.575000X-0.350000X0*%
%ADD43FreePoly0,180.000000*%
%ADD44RoundRect,0.218750X-0.256250X0.218750X-0.256250X-0.218750X0.256250X-0.218750X0.256250X0.218750X0*%
%ADD45RoundRect,0.200000X-0.275000X0.200000X-0.275000X-0.200000X0.275000X-0.200000X0.275000X0.200000X0*%
%ADD46RoundRect,0.070000X-0.575000X0.350000X-0.575000X-0.350000X0.575000X-0.350000X0.575000X0.350000X0*%
%ADD47FreePoly0,0.000000*%
G04 APERTURE END LIST*
D10*
%TO.C,C14*%
X149225000Y-64400000D03*
X150775000Y-64400000D03*
%TD*%
%TO.C,C13*%
X152425000Y-64400000D03*
X153975000Y-64400000D03*
%TD*%
D11*
%TO.C,J2*%
X97124466Y-139000000D03*
X83624466Y-139000000D03*
D12*
X86774466Y-133000000D03*
D13*
X93974466Y-133000000D03*
%TD*%
D14*
%TO.C,R7*%
X173256249Y-69250000D03*
X171606249Y-69250000D03*
%TD*%
D15*
%TO.C,H1*%
X90150000Y-67960000D03*
%TD*%
D11*
%TO.C,J4*%
X148000000Y-139000000D03*
X134500000Y-139000000D03*
D12*
X137650000Y-133000000D03*
D13*
X144850000Y-133000000D03*
%TD*%
D16*
%TO.C,D3*%
X116650000Y-129700000D03*
X114550000Y-129700000D03*
%TD*%
D17*
%TO.C,D7*%
X173900000Y-81699999D03*
X173900000Y-78899999D03*
%TD*%
D18*
%TO.C,Q2*%
X155816152Y-115865004D03*
X154918126Y-116763030D03*
X154013030Y-117668126D03*
X153115004Y-118566152D03*
D19*
X156777817Y-119527817D03*
%TD*%
D20*
%TO.C,U2*%
X129185000Y-64845000D03*
X129185000Y-66115000D03*
X129185000Y-67385000D03*
X129185000Y-68655000D03*
X134485000Y-68655000D03*
X134485000Y-67385000D03*
X134485000Y-66115000D03*
X134485000Y-64845000D03*
D21*
X131835000Y-66750000D03*
%TD*%
D22*
%TO.C,Q3*%
X139780000Y-119830000D03*
X138510000Y-119830000D03*
X137230000Y-119830000D03*
X135960000Y-119830000D03*
D23*
X137870000Y-123100000D03*
%TD*%
D24*
%TO.C,U4*%
X157320000Y-98500000D03*
D25*
X156785000Y-98700000D03*
D26*
X156685000Y-98400000D03*
D24*
X157320000Y-97500000D03*
D25*
X156785000Y-97300000D03*
D26*
X156685000Y-97600000D03*
D27*
X155770000Y-96550000D03*
X155270000Y-96550000D03*
D28*
X154570000Y-97250000D03*
X154570000Y-97750000D03*
X154570000Y-98250000D03*
X154570000Y-98750000D03*
D27*
X155270000Y-99450000D03*
X155770000Y-99450000D03*
%TD*%
D29*
%TO.C,C3*%
X164275000Y-84500000D03*
X162725000Y-84500000D03*
%TD*%
D30*
%TO.C,C9*%
X138000000Y-68450000D03*
X138000000Y-70000000D03*
%TD*%
D22*
%TO.C,Q6*%
X113160000Y-118530000D03*
X111890000Y-118530000D03*
X110610000Y-118530000D03*
X109340000Y-118530000D03*
D23*
X111250000Y-121800000D03*
%TD*%
D30*
%TO.C,C10*%
X123320000Y-67975000D03*
X123320000Y-69525000D03*
%TD*%
D11*
%TO.C,J5*%
X173074466Y-139050000D03*
X159574466Y-139050000D03*
D12*
X162724466Y-133050000D03*
D13*
X169924466Y-133050000D03*
%TD*%
D20*
%TO.C,U1*%
X114555000Y-64395000D03*
X114555000Y-65665000D03*
X114555000Y-66935000D03*
X114555000Y-68205000D03*
X119855000Y-68205000D03*
X119855000Y-66935000D03*
X119855000Y-65665000D03*
X119855000Y-64395000D03*
D21*
X117205000Y-66300000D03*
%TD*%
D29*
%TO.C,C12*%
X155845000Y-101000000D03*
X154295000Y-101000000D03*
%TD*%
D31*
%TO.C,R5*%
X142925000Y-64400000D03*
X144575000Y-64400000D03*
%TD*%
D32*
%TO.C,J6*%
X162600000Y-98400000D03*
D33*
X162600000Y-109300000D03*
D34*
X172000000Y-113300000D03*
X172000000Y-94400000D03*
%TD*%
D15*
%TO.C,H3*%
X165370000Y-119300000D03*
%TD*%
D35*
%TO.C,J1*%
X176350000Y-97150000D03*
X176350000Y-110650000D03*
D36*
X170350000Y-100300000D03*
D13*
X170350000Y-107500000D03*
%TD*%
D29*
%TO.C,C6*%
X165875000Y-74800000D03*
X164325000Y-74800000D03*
%TD*%
D30*
%TO.C,C8*%
X136400000Y-68450000D03*
X136400000Y-70000000D03*
%TD*%
D37*
%TO.C,L1*%
X170200000Y-82450000D03*
X170200000Y-78750000D03*
%TD*%
D15*
%TO.C,H2*%
X165339531Y-67939531D03*
%TD*%
D38*
%TO.C,J7*%
X153375000Y-66800000D03*
X152125000Y-66800000D03*
X150875000Y-66800000D03*
X149625000Y-66800000D03*
X148375000Y-66800000D03*
X147125000Y-66800000D03*
X145875000Y-66800000D03*
X144625000Y-66800000D03*
D39*
X155900000Y-69650000D03*
X142100000Y-69650000D03*
%TD*%
D40*
%TO.C,C1*%
X168800000Y-87000000D03*
X174200000Y-87000000D03*
%TD*%
D31*
%TO.C,R6*%
X145925000Y-64400000D03*
X147575000Y-64400000D03*
%TD*%
D14*
%TO.C,R3*%
X164024999Y-78400000D03*
X162374999Y-78400000D03*
%TD*%
D41*
%TO.C,U3*%
X166050000Y-80200001D03*
X165100000Y-80200001D03*
X164150000Y-80200001D03*
X164150000Y-82475001D03*
X165100000Y-82475001D03*
X166050000Y-82475001D03*
%TD*%
D16*
%TO.C,D2*%
X91300000Y-129600000D03*
X89200000Y-129600000D03*
%TD*%
D10*
%TO.C,C4*%
X165425000Y-78400000D03*
X166975000Y-78400000D03*
%TD*%
D16*
%TO.C,D5*%
X167300000Y-129700000D03*
X165200000Y-129700000D03*
%TD*%
D11*
%TO.C,J3*%
X122500000Y-139000000D03*
X109000000Y-139000000D03*
D12*
X112150000Y-133000000D03*
D13*
X119350000Y-133000000D03*
%TD*%
D15*
%TO.C,H4*%
X90160000Y-119260000D03*
%TD*%
D30*
%TO.C,C11*%
X121720000Y-67975000D03*
X121720000Y-69525000D03*
%TD*%
D42*
%TO.C,Q7*%
X92725435Y-98385877D03*
X92725435Y-97115877D03*
X92725435Y-95835877D03*
X92725435Y-94565877D03*
D43*
X89455435Y-96475877D03*
%TD*%
D40*
%TO.C,C5*%
X168700000Y-74100000D03*
X174300000Y-74100000D03*
%TD*%
D29*
%TO.C,C7*%
X165874999Y-76500000D03*
X164324999Y-76500000D03*
%TD*%
D16*
%TO.C,D4*%
X142250000Y-129600000D03*
X140150000Y-129600000D03*
%TD*%
D31*
%TO.C,R8*%
X171581248Y-67639999D03*
X173231248Y-67639999D03*
%TD*%
D44*
%TO.C,D6*%
X174831248Y-67762503D03*
X174831248Y-69337503D03*
%TD*%
D29*
%TO.C,C2*%
X164275000Y-86000000D03*
X162725000Y-86000000D03*
%TD*%
D45*
%TO.C,R4*%
X162399999Y-79875000D03*
X162399999Y-81525000D03*
%TD*%
D22*
%TO.C,Q4*%
X132360000Y-119880000D03*
X131090000Y-119880000D03*
X129810000Y-119880000D03*
X128540000Y-119880000D03*
D23*
X130450000Y-123150000D03*
%TD*%
D46*
%TO.C,Q1*%
X152530000Y-126190000D03*
X152530000Y-127460000D03*
X152530000Y-128740000D03*
X152530000Y-130010000D03*
D47*
X155800000Y-128100000D03*
%TD*%
M02*
