%TF.GenerationSoftware,KiCad,Pcbnew,8.0.0*%
%TF.CreationDate,2024-05-13T21:34:14+10:00*%
%TF.ProjectId,rear_screen,72656172-5f73-4637-9265-656e2e6b6963,v0.3*%
%TF.SameCoordinates,Original*%
%TF.FileFunction,Copper,L3,Inr*%
%TF.FilePolarity,Positive*%
%FSLAX46Y46*%
G04 Gerber Fmt 4.6, Leading zero omitted, Abs format (unit mm)*
G04 Created by KiCad (PCBNEW 8.0.0) date 2024-05-13 21:34:14*
%MOMM*%
%LPD*%
G01*
G04 APERTURE LIST*
G04 Aperture macros list*
%AMRoundRect*
0 Rectangle with rounded corners*
0 $1 Rounding radius*
0 $2 $3 $4 $5 $6 $7 $8 $9 X,Y pos of 4 corners*
0 Add a 4 corners polygon primitive as box body*
4,1,4,$2,$3,$4,$5,$6,$7,$8,$9,$2,$3,0*
0 Add four circle primitives for the rounded corners*
1,1,$1+$1,$2,$3*
1,1,$1+$1,$4,$5*
1,1,$1+$1,$6,$7*
1,1,$1+$1,$8,$9*
0 Add four rect primitives between the rounded corners*
20,1,$1+$1,$2,$3,$4,$5,0*
20,1,$1+$1,$4,$5,$6,$7,0*
20,1,$1+$1,$6,$7,$8,$9,0*
20,1,$1+$1,$8,$9,$2,$3,0*%
G04 Aperture macros list end*
%TA.AperFunction,ComponentPad*%
%ADD10C,5.600000*%
%TD*%
%TA.AperFunction,ComponentPad*%
%ADD11R,0.900000X2.000000*%
%TD*%
%TA.AperFunction,ComponentPad*%
%ADD12RoundRect,1.025000X-1.025000X-1.025000X1.025000X-1.025000X1.025000X1.025000X-1.025000X1.025000X0*%
%TD*%
%TA.AperFunction,ComponentPad*%
%ADD13C,4.100000*%
%TD*%
%TA.AperFunction,ComponentPad*%
%ADD14R,2.000000X0.900000*%
%TD*%
%TA.AperFunction,ComponentPad*%
%ADD15RoundRect,1.025000X-1.025000X1.025000X-1.025000X-1.025000X1.025000X-1.025000X1.025000X1.025000X0*%
%TD*%
%TA.AperFunction,ComponentPad*%
%ADD16RoundRect,1.025000X1.025000X-1.025000X1.025000X1.025000X-1.025000X1.025000X-1.025000X-1.025000X0*%
%TD*%
%TA.AperFunction,ComponentPad*%
%ADD17C,5.500000*%
%TD*%
%TA.AperFunction,ComponentPad*%
%ADD18R,4.916000X4.916000*%
%TD*%
%TA.AperFunction,ComponentPad*%
%ADD19O,2.600000X1.300000*%
%TD*%
%TA.AperFunction,ComponentPad*%
%ADD20C,4.916000*%
%TD*%
%TA.AperFunction,ViaPad*%
%ADD21C,0.800000*%
%TD*%
G04 APERTURE END LIST*
D10*
%TO.N,N/C*%
%TO.C,H1*%
X172122855Y-131217541D03*
%TD*%
D11*
%TO.N,*%
%TO.C,J4*%
X111212742Y-59976559D03*
X124712742Y-59976559D03*
D12*
%TO.N,Net-(D4-A)*%
X121562742Y-65976559D03*
D13*
%TO.N,B+*%
X114362742Y-65976559D03*
%TD*%
D14*
%TO.N,*%
%TO.C,J2*%
X181350000Y-114800000D03*
X181350000Y-128300000D03*
D15*
%TO.N,GND*%
X175350000Y-117950000D03*
D13*
%TO.N,S*%
X175350000Y-125150000D03*
%TD*%
D11*
%TO.N,*%
%TO.C,J5*%
X134850000Y-60050000D03*
X148350000Y-60050000D03*
D12*
%TO.N,Net-(D5-A)*%
X145200000Y-66050000D03*
D13*
%TO.N,B+*%
X138000000Y-66050000D03*
%TD*%
D14*
%TO.N,*%
%TO.C,J11*%
X87700000Y-122350000D03*
X87700000Y-108850000D03*
D16*
%TO.N,V-*%
X93700000Y-112000000D03*
D13*
%TO.N,GND*%
X93700000Y-119200000D03*
%TD*%
D14*
%TO.N,*%
%TO.C,J9*%
X181350000Y-82150000D03*
X181350000Y-95650000D03*
D15*
%TO.N,GND*%
X175350000Y-85300000D03*
D13*
%TO.N,B+*%
X175350000Y-92500000D03*
%TD*%
D17*
%TO.N,GND*%
%TO.C,J6*%
X97072855Y-100827541D03*
D18*
%TO.N,V*%
X97072855Y-89927541D03*
D19*
%TO.N,N/C*%
X87672855Y-85927541D03*
X87672855Y-104827541D03*
%TD*%
D10*
%TO.N,N/C*%
%TO.C,H3*%
X96902855Y-79877541D03*
%TD*%
D14*
%TO.N,*%
%TO.C,J1*%
X181250000Y-98400000D03*
X181250000Y-111900000D03*
D15*
%TO.N,S-*%
X175250000Y-108750000D03*
D13*
%TO.N,GND*%
X175250000Y-101550000D03*
%TD*%
D10*
%TO.N,N/C*%
%TO.C,H2*%
X96933324Y-131238010D03*
%TD*%
D11*
%TO.N,*%
%TO.C,J3*%
X87712742Y-59926559D03*
X101212742Y-59926559D03*
D12*
%TO.N,Net-(D3-A)*%
X98062742Y-65926559D03*
D13*
%TO.N,B+*%
X90862742Y-65926559D03*
%TD*%
D10*
%TO.N,N/C*%
%TO.C,H4*%
X172112855Y-79917541D03*
%TD*%
D20*
%TO.N,B*%
%TO.C,J10*%
X170300000Y-60500000D03*
D18*
%TO.N,GND*%
X170300000Y-71400000D03*
D19*
%TO.N,N/C*%
X179700000Y-75400000D03*
X179700000Y-56500000D03*
%TD*%
D21*
%TO.N,GPIO13*%
X180950000Y-84650000D03*
X149900000Y-113600000D03*
X115200000Y-132550000D03*
%TO.N,GPIO14*%
X181000000Y-119050000D03*
X116150000Y-130900000D03*
X114400000Y-130850000D03*
X181856347Y-84000000D03*
X181850000Y-116650000D03*
X152700000Y-114500000D03*
%TO.N,Net-(D3-A)*%
X102856726Y-73406841D03*
X101400000Y-62600000D03*
X105923403Y-72537219D03*
X106600000Y-66000000D03*
X108044724Y-72537219D03*
X99400000Y-72400000D03*
X103917386Y-76588820D03*
X106984064Y-69355239D03*
X101796066Y-76588820D03*
X104978045Y-75528160D03*
X106600000Y-62600000D03*
X103917386Y-74467501D03*
X102400000Y-69600000D03*
X104862742Y-71476559D03*
X106984063Y-73597880D03*
X109105384Y-71476559D03*
X100735404Y-75528160D03*
X102200000Y-65800000D03*
X102856724Y-77649481D03*
X105923403Y-70415899D03*
X95800000Y-62600000D03*
X96600000Y-75000000D03*
X101796066Y-74467500D03*
X98400000Y-69600000D03*
X106984064Y-71476560D03*
X96600000Y-72200000D03*
X108044724Y-70415899D03*
X102856726Y-75528161D03*
%TO.N,Net-(D4-A)*%
X128743442Y-75188841D03*
X130372742Y-73676558D03*
X119819447Y-75217495D03*
X126500000Y-62500000D03*
X128743442Y-76688840D03*
X127243442Y-76688841D03*
X121319447Y-75217495D03*
X119500000Y-62500000D03*
X121319447Y-76717495D03*
X121319447Y-73717495D03*
X119500000Y-71500000D03*
X130372742Y-76676559D03*
X129900000Y-71700000D03*
X122819446Y-73717495D03*
X129900000Y-65700000D03*
X126700000Y-65700000D03*
X122900000Y-62500000D03*
X130372743Y-75176559D03*
X121500000Y-69700000D03*
X119819447Y-73717496D03*
X119819447Y-76717494D03*
X123300000Y-71500000D03*
X127243443Y-75188841D03*
X122819447Y-75217495D03*
X129900000Y-68700000D03*
X122819446Y-76717495D03*
X126700000Y-68700000D03*
X129900000Y-62500000D03*
X128743442Y-73688841D03*
X127243442Y-73688841D03*
X126700000Y-71700000D03*
%TO.N,Net-(D5-A)*%
X149738464Y-75440383D03*
X146037258Y-62973441D03*
X149637258Y-71773441D03*
X144625533Y-75720000D03*
X151238464Y-73940384D03*
X142837258Y-71773441D03*
X152738464Y-76940385D03*
X153437258Y-71773441D03*
X143125534Y-74220000D03*
X146125534Y-74220000D03*
X149637258Y-62973441D03*
X152738464Y-73940384D03*
X146125535Y-75719999D03*
X149738464Y-73940384D03*
X146125534Y-77220001D03*
X153237258Y-62973441D03*
X143125534Y-75720000D03*
X153237258Y-66373441D03*
X151238463Y-76940385D03*
X146637258Y-71773441D03*
X144625534Y-77219999D03*
X149738464Y-76940384D03*
X144625534Y-74220000D03*
X153437258Y-69573441D03*
X142637258Y-62973441D03*
X149637258Y-66373441D03*
X152738464Y-75440384D03*
X151238464Y-75440383D03*
X149637258Y-69573441D03*
X143125534Y-77220000D03*
X145037258Y-69773441D03*
%TO.N,+5V*%
X176150000Y-81300000D03*
X109000000Y-133000000D03*
X105200000Y-120050000D03*
X123243917Y-112388343D03*
X123243917Y-113388343D03*
X152700000Y-116300000D03*
X123243917Y-114388343D03*
X109000000Y-130600000D03*
X109000000Y-131800000D03*
%TO.N,Net-(Q1-G)*%
X130000000Y-131100000D03*
X154867258Y-61703441D03*
X106377541Y-136577541D03*
X147450000Y-79500000D03*
X154255204Y-78487437D03*
X152200000Y-55800000D03*
%TO.N,Net-(Q3-G)*%
X131962742Y-78976559D03*
X124342742Y-79226559D03*
X126000000Y-131200000D03*
X132212742Y-56012742D03*
X105100000Y-135900000D03*
X132212742Y-61500000D03*
%TO.N,Net-(Q11-G)*%
X103800000Y-135400000D03*
X122000000Y-131200000D03*
X108400000Y-56400000D03*
X108314652Y-61600000D03*
%TO.N,B+*%
X112699998Y-109500000D03*
X114199999Y-112500000D03*
X121900000Y-133550000D03*
X114149999Y-111025001D03*
X129950000Y-133525001D03*
X125999999Y-133550000D03*
%TO.N,ABFET*%
X180150000Y-76750000D03*
X157000000Y-56550000D03*
%TO.N,ASFET*%
X155850000Y-116300000D03*
X157150000Y-117900000D03*
%TO.N,AVFET*%
X102000000Y-112900000D03*
X103100000Y-119300000D03*
%TD*%
%TA.AperFunction,Conductor*%
%TO.N,Net-(D5-A)*%
G36*
X153972219Y-61954500D02*
G01*
X154018180Y-62007125D01*
X154023518Y-62020757D01*
X154040077Y-62071721D01*
X154040079Y-62071725D01*
X154134725Y-62235657D01*
X154261387Y-62376329D01*
X154379134Y-62461877D01*
X154421800Y-62517207D01*
X154430249Y-62562042D01*
X154448657Y-77462784D01*
X154429055Y-77529848D01*
X154376308Y-77575668D01*
X154324657Y-77586937D01*
X154160558Y-77586937D01*
X154128101Y-77593835D01*
X153975401Y-77626292D01*
X153975396Y-77626294D01*
X153802474Y-77703285D01*
X153802469Y-77703288D01*
X153649333Y-77814548D01*
X153522670Y-77955222D01*
X153428025Y-78119152D01*
X153428022Y-78119159D01*
X153369531Y-78299177D01*
X153369530Y-78299181D01*
X153356224Y-78425784D01*
X153356119Y-78426782D01*
X153329534Y-78491396D01*
X153272237Y-78531381D01*
X153231558Y-78537814D01*
X149449962Y-78500000D01*
X141824215Y-78549197D01*
X141757050Y-78529946D01*
X141710955Y-78477438D01*
X141699416Y-78425784D01*
X141622763Y-62107071D01*
X141642133Y-62039944D01*
X141694721Y-61993942D01*
X141746277Y-61982494D01*
X153905106Y-61935077D01*
X153972219Y-61954500D01*
G37*
%TD.AperFunction*%
%TD*%
%TA.AperFunction,Conductor*%
%TO.N,Net-(D4-A)*%
G36*
X131271329Y-61603850D02*
G01*
X131317224Y-61656532D01*
X131325856Y-61682557D01*
X131327066Y-61688252D01*
X131385560Y-61868277D01*
X131385563Y-61868284D01*
X131480209Y-62032216D01*
X131606871Y-62172888D01*
X131765269Y-62287971D01*
X131763718Y-62290105D01*
X131803847Y-62332175D01*
X131817642Y-62388877D01*
X131834322Y-77401956D01*
X131814712Y-77469018D01*
X131761959Y-77514831D01*
X131709858Y-77526093D01*
X118585024Y-77477016D01*
X118518059Y-77457081D01*
X118472502Y-77404106D01*
X118461494Y-77354282D01*
X118412794Y-72581698D01*
X118413118Y-72571413D01*
X118712742Y-68476559D01*
X118712742Y-61741236D01*
X118732427Y-61674197D01*
X118785231Y-61628442D01*
X118836411Y-61617236D01*
X131204240Y-61584343D01*
X131271329Y-61603850D01*
G37*
%TD.AperFunction*%
%TD*%
%TA.AperFunction,Conductor*%
%TO.N,Net-(D3-A)*%
G36*
X107376132Y-61716244D02*
G01*
X107421887Y-61769048D01*
X107427024Y-61782241D01*
X107487470Y-61968278D01*
X107487473Y-61968284D01*
X107582119Y-62132216D01*
X107708781Y-62272888D01*
X107861917Y-62384148D01*
X107861919Y-62384149D01*
X107861922Y-62384151D01*
X107939180Y-62418549D01*
X107992414Y-62463796D01*
X108012736Y-62530645D01*
X108012742Y-62531826D01*
X108012742Y-74075197D01*
X107993057Y-74142236D01*
X107976423Y-74162878D01*
X102110590Y-80028710D01*
X102049267Y-80062195D01*
X102023107Y-80065029D01*
X100328994Y-80067730D01*
X100261923Y-80048152D01*
X100216084Y-79995421D01*
X100204978Y-79937016D01*
X100208203Y-79877542D01*
X100208203Y-79877538D01*
X100205723Y-79831807D01*
X100188827Y-79520170D01*
X100130926Y-79166989D01*
X100035179Y-78822138D01*
X99902708Y-78489661D01*
X99735066Y-78173456D01*
X99534220Y-77877230D01*
X99534216Y-77877225D01*
X99534213Y-77877221D01*
X99302523Y-77604455D01*
X99042692Y-77358330D01*
X99042685Y-77358324D01*
X99042682Y-77358322D01*
X98975100Y-77306948D01*
X98757774Y-77141741D01*
X98451108Y-76957226D01*
X98451107Y-76957225D01*
X98451103Y-76957223D01*
X98451099Y-76957221D01*
X98126302Y-76806955D01*
X98126296Y-76806952D01*
X98126290Y-76806950D01*
X97956709Y-76749811D01*
X97787128Y-76692672D01*
X97437599Y-76615735D01*
X97081804Y-76577041D01*
X97081803Y-76577041D01*
X96723907Y-76577041D01*
X96723905Y-76577041D01*
X96368110Y-76615735D01*
X96018581Y-76692672D01*
X95762825Y-76778847D01*
X95679420Y-76806950D01*
X95679418Y-76806951D01*
X95679407Y-76806955D01*
X95354610Y-76957221D01*
X95354605Y-76957223D01*
X95047933Y-77141742D01*
X94991782Y-77184426D01*
X94926500Y-77209325D01*
X94858119Y-77194977D01*
X94808351Y-77145938D01*
X94792742Y-77085713D01*
X94792742Y-61820558D01*
X94812427Y-61753520D01*
X94865231Y-61707765D01*
X94916742Y-61696559D01*
X107309093Y-61696559D01*
X107376132Y-61716244D01*
G37*
%TD.AperFunction*%
%TD*%
%TA.AperFunction,Conductor*%
%TO.N,B+*%
G36*
X151811082Y-55119245D02*
G01*
X151829827Y-55164500D01*
X151811082Y-55209755D01*
X151802183Y-55217171D01*
X151799150Y-55219264D01*
X151671816Y-55332071D01*
X151671814Y-55332073D01*
X151575182Y-55472068D01*
X151514859Y-55631129D01*
X151494355Y-55799996D01*
X151494355Y-55800003D01*
X151514859Y-55968870D01*
X151575182Y-56127931D01*
X151671814Y-56267926D01*
X151671816Y-56267928D01*
X151671817Y-56267929D01*
X151799148Y-56380734D01*
X151874997Y-56420543D01*
X151949777Y-56459791D01*
X152114937Y-56500499D01*
X152114942Y-56500499D01*
X152114944Y-56500500D01*
X152114946Y-56500500D01*
X152285054Y-56500500D01*
X152285056Y-56500500D01*
X152285058Y-56500499D01*
X152285062Y-56500499D01*
X152450222Y-56459791D01*
X152450222Y-56459790D01*
X152450225Y-56459790D01*
X152600852Y-56380734D01*
X152728183Y-56267929D01*
X152824818Y-56127930D01*
X152885140Y-55968872D01*
X152905645Y-55800000D01*
X152893917Y-55703416D01*
X152885140Y-55631129D01*
X152879043Y-55615053D01*
X152824818Y-55472070D01*
X152797165Y-55432008D01*
X152728185Y-55332073D01*
X152728183Y-55332071D01*
X152600852Y-55219266D01*
X152600850Y-55219265D01*
X152600849Y-55219264D01*
X152597817Y-55217171D01*
X152571221Y-55176037D01*
X152581502Y-55128144D01*
X152622636Y-55101548D01*
X152634173Y-55100500D01*
X178400478Y-55100500D01*
X178402600Y-55100638D01*
X178405722Y-55100638D01*
X178405726Y-55100639D01*
X178470225Y-55100638D01*
X178473015Y-55100698D01*
X178860997Y-55117631D01*
X178866525Y-55118114D01*
X179250194Y-55168619D01*
X179255687Y-55169588D01*
X179633463Y-55253333D01*
X179638845Y-55254775D01*
X180007885Y-55371128D01*
X180013125Y-55373034D01*
X180370644Y-55521119D01*
X180375684Y-55523470D01*
X180385793Y-55528732D01*
X180417278Y-55566256D01*
X180413008Y-55615053D01*
X180375484Y-55646538D01*
X180356240Y-55649500D01*
X178966230Y-55649500D01*
X178801925Y-55682182D01*
X178801915Y-55682185D01*
X178647139Y-55746295D01*
X178507836Y-55839375D01*
X178389375Y-55957836D01*
X178296295Y-56097139D01*
X178232185Y-56251915D01*
X178232182Y-56251925D01*
X178199500Y-56416230D01*
X178199500Y-56583769D01*
X178232182Y-56748074D01*
X178232185Y-56748084D01*
X178296295Y-56902860D01*
X178296296Y-56902862D01*
X178296297Y-56902863D01*
X178389374Y-57042162D01*
X178507838Y-57160626D01*
X178647137Y-57253703D01*
X178801918Y-57317816D01*
X178867104Y-57330782D01*
X178966230Y-57350500D01*
X178966233Y-57350500D01*
X180433770Y-57350500D01*
X180516298Y-57334083D01*
X180598082Y-57317816D01*
X180752863Y-57253703D01*
X180892162Y-57160626D01*
X181010626Y-57042162D01*
X181103703Y-56902863D01*
X181167816Y-56748082D01*
X181200500Y-56583767D01*
X181200500Y-56416233D01*
X181200500Y-56416230D01*
X181180782Y-56317104D01*
X181167816Y-56251918D01*
X181126220Y-56151498D01*
X181107986Y-56107476D01*
X181107986Y-56058492D01*
X181142622Y-56023856D01*
X181191606Y-56023856D01*
X181206068Y-56032205D01*
X181361665Y-56151597D01*
X181365936Y-56155182D01*
X181438933Y-56222070D01*
X181650824Y-56416230D01*
X181651223Y-56416595D01*
X181655156Y-56420527D01*
X181916593Y-56705832D01*
X181920172Y-56710097D01*
X182155740Y-57017094D01*
X182158942Y-57021668D01*
X182366841Y-57348004D01*
X182369633Y-57352839D01*
X182548310Y-57696073D01*
X182550669Y-57701133D01*
X182698743Y-58058616D01*
X182700653Y-58063863D01*
X182817009Y-58432903D01*
X182818454Y-58438296D01*
X182902203Y-58816065D01*
X182903173Y-58821564D01*
X182953679Y-59205210D01*
X182954165Y-59210772D01*
X182971047Y-59597516D01*
X182971108Y-59600307D01*
X182971108Y-59666026D01*
X182971656Y-59670190D01*
X182971186Y-59670251D01*
X182972355Y-59679107D01*
X182972355Y-132476141D01*
X182972294Y-132478933D01*
X182955351Y-132866902D01*
X182954864Y-132872464D01*
X182904357Y-133256080D01*
X182903388Y-133261579D01*
X182819635Y-133639351D01*
X182818190Y-133644744D01*
X182701830Y-134013780D01*
X182699920Y-134019026D01*
X182551842Y-134376508D01*
X182549482Y-134381568D01*
X182370818Y-134724771D01*
X182368027Y-134729607D01*
X182160112Y-135055963D01*
X182156909Y-135060536D01*
X181921358Y-135367506D01*
X181917770Y-135371783D01*
X181891914Y-135400000D01*
X181734241Y-135572068D01*
X181656357Y-135657062D01*
X181652408Y-135661010D01*
X181367125Y-135922418D01*
X181362848Y-135926007D01*
X181055865Y-136161559D01*
X181051292Y-136164761D01*
X180724949Y-136372660D01*
X180720114Y-136375452D01*
X180376900Y-136554115D01*
X180371839Y-136556475D01*
X180014344Y-136704550D01*
X180009098Y-136706459D01*
X179640070Y-136822809D01*
X179634677Y-136824254D01*
X179256916Y-136907999D01*
X179251417Y-136908969D01*
X178867777Y-136959473D01*
X178862215Y-136959959D01*
X178472276Y-136976979D01*
X178469485Y-136977040D01*
X178403051Y-136977040D01*
X178403035Y-136977041D01*
X107067936Y-136977041D01*
X107022681Y-136958296D01*
X107003936Y-136913041D01*
X107008095Y-136890346D01*
X107033708Y-136822809D01*
X107062681Y-136746413D01*
X107070936Y-136678429D01*
X107083186Y-136577544D01*
X107083186Y-136577537D01*
X107066782Y-136442443D01*
X107062681Y-136408669D01*
X107002359Y-136249611D01*
X107002358Y-136249609D01*
X106905726Y-136109614D01*
X106905724Y-136109612D01*
X106895439Y-136100500D01*
X106778393Y-135996807D01*
X106627763Y-135917749D01*
X106462603Y-135877041D01*
X106462597Y-135877041D01*
X106292485Y-135877041D01*
X106292478Y-135877041D01*
X106127318Y-135917749D01*
X106007315Y-135980733D01*
X105976689Y-135996807D01*
X105904340Y-136060903D01*
X105898171Y-136066368D01*
X105851867Y-136082346D01*
X105807826Y-136060903D01*
X105791848Y-136014599D01*
X105792198Y-136010749D01*
X105805645Y-135900003D01*
X105805645Y-135899996D01*
X105785140Y-135731129D01*
X105783927Y-135727931D01*
X105724818Y-135572070D01*
X105722611Y-135568872D01*
X105628185Y-135432073D01*
X105628183Y-135432071D01*
X105593137Y-135401023D01*
X105500852Y-135319266D01*
X105350222Y-135240208D01*
X105185062Y-135199500D01*
X105185056Y-135199500D01*
X105014944Y-135199500D01*
X105014937Y-135199500D01*
X104849777Y-135240208D01*
X104699147Y-135319266D01*
X104699143Y-135319269D01*
X104606861Y-135401023D01*
X104560557Y-135417001D01*
X104516517Y-135395557D01*
X104500889Y-135360832D01*
X104486243Y-135240210D01*
X104485140Y-135231128D01*
X104424818Y-135072070D01*
X104424817Y-135072068D01*
X104328185Y-134932073D01*
X104328183Y-134932071D01*
X104286776Y-134895388D01*
X104200852Y-134819266D01*
X104050222Y-134740208D01*
X103885062Y-134699500D01*
X103885056Y-134699500D01*
X103714944Y-134699500D01*
X103714937Y-134699500D01*
X103549777Y-134740208D01*
X103399148Y-134819266D01*
X103271816Y-134932071D01*
X103271814Y-134932073D01*
X103175182Y-135072068D01*
X103114859Y-135231129D01*
X103094355Y-135399996D01*
X103094355Y-135400003D01*
X103114859Y-135568870D01*
X103175182Y-135727931D01*
X103271814Y-135867926D01*
X103271816Y-135867928D01*
X103271817Y-135867929D01*
X103399148Y-135980734D01*
X103549775Y-136059790D01*
X103549777Y-136059791D01*
X103714937Y-136100499D01*
X103714942Y-136100499D01*
X103714944Y-136100500D01*
X103714946Y-136100500D01*
X103885054Y-136100500D01*
X103885056Y-136100500D01*
X103885058Y-136100499D01*
X103885062Y-136100499D01*
X104050222Y-136059791D01*
X104050222Y-136059790D01*
X104050225Y-136059790D01*
X104200852Y-135980734D01*
X104293138Y-135898975D01*
X104339441Y-135882998D01*
X104383482Y-135904441D01*
X104399110Y-135939166D01*
X104414859Y-136068870D01*
X104475182Y-136227931D01*
X104571814Y-136367926D01*
X104571816Y-136367928D01*
X104571817Y-136367929D01*
X104699148Y-136480734D01*
X104849775Y-136559790D01*
X104849777Y-136559791D01*
X105014937Y-136600499D01*
X105014942Y-136600499D01*
X105014944Y-136600500D01*
X105014946Y-136600500D01*
X105185054Y-136600500D01*
X105185056Y-136600500D01*
X105185058Y-136600499D01*
X105185062Y-136600499D01*
X105350222Y-136559791D01*
X105350222Y-136559790D01*
X105350225Y-136559790D01*
X105500852Y-136480734D01*
X105579371Y-136411172D01*
X105625673Y-136395194D01*
X105669713Y-136416637D01*
X105685692Y-136462941D01*
X105685342Y-136466791D01*
X105671896Y-136577537D01*
X105671896Y-136577544D01*
X105692400Y-136746411D01*
X105746987Y-136890346D01*
X105745508Y-136939308D01*
X105709841Y-136972882D01*
X105687146Y-136977041D01*
X89074255Y-136977041D01*
X89071463Y-136976980D01*
X88683490Y-136960037D01*
X88677928Y-136959550D01*
X88294306Y-136909042D01*
X88288807Y-136908073D01*
X87911033Y-136824320D01*
X87905641Y-136822875D01*
X87536607Y-136706517D01*
X87531360Y-136704607D01*
X87173881Y-136556532D01*
X87168821Y-136554173D01*
X86993568Y-136462941D01*
X86825589Y-136375495D01*
X86820756Y-136372705D01*
X86494419Y-136164804D01*
X86489849Y-136161605D01*
X86489789Y-136161559D01*
X86182855Y-135926039D01*
X86178590Y-135922460D01*
X85910146Y-135676476D01*
X85893303Y-135661042D01*
X85889355Y-135657094D01*
X85758648Y-135514453D01*
X85627934Y-135371804D01*
X85624359Y-135367543D01*
X85388784Y-135060536D01*
X85385596Y-135055982D01*
X85177687Y-134729631D01*
X85174905Y-134724815D01*
X84996220Y-134381568D01*
X84993865Y-134376515D01*
X84993862Y-134376508D01*
X84845787Y-134019026D01*
X84843881Y-134013789D01*
X84843878Y-134013780D01*
X84727520Y-133644744D01*
X84726078Y-133639362D01*
X84726076Y-133639351D01*
X84642322Y-133261572D01*
X84641358Y-133256100D01*
X84590848Y-132872461D01*
X84590362Y-132866905D01*
X84577241Y-132566445D01*
X84573416Y-132478841D01*
X84573355Y-132476049D01*
X84573355Y-131238010D01*
X93927739Y-131238010D01*
X93948062Y-131586941D01*
X94008754Y-131931140D01*
X94008759Y-131931160D01*
X94095851Y-132222068D01*
X94108998Y-132265981D01*
X94231510Y-132549996D01*
X94247435Y-132586914D01*
X94410695Y-132869690D01*
X94422194Y-132889606D01*
X94630912Y-133169963D01*
X94870766Y-133424193D01*
X94870770Y-133424197D01*
X95138505Y-133648853D01*
X95138508Y-133648855D01*
X95138513Y-133648859D01*
X95430531Y-133840923D01*
X95742873Y-133997787D01*
X96071313Y-134117329D01*
X96411410Y-134197933D01*
X96758565Y-134238510D01*
X96758567Y-134238510D01*
X97108081Y-134238510D01*
X97108083Y-134238510D01*
X97455238Y-134197933D01*
X97795335Y-134117329D01*
X98123775Y-133997787D01*
X98436117Y-133840923D01*
X98728135Y-133648859D01*
X98995882Y-133424193D01*
X99235736Y-133169963D01*
X99362266Y-133000003D01*
X108294355Y-133000003D01*
X108314859Y-133168870D01*
X108375182Y-133327931D01*
X108471814Y-133467926D01*
X108471816Y-133467928D01*
X108471817Y-133467929D01*
X108599148Y-133580734D01*
X108689937Y-133628384D01*
X108749777Y-133659791D01*
X108914937Y-133700499D01*
X108914942Y-133700499D01*
X108914944Y-133700500D01*
X108914946Y-133700500D01*
X109085054Y-133700500D01*
X109085056Y-133700500D01*
X109085058Y-133700499D01*
X109085062Y-133700499D01*
X109250222Y-133659791D01*
X109250222Y-133659790D01*
X109250225Y-133659790D01*
X109400852Y-133580734D01*
X109528183Y-133467929D01*
X109624818Y-133327930D01*
X109685140Y-133168872D01*
X109703468Y-133017928D01*
X109705645Y-133000003D01*
X109705645Y-132999996D01*
X109685140Y-132831129D01*
X109642566Y-132718870D01*
X109624818Y-132672070D01*
X109540561Y-132550003D01*
X114494355Y-132550003D01*
X114514859Y-132718870D01*
X114575182Y-132877931D01*
X114671814Y-133017926D01*
X114671816Y-133017928D01*
X114671817Y-133017929D01*
X114799148Y-133130734D01*
X114873892Y-133169963D01*
X114949777Y-133209791D01*
X115114937Y-133250499D01*
X115114942Y-133250499D01*
X115114944Y-133250500D01*
X115114946Y-133250500D01*
X115285054Y-133250500D01*
X115285056Y-133250500D01*
X115285058Y-133250499D01*
X115285062Y-133250499D01*
X115450222Y-133209791D01*
X115450222Y-133209790D01*
X115450225Y-133209790D01*
X115600852Y-133130734D01*
X115728183Y-133017929D01*
X115824818Y-132877930D01*
X115885140Y-132718872D01*
X115905645Y-132550000D01*
X115903468Y-132532073D01*
X115887901Y-132403864D01*
X115885140Y-132381128D01*
X115824818Y-132222070D01*
X115824817Y-132222068D01*
X115728185Y-132082073D01*
X115728183Y-132082071D01*
X115600852Y-131969266D01*
X115450222Y-131890208D01*
X115285062Y-131849500D01*
X115285056Y-131849500D01*
X115114944Y-131849500D01*
X115114937Y-131849500D01*
X114949777Y-131890208D01*
X114799148Y-131969266D01*
X114671816Y-132082071D01*
X114671814Y-132082073D01*
X114575182Y-132222068D01*
X114514859Y-132381129D01*
X114494355Y-132549996D01*
X114494355Y-132550003D01*
X109540561Y-132550003D01*
X109540556Y-132549996D01*
X109528185Y-132532073D01*
X109528183Y-132532071D01*
X109468202Y-132478933D01*
X109433177Y-132447903D01*
X109411735Y-132403864D01*
X109427713Y-132357560D01*
X109433171Y-132352101D01*
X109528183Y-132267929D01*
X109624818Y-132127930D01*
X109685140Y-131968872D01*
X109699635Y-131849500D01*
X109705645Y-131800003D01*
X109705645Y-131799996D01*
X109685140Y-131631129D01*
X109668380Y-131586937D01*
X109624818Y-131472070D01*
X109594351Y-131427931D01*
X109528185Y-131332073D01*
X109528183Y-131332071D01*
X109512219Y-131317928D01*
X109433177Y-131247903D01*
X109411735Y-131203864D01*
X109427713Y-131157560D01*
X109433171Y-131152101D01*
X109528183Y-131067929D01*
X109624818Y-130927930D01*
X109654371Y-130850003D01*
X113694355Y-130850003D01*
X113714859Y-131018870D01*
X113775182Y-131177931D01*
X113871814Y-131317926D01*
X113871816Y-131317928D01*
X113871817Y-131317929D01*
X113999148Y-131430734D01*
X114094414Y-131480734D01*
X114149777Y-131509791D01*
X114314937Y-131550499D01*
X114314942Y-131550499D01*
X114314944Y-131550500D01*
X114314946Y-131550500D01*
X114485054Y-131550500D01*
X114485056Y-131550500D01*
X114485058Y-131550499D01*
X114485062Y-131550499D01*
X114650222Y-131509791D01*
X114650222Y-131509790D01*
X114650225Y-131509790D01*
X114800852Y-131430734D01*
X114928183Y-131317929D01*
X115024818Y-131177930D01*
X115085140Y-131018872D01*
X115096182Y-130927931D01*
X115099573Y-130900003D01*
X115444355Y-130900003D01*
X115464859Y-131068870D01*
X115525182Y-131227931D01*
X115621814Y-131367926D01*
X115621816Y-131367928D01*
X115621817Y-131367929D01*
X115749148Y-131480734D01*
X115882073Y-131550499D01*
X115899777Y-131559791D01*
X116064937Y-131600499D01*
X116064942Y-131600499D01*
X116064944Y-131600500D01*
X116064946Y-131600500D01*
X116235054Y-131600500D01*
X116235056Y-131600500D01*
X116235058Y-131600499D01*
X116235062Y-131600499D01*
X116400222Y-131559791D01*
X116400222Y-131559790D01*
X116400225Y-131559790D01*
X116550852Y-131480734D01*
X116678183Y-131367929D01*
X116774818Y-131227930D01*
X116785409Y-131200003D01*
X121294355Y-131200003D01*
X121314859Y-131368870D01*
X121375182Y-131527931D01*
X121471814Y-131667926D01*
X121471816Y-131667928D01*
X121471817Y-131667929D01*
X121599148Y-131780734D01*
X121635862Y-131800003D01*
X121749777Y-131859791D01*
X121914937Y-131900499D01*
X121914942Y-131900499D01*
X121914944Y-131900500D01*
X121914946Y-131900500D01*
X122085054Y-131900500D01*
X122085056Y-131900500D01*
X122085058Y-131900499D01*
X122085062Y-131900499D01*
X122250222Y-131859791D01*
X122250222Y-131859790D01*
X122250225Y-131859790D01*
X122400852Y-131780734D01*
X122528183Y-131667929D01*
X122624818Y-131527930D01*
X122685140Y-131368872D01*
X122705645Y-131200003D01*
X125294355Y-131200003D01*
X125314859Y-131368870D01*
X125375182Y-131527931D01*
X125471814Y-131667926D01*
X125471816Y-131667928D01*
X125471817Y-131667929D01*
X125599148Y-131780734D01*
X125635862Y-131800003D01*
X125749777Y-131859791D01*
X125914937Y-131900499D01*
X125914942Y-131900499D01*
X125914944Y-131900500D01*
X125914946Y-131900500D01*
X126085054Y-131900500D01*
X126085056Y-131900500D01*
X126085058Y-131900499D01*
X126085062Y-131900499D01*
X126250222Y-131859791D01*
X126250222Y-131859790D01*
X126250225Y-131859790D01*
X126400852Y-131780734D01*
X126528183Y-131667929D01*
X126624818Y-131527930D01*
X126685140Y-131368872D01*
X126705645Y-131200000D01*
X126702965Y-131177931D01*
X126693503Y-131100003D01*
X129294355Y-131100003D01*
X129314859Y-131268870D01*
X129375182Y-131427931D01*
X129471814Y-131567926D01*
X129471816Y-131567928D01*
X129471817Y-131567929D01*
X129599148Y-131680734D01*
X129749775Y-131759790D01*
X129749777Y-131759791D01*
X129914937Y-131800499D01*
X129914942Y-131800499D01*
X129914944Y-131800500D01*
X129914946Y-131800500D01*
X130085054Y-131800500D01*
X130085056Y-131800500D01*
X130085058Y-131800499D01*
X130085062Y-131800499D01*
X130250222Y-131759791D01*
X130250222Y-131759790D01*
X130250225Y-131759790D01*
X130400852Y-131680734D01*
X130528183Y-131567929D01*
X130624818Y-131427930D01*
X130685140Y-131268872D01*
X130691373Y-131217541D01*
X169117270Y-131217541D01*
X169137593Y-131566472D01*
X169198285Y-131910671D01*
X169198290Y-131910691D01*
X169291510Y-132222068D01*
X169298529Y-132245512D01*
X169385833Y-132447905D01*
X169436966Y-132566445D01*
X169610434Y-132866902D01*
X169611725Y-132869137D01*
X169820443Y-133149494D01*
X169988789Y-133327930D01*
X170060301Y-133403728D01*
X170328036Y-133628384D01*
X170328039Y-133628386D01*
X170328044Y-133628390D01*
X170620062Y-133820454D01*
X170932404Y-133977318D01*
X171260844Y-134096860D01*
X171600941Y-134177464D01*
X171948096Y-134218041D01*
X171948098Y-134218041D01*
X172297612Y-134218041D01*
X172297614Y-134218041D01*
X172644769Y-134177464D01*
X172984866Y-134096860D01*
X173313306Y-133977318D01*
X173625648Y-133820454D01*
X173917666Y-133628390D01*
X174185413Y-133403724D01*
X174425267Y-133149494D01*
X174633985Y-132869137D01*
X174808744Y-132566445D01*
X174947181Y-132245512D01*
X175047424Y-131910677D01*
X175108117Y-131566468D01*
X175128440Y-131217541D01*
X175108117Y-130868614D01*
X175047424Y-130524405D01*
X174947181Y-130189570D01*
X174808744Y-129868637D01*
X174633985Y-129565945D01*
X174425267Y-129285588D01*
X174185413Y-129031358D01*
X174185411Y-129031356D01*
X174185408Y-129031353D01*
X173917673Y-128806697D01*
X173917668Y-128806694D01*
X173917666Y-128806692D01*
X173625648Y-128614628D01*
X173313306Y-128457764D01*
X173313301Y-128457762D01*
X173096475Y-128378844D01*
X179999500Y-128378844D01*
X180030262Y-128533495D01*
X180030263Y-128533501D01*
X180082897Y-128660568D01*
X180090606Y-128679179D01*
X180090607Y-128679181D01*
X180090609Y-128679184D01*
X180141739Y-128755706D01*
X180151295Y-128778775D01*
X180161133Y-128828231D01*
X180161133Y-128828232D01*
X180183290Y-128861391D01*
X180205448Y-128894552D01*
X180271769Y-128938867D01*
X180321223Y-128948704D01*
X180344293Y-128958260D01*
X180420815Y-129009390D01*
X180420821Y-129009394D01*
X180484356Y-129035711D01*
X180566498Y-129069736D01*
X180566502Y-129069736D01*
X180566503Y-129069737D01*
X180605166Y-129077427D01*
X180721155Y-129100500D01*
X180721158Y-129100500D01*
X181978845Y-129100500D01*
X182071635Y-129082042D01*
X182133497Y-129069737D01*
X182133498Y-129069736D01*
X182133501Y-129069736D01*
X182183875Y-129048869D01*
X182279179Y-129009394D01*
X182355708Y-128958258D01*
X182378774Y-128948704D01*
X182428231Y-128938867D01*
X182494552Y-128894552D01*
X182538867Y-128828231D01*
X182548704Y-128778774D01*
X182558260Y-128755706D01*
X182609394Y-128679179D01*
X182648869Y-128583875D01*
X182669736Y-128533501D01*
X182669737Y-128533495D01*
X182700500Y-128378844D01*
X182700500Y-128221155D01*
X182669737Y-128066504D01*
X182669736Y-128066498D01*
X182635711Y-127984356D01*
X182609394Y-127920821D01*
X182558259Y-127844292D01*
X182548704Y-127821223D01*
X182538867Y-127771769D01*
X182494552Y-127705448D01*
X182428231Y-127661133D01*
X182378775Y-127651295D01*
X182355706Y-127641739D01*
X182279184Y-127590609D01*
X182279181Y-127590607D01*
X182279179Y-127590606D01*
X182260568Y-127582897D01*
X182133501Y-127530263D01*
X182133495Y-127530262D01*
X181978845Y-127499500D01*
X181978842Y-127499500D01*
X180721158Y-127499500D01*
X180721155Y-127499500D01*
X180566504Y-127530262D01*
X180566498Y-127530263D01*
X180420823Y-127590605D01*
X180420814Y-127590609D01*
X180344293Y-127641739D01*
X180321224Y-127651295D01*
X180271768Y-127661133D01*
X180271767Y-127661133D01*
X180205448Y-127705448D01*
X180161133Y-127771767D01*
X180161133Y-127771768D01*
X180151295Y-127821224D01*
X180141739Y-127844293D01*
X180090609Y-127920814D01*
X180090605Y-127920823D01*
X180030263Y-128066498D01*
X180030262Y-128066504D01*
X179999500Y-128221155D01*
X179999500Y-128378844D01*
X173096475Y-128378844D01*
X172984870Y-128338223D01*
X172984866Y-128338222D01*
X172644769Y-128257618D01*
X172644765Y-128257617D01*
X172644763Y-128257617D01*
X172450022Y-128234855D01*
X172297614Y-128217041D01*
X171948096Y-128217041D01*
X171823121Y-128231648D01*
X171600946Y-128257617D01*
X171600942Y-128257617D01*
X171600941Y-128257618D01*
X171514575Y-128278087D01*
X171260839Y-128338223D01*
X170932408Y-128457762D01*
X170620062Y-128614628D01*
X170328044Y-128806692D01*
X170328036Y-128806697D01*
X170060301Y-129031353D01*
X169820440Y-129285591D01*
X169611723Y-129565947D01*
X169436966Y-129868636D01*
X169298530Y-130189568D01*
X169298525Y-130189582D01*
X169198290Y-130524390D01*
X169198285Y-130524410D01*
X169137593Y-130868609D01*
X169117270Y-131217541D01*
X130691373Y-131217541D01*
X130696182Y-131177931D01*
X130705645Y-131100003D01*
X130705645Y-131099996D01*
X130685140Y-130931129D01*
X130683927Y-130927931D01*
X130624818Y-130772070D01*
X130622611Y-130768872D01*
X130528185Y-130632073D01*
X130528183Y-130632071D01*
X130513729Y-130619266D01*
X130400852Y-130519266D01*
X130250222Y-130440208D01*
X130085062Y-130399500D01*
X130085056Y-130399500D01*
X129914944Y-130399500D01*
X129914937Y-130399500D01*
X129749777Y-130440208D01*
X129599148Y-130519266D01*
X129471816Y-130632071D01*
X129471814Y-130632073D01*
X129375182Y-130772068D01*
X129314859Y-130931129D01*
X129294355Y-131099996D01*
X129294355Y-131100003D01*
X126693503Y-131100003D01*
X126685140Y-131031129D01*
X126646002Y-130927930D01*
X126624818Y-130872070D01*
X126624817Y-130872068D01*
X126528185Y-130732073D01*
X126528183Y-130732071D01*
X126470680Y-130681128D01*
X126400852Y-130619266D01*
X126250222Y-130540208D01*
X126085062Y-130499500D01*
X126085056Y-130499500D01*
X125914944Y-130499500D01*
X125914937Y-130499500D01*
X125749777Y-130540208D01*
X125599148Y-130619266D01*
X125471816Y-130732071D01*
X125471814Y-130732073D01*
X125375182Y-130872068D01*
X125314859Y-131031129D01*
X125294355Y-131199996D01*
X125294355Y-131200003D01*
X122705645Y-131200003D01*
X122705645Y-131200000D01*
X122702965Y-131177931D01*
X122685140Y-131031129D01*
X122646002Y-130927930D01*
X122624818Y-130872070D01*
X122624817Y-130872068D01*
X122528185Y-130732073D01*
X122528183Y-130732071D01*
X122470680Y-130681128D01*
X122400852Y-130619266D01*
X122250222Y-130540208D01*
X122085062Y-130499500D01*
X122085056Y-130499500D01*
X121914944Y-130499500D01*
X121914937Y-130499500D01*
X121749777Y-130540208D01*
X121599148Y-130619266D01*
X121471816Y-130732071D01*
X121471814Y-130732073D01*
X121375182Y-130872068D01*
X121314859Y-131031129D01*
X121294355Y-131199996D01*
X121294355Y-131200003D01*
X116785409Y-131200003D01*
X116835140Y-131068872D01*
X116851865Y-130931129D01*
X116855645Y-130900003D01*
X116855645Y-130899996D01*
X116835255Y-130732073D01*
X116835140Y-130731128D01*
X116774818Y-130572070D01*
X116774817Y-130572068D01*
X116678185Y-130432073D01*
X116678183Y-130432071D01*
X116641418Y-130399500D01*
X116550852Y-130319266D01*
X116400222Y-130240208D01*
X116235062Y-130199500D01*
X116235056Y-130199500D01*
X116064944Y-130199500D01*
X116064937Y-130199500D01*
X115899777Y-130240208D01*
X115749148Y-130319266D01*
X115621816Y-130432071D01*
X115621814Y-130432073D01*
X115525182Y-130572068D01*
X115464859Y-130731129D01*
X115444355Y-130899996D01*
X115444355Y-130900003D01*
X115099573Y-130900003D01*
X115105645Y-130850003D01*
X115105645Y-130849996D01*
X115085140Y-130681129D01*
X115054373Y-130600003D01*
X115024818Y-130522070D01*
X114968314Y-130440210D01*
X114928185Y-130382073D01*
X114928183Y-130382071D01*
X114800852Y-130269266D01*
X114650222Y-130190208D01*
X114485062Y-130149500D01*
X114485056Y-130149500D01*
X114314944Y-130149500D01*
X114314937Y-130149500D01*
X114149777Y-130190208D01*
X113999148Y-130269266D01*
X113871816Y-130382071D01*
X113871814Y-130382073D01*
X113775182Y-130522068D01*
X113714859Y-130681129D01*
X113694355Y-130849996D01*
X113694355Y-130850003D01*
X109654371Y-130850003D01*
X109685140Y-130768872D01*
X109705645Y-130600000D01*
X109702253Y-130572068D01*
X109686243Y-130440210D01*
X109685140Y-130431128D01*
X109624818Y-130272070D01*
X109622883Y-130269266D01*
X109528185Y-130132073D01*
X109528183Y-130132071D01*
X109400852Y-130019266D01*
X109250222Y-129940208D01*
X109085062Y-129899500D01*
X109085056Y-129899500D01*
X108914944Y-129899500D01*
X108914937Y-129899500D01*
X108749777Y-129940208D01*
X108599148Y-130019266D01*
X108471816Y-130132071D01*
X108471814Y-130132073D01*
X108375182Y-130272068D01*
X108314859Y-130431129D01*
X108294355Y-130599996D01*
X108294355Y-130600003D01*
X108314859Y-130768870D01*
X108375182Y-130927931D01*
X108471814Y-131067926D01*
X108471816Y-131067928D01*
X108471817Y-131067929D01*
X108508013Y-131099996D01*
X108566821Y-131152095D01*
X108588264Y-131196136D01*
X108572286Y-131242440D01*
X108566821Y-131247905D01*
X108471816Y-131332071D01*
X108471814Y-131332073D01*
X108375182Y-131472068D01*
X108314859Y-131631129D01*
X108294355Y-131799996D01*
X108294355Y-131800003D01*
X108314859Y-131968870D01*
X108375182Y-132127931D01*
X108471814Y-132267926D01*
X108471816Y-132267928D01*
X108566821Y-132352095D01*
X108588264Y-132396136D01*
X108572286Y-132442440D01*
X108566821Y-132447905D01*
X108471816Y-132532071D01*
X108471814Y-132532073D01*
X108375182Y-132672068D01*
X108314859Y-132831129D01*
X108294355Y-132999996D01*
X108294355Y-133000003D01*
X99362266Y-133000003D01*
X99444454Y-132889606D01*
X99619213Y-132586914D01*
X99757650Y-132265981D01*
X99857893Y-131931146D01*
X99918586Y-131586937D01*
X99938909Y-131238010D01*
X99918586Y-130889083D01*
X99857893Y-130544874D01*
X99757650Y-130210039D01*
X99619213Y-129889106D01*
X99444454Y-129586414D01*
X99235736Y-129306057D01*
X98995882Y-129051827D01*
X98995880Y-129051825D01*
X98995877Y-129051822D01*
X98728142Y-128827166D01*
X98728137Y-128827163D01*
X98728135Y-128827161D01*
X98436117Y-128635097D01*
X98123775Y-128478233D01*
X98067537Y-128457764D01*
X97795339Y-128358692D01*
X97708973Y-128338223D01*
X97455238Y-128278087D01*
X97455234Y-128278086D01*
X97455232Y-128278086D01*
X97260491Y-128255324D01*
X97108083Y-128237510D01*
X96758565Y-128237510D01*
X96633590Y-128252117D01*
X96411415Y-128278086D01*
X96411411Y-128278086D01*
X96411410Y-128278087D01*
X96241361Y-128318389D01*
X96071308Y-128358692D01*
X95742877Y-128478231D01*
X95430531Y-128635097D01*
X95138513Y-128827161D01*
X95138505Y-128827166D01*
X94870770Y-129051822D01*
X94630909Y-129306060D01*
X94422192Y-129586416D01*
X94247435Y-129889105D01*
X94225391Y-129940210D01*
X94117828Y-130189570D01*
X94108999Y-130210037D01*
X94108994Y-130210051D01*
X94008759Y-130544859D01*
X94008754Y-130544879D01*
X93948062Y-130889078D01*
X93927739Y-131238010D01*
X84573355Y-131238010D01*
X84573355Y-122428844D01*
X86349500Y-122428844D01*
X86380262Y-122583495D01*
X86380263Y-122583501D01*
X86432897Y-122710568D01*
X86440606Y-122729179D01*
X86440607Y-122729181D01*
X86440609Y-122729184D01*
X86491739Y-122805706D01*
X86501295Y-122828775D01*
X86511133Y-122878231D01*
X86511133Y-122878232D01*
X86522118Y-122894671D01*
X86555448Y-122944552D01*
X86621769Y-122988867D01*
X86671223Y-122998704D01*
X86694293Y-123008260D01*
X86770815Y-123059390D01*
X86770821Y-123059394D01*
X86834356Y-123085711D01*
X86916498Y-123119736D01*
X86916502Y-123119736D01*
X86916503Y-123119737D01*
X86955166Y-123127427D01*
X87071155Y-123150500D01*
X87071158Y-123150500D01*
X88328845Y-123150500D01*
X88421635Y-123132042D01*
X88483497Y-123119737D01*
X88483498Y-123119736D01*
X88483501Y-123119736D01*
X88533875Y-123098869D01*
X88629179Y-123059394D01*
X88705708Y-123008258D01*
X88728774Y-122998704D01*
X88778231Y-122988867D01*
X88844552Y-122944552D01*
X88888867Y-122878231D01*
X88898704Y-122828774D01*
X88908260Y-122805706D01*
X88959394Y-122729179D01*
X88998869Y-122633875D01*
X89019736Y-122583501D01*
X89019737Y-122583495D01*
X89050500Y-122428844D01*
X89050500Y-122271155D01*
X89019737Y-122116504D01*
X89019736Y-122116498D01*
X88985711Y-122034356D01*
X88959394Y-121970821D01*
X88908259Y-121894292D01*
X88898704Y-121871223D01*
X88888867Y-121821769D01*
X88844552Y-121755448D01*
X88778231Y-121711133D01*
X88728775Y-121701295D01*
X88705706Y-121691739D01*
X88629184Y-121640609D01*
X88629181Y-121640607D01*
X88629179Y-121640606D01*
X88610568Y-121632897D01*
X88483501Y-121580263D01*
X88483495Y-121580262D01*
X88328845Y-121549500D01*
X88328842Y-121549500D01*
X87071158Y-121549500D01*
X87071155Y-121549500D01*
X86916504Y-121580262D01*
X86916498Y-121580263D01*
X86770823Y-121640605D01*
X86770814Y-121640609D01*
X86694293Y-121691739D01*
X86671224Y-121701295D01*
X86621768Y-121711133D01*
X86621767Y-121711133D01*
X86555448Y-121755448D01*
X86511133Y-121821767D01*
X86511133Y-121821768D01*
X86501295Y-121871224D01*
X86491739Y-121894293D01*
X86440609Y-121970814D01*
X86440605Y-121970823D01*
X86380263Y-122116498D01*
X86380262Y-122116504D01*
X86349500Y-122271155D01*
X86349500Y-122428844D01*
X84573355Y-122428844D01*
X84573355Y-119200000D01*
X91444671Y-119200000D01*
X91463965Y-119494373D01*
X91463967Y-119494390D01*
X91521516Y-119783714D01*
X91521519Y-119783726D01*
X91616344Y-120063067D01*
X91616351Y-120063084D01*
X91746827Y-120327664D01*
X91910718Y-120572944D01*
X91910727Y-120572957D01*
X92105242Y-120794758D01*
X92327043Y-120989273D01*
X92572335Y-121153172D01*
X92836923Y-121283652D01*
X92836932Y-121283655D01*
X93116273Y-121378480D01*
X93116285Y-121378483D01*
X93405609Y-121436032D01*
X93405611Y-121436032D01*
X93405620Y-121436034D01*
X93700000Y-121455329D01*
X93994380Y-121436034D01*
X94001905Y-121434537D01*
X94283714Y-121378483D01*
X94283726Y-121378480D01*
X94416575Y-121333382D01*
X94563077Y-121283652D01*
X94827665Y-121153172D01*
X95072957Y-120989273D01*
X95294758Y-120794758D01*
X95489273Y-120572957D01*
X95653172Y-120327665D01*
X95783652Y-120063077D01*
X95788090Y-120050003D01*
X104494355Y-120050003D01*
X104514859Y-120218870D01*
X104575182Y-120377931D01*
X104671814Y-120517926D01*
X104671816Y-120517928D01*
X104671817Y-120517929D01*
X104799148Y-120630734D01*
X104949775Y-120709790D01*
X104949777Y-120709791D01*
X105114937Y-120750499D01*
X105114942Y-120750499D01*
X105114944Y-120750500D01*
X105114946Y-120750500D01*
X105202257Y-120750500D01*
X105247512Y-120769245D01*
X105266257Y-120814500D01*
X105262399Y-120836383D01*
X105239048Y-120900557D01*
X105239046Y-120900562D01*
X105239045Y-120900566D01*
X105206663Y-121084292D01*
X105206663Y-121084296D01*
X105206670Y-121177505D01*
X105206670Y-125085295D01*
X105206660Y-125085316D01*
X105206655Y-125168298D01*
X105206653Y-125205103D01*
X105206653Y-125205108D01*
X105206654Y-125205109D01*
X105239040Y-125388842D01*
X105302843Y-125564160D01*
X105302846Y-125564166D01*
X105396126Y-125725739D01*
X105396128Y-125725742D01*
X105516022Y-125868626D01*
X105516052Y-125868662D01*
X105648160Y-125979509D01*
X105658978Y-125988586D01*
X105820554Y-126081863D01*
X105820556Y-126081864D01*
X105995879Y-126145665D01*
X106078732Y-126160267D01*
X106179603Y-126178047D01*
X106179608Y-126178047D01*
X106179618Y-126178049D01*
X106272904Y-126178041D01*
X146202751Y-126178041D01*
X146202857Y-126178047D01*
X146207007Y-126178046D01*
X146207013Y-126178048D01*
X146272901Y-126178041D01*
X146272907Y-126178041D01*
X146343242Y-126178041D01*
X146343336Y-126178033D01*
X146366178Y-126178032D01*
X146549886Y-126145625D01*
X146725176Y-126081813D01*
X146886726Y-125988536D01*
X147029626Y-125868626D01*
X147149536Y-125725726D01*
X147242813Y-125564176D01*
X147306625Y-125388886D01*
X147339032Y-125205178D01*
X147339033Y-125182241D01*
X147339040Y-125182161D01*
X147339040Y-125150000D01*
X173094671Y-125150000D01*
X173113965Y-125444373D01*
X173113967Y-125444390D01*
X173171516Y-125733714D01*
X173171519Y-125733726D01*
X173266344Y-126013067D01*
X173266351Y-126013084D01*
X173396827Y-126277664D01*
X173396828Y-126277665D01*
X173560727Y-126522957D01*
X173755242Y-126744758D01*
X173977043Y-126939273D01*
X174222335Y-127103172D01*
X174486923Y-127233652D01*
X174486932Y-127233655D01*
X174766273Y-127328480D01*
X174766285Y-127328483D01*
X175055609Y-127386032D01*
X175055611Y-127386032D01*
X175055620Y-127386034D01*
X175350000Y-127405329D01*
X175644380Y-127386034D01*
X175651905Y-127384537D01*
X175933714Y-127328483D01*
X175933726Y-127328480D01*
X176066575Y-127283382D01*
X176213077Y-127233652D01*
X176477665Y-127103172D01*
X176722957Y-126939273D01*
X176944758Y-126744758D01*
X177139273Y-126522957D01*
X177303172Y-126277665D01*
X177433652Y-126013077D01*
X177528481Y-125733722D01*
X177530069Y-125725742D01*
X177586032Y-125444390D01*
X177586031Y-125444390D01*
X177586034Y-125444380D01*
X177605329Y-125150000D01*
X177586034Y-124855620D01*
X177586032Y-124855609D01*
X177528483Y-124566285D01*
X177528480Y-124566273D01*
X177433655Y-124286930D01*
X177433654Y-124286929D01*
X177433652Y-124286923D01*
X177303172Y-124022336D01*
X177139273Y-123777043D01*
X176944758Y-123555242D01*
X176722957Y-123360727D01*
X176477665Y-123196828D01*
X176477666Y-123196828D01*
X176477664Y-123196827D01*
X176213084Y-123066351D01*
X176213067Y-123066344D01*
X175933726Y-122971519D01*
X175933714Y-122971516D01*
X175644390Y-122913967D01*
X175644373Y-122913965D01*
X175350000Y-122894671D01*
X175055626Y-122913965D01*
X175055609Y-122913967D01*
X174766285Y-122971516D01*
X174766273Y-122971519D01*
X174486930Y-123066344D01*
X174486929Y-123066345D01*
X174222336Y-123196827D01*
X173977055Y-123360718D01*
X173977040Y-123360729D01*
X173755244Y-123555240D01*
X173755240Y-123555244D01*
X173560729Y-123777040D01*
X173560718Y-123777055D01*
X173396827Y-124022336D01*
X173266345Y-124286929D01*
X173266344Y-124286930D01*
X173171519Y-124566273D01*
X173171516Y-124566285D01*
X173113967Y-124855609D01*
X173113965Y-124855626D01*
X173094671Y-125150000D01*
X147339040Y-125150000D01*
X147339040Y-125111807D01*
X147339040Y-125111801D01*
X147339047Y-125046013D01*
X147339045Y-125046007D01*
X147339046Y-125042009D01*
X147339040Y-125041899D01*
X147339040Y-121204091D01*
X147339043Y-121204083D01*
X147339044Y-121177577D01*
X147339049Y-121084293D01*
X147306662Y-120900557D01*
X147271152Y-120802982D01*
X147242860Y-120725238D01*
X147242857Y-120725233D01*
X147149579Y-120563664D01*
X147149578Y-120563662D01*
X147029655Y-120420741D01*
X147029651Y-120420737D01*
X146886740Y-120300823D01*
X146886739Y-120300822D01*
X146886734Y-120300818D01*
X146725158Y-120207539D01*
X146725156Y-120207538D01*
X146725154Y-120207537D01*
X146549839Y-120143736D01*
X146366108Y-120111351D01*
X146366105Y-120111350D01*
X146366101Y-120111350D01*
X146366094Y-120111350D01*
X146272914Y-120111355D01*
X135979860Y-120111355D01*
X135979753Y-120111348D01*
X135975599Y-120111348D01*
X135975598Y-120111348D01*
X135929961Y-120111352D01*
X135918132Y-120111354D01*
X135901561Y-120109173D01*
X135894004Y-120107148D01*
X135855143Y-120077328D01*
X135848750Y-120061894D01*
X135846750Y-120054429D01*
X135844570Y-120037865D01*
X135844570Y-120037590D01*
X135844574Y-119980304D01*
X135844572Y-119980299D01*
X135844573Y-119977868D01*
X135844358Y-119974661D01*
X135844079Y-119881129D01*
X135841566Y-119037924D01*
X173099500Y-119037924D01*
X173109696Y-119167488D01*
X173109698Y-119167495D01*
X173163594Y-119381388D01*
X173254824Y-119582239D01*
X173351699Y-119722070D01*
X173380449Y-119763567D01*
X173536433Y-119919551D01*
X173717761Y-120045176D01*
X173918607Y-120136404D01*
X174132515Y-120190304D01*
X174262067Y-120200500D01*
X176437932Y-120200499D01*
X176567485Y-120190304D01*
X176781393Y-120136404D01*
X176982239Y-120045176D01*
X177163567Y-119919551D01*
X177319551Y-119763567D01*
X177445176Y-119582239D01*
X177536404Y-119381393D01*
X177590304Y-119167485D01*
X177599550Y-119050003D01*
X180294355Y-119050003D01*
X180314859Y-119218870D01*
X180375182Y-119377931D01*
X180471814Y-119517926D01*
X180471816Y-119517928D01*
X180471817Y-119517929D01*
X180599148Y-119630734D01*
X180749775Y-119709790D01*
X180749777Y-119709791D01*
X180914937Y-119750499D01*
X180914942Y-119750499D01*
X180914944Y-119750500D01*
X180914946Y-119750500D01*
X181085054Y-119750500D01*
X181085056Y-119750500D01*
X181085058Y-119750499D01*
X181085062Y-119750499D01*
X181250222Y-119709791D01*
X181250222Y-119709790D01*
X181250225Y-119709790D01*
X181400852Y-119630734D01*
X181528183Y-119517929D01*
X181624818Y-119377930D01*
X181685140Y-119218872D01*
X181705645Y-119050000D01*
X181696182Y-118972070D01*
X181685140Y-118881129D01*
X181624817Y-118722068D01*
X181528185Y-118582073D01*
X181528183Y-118582071D01*
X181503033Y-118559790D01*
X181400852Y-118469266D01*
X181250222Y-118390208D01*
X181085062Y-118349500D01*
X181085056Y-118349500D01*
X180914944Y-118349500D01*
X180914937Y-118349500D01*
X180749777Y-118390208D01*
X180599148Y-118469266D01*
X180471816Y-118582071D01*
X180471814Y-118582073D01*
X180375182Y-118722068D01*
X180314859Y-118881129D01*
X180294355Y-119049996D01*
X180294355Y-119050003D01*
X177599550Y-119050003D01*
X177600500Y-119037933D01*
X177600499Y-116862068D01*
X177590304Y-116732515D01*
X177569513Y-116650003D01*
X181144355Y-116650003D01*
X181164859Y-116818870D01*
X181225182Y-116977931D01*
X181321814Y-117117926D01*
X181321816Y-117117928D01*
X181321817Y-117117929D01*
X181449148Y-117230734D01*
X181599775Y-117309790D01*
X181599777Y-117309791D01*
X181764937Y-117350499D01*
X181764942Y-117350499D01*
X181764944Y-117350500D01*
X181764946Y-117350500D01*
X181935054Y-117350500D01*
X181935056Y-117350500D01*
X181935058Y-117350499D01*
X181935062Y-117350499D01*
X182100222Y-117309791D01*
X182100222Y-117309790D01*
X182100225Y-117309790D01*
X182250852Y-117230734D01*
X182378183Y-117117929D01*
X182474818Y-116977930D01*
X182535140Y-116818872D01*
X182555645Y-116650000D01*
X182552965Y-116627931D01*
X182535140Y-116481129D01*
X182474817Y-116322068D01*
X182378185Y-116182073D01*
X182378183Y-116182071D01*
X182250852Y-116069266D01*
X182100222Y-115990208D01*
X181935062Y-115949500D01*
X181935056Y-115949500D01*
X181764944Y-115949500D01*
X181764937Y-115949500D01*
X181599777Y-115990208D01*
X181449148Y-116069266D01*
X181321816Y-116182071D01*
X181321814Y-116182073D01*
X181225182Y-116322068D01*
X181164859Y-116481129D01*
X181144355Y-116649996D01*
X181144355Y-116650003D01*
X177569513Y-116650003D01*
X177536404Y-116518607D01*
X177445176Y-116317761D01*
X177319551Y-116136433D01*
X177163567Y-115980449D01*
X176982239Y-115854824D01*
X176781393Y-115763596D01*
X176781391Y-115763595D01*
X176781388Y-115763594D01*
X176653321Y-115731324D01*
X176567485Y-115709696D01*
X176437933Y-115699500D01*
X176437925Y-115699500D01*
X174262075Y-115699500D01*
X174132511Y-115709696D01*
X174132504Y-115709698D01*
X173918611Y-115763594D01*
X173717760Y-115854824D01*
X173536436Y-115980446D01*
X173380446Y-116136436D01*
X173254824Y-116317760D01*
X173163594Y-116518611D01*
X173130489Y-116649996D01*
X173109696Y-116732515D01*
X173099500Y-116862067D01*
X173099500Y-116862068D01*
X173099500Y-116862074D01*
X173099500Y-119037924D01*
X135841566Y-119037924D01*
X135839016Y-118182185D01*
X135839026Y-118097647D01*
X135806647Y-117913908D01*
X135801587Y-117900003D01*
X156444355Y-117900003D01*
X156464859Y-118068870D01*
X156525182Y-118227931D01*
X156621814Y-118367926D01*
X156621816Y-118367928D01*
X156621817Y-118367929D01*
X156749148Y-118480734D01*
X156899775Y-118559790D01*
X156899777Y-118559791D01*
X157064937Y-118600499D01*
X157064942Y-118600499D01*
X157064944Y-118600500D01*
X157064946Y-118600500D01*
X157235054Y-118600500D01*
X157235056Y-118600500D01*
X157235058Y-118600499D01*
X157235062Y-118600499D01*
X157400222Y-118559791D01*
X157400222Y-118559790D01*
X157400225Y-118559790D01*
X157550852Y-118480734D01*
X157678183Y-118367929D01*
X157774818Y-118227930D01*
X157835140Y-118068872D01*
X157843342Y-118001323D01*
X157855645Y-117900003D01*
X157855645Y-117899996D01*
X157835140Y-117731129D01*
X157787397Y-117605240D01*
X157774818Y-117572070D01*
X157774817Y-117572068D01*
X157678185Y-117432073D01*
X157678183Y-117432071D01*
X157654093Y-117410729D01*
X157550852Y-117319266D01*
X157400222Y-117240208D01*
X157235062Y-117199500D01*
X157235056Y-117199500D01*
X157064944Y-117199500D01*
X157064937Y-117199500D01*
X156899777Y-117240208D01*
X156749148Y-117319266D01*
X156621816Y-117432071D01*
X156621814Y-117432073D01*
X156525182Y-117572068D01*
X156464859Y-117731129D01*
X156444355Y-117899996D01*
X156444355Y-117900003D01*
X135801587Y-117900003D01*
X135742850Y-117738585D01*
X135649575Y-117577005D01*
X135649571Y-117577000D01*
X135649570Y-117576998D01*
X135529657Y-117434082D01*
X135527260Y-117432071D01*
X135386735Y-117314154D01*
X135386734Y-117314153D01*
X135386730Y-117314150D01*
X135225170Y-117220876D01*
X135225160Y-117220870D01*
X135189847Y-117208018D01*
X135049840Y-117157066D01*
X134866108Y-117124679D01*
X134866107Y-117124678D01*
X134866102Y-117124678D01*
X134866096Y-117124678D01*
X134772817Y-117124684D01*
X130468762Y-117124684D01*
X130468563Y-117124671D01*
X130425191Y-117124679D01*
X130425014Y-117124606D01*
X130305335Y-117124626D01*
X130305326Y-117124627D01*
X130158362Y-117150565D01*
X130121621Y-117157050D01*
X130051303Y-117182653D01*
X129946335Y-117220874D01*
X129946329Y-117220877D01*
X129784784Y-117314167D01*
X129641892Y-117434086D01*
X129641890Y-117434088D01*
X129521986Y-117577001D01*
X129428713Y-117738564D01*
X129364913Y-117913853D01*
X129332514Y-118097565D01*
X129332513Y-118120862D01*
X129332310Y-118124048D01*
X129332317Y-118126469D01*
X129332317Y-118126470D01*
X129332341Y-118134408D01*
X129332510Y-118191551D01*
X129332510Y-118191743D01*
X129332507Y-118259158D01*
X129332721Y-118262363D01*
X129338012Y-120037590D01*
X129335830Y-120054352D01*
X129333815Y-120061869D01*
X129303991Y-120100727D01*
X129288567Y-120107115D01*
X129280886Y-120109174D01*
X129264319Y-120111356D01*
X106342865Y-120111356D01*
X106342786Y-120111351D01*
X106338708Y-120111351D01*
X106338707Y-120111351D01*
X106299410Y-120111353D01*
X106299203Y-120111268D01*
X106179540Y-120111276D01*
X106179531Y-120111277D01*
X105995797Y-120143689D01*
X105987569Y-120146685D01*
X105938632Y-120144551D01*
X105905538Y-120108438D01*
X105902144Y-120078831D01*
X105905645Y-120050001D01*
X105905645Y-120049996D01*
X105885140Y-119881129D01*
X105884990Y-119880734D01*
X105824818Y-119722070D01*
X105824817Y-119722068D01*
X105728185Y-119582073D01*
X105728183Y-119582071D01*
X105655780Y-119517928D01*
X105600852Y-119469266D01*
X105450222Y-119390208D01*
X105285062Y-119349500D01*
X105285056Y-119349500D01*
X105114944Y-119349500D01*
X105114937Y-119349500D01*
X104949777Y-119390208D01*
X104799148Y-119469266D01*
X104671816Y-119582071D01*
X104671814Y-119582073D01*
X104575182Y-119722068D01*
X104514859Y-119881129D01*
X104494355Y-120049996D01*
X104494355Y-120050003D01*
X95788090Y-120050003D01*
X95878481Y-119783722D01*
X95881623Y-119767929D01*
X95936032Y-119494390D01*
X95936031Y-119494390D01*
X95936034Y-119494380D01*
X95948774Y-119300003D01*
X102394355Y-119300003D01*
X102414859Y-119468870D01*
X102475182Y-119627931D01*
X102571814Y-119767926D01*
X102571816Y-119767928D01*
X102571817Y-119767929D01*
X102699148Y-119880734D01*
X102773107Y-119919551D01*
X102849777Y-119959791D01*
X103014937Y-120000499D01*
X103014942Y-120000499D01*
X103014944Y-120000500D01*
X103014946Y-120000500D01*
X103185054Y-120000500D01*
X103185056Y-120000500D01*
X103185058Y-120000499D01*
X103185062Y-120000499D01*
X103350222Y-119959791D01*
X103350222Y-119959790D01*
X103350225Y-119959790D01*
X103500852Y-119880734D01*
X103628183Y-119767929D01*
X103724818Y-119627930D01*
X103785140Y-119468872D01*
X103796182Y-119377931D01*
X103805645Y-119300003D01*
X103805645Y-119299996D01*
X103785140Y-119131129D01*
X103754373Y-119050003D01*
X103724818Y-118972070D01*
X103662045Y-118881128D01*
X103628185Y-118832073D01*
X103628183Y-118832071D01*
X103500852Y-118719266D01*
X103350222Y-118640208D01*
X103185062Y-118599500D01*
X103185056Y-118599500D01*
X103014944Y-118599500D01*
X103014937Y-118599500D01*
X102849777Y-118640208D01*
X102699148Y-118719266D01*
X102571816Y-118832071D01*
X102571814Y-118832073D01*
X102475182Y-118972068D01*
X102414859Y-119131129D01*
X102394355Y-119299996D01*
X102394355Y-119300003D01*
X95948774Y-119300003D01*
X95955329Y-119200000D01*
X95936034Y-118905620D01*
X95936032Y-118905609D01*
X95878483Y-118616285D01*
X95878480Y-118616273D01*
X95783655Y-118336930D01*
X95783654Y-118336929D01*
X95783652Y-118336923D01*
X95653172Y-118072336D01*
X95489273Y-117827043D01*
X95294758Y-117605242D01*
X95072957Y-117410727D01*
X94982821Y-117350500D01*
X94827664Y-117246827D01*
X94563084Y-117116351D01*
X94563067Y-117116344D01*
X94283726Y-117021519D01*
X94283714Y-117021516D01*
X93994390Y-116963967D01*
X93994373Y-116963965D01*
X93700000Y-116944671D01*
X93405626Y-116963965D01*
X93405609Y-116963967D01*
X93116285Y-117021516D01*
X93116273Y-117021519D01*
X92836930Y-117116344D01*
X92836929Y-117116345D01*
X92572336Y-117246827D01*
X92327055Y-117410718D01*
X92327040Y-117410729D01*
X92105244Y-117605240D01*
X92105240Y-117605244D01*
X91910729Y-117827040D01*
X91910718Y-117827055D01*
X91746827Y-118072336D01*
X91616345Y-118336929D01*
X91616344Y-118336930D01*
X91521519Y-118616273D01*
X91521516Y-118616285D01*
X91463967Y-118905609D01*
X91463965Y-118905626D01*
X91444671Y-119200000D01*
X84573355Y-119200000D01*
X84573355Y-116300003D01*
X151994355Y-116300003D01*
X152014859Y-116468870D01*
X152075182Y-116627931D01*
X152171814Y-116767926D01*
X152171816Y-116767928D01*
X152171817Y-116767929D01*
X152299148Y-116880734D01*
X152449775Y-116959790D01*
X152449777Y-116959791D01*
X152614937Y-117000499D01*
X152614942Y-117000499D01*
X152614944Y-117000500D01*
X152614946Y-117000500D01*
X152785054Y-117000500D01*
X152785056Y-117000500D01*
X152785058Y-117000499D01*
X152785062Y-117000499D01*
X152950222Y-116959791D01*
X152950222Y-116959790D01*
X152950225Y-116959790D01*
X153100852Y-116880734D01*
X153228183Y-116767929D01*
X153324818Y-116627930D01*
X153385140Y-116468872D01*
X153402965Y-116322070D01*
X153405645Y-116300003D01*
X155144355Y-116300003D01*
X155164859Y-116468870D01*
X155225182Y-116627931D01*
X155321814Y-116767926D01*
X155321816Y-116767928D01*
X155321817Y-116767929D01*
X155449148Y-116880734D01*
X155599775Y-116959790D01*
X155599777Y-116959791D01*
X155764937Y-117000499D01*
X155764942Y-117000499D01*
X155764944Y-117000500D01*
X155764946Y-117000500D01*
X155935054Y-117000500D01*
X155935056Y-117000500D01*
X155935058Y-117000499D01*
X155935062Y-117000499D01*
X156100222Y-116959791D01*
X156100222Y-116959790D01*
X156100225Y-116959790D01*
X156250852Y-116880734D01*
X156378183Y-116767929D01*
X156474818Y-116627930D01*
X156535140Y-116468872D01*
X156552965Y-116322070D01*
X156555645Y-116300003D01*
X156555645Y-116299996D01*
X156539241Y-116164902D01*
X156535140Y-116131128D01*
X156474818Y-115972070D01*
X156459239Y-115949500D01*
X156378185Y-115832073D01*
X156378183Y-115832071D01*
X156300888Y-115763594D01*
X156250852Y-115719266D01*
X156100222Y-115640208D01*
X155935062Y-115599500D01*
X155935056Y-115599500D01*
X155764944Y-115599500D01*
X155764937Y-115599500D01*
X155599777Y-115640208D01*
X155449148Y-115719266D01*
X155321816Y-115832071D01*
X155321814Y-115832073D01*
X155225182Y-115972068D01*
X155164859Y-116131129D01*
X155144355Y-116299996D01*
X155144355Y-116300003D01*
X153405645Y-116300003D01*
X153405645Y-116299996D01*
X153389241Y-116164902D01*
X153385140Y-116131128D01*
X153324818Y-115972070D01*
X153309239Y-115949500D01*
X153228185Y-115832073D01*
X153228183Y-115832071D01*
X153150888Y-115763594D01*
X153100852Y-115719266D01*
X152950222Y-115640208D01*
X152785062Y-115599500D01*
X152785056Y-115599500D01*
X152614944Y-115599500D01*
X152614937Y-115599500D01*
X152449777Y-115640208D01*
X152299148Y-115719266D01*
X152171816Y-115832071D01*
X152171814Y-115832073D01*
X152075182Y-115972068D01*
X152014859Y-116131129D01*
X151994355Y-116299996D01*
X151994355Y-116300003D01*
X84573355Y-116300003D01*
X84573355Y-114388346D01*
X122538272Y-114388346D01*
X122558776Y-114557213D01*
X122619099Y-114716274D01*
X122715731Y-114856269D01*
X122715733Y-114856271D01*
X122715734Y-114856272D01*
X122843065Y-114969077D01*
X122993692Y-115048133D01*
X122993694Y-115048134D01*
X123158854Y-115088842D01*
X123158859Y-115088842D01*
X123158861Y-115088843D01*
X123158863Y-115088843D01*
X123328971Y-115088843D01*
X123328973Y-115088843D01*
X123328975Y-115088842D01*
X123328979Y-115088842D01*
X123494139Y-115048134D01*
X123494139Y-115048133D01*
X123494142Y-115048133D01*
X123644769Y-114969077D01*
X123772100Y-114856272D01*
X123868735Y-114716273D01*
X123929057Y-114557215D01*
X123936004Y-114500003D01*
X151994355Y-114500003D01*
X152014859Y-114668870D01*
X152075182Y-114827931D01*
X152171814Y-114967926D01*
X152171816Y-114967928D01*
X152171817Y-114967929D01*
X152299148Y-115080734D01*
X152449775Y-115159790D01*
X152449777Y-115159791D01*
X152614937Y-115200499D01*
X152614942Y-115200499D01*
X152614944Y-115200500D01*
X152614946Y-115200500D01*
X152785054Y-115200500D01*
X152785056Y-115200500D01*
X152785058Y-115200499D01*
X152785062Y-115200499D01*
X152950222Y-115159791D01*
X152950222Y-115159790D01*
X152950225Y-115159790D01*
X153100852Y-115080734D01*
X153228183Y-114967929D01*
X153289674Y-114878844D01*
X179999500Y-114878844D01*
X180030262Y-115033495D01*
X180030263Y-115033501D01*
X180082575Y-115159790D01*
X180090606Y-115179179D01*
X180090607Y-115179181D01*
X180090609Y-115179184D01*
X180141739Y-115255706D01*
X180151295Y-115278775D01*
X180161133Y-115328231D01*
X180161133Y-115328232D01*
X180183290Y-115361391D01*
X180205448Y-115394552D01*
X180271769Y-115438867D01*
X180321223Y-115448704D01*
X180344293Y-115458260D01*
X180420815Y-115509390D01*
X180420821Y-115509394D01*
X180484356Y-115535711D01*
X180566498Y-115569736D01*
X180566502Y-115569736D01*
X180566503Y-115569737D01*
X180605166Y-115577427D01*
X180721155Y-115600500D01*
X180721158Y-115600500D01*
X181978845Y-115600500D01*
X182071635Y-115582042D01*
X182133497Y-115569737D01*
X182133498Y-115569736D01*
X182133501Y-115569736D01*
X182183875Y-115548869D01*
X182279179Y-115509394D01*
X182355708Y-115458258D01*
X182378774Y-115448704D01*
X182428231Y-115438867D01*
X182494552Y-115394552D01*
X182538867Y-115328231D01*
X182548704Y-115278774D01*
X182558260Y-115255706D01*
X182609394Y-115179179D01*
X182650171Y-115080733D01*
X182669736Y-115033501D01*
X182669737Y-115033495D01*
X182700500Y-114878844D01*
X182700500Y-114721155D01*
X182669737Y-114566504D01*
X182669736Y-114566498D01*
X182635711Y-114484356D01*
X182609394Y-114420821D01*
X182558259Y-114344292D01*
X182548704Y-114321223D01*
X182544582Y-114300500D01*
X182538867Y-114271769D01*
X182530863Y-114259791D01*
X182517842Y-114240304D01*
X182494552Y-114205448D01*
X182428231Y-114161133D01*
X182378775Y-114151295D01*
X182355706Y-114141739D01*
X182279184Y-114090609D01*
X182279181Y-114090607D01*
X182279179Y-114090606D01*
X182260568Y-114082897D01*
X182133501Y-114030263D01*
X182133495Y-114030262D01*
X181978845Y-113999500D01*
X181978842Y-113999500D01*
X180721158Y-113999500D01*
X180721155Y-113999500D01*
X180566504Y-114030262D01*
X180566498Y-114030263D01*
X180420823Y-114090605D01*
X180420814Y-114090609D01*
X180344293Y-114141739D01*
X180321224Y-114151295D01*
X180271768Y-114161133D01*
X180271767Y-114161133D01*
X180205448Y-114205448D01*
X180161133Y-114271767D01*
X180161133Y-114271768D01*
X180151295Y-114321224D01*
X180141739Y-114344293D01*
X180090609Y-114420814D01*
X180090605Y-114420823D01*
X180030263Y-114566498D01*
X180030262Y-114566504D01*
X179999500Y-114721155D01*
X179999500Y-114878844D01*
X153289674Y-114878844D01*
X153324818Y-114827930D01*
X153385140Y-114668872D01*
X153405645Y-114500000D01*
X153385140Y-114331128D01*
X153324818Y-114172070D01*
X153271741Y-114095175D01*
X153228185Y-114032073D01*
X153228183Y-114032071D01*
X153191418Y-113999500D01*
X153100852Y-113919266D01*
X152950222Y-113840208D01*
X152785062Y-113799500D01*
X152785056Y-113799500D01*
X152614944Y-113799500D01*
X152614937Y-113799500D01*
X152449777Y-113840208D01*
X152299148Y-113919266D01*
X152171816Y-114032071D01*
X152171814Y-114032073D01*
X152075182Y-114172068D01*
X152014859Y-114331129D01*
X151994355Y-114499996D01*
X151994355Y-114500003D01*
X123936004Y-114500003D01*
X123945618Y-114420823D01*
X123949562Y-114388346D01*
X123949562Y-114388339D01*
X123929057Y-114219472D01*
X123923738Y-114205448D01*
X123868735Y-114060413D01*
X123775056Y-113924697D01*
X123764776Y-113876807D01*
X123775055Y-113851989D01*
X123868735Y-113716273D01*
X123912830Y-113600003D01*
X149194355Y-113600003D01*
X149214859Y-113768870D01*
X149275182Y-113927931D01*
X149371814Y-114067926D01*
X149371816Y-114067928D01*
X149371817Y-114067929D01*
X149499148Y-114180734D01*
X149612644Y-114240302D01*
X149649777Y-114259791D01*
X149814937Y-114300499D01*
X149814942Y-114300499D01*
X149814944Y-114300500D01*
X149814946Y-114300500D01*
X149985054Y-114300500D01*
X149985056Y-114300500D01*
X149985058Y-114300499D01*
X149985062Y-114300499D01*
X150150222Y-114259791D01*
X150150222Y-114259790D01*
X150150225Y-114259790D01*
X150300852Y-114180734D01*
X150428183Y-114067929D01*
X150524818Y-113927930D01*
X150585140Y-113768872D01*
X150593342Y-113701323D01*
X150605645Y-113600003D01*
X150605645Y-113599996D01*
X150585172Y-113431393D01*
X150585140Y-113431128D01*
X150524818Y-113272070D01*
X150494351Y-113227931D01*
X150428185Y-113132073D01*
X150428183Y-113132071D01*
X150378351Y-113087924D01*
X150300852Y-113019266D01*
X150150222Y-112940208D01*
X149985062Y-112899500D01*
X149985056Y-112899500D01*
X149814944Y-112899500D01*
X149814937Y-112899500D01*
X149649777Y-112940208D01*
X149499148Y-113019266D01*
X149371816Y-113132071D01*
X149371814Y-113132073D01*
X149275182Y-113272068D01*
X149214859Y-113431129D01*
X149194355Y-113599996D01*
X149194355Y-113600003D01*
X123912830Y-113600003D01*
X123929057Y-113557215D01*
X123944335Y-113431393D01*
X123949562Y-113388346D01*
X123949562Y-113388339D01*
X123929057Y-113219472D01*
X123928307Y-113217495D01*
X123868735Y-113060413D01*
X123775056Y-112924697D01*
X123764776Y-112876807D01*
X123775055Y-112851989D01*
X123868735Y-112716273D01*
X123929057Y-112557215D01*
X123944252Y-112432073D01*
X123949562Y-112388346D01*
X123949562Y-112388339D01*
X123929057Y-112219472D01*
X123896451Y-112133497D01*
X123868735Y-112060413D01*
X123812432Y-111978844D01*
X179899500Y-111978844D01*
X179930262Y-112133495D01*
X179930263Y-112133501D01*
X179982897Y-112260568D01*
X179990606Y-112279179D01*
X179990607Y-112279181D01*
X179990609Y-112279184D01*
X180041739Y-112355706D01*
X180051295Y-112378775D01*
X180061133Y-112428231D01*
X180061133Y-112428232D01*
X180063700Y-112432073D01*
X180105448Y-112494552D01*
X180171769Y-112538867D01*
X180221223Y-112548704D01*
X180244293Y-112558260D01*
X180320815Y-112609390D01*
X180320821Y-112609394D01*
X180384356Y-112635711D01*
X180466498Y-112669736D01*
X180466502Y-112669736D01*
X180466503Y-112669737D01*
X180505166Y-112677427D01*
X180621155Y-112700500D01*
X180621158Y-112700500D01*
X181878845Y-112700500D01*
X181971635Y-112682042D01*
X182033497Y-112669737D01*
X182033498Y-112669736D01*
X182033501Y-112669736D01*
X182083875Y-112648869D01*
X182179179Y-112609394D01*
X182255708Y-112558258D01*
X182278774Y-112548704D01*
X182328231Y-112538867D01*
X182394552Y-112494552D01*
X182438867Y-112428231D01*
X182448704Y-112378774D01*
X182458260Y-112355706D01*
X182509394Y-112279179D01*
X182548869Y-112183875D01*
X182569736Y-112133501D01*
X182569737Y-112133495D01*
X182600500Y-111978844D01*
X182600500Y-111821155D01*
X182569737Y-111666504D01*
X182569736Y-111666498D01*
X182535711Y-111584356D01*
X182509394Y-111520821D01*
X182458259Y-111444292D01*
X182448704Y-111421223D01*
X182438867Y-111371769D01*
X182394552Y-111305448D01*
X182328231Y-111261133D01*
X182278775Y-111251295D01*
X182255706Y-111241739D01*
X182179184Y-111190609D01*
X182179181Y-111190607D01*
X182179179Y-111190606D01*
X182160568Y-111182897D01*
X182033501Y-111130263D01*
X182033495Y-111130262D01*
X181878845Y-111099500D01*
X181878842Y-111099500D01*
X180621158Y-111099500D01*
X180621155Y-111099500D01*
X180466504Y-111130262D01*
X180466498Y-111130263D01*
X180320823Y-111190605D01*
X180320814Y-111190609D01*
X180244293Y-111241739D01*
X180221224Y-111251295D01*
X180171768Y-111261133D01*
X180171767Y-111261133D01*
X180105448Y-111305448D01*
X180061133Y-111371767D01*
X180061133Y-111371768D01*
X180051295Y-111421224D01*
X180041739Y-111444293D01*
X179990609Y-111520814D01*
X179990605Y-111520823D01*
X179930263Y-111666498D01*
X179930262Y-111666504D01*
X179899500Y-111821155D01*
X179899500Y-111978844D01*
X123812432Y-111978844D01*
X123772102Y-111920416D01*
X123772100Y-111920414D01*
X123644769Y-111807609D01*
X123494139Y-111728551D01*
X123328979Y-111687843D01*
X123328973Y-111687843D01*
X123158861Y-111687843D01*
X123158854Y-111687843D01*
X122993694Y-111728551D01*
X122843065Y-111807609D01*
X122715733Y-111920414D01*
X122715731Y-111920416D01*
X122619099Y-112060411D01*
X122558776Y-112219472D01*
X122538272Y-112388339D01*
X122538272Y-112388346D01*
X122558776Y-112557213D01*
X122619099Y-112716274D01*
X122712776Y-112851987D01*
X122723057Y-112899879D01*
X122712776Y-112924699D01*
X122619099Y-113060411D01*
X122558776Y-113219472D01*
X122538272Y-113388339D01*
X122538272Y-113388346D01*
X122558776Y-113557213D01*
X122619099Y-113716274D01*
X122712776Y-113851987D01*
X122723057Y-113899879D01*
X122712776Y-113924699D01*
X122619099Y-114060411D01*
X122558776Y-114219472D01*
X122538272Y-114388339D01*
X122538272Y-114388346D01*
X84573355Y-114388346D01*
X84573355Y-113087924D01*
X91449500Y-113087924D01*
X91459696Y-113217488D01*
X91459698Y-113217495D01*
X91513594Y-113431388D01*
X91513595Y-113431391D01*
X91513596Y-113431393D01*
X91604824Y-113632239D01*
X91730449Y-113813567D01*
X91886433Y-113969551D01*
X92067761Y-114095176D01*
X92268607Y-114186404D01*
X92482515Y-114240304D01*
X92612067Y-114250500D01*
X94787932Y-114250499D01*
X94917485Y-114240304D01*
X95131393Y-114186404D01*
X95332239Y-114095176D01*
X95513567Y-113969551D01*
X95669551Y-113813567D01*
X95795176Y-113632239D01*
X95886404Y-113431393D01*
X95940304Y-113217485D01*
X95950500Y-113087933D01*
X95950500Y-112900003D01*
X101294355Y-112900003D01*
X101314859Y-113068870D01*
X101375182Y-113227931D01*
X101471814Y-113367926D01*
X101471816Y-113367928D01*
X101471817Y-113367929D01*
X101599148Y-113480734D01*
X101744865Y-113557213D01*
X101749777Y-113559791D01*
X101914937Y-113600499D01*
X101914942Y-113600499D01*
X101914944Y-113600500D01*
X101914946Y-113600500D01*
X102085054Y-113600500D01*
X102085056Y-113600500D01*
X102085058Y-113600499D01*
X102085062Y-113600499D01*
X102250222Y-113559791D01*
X102250222Y-113559790D01*
X102250225Y-113559790D01*
X102400852Y-113480734D01*
X102528183Y-113367929D01*
X102624818Y-113227930D01*
X102685140Y-113068872D01*
X102702646Y-112924699D01*
X102705645Y-112900003D01*
X102705645Y-112899996D01*
X102685140Y-112731129D01*
X102679506Y-112716274D01*
X102624818Y-112572070D01*
X102615286Y-112558260D01*
X102528185Y-112432073D01*
X102528183Y-112432071D01*
X102523850Y-112428232D01*
X102400852Y-112319266D01*
X102250222Y-112240208D01*
X102085062Y-112199500D01*
X102085056Y-112199500D01*
X101914944Y-112199500D01*
X101914937Y-112199500D01*
X101749777Y-112240208D01*
X101599148Y-112319266D01*
X101471816Y-112432071D01*
X101471814Y-112432073D01*
X101375182Y-112572068D01*
X101314859Y-112731129D01*
X101294355Y-112899996D01*
X101294355Y-112900003D01*
X95950500Y-112900003D01*
X95950499Y-110912068D01*
X95940304Y-110782515D01*
X95886404Y-110568607D01*
X95795176Y-110367761D01*
X95669551Y-110186433D01*
X95513567Y-110030449D01*
X95332239Y-109904824D01*
X95184953Y-109837924D01*
X172999500Y-109837924D01*
X173009696Y-109967488D01*
X173009698Y-109967495D01*
X173063594Y-110181388D01*
X173063595Y-110181391D01*
X173063596Y-110181393D01*
X173154824Y-110382239D01*
X173280449Y-110563567D01*
X173436433Y-110719551D01*
X173617761Y-110845176D01*
X173818607Y-110936404D01*
X174032515Y-110990304D01*
X174162067Y-111000500D01*
X176337932Y-111000499D01*
X176467485Y-110990304D01*
X176681393Y-110936404D01*
X176882239Y-110845176D01*
X177063567Y-110719551D01*
X177219551Y-110563567D01*
X177345176Y-110382239D01*
X177436404Y-110181393D01*
X177490304Y-109967485D01*
X177500500Y-109837933D01*
X177500499Y-107662068D01*
X177490304Y-107532515D01*
X177436404Y-107318607D01*
X177345176Y-107117761D01*
X177219551Y-106936433D01*
X177063567Y-106780449D01*
X176882239Y-106654824D01*
X176681393Y-106563596D01*
X176681391Y-106563595D01*
X176681388Y-106563594D01*
X176553321Y-106531324D01*
X176467485Y-106509696D01*
X176337933Y-106499500D01*
X176337925Y-106499500D01*
X174162075Y-106499500D01*
X174032511Y-106509696D01*
X174032504Y-106509698D01*
X173818611Y-106563594D01*
X173617760Y-106654824D01*
X173436436Y-106780446D01*
X173280446Y-106936436D01*
X173154824Y-107117760D01*
X173063594Y-107318611D01*
X173020338Y-107490279D01*
X173009696Y-107532515D01*
X172999500Y-107662067D01*
X172999500Y-107662068D01*
X172999500Y-107662074D01*
X172999500Y-109837924D01*
X95184953Y-109837924D01*
X95131393Y-109813596D01*
X95131391Y-109813595D01*
X95131388Y-109813594D01*
X95003321Y-109781324D01*
X94917485Y-109759696D01*
X94787933Y-109749500D01*
X94787925Y-109749500D01*
X92612075Y-109749500D01*
X92482511Y-109759696D01*
X92482504Y-109759698D01*
X92268611Y-109813594D01*
X92067760Y-109904824D01*
X91886436Y-110030446D01*
X91730446Y-110186436D01*
X91604824Y-110367760D01*
X91513594Y-110568611D01*
X91475561Y-110719553D01*
X91459696Y-110782515D01*
X91449500Y-110912067D01*
X91449500Y-110912068D01*
X91449500Y-110912074D01*
X91449500Y-113087924D01*
X84573355Y-113087924D01*
X84573355Y-108928844D01*
X86349500Y-108928844D01*
X86380262Y-109083495D01*
X86380263Y-109083501D01*
X86432897Y-109210568D01*
X86440606Y-109229179D01*
X86440607Y-109229181D01*
X86440609Y-109229184D01*
X86491739Y-109305706D01*
X86501295Y-109328775D01*
X86511133Y-109378231D01*
X86511133Y-109378232D01*
X86533290Y-109411391D01*
X86555448Y-109444552D01*
X86621769Y-109488867D01*
X86671223Y-109498704D01*
X86694293Y-109508260D01*
X86770815Y-109559390D01*
X86770821Y-109559394D01*
X86834356Y-109585711D01*
X86916498Y-109619736D01*
X86916502Y-109619736D01*
X86916503Y-109619737D01*
X86955166Y-109627427D01*
X87071155Y-109650500D01*
X87071158Y-109650500D01*
X88328845Y-109650500D01*
X88421635Y-109632042D01*
X88483497Y-109619737D01*
X88483498Y-109619736D01*
X88483501Y-109619736D01*
X88533875Y-109598869D01*
X88629179Y-109559394D01*
X88705708Y-109508258D01*
X88728774Y-109498704D01*
X88778231Y-109488867D01*
X88844552Y-109444552D01*
X88888867Y-109378231D01*
X88898704Y-109328774D01*
X88908260Y-109305706D01*
X88959394Y-109229179D01*
X88998869Y-109133875D01*
X89019736Y-109083501D01*
X89019737Y-109083495D01*
X89050500Y-108928844D01*
X89050500Y-108771155D01*
X89019737Y-108616504D01*
X89019736Y-108616498D01*
X88985711Y-108534356D01*
X88959394Y-108470821D01*
X88908259Y-108394292D01*
X88898704Y-108371223D01*
X88888867Y-108321769D01*
X88844552Y-108255448D01*
X88778231Y-108211133D01*
X88728775Y-108201295D01*
X88705706Y-108191739D01*
X88629184Y-108140609D01*
X88629181Y-108140607D01*
X88629179Y-108140606D01*
X88610568Y-108132897D01*
X88483501Y-108080263D01*
X88483495Y-108080262D01*
X88328845Y-108049500D01*
X88328842Y-108049500D01*
X87071158Y-108049500D01*
X87071155Y-108049500D01*
X86916504Y-108080262D01*
X86916498Y-108080263D01*
X86770823Y-108140605D01*
X86770814Y-108140609D01*
X86694293Y-108191739D01*
X86671224Y-108201295D01*
X86621768Y-108211133D01*
X86621767Y-108211133D01*
X86555448Y-108255448D01*
X86511133Y-108321767D01*
X86511133Y-108321768D01*
X86501295Y-108371224D01*
X86491739Y-108394293D01*
X86440609Y-108470814D01*
X86440605Y-108470823D01*
X86380263Y-108616498D01*
X86380262Y-108616504D01*
X86349500Y-108771155D01*
X86349500Y-108928844D01*
X84573355Y-108928844D01*
X84573355Y-104911310D01*
X86172355Y-104911310D01*
X86205037Y-105075615D01*
X86205040Y-105075625D01*
X86269150Y-105230401D01*
X86269151Y-105230403D01*
X86269152Y-105230404D01*
X86362229Y-105369703D01*
X86480693Y-105488167D01*
X86619992Y-105581244D01*
X86774773Y-105645357D01*
X86839959Y-105658323D01*
X86939085Y-105678041D01*
X86939088Y-105678041D01*
X88406625Y-105678041D01*
X88489153Y-105661624D01*
X88570937Y-105645357D01*
X88725718Y-105581244D01*
X88865017Y-105488167D01*
X88983481Y-105369703D01*
X89076558Y-105230404D01*
X89140671Y-105075623D01*
X89173355Y-104911308D01*
X89173355Y-104743774D01*
X89173355Y-104743771D01*
X89140672Y-104579466D01*
X89140671Y-104579459D01*
X89076558Y-104424678D01*
X88983481Y-104285379D01*
X88865017Y-104166915D01*
X88725718Y-104073838D01*
X88725717Y-104073837D01*
X88725715Y-104073836D01*
X88570939Y-104009726D01*
X88570940Y-104009726D01*
X88570937Y-104009725D01*
X88570933Y-104009724D01*
X88570929Y-104009723D01*
X88406625Y-103977041D01*
X88406622Y-103977041D01*
X86939088Y-103977041D01*
X86939085Y-103977041D01*
X86774780Y-104009723D01*
X86774770Y-104009726D01*
X86619994Y-104073836D01*
X86480691Y-104166916D01*
X86362230Y-104285377D01*
X86269150Y-104424680D01*
X86205040Y-104579456D01*
X86205037Y-104579466D01*
X86172355Y-104743771D01*
X86172355Y-104911310D01*
X84573355Y-104911310D01*
X84573355Y-100827541D01*
X94117355Y-100827541D01*
X94137339Y-101170654D01*
X94197021Y-101509126D01*
X94295593Y-101838382D01*
X94431724Y-102153967D01*
X94603571Y-102451615D01*
X94720097Y-102608137D01*
X94808811Y-102727301D01*
X95044667Y-102977294D01*
X95307945Y-103198210D01*
X95307948Y-103198212D01*
X95307953Y-103198216D01*
X95522420Y-103339273D01*
X95595110Y-103387082D01*
X95595113Y-103387084D01*
X95826264Y-103503172D01*
X95902241Y-103541329D01*
X96225208Y-103658879D01*
X96559638Y-103738140D01*
X96901008Y-103778041D01*
X96901010Y-103778041D01*
X97244700Y-103778041D01*
X97244702Y-103778041D01*
X97586072Y-103738140D01*
X97920502Y-103658879D01*
X98243469Y-103541329D01*
X98397743Y-103463849D01*
X98550596Y-103387084D01*
X98550599Y-103387082D01*
X98550598Y-103387082D01*
X98550605Y-103387079D01*
X98837757Y-103198216D01*
X99101042Y-102977294D01*
X99336899Y-102727300D01*
X99542139Y-102451615D01*
X99713986Y-102153967D01*
X99850117Y-101838382D01*
X99936452Y-101550000D01*
X172994671Y-101550000D01*
X173013965Y-101844373D01*
X173013967Y-101844390D01*
X173071516Y-102133714D01*
X173071519Y-102133726D01*
X173166344Y-102413067D01*
X173166351Y-102413084D01*
X173296827Y-102677664D01*
X173460718Y-102922944D01*
X173460727Y-102922957D01*
X173655242Y-103144758D01*
X173877043Y-103339273D01*
X174122335Y-103503172D01*
X174386923Y-103633652D01*
X174386932Y-103633655D01*
X174666273Y-103728480D01*
X174666285Y-103728483D01*
X174955609Y-103786032D01*
X174955611Y-103786032D01*
X174955620Y-103786034D01*
X175250000Y-103805329D01*
X175544380Y-103786034D01*
X175584564Y-103778041D01*
X175833714Y-103728483D01*
X175833726Y-103728480D01*
X176038767Y-103658877D01*
X176113077Y-103633652D01*
X176377665Y-103503172D01*
X176622957Y-103339273D01*
X176844758Y-103144758D01*
X177039273Y-102922957D01*
X177203172Y-102677665D01*
X177333652Y-102413077D01*
X177428481Y-102133722D01*
X177486034Y-101844380D01*
X177505329Y-101550000D01*
X177486034Y-101255620D01*
X177469134Y-101170656D01*
X177428483Y-100966285D01*
X177428480Y-100966273D01*
X177333655Y-100686930D01*
X177333654Y-100686929D01*
X177333652Y-100686923D01*
X177203172Y-100422336D01*
X177039273Y-100177043D01*
X176844758Y-99955242D01*
X176622957Y-99760727D01*
X176377665Y-99596828D01*
X176377666Y-99596828D01*
X176377664Y-99596827D01*
X176113084Y-99466351D01*
X176113067Y-99466344D01*
X175833726Y-99371519D01*
X175833714Y-99371516D01*
X175544390Y-99313967D01*
X175544373Y-99313965D01*
X175250000Y-99294671D01*
X174955626Y-99313965D01*
X174955609Y-99313967D01*
X174666285Y-99371516D01*
X174666273Y-99371519D01*
X174386930Y-99466344D01*
X174386929Y-99466345D01*
X174122336Y-99596827D01*
X173877055Y-99760718D01*
X173877040Y-99760729D01*
X173655244Y-99955240D01*
X173655240Y-99955244D01*
X173460729Y-100177040D01*
X173460718Y-100177055D01*
X173296827Y-100422336D01*
X173166345Y-100686929D01*
X173166344Y-100686930D01*
X173071519Y-100966273D01*
X173071516Y-100966285D01*
X173013967Y-101255609D01*
X173013965Y-101255626D01*
X172994671Y-101550000D01*
X99936452Y-101550000D01*
X99948689Y-101509126D01*
X100008371Y-101170654D01*
X100028355Y-100827541D01*
X100008371Y-100484428D01*
X99948689Y-100145956D01*
X99850117Y-99816700D01*
X99713986Y-99501115D01*
X99542139Y-99203467D01*
X99395162Y-99006043D01*
X99336898Y-98927780D01*
X99101042Y-98677787D01*
X98863950Y-98478844D01*
X179899500Y-98478844D01*
X179930262Y-98633495D01*
X179930263Y-98633501D01*
X179982897Y-98760568D01*
X179990606Y-98779179D01*
X179990607Y-98779181D01*
X179990609Y-98779184D01*
X180041739Y-98855706D01*
X180051295Y-98878775D01*
X180061133Y-98928231D01*
X180061133Y-98928232D01*
X180083290Y-98961391D01*
X180105448Y-98994552D01*
X180171769Y-99038867D01*
X180221223Y-99048704D01*
X180244293Y-99058260D01*
X180320815Y-99109390D01*
X180320821Y-99109394D01*
X180384356Y-99135711D01*
X180466498Y-99169736D01*
X180466502Y-99169736D01*
X180466503Y-99169737D01*
X180505166Y-99177427D01*
X180621155Y-99200500D01*
X180621158Y-99200500D01*
X181878845Y-99200500D01*
X181971635Y-99182042D01*
X182033497Y-99169737D01*
X182033498Y-99169736D01*
X182033501Y-99169736D01*
X182083875Y-99148869D01*
X182179179Y-99109394D01*
X182255708Y-99058258D01*
X182278774Y-99048704D01*
X182328231Y-99038867D01*
X182394552Y-98994552D01*
X182438867Y-98928231D01*
X182448704Y-98878774D01*
X182458260Y-98855706D01*
X182509394Y-98779179D01*
X182551392Y-98677787D01*
X182569736Y-98633501D01*
X182569737Y-98633495D01*
X182600500Y-98478844D01*
X182600500Y-98321155D01*
X182569737Y-98166504D01*
X182569736Y-98166498D01*
X182535711Y-98084356D01*
X182509394Y-98020821D01*
X182458259Y-97944292D01*
X182448704Y-97921223D01*
X182447852Y-97916941D01*
X182438867Y-97871769D01*
X182394552Y-97805448D01*
X182328231Y-97761133D01*
X182278775Y-97751295D01*
X182255706Y-97741739D01*
X182179184Y-97690609D01*
X182179181Y-97690607D01*
X182179179Y-97690606D01*
X182160568Y-97682897D01*
X182033501Y-97630263D01*
X182033495Y-97630262D01*
X181878845Y-97599500D01*
X181878842Y-97599500D01*
X180621158Y-97599500D01*
X180621155Y-97599500D01*
X180466504Y-97630262D01*
X180466498Y-97630263D01*
X180320823Y-97690605D01*
X180320814Y-97690609D01*
X180244293Y-97741739D01*
X180221224Y-97751295D01*
X180171768Y-97761133D01*
X180171767Y-97761133D01*
X180105448Y-97805448D01*
X180061133Y-97871767D01*
X180061133Y-97871768D01*
X180051295Y-97921224D01*
X180041739Y-97944293D01*
X179990609Y-98020814D01*
X179990605Y-98020823D01*
X179930263Y-98166498D01*
X179930262Y-98166504D01*
X179899500Y-98321155D01*
X179899500Y-98478844D01*
X98863950Y-98478844D01*
X98837764Y-98456871D01*
X98837759Y-98456868D01*
X98837757Y-98456866D01*
X98550605Y-98268003D01*
X98550599Y-98267999D01*
X98550596Y-98267997D01*
X98243476Y-98113756D01*
X98243470Y-98113753D01*
X98243469Y-98113753D01*
X98189279Y-98094029D01*
X97920506Y-97996204D01*
X97920502Y-97996203D01*
X97586072Y-97916942D01*
X97586068Y-97916941D01*
X97586066Y-97916941D01*
X97394572Y-97894558D01*
X97244702Y-97877041D01*
X96901008Y-97877041D01*
X96778114Y-97891405D01*
X96559643Y-97916941D01*
X96559639Y-97916941D01*
X96559638Y-97916942D01*
X96444235Y-97944293D01*
X96225203Y-97996204D01*
X95902243Y-98113752D01*
X95902233Y-98113756D01*
X95595113Y-98267997D01*
X95595110Y-98267999D01*
X95307953Y-98456866D01*
X95307945Y-98456871D01*
X95044667Y-98677787D01*
X94808811Y-98927780D01*
X94603569Y-99203470D01*
X94431724Y-99501114D01*
X94295594Y-99816698D01*
X94295589Y-99816712D01*
X94254117Y-99955242D01*
X94197021Y-100145956D01*
X94167180Y-100315192D01*
X94137339Y-100484425D01*
X94137339Y-100484428D01*
X94117355Y-100827541D01*
X84573355Y-100827541D01*
X84573355Y-95728844D01*
X179999500Y-95728844D01*
X180030262Y-95883495D01*
X180030263Y-95883501D01*
X180082897Y-96010568D01*
X180090606Y-96029179D01*
X180090607Y-96029181D01*
X180090609Y-96029184D01*
X180141739Y-96105706D01*
X180151295Y-96128775D01*
X180161133Y-96178231D01*
X180161133Y-96178232D01*
X180183290Y-96211391D01*
X180205448Y-96244552D01*
X180271769Y-96288867D01*
X180321223Y-96298704D01*
X180344293Y-96308260D01*
X180420815Y-96359390D01*
X180420821Y-96359394D01*
X180484356Y-96385711D01*
X180566498Y-96419736D01*
X180566502Y-96419736D01*
X180566503Y-96419737D01*
X180605166Y-96427427D01*
X180721155Y-96450500D01*
X180721158Y-96450500D01*
X181978845Y-96450500D01*
X182071635Y-96432042D01*
X182133497Y-96419737D01*
X182133498Y-96419736D01*
X182133501Y-96419736D01*
X182183875Y-96398869D01*
X182279179Y-96359394D01*
X182355708Y-96308258D01*
X182378774Y-96298704D01*
X182428231Y-96288867D01*
X182494552Y-96244552D01*
X182538867Y-96178231D01*
X182548704Y-96128774D01*
X182558260Y-96105706D01*
X182609394Y-96029179D01*
X182648869Y-95933875D01*
X182669736Y-95883501D01*
X182669737Y-95883495D01*
X182700500Y-95728844D01*
X182700500Y-95571155D01*
X182669737Y-95416504D01*
X182669736Y-95416498D01*
X182635711Y-95334356D01*
X182609394Y-95270821D01*
X182558259Y-95194292D01*
X182548704Y-95171223D01*
X182538867Y-95121769D01*
X182494552Y-95055448D01*
X182428231Y-95011133D01*
X182378775Y-95001295D01*
X182355706Y-94991739D01*
X182279184Y-94940609D01*
X182279181Y-94940607D01*
X182279179Y-94940606D01*
X182260568Y-94932897D01*
X182133501Y-94880263D01*
X182133495Y-94880262D01*
X181978845Y-94849500D01*
X181978842Y-94849500D01*
X180721158Y-94849500D01*
X180721155Y-94849500D01*
X180566504Y-94880262D01*
X180566498Y-94880263D01*
X180420823Y-94940605D01*
X180420814Y-94940609D01*
X180344293Y-94991739D01*
X180321224Y-95001295D01*
X180271768Y-95011133D01*
X180271767Y-95011133D01*
X180205448Y-95055448D01*
X180161133Y-95121767D01*
X180161133Y-95121768D01*
X180151295Y-95171224D01*
X180141739Y-95194293D01*
X180090609Y-95270814D01*
X180090605Y-95270823D01*
X180030263Y-95416498D01*
X180030262Y-95416504D01*
X179999500Y-95571155D01*
X179999500Y-95728844D01*
X84573355Y-95728844D01*
X84573355Y-92405290D01*
X94414355Y-92405290D01*
X94425988Y-92463772D01*
X94425988Y-92463773D01*
X94448145Y-92496932D01*
X94470303Y-92530093D01*
X94536624Y-92574408D01*
X94575699Y-92582180D01*
X94595105Y-92586041D01*
X94595107Y-92586041D01*
X99550605Y-92586041D01*
X99567248Y-92582729D01*
X99609086Y-92574408D01*
X99675407Y-92530093D01*
X99719722Y-92463772D01*
X99731355Y-92405289D01*
X99731355Y-87449793D01*
X99719722Y-87391310D01*
X99675407Y-87324989D01*
X99609086Y-87280674D01*
X99550605Y-87269041D01*
X99550603Y-87269041D01*
X94595107Y-87269041D01*
X94595105Y-87269041D01*
X94536623Y-87280674D01*
X94536622Y-87280674D01*
X94470303Y-87324989D01*
X94425988Y-87391308D01*
X94425988Y-87391309D01*
X94414355Y-87449791D01*
X94414355Y-92405290D01*
X84573355Y-92405290D01*
X84573355Y-86011310D01*
X86172355Y-86011310D01*
X86205037Y-86175615D01*
X86205040Y-86175625D01*
X86269150Y-86330401D01*
X86269151Y-86330403D01*
X86269152Y-86330404D01*
X86362229Y-86469703D01*
X86480693Y-86588167D01*
X86619992Y-86681244D01*
X86774773Y-86745357D01*
X86839959Y-86758323D01*
X86939085Y-86778041D01*
X86939088Y-86778041D01*
X88406625Y-86778041D01*
X88489153Y-86761624D01*
X88570937Y-86745357D01*
X88725718Y-86681244D01*
X88865017Y-86588167D01*
X88983481Y-86469703D01*
X89038124Y-86387924D01*
X173099500Y-86387924D01*
X173109696Y-86517488D01*
X173109698Y-86517495D01*
X173163594Y-86731388D01*
X173163595Y-86731391D01*
X173163596Y-86731393D01*
X173254824Y-86932239D01*
X173380449Y-87113567D01*
X173536433Y-87269551D01*
X173717761Y-87395176D01*
X173918607Y-87486404D01*
X174132515Y-87540304D01*
X174262067Y-87550500D01*
X176437932Y-87550499D01*
X176567485Y-87540304D01*
X176781393Y-87486404D01*
X176982239Y-87395176D01*
X177163567Y-87269551D01*
X177319551Y-87113567D01*
X177445176Y-86932239D01*
X177536404Y-86731393D01*
X177590304Y-86517485D01*
X177600500Y-86387933D01*
X177600499Y-84650003D01*
X180244355Y-84650003D01*
X180264859Y-84818870D01*
X180325182Y-84977931D01*
X180421814Y-85117926D01*
X180421816Y-85117928D01*
X180421817Y-85117929D01*
X180549148Y-85230734D01*
X180699775Y-85309790D01*
X180699777Y-85309791D01*
X180864937Y-85350499D01*
X180864942Y-85350499D01*
X180864944Y-85350500D01*
X180864946Y-85350500D01*
X181035054Y-85350500D01*
X181035056Y-85350500D01*
X181035058Y-85350499D01*
X181035062Y-85350499D01*
X181200222Y-85309791D01*
X181200222Y-85309790D01*
X181200225Y-85309790D01*
X181350852Y-85230734D01*
X181478183Y-85117929D01*
X181574818Y-84977930D01*
X181635140Y-84818872D01*
X181644343Y-84743068D01*
X181668405Y-84700406D01*
X181715589Y-84687251D01*
X181723192Y-84688645D01*
X181771285Y-84700499D01*
X181771288Y-84700499D01*
X181771291Y-84700500D01*
X181771293Y-84700500D01*
X181941401Y-84700500D01*
X181941403Y-84700500D01*
X181941405Y-84700499D01*
X181941409Y-84700499D01*
X182106569Y-84659791D01*
X182106569Y-84659790D01*
X182106572Y-84659790D01*
X182257199Y-84580734D01*
X182384530Y-84467929D01*
X182481165Y-84327930D01*
X182541487Y-84168872D01*
X182551974Y-84082504D01*
X182561992Y-84000003D01*
X182561992Y-83999996D01*
X182541487Y-83831129D01*
X182481164Y-83672068D01*
X182384532Y-83532073D01*
X182384530Y-83532071D01*
X182257199Y-83419266D01*
X182106569Y-83340208D01*
X181941409Y-83299500D01*
X181941403Y-83299500D01*
X181771291Y-83299500D01*
X181771284Y-83299500D01*
X181606124Y-83340208D01*
X181455495Y-83419266D01*
X181328163Y-83532071D01*
X181328161Y-83532073D01*
X181231529Y-83672068D01*
X181171206Y-83831128D01*
X181171205Y-83831132D01*
X181162002Y-83906929D01*
X181137939Y-83949594D01*
X181090754Y-83962747D01*
X181083153Y-83961354D01*
X181035062Y-83949501D01*
X181035058Y-83949500D01*
X181035056Y-83949500D01*
X180864944Y-83949500D01*
X180864937Y-83949500D01*
X180699777Y-83990208D01*
X180549148Y-84069266D01*
X180421816Y-84182071D01*
X180421814Y-84182073D01*
X180325182Y-84322068D01*
X180264859Y-84481129D01*
X180244355Y-84649996D01*
X180244355Y-84650003D01*
X177600499Y-84650003D01*
X177600499Y-84212068D01*
X177590304Y-84082515D01*
X177536404Y-83868607D01*
X177445176Y-83667761D01*
X177319551Y-83486433D01*
X177163567Y-83330449D01*
X176982239Y-83204824D01*
X176781393Y-83113596D01*
X176781391Y-83113595D01*
X176781388Y-83113594D01*
X176653321Y-83081324D01*
X176567485Y-83059696D01*
X176437933Y-83049500D01*
X176437925Y-83049500D01*
X174262075Y-83049500D01*
X174132511Y-83059696D01*
X174132504Y-83059698D01*
X173918611Y-83113594D01*
X173717760Y-83204824D01*
X173536436Y-83330446D01*
X173380446Y-83486436D01*
X173254824Y-83667760D01*
X173163594Y-83868611D01*
X173130489Y-83999996D01*
X173109696Y-84082515D01*
X173099500Y-84212067D01*
X173099500Y-84212068D01*
X173099500Y-84212074D01*
X173099500Y-86387924D01*
X89038124Y-86387924D01*
X89076558Y-86330404D01*
X89140671Y-86175623D01*
X89173355Y-86011308D01*
X89173355Y-85843774D01*
X89173355Y-85843771D01*
X89140672Y-85679466D01*
X89140671Y-85679459D01*
X89076558Y-85524678D01*
X88983481Y-85385379D01*
X88865017Y-85266915D01*
X88725718Y-85173838D01*
X88725717Y-85173837D01*
X88725715Y-85173836D01*
X88590743Y-85117929D01*
X88570937Y-85109725D01*
X88570933Y-85109724D01*
X88570929Y-85109723D01*
X88406625Y-85077041D01*
X88406622Y-85077041D01*
X86939088Y-85077041D01*
X86939085Y-85077041D01*
X86774780Y-85109723D01*
X86774770Y-85109726D01*
X86619994Y-85173836D01*
X86480691Y-85266916D01*
X86362230Y-85385377D01*
X86269150Y-85524680D01*
X86205040Y-85679456D01*
X86205037Y-85679466D01*
X86172355Y-85843771D01*
X86172355Y-86011310D01*
X84573355Y-86011310D01*
X84573355Y-79877541D01*
X93897270Y-79877541D01*
X93917593Y-80226472D01*
X93978285Y-80570671D01*
X93978290Y-80570691D01*
X94056542Y-80832071D01*
X94078529Y-80905512D01*
X94216966Y-81226445D01*
X94391725Y-81529137D01*
X94600443Y-81809494D01*
X94840297Y-82063724D01*
X94840301Y-82063728D01*
X95108036Y-82288384D01*
X95108039Y-82288386D01*
X95108044Y-82288390D01*
X95400062Y-82480454D01*
X95712404Y-82637318D01*
X96040844Y-82756860D01*
X96380941Y-82837464D01*
X96728096Y-82878041D01*
X96728098Y-82878041D01*
X97077612Y-82878041D01*
X97077614Y-82878041D01*
X97424769Y-82837464D01*
X97764866Y-82756860D01*
X98093306Y-82637318D01*
X98405648Y-82480454D01*
X98697666Y-82288390D01*
X98965413Y-82063724D01*
X99205267Y-81809494D01*
X99413985Y-81529137D01*
X99588744Y-81226445D01*
X99727181Y-80905512D01*
X99827424Y-80570677D01*
X99844067Y-80476284D01*
X99870386Y-80434973D01*
X99918208Y-80424371D01*
X99948927Y-80438963D01*
X99989306Y-80473840D01*
X100120279Y-80533402D01*
X100144746Y-80540544D01*
X100187348Y-80552980D01*
X100191775Y-80553612D01*
X100191833Y-80553617D01*
X100329800Y-80573229D01*
X102023913Y-80570528D01*
X102023928Y-80570527D01*
X102023935Y-80570527D01*
X102047578Y-80569231D01*
X102077551Y-80567589D01*
X102103711Y-80564755D01*
X102156719Y-80556143D01*
X102291528Y-80505861D01*
X102291532Y-80505858D01*
X102291534Y-80505858D01*
X102350170Y-80473840D01*
X102352851Y-80472376D01*
X102468032Y-80386153D01*
X103627623Y-79226562D01*
X123637097Y-79226562D01*
X123657601Y-79395429D01*
X123717924Y-79554490D01*
X123814556Y-79694485D01*
X123814558Y-79694487D01*
X123814559Y-79694488D01*
X123941890Y-79807293D01*
X124075735Y-79877541D01*
X124092519Y-79886350D01*
X124257679Y-79927058D01*
X124257684Y-79927058D01*
X124257686Y-79927059D01*
X124257688Y-79927059D01*
X124427796Y-79927059D01*
X124427798Y-79927059D01*
X124427800Y-79927058D01*
X124427804Y-79927058D01*
X124592964Y-79886350D01*
X124592964Y-79886349D01*
X124592967Y-79886349D01*
X124743594Y-79807293D01*
X124870925Y-79694488D01*
X124967560Y-79554489D01*
X125027882Y-79395431D01*
X125038924Y-79304490D01*
X125048387Y-79226562D01*
X125048387Y-79226555D01*
X125027882Y-79057688D01*
X125026743Y-79054685D01*
X124997115Y-78976562D01*
X131257097Y-78976562D01*
X131277601Y-79145429D01*
X131337924Y-79304490D01*
X131434556Y-79444485D01*
X131434558Y-79444487D01*
X131434559Y-79444488D01*
X131561890Y-79557293D01*
X131712517Y-79636349D01*
X131712519Y-79636350D01*
X131877679Y-79677058D01*
X131877684Y-79677058D01*
X131877686Y-79677059D01*
X131877688Y-79677059D01*
X132047796Y-79677059D01*
X132047798Y-79677059D01*
X132047800Y-79677058D01*
X132047804Y-79677058D01*
X132212964Y-79636350D01*
X132212964Y-79636349D01*
X132212967Y-79636349D01*
X132363594Y-79557293D01*
X132490925Y-79444488D01*
X132587560Y-79304489D01*
X132647882Y-79145431D01*
X132658901Y-79054684D01*
X132668387Y-78976562D01*
X132668387Y-78976555D01*
X132648815Y-78815368D01*
X132647882Y-78807687D01*
X132587560Y-78648629D01*
X132545471Y-78587653D01*
X132490927Y-78508632D01*
X132490925Y-78508630D01*
X132466998Y-78487433D01*
X132363594Y-78395825D01*
X132212964Y-78316767D01*
X132047804Y-78276059D01*
X132047798Y-78276059D01*
X131877686Y-78276059D01*
X131877679Y-78276059D01*
X131712519Y-78316767D01*
X131561890Y-78395825D01*
X131434558Y-78508630D01*
X131434556Y-78508632D01*
X131337924Y-78648627D01*
X131277601Y-78807688D01*
X131257097Y-78976555D01*
X131257097Y-78976562D01*
X124997115Y-78976562D01*
X124967560Y-78898629D01*
X124967559Y-78898627D01*
X124870927Y-78758632D01*
X124870925Y-78758630D01*
X124743594Y-78645825D01*
X124592964Y-78566767D01*
X124427804Y-78526059D01*
X124427798Y-78526059D01*
X124257686Y-78526059D01*
X124257679Y-78526059D01*
X124092519Y-78566767D01*
X123941890Y-78645825D01*
X123814558Y-78758630D01*
X123814556Y-78758632D01*
X123717924Y-78898627D01*
X123657601Y-79057688D01*
X123637097Y-79226555D01*
X123637097Y-79226562D01*
X103627623Y-79226562D01*
X108333865Y-74520321D01*
X108370030Y-74480059D01*
X108370035Y-74480051D01*
X108370041Y-74480046D01*
X108370042Y-74480044D01*
X108386662Y-74459419D01*
X108386664Y-74459417D01*
X108418309Y-74415533D01*
X108478080Y-74284656D01*
X108497765Y-74217617D01*
X108497766Y-74217613D01*
X108518242Y-74075197D01*
X108518242Y-73082380D01*
X108536987Y-73037125D01*
X108539803Y-73034475D01*
X108572907Y-73005148D01*
X108669542Y-72865149D01*
X108729864Y-72706091D01*
X108744342Y-72586856D01*
X117907320Y-72586856D01*
X117956020Y-77359440D01*
X117966431Y-77450500D01*
X117967899Y-77463341D01*
X117967899Y-77463344D01*
X117978907Y-77513163D01*
X118011899Y-77612373D01*
X118089234Y-77733707D01*
X118089238Y-77733711D01*
X118134784Y-77786674D01*
X118134791Y-77786681D01*
X118134792Y-77786682D01*
X118243177Y-77881310D01*
X118373830Y-77941569D01*
X118440795Y-77961504D01*
X118440796Y-77961504D01*
X118583134Y-77982512D01*
X131707968Y-78031589D01*
X131816659Y-78020182D01*
X131868760Y-78008920D01*
X131972460Y-77974417D01*
X132093413Y-77896496D01*
X132144440Y-77852182D01*
X132145332Y-77851461D01*
X132146166Y-77850683D01*
X132146170Y-77850680D01*
X132240270Y-77741838D01*
X132299894Y-77610893D01*
X132319504Y-77543831D01*
X132339822Y-77401394D01*
X132339743Y-77330734D01*
X132323142Y-62388319D01*
X132323142Y-62388317D01*
X132320120Y-62363231D01*
X132308815Y-62269380D01*
X132307466Y-62263835D01*
X132314979Y-62215433D01*
X132354335Y-62186565D01*
X132462964Y-62159791D01*
X132462964Y-62159790D01*
X132462967Y-62159790D01*
X132558879Y-62109451D01*
X141117268Y-62109451D01*
X141193921Y-78428150D01*
X141193922Y-78428168D01*
X141206073Y-78535976D01*
X141206077Y-78536000D01*
X141217612Y-78587633D01*
X141217617Y-78587653D01*
X141252499Y-78690389D01*
X141252500Y-78690392D01*
X141331064Y-78810922D01*
X141331068Y-78810928D01*
X141374365Y-78860249D01*
X141374553Y-78860493D01*
X141377165Y-78863439D01*
X141486509Y-78956956D01*
X141617770Y-79015880D01*
X141684935Y-79035131D01*
X141827476Y-79054686D01*
X146806023Y-79022566D01*
X146851398Y-79041019D01*
X146870435Y-79086152D01*
X146859107Y-79122921D01*
X146825182Y-79172068D01*
X146764859Y-79331129D01*
X146744355Y-79499996D01*
X146744355Y-79500003D01*
X146764859Y-79668870D01*
X146825182Y-79827931D01*
X146921814Y-79967926D01*
X146921816Y-79967928D01*
X146921817Y-79967929D01*
X147049148Y-80080734D01*
X147199775Y-80159790D01*
X147199777Y-80159791D01*
X147364937Y-80200499D01*
X147364942Y-80200499D01*
X147364944Y-80200500D01*
X147364946Y-80200500D01*
X147535054Y-80200500D01*
X147535056Y-80200500D01*
X147535058Y-80200499D01*
X147535062Y-80200499D01*
X147700222Y-80159791D01*
X147700222Y-80159790D01*
X147700225Y-80159790D01*
X147850852Y-80080734D01*
X147978183Y-79967929D01*
X148012964Y-79917541D01*
X169107270Y-79917541D01*
X169127593Y-80266472D01*
X169188285Y-80610671D01*
X169188290Y-80610691D01*
X169276550Y-80905499D01*
X169288529Y-80945512D01*
X169409712Y-81226445D01*
X169426966Y-81266445D01*
X169593821Y-81555448D01*
X169601725Y-81569137D01*
X169810443Y-81849494D01*
X169952910Y-82000500D01*
X170050301Y-82103728D01*
X170318036Y-82328384D01*
X170318039Y-82328386D01*
X170318044Y-82328390D01*
X170610062Y-82520454D01*
X170922404Y-82677318D01*
X171250844Y-82796860D01*
X171590941Y-82877464D01*
X171938096Y-82918041D01*
X171938098Y-82918041D01*
X172287612Y-82918041D01*
X172287614Y-82918041D01*
X172634769Y-82877464D01*
X172974866Y-82796860D01*
X173303306Y-82677318D01*
X173615648Y-82520454D01*
X173907666Y-82328390D01*
X174026301Y-82228844D01*
X179999500Y-82228844D01*
X180030262Y-82383495D01*
X180030263Y-82383501D01*
X180082897Y-82510568D01*
X180090606Y-82529179D01*
X180090607Y-82529181D01*
X180090609Y-82529184D01*
X180141739Y-82605706D01*
X180151295Y-82628775D01*
X180161133Y-82678231D01*
X180161133Y-82678232D01*
X180183290Y-82711391D01*
X180205448Y-82744552D01*
X180271769Y-82788867D01*
X180321223Y-82798704D01*
X180344293Y-82808260D01*
X180388000Y-82837464D01*
X180420821Y-82859394D01*
X180484356Y-82885711D01*
X180566498Y-82919736D01*
X180566502Y-82919736D01*
X180566503Y-82919737D01*
X180605166Y-82927427D01*
X180721155Y-82950500D01*
X180721158Y-82950500D01*
X181978845Y-82950500D01*
X182071635Y-82932042D01*
X182133497Y-82919737D01*
X182133498Y-82919736D01*
X182133501Y-82919736D01*
X182183875Y-82898869D01*
X182279179Y-82859394D01*
X182355708Y-82808258D01*
X182378774Y-82798704D01*
X182428231Y-82788867D01*
X182494552Y-82744552D01*
X182538867Y-82678231D01*
X182548704Y-82628774D01*
X182558260Y-82605706D01*
X182609394Y-82529179D01*
X182648869Y-82433875D01*
X182669736Y-82383501D01*
X182669737Y-82383495D01*
X182680699Y-82328390D01*
X182700500Y-82228842D01*
X182700500Y-82071158D01*
X182700500Y-82071155D01*
X182669737Y-81916504D01*
X182669736Y-81916498D01*
X182635711Y-81834356D01*
X182609394Y-81770821D01*
X182558259Y-81694292D01*
X182548704Y-81671223D01*
X182538867Y-81621769D01*
X182494552Y-81555448D01*
X182428231Y-81511133D01*
X182378775Y-81501295D01*
X182355706Y-81491739D01*
X182279184Y-81440609D01*
X182279181Y-81440607D01*
X182279179Y-81440606D01*
X182260568Y-81432897D01*
X182133501Y-81380263D01*
X182133495Y-81380262D01*
X181978845Y-81349500D01*
X181978842Y-81349500D01*
X180721158Y-81349500D01*
X180721155Y-81349500D01*
X180566504Y-81380262D01*
X180566498Y-81380263D01*
X180420823Y-81440605D01*
X180420814Y-81440609D01*
X180344293Y-81491739D01*
X180321224Y-81501295D01*
X180271768Y-81511133D01*
X180271767Y-81511133D01*
X180205448Y-81555448D01*
X180161133Y-81621767D01*
X180161133Y-81621768D01*
X180151295Y-81671224D01*
X180141739Y-81694293D01*
X180090609Y-81770814D01*
X180090605Y-81770823D01*
X180030263Y-81916498D01*
X180030262Y-81916504D01*
X179999500Y-82071155D01*
X179999500Y-82228844D01*
X174026301Y-82228844D01*
X174175413Y-82103724D01*
X174415267Y-81849494D01*
X174623985Y-81569137D01*
X174779369Y-81300003D01*
X175444355Y-81300003D01*
X175464859Y-81468870D01*
X175525182Y-81627931D01*
X175621814Y-81767926D01*
X175621816Y-81767928D01*
X175621817Y-81767929D01*
X175749148Y-81880734D01*
X175899775Y-81959790D01*
X175899777Y-81959791D01*
X176064937Y-82000499D01*
X176064942Y-82000499D01*
X176064944Y-82000500D01*
X176064946Y-82000500D01*
X176235054Y-82000500D01*
X176235056Y-82000500D01*
X176235058Y-82000499D01*
X176235062Y-82000499D01*
X176400222Y-81959791D01*
X176400222Y-81959790D01*
X176400225Y-81959790D01*
X176550852Y-81880734D01*
X176678183Y-81767929D01*
X176774818Y-81627930D01*
X176835140Y-81468872D01*
X176855645Y-81300000D01*
X176835140Y-81131128D01*
X176774818Y-80972070D01*
X176756487Y-80945513D01*
X176678185Y-80832073D01*
X176678183Y-80832071D01*
X176550852Y-80719266D01*
X176400222Y-80640208D01*
X176235062Y-80599500D01*
X176235056Y-80599500D01*
X176064944Y-80599500D01*
X176064937Y-80599500D01*
X175899777Y-80640208D01*
X175749148Y-80719266D01*
X175621816Y-80832071D01*
X175621814Y-80832073D01*
X175525182Y-80972068D01*
X175464859Y-81131129D01*
X175444355Y-81299996D01*
X175444355Y-81300003D01*
X174779369Y-81300003D01*
X174798744Y-81266445D01*
X174937181Y-80945512D01*
X175037424Y-80610677D01*
X175098117Y-80266468D01*
X175118440Y-79917541D01*
X175098117Y-79568614D01*
X175037424Y-79224405D01*
X174937181Y-78889570D01*
X174798744Y-78568637D01*
X174623985Y-78265945D01*
X174415267Y-77985588D01*
X174175413Y-77731358D01*
X174175411Y-77731356D01*
X174175408Y-77731353D01*
X173907673Y-77506697D01*
X173907668Y-77506694D01*
X173907666Y-77506692D01*
X173615648Y-77314628D01*
X173303306Y-77157764D01*
X173303301Y-77157762D01*
X172974870Y-77038223D01*
X172974866Y-77038222D01*
X172634769Y-76957618D01*
X172634765Y-76957617D01*
X172634763Y-76957617D01*
X172440022Y-76934855D01*
X172287614Y-76917041D01*
X171938096Y-76917041D01*
X171813121Y-76931648D01*
X171590946Y-76957617D01*
X171590942Y-76957617D01*
X171590941Y-76957618D01*
X171420892Y-76997920D01*
X171250839Y-77038223D01*
X170922408Y-77157762D01*
X170610062Y-77314628D01*
X170318044Y-77506692D01*
X170318036Y-77506697D01*
X170050301Y-77731353D01*
X169810440Y-77985591D01*
X169601723Y-78265947D01*
X169426966Y-78568636D01*
X169288530Y-78889568D01*
X169288525Y-78889582D01*
X169188290Y-79224390D01*
X169188285Y-79224410D01*
X169127593Y-79568609D01*
X169107270Y-79917541D01*
X148012964Y-79917541D01*
X148074818Y-79827930D01*
X148135140Y-79668872D01*
X148148688Y-79557293D01*
X148155645Y-79500003D01*
X148155645Y-79499996D01*
X148135140Y-79331129D01*
X148125037Y-79304490D01*
X148074818Y-79172070D01*
X148035185Y-79114653D01*
X148024905Y-79066762D01*
X148051501Y-79025627D01*
X148087441Y-79014299D01*
X149448541Y-79005519D01*
X149449511Y-79005520D01*
X153226504Y-79043289D01*
X153310517Y-79037109D01*
X153323031Y-79035130D01*
X153351185Y-79030678D01*
X153351187Y-79030677D01*
X153351196Y-79030676D01*
X153433018Y-79010630D01*
X153561525Y-78945920D01*
X153616063Y-78907859D01*
X153663902Y-78897333D01*
X153705173Y-78923716D01*
X153705335Y-78923949D01*
X153727021Y-78955366D01*
X153854352Y-79068171D01*
X154001553Y-79145429D01*
X154004981Y-79147228D01*
X154170141Y-79187936D01*
X154170146Y-79187936D01*
X154170148Y-79187937D01*
X154170150Y-79187937D01*
X154340258Y-79187937D01*
X154340260Y-79187937D01*
X154340262Y-79187936D01*
X154340266Y-79187936D01*
X154505426Y-79147228D01*
X154505426Y-79147227D01*
X154505429Y-79147227D01*
X154656056Y-79068171D01*
X154783387Y-78955366D01*
X154880022Y-78815367D01*
X154940344Y-78656309D01*
X154951216Y-78566769D01*
X154960849Y-78487440D01*
X154960849Y-78487433D01*
X154940344Y-78318566D01*
X154939662Y-78316769D01*
X154880022Y-78159507D01*
X154880021Y-78159505D01*
X154783389Y-78019510D01*
X154783382Y-78019503D01*
X154764884Y-78003115D01*
X154743441Y-77959075D01*
X154759224Y-77913337D01*
X154759065Y-77913199D01*
X154759410Y-77912799D01*
X154759420Y-77912771D01*
X154759603Y-77912576D01*
X154760560Y-77911469D01*
X154854645Y-77802618D01*
X154914254Y-77671666D01*
X154933856Y-77604602D01*
X154933856Y-77604601D01*
X154934037Y-77603325D01*
X154934493Y-77600149D01*
X154934496Y-77600110D01*
X154940918Y-77555048D01*
X154954157Y-77462160D01*
X154951713Y-75483769D01*
X178199500Y-75483769D01*
X178232182Y-75648074D01*
X178232185Y-75648084D01*
X178296295Y-75802860D01*
X178296296Y-75802862D01*
X178296297Y-75802863D01*
X178389374Y-75942162D01*
X178507838Y-76060626D01*
X178647137Y-76153703D01*
X178801918Y-76217816D01*
X178867104Y-76230782D01*
X178966230Y-76250500D01*
X178966233Y-76250500D01*
X179521667Y-76250500D01*
X179566922Y-76269245D01*
X179585667Y-76314500D01*
X179574338Y-76350856D01*
X179525182Y-76422068D01*
X179464859Y-76581129D01*
X179444355Y-76749996D01*
X179444355Y-76750003D01*
X179464859Y-76918870D01*
X179525182Y-77077931D01*
X179621814Y-77217926D01*
X179621816Y-77217928D01*
X179621817Y-77217929D01*
X179749148Y-77330734D01*
X179864856Y-77391463D01*
X179899777Y-77409791D01*
X180064937Y-77450499D01*
X180064942Y-77450499D01*
X180064944Y-77450500D01*
X180064946Y-77450500D01*
X180235054Y-77450500D01*
X180235056Y-77450500D01*
X180235058Y-77450499D01*
X180235062Y-77450499D01*
X180400222Y-77409791D01*
X180400222Y-77409790D01*
X180400225Y-77409790D01*
X180550852Y-77330734D01*
X180678183Y-77217929D01*
X180774818Y-77077930D01*
X180835140Y-76918872D01*
X180855645Y-76750000D01*
X180835140Y-76581128D01*
X180774818Y-76422070D01*
X180678183Y-76282071D01*
X180678181Y-76282068D01*
X180675613Y-76279169D01*
X180677084Y-76277865D01*
X180658404Y-76239511D01*
X180674378Y-76193205D01*
X180697791Y-76176514D01*
X180752863Y-76153703D01*
X180892162Y-76060626D01*
X181010626Y-75942162D01*
X181103703Y-75802863D01*
X181167816Y-75648082D01*
X181200500Y-75483767D01*
X181200500Y-75316233D01*
X181200500Y-75316230D01*
X181167817Y-75151925D01*
X181167816Y-75151918D01*
X181103703Y-74997137D01*
X181010626Y-74857838D01*
X180892162Y-74739374D01*
X180752863Y-74646297D01*
X180752862Y-74646296D01*
X180752860Y-74646295D01*
X180598084Y-74582185D01*
X180598085Y-74582185D01*
X180598082Y-74582184D01*
X180598078Y-74582183D01*
X180598074Y-74582182D01*
X180433770Y-74549500D01*
X180433767Y-74549500D01*
X178966233Y-74549500D01*
X178966230Y-74549500D01*
X178801925Y-74582182D01*
X178801915Y-74582185D01*
X178647139Y-74646295D01*
X178507836Y-74739375D01*
X178389375Y-74857836D01*
X178296295Y-74997139D01*
X178232185Y-75151915D01*
X178232182Y-75151925D01*
X178199500Y-75316230D01*
X178199500Y-75483769D01*
X154951713Y-75483769D01*
X154949729Y-73877749D01*
X167641500Y-73877749D01*
X167653133Y-73936231D01*
X167653133Y-73936232D01*
X167675290Y-73969391D01*
X167697448Y-74002552D01*
X167763769Y-74046867D01*
X167802844Y-74054639D01*
X167822250Y-74058500D01*
X167822252Y-74058500D01*
X172777750Y-74058500D01*
X172794393Y-74055188D01*
X172836231Y-74046867D01*
X172902552Y-74002552D01*
X172946867Y-73936231D01*
X172958500Y-73877748D01*
X172958500Y-68922252D01*
X172946867Y-68863769D01*
X172902552Y-68797448D01*
X172836231Y-68753133D01*
X172777750Y-68741500D01*
X172777748Y-68741500D01*
X167822252Y-68741500D01*
X167822250Y-68741500D01*
X167763768Y-68753133D01*
X167763767Y-68753133D01*
X167697448Y-68797448D01*
X167653133Y-68863767D01*
X167653133Y-68863768D01*
X167641500Y-68922250D01*
X167641500Y-73877749D01*
X154949729Y-73877749D01*
X154935749Y-62561418D01*
X154927006Y-62468430D01*
X154927004Y-62468424D01*
X154926867Y-62466957D01*
X154927790Y-62466870D01*
X154939374Y-62421959D01*
X154975195Y-62398301D01*
X155034777Y-62383616D01*
X155117480Y-62363232D01*
X155117480Y-62363231D01*
X155117483Y-62363231D01*
X155268110Y-62284175D01*
X155395441Y-62171370D01*
X155492076Y-62031371D01*
X155552398Y-61872313D01*
X155564958Y-61768872D01*
X155572903Y-61703444D01*
X155572903Y-61703437D01*
X155552398Y-61534570D01*
X155539462Y-61500461D01*
X155492076Y-61375511D01*
X155492075Y-61375509D01*
X155395443Y-61235514D01*
X155395441Y-61235512D01*
X155370951Y-61213816D01*
X155268110Y-61122707D01*
X155117480Y-61043649D01*
X154952320Y-61002941D01*
X154952314Y-61002941D01*
X154782202Y-61002941D01*
X154782195Y-61002941D01*
X154617035Y-61043649D01*
X154466406Y-61122707D01*
X154339074Y-61235512D01*
X154339072Y-61235514D01*
X154242440Y-61375510D01*
X154217365Y-61441626D01*
X154183789Y-61477292D01*
X154134828Y-61478771D01*
X154131165Y-61477250D01*
X154112744Y-61468924D01*
X154045641Y-61449504D01*
X154045636Y-61449503D01*
X154045635Y-61449503D01*
X154045629Y-61449502D01*
X153969326Y-61438834D01*
X153903137Y-61429581D01*
X153903135Y-61429581D01*
X148712145Y-61449824D01*
X148666818Y-61431256D01*
X148647896Y-61386075D01*
X148666465Y-61340747D01*
X148687400Y-61326699D01*
X148729179Y-61309394D01*
X148805708Y-61258258D01*
X148828774Y-61248704D01*
X148878231Y-61238867D01*
X148944552Y-61194552D01*
X148988867Y-61128231D01*
X148998704Y-61078774D01*
X149008260Y-61055706D01*
X149059394Y-60979179D01*
X149098869Y-60883875D01*
X149119736Y-60833501D01*
X149119737Y-60833495D01*
X149150500Y-60678844D01*
X149150500Y-60500004D01*
X167636641Y-60500004D01*
X167656059Y-60821023D01*
X167656060Y-60821034D01*
X167714033Y-61137385D01*
X167805607Y-61431256D01*
X167809716Y-61444440D01*
X167837106Y-61505298D01*
X167941711Y-61737722D01*
X168108093Y-62012951D01*
X168108096Y-62012956D01*
X168108099Y-62012960D01*
X168306447Y-62266134D01*
X168533866Y-62493553D01*
X168787040Y-62691901D01*
X169062275Y-62858287D01*
X169355560Y-62990284D01*
X169662616Y-63085967D01*
X169978968Y-63143940D01*
X170192989Y-63156886D01*
X170299996Y-63163359D01*
X170300000Y-63163359D01*
X170300004Y-63163359D01*
X170398779Y-63157383D01*
X170621032Y-63143940D01*
X170937384Y-63085967D01*
X171244440Y-62990284D01*
X171537725Y-62858287D01*
X171812960Y-62691901D01*
X172066134Y-62493553D01*
X172293553Y-62266134D01*
X172491901Y-62012960D01*
X172658287Y-61737725D01*
X172790284Y-61444440D01*
X172885967Y-61137384D01*
X172943940Y-60821032D01*
X172963359Y-60500000D01*
X172943940Y-60178968D01*
X172885967Y-59862616D01*
X172790284Y-59555560D01*
X172658287Y-59262275D01*
X172512566Y-59021224D01*
X172491906Y-58987048D01*
X172491904Y-58987046D01*
X172491901Y-58987040D01*
X172293553Y-58733866D01*
X172066134Y-58506447D01*
X171812960Y-58308099D01*
X171812956Y-58308096D01*
X171812951Y-58308093D01*
X171537722Y-58141711D01*
X171351978Y-58058115D01*
X171244440Y-58009716D01*
X171244432Y-58009713D01*
X171244425Y-58009711D01*
X170937385Y-57914033D01*
X170621034Y-57856060D01*
X170621023Y-57856059D01*
X170300004Y-57836641D01*
X170299996Y-57836641D01*
X169978976Y-57856059D01*
X169978965Y-57856060D01*
X169662614Y-57914033D01*
X169355574Y-58009711D01*
X169355560Y-58009716D01*
X169062277Y-58141711D01*
X168787048Y-58308093D01*
X168787041Y-58308098D01*
X168533867Y-58506446D01*
X168306446Y-58733867D01*
X168108098Y-58987041D01*
X168108093Y-58987048D01*
X167941711Y-59262277D01*
X167809716Y-59555560D01*
X167809711Y-59555574D01*
X167714033Y-59862614D01*
X167656060Y-60178965D01*
X167656059Y-60178976D01*
X167636641Y-60499995D01*
X167636641Y-60500004D01*
X149150500Y-60500004D01*
X149150500Y-59421155D01*
X149119737Y-59266504D01*
X149119736Y-59266498D01*
X149085711Y-59184356D01*
X149059394Y-59120821D01*
X149008259Y-59044292D01*
X148998704Y-59021223D01*
X148988867Y-58971769D01*
X148988254Y-58970852D01*
X148972839Y-58947782D01*
X148944552Y-58905448D01*
X148878231Y-58861133D01*
X148828775Y-58851295D01*
X148805706Y-58841739D01*
X148729184Y-58790609D01*
X148729181Y-58790607D01*
X148729179Y-58790606D01*
X148698393Y-58777854D01*
X148583501Y-58730263D01*
X148583495Y-58730262D01*
X148428845Y-58699500D01*
X148428842Y-58699500D01*
X148271158Y-58699500D01*
X148271155Y-58699500D01*
X148116504Y-58730262D01*
X148116498Y-58730263D01*
X147970823Y-58790605D01*
X147970814Y-58790609D01*
X147894293Y-58841739D01*
X147871224Y-58851295D01*
X147821768Y-58861133D01*
X147821767Y-58861133D01*
X147755448Y-58905448D01*
X147711133Y-58971767D01*
X147711133Y-58971768D01*
X147701295Y-59021224D01*
X147691739Y-59044293D01*
X147640609Y-59120814D01*
X147640605Y-59120823D01*
X147580263Y-59266498D01*
X147580262Y-59266504D01*
X147549500Y-59421155D01*
X147549500Y-60678844D01*
X147580262Y-60833495D01*
X147580263Y-60833501D01*
X147632897Y-60960568D01*
X147640606Y-60979179D01*
X147640607Y-60979181D01*
X147640609Y-60979184D01*
X147691739Y-61055706D01*
X147701295Y-61078775D01*
X147711133Y-61128231D01*
X147711133Y-61128232D01*
X147724217Y-61147813D01*
X147755448Y-61194552D01*
X147821769Y-61238867D01*
X147871223Y-61248704D01*
X147894293Y-61258260D01*
X147945046Y-61292172D01*
X147970821Y-61309394D01*
X148019346Y-61329493D01*
X148053982Y-61364129D01*
X148053983Y-61413112D01*
X148019346Y-61447749D01*
X147995104Y-61452621D01*
X142376470Y-61474532D01*
X141744306Y-61476998D01*
X141715441Y-61480221D01*
X141636690Y-61489014D01*
X141585145Y-61500460D01*
X141585139Y-61500462D01*
X141482573Y-61535112D01*
X141361899Y-61613469D01*
X141309314Y-61659468D01*
X141309312Y-61659470D01*
X141309310Y-61659472D01*
X141301242Y-61668872D01*
X141215608Y-61768637D01*
X141215604Y-61768644D01*
X141156453Y-61899786D01*
X141156449Y-61899796D01*
X141137081Y-61966916D01*
X141137076Y-61966934D01*
X141117268Y-62109451D01*
X132558879Y-62109451D01*
X132613594Y-62080734D01*
X132740925Y-61967929D01*
X132837560Y-61827930D01*
X132897882Y-61668872D01*
X132918387Y-61500000D01*
X132915985Y-61480221D01*
X132897882Y-61331129D01*
X132897261Y-61329492D01*
X132837560Y-61172070D01*
X132832974Y-61165426D01*
X132740927Y-61032073D01*
X132740925Y-61032071D01*
X132708044Y-61002941D01*
X132613594Y-60919266D01*
X132462964Y-60840208D01*
X132297804Y-60799500D01*
X132297798Y-60799500D01*
X132127686Y-60799500D01*
X132127679Y-60799500D01*
X131962519Y-60840208D01*
X131811890Y-60919266D01*
X131684559Y-61032071D01*
X131604667Y-61147813D01*
X131563532Y-61174408D01*
X131525563Y-61169742D01*
X131442500Y-61132073D01*
X131412465Y-61118452D01*
X131412463Y-61118451D01*
X131412460Y-61118450D01*
X131345374Y-61098944D01*
X131345364Y-61098941D01*
X131222992Y-61081679D01*
X131202896Y-61078845D01*
X131202895Y-61078845D01*
X125421920Y-61094219D01*
X125376616Y-61075594D01*
X125357750Y-61030389D01*
X125358980Y-61017734D01*
X125361446Y-61005336D01*
X125371002Y-60982265D01*
X125422136Y-60905738D01*
X125466141Y-60799500D01*
X125482478Y-60760060D01*
X125482479Y-60760054D01*
X125498633Y-60678844D01*
X134049500Y-60678844D01*
X134080262Y-60833495D01*
X134080263Y-60833501D01*
X134132897Y-60960568D01*
X134140606Y-60979179D01*
X134140607Y-60979181D01*
X134140609Y-60979184D01*
X134191739Y-61055706D01*
X134201295Y-61078775D01*
X134211133Y-61128231D01*
X134211133Y-61128232D01*
X134224217Y-61147813D01*
X134255448Y-61194552D01*
X134321769Y-61238867D01*
X134371223Y-61248704D01*
X134394293Y-61258260D01*
X134445046Y-61292172D01*
X134470821Y-61309394D01*
X134534356Y-61335711D01*
X134616498Y-61369736D01*
X134616502Y-61369736D01*
X134616503Y-61369737D01*
X134645521Y-61375509D01*
X134771155Y-61400500D01*
X134771158Y-61400500D01*
X134928845Y-61400500D01*
X135021635Y-61382042D01*
X135083497Y-61369737D01*
X135083498Y-61369736D01*
X135083501Y-61369736D01*
X135133875Y-61348869D01*
X135229179Y-61309394D01*
X135305708Y-61258258D01*
X135328774Y-61248704D01*
X135378231Y-61238867D01*
X135444552Y-61194552D01*
X135488867Y-61128231D01*
X135498704Y-61078774D01*
X135508260Y-61055706D01*
X135559394Y-60979179D01*
X135598869Y-60883875D01*
X135619736Y-60833501D01*
X135619737Y-60833495D01*
X135650500Y-60678844D01*
X135650500Y-59421155D01*
X135619737Y-59266504D01*
X135619736Y-59266498D01*
X135585711Y-59184356D01*
X135559394Y-59120821D01*
X135508259Y-59044292D01*
X135498704Y-59021223D01*
X135488867Y-58971769D01*
X135488254Y-58970852D01*
X135472839Y-58947782D01*
X135444552Y-58905448D01*
X135378231Y-58861133D01*
X135328775Y-58851295D01*
X135305706Y-58841739D01*
X135229184Y-58790609D01*
X135229181Y-58790607D01*
X135229179Y-58790606D01*
X135198393Y-58777854D01*
X135083501Y-58730263D01*
X135083495Y-58730262D01*
X134928845Y-58699500D01*
X134928842Y-58699500D01*
X134771158Y-58699500D01*
X134771155Y-58699500D01*
X134616504Y-58730262D01*
X134616498Y-58730263D01*
X134470823Y-58790605D01*
X134470814Y-58790609D01*
X134394293Y-58841739D01*
X134371224Y-58851295D01*
X134321768Y-58861133D01*
X134321767Y-58861133D01*
X134255448Y-58905448D01*
X134211133Y-58971767D01*
X134211133Y-58971768D01*
X134201295Y-59021224D01*
X134191739Y-59044293D01*
X134140609Y-59120814D01*
X134140605Y-59120823D01*
X134080263Y-59266498D01*
X134080262Y-59266504D01*
X134049500Y-59421155D01*
X134049500Y-60678844D01*
X125498633Y-60678844D01*
X125513242Y-60605403D01*
X125513242Y-59347714D01*
X125482479Y-59193063D01*
X125482478Y-59193057D01*
X125448453Y-59110915D01*
X125422136Y-59047380D01*
X125371001Y-58970851D01*
X125361446Y-58947782D01*
X125355614Y-58918464D01*
X125351609Y-58898328D01*
X125307294Y-58832007D01*
X125240973Y-58787692D01*
X125191517Y-58777854D01*
X125168448Y-58768298D01*
X125091926Y-58717168D01*
X125091923Y-58717166D01*
X125091921Y-58717165D01*
X125049274Y-58699500D01*
X124946243Y-58656822D01*
X124946237Y-58656821D01*
X124791587Y-58626059D01*
X124791584Y-58626059D01*
X124633900Y-58626059D01*
X124633897Y-58626059D01*
X124479246Y-58656821D01*
X124479240Y-58656822D01*
X124333565Y-58717164D01*
X124333556Y-58717168D01*
X124257035Y-58768298D01*
X124233966Y-58777854D01*
X124184510Y-58787692D01*
X124184509Y-58787692D01*
X124118190Y-58832007D01*
X124073875Y-58898326D01*
X124073875Y-58898327D01*
X124064037Y-58947783D01*
X124054481Y-58970852D01*
X124003351Y-59047373D01*
X124003347Y-59047382D01*
X123943005Y-59193057D01*
X123943004Y-59193063D01*
X123912242Y-59347714D01*
X123912242Y-60605403D01*
X123943004Y-60760054D01*
X123943005Y-60760060D01*
X123995639Y-60887127D01*
X124003348Y-60905738D01*
X124003349Y-60905740D01*
X124003351Y-60905743D01*
X124054481Y-60982265D01*
X124064037Y-61005335D01*
X124067253Y-61021502D01*
X124057697Y-61069544D01*
X124016969Y-61096758D01*
X124004653Y-61097988D01*
X118835058Y-61111738D01*
X118728304Y-61123432D01*
X118728289Y-61123434D01*
X118677117Y-61134638D01*
X118677113Y-61134639D01*
X118575238Y-61168622D01*
X118454195Y-61246413D01*
X118401395Y-61292165D01*
X118401389Y-61292172D01*
X118307173Y-61400902D01*
X118247406Y-61531769D01*
X118247403Y-61531777D01*
X118227719Y-61598813D01*
X118227719Y-61598816D01*
X118227718Y-61598820D01*
X118217647Y-61668870D01*
X118207242Y-61741237D01*
X118207242Y-68455758D01*
X118207071Y-68460428D01*
X117908968Y-72534489D01*
X117907868Y-72555523D01*
X117907544Y-72565787D01*
X117907320Y-72586822D01*
X117907320Y-72586856D01*
X108744342Y-72586856D01*
X108746901Y-72565782D01*
X108750369Y-72537222D01*
X108750369Y-72537215D01*
X108729864Y-72368348D01*
X108669541Y-72209287D01*
X108632653Y-72155847D01*
X108622372Y-72107955D01*
X108648968Y-72066820D01*
X108696860Y-72056539D01*
X108715065Y-72062821D01*
X108855159Y-72136349D01*
X108855161Y-72136350D01*
X109020321Y-72177058D01*
X109020326Y-72177058D01*
X109020328Y-72177059D01*
X109020330Y-72177059D01*
X109190438Y-72177059D01*
X109190440Y-72177059D01*
X109190442Y-72177058D01*
X109190446Y-72177058D01*
X109355606Y-72136350D01*
X109355606Y-72136349D01*
X109355609Y-72136349D01*
X109506236Y-72057293D01*
X109633567Y-71944488D01*
X109730202Y-71804489D01*
X109790524Y-71645431D01*
X109811029Y-71476559D01*
X109790524Y-71307687D01*
X109730202Y-71148629D01*
X109692526Y-71094046D01*
X109633569Y-71008632D01*
X109633567Y-71008630D01*
X109547358Y-70932256D01*
X109506236Y-70895825D01*
X109355606Y-70816767D01*
X109190446Y-70776059D01*
X109190440Y-70776059D01*
X109020328Y-70776059D01*
X109020321Y-70776059D01*
X108855159Y-70816768D01*
X108715066Y-70890295D01*
X108666284Y-70894728D01*
X108628655Y-70863368D01*
X108624222Y-70814586D01*
X108632652Y-70797272D01*
X108669542Y-70743829D01*
X108729864Y-70584771D01*
X108750369Y-70415899D01*
X108729864Y-70247027D01*
X108669542Y-70087969D01*
X108572907Y-69947970D01*
X108572906Y-69947969D01*
X108539802Y-69918641D01*
X108518359Y-69874600D01*
X108518242Y-69870736D01*
X108518242Y-62531903D01*
X108518235Y-62529172D01*
X108518235Y-62529171D01*
X108518229Y-62528025D01*
X108518229Y-62528024D01*
X108518213Y-62525836D01*
X108518213Y-62525830D01*
X108509162Y-62466870D01*
X108496382Y-62383617D01*
X108485774Y-62348722D01*
X108490545Y-62299974D01*
X108528391Y-62268876D01*
X108531665Y-62267975D01*
X108564877Y-62259790D01*
X108715504Y-62180734D01*
X108842835Y-62067929D01*
X108939470Y-61927930D01*
X108999792Y-61768872D01*
X109010809Y-61678142D01*
X109020297Y-61600003D01*
X109020297Y-61599996D01*
X109001408Y-61444439D01*
X108999792Y-61431128D01*
X108939470Y-61272070D01*
X108928616Y-61256345D01*
X108842837Y-61132073D01*
X108842835Y-61132071D01*
X108838502Y-61128232D01*
X108715504Y-61019266D01*
X108564874Y-60940208D01*
X108399714Y-60899500D01*
X108399708Y-60899500D01*
X108229596Y-60899500D01*
X108229589Y-60899500D01*
X108064429Y-60940208D01*
X107913800Y-61019266D01*
X107786469Y-61132071D01*
X107700688Y-61256345D01*
X107659553Y-61282940D01*
X107621430Y-61278204D01*
X107518559Y-61231223D01*
X107518551Y-61231220D01*
X107451515Y-61211536D01*
X107451510Y-61211535D01*
X107451509Y-61211535D01*
X107309093Y-61191059D01*
X107309091Y-61191059D01*
X101838759Y-61191059D01*
X101793504Y-61172314D01*
X101774759Y-61127059D01*
X101793504Y-61081804D01*
X101803203Y-61073845D01*
X101805512Y-61072301D01*
X101807294Y-61071111D01*
X101851609Y-61004790D01*
X101861446Y-60955333D01*
X101871002Y-60932265D01*
X101922136Y-60855738D01*
X101961769Y-60760054D01*
X101982478Y-60710060D01*
X101982479Y-60710054D01*
X102003296Y-60605403D01*
X110412242Y-60605403D01*
X110443004Y-60760054D01*
X110443005Y-60760060D01*
X110495639Y-60887127D01*
X110503348Y-60905738D01*
X110503349Y-60905740D01*
X110503351Y-60905743D01*
X110554481Y-60982265D01*
X110564037Y-61005334D01*
X110573875Y-61054790D01*
X110573875Y-61054791D01*
X110589902Y-61078776D01*
X110618190Y-61121111D01*
X110684511Y-61165426D01*
X110729667Y-61174408D01*
X110733965Y-61175263D01*
X110757035Y-61184819D01*
X110826480Y-61231220D01*
X110833563Y-61235953D01*
X110897098Y-61262270D01*
X110979240Y-61296295D01*
X110979244Y-61296295D01*
X110979245Y-61296296D01*
X111017908Y-61303986D01*
X111133897Y-61327059D01*
X111133900Y-61327059D01*
X111291587Y-61327059D01*
X111384377Y-61308601D01*
X111446239Y-61296296D01*
X111446240Y-61296295D01*
X111446243Y-61296295D01*
X111504731Y-61272068D01*
X111591921Y-61235953D01*
X111668450Y-61184817D01*
X111691516Y-61175263D01*
X111740973Y-61165426D01*
X111807294Y-61121111D01*
X111851609Y-61054790D01*
X111861446Y-61005333D01*
X111871002Y-60982265D01*
X111922136Y-60905738D01*
X111966141Y-60799500D01*
X111982478Y-60760060D01*
X111982479Y-60760054D01*
X112013242Y-60605403D01*
X112013242Y-59347714D01*
X111982479Y-59193063D01*
X111982478Y-59193057D01*
X111948453Y-59110915D01*
X111922136Y-59047380D01*
X111871001Y-58970851D01*
X111861446Y-58947782D01*
X111855614Y-58918464D01*
X111851609Y-58898328D01*
X111807294Y-58832007D01*
X111740973Y-58787692D01*
X111691517Y-58777854D01*
X111668448Y-58768298D01*
X111591926Y-58717168D01*
X111591923Y-58717166D01*
X111591921Y-58717165D01*
X111549274Y-58699500D01*
X111446243Y-58656822D01*
X111446237Y-58656821D01*
X111291587Y-58626059D01*
X111291584Y-58626059D01*
X111133900Y-58626059D01*
X111133897Y-58626059D01*
X110979246Y-58656821D01*
X110979240Y-58656822D01*
X110833565Y-58717164D01*
X110833556Y-58717168D01*
X110757035Y-58768298D01*
X110733966Y-58777854D01*
X110684510Y-58787692D01*
X110684509Y-58787692D01*
X110618190Y-58832007D01*
X110573875Y-58898326D01*
X110573875Y-58898327D01*
X110564037Y-58947783D01*
X110554481Y-58970852D01*
X110503351Y-59047373D01*
X110503347Y-59047382D01*
X110443005Y-59193057D01*
X110443004Y-59193063D01*
X110412242Y-59347714D01*
X110412242Y-60605403D01*
X102003296Y-60605403D01*
X102013242Y-60555403D01*
X102013242Y-59297714D01*
X101982479Y-59143063D01*
X101982478Y-59143057D01*
X101942847Y-59047382D01*
X101922136Y-58997380D01*
X101871001Y-58920851D01*
X101861446Y-58897782D01*
X101851609Y-58848328D01*
X101847206Y-58841739D01*
X101840453Y-58831632D01*
X101807294Y-58782007D01*
X101740973Y-58737692D01*
X101691517Y-58727854D01*
X101668448Y-58718298D01*
X101591926Y-58667168D01*
X101591923Y-58667166D01*
X101591921Y-58667165D01*
X101566948Y-58656821D01*
X101446243Y-58606822D01*
X101446237Y-58606821D01*
X101291587Y-58576059D01*
X101291584Y-58576059D01*
X101133900Y-58576059D01*
X101133897Y-58576059D01*
X100979246Y-58606821D01*
X100979240Y-58606822D01*
X100833565Y-58667164D01*
X100833556Y-58667168D01*
X100757035Y-58718298D01*
X100733966Y-58727854D01*
X100684510Y-58737692D01*
X100684509Y-58737692D01*
X100618190Y-58782007D01*
X100573875Y-58848326D01*
X100573875Y-58848327D01*
X100564037Y-58897783D01*
X100554481Y-58920852D01*
X100503351Y-58997373D01*
X100503347Y-58997382D01*
X100443005Y-59143057D01*
X100443004Y-59143063D01*
X100412242Y-59297714D01*
X100412242Y-60555403D01*
X100443004Y-60710054D01*
X100443005Y-60710060D01*
X100494137Y-60833501D01*
X100503348Y-60855738D01*
X100503349Y-60855740D01*
X100503351Y-60855743D01*
X100554481Y-60932265D01*
X100564037Y-60955334D01*
X100573875Y-61004790D01*
X100573875Y-61004791D01*
X100618190Y-61071111D01*
X100618191Y-61071112D01*
X100622281Y-61073845D01*
X100649495Y-61114573D01*
X100639939Y-61162615D01*
X100599211Y-61189829D01*
X100586725Y-61191059D01*
X94916728Y-61191059D01*
X94809287Y-61202611D01*
X94809277Y-61202613D01*
X94757781Y-61213816D01*
X94655235Y-61247947D01*
X94534193Y-61325738D01*
X94481397Y-61371486D01*
X94481392Y-61371491D01*
X94387175Y-61480223D01*
X94327407Y-61611090D01*
X94327404Y-61611098D01*
X94308049Y-61677014D01*
X94307785Y-61677854D01*
X94307719Y-61678136D01*
X94307718Y-61678141D01*
X94307718Y-61678142D01*
X94294674Y-61768870D01*
X94287242Y-61820559D01*
X94287242Y-77085707D01*
X94287243Y-77085724D01*
X94303407Y-77212522D01*
X94303409Y-77212534D01*
X94303410Y-77212537D01*
X94307455Y-77228145D01*
X94319018Y-77272761D01*
X94319022Y-77272771D01*
X94353678Y-77359440D01*
X94366484Y-77391465D01*
X94453555Y-77506008D01*
X94453557Y-77506010D01*
X94453558Y-77506011D01*
X94503323Y-77555048D01*
X94570549Y-77604602D01*
X94619137Y-77640418D01*
X94728085Y-77680141D01*
X94764181Y-77713254D01*
X94766290Y-77762192D01*
X94752714Y-77784188D01*
X94600444Y-77945586D01*
X94391723Y-78225947D01*
X94216966Y-78528636D01*
X94078530Y-78849568D01*
X94078525Y-78849582D01*
X93978290Y-79184390D01*
X93978285Y-79184410D01*
X93917593Y-79528609D01*
X93897270Y-79877541D01*
X84573355Y-79877541D01*
X84573355Y-60555403D01*
X86912242Y-60555403D01*
X86943004Y-60710054D01*
X86943005Y-60710060D01*
X86994137Y-60833501D01*
X87003348Y-60855738D01*
X87003349Y-60855740D01*
X87003351Y-60855743D01*
X87054481Y-60932265D01*
X87064037Y-60955334D01*
X87073875Y-61004790D01*
X87073875Y-61004791D01*
X87090980Y-61030389D01*
X87118190Y-61071111D01*
X87184511Y-61115426D01*
X87233965Y-61125263D01*
X87257035Y-61134819D01*
X87313151Y-61172314D01*
X87333563Y-61185953D01*
X87395324Y-61211535D01*
X87479240Y-61246295D01*
X87479244Y-61246295D01*
X87479245Y-61246296D01*
X87491351Y-61248704D01*
X87633897Y-61277059D01*
X87633900Y-61277059D01*
X87791587Y-61277059D01*
X87886092Y-61258260D01*
X87946239Y-61246296D01*
X87946240Y-61246295D01*
X87946243Y-61246295D01*
X88024648Y-61213818D01*
X88091921Y-61185953D01*
X88168450Y-61134817D01*
X88191516Y-61125263D01*
X88240973Y-61115426D01*
X88307294Y-61071111D01*
X88351609Y-61004790D01*
X88361446Y-60955333D01*
X88371002Y-60932265D01*
X88422136Y-60855738D01*
X88461769Y-60760054D01*
X88482478Y-60710060D01*
X88482479Y-60710054D01*
X88513242Y-60555403D01*
X88513242Y-59297714D01*
X88482479Y-59143063D01*
X88482478Y-59143057D01*
X88442847Y-59047382D01*
X88422136Y-58997380D01*
X88371001Y-58920851D01*
X88361446Y-58897782D01*
X88351609Y-58848328D01*
X88347206Y-58841739D01*
X88340453Y-58831632D01*
X88307294Y-58782007D01*
X88240973Y-58737692D01*
X88191517Y-58727854D01*
X88168448Y-58718298D01*
X88091926Y-58667168D01*
X88091923Y-58667166D01*
X88091921Y-58667165D01*
X88066948Y-58656821D01*
X87946243Y-58606822D01*
X87946237Y-58606821D01*
X87791587Y-58576059D01*
X87791584Y-58576059D01*
X87633900Y-58576059D01*
X87633897Y-58576059D01*
X87479246Y-58606821D01*
X87479240Y-58606822D01*
X87333565Y-58667164D01*
X87333556Y-58667168D01*
X87257035Y-58718298D01*
X87233966Y-58727854D01*
X87184510Y-58737692D01*
X87184509Y-58737692D01*
X87118190Y-58782007D01*
X87073875Y-58848326D01*
X87073875Y-58848327D01*
X87064037Y-58897783D01*
X87054481Y-58920852D01*
X87003351Y-58997373D01*
X87003347Y-58997382D01*
X86943005Y-59143057D01*
X86943004Y-59143063D01*
X86912242Y-59297714D01*
X86912242Y-60555403D01*
X84573355Y-60555403D01*
X84573355Y-59670314D01*
X84573477Y-59668452D01*
X84573477Y-59600692D01*
X84573538Y-59597900D01*
X84576343Y-59533652D01*
X84590473Y-59210003D01*
X84590960Y-59204450D01*
X84599042Y-59143062D01*
X84641455Y-58820892D01*
X84642418Y-58815428D01*
X84726155Y-58437711D01*
X84727599Y-58432323D01*
X84766766Y-58308099D01*
X84843937Y-58063341D01*
X84845832Y-58058134D01*
X84993886Y-57700693D01*
X84996223Y-57695679D01*
X85174878Y-57352481D01*
X85177656Y-57347670D01*
X85385529Y-57021369D01*
X85388707Y-57016830D01*
X85624227Y-56709888D01*
X85627812Y-56705617D01*
X85889180Y-56420376D01*
X85893097Y-56416459D01*
X85911055Y-56400003D01*
X107694355Y-56400003D01*
X107714859Y-56568870D01*
X107775182Y-56727931D01*
X107871814Y-56867926D01*
X107871816Y-56867928D01*
X107871817Y-56867929D01*
X107999148Y-56980734D01*
X108116188Y-57042162D01*
X108149777Y-57059791D01*
X108314937Y-57100499D01*
X108314942Y-57100499D01*
X108314944Y-57100500D01*
X108314946Y-57100500D01*
X108485054Y-57100500D01*
X108485056Y-57100500D01*
X108485058Y-57100499D01*
X108485062Y-57100499D01*
X108650222Y-57059791D01*
X108650222Y-57059790D01*
X108650225Y-57059790D01*
X108800852Y-56980734D01*
X108928183Y-56867929D01*
X109024818Y-56727930D01*
X109085140Y-56568872D01*
X109103630Y-56416595D01*
X109105645Y-56400003D01*
X109105645Y-56399996D01*
X109085140Y-56231129D01*
X109081704Y-56222070D01*
X109024818Y-56072070D01*
X109015446Y-56058492D01*
X108983869Y-56012745D01*
X131507097Y-56012745D01*
X131527601Y-56181612D01*
X131587924Y-56340673D01*
X131684556Y-56480668D01*
X131684558Y-56480670D01*
X131684559Y-56480671D01*
X131811890Y-56593476D01*
X131962517Y-56672532D01*
X131962519Y-56672533D01*
X132127679Y-56713241D01*
X132127684Y-56713241D01*
X132127686Y-56713242D01*
X132127688Y-56713242D01*
X132297796Y-56713242D01*
X132297798Y-56713242D01*
X132297800Y-56713241D01*
X132297804Y-56713241D01*
X132462964Y-56672533D01*
X132462964Y-56672532D01*
X132462967Y-56672532D01*
X132613594Y-56593476D01*
X132662665Y-56550003D01*
X156294355Y-56550003D01*
X156314859Y-56718870D01*
X156375182Y-56877931D01*
X156471814Y-57017926D01*
X156471816Y-57017928D01*
X156471817Y-57017929D01*
X156599148Y-57130734D01*
X156749775Y-57209790D01*
X156749777Y-57209791D01*
X156914937Y-57250499D01*
X156914942Y-57250499D01*
X156914944Y-57250500D01*
X156914946Y-57250500D01*
X157085054Y-57250500D01*
X157085056Y-57250500D01*
X157085058Y-57250499D01*
X157085062Y-57250499D01*
X157250222Y-57209791D01*
X157250222Y-57209790D01*
X157250225Y-57209790D01*
X157400852Y-57130734D01*
X157528183Y-57017929D01*
X157624818Y-56877930D01*
X157685140Y-56718872D01*
X157701545Y-56583767D01*
X157705645Y-56550003D01*
X157705645Y-56549996D01*
X157687432Y-56400003D01*
X157685140Y-56381128D01*
X157624818Y-56222070D01*
X157596892Y-56181612D01*
X157528185Y-56082073D01*
X157528183Y-56082071D01*
X157501568Y-56058492D01*
X157400852Y-55969266D01*
X157250222Y-55890208D01*
X157085062Y-55849500D01*
X157085056Y-55849500D01*
X156914944Y-55849500D01*
X156914937Y-55849500D01*
X156749777Y-55890208D01*
X156599148Y-55969266D01*
X156471816Y-56082071D01*
X156471814Y-56082073D01*
X156375182Y-56222068D01*
X156314859Y-56381129D01*
X156294355Y-56549996D01*
X156294355Y-56550003D01*
X132662665Y-56550003D01*
X132740925Y-56480671D01*
X132837560Y-56340672D01*
X132897882Y-56181614D01*
X132908139Y-56097139D01*
X132918387Y-56012745D01*
X132918387Y-56012738D01*
X132897882Y-55843871D01*
X132881245Y-55800003D01*
X132837560Y-55684812D01*
X132813186Y-55649500D01*
X132740927Y-55544815D01*
X132740925Y-55544813D01*
X132714174Y-55521114D01*
X132613594Y-55432008D01*
X132462964Y-55352950D01*
X132297804Y-55312242D01*
X132297798Y-55312242D01*
X132127686Y-55312242D01*
X132127679Y-55312242D01*
X131962519Y-55352950D01*
X131811890Y-55432008D01*
X131684558Y-55544813D01*
X131684556Y-55544815D01*
X131587924Y-55684810D01*
X131527601Y-55843871D01*
X131507097Y-56012738D01*
X131507097Y-56012745D01*
X108983869Y-56012745D01*
X108928185Y-55932073D01*
X108928183Y-55932071D01*
X108800852Y-55819266D01*
X108650222Y-55740208D01*
X108485062Y-55699500D01*
X108485056Y-55699500D01*
X108314944Y-55699500D01*
X108314937Y-55699500D01*
X108149777Y-55740208D01*
X107999148Y-55819266D01*
X107871816Y-55932071D01*
X107871814Y-55932073D01*
X107775182Y-56072068D01*
X107714859Y-56231129D01*
X107694355Y-56399996D01*
X107694355Y-56400003D01*
X85911055Y-56400003D01*
X86178342Y-56155074D01*
X86182598Y-56151502D01*
X86489521Y-55915985D01*
X86494083Y-55912789D01*
X86820378Y-55704909D01*
X86825199Y-55702126D01*
X87168344Y-55523489D01*
X87173403Y-55521130D01*
X87173442Y-55521114D01*
X87530840Y-55373065D01*
X87536033Y-55371175D01*
X87905029Y-55254823D01*
X87910394Y-55253385D01*
X88288111Y-55169640D01*
X88293587Y-55168674D01*
X88677144Y-55118169D01*
X88682695Y-55117683D01*
X89071220Y-55100710D01*
X89073943Y-55100650D01*
X89137878Y-55100650D01*
X89140923Y-55100650D01*
X89143212Y-55100500D01*
X151765827Y-55100500D01*
X151811082Y-55119245D01*
G37*
%TD.AperFunction*%
%TD*%
M02*
