%TF.GenerationSoftware,KiCad,Pcbnew,7.0.7*%
%TF.CreationDate,2023-09-08T11:37:07+10:00*%
%TF.ProjectId,rear_screen,72656172-5f73-4637-9265-656e2e6b6963,v0.2*%
%TF.SameCoordinates,Original*%
%TF.FileFunction,Copper,L2,Bot*%
%TF.FilePolarity,Positive*%
%FSLAX46Y46*%
G04 Gerber Fmt 4.6, Leading zero omitted, Abs format (unit mm)*
G04 Created by KiCad (PCBNEW 7.0.7) date 2023-09-08 11:37:07*
%MOMM*%
%LPD*%
G01*
G04 APERTURE LIST*
G04 Aperture macros list*
%AMRoundRect*
0 Rectangle with rounded corners*
0 $1 Rounding radius*
0 $2 $3 $4 $5 $6 $7 $8 $9 X,Y pos of 4 corners*
0 Add a 4 corners polygon primitive as box body*
4,1,4,$2,$3,$4,$5,$6,$7,$8,$9,$2,$3,0*
0 Add four circle primitives for the rounded corners*
1,1,$1+$1,$2,$3*
1,1,$1+$1,$4,$5*
1,1,$1+$1,$6,$7*
1,1,$1+$1,$8,$9*
0 Add four rect primitives between the rounded corners*
20,1,$1+$1,$2,$3,$4,$5,0*
20,1,$1+$1,$4,$5,$6,$7,0*
20,1,$1+$1,$6,$7,$8,$9,0*
20,1,$1+$1,$8,$9,$2,$3,0*%
G04 Aperture macros list end*
%TA.AperFunction,ComponentPad*%
%ADD10R,0.900000X2.000000*%
%TD*%
%TA.AperFunction,ComponentPad*%
%ADD11RoundRect,1.025000X1.025000X1.025000X-1.025000X1.025000X-1.025000X-1.025000X1.025000X-1.025000X0*%
%TD*%
%TA.AperFunction,ComponentPad*%
%ADD12C,4.100000*%
%TD*%
%TA.AperFunction,ComponentPad*%
%ADD13C,5.600000*%
%TD*%
%TA.AperFunction,ComponentPad*%
%ADD14C,0.500000*%
%TD*%
%TA.AperFunction,SMDPad,CuDef*%
%ADD15R,2.410000X3.100000*%
%TD*%
%TA.AperFunction,ComponentPad*%
%ADD16C,4.916000*%
%TD*%
%TA.AperFunction,ComponentPad*%
%ADD17R,4.916000X4.916000*%
%TD*%
%TA.AperFunction,ComponentPad*%
%ADD18O,2.600000X1.300000*%
%TD*%
%TA.AperFunction,ComponentPad*%
%ADD19R,2.000000X0.900000*%
%TD*%
%TA.AperFunction,ComponentPad*%
%ADD20RoundRect,1.025000X-1.025000X1.025000X-1.025000X-1.025000X1.025000X-1.025000X1.025000X1.025000X0*%
%TD*%
%TA.AperFunction,ViaPad*%
%ADD21C,0.800000*%
%TD*%
%TA.AperFunction,Conductor*%
%ADD22C,0.400000*%
%TD*%
%TA.AperFunction,Conductor*%
%ADD23C,0.200000*%
%TD*%
%TA.AperFunction,Conductor*%
%ADD24C,0.250000*%
%TD*%
%TA.AperFunction,Conductor*%
%ADD25C,0.600000*%
%TD*%
G04 APERTURE END LIST*
D10*
%TO.P,J2,*%
%TO.N,*%
X97124466Y-139000000D03*
X83624466Y-139000000D03*
D11*
%TO.P,J2,1,Pin_1*%
%TO.N,Net-(D2-A)*%
X86774466Y-133000000D03*
D12*
%TO.P,J2,2,Pin_2*%
%TO.N,VIN*%
X93974466Y-133000000D03*
%TD*%
D13*
%TO.P,H1,1*%
%TO.N,N/C*%
X90150000Y-67960000D03*
%TD*%
D10*
%TO.P,J4,*%
%TO.N,*%
X148000000Y-139000000D03*
X134500000Y-139000000D03*
D11*
%TO.P,J4,1,Pin_1*%
%TO.N,Net-(D4-A)*%
X137650000Y-133000000D03*
D12*
%TO.P,J4,2,Pin_2*%
%TO.N,VIN*%
X144850000Y-133000000D03*
%TD*%
D14*
%TO.P,U2,9,TH*%
%TO.N,unconnected-(U2-TH-Pad9)*%
X130880000Y-65450000D03*
X130880000Y-66750000D03*
X130880000Y-68050000D03*
D15*
X131835000Y-66750000D03*
D14*
X132790000Y-65450000D03*
X132790000Y-66750000D03*
X132790000Y-68050000D03*
%TD*%
D10*
%TO.P,J5,*%
%TO.N,*%
X173074466Y-139050000D03*
X159574466Y-139050000D03*
D11*
%TO.P,J5,1,Pin_1*%
%TO.N,Net-(D5-A)*%
X162724466Y-133050000D03*
D12*
%TO.P,J5,2,Pin_2*%
%TO.N,VIN*%
X169924466Y-133050000D03*
%TD*%
D14*
%TO.P,U1,9,TH*%
%TO.N,unconnected-(U1-TH-Pad9)*%
X116250000Y-65000000D03*
X116250000Y-66300000D03*
X116250000Y-67600000D03*
D15*
X117205000Y-66300000D03*
D14*
X118160000Y-65000000D03*
X118160000Y-66300000D03*
X118160000Y-67600000D03*
%TD*%
D16*
%TO.P,J6,1,Pin_1*%
%TO.N,BATT-*%
X162600000Y-98400000D03*
D17*
%TO.P,J6,2,Pin_2*%
%TO.N,VIN*%
X162600000Y-109300000D03*
D18*
%TO.P,J6,S1*%
%TO.N,N/C*%
X172000000Y-113300000D03*
%TO.P,J6,S2*%
X172000000Y-94400000D03*
%TD*%
D13*
%TO.P,H3,1*%
%TO.N,N/C*%
X165370000Y-119300000D03*
%TD*%
D19*
%TO.P,J1,*%
%TO.N,*%
X176350000Y-97150000D03*
X176350000Y-110650000D03*
D20*
%TO.P,J1,1,Pin_1*%
%TO.N,GND*%
X170350000Y-100300000D03*
D12*
%TO.P,J1,2,Pin_2*%
%TO.N,VIN*%
X170350000Y-107500000D03*
%TD*%
D13*
%TO.P,H2,1*%
%TO.N,N/C*%
X165339531Y-67939531D03*
%TD*%
D10*
%TO.P,J3,*%
%TO.N,*%
X122500000Y-139000000D03*
X109000000Y-139000000D03*
D11*
%TO.P,J3,1,Pin_1*%
%TO.N,Net-(D3-A)*%
X112150000Y-133000000D03*
D12*
%TO.P,J3,2,Pin_2*%
%TO.N,VIN*%
X119350000Y-133000000D03*
%TD*%
D13*
%TO.P,H4,1*%
%TO.N,N/C*%
X90160000Y-119260000D03*
%TD*%
D21*
%TO.N,GPIO11*%
X126250000Y-67750000D03*
X126250000Y-63500000D03*
%TO.N,GPIO13*%
X168250000Y-93750000D03*
X172750000Y-71000000D03*
X169000000Y-89750000D03*
X158277465Y-66222535D03*
%TO.N,GPIO21*%
X110250000Y-68250000D03*
X110250000Y-63500000D03*
%TO.N,Net-(D2-A)*%
X88800000Y-95000000D03*
X90300000Y-95000002D03*
X87300001Y-95000000D03*
X87300002Y-98000000D03*
X90300000Y-96500000D03*
X88800000Y-98000000D03*
X88800000Y-96500000D03*
X90300000Y-98000000D03*
X87300001Y-96500000D03*
%TO.N,Net-(D3-A)*%
X109756428Y-124020710D03*
X111256427Y-121020711D03*
X112756428Y-122520712D03*
X109756428Y-121020712D03*
X109756428Y-122520710D03*
X112756428Y-124020712D03*
X112756429Y-121020712D03*
X111256428Y-124020712D03*
X111256428Y-122520710D03*
%TO.N,Net-(D4-A)*%
X130469300Y-123787718D03*
X128840000Y-125300000D03*
X139393295Y-123759064D03*
X130469300Y-122287718D03*
X131969300Y-122287718D03*
X137893295Y-123759064D03*
X137893295Y-122259064D03*
X137893295Y-125259064D03*
X128840000Y-122300000D03*
X136393295Y-125259064D03*
X128840000Y-123800000D03*
X139393295Y-125259063D03*
X139393295Y-122259064D03*
X131969299Y-123787718D03*
X136393295Y-123759064D03*
X136393296Y-122259064D03*
X130469300Y-125287718D03*
X131969300Y-125287718D03*
%TO.N,Net-(D5-A)*%
X158348409Y-118960774D03*
X156280000Y-128175534D03*
X158348409Y-121082095D03*
X155166428Y-120021434D03*
X157780000Y-126675534D03*
X157780000Y-129675534D03*
X157287749Y-122142755D03*
X156280000Y-129675534D03*
X159409069Y-120021434D03*
X154780000Y-129675534D03*
X156280000Y-126675534D03*
X156227089Y-118960773D03*
X154780000Y-128175534D03*
X157287749Y-117900114D03*
X157780000Y-128175534D03*
X156227089Y-121082095D03*
X157287749Y-120021434D03*
X154780000Y-126675534D03*
%TO.N,+5V*%
X167750000Y-89000000D03*
X167250000Y-93250000D03*
X168750000Y-72500000D03*
X157500000Y-67000000D03*
%TO.N,VIN*%
X166000000Y-87000000D03*
X169000000Y-85500000D03*
X142250000Y-63500000D03*
X167525000Y-85550000D03*
X124750000Y-66500000D03*
X139390000Y-68450000D03*
%TO.N,Net-(Q1-G)*%
X144500000Y-111500000D03*
X136000000Y-66115000D03*
X140000000Y-93500000D03*
X136000000Y-71750000D03*
X152500000Y-131250000D03*
X152500000Y-119500000D03*
X114400000Y-73400000D03*
%TO.N,Net-(Q3-G)*%
X127250000Y-120000000D03*
X127250000Y-101250000D03*
X112800000Y-73000000D03*
X134870000Y-119750000D03*
X134250000Y-71750000D03*
X134500000Y-69500000D03*
%TO.N,Net-(Q7-G)*%
X92750000Y-74250000D03*
X119855000Y-69750000D03*
%TO.N,Net-(Q6-G)*%
X122500000Y-65750000D03*
X122500000Y-70750000D03*
X109250000Y-73000000D03*
X109250000Y-101000000D03*
%TO.N,BATT-*%
X165750000Y-98500000D03*
X164250000Y-101750000D03*
X159000000Y-98250000D03*
X162250000Y-95250000D03*
X165750000Y-100250000D03*
X162250000Y-101750000D03*
X159250000Y-100000000D03*
X160500000Y-95250000D03*
X165750000Y-101750000D03*
X165750000Y-95250000D03*
X165750000Y-96750000D03*
X159500000Y-96750000D03*
X160250000Y-101750000D03*
X164000000Y-95250000D03*
%TD*%
D22*
%TO.N,Net-(Q1-G)*%
X114400000Y-73400000D02*
X114669042Y-73669042D01*
X114669042Y-78669042D02*
X129500000Y-93500000D01*
X114669042Y-73669042D02*
X114669042Y-78669042D01*
X129500000Y-93500000D02*
X140000000Y-93500000D01*
%TO.N,Net-(Q3-G)*%
X113000000Y-73200000D02*
X113000000Y-79000000D01*
X127250000Y-93250000D02*
X127250000Y-101250000D01*
X112800000Y-73000000D02*
X113000000Y-73200000D01*
X113000000Y-79000000D02*
X127250000Y-93250000D01*
D23*
%TO.N,GPIO11*%
X126250000Y-67750000D02*
X126250000Y-63500000D01*
%TO.N,GPIO13*%
X162750000Y-71000000D02*
X162789531Y-71039531D01*
X158277465Y-66222535D02*
X158277465Y-66527465D01*
X168750000Y-89750000D02*
X169000000Y-89750000D01*
X172710469Y-71039531D02*
X172750000Y-71000000D01*
X158277465Y-66527465D02*
X162750000Y-71000000D01*
X168316674Y-90183326D02*
X168750000Y-89750000D01*
X168316674Y-93683326D02*
X168316674Y-90183326D01*
X162789531Y-71039531D02*
X172710469Y-71039531D01*
X168250000Y-93750000D02*
X168316674Y-93683326D01*
%TO.N,GPIO21*%
X110250000Y-68250000D02*
X110250000Y-63500000D01*
D24*
%TO.N,+5V*%
X167250000Y-89500000D02*
X167750000Y-89000000D01*
X167250000Y-93250000D02*
X167250000Y-89500000D01*
D25*
X168250000Y-72000000D02*
X168750000Y-72500000D01*
X157500000Y-67000000D02*
X162500000Y-72000000D01*
X162500000Y-72000000D02*
X168250000Y-72000000D01*
D22*
%TO.N,Net-(Q1-G)*%
X144500000Y-111500000D02*
X152500000Y-119500000D01*
X152500000Y-119500000D02*
X152500000Y-131250000D01*
X136000000Y-66115000D02*
X136000000Y-71750000D01*
%TO.N,Net-(Q3-G)*%
X127750000Y-120500000D02*
X127250000Y-120000000D01*
X134120000Y-120500000D02*
X127750000Y-120500000D01*
X134870000Y-119750000D02*
X134120000Y-120500000D01*
X134500000Y-69500000D02*
X134500000Y-71500000D01*
X134500000Y-71500000D02*
X134250000Y-71750000D01*
%TO.N,Net-(Q7-G)*%
X119855000Y-69750000D02*
X119355000Y-70250000D01*
X96750000Y-70250000D02*
X92750000Y-74250000D01*
X119355000Y-70250000D02*
X96750000Y-70250000D01*
%TO.N,Net-(Q6-G)*%
X109250000Y-73000000D02*
X109250000Y-101000000D01*
X122500000Y-65750000D02*
X122500000Y-70750000D01*
%TD*%
%TA.AperFunction,Conductor*%
%TO.N,Net-(D2-A)*%
G36*
X91272764Y-92619685D02*
G01*
X91318519Y-92672489D01*
X91329725Y-92724274D01*
X91278309Y-115981631D01*
X91258476Y-116048627D01*
X91205571Y-116094265D01*
X91136391Y-116104056D01*
X91114716Y-116098866D01*
X91044276Y-116075132D01*
X90694744Y-115998194D01*
X90338949Y-115959500D01*
X90338948Y-115959500D01*
X89981052Y-115959500D01*
X89981050Y-115959500D01*
X89625255Y-115998194D01*
X89275726Y-116075131D01*
X89019970Y-116161306D01*
X88936565Y-116189409D01*
X88936562Y-116189410D01*
X88936563Y-116189410D01*
X88936552Y-116189414D01*
X88611755Y-116339680D01*
X88611751Y-116339682D01*
X88383367Y-116477096D01*
X88305081Y-116524200D01*
X88216768Y-116591333D01*
X88020172Y-116740781D01*
X88020163Y-116740789D01*
X87760331Y-116986914D01*
X87528641Y-117259680D01*
X87528634Y-117259690D01*
X87327790Y-117555913D01*
X87327784Y-117555922D01*
X87160151Y-117872111D01*
X87160142Y-117872129D01*
X87027674Y-118204600D01*
X87027672Y-118204607D01*
X86931932Y-118549434D01*
X86931926Y-118549460D01*
X86874029Y-118902614D01*
X86874028Y-118902631D01*
X86854652Y-119259997D01*
X86854652Y-119260002D01*
X86874028Y-119617368D01*
X86874029Y-119617385D01*
X86931926Y-119970539D01*
X86931932Y-119970565D01*
X87027672Y-120315392D01*
X87027674Y-120315399D01*
X87160142Y-120647870D01*
X87160151Y-120647888D01*
X87327784Y-120964077D01*
X87327790Y-120964086D01*
X87528634Y-121260309D01*
X87528641Y-121260319D01*
X87760331Y-121533085D01*
X87760332Y-121533086D01*
X88020163Y-121779211D01*
X88305081Y-121995800D01*
X88611747Y-122180315D01*
X88611749Y-122180316D01*
X88611751Y-122180317D01*
X88611755Y-122180319D01*
X88936552Y-122330585D01*
X88936565Y-122330591D01*
X89275726Y-122444868D01*
X89625254Y-122521805D01*
X89981052Y-122560500D01*
X89981058Y-122560500D01*
X90338942Y-122560500D01*
X90338948Y-122560500D01*
X90694746Y-122521805D01*
X91044274Y-122444868D01*
X91100210Y-122426020D01*
X91170022Y-122423268D01*
X91230243Y-122458697D01*
X91261749Y-122521060D01*
X91263802Y-122543803D01*
X91250077Y-128752397D01*
X91231533Y-128817353D01*
X90500000Y-129999999D01*
X90500000Y-140475500D01*
X90480315Y-140542539D01*
X90427511Y-140588294D01*
X90376000Y-140599500D01*
X84481360Y-140599500D01*
X84414321Y-140579815D01*
X84368566Y-140527011D01*
X84358622Y-140457853D01*
X84387647Y-140394297D01*
X84407048Y-140376234D01*
X84432012Y-140357546D01*
X84518262Y-140242331D01*
X84568557Y-140107483D01*
X84574966Y-140047873D01*
X84574965Y-137952128D01*
X84568557Y-137892517D01*
X84518262Y-137757669D01*
X84518261Y-137757668D01*
X84518259Y-137757664D01*
X84432013Y-137642455D01*
X84432010Y-137642452D01*
X84316801Y-137556206D01*
X84316794Y-137556202D01*
X84181948Y-137505908D01*
X84181949Y-137505908D01*
X84122349Y-137499501D01*
X84122347Y-137499500D01*
X84122339Y-137499500D01*
X84122330Y-137499500D01*
X83126595Y-137499500D01*
X83126589Y-137499501D01*
X83066982Y-137505908D01*
X82932137Y-137556202D01*
X82932130Y-137556206D01*
X82816921Y-137642452D01*
X82816918Y-137642455D01*
X82730672Y-137757664D01*
X82730668Y-137757671D01*
X82680374Y-137892517D01*
X82673967Y-137952116D01*
X82673967Y-137952123D01*
X82673966Y-137952135D01*
X82673966Y-140047870D01*
X82673967Y-140047876D01*
X82680374Y-140107483D01*
X82730668Y-140242328D01*
X82730670Y-140242331D01*
X82752035Y-140270871D01*
X82776452Y-140336335D01*
X82761600Y-140404608D01*
X82712195Y-140454014D01*
X82643922Y-140468866D01*
X82625930Y-140466243D01*
X82538085Y-140446768D01*
X82532865Y-140445370D01*
X82313593Y-140376234D01*
X82163663Y-140328961D01*
X82158578Y-140327110D01*
X81913889Y-140225757D01*
X81800921Y-140178964D01*
X81796031Y-140176684D01*
X81452657Y-139997934D01*
X81447971Y-139995228D01*
X81121473Y-139787227D01*
X81117040Y-139784123D01*
X80809922Y-139548463D01*
X80805777Y-139544984D01*
X80520369Y-139283456D01*
X80516543Y-139279630D01*
X80255015Y-138994222D01*
X80251536Y-138990077D01*
X80015876Y-138682959D01*
X80012772Y-138678526D01*
X79804771Y-138352028D01*
X79802065Y-138347342D01*
X79623310Y-138003958D01*
X79621039Y-137999088D01*
X79472889Y-137641421D01*
X79471038Y-137636336D01*
X79445773Y-137556206D01*
X79354625Y-137267119D01*
X79353231Y-137261914D01*
X79269443Y-136883969D01*
X79268506Y-136878659D01*
X79217973Y-136494826D01*
X79217504Y-136489474D01*
X79200560Y-136101409D01*
X79200502Y-136098617D01*
X79263002Y-92723821D01*
X79282783Y-92656810D01*
X79335653Y-92611132D01*
X79387002Y-92600000D01*
X91205725Y-92600000D01*
X91272764Y-92619685D01*
G37*
%TD.AperFunction*%
%TD*%
%TA.AperFunction,Conductor*%
%TO.N,BATT-*%
G36*
X166731255Y-94518745D02*
G01*
X166750000Y-94564000D01*
X166750000Y-102436000D01*
X166731255Y-102481255D01*
X166686000Y-102500000D01*
X160024047Y-102500000D01*
X159981903Y-102484165D01*
X156021856Y-99019124D01*
X156000142Y-98975216D01*
X156000000Y-98970959D01*
X156000000Y-98064000D01*
X156018745Y-98018745D01*
X156064000Y-98000000D01*
X158249999Y-98000000D01*
X158250000Y-98000000D01*
X159982310Y-94535378D01*
X160019315Y-94503284D01*
X160039554Y-94500000D01*
X166686000Y-94500000D01*
X166731255Y-94518745D01*
G37*
%TD.AperFunction*%
%TD*%
%TA.AperFunction,Conductor*%
%TO.N,Net-(D5-A)*%
G36*
X163140877Y-116577270D02*
G01*
X163140878Y-116577271D01*
X163206723Y-116600644D01*
X163249478Y-116655905D01*
X163255570Y-116725508D01*
X163223064Y-116787356D01*
X163219275Y-116791103D01*
X162970331Y-117026914D01*
X162738641Y-117299680D01*
X162738634Y-117299690D01*
X162537790Y-117595913D01*
X162537784Y-117595922D01*
X162370151Y-117912111D01*
X162370142Y-117912129D01*
X162237674Y-118244600D01*
X162237672Y-118244607D01*
X162141932Y-118589434D01*
X162141926Y-118589460D01*
X162084029Y-118942614D01*
X162084028Y-118942631D01*
X162064652Y-119299997D01*
X162064652Y-119300002D01*
X162084028Y-119657368D01*
X162084029Y-119657385D01*
X162141926Y-120010539D01*
X162141932Y-120010565D01*
X162237672Y-120355392D01*
X162237674Y-120355399D01*
X162370142Y-120687870D01*
X162370151Y-120687888D01*
X162537784Y-121004077D01*
X162537790Y-121004086D01*
X162738634Y-121300309D01*
X162738641Y-121300319D01*
X162970331Y-121573085D01*
X162970332Y-121573086D01*
X163230163Y-121819211D01*
X163515081Y-122035800D01*
X163821747Y-122220315D01*
X163821749Y-122220316D01*
X163821751Y-122220317D01*
X163821755Y-122220319D01*
X164146552Y-122370585D01*
X164146565Y-122370591D01*
X164485726Y-122484868D01*
X164835254Y-122561805D01*
X165191052Y-122600500D01*
X165191058Y-122600500D01*
X165548942Y-122600500D01*
X165548948Y-122600500D01*
X165904746Y-122561805D01*
X166116537Y-122515186D01*
X166186238Y-122519999D01*
X166242275Y-122561732D01*
X166266853Y-122627136D01*
X166267190Y-122635925D01*
X166311503Y-137807664D01*
X166319243Y-140457853D01*
X166319294Y-140475138D01*
X166299806Y-140542234D01*
X166247136Y-140588143D01*
X166195295Y-140599500D01*
X160486037Y-140599500D01*
X160418998Y-140579815D01*
X160373243Y-140527011D01*
X160363299Y-140457853D01*
X160386771Y-140401189D01*
X160468259Y-140292335D01*
X160468258Y-140292335D01*
X160468262Y-140292331D01*
X160518557Y-140157483D01*
X160524966Y-140097873D01*
X160524965Y-138002128D01*
X160518557Y-137942517D01*
X160468262Y-137807669D01*
X160468261Y-137807668D01*
X160468259Y-137807664D01*
X160382013Y-137692455D01*
X160382010Y-137692452D01*
X160266801Y-137606206D01*
X160266794Y-137606202D01*
X160131948Y-137555908D01*
X160131949Y-137555908D01*
X160072349Y-137549501D01*
X160072347Y-137549500D01*
X160072339Y-137549500D01*
X160072330Y-137549500D01*
X159076595Y-137549500D01*
X159076589Y-137549501D01*
X159016982Y-137555908D01*
X158882137Y-137606202D01*
X158882130Y-137606206D01*
X158766921Y-137692452D01*
X158766918Y-137692455D01*
X158680672Y-137807664D01*
X158680668Y-137807671D01*
X158630374Y-137942517D01*
X158623967Y-138002116D01*
X158623967Y-138002123D01*
X158623966Y-138002135D01*
X158623966Y-140097870D01*
X158623967Y-140097876D01*
X158630374Y-140157483D01*
X158680668Y-140292328D01*
X158680672Y-140292335D01*
X158762161Y-140401189D01*
X158786579Y-140466653D01*
X158771728Y-140534926D01*
X158722323Y-140584332D01*
X158662895Y-140599500D01*
X153624000Y-140599500D01*
X153556961Y-140579815D01*
X153511206Y-140527011D01*
X153500000Y-140475500D01*
X153500000Y-120051362D01*
X153519685Y-119984323D01*
X153536319Y-119963681D01*
X155255400Y-118244600D01*
X157210798Y-116289201D01*
X157272119Y-116255718D01*
X157305352Y-116253075D01*
X163140877Y-116577270D01*
G37*
%TD.AperFunction*%
%TD*%
%TA.AperFunction,Conductor*%
%TO.N,Net-(D4-A)*%
G36*
X140627719Y-121499542D02*
G01*
X140694682Y-121519477D01*
X140740239Y-121572452D01*
X140751247Y-121622276D01*
X140799973Y-126397427D01*
X140799811Y-126402586D01*
X140500000Y-130499995D01*
X140500000Y-140475500D01*
X140480315Y-140542539D01*
X140427511Y-140588294D01*
X140376000Y-140599500D01*
X135356894Y-140599500D01*
X135289855Y-140579815D01*
X135244100Y-140527011D01*
X135234156Y-140457853D01*
X135263181Y-140394297D01*
X135282582Y-140376234D01*
X135307546Y-140357546D01*
X135393796Y-140242331D01*
X135444091Y-140107483D01*
X135450500Y-140047873D01*
X135450499Y-137952128D01*
X135444091Y-137892517D01*
X135393796Y-137757669D01*
X135393795Y-137757668D01*
X135393793Y-137757664D01*
X135307547Y-137642455D01*
X135307544Y-137642452D01*
X135192335Y-137556206D01*
X135192328Y-137556202D01*
X135057482Y-137505908D01*
X135057483Y-137505908D01*
X134997883Y-137499501D01*
X134997881Y-137499500D01*
X134997873Y-137499500D01*
X134997864Y-137499500D01*
X134002129Y-137499500D01*
X134002123Y-137499501D01*
X133942516Y-137505908D01*
X133807671Y-137556202D01*
X133807664Y-137556206D01*
X133692455Y-137642452D01*
X133692452Y-137642455D01*
X133606206Y-137757664D01*
X133606202Y-137757671D01*
X133555908Y-137892517D01*
X133549501Y-137952116D01*
X133549501Y-137952123D01*
X133549500Y-137952135D01*
X133549500Y-140047870D01*
X133549501Y-140047876D01*
X133555908Y-140107483D01*
X133606202Y-140242328D01*
X133606206Y-140242335D01*
X133692452Y-140357544D01*
X133692453Y-140357544D01*
X133692454Y-140357546D01*
X133717418Y-140376234D01*
X133759288Y-140432168D01*
X133764272Y-140501860D01*
X133730786Y-140563182D01*
X133669462Y-140596667D01*
X133643106Y-140599500D01*
X127502281Y-140599500D01*
X127435242Y-140579815D01*
X127389487Y-140527011D01*
X127378281Y-140475500D01*
X127378281Y-121574464D01*
X127397966Y-121507425D01*
X127450770Y-121461670D01*
X127502743Y-121450465D01*
X140627719Y-121499542D01*
G37*
%TD.AperFunction*%
%TD*%
%TA.AperFunction,Conductor*%
%TO.N,Net-(D3-A)*%
G36*
X115363039Y-120119685D02*
G01*
X115408794Y-120172489D01*
X115420000Y-120224000D01*
X115420000Y-140475500D01*
X115400315Y-140542539D01*
X115347511Y-140588294D01*
X115296000Y-140599500D01*
X109856894Y-140599500D01*
X109789855Y-140579815D01*
X109744100Y-140527011D01*
X109734156Y-140457853D01*
X109763181Y-140394297D01*
X109782582Y-140376234D01*
X109807546Y-140357546D01*
X109893796Y-140242331D01*
X109944091Y-140107483D01*
X109950500Y-140047873D01*
X109950499Y-137952128D01*
X109944091Y-137892517D01*
X109893796Y-137757669D01*
X109893795Y-137757668D01*
X109893793Y-137757664D01*
X109807547Y-137642455D01*
X109807544Y-137642452D01*
X109692335Y-137556206D01*
X109692328Y-137556202D01*
X109557482Y-137505908D01*
X109557483Y-137505908D01*
X109497883Y-137499501D01*
X109497881Y-137499500D01*
X109497873Y-137499500D01*
X109497864Y-137499500D01*
X108502129Y-137499500D01*
X108502123Y-137499501D01*
X108442516Y-137505908D01*
X108307671Y-137556202D01*
X108307664Y-137556206D01*
X108192455Y-137642452D01*
X108192452Y-137642455D01*
X108106206Y-137757664D01*
X108106202Y-137757671D01*
X108055908Y-137892517D01*
X108049501Y-137952116D01*
X108049501Y-137952123D01*
X108049500Y-137952135D01*
X108049500Y-140047870D01*
X108049501Y-140047876D01*
X108055908Y-140107483D01*
X108106202Y-140242328D01*
X108106206Y-140242335D01*
X108192452Y-140357544D01*
X108192453Y-140357544D01*
X108192454Y-140357546D01*
X108217418Y-140376234D01*
X108259288Y-140432168D01*
X108264272Y-140501860D01*
X108230786Y-140563182D01*
X108169462Y-140596667D01*
X108143106Y-140599500D01*
X103024000Y-140599500D01*
X102956961Y-140579815D01*
X102911206Y-140527011D01*
X102900000Y-140475500D01*
X102900000Y-120224000D01*
X102919685Y-120156961D01*
X102972489Y-120111206D01*
X103024000Y-120100000D01*
X115296000Y-120100000D01*
X115363039Y-120119685D01*
G37*
%TD.AperFunction*%
%TD*%
%TA.AperFunction,Conductor*%
%TO.N,VIN*%
G36*
X173590768Y-62217561D02*
G01*
X173593526Y-62217802D01*
X173979954Y-62268676D01*
X173982682Y-62269157D01*
X174363199Y-62353516D01*
X174365888Y-62354237D01*
X174737595Y-62471435D01*
X174740194Y-62472380D01*
X175100288Y-62621536D01*
X175102805Y-62622711D01*
X175448514Y-62802676D01*
X175450932Y-62804073D01*
X175564430Y-62876378D01*
X175779639Y-63013480D01*
X175781904Y-63015067D01*
X175908872Y-63112493D01*
X176091115Y-63252333D01*
X176093254Y-63254128D01*
X176380595Y-63517429D01*
X176382570Y-63519404D01*
X176645871Y-63806745D01*
X176647666Y-63808884D01*
X176830192Y-64046756D01*
X176882881Y-64115422D01*
X176884928Y-64118089D01*
X176886522Y-64120365D01*
X176958830Y-64233866D01*
X177095926Y-64449067D01*
X177097323Y-64451485D01*
X177277288Y-64797194D01*
X177278467Y-64799721D01*
X177361457Y-65000077D01*
X177427611Y-65159785D01*
X177428566Y-65162410D01*
X177545762Y-65534111D01*
X177546485Y-65536808D01*
X177630840Y-65917310D01*
X177631325Y-65920061D01*
X177682195Y-66306453D01*
X177682438Y-66309235D01*
X177699500Y-66699999D01*
X177699500Y-96695639D01*
X177680755Y-96740894D01*
X177635500Y-96759639D01*
X177590245Y-96740894D01*
X177581310Y-96729689D01*
X177556896Y-96690835D01*
X177548316Y-96669271D01*
X177546376Y-96659522D01*
X177538867Y-96621769D01*
X177494552Y-96555448D01*
X177428231Y-96511133D01*
X177428230Y-96511133D01*
X177380727Y-96501683D01*
X177359164Y-96493103D01*
X177249527Y-96424213D01*
X177249523Y-96424211D01*
X177079260Y-96364633D01*
X177079256Y-96364632D01*
X177079255Y-96364632D01*
X176972503Y-96352604D01*
X176944955Y-96349500D01*
X176944954Y-96349500D01*
X175755046Y-96349500D01*
X175755044Y-96349500D01*
X175699947Y-96355708D01*
X175620745Y-96364632D01*
X175620743Y-96364632D01*
X175620739Y-96364633D01*
X175450476Y-96424211D01*
X175450472Y-96424213D01*
X175340835Y-96493103D01*
X175319273Y-96501683D01*
X175271768Y-96511133D01*
X175271767Y-96511133D01*
X175205448Y-96555448D01*
X175161133Y-96621767D01*
X175161133Y-96621768D01*
X175151683Y-96669273D01*
X175143103Y-96690835D01*
X175074213Y-96800472D01*
X175074211Y-96800476D01*
X175014633Y-96970739D01*
X174994435Y-97149999D01*
X175014633Y-97329260D01*
X175067228Y-97479565D01*
X175074211Y-97499522D01*
X175074213Y-97499526D01*
X175074214Y-97499527D01*
X175143103Y-97609163D01*
X175151683Y-97630726D01*
X175161133Y-97678231D01*
X175161133Y-97678232D01*
X175183290Y-97711391D01*
X175205448Y-97744552D01*
X175271769Y-97788867D01*
X175307691Y-97796012D01*
X175319271Y-97798316D01*
X175340835Y-97806896D01*
X175450472Y-97875786D01*
X175450476Y-97875788D01*
X175450478Y-97875789D01*
X175620745Y-97935368D01*
X175755046Y-97950500D01*
X175755049Y-97950500D01*
X176944951Y-97950500D01*
X176944954Y-97950500D01*
X177079255Y-97935368D01*
X177249522Y-97875789D01*
X177359167Y-97806894D01*
X177380728Y-97798316D01*
X177382966Y-97797870D01*
X177428231Y-97788867D01*
X177494552Y-97744552D01*
X177538867Y-97678231D01*
X177548316Y-97630726D01*
X177556895Y-97609165D01*
X177581310Y-97570308D01*
X177621259Y-97541964D01*
X177669550Y-97550169D01*
X177697895Y-97590118D01*
X177699500Y-97604359D01*
X177699500Y-110195639D01*
X177680755Y-110240894D01*
X177635500Y-110259639D01*
X177590245Y-110240894D01*
X177581310Y-110229689D01*
X177556896Y-110190835D01*
X177548316Y-110169271D01*
X177546376Y-110159522D01*
X177538867Y-110121769D01*
X177494552Y-110055448D01*
X177428231Y-110011133D01*
X177428230Y-110011133D01*
X177380727Y-110001683D01*
X177359164Y-109993103D01*
X177249527Y-109924213D01*
X177249523Y-109924211D01*
X177079260Y-109864633D01*
X177079256Y-109864632D01*
X177079255Y-109864632D01*
X176972503Y-109852604D01*
X176944955Y-109849500D01*
X176944954Y-109849500D01*
X175755046Y-109849500D01*
X175755044Y-109849500D01*
X175699947Y-109855708D01*
X175620745Y-109864632D01*
X175620743Y-109864632D01*
X175620739Y-109864633D01*
X175450476Y-109924211D01*
X175450472Y-109924213D01*
X175340835Y-109993103D01*
X175319273Y-110001683D01*
X175271768Y-110011133D01*
X175271767Y-110011133D01*
X175205448Y-110055448D01*
X175161133Y-110121767D01*
X175161133Y-110121768D01*
X175151683Y-110169273D01*
X175143103Y-110190835D01*
X175074213Y-110300472D01*
X175074211Y-110300476D01*
X175014633Y-110470739D01*
X175014632Y-110470743D01*
X175014632Y-110470745D01*
X174994435Y-110650000D01*
X175011279Y-110799500D01*
X175014633Y-110829260D01*
X175018465Y-110840210D01*
X175074211Y-110999522D01*
X175074213Y-110999526D01*
X175074214Y-110999527D01*
X175143103Y-111109163D01*
X175151683Y-111130726D01*
X175161133Y-111178231D01*
X175161133Y-111178232D01*
X175183290Y-111211391D01*
X175205448Y-111244552D01*
X175271769Y-111288867D01*
X175307691Y-111296012D01*
X175319271Y-111298316D01*
X175340835Y-111306896D01*
X175450472Y-111375786D01*
X175450476Y-111375788D01*
X175450478Y-111375789D01*
X175620745Y-111435368D01*
X175755046Y-111450500D01*
X175755049Y-111450500D01*
X176944951Y-111450500D01*
X176944954Y-111450500D01*
X177079255Y-111435368D01*
X177249522Y-111375789D01*
X177359167Y-111306894D01*
X177380728Y-111298316D01*
X177382966Y-111297870D01*
X177428231Y-111288867D01*
X177494552Y-111244552D01*
X177538867Y-111178231D01*
X177548316Y-111130726D01*
X177556895Y-111109165D01*
X177581310Y-111070308D01*
X177621259Y-111041964D01*
X177669550Y-111050169D01*
X177697895Y-111090118D01*
X177699500Y-111104359D01*
X177699500Y-136100001D01*
X177682438Y-136490764D01*
X177682195Y-136493546D01*
X177631325Y-136879938D01*
X177630840Y-136882689D01*
X177546485Y-137263191D01*
X177545762Y-137265888D01*
X177428566Y-137637589D01*
X177427611Y-137640214D01*
X177278469Y-138000274D01*
X177277288Y-138002805D01*
X177097323Y-138348514D01*
X177095926Y-138350932D01*
X176886530Y-138679622D01*
X176884928Y-138681910D01*
X176647666Y-138991115D01*
X176645871Y-138993254D01*
X176382570Y-139280595D01*
X176380595Y-139282570D01*
X176093254Y-139545871D01*
X176091115Y-139547666D01*
X175781910Y-139784928D01*
X175779622Y-139786530D01*
X175450932Y-139995926D01*
X175448514Y-139997323D01*
X175102805Y-140177288D01*
X175100274Y-140178469D01*
X174740214Y-140327611D01*
X174737589Y-140328566D01*
X174365888Y-140445762D01*
X174363191Y-140446485D01*
X173982689Y-140530840D01*
X173979938Y-140531325D01*
X173593546Y-140582195D01*
X173590764Y-140582438D01*
X173219757Y-140598637D01*
X173200000Y-140599500D01*
X166880717Y-140599500D01*
X166835462Y-140580755D01*
X166816717Y-140535500D01*
X166817342Y-140526577D01*
X166824791Y-140473669D01*
X166824791Y-140473667D01*
X166824792Y-140473662D01*
X166822372Y-139644954D01*
X172273966Y-139644954D01*
X172283464Y-139729255D01*
X172289099Y-139779260D01*
X172331183Y-139899527D01*
X172348677Y-139949522D01*
X172348679Y-139949526D01*
X172348680Y-139949527D01*
X172417569Y-140059163D01*
X172426149Y-140080726D01*
X172435599Y-140128231D01*
X172435599Y-140128232D01*
X172457756Y-140161391D01*
X172479914Y-140194552D01*
X172546235Y-140238867D01*
X172582157Y-140246012D01*
X172593737Y-140248316D01*
X172615301Y-140256896D01*
X172724938Y-140325786D01*
X172724942Y-140325788D01*
X172724944Y-140325789D01*
X172810036Y-140355564D01*
X172875497Y-140378470D01*
X172895211Y-140385368D01*
X173074466Y-140405565D01*
X173253721Y-140385368D01*
X173423988Y-140325789D01*
X173533633Y-140256894D01*
X173555194Y-140248316D01*
X173557432Y-140247870D01*
X173602697Y-140238867D01*
X173669018Y-140194552D01*
X173713333Y-140128231D01*
X173722782Y-140080726D01*
X173731361Y-140059165D01*
X173800255Y-139949522D01*
X173859834Y-139779255D01*
X173874966Y-139644954D01*
X173874966Y-138455046D01*
X173859834Y-138320745D01*
X173800255Y-138150478D01*
X173800254Y-138150476D01*
X173800252Y-138150472D01*
X173731362Y-138040835D01*
X173722782Y-138019271D01*
X173717125Y-137990835D01*
X173713333Y-137971769D01*
X173669018Y-137905448D01*
X173602697Y-137861133D01*
X173555193Y-137851683D01*
X173533630Y-137843103D01*
X173423993Y-137774213D01*
X173423989Y-137774211D01*
X173253726Y-137714633D01*
X173253722Y-137714632D01*
X173253721Y-137714632D01*
X173074466Y-137694435D01*
X172895211Y-137714632D01*
X172895209Y-137714632D01*
X172895205Y-137714633D01*
X172724942Y-137774211D01*
X172724938Y-137774213D01*
X172615301Y-137843103D01*
X172593739Y-137851683D01*
X172546234Y-137861133D01*
X172546233Y-137861133D01*
X172479914Y-137905448D01*
X172435599Y-137971767D01*
X172435599Y-137971768D01*
X172426149Y-138019273D01*
X172417569Y-138040835D01*
X172348679Y-138150472D01*
X172348677Y-138150476D01*
X172289099Y-138320739D01*
X172289098Y-138320743D01*
X172289098Y-138320745D01*
X172273966Y-138455046D01*
X172273966Y-139644954D01*
X166822372Y-139644954D01*
X166772662Y-122625499D01*
X166771982Y-122607768D01*
X166770975Y-122589833D01*
X166740045Y-122449316D01*
X166715467Y-122383912D01*
X166715465Y-122383907D01*
X166715462Y-122383901D01*
X166646200Y-122257801D01*
X166646197Y-122257797D01*
X166548172Y-122160255D01*
X166529315Y-122115047D01*
X166547949Y-122069746D01*
X166564586Y-122057700D01*
X166872793Y-121902913D01*
X167164811Y-121710849D01*
X167432558Y-121486183D01*
X167672412Y-121231953D01*
X167881130Y-120951596D01*
X168055889Y-120648904D01*
X168194326Y-120327971D01*
X168294569Y-119993136D01*
X168355262Y-119648927D01*
X168375585Y-119300000D01*
X168355262Y-118951073D01*
X168294569Y-118606864D01*
X168194326Y-118272029D01*
X168055889Y-117951096D01*
X167881130Y-117648404D01*
X167672412Y-117368047D01*
X167432558Y-117113817D01*
X167432556Y-117113815D01*
X167432553Y-117113812D01*
X167164818Y-116889156D01*
X167164813Y-116889153D01*
X167164811Y-116889151D01*
X166872793Y-116697087D01*
X166560451Y-116540223D01*
X166560446Y-116540221D01*
X166232015Y-116420682D01*
X166232011Y-116420681D01*
X165891914Y-116340077D01*
X165891910Y-116340076D01*
X165891908Y-116340076D01*
X165697167Y-116317314D01*
X165544759Y-116299500D01*
X165195241Y-116299500D01*
X165070266Y-116314107D01*
X164848091Y-116340076D01*
X164848087Y-116340076D01*
X164848086Y-116340077D01*
X164820648Y-116346580D01*
X164507984Y-116420682D01*
X164179553Y-116540221D01*
X163867202Y-116697089D01*
X163867199Y-116697091D01*
X163855896Y-116704525D01*
X163807785Y-116713729D01*
X163767257Y-116686218D01*
X163756974Y-116656631D01*
X163753053Y-116611835D01*
X163753053Y-116611830D01*
X163720239Y-116471746D01*
X163649286Y-116346577D01*
X163611606Y-116297875D01*
X163609385Y-116294081D01*
X163606531Y-116291316D01*
X163606531Y-116291315D01*
X163503188Y-116191207D01*
X163375827Y-116124268D01*
X163309981Y-116100894D01*
X163309978Y-116100893D01*
X163309976Y-116100892D01*
X163309973Y-116100891D01*
X163209488Y-116080700D01*
X163168917Y-116072548D01*
X163168914Y-116072547D01*
X163168903Y-116072546D01*
X157316369Y-115747408D01*
X157316368Y-115747408D01*
X157312106Y-115747458D01*
X157282272Y-115747814D01*
X157232043Y-115751809D01*
X157232036Y-115751810D01*
X157164678Y-115761767D01*
X157164671Y-115761769D01*
X157029866Y-115812047D01*
X157029861Y-115812049D01*
X156968542Y-115845532D01*
X156968539Y-115845533D01*
X156853354Y-115931759D01*
X153307194Y-119477919D01*
X153261939Y-119496664D01*
X153216684Y-119477919D01*
X153198406Y-119440378D01*
X153186243Y-119340210D01*
X153185140Y-119331128D01*
X153124818Y-119172070D01*
X153068314Y-119090210D01*
X153028185Y-119032073D01*
X153028183Y-119032071D01*
X153028183Y-119032070D01*
X152900852Y-118919266D01*
X152750222Y-118840208D01*
X152585062Y-118799500D01*
X152585056Y-118799500D01*
X152414944Y-118799500D01*
X152414939Y-118799500D01*
X152410632Y-118800562D01*
X152362207Y-118793187D01*
X152350067Y-118783675D01*
X146820076Y-113253683D01*
X170495740Y-113253683D01*
X170505755Y-113438408D01*
X170505755Y-113438411D01*
X170555245Y-113616656D01*
X170555246Y-113616659D01*
X170641900Y-113780104D01*
X170641902Y-113780106D01*
X170641903Y-113780108D01*
X170761664Y-113921101D01*
X170908932Y-114033052D01*
X170908934Y-114033052D01*
X170908936Y-114033054D01*
X171076833Y-114110732D01*
X171257503Y-114150500D01*
X172696108Y-114150500D01*
X172696113Y-114150500D01*
X172833910Y-114135514D01*
X173009221Y-114076444D01*
X173167736Y-113981070D01*
X173302041Y-113853849D01*
X173405858Y-113700730D01*
X173474331Y-113528875D01*
X173504260Y-113346317D01*
X173494245Y-113161593D01*
X173444754Y-112983341D01*
X173358100Y-112819896D01*
X173238337Y-112678900D01*
X173238336Y-112678899D01*
X173238335Y-112678898D01*
X173091067Y-112566947D01*
X173091064Y-112566946D01*
X172923167Y-112489268D01*
X172742497Y-112449500D01*
X171303887Y-112449500D01*
X171284736Y-112451582D01*
X171166093Y-112464485D01*
X171166089Y-112464486D01*
X170990777Y-112523556D01*
X170832263Y-112618929D01*
X170832261Y-112618931D01*
X170697958Y-112746151D01*
X170594143Y-112899267D01*
X170525668Y-113071128D01*
X170495740Y-113253683D01*
X146820076Y-113253683D01*
X145212601Y-111646208D01*
X145193856Y-111600953D01*
X145194323Y-111593238D01*
X145205645Y-111500001D01*
X145205645Y-111499996D01*
X145185140Y-111331129D01*
X145169112Y-111288867D01*
X145124818Y-111172070D01*
X145096281Y-111130727D01*
X145028185Y-111032073D01*
X145028183Y-111032071D01*
X144991448Y-110999527D01*
X144900852Y-110919266D01*
X144750222Y-110840208D01*
X144585062Y-110799500D01*
X144585056Y-110799500D01*
X144414944Y-110799500D01*
X144414937Y-110799500D01*
X144249777Y-110840208D01*
X144099148Y-110919266D01*
X143971816Y-111032071D01*
X143971814Y-111032073D01*
X143875182Y-111172068D01*
X143814859Y-111331129D01*
X143794355Y-111499996D01*
X143794355Y-111500003D01*
X143814859Y-111668870D01*
X143875182Y-111827931D01*
X143971814Y-111967926D01*
X143971816Y-111967928D01*
X143971817Y-111967929D01*
X144099148Y-112080734D01*
X144249775Y-112159790D01*
X144249777Y-112159791D01*
X144414937Y-112200499D01*
X144414942Y-112200499D01*
X144414944Y-112200500D01*
X144414946Y-112200500D01*
X144585054Y-112200500D01*
X144585056Y-112200500D01*
X144589354Y-112199440D01*
X144637780Y-112206806D01*
X144649931Y-112216324D01*
X151787397Y-119353789D01*
X151806142Y-119399044D01*
X151805675Y-119406758D01*
X151794355Y-119499996D01*
X151794355Y-119500003D01*
X151814859Y-119668870D01*
X151875182Y-119827931D01*
X151971814Y-119967926D01*
X151971816Y-119967928D01*
X151971817Y-119967929D01*
X152048089Y-120035500D01*
X152077940Y-120061945D01*
X152099383Y-120105986D01*
X152099500Y-120109850D01*
X152099500Y-130640149D01*
X152080755Y-130685404D01*
X152077940Y-130688054D01*
X151971816Y-130782071D01*
X151971814Y-130782073D01*
X151875182Y-130922068D01*
X151814859Y-131081129D01*
X151794355Y-131249996D01*
X151794355Y-131250003D01*
X151814859Y-131418870D01*
X151875182Y-131577931D01*
X151971814Y-131717926D01*
X151971816Y-131717928D01*
X151971817Y-131717929D01*
X152099148Y-131830734D01*
X152207214Y-131887452D01*
X152249777Y-131909791D01*
X152414937Y-131950499D01*
X152414942Y-131950499D01*
X152414944Y-131950500D01*
X152414946Y-131950500D01*
X152585054Y-131950500D01*
X152585056Y-131950500D01*
X152585058Y-131950499D01*
X152585062Y-131950499D01*
X152750222Y-131909791D01*
X152750222Y-131909790D01*
X152750225Y-131909790D01*
X152900758Y-131830782D01*
X152949540Y-131826350D01*
X152987169Y-131857709D01*
X152994500Y-131887452D01*
X152994500Y-140475513D01*
X153000215Y-140528658D01*
X152986416Y-140575657D01*
X152943424Y-140599133D01*
X152936582Y-140599500D01*
X141061532Y-140599500D01*
X141016277Y-140580755D01*
X140997532Y-140535500D01*
X140998183Y-140526392D01*
X141005500Y-140475497D01*
X141005500Y-139594955D01*
X147199500Y-139594955D01*
X147214633Y-139729260D01*
X147234409Y-139785775D01*
X147274211Y-139899522D01*
X147274213Y-139899526D01*
X147274214Y-139899527D01*
X147343103Y-140009163D01*
X147351683Y-140030726D01*
X147361133Y-140078231D01*
X147361133Y-140078232D01*
X147383290Y-140111391D01*
X147405448Y-140144552D01*
X147471769Y-140188867D01*
X147507691Y-140196012D01*
X147519271Y-140198316D01*
X147540835Y-140206896D01*
X147650472Y-140275786D01*
X147650476Y-140275788D01*
X147650478Y-140275789D01*
X147743412Y-140308308D01*
X147800108Y-140328147D01*
X147820745Y-140335368D01*
X148000000Y-140355565D01*
X148179255Y-140335368D01*
X148349522Y-140275789D01*
X148459167Y-140206894D01*
X148480728Y-140198316D01*
X148482966Y-140197870D01*
X148528231Y-140188867D01*
X148594552Y-140144552D01*
X148638867Y-140078231D01*
X148648316Y-140030726D01*
X148656895Y-140009165D01*
X148725789Y-139899522D01*
X148785368Y-139729255D01*
X148800500Y-139594954D01*
X148800500Y-138405046D01*
X148785368Y-138270745D01*
X148725789Y-138100478D01*
X148725788Y-138100476D01*
X148725786Y-138100472D01*
X148656896Y-137990835D01*
X148648316Y-137969271D01*
X148646376Y-137959522D01*
X148638867Y-137921769D01*
X148594552Y-137855448D01*
X148528231Y-137811133D01*
X148480727Y-137801683D01*
X148459164Y-137793103D01*
X148349527Y-137724213D01*
X148349523Y-137724211D01*
X148179260Y-137664633D01*
X148179256Y-137664632D01*
X148179255Y-137664632D01*
X148000000Y-137644435D01*
X147999999Y-137644435D01*
X147953742Y-137649646D01*
X147820745Y-137664632D01*
X147820743Y-137664632D01*
X147820739Y-137664633D01*
X147650476Y-137724211D01*
X147650472Y-137724213D01*
X147540835Y-137793103D01*
X147519273Y-137801683D01*
X147471768Y-137811133D01*
X147471767Y-137811133D01*
X147405448Y-137855448D01*
X147361133Y-137921767D01*
X147361133Y-137921768D01*
X147351683Y-137969273D01*
X147343103Y-137990835D01*
X147274213Y-138100472D01*
X147274211Y-138100476D01*
X147214633Y-138270739D01*
X147214632Y-138270743D01*
X147214632Y-138270745D01*
X147205870Y-138348514D01*
X147199500Y-138405044D01*
X147199500Y-139594955D01*
X141005500Y-139594955D01*
X141005500Y-130519625D01*
X141005584Y-130517309D01*
X141304732Y-126428975D01*
X141305554Y-126402783D01*
X141256721Y-121617118D01*
X141244843Y-121513222D01*
X141233835Y-121463398D01*
X141200841Y-121364183D01*
X141123507Y-121242852D01*
X141123506Y-121242850D01*
X141123502Y-121242846D01*
X141077953Y-121189880D01*
X140969567Y-121095250D01*
X140838920Y-121034992D01*
X140838909Y-121034988D01*
X140771956Y-121015056D01*
X140771949Y-121015054D01*
X140629616Y-120994047D01*
X140629609Y-120994046D01*
X140629609Y-120994045D01*
X134350422Y-120970566D01*
X134305238Y-120951652D01*
X134286662Y-120906328D01*
X134305577Y-120861143D01*
X134313035Y-120854796D01*
X134325842Y-120845491D01*
X134334386Y-120840255D01*
X134358342Y-120828050D01*
X134377258Y-120809132D01*
X134377264Y-120809128D01*
X134380906Y-120805485D01*
X134380909Y-120805484D01*
X134720067Y-120466323D01*
X134765321Y-120447579D01*
X134780638Y-120449439D01*
X134784783Y-120450460D01*
X134784944Y-120450500D01*
X134784945Y-120450500D01*
X134955054Y-120450500D01*
X134955056Y-120450500D01*
X134955058Y-120450499D01*
X134955062Y-120450499D01*
X135120222Y-120409791D01*
X135120222Y-120409790D01*
X135120225Y-120409790D01*
X135270852Y-120330734D01*
X135398183Y-120217929D01*
X135494818Y-120077930D01*
X135555140Y-119918872D01*
X135566182Y-119827931D01*
X135575645Y-119750003D01*
X135575645Y-119749996D01*
X135555140Y-119581129D01*
X135524373Y-119500003D01*
X135494818Y-119422070D01*
X135484249Y-119406758D01*
X135398185Y-119282073D01*
X135398183Y-119282071D01*
X135373269Y-119259999D01*
X135270852Y-119169266D01*
X135120222Y-119090208D01*
X134955062Y-119049500D01*
X134955056Y-119049500D01*
X134784944Y-119049500D01*
X134784937Y-119049500D01*
X134619777Y-119090208D01*
X134469148Y-119169266D01*
X134341816Y-119282071D01*
X134341814Y-119282073D01*
X134245182Y-119422068D01*
X134184859Y-119581129D01*
X134164355Y-119749996D01*
X134164355Y-119750003D01*
X134175675Y-119843239D01*
X134162521Y-119890423D01*
X134157397Y-119896208D01*
X133972852Y-120080755D01*
X133927597Y-120099500D01*
X128015804Y-120099500D01*
X127970549Y-120080755D01*
X127951804Y-120035500D01*
X127952271Y-120027784D01*
X127955645Y-120000001D01*
X127955645Y-120000000D01*
X127935140Y-119831128D01*
X127874818Y-119672070D01*
X127872611Y-119668872D01*
X127778185Y-119532073D01*
X127778183Y-119532071D01*
X127778183Y-119532070D01*
X127650852Y-119419266D01*
X127500222Y-119340208D01*
X127335062Y-119299500D01*
X127335056Y-119299500D01*
X127164944Y-119299500D01*
X127164937Y-119299500D01*
X126999777Y-119340208D01*
X126849148Y-119419266D01*
X126721816Y-119532071D01*
X126721814Y-119532073D01*
X126625182Y-119672068D01*
X126564859Y-119831129D01*
X126544355Y-119999996D01*
X126544355Y-120000003D01*
X126564859Y-120168870D01*
X126625182Y-120327931D01*
X126721814Y-120467926D01*
X126721816Y-120467928D01*
X126721817Y-120467929D01*
X126849148Y-120580734D01*
X126902821Y-120608904D01*
X126999777Y-120659791D01*
X127164937Y-120700499D01*
X127164942Y-120700499D01*
X127164944Y-120700500D01*
X127164946Y-120700500D01*
X127335054Y-120700500D01*
X127335056Y-120700500D01*
X127339354Y-120699440D01*
X127387780Y-120706806D01*
X127399931Y-120716324D01*
X127491320Y-120807713D01*
X127491326Y-120807718D01*
X127511658Y-120828050D01*
X127511660Y-120828051D01*
X127511661Y-120828052D01*
X127515736Y-120831013D01*
X127514113Y-120833246D01*
X127539964Y-120863494D01*
X127536137Y-120912328D01*
X127498900Y-120944152D01*
X127485767Y-120946943D01*
X127396204Y-120956319D01*
X127396201Y-120956319D01*
X127344245Y-120967521D01*
X127344235Y-120967524D01*
X127240775Y-121001851D01*
X127119731Y-121079643D01*
X127066934Y-121125393D01*
X127066928Y-121125400D01*
X126972712Y-121234130D01*
X126912945Y-121364997D01*
X126912942Y-121365005D01*
X126893258Y-121432043D01*
X126893258Y-121432044D01*
X126893257Y-121432048D01*
X126881587Y-121513216D01*
X126872781Y-121574465D01*
X126872781Y-140475513D01*
X126878496Y-140528658D01*
X126864697Y-140575657D01*
X126821705Y-140599133D01*
X126814863Y-140599500D01*
X115981532Y-140599500D01*
X115936277Y-140580755D01*
X115917532Y-140535500D01*
X115918183Y-140526392D01*
X115925500Y-140475497D01*
X115925500Y-139594955D01*
X121699500Y-139594955D01*
X121714633Y-139729260D01*
X121734409Y-139785775D01*
X121774211Y-139899522D01*
X121774213Y-139899526D01*
X121774214Y-139899527D01*
X121843103Y-140009163D01*
X121851683Y-140030726D01*
X121861133Y-140078231D01*
X121861133Y-140078232D01*
X121883290Y-140111391D01*
X121905448Y-140144552D01*
X121971769Y-140188867D01*
X122007691Y-140196012D01*
X122019271Y-140198316D01*
X122040835Y-140206896D01*
X122150472Y-140275786D01*
X122150476Y-140275788D01*
X122150478Y-140275789D01*
X122243412Y-140308308D01*
X122300108Y-140328147D01*
X122320745Y-140335368D01*
X122500000Y-140355565D01*
X122679255Y-140335368D01*
X122849522Y-140275789D01*
X122959167Y-140206894D01*
X122980728Y-140198316D01*
X122982966Y-140197870D01*
X123028231Y-140188867D01*
X123094552Y-140144552D01*
X123138867Y-140078231D01*
X123148316Y-140030726D01*
X123156895Y-140009165D01*
X123225789Y-139899522D01*
X123285368Y-139729255D01*
X123300500Y-139594954D01*
X123300500Y-138405046D01*
X123285368Y-138270745D01*
X123225789Y-138100478D01*
X123225788Y-138100476D01*
X123225786Y-138100472D01*
X123156896Y-137990835D01*
X123148316Y-137969271D01*
X123146376Y-137959522D01*
X123138867Y-137921769D01*
X123094552Y-137855448D01*
X123028231Y-137811133D01*
X122980727Y-137801683D01*
X122959164Y-137793103D01*
X122849527Y-137724213D01*
X122849523Y-137724211D01*
X122679260Y-137664633D01*
X122679256Y-137664632D01*
X122679255Y-137664632D01*
X122500000Y-137644435D01*
X122499999Y-137644435D01*
X122453742Y-137649646D01*
X122320745Y-137664632D01*
X122320743Y-137664632D01*
X122320739Y-137664633D01*
X122150476Y-137724211D01*
X122150472Y-137724213D01*
X122040835Y-137793103D01*
X122019273Y-137801683D01*
X121971768Y-137811133D01*
X121971767Y-137811133D01*
X121905448Y-137855448D01*
X121861133Y-137921767D01*
X121861133Y-137921768D01*
X121851683Y-137969273D01*
X121843103Y-137990835D01*
X121774213Y-138100472D01*
X121774211Y-138100476D01*
X121714633Y-138270739D01*
X121714632Y-138270743D01*
X121714632Y-138270745D01*
X121705870Y-138348514D01*
X121699500Y-138405044D01*
X121699500Y-139594955D01*
X115925500Y-139594955D01*
X115925500Y-120224000D01*
X115925499Y-120223986D01*
X115913947Y-120116545D01*
X115913945Y-120116535D01*
X115910239Y-120099500D01*
X115902741Y-120065033D01*
X115868613Y-119962496D01*
X115790825Y-119841457D01*
X115790823Y-119841454D01*
X115790820Y-119841450D01*
X115745070Y-119788653D01*
X115745063Y-119788647D01*
X115700466Y-119750003D01*
X115636336Y-119694433D01*
X115636334Y-119694432D01*
X115636333Y-119694431D01*
X115505466Y-119634664D01*
X115505458Y-119634661D01*
X115438420Y-119614977D01*
X115438418Y-119614976D01*
X115367207Y-119604738D01*
X115296000Y-119594500D01*
X103024000Y-119594500D01*
X103023986Y-119594500D01*
X102916545Y-119606052D01*
X102916535Y-119606054D01*
X102865039Y-119617257D01*
X102762493Y-119651388D01*
X102641450Y-119729179D01*
X102588653Y-119774929D01*
X102588647Y-119774936D01*
X102494431Y-119883666D01*
X102434664Y-120014533D01*
X102434661Y-120014541D01*
X102419836Y-120065033D01*
X102414977Y-120081580D01*
X102414976Y-120081584D01*
X102402426Y-120168872D01*
X102394500Y-120224001D01*
X102394500Y-140475513D01*
X102400215Y-140528658D01*
X102386416Y-140575657D01*
X102343424Y-140599133D01*
X102336582Y-140599500D01*
X91061532Y-140599500D01*
X91016277Y-140580755D01*
X90997532Y-140535500D01*
X90998183Y-140526392D01*
X91005500Y-140475497D01*
X91005500Y-139594955D01*
X96323966Y-139594955D01*
X96339099Y-139729260D01*
X96358875Y-139785775D01*
X96398677Y-139899522D01*
X96398679Y-139899526D01*
X96398680Y-139899527D01*
X96467569Y-140009163D01*
X96476149Y-140030726D01*
X96485599Y-140078231D01*
X96485599Y-140078232D01*
X96507756Y-140111391D01*
X96529914Y-140144552D01*
X96596235Y-140188867D01*
X96632157Y-140196012D01*
X96643737Y-140198316D01*
X96665301Y-140206896D01*
X96774938Y-140275786D01*
X96774942Y-140275788D01*
X96774944Y-140275789D01*
X96867878Y-140308308D01*
X96924574Y-140328147D01*
X96945211Y-140335368D01*
X97124466Y-140355565D01*
X97303721Y-140335368D01*
X97473988Y-140275789D01*
X97583633Y-140206894D01*
X97605194Y-140198316D01*
X97607432Y-140197870D01*
X97652697Y-140188867D01*
X97719018Y-140144552D01*
X97763333Y-140078231D01*
X97772782Y-140030726D01*
X97781361Y-140009165D01*
X97850255Y-139899522D01*
X97909834Y-139729255D01*
X97924966Y-139594954D01*
X97924966Y-138405046D01*
X97909834Y-138270745D01*
X97850255Y-138100478D01*
X97850254Y-138100476D01*
X97850252Y-138100472D01*
X97781362Y-137990835D01*
X97772782Y-137969271D01*
X97770842Y-137959522D01*
X97763333Y-137921769D01*
X97719018Y-137855448D01*
X97652697Y-137811133D01*
X97605193Y-137801683D01*
X97583630Y-137793103D01*
X97473993Y-137724213D01*
X97473989Y-137724211D01*
X97303726Y-137664633D01*
X97303722Y-137664632D01*
X97303721Y-137664632D01*
X97124466Y-137644435D01*
X96945211Y-137664632D01*
X96945209Y-137664632D01*
X96945205Y-137664633D01*
X96774942Y-137724211D01*
X96774938Y-137724213D01*
X96665301Y-137793103D01*
X96643739Y-137801683D01*
X96596234Y-137811133D01*
X96596233Y-137811133D01*
X96529914Y-137855448D01*
X96485599Y-137921767D01*
X96485599Y-137921768D01*
X96476149Y-137969273D01*
X96467569Y-137990835D01*
X96398679Y-138100472D01*
X96398677Y-138100476D01*
X96339099Y-138270739D01*
X96339098Y-138270743D01*
X96339098Y-138270745D01*
X96330336Y-138348514D01*
X96323966Y-138405044D01*
X96323966Y-139594955D01*
X91005500Y-139594955D01*
X91005500Y-130161898D01*
X91015070Y-130128232D01*
X91661437Y-129083273D01*
X91717613Y-128956122D01*
X91736157Y-128891166D01*
X91755576Y-128753514D01*
X91769327Y-122533262D01*
X91769326Y-122533261D01*
X91769327Y-122533245D01*
X91768303Y-122509974D01*
X91768303Y-122509973D01*
X91765203Y-122475625D01*
X91765202Y-122475624D01*
X91765202Y-122475614D01*
X91758881Y-122429465D01*
X91712939Y-122293117D01*
X91681433Y-122230754D01*
X91681431Y-122230750D01*
X91598936Y-122112869D01*
X91509561Y-122041393D01*
X91485926Y-121998489D01*
X91499551Y-121951439D01*
X91520806Y-121934220D01*
X91662793Y-121862913D01*
X91954811Y-121670849D01*
X92222558Y-121446183D01*
X92462412Y-121191953D01*
X92671130Y-120911596D01*
X92845889Y-120608904D01*
X92984326Y-120287971D01*
X93084569Y-119953136D01*
X93145262Y-119608927D01*
X93165585Y-119260000D01*
X93145262Y-118911073D01*
X93084569Y-118566864D01*
X92984326Y-118232029D01*
X92845889Y-117911096D01*
X92671130Y-117608404D01*
X92462412Y-117328047D01*
X92222558Y-117073817D01*
X92222556Y-117073815D01*
X92222553Y-117073812D01*
X91954818Y-116849156D01*
X91954813Y-116849153D01*
X91954811Y-116849151D01*
X91662793Y-116657087D01*
X91534469Y-116592640D01*
X91502443Y-116555580D01*
X91506001Y-116506726D01*
X91528713Y-116481532D01*
X91535757Y-116477028D01*
X91588662Y-116431390D01*
X91683124Y-116322862D01*
X91743183Y-116192116D01*
X91761402Y-116130571D01*
X91762700Y-116127288D01*
X91766555Y-116100894D01*
X91783808Y-115982749D01*
X91816931Y-101000003D01*
X108544355Y-101000003D01*
X108564859Y-101168870D01*
X108625182Y-101327931D01*
X108721814Y-101467926D01*
X108721816Y-101467928D01*
X108721817Y-101467929D01*
X108849148Y-101580734D01*
X108999775Y-101659790D01*
X108999777Y-101659791D01*
X109164937Y-101700499D01*
X109164942Y-101700499D01*
X109164944Y-101700500D01*
X109164946Y-101700500D01*
X109335054Y-101700500D01*
X109335056Y-101700500D01*
X109335058Y-101700499D01*
X109335062Y-101700499D01*
X109500222Y-101659791D01*
X109500222Y-101659790D01*
X109500225Y-101659790D01*
X109650852Y-101580734D01*
X109778183Y-101467929D01*
X109874818Y-101327930D01*
X109935140Y-101168872D01*
X109955645Y-101000000D01*
X109946182Y-100922070D01*
X109935140Y-100831129D01*
X109880880Y-100688056D01*
X109874818Y-100672070D01*
X109852786Y-100640151D01*
X109778185Y-100532073D01*
X109778183Y-100532071D01*
X109672060Y-100438054D01*
X109650617Y-100394013D01*
X109650500Y-100390149D01*
X109650500Y-73609850D01*
X109669245Y-73564595D01*
X109672060Y-73561945D01*
X109675160Y-73559199D01*
X109778183Y-73467929D01*
X109874818Y-73327930D01*
X109935140Y-73168872D01*
X109946894Y-73072068D01*
X109955645Y-73000003D01*
X112094355Y-73000003D01*
X112114859Y-73168870D01*
X112175182Y-73327931D01*
X112271814Y-73467926D01*
X112271816Y-73467928D01*
X112271817Y-73467929D01*
X112399148Y-73580734D01*
X112549775Y-73659790D01*
X112550808Y-73660044D01*
X112551194Y-73660328D01*
X112553397Y-73661164D01*
X112553164Y-73661777D01*
X112590264Y-73689067D01*
X112599500Y-73722186D01*
X112599500Y-79063435D01*
X112607804Y-79088994D01*
X112610148Y-79098755D01*
X112612829Y-79115676D01*
X112614354Y-79125304D01*
X112621697Y-79139716D01*
X112626554Y-79149247D01*
X112630397Y-79158525D01*
X112638702Y-79184086D01*
X112638706Y-79184093D01*
X112654502Y-79205836D01*
X112659747Y-79214395D01*
X112671948Y-79238339D01*
X112671949Y-79238341D01*
X112693657Y-79260049D01*
X112693671Y-79260064D01*
X126830754Y-93397146D01*
X126849499Y-93442401D01*
X126849499Y-100640151D01*
X126830754Y-100685406D01*
X126827948Y-100688046D01*
X126787936Y-100723494D01*
X126721816Y-100782071D01*
X126721814Y-100782073D01*
X126625182Y-100922068D01*
X126564859Y-101081129D01*
X126544355Y-101249996D01*
X126544355Y-101250003D01*
X126564859Y-101418870D01*
X126625182Y-101577931D01*
X126721814Y-101717926D01*
X126721816Y-101717928D01*
X126721817Y-101717929D01*
X126849148Y-101830734D01*
X126999775Y-101909790D01*
X126999777Y-101909791D01*
X127164937Y-101950499D01*
X127164942Y-101950499D01*
X127164944Y-101950500D01*
X127164946Y-101950500D01*
X127335054Y-101950500D01*
X127335056Y-101950500D01*
X127335058Y-101950499D01*
X127335062Y-101950499D01*
X127500222Y-101909791D01*
X127500222Y-101909790D01*
X127500225Y-101909790D01*
X127650852Y-101830734D01*
X127778183Y-101717929D01*
X127874818Y-101577930D01*
X127935140Y-101418872D01*
X127946182Y-101327931D01*
X127955645Y-101250003D01*
X127955645Y-101249996D01*
X127935140Y-101081129D01*
X127904373Y-101000003D01*
X127874818Y-100922070D01*
X127812045Y-100831128D01*
X127778185Y-100782073D01*
X127778183Y-100782071D01*
X127672060Y-100688054D01*
X127650617Y-100644013D01*
X127650500Y-100640149D01*
X127650500Y-98974385D01*
X155794500Y-98974385D01*
X155794756Y-98982067D01*
X155815936Y-99066311D01*
X155815936Y-99066313D01*
X155837651Y-99110222D01*
X155837652Y-99110223D01*
X155886533Y-99173779D01*
X157595450Y-100669081D01*
X159846573Y-102638814D01*
X159846576Y-102638817D01*
X159846577Y-102638818D01*
X159846580Y-102638820D01*
X159909622Y-102676533D01*
X159909622Y-102676534D01*
X159951766Y-102692369D01*
X160024043Y-102705500D01*
X160024047Y-102705500D01*
X166686003Y-102705500D01*
X166725320Y-102697678D01*
X166764641Y-102689858D01*
X166809896Y-102671113D01*
X166809901Y-102671110D01*
X166868188Y-102634486D01*
X166868188Y-102634484D01*
X166868190Y-102634484D01*
X166921113Y-102559896D01*
X166939858Y-102514641D01*
X166955500Y-102436000D01*
X166955500Y-99212071D01*
X168099500Y-99212071D01*
X168099501Y-101387928D01*
X168099501Y-101387927D01*
X168109696Y-101517488D01*
X168109698Y-101517495D01*
X168163594Y-101731388D01*
X168163595Y-101731391D01*
X168163596Y-101731393D01*
X168254824Y-101932239D01*
X168380449Y-102113567D01*
X168536433Y-102269551D01*
X168717761Y-102395176D01*
X168918607Y-102486404D01*
X169132515Y-102540304D01*
X169262067Y-102550500D01*
X171437932Y-102550499D01*
X171567485Y-102540304D01*
X171781393Y-102486404D01*
X171982239Y-102395176D01*
X172163567Y-102269551D01*
X172319551Y-102113567D01*
X172445176Y-101932239D01*
X172536404Y-101731393D01*
X172590304Y-101517485D01*
X172600500Y-101387933D01*
X172600499Y-99212068D01*
X172590304Y-99082515D01*
X172536404Y-98868607D01*
X172445176Y-98667761D01*
X172319553Y-98486436D01*
X172319554Y-98486436D01*
X172319551Y-98486433D01*
X172163567Y-98330449D01*
X171982239Y-98204824D01*
X171781393Y-98113596D01*
X171781391Y-98113595D01*
X171781388Y-98113594D01*
X171653321Y-98081324D01*
X171567485Y-98059696D01*
X171437933Y-98049500D01*
X171437928Y-98049500D01*
X170233400Y-98049500D01*
X169262068Y-98049501D01*
X169190094Y-98055164D01*
X169132511Y-98059696D01*
X169132504Y-98059698D01*
X168918611Y-98113594D01*
X168717760Y-98204824D01*
X168536436Y-98330446D01*
X168380446Y-98486436D01*
X168254824Y-98667760D01*
X168163594Y-98868611D01*
X168120338Y-99040279D01*
X168109696Y-99082515D01*
X168102514Y-99173779D01*
X168099500Y-99212071D01*
X166955500Y-99212071D01*
X166955500Y-94564000D01*
X166939858Y-94485359D01*
X166921113Y-94440104D01*
X166921111Y-94440101D01*
X166921110Y-94440098D01*
X166884486Y-94381811D01*
X166809897Y-94328887D01*
X166809895Y-94328886D01*
X166764647Y-94310143D01*
X166764638Y-94310141D01*
X166686003Y-94294500D01*
X166686000Y-94294500D01*
X160039554Y-94294500D01*
X160039548Y-94294500D01*
X160006643Y-94297152D01*
X159986406Y-94300436D01*
X159965359Y-94304993D01*
X159884675Y-94348035D01*
X159884670Y-94348038D01*
X159847671Y-94380128D01*
X159847662Y-94380138D01*
X159798507Y-94443472D01*
X159798503Y-94443478D01*
X158140683Y-97759122D01*
X158103679Y-97791216D01*
X158083440Y-97794500D01*
X156063997Y-97794500D01*
X155985361Y-97810141D01*
X155985353Y-97810143D01*
X155940103Y-97828887D01*
X155940098Y-97828889D01*
X155881811Y-97865513D01*
X155828887Y-97940102D01*
X155828886Y-97940104D01*
X155810143Y-97985352D01*
X155810141Y-97985361D01*
X155794500Y-98063997D01*
X155794500Y-98063999D01*
X155794500Y-98064000D01*
X155794500Y-98974385D01*
X127650500Y-98974385D01*
X127650500Y-96970739D01*
X127650500Y-93218481D01*
X127650499Y-93218474D01*
X127650499Y-93186567D01*
X127642190Y-93160998D01*
X127639850Y-93151247D01*
X127635646Y-93124696D01*
X127623442Y-93100746D01*
X127619602Y-93091472D01*
X127611296Y-93065911D01*
X127611296Y-93065910D01*
X127595492Y-93044159D01*
X127590248Y-93035600D01*
X127578050Y-93011658D01*
X127488342Y-92921950D01*
X113419245Y-78852852D01*
X113400500Y-78807597D01*
X113400500Y-73400003D01*
X113694355Y-73400003D01*
X113714859Y-73568870D01*
X113775182Y-73727931D01*
X113871814Y-73867926D01*
X113871816Y-73867928D01*
X113871817Y-73867929D01*
X113999148Y-73980734D01*
X114149775Y-74059790D01*
X114219859Y-74077064D01*
X114259311Y-74106092D01*
X114268542Y-74139203D01*
X114268542Y-78732477D01*
X114276846Y-78758036D01*
X114279190Y-78767797D01*
X114283396Y-78794346D01*
X114295596Y-78818289D01*
X114299439Y-78827567D01*
X114307744Y-78853128D01*
X114307748Y-78853135D01*
X114323544Y-78874878D01*
X114328789Y-78883437D01*
X114340990Y-78907381D01*
X114340991Y-78907383D01*
X114362699Y-78929091D01*
X114362713Y-78929106D01*
X129241320Y-93807713D01*
X129241326Y-93807718D01*
X129261658Y-93828050D01*
X129261660Y-93828051D01*
X129285602Y-93840250D01*
X129294165Y-93845498D01*
X129295064Y-93846151D01*
X129315910Y-93861296D01*
X129341476Y-93869602D01*
X129350751Y-93873445D01*
X129374691Y-93885644D01*
X129374693Y-93885644D01*
X129374696Y-93885646D01*
X129401241Y-93889850D01*
X129411003Y-93892193D01*
X129436567Y-93900500D01*
X129468481Y-93900500D01*
X139391684Y-93900500D01*
X139436939Y-93919245D01*
X139444355Y-93928144D01*
X139471814Y-93967926D01*
X139471816Y-93967928D01*
X139471817Y-93967929D01*
X139599148Y-94080734D01*
X139749775Y-94159790D01*
X139749777Y-94159791D01*
X139914937Y-94200499D01*
X139914942Y-94200499D01*
X139914944Y-94200500D01*
X139914946Y-94200500D01*
X140085054Y-94200500D01*
X140085056Y-94200500D01*
X140085058Y-94200499D01*
X140085062Y-94200499D01*
X140250222Y-94159791D01*
X140250222Y-94159790D01*
X140250225Y-94159790D01*
X140400852Y-94080734D01*
X140528183Y-93967929D01*
X140624818Y-93827930D01*
X140685140Y-93668872D01*
X140696182Y-93577931D01*
X140705645Y-93500003D01*
X140705645Y-93499996D01*
X140685140Y-93331129D01*
X140654373Y-93250003D01*
X166544355Y-93250003D01*
X166564859Y-93418870D01*
X166625182Y-93577931D01*
X166721814Y-93717926D01*
X166721816Y-93717928D01*
X166721817Y-93717929D01*
X166849148Y-93830734D01*
X166966249Y-93892194D01*
X166999777Y-93909791D01*
X167164937Y-93950499D01*
X167164942Y-93950499D01*
X167164944Y-93950500D01*
X167164946Y-93950500D01*
X167335054Y-93950500D01*
X167335056Y-93950500D01*
X167335058Y-93950499D01*
X167335061Y-93950499D01*
X167425759Y-93928144D01*
X167500225Y-93909790D01*
X167500225Y-93909789D01*
X167501133Y-93909566D01*
X167549559Y-93916936D01*
X167576290Y-93949011D01*
X167625182Y-94077931D01*
X167721814Y-94217926D01*
X167721816Y-94217928D01*
X167721817Y-94217929D01*
X167849148Y-94330734D01*
X167946466Y-94381811D01*
X167999777Y-94409791D01*
X168164937Y-94450499D01*
X168164942Y-94450499D01*
X168164944Y-94450500D01*
X168164946Y-94450500D01*
X168335054Y-94450500D01*
X168335056Y-94450500D01*
X168335058Y-94450499D01*
X168335062Y-94450499D01*
X168500222Y-94409791D01*
X168500222Y-94409790D01*
X168500225Y-94409790D01*
X168607127Y-94353683D01*
X170495740Y-94353683D01*
X170505755Y-94538408D01*
X170505755Y-94538411D01*
X170555245Y-94716656D01*
X170555246Y-94716659D01*
X170641900Y-94880104D01*
X170641902Y-94880106D01*
X170641903Y-94880108D01*
X170761664Y-95021101D01*
X170908932Y-95133052D01*
X170908934Y-95133052D01*
X170908936Y-95133054D01*
X171076833Y-95210732D01*
X171257503Y-95250500D01*
X172696108Y-95250500D01*
X172696113Y-95250500D01*
X172833910Y-95235514D01*
X173009221Y-95176444D01*
X173167736Y-95081070D01*
X173302041Y-94953849D01*
X173405858Y-94800730D01*
X173474331Y-94628875D01*
X173504260Y-94446317D01*
X173494245Y-94261593D01*
X173477282Y-94200499D01*
X173465980Y-94159790D01*
X173444754Y-94083341D01*
X173358100Y-93919896D01*
X173238337Y-93778900D01*
X173238336Y-93778899D01*
X173238335Y-93778898D01*
X173091067Y-93666947D01*
X173091064Y-93666946D01*
X172923167Y-93589268D01*
X172742497Y-93549500D01*
X171303887Y-93549500D01*
X171284736Y-93551582D01*
X171166093Y-93564485D01*
X171166089Y-93564486D01*
X170990777Y-93623556D01*
X170832263Y-93718929D01*
X170832261Y-93718931D01*
X170697958Y-93846151D01*
X170594143Y-93999267D01*
X170525668Y-94171128D01*
X170495740Y-94353683D01*
X168607127Y-94353683D01*
X168650852Y-94330734D01*
X168778183Y-94217929D01*
X168874818Y-94077930D01*
X168935140Y-93918872D01*
X168946182Y-93827931D01*
X168955645Y-93750003D01*
X168955645Y-93749996D01*
X168935140Y-93581129D01*
X168933927Y-93577931D01*
X168874818Y-93422070D01*
X168872611Y-93418872D01*
X168778185Y-93282073D01*
X168778183Y-93282071D01*
X168706404Y-93218481D01*
X168650852Y-93169266D01*
X168650851Y-93169265D01*
X168650845Y-93169260D01*
X168647665Y-93167065D01*
X168648423Y-93165966D01*
X168620068Y-93131928D01*
X168617174Y-93112900D01*
X168617174Y-90446064D01*
X168635919Y-90400809D01*
X168681174Y-90382064D01*
X168710916Y-90389394D01*
X168732664Y-90400809D01*
X168749777Y-90409791D01*
X168914937Y-90450499D01*
X168914942Y-90450499D01*
X168914944Y-90450500D01*
X168914946Y-90450500D01*
X169085054Y-90450500D01*
X169085056Y-90450500D01*
X169085058Y-90450499D01*
X169085062Y-90450499D01*
X169250222Y-90409791D01*
X169250222Y-90409790D01*
X169250225Y-90409790D01*
X169400852Y-90330734D01*
X169528183Y-90217929D01*
X169624818Y-90077930D01*
X169685140Y-89918872D01*
X169693341Y-89851323D01*
X169705645Y-89750003D01*
X169705645Y-89749996D01*
X169685140Y-89581129D01*
X169684990Y-89580734D01*
X169624818Y-89422070D01*
X169624817Y-89422068D01*
X169528185Y-89282073D01*
X169528183Y-89282071D01*
X169503028Y-89259786D01*
X169400852Y-89169266D01*
X169250222Y-89090208D01*
X169085062Y-89049500D01*
X169085056Y-89049500D01*
X168914944Y-89049500D01*
X168914937Y-89049500D01*
X168749777Y-89090208D01*
X168599147Y-89169266D01*
X168599143Y-89169269D01*
X168541631Y-89220220D01*
X168495327Y-89236198D01*
X168451287Y-89214754D01*
X168435309Y-89168450D01*
X168435659Y-89164601D01*
X168455645Y-89000003D01*
X168455645Y-88999996D01*
X168435140Y-88831129D01*
X168374817Y-88672068D01*
X168278185Y-88532073D01*
X168278183Y-88532071D01*
X168278182Y-88532071D01*
X168150852Y-88419266D01*
X168000222Y-88340208D01*
X167835062Y-88299500D01*
X167835056Y-88299500D01*
X167664944Y-88299500D01*
X167664937Y-88299500D01*
X167499777Y-88340208D01*
X167349148Y-88419266D01*
X167221816Y-88532071D01*
X167221814Y-88532073D01*
X167125182Y-88672068D01*
X167064859Y-88831129D01*
X167044355Y-88999996D01*
X167044355Y-89000003D01*
X167064859Y-89168871D01*
X167065569Y-89170743D01*
X167065541Y-89171640D01*
X167065786Y-89172631D01*
X167065509Y-89172699D01*
X167064087Y-89219704D01*
X167050982Y-89238690D01*
X167030871Y-89258801D01*
X167028812Y-89260687D01*
X166996807Y-89287544D01*
X166996804Y-89287547D01*
X166975908Y-89323737D01*
X166974409Y-89326091D01*
X166950444Y-89360317D01*
X166948861Y-89366227D01*
X166942471Y-89381656D01*
X166939413Y-89386953D01*
X166939411Y-89386957D01*
X166932154Y-89428108D01*
X166931550Y-89430833D01*
X166920736Y-89471188D01*
X166920736Y-89471193D01*
X166924378Y-89512815D01*
X166924500Y-89515605D01*
X166924500Y-92591027D01*
X166905755Y-92636282D01*
X166890244Y-92647695D01*
X166849151Y-92669263D01*
X166721816Y-92782071D01*
X166721814Y-92782073D01*
X166625182Y-92922068D01*
X166564859Y-93081129D01*
X166544355Y-93249996D01*
X166544355Y-93250003D01*
X140654373Y-93250003D01*
X140624818Y-93172070D01*
X140622883Y-93169266D01*
X140528185Y-93032073D01*
X140528183Y-93032071D01*
X140456148Y-92968254D01*
X140400852Y-92919266D01*
X140250222Y-92840208D01*
X140085062Y-92799500D01*
X140085056Y-92799500D01*
X139914944Y-92799500D01*
X139914937Y-92799500D01*
X139749777Y-92840208D01*
X139599148Y-92919266D01*
X139471816Y-93032071D01*
X139471814Y-93032073D01*
X139444355Y-93071856D01*
X139403220Y-93098452D01*
X139391684Y-93099500D01*
X129692403Y-93099500D01*
X129647148Y-93080755D01*
X115717421Y-79151028D01*
X115698676Y-79105773D01*
X115717421Y-79060518D01*
X115762676Y-79041773D01*
X115773778Y-79042743D01*
X115906721Y-79066185D01*
X115964201Y-79066185D01*
X126284476Y-79066185D01*
X126284480Y-79066186D01*
X126297208Y-79066186D01*
X126354674Y-79066186D01*
X126371239Y-79068367D01*
X126378841Y-79070404D01*
X126417702Y-79100223D01*
X126424094Y-79115655D01*
X126426103Y-79123151D01*
X126428285Y-79139716D01*
X126428287Y-79197808D01*
X126428489Y-79200825D01*
X126433740Y-80962770D01*
X126433753Y-81080006D01*
X126433755Y-81080022D01*
X126466167Y-81263721D01*
X126466172Y-81263739D01*
X126529991Y-81439027D01*
X126529993Y-81439030D01*
X126623285Y-81600584D01*
X126743211Y-81743486D01*
X126886127Y-81863393D01*
X127047693Y-81956664D01*
X127223000Y-82020465D01*
X127406722Y-82052858D01*
X127500000Y-82052857D01*
X127565892Y-82052857D01*
X131806159Y-82052857D01*
X131806262Y-82052863D01*
X131808314Y-82052862D01*
X131808319Y-82052864D01*
X131874211Y-82052857D01*
X131909958Y-82052857D01*
X131910886Y-82052857D01*
X131911313Y-82052839D01*
X131967482Y-82052836D01*
X132151187Y-82020429D01*
X132326475Y-81956618D01*
X132488022Y-81863343D01*
X132630920Y-81743436D01*
X132750830Y-81600540D01*
X132844109Y-81438995D01*
X132907923Y-81263709D01*
X132940334Y-81080004D01*
X132940339Y-81023619D01*
X132940416Y-81021433D01*
X132940446Y-81020987D01*
X132940448Y-81020978D01*
X132940344Y-80986103D01*
X132940352Y-80920842D01*
X132940351Y-80920841D01*
X132940352Y-80920410D01*
X132940138Y-80917218D01*
X132935135Y-79238342D01*
X132934842Y-79139906D01*
X132937023Y-79123156D01*
X132939028Y-79115674D01*
X132968849Y-79076817D01*
X132984278Y-79070427D01*
X132991981Y-79068363D01*
X133008536Y-79066185D01*
X156093275Y-79066185D01*
X156093279Y-79066185D01*
X156277003Y-79033790D01*
X156277008Y-79033788D01*
X156277009Y-79033788D01*
X156452306Y-78969985D01*
X156452306Y-78969984D01*
X156452311Y-78969983D01*
X156613875Y-78876704D01*
X156756787Y-78756787D01*
X156876704Y-78613875D01*
X156969983Y-78452311D01*
X156998270Y-78374593D01*
X157033788Y-78277009D01*
X157033788Y-78277008D01*
X157033790Y-78277003D01*
X157066185Y-78093279D01*
X157066185Y-78000000D01*
X157066185Y-77934108D01*
X157066185Y-74136037D01*
X157066186Y-74136008D01*
X157066185Y-74131567D01*
X157066187Y-74131564D01*
X157066185Y-74092196D01*
X157066200Y-74092160D01*
X157066199Y-74059790D01*
X157066198Y-73972393D01*
X157033798Y-73788670D01*
X156969988Y-73613365D01*
X156951254Y-73580918D01*
X156876706Y-73451801D01*
X156756793Y-73308899D01*
X156756786Y-73308892D01*
X156733788Y-73289595D01*
X156613874Y-73188977D01*
X156452310Y-73095700D01*
X156452305Y-73095697D01*
X156277008Y-73031896D01*
X156276995Y-73031892D01*
X156093281Y-72999500D01*
X156093279Y-72999500D01*
X156035799Y-72999500D01*
X115964201Y-72999500D01*
X115963264Y-72999500D01*
X115962845Y-72999515D01*
X115906719Y-72999515D01*
X115723007Y-73031907D01*
X115722994Y-73031911D01*
X115547701Y-73095711D01*
X115547695Y-73095714D01*
X115386138Y-73188987D01*
X115386127Y-73188995D01*
X115243223Y-73308902D01*
X115243221Y-73308904D01*
X115208158Y-73350690D01*
X115164708Y-73373307D01*
X115117992Y-73358576D01*
X115095599Y-73317264D01*
X115085140Y-73231129D01*
X115061529Y-73168872D01*
X115024818Y-73072070D01*
X115024817Y-73072068D01*
X114928185Y-72932073D01*
X114928183Y-72932071D01*
X114928183Y-72932070D01*
X114800852Y-72819266D01*
X114650222Y-72740208D01*
X114485062Y-72699500D01*
X114485056Y-72699500D01*
X114314944Y-72699500D01*
X114314937Y-72699500D01*
X114149777Y-72740208D01*
X113999148Y-72819266D01*
X113871816Y-72932071D01*
X113871814Y-72932073D01*
X113775182Y-73072068D01*
X113714859Y-73231129D01*
X113694355Y-73399996D01*
X113694355Y-73400003D01*
X113400500Y-73400003D01*
X113400500Y-73383103D01*
X113411830Y-73346746D01*
X113411899Y-73346645D01*
X113424818Y-73327930D01*
X113485140Y-73168872D01*
X113496894Y-73072068D01*
X113505645Y-73000003D01*
X113505645Y-72999996D01*
X113485140Y-72831129D01*
X113483927Y-72827931D01*
X113424818Y-72672070D01*
X113422610Y-72668871D01*
X113328185Y-72532073D01*
X113328183Y-72532071D01*
X113313705Y-72519245D01*
X113200852Y-72419266D01*
X113050222Y-72340208D01*
X112885062Y-72299500D01*
X112885056Y-72299500D01*
X112714944Y-72299500D01*
X112714937Y-72299500D01*
X112549777Y-72340208D01*
X112399148Y-72419266D01*
X112271816Y-72532071D01*
X112271814Y-72532073D01*
X112175182Y-72672068D01*
X112114859Y-72831129D01*
X112094355Y-72999996D01*
X112094355Y-73000003D01*
X109955645Y-73000003D01*
X109955645Y-72999996D01*
X109935140Y-72831129D01*
X109933927Y-72827931D01*
X109874818Y-72672070D01*
X109872610Y-72668871D01*
X109778185Y-72532073D01*
X109778183Y-72532071D01*
X109763705Y-72519245D01*
X109650852Y-72419266D01*
X109500222Y-72340208D01*
X109335062Y-72299500D01*
X109335056Y-72299500D01*
X109164944Y-72299500D01*
X109164937Y-72299500D01*
X108999777Y-72340208D01*
X108849148Y-72419266D01*
X108721816Y-72532071D01*
X108721814Y-72532073D01*
X108625182Y-72672068D01*
X108564859Y-72831129D01*
X108544355Y-72999996D01*
X108544355Y-73000003D01*
X108564859Y-73168870D01*
X108625182Y-73327931D01*
X108721814Y-73467926D01*
X108721816Y-73467928D01*
X108721817Y-73467929D01*
X108815088Y-73550560D01*
X108827940Y-73561945D01*
X108849383Y-73605986D01*
X108849500Y-73609850D01*
X108849500Y-100390149D01*
X108830755Y-100435404D01*
X108827940Y-100438054D01*
X108721816Y-100532071D01*
X108721814Y-100532073D01*
X108625182Y-100672068D01*
X108564859Y-100831129D01*
X108544355Y-100999996D01*
X108544355Y-101000003D01*
X91816931Y-101000003D01*
X91823941Y-97828889D01*
X91835224Y-92725398D01*
X91835223Y-92725376D01*
X91823790Y-92617360D01*
X91823790Y-92617358D01*
X91817540Y-92588480D01*
X91812584Y-92565576D01*
X91778338Y-92462496D01*
X91700550Y-92341457D01*
X91654795Y-92288653D01*
X91546061Y-92194433D01*
X91546059Y-92194432D01*
X91546058Y-92194431D01*
X91415191Y-92134664D01*
X91415183Y-92134661D01*
X91348145Y-92114977D01*
X91348143Y-92114976D01*
X91276933Y-92104737D01*
X91205725Y-92094500D01*
X79387002Y-92094500D01*
X79387001Y-92094500D01*
X79334810Y-92100092D01*
X79287816Y-92086274D01*
X79264356Y-92043274D01*
X79263992Y-92036364D01*
X79266277Y-90450499D01*
X79289620Y-74250003D01*
X92044355Y-74250003D01*
X92064859Y-74418870D01*
X92125182Y-74577931D01*
X92221814Y-74717926D01*
X92221816Y-74717928D01*
X92221817Y-74717929D01*
X92349148Y-74830734D01*
X92499775Y-74909790D01*
X92499777Y-74909791D01*
X92664937Y-74950499D01*
X92664942Y-74950499D01*
X92664944Y-74950500D01*
X92664946Y-74950500D01*
X92835054Y-74950500D01*
X92835056Y-74950500D01*
X92835058Y-74950499D01*
X92835062Y-74950499D01*
X93000222Y-74909791D01*
X93000222Y-74909790D01*
X93000225Y-74909790D01*
X93150852Y-74830734D01*
X93278183Y-74717929D01*
X93374818Y-74577930D01*
X93435140Y-74418872D01*
X93455645Y-74250000D01*
X93444323Y-74156759D01*
X93457476Y-74109575D01*
X93462593Y-74103798D01*
X96897147Y-70669245D01*
X96942402Y-70650500D01*
X119418433Y-70650500D01*
X119443992Y-70642194D01*
X119453758Y-70639850D01*
X119480304Y-70635646D01*
X119504254Y-70623441D01*
X119513517Y-70619604D01*
X119539090Y-70611296D01*
X119560842Y-70595491D01*
X119569386Y-70590255D01*
X119593342Y-70578050D01*
X119612258Y-70559132D01*
X119612268Y-70559125D01*
X119705067Y-70466325D01*
X119750321Y-70447579D01*
X119765638Y-70449438D01*
X119769944Y-70450500D01*
X119769945Y-70450500D01*
X119940054Y-70450500D01*
X119940056Y-70450500D01*
X119940058Y-70450499D01*
X119940061Y-70450499D01*
X119980734Y-70440474D01*
X120067504Y-70419087D01*
X120115928Y-70426457D01*
X120144226Y-70463196D01*
X120164576Y-70532502D01*
X120242370Y-70653549D01*
X120285874Y-70703754D01*
X120288121Y-70706347D01*
X120396855Y-70800567D01*
X120396856Y-70800567D01*
X120396857Y-70800568D01*
X120527724Y-70860335D01*
X120527732Y-70860338D01*
X120594771Y-70880023D01*
X120594775Y-70880024D01*
X120737191Y-70900500D01*
X120737193Y-70900500D01*
X121593559Y-70900500D01*
X121593560Y-70900500D01*
X121712741Y-70886250D01*
X121740027Y-70879630D01*
X121788425Y-70887175D01*
X121814958Y-70919130D01*
X121875182Y-71077931D01*
X121971814Y-71217926D01*
X121971816Y-71217928D01*
X121971817Y-71217929D01*
X122099148Y-71330734D01*
X122249775Y-71409790D01*
X122249777Y-71409791D01*
X122414937Y-71450499D01*
X122414942Y-71450499D01*
X122414944Y-71450500D01*
X122414946Y-71450500D01*
X122585054Y-71450500D01*
X122585056Y-71450500D01*
X122585058Y-71450499D01*
X122585062Y-71450499D01*
X122750222Y-71409791D01*
X122750222Y-71409790D01*
X122750225Y-71409790D01*
X122900852Y-71330734D01*
X123028183Y-71217929D01*
X123124818Y-71077930D01*
X123185140Y-70918872D01*
X123198795Y-70806412D01*
X123205645Y-70750003D01*
X123205645Y-70749996D01*
X123185140Y-70581129D01*
X123183972Y-70578050D01*
X123124818Y-70422070D01*
X123109021Y-70399184D01*
X123028185Y-70282073D01*
X123028183Y-70282071D01*
X122922060Y-70188054D01*
X122900617Y-70144013D01*
X122900500Y-70140149D01*
X122900500Y-68712954D01*
X125264499Y-68712954D01*
X125264500Y-69499998D01*
X125264500Y-70181417D01*
X125270602Y-70238750D01*
X125275824Y-70287814D01*
X125275825Y-70287822D01*
X125286808Y-70338836D01*
X125286812Y-70338849D01*
X125320276Y-70440474D01*
X125320279Y-70440482D01*
X125397544Y-70561843D01*
X125397550Y-70561851D01*
X125423912Y-70592537D01*
X125440026Y-70611295D01*
X125443078Y-70614847D01*
X125551404Y-70709526D01*
X125551406Y-70709527D01*
X125682027Y-70769856D01*
X125693849Y-70773382D01*
X125748983Y-70789827D01*
X125748986Y-70789827D01*
X125891313Y-70810911D01*
X128052840Y-70820137D01*
X133672800Y-70844124D01*
X133672805Y-70844124D01*
X133672805Y-70844123D01*
X133672813Y-70844124D01*
X133781374Y-70832804D01*
X133833414Y-70821599D01*
X133937004Y-70787243D01*
X134000900Y-70746178D01*
X134049103Y-70737481D01*
X134089340Y-70765417D01*
X134099500Y-70800019D01*
X134099500Y-71015489D01*
X134080755Y-71060744D01*
X134050816Y-71077629D01*
X133999777Y-71090208D01*
X133849148Y-71169266D01*
X133721816Y-71282071D01*
X133721814Y-71282073D01*
X133625182Y-71422068D01*
X133564859Y-71581129D01*
X133544355Y-71749996D01*
X133544355Y-71750003D01*
X133564859Y-71918870D01*
X133625182Y-72077931D01*
X133721814Y-72217926D01*
X133721816Y-72217928D01*
X133721817Y-72217929D01*
X133849148Y-72330734D01*
X133999775Y-72409790D01*
X133999777Y-72409791D01*
X134164937Y-72450499D01*
X134164942Y-72450499D01*
X134164944Y-72450500D01*
X134164946Y-72450500D01*
X134335054Y-72450500D01*
X134335056Y-72450500D01*
X134335058Y-72450499D01*
X134335062Y-72450499D01*
X134500222Y-72409791D01*
X134500222Y-72409790D01*
X134500225Y-72409790D01*
X134650852Y-72330734D01*
X134778183Y-72217929D01*
X134874818Y-72077930D01*
X134935140Y-71918872D01*
X134955645Y-71750000D01*
X134949634Y-71700499D01*
X134935140Y-71581128D01*
X134935140Y-71581127D01*
X134904659Y-71500754D01*
X134900500Y-71478060D01*
X134900500Y-70109850D01*
X134919245Y-70064595D01*
X134922060Y-70061945D01*
X135028183Y-69967929D01*
X135124818Y-69827930D01*
X135185140Y-69668872D01*
X135201297Y-69535810D01*
X135205645Y-69500003D01*
X135205645Y-69499998D01*
X135195409Y-69415702D01*
X135208562Y-69368517D01*
X135249831Y-69344639D01*
X135298955Y-69337576D01*
X135437004Y-69297041D01*
X135500900Y-69255976D01*
X135549103Y-69247279D01*
X135589340Y-69275215D01*
X135599500Y-69309817D01*
X135599500Y-71140149D01*
X135580755Y-71185404D01*
X135577940Y-71188054D01*
X135471816Y-71282071D01*
X135471814Y-71282073D01*
X135375182Y-71422068D01*
X135314859Y-71581129D01*
X135294355Y-71749996D01*
X135294355Y-71750003D01*
X135314859Y-71918870D01*
X135375182Y-72077931D01*
X135471814Y-72217926D01*
X135471816Y-72217928D01*
X135471817Y-72217929D01*
X135599148Y-72330734D01*
X135749775Y-72409790D01*
X135749777Y-72409791D01*
X135914937Y-72450499D01*
X135914942Y-72450499D01*
X135914944Y-72450500D01*
X135914946Y-72450500D01*
X136085054Y-72450500D01*
X136085056Y-72450500D01*
X136085058Y-72450499D01*
X136085062Y-72450499D01*
X136250222Y-72409791D01*
X136250222Y-72409790D01*
X136250225Y-72409790D01*
X136400852Y-72330734D01*
X136528183Y-72217929D01*
X136624818Y-72077930D01*
X136685140Y-71918872D01*
X136705645Y-71750000D01*
X136699634Y-71700499D01*
X136685140Y-71581129D01*
X136685139Y-71581127D01*
X136624818Y-71422070D01*
X136624817Y-71422068D01*
X136528185Y-71282073D01*
X136528183Y-71282071D01*
X136422060Y-71188054D01*
X136400617Y-71144013D01*
X136400500Y-71140149D01*
X136400500Y-70818637D01*
X136419245Y-70773382D01*
X136464500Y-70754637D01*
X136491332Y-70760534D01*
X136590667Y-70806413D01*
X136612530Y-70816511D01*
X136629589Y-70821599D01*
X136679483Y-70836481D01*
X136679486Y-70836481D01*
X136821813Y-70857565D01*
X136979882Y-70858239D01*
X137359238Y-70859859D01*
X137359238Y-70859858D01*
X137359250Y-70859859D01*
X137464512Y-70849238D01*
X137515044Y-70838710D01*
X137615785Y-70806413D01*
X137737851Y-70730245D01*
X137791260Y-70685198D01*
X137886920Y-70577731D01*
X137948430Y-70447661D01*
X137969007Y-70380890D01*
X137969008Y-70380888D01*
X137991381Y-70238757D01*
X138034564Y-67000003D01*
X156794355Y-67000003D01*
X156814859Y-67168870D01*
X156875182Y-67327931D01*
X156971814Y-67467926D01*
X156971816Y-67467928D01*
X156971817Y-67467929D01*
X157099148Y-67580734D01*
X157211036Y-67639458D01*
X157249777Y-67659791D01*
X157414937Y-67700499D01*
X157414942Y-67700499D01*
X157414944Y-67700500D01*
X157466176Y-67700500D01*
X157511431Y-67719245D01*
X162103177Y-72310991D01*
X162111761Y-72321643D01*
X162117857Y-72331128D01*
X162117858Y-72331129D01*
X162157865Y-72365795D01*
X162159536Y-72367351D01*
X162165471Y-72373285D01*
X162171407Y-72379221D01*
X162182707Y-72387680D01*
X162184839Y-72389276D01*
X162186619Y-72390710D01*
X162226624Y-72425375D01*
X162226627Y-72425377D01*
X162236874Y-72430057D01*
X162248639Y-72437037D01*
X162257664Y-72443793D01*
X162257666Y-72443794D01*
X162257669Y-72443796D01*
X162307298Y-72462306D01*
X162309367Y-72463163D01*
X162357543Y-72485165D01*
X162368703Y-72486769D01*
X162381952Y-72490150D01*
X162392517Y-72494091D01*
X162438721Y-72497395D01*
X162445326Y-72497868D01*
X162447575Y-72498109D01*
X162460724Y-72500000D01*
X162464200Y-72500500D01*
X162464201Y-72500500D01*
X162480976Y-72500500D01*
X162483260Y-72500582D01*
X162501583Y-72501892D01*
X162536073Y-72504359D01*
X162544766Y-72502468D01*
X162547088Y-72501963D01*
X162560692Y-72500500D01*
X167987716Y-72500500D01*
X168032971Y-72519245D01*
X168051249Y-72556785D01*
X168064858Y-72668867D01*
X168064859Y-72668871D01*
X168125182Y-72827931D01*
X168221814Y-72967926D01*
X168221816Y-72967928D01*
X168221817Y-72967929D01*
X168349148Y-73080734D01*
X168377690Y-73095714D01*
X168499777Y-73159791D01*
X168664937Y-73200499D01*
X168664942Y-73200499D01*
X168664944Y-73200500D01*
X168664946Y-73200500D01*
X168835054Y-73200500D01*
X168835056Y-73200500D01*
X168835058Y-73200499D01*
X168835062Y-73200499D01*
X169000222Y-73159791D01*
X169000222Y-73159790D01*
X169000225Y-73159790D01*
X169150852Y-73080734D01*
X169278183Y-72967929D01*
X169374818Y-72827930D01*
X169435140Y-72668872D01*
X169451751Y-72532071D01*
X169455645Y-72500003D01*
X169455645Y-72499996D01*
X169436243Y-72340210D01*
X169435140Y-72331128D01*
X169374818Y-72172070D01*
X169374817Y-72172068D01*
X169278185Y-72032073D01*
X169278183Y-72032071D01*
X169150852Y-71919266D01*
X169000222Y-71840208D01*
X168835062Y-71799500D01*
X168835056Y-71799500D01*
X168783824Y-71799500D01*
X168738569Y-71780755D01*
X168646821Y-71689007D01*
X168638234Y-71678350D01*
X168632145Y-71668875D01*
X168632141Y-71668870D01*
X168592134Y-71634204D01*
X168590461Y-71632647D01*
X168578591Y-71620777D01*
X168565151Y-71610715D01*
X168563372Y-71609282D01*
X168530879Y-71581127D01*
X168523373Y-71574623D01*
X168513117Y-71569939D01*
X168501355Y-71562959D01*
X168492336Y-71556207D01*
X168492333Y-71556205D01*
X168492331Y-71556204D01*
X168470641Y-71548114D01*
X168442716Y-71537698D01*
X168440619Y-71536829D01*
X168415251Y-71525244D01*
X168392456Y-71514834D01*
X168381294Y-71513229D01*
X168368043Y-71509847D01*
X168357484Y-71505909D01*
X168304676Y-71502130D01*
X168302408Y-71501887D01*
X168285803Y-71499500D01*
X168285799Y-71499500D01*
X168269024Y-71499500D01*
X168266740Y-71499418D01*
X168220192Y-71496089D01*
X168213927Y-71495641D01*
X168213926Y-71495641D01*
X168213922Y-71495641D01*
X168202912Y-71498037D01*
X168189308Y-71499500D01*
X162733824Y-71499500D01*
X162688569Y-71480755D01*
X162645058Y-71437244D01*
X162626313Y-71391989D01*
X162645058Y-71346734D01*
X162690313Y-71327989D01*
X162713428Y-71332309D01*
X162733358Y-71340031D01*
X162747243Y-71340031D01*
X162761896Y-71341730D01*
X162775412Y-71344910D01*
X162775412Y-71344909D01*
X162775413Y-71344910D01*
X162781622Y-71344043D01*
X162808190Y-71340337D01*
X162812609Y-71340031D01*
X172099945Y-71340031D01*
X172145200Y-71358776D01*
X172152616Y-71367675D01*
X172221814Y-71467926D01*
X172221816Y-71467928D01*
X172221817Y-71467929D01*
X172349148Y-71580734D01*
X172499775Y-71659790D01*
X172499777Y-71659791D01*
X172664937Y-71700499D01*
X172664942Y-71700499D01*
X172664944Y-71700500D01*
X172664946Y-71700500D01*
X172835054Y-71700500D01*
X172835056Y-71700500D01*
X172835058Y-71700499D01*
X172835062Y-71700499D01*
X173000222Y-71659791D01*
X173000222Y-71659790D01*
X173000225Y-71659790D01*
X173150852Y-71580734D01*
X173278183Y-71467929D01*
X173374818Y-71327930D01*
X173435140Y-71168872D01*
X173446182Y-71077931D01*
X173455645Y-71000003D01*
X173455645Y-70999996D01*
X173436718Y-70844124D01*
X173435140Y-70831128D01*
X173374818Y-70672070D01*
X173372868Y-70669245D01*
X173278185Y-70532073D01*
X173278183Y-70532071D01*
X173278182Y-70532071D01*
X173150852Y-70419266D01*
X173000222Y-70340208D01*
X172835062Y-70299500D01*
X172835056Y-70299500D01*
X172664944Y-70299500D01*
X172664937Y-70299500D01*
X172499777Y-70340208D01*
X172349148Y-70419266D01*
X172221816Y-70532071D01*
X172221814Y-70532073D01*
X172125182Y-70672070D01*
X172115452Y-70697726D01*
X172081877Y-70733393D01*
X172055611Y-70739031D01*
X166720924Y-70739031D01*
X166675669Y-70720286D01*
X166656924Y-70675031D01*
X166675669Y-70629776D01*
X166692198Y-70617839D01*
X166842324Y-70542444D01*
X167134342Y-70350380D01*
X167402089Y-70125714D01*
X167641943Y-69871484D01*
X167850661Y-69591127D01*
X168025420Y-69288435D01*
X168163857Y-68967502D01*
X168264100Y-68632667D01*
X168324793Y-68288458D01*
X168345116Y-67939531D01*
X168324793Y-67590604D01*
X168264100Y-67246395D01*
X168163857Y-66911560D01*
X168025420Y-66590627D01*
X167850661Y-66287935D01*
X167641943Y-66007578D01*
X167402089Y-65753348D01*
X167402087Y-65753346D01*
X167402084Y-65753343D01*
X167134349Y-65528687D01*
X167134344Y-65528684D01*
X167134342Y-65528682D01*
X166842324Y-65336618D01*
X166529982Y-65179754D01*
X166482330Y-65162410D01*
X166201546Y-65060213D01*
X166201542Y-65060212D01*
X165861445Y-64979608D01*
X165861441Y-64979607D01*
X165861439Y-64979607D01*
X165666698Y-64956845D01*
X165514290Y-64939031D01*
X165164772Y-64939031D01*
X165039797Y-64953638D01*
X164817622Y-64979607D01*
X164817618Y-64979607D01*
X164817617Y-64979608D01*
X164731251Y-65000077D01*
X164477515Y-65060213D01*
X164149084Y-65179752D01*
X163836738Y-65336618D01*
X163544720Y-65528682D01*
X163544712Y-65528687D01*
X163276977Y-65753343D01*
X163037116Y-66007581D01*
X162828399Y-66287937D01*
X162653642Y-66590626D01*
X162515206Y-66911558D01*
X162515201Y-66911572D01*
X162414966Y-67246380D01*
X162414961Y-67246400D01*
X162354269Y-67590599D01*
X162333946Y-67939530D01*
X162354269Y-68288462D01*
X162414961Y-68632661D01*
X162414966Y-68632681D01*
X162474258Y-68830730D01*
X162515205Y-68967502D01*
X162524035Y-68987972D01*
X162653642Y-69288435D01*
X162825650Y-69586363D01*
X162828401Y-69591127D01*
X163037119Y-69871484D01*
X163234710Y-70080918D01*
X163276977Y-70125718D01*
X163544712Y-70350374D01*
X163544715Y-70350376D01*
X163544720Y-70350380D01*
X163836738Y-70542444D01*
X163986861Y-70617839D01*
X164018889Y-70654900D01*
X164015331Y-70703754D01*
X163978269Y-70735782D01*
X163958138Y-70739031D01*
X162940512Y-70739031D01*
X162895257Y-70720286D01*
X158867778Y-66692807D01*
X158849033Y-66647552D01*
X158860363Y-66611195D01*
X158902283Y-66550465D01*
X158962605Y-66391407D01*
X158976743Y-66274971D01*
X158983110Y-66222538D01*
X158983110Y-66222531D01*
X158962605Y-66053664D01*
X158945128Y-66007581D01*
X158902283Y-65894605D01*
X158902282Y-65894603D01*
X158805650Y-65754608D01*
X158805648Y-65754606D01*
X158800445Y-65749997D01*
X158678317Y-65641801D01*
X158527687Y-65562743D01*
X158362527Y-65522035D01*
X158362521Y-65522035D01*
X158192409Y-65522035D01*
X158192402Y-65522035D01*
X158027242Y-65562743D01*
X157876613Y-65641801D01*
X157749281Y-65754606D01*
X157749279Y-65754608D01*
X157652647Y-65894603D01*
X157592324Y-66053664D01*
X157572379Y-66217928D01*
X157571820Y-66222535D01*
X157572458Y-66227787D01*
X157559303Y-66274971D01*
X157516637Y-66299034D01*
X157508924Y-66299500D01*
X157414937Y-66299500D01*
X157249777Y-66340208D01*
X157099148Y-66419266D01*
X156971816Y-66532071D01*
X156971814Y-66532073D01*
X156875182Y-66672068D01*
X156814859Y-66831129D01*
X156794355Y-66999996D01*
X156794355Y-67000003D01*
X138034564Y-67000003D01*
X138072270Y-64172091D01*
X138088067Y-62987286D01*
X138088067Y-62987285D01*
X138088066Y-62987284D01*
X138088067Y-62987279D01*
X138077265Y-62876384D01*
X138066071Y-62823222D01*
X138031237Y-62717385D01*
X137953449Y-62596346D01*
X137953447Y-62596343D01*
X137953444Y-62596339D01*
X137907694Y-62543542D01*
X137907687Y-62543536D01*
X137868542Y-62509616D01*
X137798960Y-62449322D01*
X137798958Y-62449321D01*
X137798957Y-62449320D01*
X137668090Y-62389553D01*
X137668082Y-62389550D01*
X137601044Y-62369866D01*
X137601042Y-62369865D01*
X137522153Y-62358523D01*
X137458624Y-62349389D01*
X127132127Y-62349389D01*
X127132120Y-62349389D01*
X127132111Y-62349390D01*
X127036455Y-62358523D01*
X126990393Y-62367401D01*
X126990355Y-62367410D01*
X126898162Y-62394481D01*
X126898158Y-62394483D01*
X126773558Y-62466423D01*
X126718635Y-62509616D01*
X126619354Y-62613739D01*
X126553428Y-62741615D01*
X126553420Y-62741632D01*
X126536900Y-62789361D01*
X126504384Y-62825995D01*
X126461105Y-62830567D01*
X126335062Y-62799501D01*
X126335058Y-62799500D01*
X126335056Y-62799500D01*
X126164944Y-62799500D01*
X126164937Y-62799500D01*
X125999777Y-62840208D01*
X125849148Y-62919266D01*
X125721816Y-63032071D01*
X125721814Y-63032073D01*
X125625182Y-63172068D01*
X125564859Y-63331129D01*
X125544355Y-63499996D01*
X125544355Y-63500003D01*
X125564859Y-63668870D01*
X125625182Y-63827931D01*
X125721814Y-63967926D01*
X125721816Y-63967928D01*
X125721817Y-63967929D01*
X125849148Y-64080734D01*
X125915244Y-64115424D01*
X125946602Y-64153050D01*
X125949500Y-64172091D01*
X125949500Y-67077906D01*
X125930755Y-67123161D01*
X125915244Y-67134575D01*
X125849146Y-67169267D01*
X125721816Y-67282071D01*
X125721814Y-67282073D01*
X125625182Y-67422068D01*
X125564859Y-67581129D01*
X125544355Y-67749996D01*
X125544355Y-67750003D01*
X125564859Y-67918870D01*
X125626555Y-68081549D01*
X125624828Y-68082203D01*
X125628715Y-68125002D01*
X125602216Y-68159799D01*
X125511450Y-68218132D01*
X125458653Y-68263882D01*
X125458647Y-68263889D01*
X125364431Y-68372619D01*
X125304664Y-68503486D01*
X125304661Y-68503494D01*
X125284977Y-68570533D01*
X125264499Y-68712954D01*
X122900500Y-68712954D01*
X122900500Y-66359850D01*
X122919245Y-66314595D01*
X122922060Y-66311945D01*
X122926057Y-66308404D01*
X123028183Y-66217929D01*
X123124818Y-66077930D01*
X123185140Y-65918872D01*
X123205645Y-65750000D01*
X123195980Y-65670406D01*
X123209133Y-65623223D01*
X123250402Y-65599344D01*
X123304455Y-65591572D01*
X123442504Y-65551037D01*
X123563543Y-65473249D01*
X123616347Y-65427494D01*
X123710567Y-65318760D01*
X123749581Y-65233332D01*
X123770335Y-65187890D01*
X123770338Y-65187882D01*
X123772726Y-65179752D01*
X123790023Y-65120844D01*
X123790024Y-65120840D01*
X123810500Y-64978424D01*
X123810500Y-63374000D01*
X123810499Y-63373986D01*
X123798947Y-63266545D01*
X123798945Y-63266535D01*
X123787742Y-63215039D01*
X123787741Y-63215033D01*
X123753613Y-63112496D01*
X123675825Y-62991457D01*
X123675823Y-62991454D01*
X123675820Y-62991450D01*
X123630070Y-62938653D01*
X123630063Y-62938647D01*
X123618109Y-62928289D01*
X123521336Y-62844433D01*
X123521334Y-62844432D01*
X123521333Y-62844431D01*
X123390466Y-62784664D01*
X123390458Y-62784661D01*
X123323420Y-62764977D01*
X123323418Y-62764976D01*
X123252208Y-62754738D01*
X123181000Y-62744500D01*
X111374958Y-62744500D01*
X111374957Y-62744500D01*
X111320284Y-62750484D01*
X111265610Y-62756469D01*
X111239421Y-62762271D01*
X111213231Y-62768074D01*
X111213215Y-62768078D01*
X111109054Y-62803415D01*
X110988618Y-62882132D01*
X110936170Y-62928289D01*
X110936158Y-62928301D01*
X110860057Y-63017505D01*
X110816425Y-63039767D01*
X110769830Y-63024656D01*
X110768928Y-63023872D01*
X110758039Y-63014225D01*
X110650852Y-62919266D01*
X110500222Y-62840208D01*
X110335062Y-62799500D01*
X110335056Y-62799500D01*
X110164944Y-62799500D01*
X110164937Y-62799500D01*
X109999777Y-62840208D01*
X109849148Y-62919266D01*
X109721816Y-63032071D01*
X109721814Y-63032073D01*
X109625182Y-63172068D01*
X109564859Y-63331129D01*
X109544355Y-63499996D01*
X109544355Y-63500003D01*
X109564859Y-63668870D01*
X109625182Y-63827931D01*
X109721814Y-63967926D01*
X109721816Y-63967928D01*
X109721817Y-63967929D01*
X109849148Y-64080734D01*
X109915244Y-64115424D01*
X109946602Y-64153050D01*
X109949500Y-64172091D01*
X109949500Y-67577906D01*
X109930755Y-67623161D01*
X109915244Y-67634575D01*
X109849146Y-67669267D01*
X109721816Y-67782071D01*
X109721814Y-67782073D01*
X109625182Y-67922068D01*
X109564859Y-68081129D01*
X109544355Y-68249996D01*
X109544355Y-68250003D01*
X109564859Y-68418870D01*
X109625182Y-68577931D01*
X109721814Y-68717926D01*
X109721816Y-68717928D01*
X109721817Y-68717929D01*
X109849148Y-68830734D01*
X109888316Y-68851291D01*
X109999777Y-68909791D01*
X110164937Y-68950499D01*
X110164942Y-68950499D01*
X110164944Y-68950500D01*
X110164946Y-68950500D01*
X110335054Y-68950500D01*
X110335056Y-68950500D01*
X110335058Y-68950499D01*
X110335062Y-68950499D01*
X110500222Y-68909791D01*
X110500222Y-68909790D01*
X110500225Y-68909790D01*
X110650852Y-68830734D01*
X110681164Y-68803879D01*
X110727468Y-68787901D01*
X110771508Y-68809344D01*
X110787602Y-68851291D01*
X110792059Y-69430331D01*
X110792060Y-69430346D01*
X110804015Y-69535810D01*
X110804018Y-69535823D01*
X110815218Y-69586367D01*
X110848928Y-69687005D01*
X110889991Y-69750899D01*
X110898688Y-69799104D01*
X110870752Y-69839340D01*
X110836151Y-69849500D01*
X96717179Y-69849500D01*
X96717155Y-69849501D01*
X96686567Y-69849501D01*
X96678159Y-69852232D01*
X96661007Y-69857805D01*
X96651247Y-69860148D01*
X96624695Y-69864354D01*
X96600744Y-69876557D01*
X96591470Y-69880398D01*
X96565911Y-69888703D01*
X96565909Y-69888704D01*
X96544167Y-69904501D01*
X96535605Y-69909748D01*
X96511660Y-69921948D01*
X96511659Y-69921949D01*
X96458852Y-69974753D01*
X96458852Y-69974755D01*
X92899930Y-73533675D01*
X92854675Y-73552420D01*
X92839360Y-73550560D01*
X92835064Y-73549501D01*
X92835057Y-73549500D01*
X92835056Y-73549500D01*
X92664944Y-73549500D01*
X92664937Y-73549500D01*
X92499777Y-73590208D01*
X92349148Y-73669266D01*
X92221816Y-73782071D01*
X92221814Y-73782073D01*
X92125182Y-73922068D01*
X92064859Y-74081129D01*
X92044355Y-74249996D01*
X92044355Y-74250003D01*
X79289620Y-74250003D01*
X79298683Y-67959999D01*
X87144415Y-67959999D01*
X87164738Y-68308931D01*
X87225430Y-68653130D01*
X87225435Y-68653150D01*
X87278599Y-68830730D01*
X87325674Y-68987971D01*
X87409944Y-69183330D01*
X87464111Y-69308904D01*
X87627050Y-69591124D01*
X87638870Y-69611596D01*
X87847588Y-69891953D01*
X88081749Y-70140149D01*
X88087446Y-70146187D01*
X88355181Y-70370843D01*
X88355184Y-70370845D01*
X88355189Y-70370849D01*
X88647207Y-70562913D01*
X88959549Y-70719777D01*
X89287989Y-70839319D01*
X89628086Y-70919923D01*
X89975241Y-70960500D01*
X89975243Y-70960500D01*
X90324757Y-70960500D01*
X90324759Y-70960500D01*
X90671914Y-70919923D01*
X91012011Y-70839319D01*
X91340451Y-70719777D01*
X91652793Y-70562913D01*
X91944811Y-70370849D01*
X92212558Y-70146183D01*
X92452412Y-69891953D01*
X92661130Y-69611596D01*
X92835889Y-69308904D01*
X92974326Y-68987971D01*
X93074569Y-68653136D01*
X93135262Y-68308927D01*
X93155585Y-67960000D01*
X93135262Y-67611073D01*
X93074569Y-67266864D01*
X92974326Y-66932029D01*
X92835889Y-66611096D01*
X92661130Y-66308404D01*
X92452412Y-66028047D01*
X92212558Y-65773817D01*
X92212556Y-65773815D01*
X92212553Y-65773812D01*
X91944818Y-65549156D01*
X91944813Y-65549153D01*
X91944811Y-65549151D01*
X91652793Y-65357087D01*
X91340451Y-65200223D01*
X91340446Y-65200221D01*
X91012015Y-65080682D01*
X90925649Y-65060213D01*
X90671914Y-65000077D01*
X90671910Y-65000076D01*
X90671908Y-65000076D01*
X90477167Y-64977314D01*
X90324759Y-64959500D01*
X89975241Y-64959500D01*
X89850266Y-64974107D01*
X89628091Y-65000076D01*
X89628087Y-65000076D01*
X89628086Y-65000077D01*
X89458037Y-65040378D01*
X89287984Y-65080682D01*
X88959553Y-65200221D01*
X88647207Y-65357087D01*
X88355189Y-65549151D01*
X88355181Y-65549156D01*
X88087446Y-65773812D01*
X87847585Y-66028050D01*
X87638868Y-66308406D01*
X87464111Y-66611095D01*
X87397186Y-66766246D01*
X87334504Y-66911560D01*
X87325675Y-66932027D01*
X87325670Y-66932041D01*
X87225435Y-67266849D01*
X87225430Y-67266869D01*
X87164738Y-67611068D01*
X87144415Y-67959999D01*
X79298683Y-67959999D01*
X79300400Y-66768700D01*
X79300500Y-66767222D01*
X79300500Y-66700000D01*
X79312757Y-66419266D01*
X79317561Y-66309229D01*
X79317802Y-66306475D01*
X79368677Y-65920041D01*
X79369157Y-65917321D01*
X79453517Y-65536794D01*
X79454237Y-65534111D01*
X79487853Y-65427494D01*
X79571437Y-65162396D01*
X79572377Y-65159812D01*
X79721540Y-64799702D01*
X79722711Y-64797194D01*
X79902676Y-64451485D01*
X79904073Y-64449067D01*
X80010420Y-64282134D01*
X80113487Y-64120349D01*
X80115059Y-64118105D01*
X80352339Y-63808876D01*
X80354120Y-63806753D01*
X80480468Y-63668870D01*
X80617429Y-63519404D01*
X80619404Y-63517429D01*
X80822715Y-63331128D01*
X80906753Y-63254120D01*
X80908876Y-63252339D01*
X81218105Y-63015059D01*
X81220349Y-63013487D01*
X81514656Y-62825995D01*
X81549067Y-62804073D01*
X81551485Y-62802676D01*
X81586092Y-62784661D01*
X81897192Y-62622711D01*
X81899702Y-62621540D01*
X82259812Y-62472377D01*
X82262396Y-62471437D01*
X82634117Y-62354235D01*
X82636794Y-62353517D01*
X83017321Y-62269157D01*
X83020041Y-62268677D01*
X83406475Y-62217802D01*
X83409229Y-62217561D01*
X83800000Y-62200500D01*
X83865892Y-62200500D01*
X173134108Y-62200500D01*
X173200000Y-62200500D01*
X173590768Y-62217561D01*
G37*
%TD.AperFunction*%
%TD*%
%TA.AperFunction,NonConductor*%
G36*
X159375497Y-140378469D02*
G01*
X159395211Y-140385368D01*
X159574466Y-140405565D01*
X159753721Y-140385368D01*
X159777805Y-140376940D01*
X159826710Y-140379685D01*
X159859352Y-140416207D01*
X159862944Y-140437347D01*
X159862944Y-140529807D01*
X159863026Y-140530942D01*
X159862944Y-140531185D01*
X159862945Y-140532082D01*
X159862646Y-140532082D01*
X159847552Y-140577417D01*
X159803747Y-140599337D01*
X159799189Y-140599500D01*
X159347451Y-140599500D01*
X159302196Y-140580755D01*
X159283451Y-140535500D01*
X159283614Y-140530936D01*
X159283695Y-140529807D01*
X159290523Y-140434311D01*
X159312447Y-140390511D01*
X159358923Y-140375041D01*
X159375497Y-140378469D01*
G37*
%TD.AperFunction*%
%TA.AperFunction,NonConductor*%
G36*
X134335138Y-140336989D02*
G01*
X134500000Y-140355565D01*
X134662639Y-140337240D01*
X134709704Y-140350800D01*
X134733399Y-140393671D01*
X134733801Y-140400837D01*
X134733801Y-140529807D01*
X134733883Y-140530942D01*
X134733801Y-140531185D01*
X134733802Y-140532083D01*
X134733503Y-140532083D01*
X134718409Y-140577417D01*
X134674604Y-140599337D01*
X134670046Y-140599500D01*
X134327662Y-140599500D01*
X134282407Y-140580755D01*
X134263662Y-140535500D01*
X134263825Y-140530934D01*
X134263906Y-140529807D01*
X134268484Y-140465801D01*
X134264146Y-140405151D01*
X134279615Y-140358677D01*
X134323417Y-140336751D01*
X134335138Y-140336989D01*
G37*
%TD.AperFunction*%
%TA.AperFunction,NonConductor*%
G36*
X108835138Y-140336989D02*
G01*
X109000000Y-140355565D01*
X109162639Y-140337240D01*
X109209704Y-140350800D01*
X109233399Y-140393671D01*
X109233801Y-140400837D01*
X109233801Y-140529807D01*
X109233883Y-140530942D01*
X109233801Y-140531185D01*
X109233802Y-140532083D01*
X109233503Y-140532083D01*
X109218409Y-140577417D01*
X109174604Y-140599337D01*
X109170046Y-140599500D01*
X108827662Y-140599500D01*
X108782407Y-140580755D01*
X108763662Y-140535500D01*
X108763825Y-140530934D01*
X108763906Y-140529807D01*
X108768484Y-140465801D01*
X108764146Y-140405151D01*
X108779615Y-140358677D01*
X108823417Y-140336751D01*
X108835138Y-140336989D01*
G37*
%TD.AperFunction*%
%TA.AperFunction,NonConductor*%
G36*
X110739947Y-64096988D02*
G01*
X110751280Y-64132860D01*
X110778273Y-67639458D01*
X110759877Y-67684856D01*
X110714768Y-67703949D01*
X110671835Y-67687855D01*
X110650856Y-67669269D01*
X110650854Y-67669267D01*
X110650852Y-67669266D01*
X110622380Y-67654322D01*
X110584756Y-67634575D01*
X110553397Y-67596945D01*
X110550499Y-67577906D01*
X110550499Y-65894603D01*
X110550499Y-64172089D01*
X110569243Y-64126837D01*
X110584748Y-64115427D01*
X110650852Y-64080734D01*
X110650862Y-64080724D01*
X110650917Y-64080688D01*
X110650952Y-64080680D01*
X110654280Y-64078934D01*
X110654766Y-64079860D01*
X110698808Y-64070399D01*
X110739947Y-64096988D01*
G37*
%TD.AperFunction*%
%TA.AperFunction,NonConductor*%
G36*
X168298711Y-89535244D02*
G01*
X168314690Y-89581548D01*
X168314340Y-89585398D01*
X168294355Y-89749996D01*
X168294355Y-89753871D01*
X168291879Y-89753871D01*
X168280680Y-89793710D01*
X168275641Y-89799386D01*
X168146228Y-89928799D01*
X168136942Y-89935481D01*
X168137178Y-89935794D01*
X168132449Y-89939365D01*
X168099772Y-89975208D01*
X168098752Y-89976276D01*
X168084495Y-89990533D01*
X168081802Y-89994464D01*
X168079053Y-89997934D01*
X168056759Y-90022391D01*
X168056756Y-90022396D01*
X168051740Y-90035344D01*
X168044866Y-90048386D01*
X168037020Y-90059841D01*
X168037016Y-90059850D01*
X168029442Y-90092051D01*
X168028130Y-90096287D01*
X168016174Y-90127148D01*
X168016174Y-90141037D01*
X168014474Y-90155690D01*
X168011295Y-90169205D01*
X168011294Y-90169209D01*
X168014412Y-90191552D01*
X168015867Y-90201985D01*
X168016174Y-90206404D01*
X168016174Y-92945559D01*
X167997429Y-92990814D01*
X167952174Y-93009559D01*
X167906919Y-92990814D01*
X167892333Y-92968254D01*
X167874817Y-92922068D01*
X167778185Y-92782073D01*
X167778183Y-92782071D01*
X167714187Y-92725376D01*
X167650852Y-92669266D01*
X167650850Y-92669265D01*
X167650848Y-92669263D01*
X167609756Y-92647695D01*
X167578397Y-92610066D01*
X167575500Y-92591027D01*
X167575500Y-89760144D01*
X167594245Y-89714889D01*
X167639500Y-89696144D01*
X167654817Y-89698004D01*
X167664944Y-89700500D01*
X167664946Y-89700500D01*
X167835054Y-89700500D01*
X167835056Y-89700500D01*
X167835058Y-89700499D01*
X167835062Y-89700499D01*
X168000222Y-89659791D01*
X168000222Y-89659790D01*
X168000225Y-89659790D01*
X168150852Y-89580734D01*
X168208367Y-89529779D01*
X168254671Y-89513801D01*
X168298711Y-89535244D01*
G37*
%TD.AperFunction*%
%TA.AperFunction,NonConductor*%
G36*
X83361237Y-140305984D02*
G01*
X83445211Y-140335368D01*
X83624466Y-140355565D01*
X83787105Y-140337240D01*
X83834170Y-140350800D01*
X83857865Y-140393671D01*
X83858267Y-140400837D01*
X83858267Y-140529807D01*
X83858349Y-140530942D01*
X83858267Y-140531185D01*
X83858268Y-140532083D01*
X83857969Y-140532083D01*
X83842875Y-140577417D01*
X83799070Y-140599337D01*
X83794512Y-140599500D01*
X83700000Y-140599500D01*
X83631080Y-140596490D01*
X83316780Y-140582768D01*
X83272386Y-140562067D01*
X83255633Y-140516037D01*
X83257035Y-140505224D01*
X83263499Y-140475513D01*
X83270400Y-140443788D01*
X83270400Y-140443785D01*
X83270400Y-140443780D01*
X83270461Y-140443213D01*
X83270482Y-140442646D01*
X83274210Y-140390511D01*
X83276261Y-140361826D01*
X83298186Y-140318025D01*
X83344663Y-140302556D01*
X83361237Y-140305984D01*
G37*
%TD.AperFunction*%
%TA.AperFunction,Conductor*%
%TO.N,unconnected-(U2-TH-Pad9)*%
G36*
X137525663Y-62874574D02*
G01*
X137571418Y-62927378D01*
X137582612Y-62980540D01*
X137527600Y-67106519D01*
X137485926Y-70232018D01*
X137465349Y-70298789D01*
X137411940Y-70343836D01*
X137361408Y-70354364D01*
X136823971Y-70352070D01*
X136757016Y-70332099D01*
X136711487Y-70279101D01*
X136700500Y-70228071D01*
X136700500Y-66730391D01*
X136720185Y-66663352D01*
X136732352Y-66647417D01*
X136732533Y-66647216D01*
X136827179Y-66483284D01*
X136885674Y-66303256D01*
X136905460Y-66115000D01*
X136885674Y-65926744D01*
X136827179Y-65746716D01*
X136732533Y-65582784D01*
X136605871Y-65442112D01*
X136605870Y-65442111D01*
X136452734Y-65330851D01*
X136452729Y-65330848D01*
X136279807Y-65253857D01*
X136279802Y-65253855D01*
X136134001Y-65222865D01*
X136094646Y-65214500D01*
X135905354Y-65214500D01*
X135872897Y-65221398D01*
X135720197Y-65253855D01*
X135720192Y-65253857D01*
X135547270Y-65330848D01*
X135547265Y-65330851D01*
X135394129Y-65442111D01*
X135267466Y-65582785D01*
X135172821Y-65746715D01*
X135172818Y-65746722D01*
X135114327Y-65926740D01*
X135114326Y-65926744D01*
X135094540Y-66115000D01*
X135114326Y-66303256D01*
X135114327Y-66303259D01*
X135172818Y-66483277D01*
X135172821Y-66483284D01*
X135267466Y-66647215D01*
X135267648Y-66647417D01*
X135267716Y-66647559D01*
X135271285Y-66652471D01*
X135270386Y-66653123D01*
X135297879Y-66710408D01*
X135299500Y-66730391D01*
X135299500Y-68724428D01*
X135279815Y-68791467D01*
X135227011Y-68837222D01*
X135157853Y-68847166D01*
X135102615Y-68824746D01*
X134952734Y-68715851D01*
X134952729Y-68715848D01*
X134779807Y-68638857D01*
X134779802Y-68638855D01*
X134634001Y-68607865D01*
X134594646Y-68599500D01*
X134405354Y-68599500D01*
X134372897Y-68606398D01*
X134220197Y-68638855D01*
X134220192Y-68638857D01*
X134047270Y-68715848D01*
X134047265Y-68715851D01*
X133894129Y-68827111D01*
X133767466Y-68967785D01*
X133672821Y-69131715D01*
X133672818Y-69131722D01*
X133614327Y-69311740D01*
X133614326Y-69311744D01*
X133594540Y-69500000D01*
X133614326Y-69688256D01*
X133614327Y-69688259D01*
X133672818Y-69868277D01*
X133672821Y-69868284D01*
X133767466Y-70032215D01*
X133767648Y-70032417D01*
X133767716Y-70032559D01*
X133771285Y-70037471D01*
X133770386Y-70038123D01*
X133797879Y-70095408D01*
X133799500Y-70115391D01*
X133799500Y-70214630D01*
X133779815Y-70281669D01*
X133727011Y-70327424D01*
X133674971Y-70338629D01*
X125893471Y-70305416D01*
X125826516Y-70285445D01*
X125780987Y-70232447D01*
X125770000Y-70181417D01*
X125770000Y-68712953D01*
X125789685Y-68645914D01*
X125842489Y-68600159D01*
X125911647Y-68590215D01*
X125944434Y-68599673D01*
X125970197Y-68611144D01*
X126155354Y-68650500D01*
X126155355Y-68650500D01*
X126344644Y-68650500D01*
X126344646Y-68650500D01*
X126529803Y-68611144D01*
X126702730Y-68534151D01*
X126855871Y-68422888D01*
X126982533Y-68282216D01*
X127077179Y-68118284D01*
X127135674Y-67938256D01*
X127155460Y-67750000D01*
X127135674Y-67561744D01*
X127077179Y-67381716D01*
X126982533Y-67217784D01*
X126927628Y-67156806D01*
X126882350Y-67106519D01*
X126852120Y-67043527D01*
X126850500Y-67023547D01*
X126850500Y-64226452D01*
X126870185Y-64159413D01*
X126882350Y-64143480D01*
X126982533Y-64032216D01*
X127077179Y-63868284D01*
X127135674Y-63688256D01*
X127155460Y-63500000D01*
X127135674Y-63311744D01*
X127077179Y-63131716D01*
X127024739Y-63040888D01*
X127008267Y-62972989D01*
X127031120Y-62906962D01*
X127086041Y-62863771D01*
X127132127Y-62854889D01*
X137458624Y-62854889D01*
X137525663Y-62874574D01*
G37*
%TD.AperFunction*%
%TD*%
%TA.AperFunction,Conductor*%
%TO.N,unconnected-(U1-TH-Pad9)*%
G36*
X123248039Y-63269685D02*
G01*
X123293794Y-63322489D01*
X123305000Y-63374000D01*
X123305000Y-64978424D01*
X123285315Y-65045463D01*
X123232511Y-65091218D01*
X123163353Y-65101162D01*
X123108115Y-65078742D01*
X122952734Y-64965851D01*
X122952729Y-64965848D01*
X122779807Y-64888857D01*
X122779802Y-64888855D01*
X122634001Y-64857865D01*
X122594646Y-64849500D01*
X122405354Y-64849500D01*
X122372897Y-64856398D01*
X122220197Y-64888855D01*
X122220192Y-64888857D01*
X122047270Y-64965848D01*
X122047265Y-64965851D01*
X121894129Y-65077111D01*
X121767466Y-65217785D01*
X121672821Y-65381715D01*
X121672818Y-65381722D01*
X121614327Y-65561740D01*
X121614326Y-65561744D01*
X121594540Y-65750000D01*
X121614326Y-65938256D01*
X121614327Y-65938259D01*
X121672818Y-66118277D01*
X121672821Y-66118284D01*
X121767466Y-66282215D01*
X121767648Y-66282417D01*
X121767716Y-66282559D01*
X121771285Y-66287471D01*
X121770386Y-66288123D01*
X121797879Y-66345408D01*
X121799500Y-66365391D01*
X121799500Y-70134608D01*
X121779815Y-70201647D01*
X121767656Y-70217574D01*
X121767468Y-70217782D01*
X121767464Y-70217787D01*
X121700947Y-70333000D01*
X121650380Y-70381215D01*
X121593560Y-70395000D01*
X120737191Y-70395000D01*
X120670152Y-70375315D01*
X120624397Y-70322511D01*
X120614453Y-70253353D01*
X120629804Y-70209000D01*
X120645273Y-70182207D01*
X120682179Y-70118284D01*
X120740674Y-69938256D01*
X120760460Y-69750000D01*
X120740674Y-69561744D01*
X120682179Y-69381716D01*
X120587533Y-69217784D01*
X120460871Y-69077112D01*
X120460870Y-69077111D01*
X120307734Y-68965851D01*
X120307729Y-68965848D01*
X120134807Y-68888857D01*
X120134802Y-68888855D01*
X119989000Y-68857865D01*
X119949646Y-68849500D01*
X119760354Y-68849500D01*
X119727897Y-68856398D01*
X119575197Y-68888855D01*
X119575192Y-68888857D01*
X119402270Y-68965848D01*
X119402265Y-68965851D01*
X119249129Y-69077111D01*
X119122466Y-69217785D01*
X119027821Y-69381715D01*
X119027818Y-69381722D01*
X119001144Y-69463818D01*
X118961706Y-69521494D01*
X118897348Y-69548692D01*
X118883213Y-69549500D01*
X111421541Y-69549500D01*
X111354502Y-69529815D01*
X111308747Y-69477011D01*
X111297545Y-69426454D01*
X111250962Y-63374954D01*
X111270130Y-63307765D01*
X111322580Y-63261605D01*
X111374958Y-63250000D01*
X123181000Y-63250000D01*
X123248039Y-63269685D01*
G37*
%TD.AperFunction*%
%TD*%
M02*
