%TF.GenerationSoftware,KiCad,Pcbnew,8.0.0*%
%TF.CreationDate,2024-05-13T21:34:14+10:00*%
%TF.ProjectId,rear_screen,72656172-5f73-4637-9265-656e2e6b6963,v0.3*%
%TF.SameCoordinates,Original*%
%TF.FileFunction,Paste,Top*%
%TF.FilePolarity,Positive*%
%FSLAX46Y46*%
G04 Gerber Fmt 4.6, Leading zero omitted, Abs format (unit mm)*
G04 Created by KiCad (PCBNEW 8.0.0) date 2024-05-13 21:34:14*
%MOMM*%
%LPD*%
G01*
G04 APERTURE LIST*
G04 Aperture macros list*
%AMRoundRect*
0 Rectangle with rounded corners*
0 $1 Rounding radius*
0 $2 $3 $4 $5 $6 $7 $8 $9 X,Y pos of 4 corners*
0 Add a 4 corners polygon primitive as box body*
4,1,4,$2,$3,$4,$5,$6,$7,$8,$9,$2,$3,0*
0 Add four circle primitives for the rounded corners*
1,1,$1+$1,$2,$3*
1,1,$1+$1,$4,$5*
1,1,$1+$1,$6,$7*
1,1,$1+$1,$8,$9*
0 Add four rect primitives between the rounded corners*
20,1,$1+$1,$2,$3,$4,$5,0*
20,1,$1+$1,$4,$5,$6,$7,0*
20,1,$1+$1,$6,$7,$8,$9,0*
20,1,$1+$1,$8,$9,$2,$3,0*%
%AMRotRect*
0 Rectangle, with rotation*
0 The origin of the aperture is its center*
0 $1 length*
0 $2 width*
0 $3 Rotation angle, in degrees counterclockwise*
0 Add horizontal line*
21,1,$1,$2,0,0,$3*%
G04 Aperture macros list end*
%ADD10C,0.010000*%
%ADD11RoundRect,0.112500X-0.187500X-0.112500X0.187500X-0.112500X0.187500X0.112500X-0.187500X0.112500X0*%
%ADD12R,1.200000X1.200000*%
%ADD13R,0.900000X0.600000*%
%ADD14R,0.600000X0.900000*%
%ADD15R,0.600000X1.050000*%
%ADD16RoundRect,0.150000X0.318198X0.106066X0.106066X0.318198X-0.318198X-0.106066X-0.106066X-0.318198X0*%
%ADD17RoundRect,0.150000X0.106066X-0.318198X0.318198X-0.106066X-0.106066X0.318198X-0.318198X0.106066X0*%
%ADD18RoundRect,0.150000X0.159099X-0.371231X0.371231X-0.159099X-0.159099X0.371231X-0.371231X0.159099X0*%
%ADD19RoundRect,0.225000X0.250000X-0.225000X0.250000X0.225000X-0.250000X0.225000X-0.250000X-0.225000X0*%
%ADD20RoundRect,0.200000X-0.275000X0.200000X-0.275000X-0.200000X0.275000X-0.200000X0.275000X0.200000X0*%
%ADD21RotRect,0.600000X0.900000X135.000000*%
%ADD22RotRect,0.600000X0.900000X45.000000*%
%ADD23RotRect,0.600000X1.050000X45.000000*%
%ADD24RoundRect,0.225000X-0.250000X0.225000X-0.250000X-0.225000X0.250000X-0.225000X0.250000X0.225000X0*%
%ADD25RoundRect,0.150000X0.587500X0.150000X-0.587500X0.150000X-0.587500X-0.150000X0.587500X-0.150000X0*%
%ADD26R,0.610000X1.270000*%
%ADD27RoundRect,0.200000X0.275000X-0.200000X0.275000X0.200000X-0.275000X0.200000X-0.275000X-0.200000X0*%
%ADD28RotRect,1.270000X0.610000X315.000000*%
%ADD29R,7.800000X2.170000*%
%ADD30R,7.800000X2.200000*%
%ADD31RoundRect,0.125000X-0.125000X0.537500X-0.125000X-0.537500X0.125000X-0.537500X0.125000X0.537500X0*%
%ADD32R,1.500000X2.500000*%
%ADD33RoundRect,0.125000X0.537500X0.125000X-0.537500X0.125000X-0.537500X-0.125000X0.537500X-0.125000X0*%
%ADD34RoundRect,0.200000X0.200000X0.275000X-0.200000X0.275000X-0.200000X-0.275000X0.200000X-0.275000X0*%
%ADD35RoundRect,0.150000X-0.150000X-0.700000X0.150000X-0.700000X0.150000X0.700000X-0.150000X0.700000X0*%
%ADD36RoundRect,0.500000X-0.500000X-0.900000X0.500000X-0.900000X0.500000X0.900000X-0.500000X0.900000X0*%
%ADD37RoundRect,0.250000X-0.550000X1.500000X-0.550000X-1.500000X0.550000X-1.500000X0.550000X1.500000X0*%
%ADD38RoundRect,0.150000X0.512500X0.150000X-0.512500X0.150000X-0.512500X-0.150000X0.512500X-0.150000X0*%
%ADD39RotRect,1.270000X0.610000X135.000000*%
%ADD40R,2.170000X7.800000*%
%ADD41R,2.200000X7.800000*%
%ADD42RoundRect,0.200000X-0.200000X-0.275000X0.200000X-0.275000X0.200000X0.275000X-0.200000X0.275000X0*%
%ADD43RoundRect,0.218750X-0.256250X0.218750X-0.256250X-0.218750X0.256250X-0.218750X0.256250X0.218750X0*%
%ADD44RoundRect,0.125000X-0.537500X-0.125000X0.537500X-0.125000X0.537500X0.125000X-0.537500X0.125000X0*%
G04 APERTURE END LIST*
D10*
%TO.C,Q10*%
X162600000Y-69893841D02*
X161990000Y-69893841D01*
X161990000Y-69183841D01*
X162600000Y-69183841D01*
X162600000Y-69893841D01*
G36*
X162600000Y-69893841D02*
G01*
X161990000Y-69893841D01*
X161990000Y-69183841D01*
X162600000Y-69183841D01*
X162600000Y-69893841D01*
G37*
X163490000Y-67143841D02*
X162650000Y-67143841D01*
X162650000Y-65643842D01*
X163490000Y-65643841D01*
X163490000Y-67143841D01*
G36*
X163490000Y-67143841D02*
G01*
X162650000Y-67143841D01*
X162650000Y-65643842D01*
X163490000Y-65643841D01*
X163490000Y-67143841D01*
G37*
X163490000Y-68913841D02*
X162650000Y-68913841D01*
X162650000Y-67413842D01*
X163490000Y-67413841D01*
X163490000Y-68913841D01*
G36*
X163490000Y-68913841D02*
G01*
X162650000Y-68913841D01*
X162650000Y-67413842D01*
X163490000Y-67413841D01*
X163490000Y-68913841D01*
G37*
X163882501Y-69893841D02*
X163272500Y-69893840D01*
X163272500Y-69183842D01*
X163882500Y-69183842D01*
X163882501Y-69893841D01*
G36*
X163882501Y-69893841D02*
G01*
X163272500Y-69893840D01*
X163272500Y-69183842D01*
X163882500Y-69183842D01*
X163882501Y-69893841D01*
G37*
X165127500Y-69893840D02*
X164517499Y-69893841D01*
X164517500Y-69183842D01*
X165127500Y-69183842D01*
X165127500Y-69893840D01*
G36*
X165127500Y-69893840D02*
G01*
X164517499Y-69893841D01*
X164517500Y-69183842D01*
X165127500Y-69183842D01*
X165127500Y-69893840D01*
G37*
X165750000Y-65643842D02*
X165750000Y-67143841D01*
X164910000Y-67143841D01*
X164910000Y-65643841D01*
X165750000Y-65643842D01*
G36*
X165750000Y-65643842D02*
G01*
X165750000Y-67143841D01*
X164910000Y-67143841D01*
X164910000Y-65643841D01*
X165750000Y-65643842D01*
G37*
X165750000Y-67413842D02*
X165750000Y-68913841D01*
X164910000Y-68913841D01*
X164910000Y-67413841D01*
X165750000Y-67413842D01*
G36*
X165750000Y-67413842D02*
G01*
X165750000Y-68913841D01*
X164910000Y-68913841D01*
X164910000Y-67413841D01*
X165750000Y-67413842D01*
G37*
X166410000Y-69893841D02*
X165800000Y-69893841D01*
X165800000Y-69183841D01*
X166410000Y-69183841D01*
X166410000Y-69893841D01*
G36*
X166410000Y-69893841D02*
G01*
X165800000Y-69893841D01*
X165800000Y-69183841D01*
X166410000Y-69183841D01*
X166410000Y-69893841D01*
G37*
%TO.C,Q16*%
X104490398Y-96744490D02*
X103896429Y-97338460D01*
X102835769Y-96277800D01*
X103429738Y-95683830D01*
X104490398Y-96744490D01*
G36*
X104490398Y-96744490D02*
G01*
X103896429Y-97338460D01*
X102835769Y-96277800D01*
X103429738Y-95683830D01*
X104490398Y-96744490D01*
G37*
X105741977Y-97996069D02*
X105148008Y-98590039D01*
X104087348Y-97529379D01*
X104681317Y-96935409D01*
X105741977Y-97996069D01*
G36*
X105741977Y-97996069D02*
G01*
X105148008Y-98590039D01*
X104087348Y-97529379D01*
X104681317Y-96935409D01*
X105741977Y-97996069D01*
G37*
X106088460Y-95146429D02*
X105494490Y-95740398D01*
X104433830Y-94679738D01*
X105027800Y-94085769D01*
X106088460Y-95146429D01*
G36*
X106088460Y-95146429D02*
G01*
X105494490Y-95740398D01*
X104433830Y-94679738D01*
X105027800Y-94085769D01*
X106088460Y-95146429D01*
G37*
X105805617Y-99318359D02*
X105374282Y-99749694D01*
X104872236Y-99247648D01*
X105303571Y-98816313D01*
X105805617Y-99318359D01*
G36*
X105805617Y-99318359D02*
G01*
X105374282Y-99749694D01*
X104872236Y-99247648D01*
X105303571Y-98816313D01*
X105805617Y-99318359D01*
G37*
X106712482Y-98411494D02*
X106281146Y-98842829D01*
X105779101Y-98340784D01*
X106210436Y-97909449D01*
X106712482Y-98411494D01*
G36*
X106712482Y-98411494D02*
G01*
X106281146Y-98842829D01*
X105779101Y-98340784D01*
X106210436Y-97909449D01*
X106712482Y-98411494D01*
G37*
X107340039Y-96398008D02*
X106746069Y-96991977D01*
X105685409Y-95931317D01*
X106279379Y-95337348D01*
X107340039Y-96398008D01*
G36*
X107340039Y-96398008D02*
G01*
X106746069Y-96991977D01*
X105685409Y-95931317D01*
X106279379Y-95337348D01*
X107340039Y-96398008D01*
G37*
X107592829Y-97531146D02*
X107161494Y-97962482D01*
X106659449Y-97460436D01*
X107090784Y-97029101D01*
X107592829Y-97531146D01*
G36*
X107592829Y-97531146D02*
G01*
X107161494Y-97962482D01*
X106659449Y-97460436D01*
X107090784Y-97029101D01*
X107592829Y-97531146D01*
G37*
X108499694Y-96624282D02*
X108068359Y-97055617D01*
X107566313Y-96553571D01*
X107997648Y-96122236D01*
X108499694Y-96624282D01*
G36*
X108499694Y-96624282D02*
G01*
X108068359Y-97055617D01*
X107566313Y-96553571D01*
X107997648Y-96122236D01*
X108499694Y-96624282D01*
G37*
%TO.C,Q13*%
X164992750Y-122059441D02*
X164561415Y-122490776D01*
X164059369Y-121988730D01*
X164490704Y-121557395D01*
X164992750Y-122059441D01*
G36*
X164992750Y-122059441D02*
G01*
X164561415Y-122490776D01*
X164059369Y-121988730D01*
X164490704Y-121557395D01*
X164992750Y-122059441D01*
G37*
X165899614Y-121152576D02*
X165468279Y-121583911D01*
X164966234Y-121081866D01*
X165397569Y-120650530D01*
X165899614Y-121152576D01*
G36*
X165899614Y-121152576D02*
G01*
X165468279Y-121583911D01*
X164966234Y-121081866D01*
X165397569Y-120650530D01*
X165899614Y-121152576D01*
G37*
X166873654Y-122681695D02*
X166279684Y-123275664D01*
X165219024Y-122215004D01*
X165812994Y-121621035D01*
X166873654Y-122681695D01*
G36*
X166873654Y-122681695D02*
G01*
X166279684Y-123275664D01*
X165219024Y-122215004D01*
X165812994Y-121621035D01*
X166873654Y-122681695D01*
G37*
X166779962Y-120272228D02*
X166348627Y-120703563D01*
X165846581Y-120201518D01*
X166277917Y-119770183D01*
X166779962Y-120272228D01*
G36*
X166779962Y-120272228D02*
G01*
X166348627Y-120703563D01*
X165846581Y-120201518D01*
X166277917Y-119770183D01*
X166779962Y-120272228D01*
G37*
X167686827Y-119365364D02*
X167255492Y-119796699D01*
X166753446Y-119294653D01*
X167184781Y-118863318D01*
X167686827Y-119365364D01*
G36*
X167686827Y-119365364D02*
G01*
X167255492Y-119796699D01*
X166753446Y-119294653D01*
X167184781Y-118863318D01*
X167686827Y-119365364D01*
G37*
X168125233Y-123933274D02*
X167531263Y-124527243D01*
X166470603Y-123466583D01*
X167064573Y-122872614D01*
X168125233Y-123933274D01*
G36*
X168125233Y-123933274D02*
G01*
X167531263Y-124527243D01*
X166470603Y-123466583D01*
X167064573Y-122872614D01*
X168125233Y-123933274D01*
G37*
X168471715Y-121083633D02*
X167877746Y-121677603D01*
X166817086Y-120616943D01*
X167411055Y-120022973D01*
X168471715Y-121083633D01*
G36*
X168471715Y-121083633D02*
G01*
X167877746Y-121677603D01*
X166817086Y-120616943D01*
X167411055Y-120022973D01*
X168471715Y-121083633D01*
G37*
X169723294Y-122335212D02*
X169129325Y-122929182D01*
X168068665Y-121868522D01*
X168662634Y-121274552D01*
X169723294Y-122335212D01*
G36*
X169723294Y-122335212D02*
G01*
X169129325Y-122929182D01*
X168068665Y-121868522D01*
X168662634Y-121274552D01*
X169723294Y-122335212D01*
G37*
%TO.C,Q7*%
X157250000Y-69905000D02*
X156640000Y-69905000D01*
X156640000Y-69195000D01*
X157250000Y-69195000D01*
X157250000Y-69905000D01*
G36*
X157250000Y-69905000D02*
G01*
X156640000Y-69905000D01*
X156640000Y-69195000D01*
X157250000Y-69195000D01*
X157250000Y-69905000D01*
G37*
X158140000Y-67155000D02*
X157300000Y-67155000D01*
X157300000Y-65655001D01*
X158140000Y-65655000D01*
X158140000Y-67155000D01*
G36*
X158140000Y-67155000D02*
G01*
X157300000Y-67155000D01*
X157300000Y-65655001D01*
X158140000Y-65655000D01*
X158140000Y-67155000D01*
G37*
X158140000Y-68925000D02*
X157300000Y-68925000D01*
X157300000Y-67425001D01*
X158140000Y-67425000D01*
X158140000Y-68925000D01*
G36*
X158140000Y-68925000D02*
G01*
X157300000Y-68925000D01*
X157300000Y-67425001D01*
X158140000Y-67425000D01*
X158140000Y-68925000D01*
G37*
X158532501Y-69905000D02*
X157922500Y-69904999D01*
X157922500Y-69195001D01*
X158532500Y-69195001D01*
X158532501Y-69905000D01*
G36*
X158532501Y-69905000D02*
G01*
X157922500Y-69904999D01*
X157922500Y-69195001D01*
X158532500Y-69195001D01*
X158532501Y-69905000D01*
G37*
X159777500Y-69904999D02*
X159167499Y-69905000D01*
X159167500Y-69195001D01*
X159777500Y-69195001D01*
X159777500Y-69904999D01*
G36*
X159777500Y-69904999D02*
G01*
X159167499Y-69905000D01*
X159167500Y-69195001D01*
X159777500Y-69195001D01*
X159777500Y-69904999D01*
G37*
X160400000Y-65655001D02*
X160400000Y-67155000D01*
X159560000Y-67155000D01*
X159560000Y-65655000D01*
X160400000Y-65655001D01*
G36*
X160400000Y-65655001D02*
G01*
X160400000Y-67155000D01*
X159560000Y-67155000D01*
X159560000Y-65655000D01*
X160400000Y-65655001D01*
G37*
X160400000Y-67425001D02*
X160400000Y-68925000D01*
X159560000Y-68925000D01*
X159560000Y-67425000D01*
X160400000Y-67425001D01*
G36*
X160400000Y-67425001D02*
G01*
X160400000Y-68925000D01*
X159560000Y-68925000D01*
X159560000Y-67425000D01*
X160400000Y-67425001D01*
G37*
X161060000Y-69905000D02*
X160450000Y-69905000D01*
X160450000Y-69195000D01*
X161060000Y-69195000D01*
X161060000Y-69905000D01*
G36*
X161060000Y-69905000D02*
G01*
X160450000Y-69905000D01*
X160450000Y-69195000D01*
X161060000Y-69195000D01*
X161060000Y-69905000D01*
G37*
%TD*%
D11*
%TO.C,D3*%
X93562742Y-69226559D03*
X95662742Y-69226559D03*
%TD*%
D12*
%TO.C,D7*%
X118000001Y-117400000D03*
X120799999Y-117400000D03*
%TD*%
D13*
%TO.C,Q2*%
X150100000Y-77250000D03*
X152400000Y-77250000D03*
X151250000Y-77249999D03*
X151250000Y-76400001D03*
X150100000Y-76400000D03*
X152400000Y-76400000D03*
X150100000Y-75550000D03*
X151250000Y-75550000D03*
X152400000Y-75550000D03*
D14*
X149370000Y-73700000D03*
X150650000Y-73700000D03*
X151850000Y-73700000D03*
X153130000Y-73700000D03*
D15*
X149340000Y-79420000D03*
X150610000Y-79420000D03*
X151890000Y-79420000D03*
X153160000Y-79420000D03*
%TD*%
D13*
%TO.C,Q3*%
X120192742Y-76976559D03*
X122492742Y-76976559D03*
X121342742Y-76976558D03*
X121342742Y-76126560D03*
X120192742Y-76126559D03*
X122492742Y-76126559D03*
X120192742Y-75276559D03*
X121342742Y-75276559D03*
X122492742Y-75276559D03*
D14*
X119462742Y-73426559D03*
X120742742Y-73426559D03*
X121942742Y-73426559D03*
X123222742Y-73426559D03*
D15*
X119432742Y-79146559D03*
X120702742Y-79146559D03*
X121982742Y-79146559D03*
X123252742Y-79146559D03*
%TD*%
D16*
%TO.C,Q11*%
X107417696Y-73502762D03*
X109044041Y-71876417D03*
X108230868Y-72689589D03*
X107629828Y-72088549D03*
X106816655Y-72901721D03*
X108443000Y-71275376D03*
X106215614Y-72300681D03*
X107028787Y-71487508D03*
X107841960Y-70674335D03*
D17*
X104391279Y-71508721D03*
X105296375Y-70603624D03*
X106144903Y-69755096D03*
X107050000Y-68850000D03*
D18*
X108414716Y-75574585D03*
X109312742Y-74676559D03*
X110217838Y-73771463D03*
X111115864Y-72873437D03*
%TD*%
D19*
%TO.C,C3*%
X115199999Y-107775000D03*
X115199999Y-106225000D03*
%TD*%
D20*
%TO.C,R14*%
X154200000Y-114175000D03*
X154200000Y-115825000D03*
%TD*%
D21*
%TO.C,Q6*%
X103335535Y-77624225D03*
X104961880Y-75997880D03*
X104148707Y-76811052D03*
X103547667Y-76210012D03*
X102734494Y-77023184D03*
X104360839Y-75396839D03*
X102133453Y-76422144D03*
X102946626Y-75608971D03*
X103759799Y-74795798D03*
D22*
X100309118Y-75630184D03*
X101214214Y-74725087D03*
X102062742Y-73876559D03*
X102967839Y-72971463D03*
D23*
X104332555Y-79696048D03*
X105230581Y-78798022D03*
X106135677Y-77892926D03*
X107033703Y-76994900D03*
%TD*%
D24*
%TO.C,C12*%
X98800000Y-117275000D03*
X98800000Y-118825000D03*
%TD*%
D25*
%TO.C,Q9*%
X124937500Y-130100000D03*
X124937500Y-128200000D03*
X123062499Y-129150000D03*
%TD*%
D26*
%TO.C,Q10*%
X166105000Y-63918840D03*
X164835000Y-63918841D03*
X163565000Y-63918841D03*
X162295000Y-63918840D03*
%TD*%
D27*
%TO.C,R1*%
X132850001Y-133525001D03*
X132850001Y-131875001D03*
%TD*%
D19*
%TO.C,C6*%
X124899999Y-109375000D03*
X124899999Y-107825000D03*
%TD*%
D28*
%TO.C,Q16*%
X104059063Y-92614986D03*
X103161038Y-93513012D03*
X102263012Y-94411038D03*
X101364986Y-95309063D03*
%TD*%
D27*
%TO.C,R13*%
X123150000Y-133550000D03*
X123150000Y-131900000D03*
%TD*%
D29*
%TO.C,R15*%
X166400000Y-111100000D03*
D30*
X166400000Y-116900000D03*
%TD*%
D31*
%TO.C,U5*%
X102375000Y-116809467D03*
X101725000Y-116809467D03*
X101075000Y-116809467D03*
X100425000Y-116809467D03*
X100425000Y-119084467D03*
X101075000Y-119084467D03*
X101725000Y-119084467D03*
X102375000Y-119084467D03*
%TD*%
D32*
%TO.C,L1*%
X117249998Y-113700000D03*
X120950000Y-113700000D03*
%TD*%
D24*
%TO.C,C8*%
X160000000Y-113225000D03*
X160000000Y-114775000D03*
%TD*%
D25*
%TO.C,Q8*%
X128787499Y-130100000D03*
X128787499Y-128200000D03*
X126912498Y-129150000D03*
%TD*%
D33*
%TO.C,U2*%
X158200000Y-115300000D03*
X158200000Y-114650000D03*
X158200000Y-114000000D03*
X158200000Y-113350000D03*
X155925000Y-113350000D03*
X155925000Y-114000000D03*
X155925000Y-114650000D03*
X155925000Y-115300000D03*
%TD*%
D34*
%TO.C,R6*%
X158175000Y-60000000D03*
X156525000Y-60000000D03*
%TD*%
D35*
%TO.C,J7*%
X108975000Y-134400000D03*
X110225000Y-134400000D03*
X111475000Y-134400000D03*
X112725000Y-134400000D03*
X113975000Y-134400000D03*
X115225000Y-134400000D03*
X116475000Y-134400000D03*
X117725000Y-134400000D03*
D36*
X106450000Y-131550000D03*
X120250000Y-131550000D03*
%TD*%
D37*
%TO.C,C1*%
X112699999Y-112300000D03*
X112699999Y-117700000D03*
%TD*%
D27*
%TO.C,R3*%
X121299999Y-107525000D03*
X121299999Y-105875000D03*
%TD*%
D38*
%TO.C,U3*%
X119499998Y-109549999D03*
X119499998Y-108600000D03*
X119499998Y-107650001D03*
X117224998Y-107650001D03*
X117224998Y-108600000D03*
X117224998Y-109549999D03*
%TD*%
D39*
%TO.C,Q13*%
X168500000Y-125998026D03*
X169398025Y-125100000D03*
X170296051Y-124201974D03*
X171194077Y-123303949D03*
%TD*%
D24*
%TO.C,C4*%
X121299999Y-108925001D03*
X121299999Y-110475001D03*
%TD*%
D11*
%TO.C,D5*%
X140624466Y-69400000D03*
X142724466Y-69400000D03*
%TD*%
D27*
%TO.C,R11*%
X131100000Y-133525000D03*
X131100000Y-131875000D03*
%TD*%
D29*
%TO.C,R12*%
X162000000Y-75900000D03*
D30*
X162000000Y-81700000D03*
%TD*%
D25*
%TO.C,Q5*%
X132787500Y-130225001D03*
X132787500Y-128325001D03*
X130912499Y-129275001D03*
%TD*%
D27*
%TO.C,R9*%
X128850000Y-133550000D03*
X128850000Y-131900000D03*
%TD*%
D37*
%TO.C,C5*%
X125600000Y-112200000D03*
X125600000Y-117800000D03*
%TD*%
D27*
%TO.C,R2*%
X127100000Y-133550000D03*
X127100000Y-131900000D03*
%TD*%
D20*
%TO.C,R16*%
X151100000Y-114125000D03*
X151100000Y-115775000D03*
%TD*%
D19*
%TO.C,C7*%
X123199999Y-109374999D03*
X123199999Y-107824999D03*
%TD*%
D40*
%TO.C,R7*%
X99300000Y-111400000D03*
D41*
X105100000Y-111400000D03*
%TD*%
D11*
%TO.C,D4*%
X116962742Y-69376559D03*
X119062742Y-69376559D03*
%TD*%
D26*
%TO.C,Q7*%
X160755000Y-63929999D03*
X159485000Y-63930000D03*
X158215000Y-63930000D03*
X156945000Y-63929999D03*
%TD*%
D19*
%TO.C,C9*%
X176200000Y-80175000D03*
X176200000Y-78625000D03*
%TD*%
D27*
%TO.C,R8*%
X126643917Y-109413343D03*
X126643917Y-107763343D03*
%TD*%
D42*
%TO.C,R20*%
X105825000Y-91400000D03*
X107475000Y-91400000D03*
%TD*%
D43*
%TO.C,D6*%
X128443917Y-107823697D03*
X128443917Y-109398699D03*
%TD*%
D19*
%TO.C,C2*%
X113699999Y-107775000D03*
X113699999Y-106225000D03*
%TD*%
D34*
%TO.C,R4*%
X119824999Y-105899999D03*
X118174999Y-105899999D03*
%TD*%
D13*
%TO.C,Q4*%
X127612742Y-76926559D03*
X129912742Y-76926559D03*
X128762742Y-76926558D03*
X128762742Y-76076560D03*
X127612742Y-76076559D03*
X129912742Y-76076559D03*
X127612742Y-75226559D03*
X128762742Y-75226559D03*
X129912742Y-75226559D03*
D14*
X126882742Y-73376559D03*
X128162742Y-73376559D03*
X129362742Y-73376559D03*
X130642742Y-73376559D03*
D15*
X126852742Y-79096559D03*
X128122742Y-79096559D03*
X129402742Y-79096559D03*
X130672742Y-79096559D03*
%TD*%
D44*
%TO.C,U4*%
X177862500Y-77725000D03*
X177862500Y-78375000D03*
X177862500Y-79025000D03*
X177862500Y-79675000D03*
X180137500Y-79675000D03*
X180137500Y-79025000D03*
X180137500Y-78375000D03*
X180137500Y-77725000D03*
%TD*%
D27*
%TO.C,R10*%
X124900000Y-133575000D03*
X124900000Y-131925000D03*
%TD*%
D13*
%TO.C,Q1*%
X143400000Y-77300000D03*
X145700000Y-77300000D03*
X144550000Y-77299999D03*
X144550000Y-76450001D03*
X143400000Y-76450000D03*
X145700000Y-76450000D03*
X143400000Y-75600000D03*
X144550000Y-75600000D03*
X145700000Y-75600000D03*
D14*
X142670000Y-73750000D03*
X143950000Y-73750000D03*
X145150000Y-73750000D03*
X146430000Y-73750000D03*
D15*
X142640000Y-79470000D03*
X143910000Y-79470000D03*
X145190000Y-79470000D03*
X146460000Y-79470000D03*
%TD*%
D20*
%TO.C,R18*%
X172000000Y-119725000D03*
X172000000Y-121375000D03*
%TD*%
M02*
