M48
; DRILL file {KiCad 7.0.7} date 2023 September 08, Friday 11:37:07
; FORMAT={-:-/ absolute / inch / decimal}
; #@! TF.CreationDate,2023-09-08T11:37:07+10:00
; #@! TF.GenerationSoftware,Kicad,Pcbnew,7.0.7
; #@! TF.FileFunction,Plated,1,2,PTH
FMAT,2
INCH
; #@! TA.AperFunction,Plated,PTH,ComponentDrill
T1C0.0118
; #@! TA.AperFunction,Plated,PTH,ViaDrill
T2C0.0157
; #@! TA.AperFunction,Plated,PTH,ComponentDrill
T3C0.0236
; #@! TA.AperFunction,Plated,PTH,ComponentDrill
T4C0.1063
; #@! TA.AperFunction,Plated,PTH,ComponentDrill
T5C0.1260
; #@! TA.AperFunction,Plated,PTH,ComponentDrill
T6C0.1535
%
G90
G05
T1
X4.5768Y-2.5591
X4.5768Y-2.6102
X4.5768Y-2.6614
X4.652Y-2.5591
X4.652Y-2.6102
X4.652Y-2.6614
X5.1528Y-2.5768
X5.1528Y-2.628
X5.1528Y-2.6791
X5.228Y-2.5768
X5.228Y-2.628
X5.228Y-2.6791
T2
X3.437Y-3.7402
X3.437Y-3.7992
X3.437Y-3.8583
X3.4961Y-3.7402
X3.4961Y-3.7992
X3.4961Y-3.8583
X3.5551Y-3.7402
X3.5551Y-3.7992
X3.5551Y-3.8583
X3.6516Y-2.9232
X4.3012Y-2.874
X4.3012Y-3.9764
X4.3211Y-4.7646
X4.3211Y-4.8236
X4.3211Y-4.8827
X4.3406Y-2.5
X4.3406Y-2.687
X4.3802Y-4.7646
X4.3802Y-4.8236
X4.3802Y-4.8827
X4.4392Y-4.8237
X4.4392Y-4.8827
X4.4392Y-4.7646
X4.4409Y-2.874
X4.5039Y-2.8898
X4.7187Y-2.7461
X4.8228Y-2.5886
X4.8228Y-2.7854
X4.9114Y-2.6181
X4.9705Y-2.5
X4.9705Y-2.6673
X5.0098Y-3.9862
X5.0098Y-4.7244
X5.0724Y-4.815
X5.0724Y-4.874
X5.0724Y-4.9331
X5.1366Y-4.8145
X5.1366Y-4.8735
X5.1366Y-4.9326
X5.1956Y-4.8735
X5.1956Y-4.8145
X5.1956Y-4.9326
X5.2854Y-2.8248
X5.2953Y-2.7362
X5.3098Y-4.7146
X5.3543Y-2.603
X5.3543Y-2.8248
X5.3698Y-4.8724
X5.3698Y-4.9315
X5.3698Y-4.8133
X5.4289Y-4.8133
X5.4289Y-4.8724
X5.4289Y-4.9315
X5.4878Y-2.6949
X5.4879Y-4.8133
X5.4879Y-4.8724
X5.4879Y-4.9315
X5.5118Y-3.6811
X5.6004Y-2.5
X5.689Y-4.3898
X6.0039Y-4.7047
X6.0039Y-5.1673
X6.0937Y-4.9872
X6.0937Y-5.0463
X6.0937Y-5.1053
X6.1089Y-4.7253
X6.1507Y-4.6835
X6.1507Y-4.767
X6.1528Y-4.9872
X6.1528Y-5.0463
X6.1528Y-5.1053
X6.1924Y-4.6417
X6.1924Y-4.7253
X6.1924Y-4.8088
X6.2008Y-2.6378
X6.2118Y-4.9872
X6.2118Y-5.0463
X6.2118Y-5.1053
X6.2314Y-2.6072
X6.2342Y-4.6835
X6.2342Y-4.767
X6.2598Y-3.8681
X6.2697Y-3.937
X6.2759Y-4.7253
X6.2795Y-3.8091
X6.3091Y-4.0059
X6.3189Y-3.75
X6.3878Y-3.75
X6.3878Y-4.0059
X6.4567Y-3.75
X6.4665Y-4.0059
X6.5256Y-3.75
X6.5256Y-3.8091
X6.5256Y-3.878
X6.5256Y-3.9469
X6.5256Y-4.0059
X6.5354Y-3.4252
X6.5846Y-3.6713
X6.5955Y-3.3681
X6.6043Y-3.5039
X6.624Y-3.6909
X6.6437Y-2.8543
X6.6535Y-3.3661
X6.6535Y-3.5335
X6.8012Y-2.7953
T4
X3.4163Y-5.2362
X3.6998Y-5.2362
X4.4154Y-5.2362
X4.6988Y-5.2362
X5.4193Y-5.2362
X5.7028Y-5.2362
X6.4065Y-5.2382
X6.6899Y-5.2382
X6.7067Y-3.9488
X6.7067Y-4.2323
T5
X3.5492Y-2.6756
X3.5496Y-4.6953
X6.5094Y-2.6748
X6.5106Y-4.6969
T6
X6.4016Y-3.874
X6.4016Y-4.3031
T3
G00X3.2923Y-5.4941
M15
G01X3.2923Y-5.4508
M16
G05
G00X3.8238Y-5.4941
M15
G01X3.8238Y-5.4508
M16
G05
G00X4.2913Y-5.4941
M15
G01X4.2913Y-5.4508
M16
G05
G00X4.8228Y-5.4941
M15
G01X4.8228Y-5.4508
M16
G05
G00X5.2953Y-5.4941
M15
G01X5.2953Y-5.4508
M16
G05
G00X5.8268Y-5.4941
M15
G01X5.8268Y-5.4508
M16
G05
G00X6.2825Y-5.4961
M15
G01X6.2825Y-5.4528
M16
G05
G00X6.752Y-3.7165
M15
G01X6.7913Y-3.7165
M16
G05
G00X6.752Y-4.4606
M15
G01X6.7913Y-4.4606
M16
G05
G00X6.814Y-5.4961
M15
G01X6.814Y-5.4528
M16
G05
G00X6.9646Y-3.8248
M15
G01X6.9213Y-3.8248
M16
G05
G00X6.9646Y-4.3563
M15
G01X6.9213Y-4.3563
M16
G05
T0
M30
