%TF.GenerationSoftware,KiCad,Pcbnew,7.0.6-0*%
%TF.CreationDate,2023-08-20T12:25:08+10:00*%
%TF.ProjectId,rear_screen,72656172-5f73-4637-9265-656e2e6b6963,v0.1a*%
%TF.SameCoordinates,Original*%
%TF.FileFunction,Copper,L1,Top*%
%TF.FilePolarity,Positive*%
%FSLAX46Y46*%
G04 Gerber Fmt 4.6, Leading zero omitted, Abs format (unit mm)*
G04 Created by KiCad (PCBNEW 7.0.6-0) date 2023-08-20 12:25:08*
%MOMM*%
%LPD*%
G01*
G04 APERTURE LIST*
G04 Aperture macros list*
%AMRoundRect*
0 Rectangle with rounded corners*
0 $1 Rounding radius*
0 $2 $3 $4 $5 $6 $7 $8 $9 X,Y pos of 4 corners*
0 Add a 4 corners polygon primitive as box body*
4,1,4,$2,$3,$4,$5,$6,$7,$8,$9,$2,$3,0*
0 Add four circle primitives for the rounded corners*
1,1,$1+$1,$2,$3*
1,1,$1+$1,$4,$5*
1,1,$1+$1,$6,$7*
1,1,$1+$1,$8,$9*
0 Add four rect primitives between the rounded corners*
20,1,$1+$1,$2,$3,$4,$5,0*
20,1,$1+$1,$4,$5,$6,$7,0*
20,1,$1+$1,$6,$7,$8,$9,0*
20,1,$1+$1,$8,$9,$2,$3,0*%
%AMFreePoly0*
4,1,9,2.975000,-2.350000,1.425000,-2.350000,1.425000,-2.100000,-1.650000,-2.100000,-1.650000,2.100000,1.425000,2.100000,1.425000,2.350000,2.975000,2.350000,2.975000,-2.350000,2.975000,-2.350000,$1*%
G04 Aperture macros list end*
%TA.AperFunction,ComponentPad*%
%ADD10R,0.900000X2.000000*%
%TD*%
%TA.AperFunction,ComponentPad*%
%ADD11RoundRect,1.025000X1.025000X1.025000X-1.025000X1.025000X-1.025000X-1.025000X1.025000X-1.025000X0*%
%TD*%
%TA.AperFunction,ComponentPad*%
%ADD12C,4.100000*%
%TD*%
%TA.AperFunction,SMDPad,CuDef*%
%ADD13RoundRect,0.200000X-0.200000X-0.275000X0.200000X-0.275000X0.200000X0.275000X-0.200000X0.275000X0*%
%TD*%
%TA.AperFunction,ComponentPad*%
%ADD14C,5.600000*%
%TD*%
%TA.AperFunction,SMDPad,CuDef*%
%ADD15RoundRect,0.112500X0.187500X0.112500X-0.187500X0.112500X-0.187500X-0.112500X0.187500X-0.112500X0*%
%TD*%
%TA.AperFunction,SMDPad,CuDef*%
%ADD16R,1.200000X1.200000*%
%TD*%
%TA.AperFunction,SMDPad,CuDef*%
%ADD17R,0.700000X1.150000*%
%TD*%
%TA.AperFunction,SMDPad,CuDef*%
%ADD18FreePoly0,270.000000*%
%TD*%
%TA.AperFunction,SMDPad,CuDef*%
%ADD19RoundRect,0.150000X-0.650000X-0.150000X0.650000X-0.150000X0.650000X0.150000X-0.650000X0.150000X0*%
%TD*%
%TA.AperFunction,ComponentPad*%
%ADD20C,0.500000*%
%TD*%
%TA.AperFunction,SMDPad,CuDef*%
%ADD21R,2.410000X3.100000*%
%TD*%
%TA.AperFunction,SMDPad,CuDef*%
%ADD22RoundRect,0.225000X-0.250000X0.225000X-0.250000X-0.225000X0.250000X-0.225000X0.250000X0.225000X0*%
%TD*%
%TA.AperFunction,SMDPad,CuDef*%
%ADD23R,1.240000X0.600000*%
%TD*%
%TA.AperFunction,SMDPad,CuDef*%
%ADD24R,1.240000X0.300000*%
%TD*%
%TA.AperFunction,ComponentPad*%
%ADD25O,2.100000X1.000000*%
%TD*%
%TA.AperFunction,ComponentPad*%
%ADD26O,1.800000X1.000000*%
%TD*%
%TA.AperFunction,ComponentPad*%
%ADD27C,4.916000*%
%TD*%
%TA.AperFunction,ComponentPad*%
%ADD28R,4.916000X4.916000*%
%TD*%
%TA.AperFunction,ComponentPad*%
%ADD29O,2.600000X1.300000*%
%TD*%
%TA.AperFunction,ComponentPad*%
%ADD30R,2.000000X0.900000*%
%TD*%
%TA.AperFunction,ComponentPad*%
%ADD31RoundRect,1.025000X-1.025000X1.025000X-1.025000X-1.025000X1.025000X-1.025000X1.025000X1.025000X0*%
%TD*%
%TA.AperFunction,SMDPad,CuDef*%
%ADD32R,1.500000X2.500000*%
%TD*%
%TA.AperFunction,SMDPad,CuDef*%
%ADD33RoundRect,0.150000X-0.700000X0.150000X-0.700000X-0.150000X0.700000X-0.150000X0.700000X0.150000X0*%
%TD*%
%TA.AperFunction,SMDPad,CuDef*%
%ADD34RoundRect,0.500000X-0.900000X0.500000X-0.900000X-0.500000X0.900000X-0.500000X0.900000X0.500000X0*%
%TD*%
%TA.AperFunction,SMDPad,CuDef*%
%ADD35RoundRect,0.250000X0.550000X-1.500000X0.550000X1.500000X-0.550000X1.500000X-0.550000X-1.500000X0*%
%TD*%
%TA.AperFunction,SMDPad,CuDef*%
%ADD36RoundRect,0.200000X0.200000X0.275000X-0.200000X0.275000X-0.200000X-0.275000X0.200000X-0.275000X0*%
%TD*%
%TA.AperFunction,SMDPad,CuDef*%
%ADD37RoundRect,0.200000X-0.275000X0.200000X-0.275000X-0.200000X0.275000X-0.200000X0.275000X0.200000X0*%
%TD*%
%TA.AperFunction,SMDPad,CuDef*%
%ADD38RoundRect,0.150000X-0.512500X-0.150000X0.512500X-0.150000X0.512500X0.150000X-0.512500X0.150000X0*%
%TD*%
%TA.AperFunction,SMDPad,CuDef*%
%ADD39RoundRect,0.225000X0.250000X-0.225000X0.250000X0.225000X-0.250000X0.225000X-0.250000X-0.225000X0*%
%TD*%
%TA.AperFunction,SMDPad,CuDef*%
%ADD40R,1.150000X0.700000*%
%TD*%
%TA.AperFunction,SMDPad,CuDef*%
%ADD41FreePoly0,180.000000*%
%TD*%
%TA.AperFunction,SMDPad,CuDef*%
%ADD42RoundRect,0.218750X0.256250X-0.218750X0.256250X0.218750X-0.256250X0.218750X-0.256250X-0.218750X0*%
%TD*%
%TA.AperFunction,SMDPad,CuDef*%
%ADD43RoundRect,0.112500X-0.187500X-0.112500X0.187500X-0.112500X0.187500X0.112500X-0.187500X0.112500X0*%
%TD*%
%TA.AperFunction,ViaPad*%
%ADD44C,0.800000*%
%TD*%
%TA.AperFunction,Conductor*%
%ADD45C,0.400000*%
%TD*%
%TA.AperFunction,Conductor*%
%ADD46C,0.200000*%
%TD*%
%TA.AperFunction,Conductor*%
%ADD47C,0.600000*%
%TD*%
%TA.AperFunction,Conductor*%
%ADD48C,0.500000*%
%TD*%
%TA.AperFunction,Conductor*%
%ADD49C,0.250000*%
%TD*%
G04 APERTURE END LIST*
D10*
%TO.P,J2,*%
%TO.N,*%
X98400000Y-139000000D03*
X84900000Y-139000000D03*
D11*
%TO.P,J2,1,Pin_1*%
%TO.N,Net-(D2-A)*%
X88050000Y-133000000D03*
D12*
%TO.P,J2,2,Pin_2*%
%TO.N,VIN*%
X95250000Y-133000000D03*
%TD*%
D13*
%TO.P,R7,1*%
%TO.N,Net-(D6-A)*%
X89325000Y-72989999D03*
%TO.P,R7,2*%
%TO.N,+5V*%
X90975000Y-72989999D03*
%TD*%
D14*
%TO.P,H1,1*%
%TO.N,N/C*%
X90150000Y-67960000D03*
%TD*%
D10*
%TO.P,J4,*%
%TO.N,*%
X150800000Y-139000000D03*
X137300000Y-139000000D03*
D11*
%TO.P,J4,1,Pin_1*%
%TO.N,Net-(D4-A)*%
X140450000Y-133000000D03*
D12*
%TO.P,J4,2,Pin_2*%
%TO.N,VIN*%
X147650000Y-133000000D03*
%TD*%
D15*
%TO.P,D3,1,K*%
%TO.N,VIN*%
X118750000Y-129700000D03*
%TO.P,D3,2,A*%
%TO.N,Net-(D3-A)*%
X116650000Y-129700000D03*
%TD*%
D16*
%TO.P,D7,1,K*%
%TO.N,Net-(D7-K)*%
X152899999Y-85125000D03*
%TO.P,D7,2,A*%
%TO.N,GND*%
X150099999Y-85125000D03*
%TD*%
D17*
%TO.P,Q2,1,S*%
%TO.N,GND*%
X160180000Y-120230000D03*
%TO.P,Q2,2,S*%
X158910000Y-120230000D03*
%TO.P,Q2,3,S*%
X157630000Y-120230000D03*
%TO.P,Q2,4,G*%
%TO.N,Net-(Q1-G)*%
X156360000Y-120230000D03*
D18*
%TO.P,Q2,5,D*%
%TO.N,Net-(D5-A)*%
X158270000Y-123500000D03*
%TD*%
D19*
%TO.P,U2,1,NC*%
%TO.N,unconnected-(U2-NC-Pad1)*%
X124490712Y-84890111D03*
%TO.P,U2,2,IN_A*%
%TO.N,GPIO10*%
X124490712Y-86160111D03*
%TO.P,U2,3,GND*%
%TO.N,GND*%
X124490712Y-87430111D03*
%TO.P,U2,4,IN_B*%
%TO.N,GPIO11*%
X124490712Y-88700111D03*
%TO.P,U2,5,~{OUT_B}*%
%TO.N,Net-(Q3-G)*%
X129790712Y-88700111D03*
%TO.P,U2,6,V+*%
%TO.N,VIN*%
X129790712Y-87430111D03*
%TO.P,U2,7,~{OUT_A}*%
%TO.N,Net-(Q1-G)*%
X129790712Y-86160111D03*
%TO.P,U2,8,NC*%
%TO.N,unconnected-(U2-NC-Pad8)*%
X129790712Y-84890111D03*
D20*
%TO.P,U2,9,TH*%
%TO.N,unconnected-(U2-TH-Pad9)*%
X126185712Y-85495111D03*
X126185712Y-86795111D03*
X126185712Y-88095111D03*
D21*
X127140712Y-86795111D03*
D20*
X128095712Y-85495111D03*
X128095712Y-86795111D03*
X128095712Y-88095111D03*
%TD*%
D17*
%TO.P,Q3,1,S*%
%TO.N,GND*%
X144710000Y-119830000D03*
%TO.P,Q3,2,S*%
X143440000Y-119830000D03*
%TO.P,Q3,3,S*%
X142160000Y-119830000D03*
%TO.P,Q3,4,G*%
%TO.N,Net-(Q3-G)*%
X140890000Y-119830000D03*
D18*
%TO.P,Q3,5,D*%
%TO.N,Net-(D4-A)*%
X142800000Y-123100000D03*
%TD*%
D22*
%TO.P,C3,1*%
%TO.N,VIN*%
X156200000Y-94250000D03*
%TO.P,C3,2*%
%TO.N,GND*%
X156200000Y-95800000D03*
%TD*%
D23*
%TO.P,J13,A1,GND*%
%TO.N,GND*%
X171800000Y-87080000D03*
%TO.P,J13,A4,VBUS*%
%TO.N,VBUS*%
X171800000Y-86280000D03*
D24*
%TO.P,J13,A5,CC1*%
%TO.N,Net-(J13-CC1)*%
X171800000Y-85130000D03*
%TO.P,J13,A6,D+*%
%TO.N,USB_D+*%
X171800000Y-84130000D03*
%TO.P,J13,A7,D-*%
%TO.N,USB_D-*%
X171800000Y-83630000D03*
%TO.P,J13,A8,SBU1*%
%TO.N,unconnected-(J13-SBU1-PadA8)*%
X171800000Y-82630000D03*
D23*
%TO.P,J13,A9,VBUS*%
%TO.N,VBUS*%
X171800000Y-81480000D03*
%TO.P,J13,A12,GND*%
%TO.N,GND*%
X171800000Y-80680000D03*
%TO.P,J13,B1,GND*%
X171800000Y-80680000D03*
%TO.P,J13,B4,VBUS*%
%TO.N,VBUS*%
X171800000Y-81480000D03*
D24*
%TO.P,J13,B5,CC2*%
%TO.N,Net-(J13-CC2)*%
X171800000Y-82130000D03*
%TO.P,J13,B6,D+*%
%TO.N,USB_D+*%
X171800000Y-83130000D03*
%TO.P,J13,B7,D-*%
%TO.N,USB_D-*%
X171800000Y-84630000D03*
%TO.P,J13,B8,SBU2*%
%TO.N,unconnected-(J13-SBU2-PadB8)*%
X171800000Y-85630000D03*
D23*
%TO.P,J13,B9,VBUS*%
%TO.N,VBUS*%
X171800000Y-86280000D03*
%TO.P,J13,B12,GND*%
%TO.N,GND*%
X171800000Y-87080000D03*
D25*
%TO.P,J13,S1,SHIELD*%
X172400000Y-88200000D03*
D26*
X176600000Y-88200000D03*
D25*
X172400000Y-79560000D03*
D26*
X176600000Y-79560000D03*
%TD*%
D22*
%TO.P,C9,1*%
%TO.N,VIN*%
X133595000Y-87400000D03*
%TO.P,C9,2*%
%TO.N,GND*%
X133595000Y-88950000D03*
%TD*%
D17*
%TO.P,Q6,1,S*%
%TO.N,GND*%
X115260000Y-118530000D03*
%TO.P,Q6,2,S*%
X113990000Y-118530000D03*
%TO.P,Q6,3,S*%
X112710000Y-118530000D03*
%TO.P,Q6,4,G*%
%TO.N,Net-(Q6-G)*%
X111440000Y-118530000D03*
D18*
%TO.P,Q6,5,D*%
%TO.N,Net-(D3-A)*%
X113350000Y-121800000D03*
%TD*%
D22*
%TO.P,C10,1*%
%TO.N,VIN*%
X120095000Y-88225000D03*
%TO.P,C10,2*%
%TO.N,GND*%
X120095000Y-89775000D03*
%TD*%
D13*
%TO.P,R2,1*%
%TO.N,GND*%
X165550000Y-82530000D03*
%TO.P,R2,2*%
%TO.N,Net-(J13-CC2)*%
X167200000Y-82530000D03*
%TD*%
D10*
%TO.P,J5,*%
%TO.N,*%
X174350000Y-139050000D03*
X160850000Y-139050000D03*
D11*
%TO.P,J5,1,Pin_1*%
%TO.N,Net-(D5-A)*%
X164000000Y-133050000D03*
D12*
%TO.P,J5,2,Pin_2*%
%TO.N,VIN*%
X171200000Y-133050000D03*
%TD*%
D19*
%TO.P,U1,1,NC*%
%TO.N,unconnected-(U1-NC-Pad1)*%
X111005000Y-85895000D03*
%TO.P,U1,2,IN_A*%
%TO.N,GPIO12*%
X111005000Y-87165000D03*
%TO.P,U1,3,GND*%
%TO.N,GND*%
X111005000Y-88435000D03*
%TO.P,U1,4,IN_B*%
%TO.N,GPIO13*%
X111005000Y-89705000D03*
%TO.P,U1,5,~{OUT_B}*%
%TO.N,Net-(Q7-G)*%
X116305000Y-89705000D03*
%TO.P,U1,6,V+*%
%TO.N,VIN*%
X116305000Y-88435000D03*
%TO.P,U1,7,~{OUT_A}*%
%TO.N,Net-(Q6-G)*%
X116305000Y-87165000D03*
%TO.P,U1,8,NC*%
%TO.N,unconnected-(U1-NC-Pad8)*%
X116305000Y-85895000D03*
D20*
%TO.P,U1,9,TH*%
%TO.N,unconnected-(U1-TH-Pad9)*%
X112700000Y-86500000D03*
X112700000Y-87800000D03*
X112700000Y-89100000D03*
D21*
X113655000Y-87800000D03*
D20*
X114610000Y-86500000D03*
X114610000Y-87800000D03*
X114610000Y-89100000D03*
%TD*%
D13*
%TO.P,R5,1*%
%TO.N,VIN*%
X89550000Y-81800000D03*
%TO.P,R5,2*%
%TO.N,GPIO14*%
X91200000Y-81800000D03*
%TD*%
D27*
%TO.P,J6,1,Pin_1*%
%TO.N,GND*%
X162600000Y-98400000D03*
D28*
%TO.P,J6,2,Pin_2*%
%TO.N,VIN*%
X162600000Y-109300000D03*
D29*
%TO.P,J6,S1*%
%TO.N,N/C*%
X172000000Y-113300000D03*
%TO.P,J6,S2*%
X172000000Y-94400000D03*
%TD*%
D14*
%TO.P,H3,1*%
%TO.N,N/C*%
X165370000Y-119300000D03*
%TD*%
D30*
%TO.P,J1,*%
%TO.N,*%
X176350000Y-97150000D03*
X176350000Y-110650000D03*
D31*
%TO.P,J1,1,Pin_1*%
%TO.N,GND*%
X170350000Y-100300000D03*
D12*
%TO.P,J1,2,Pin_2*%
%TO.N,VIN*%
X170350000Y-107500000D03*
%TD*%
D22*
%TO.P,C6,1*%
%TO.N,+5V*%
X146000000Y-93150000D03*
%TO.P,C6,2*%
%TO.N,GND*%
X146000000Y-94700000D03*
%TD*%
%TO.P,C8,1*%
%TO.N,VIN*%
X131995000Y-87400000D03*
%TO.P,C8,2*%
%TO.N,GND*%
X131995000Y-88950000D03*
%TD*%
D32*
%TO.P,L1,1,1*%
%TO.N,Net-(D7-K)*%
X153650000Y-88825000D03*
%TO.P,L1,2,2*%
%TO.N,+5V*%
X149950000Y-88825000D03*
%TD*%
D14*
%TO.P,H2,1*%
%TO.N,N/C*%
X165339531Y-67939531D03*
%TD*%
D33*
%TO.P,J7,1,Pin_1*%
%TO.N,+5V*%
X95900000Y-73025000D03*
%TO.P,J7,2,Pin_2*%
%TO.N,GND*%
X95900000Y-74275000D03*
%TO.P,J7,3,Pin_3*%
%TO.N,GPIO10*%
X95900000Y-75525000D03*
%TO.P,J7,4,Pin_4*%
%TO.N,GPIO11*%
X95900000Y-76775000D03*
%TO.P,J7,5,Pin_5*%
%TO.N,GPIO12*%
X95900000Y-78025000D03*
%TO.P,J7,6,Pin_6*%
%TO.N,GPIO13*%
X95900000Y-79275000D03*
%TO.P,J7,7,Pin_7*%
%TO.N,GPIO14*%
X95900000Y-80525000D03*
%TO.P,J7,8,Pin_8*%
%TO.N,GPIO21*%
X95900000Y-81775000D03*
D34*
%TO.P,J7,MP*%
%TO.N,N/C*%
X98750000Y-70500000D03*
X98750000Y-84300000D03*
%TD*%
D35*
%TO.P,C1,1*%
%TO.N,VIN*%
X158200000Y-91425001D03*
%TO.P,C1,2*%
%TO.N,GND*%
X158200000Y-86025001D03*
%TD*%
D36*
%TO.P,R1,1*%
%TO.N,Net-(J13-CC1)*%
X167200000Y-84030000D03*
%TO.P,R1,2*%
%TO.N,GND*%
X165550000Y-84030000D03*
%TD*%
%TO.P,R6,1*%
%TO.N,GPIO14*%
X91200000Y-80200000D03*
%TO.P,R6,2*%
%TO.N,GND*%
X89550000Y-80200000D03*
%TD*%
D37*
%TO.P,R3,1*%
%TO.N,+5V*%
X149600000Y-95000001D03*
%TO.P,R3,2*%
%TO.N,Net-(U3-FB)*%
X149600000Y-96650001D03*
%TD*%
D38*
%TO.P,U3,1,BST*%
%TO.N,Net-(U3-BST)*%
X151400000Y-92975000D03*
%TO.P,U3,2,GND*%
%TO.N,GND*%
X151400000Y-93925000D03*
%TO.P,U3,3,FB*%
%TO.N,Net-(U3-FB)*%
X151400000Y-94875000D03*
%TO.P,U3,4,EN*%
%TO.N,VIN*%
X153675000Y-94875000D03*
%TO.P,U3,5,VIN*%
X153675000Y-93925000D03*
%TO.P,U3,6,LX*%
%TO.N,Net-(D7-K)*%
X153675000Y-92975000D03*
%TD*%
D15*
%TO.P,D2,1,K*%
%TO.N,VIN*%
X92450000Y-129600000D03*
%TO.P,D2,2,A*%
%TO.N,Net-(D2-A)*%
X90350000Y-129600000D03*
%TD*%
D39*
%TO.P,C4,1*%
%TO.N,Net-(U3-BST)*%
X149600000Y-93600000D03*
%TO.P,C4,2*%
%TO.N,Net-(D7-K)*%
X149600000Y-92050000D03*
%TD*%
D15*
%TO.P,D5,1,K*%
%TO.N,VIN*%
X169150000Y-129700000D03*
%TO.P,D5,2,A*%
%TO.N,Net-(D5-A)*%
X167050000Y-129700000D03*
%TD*%
D10*
%TO.P,J3,*%
%TO.N,*%
X124600000Y-139000000D03*
X111100000Y-139000000D03*
D11*
%TO.P,J3,1,Pin_1*%
%TO.N,Net-(D3-A)*%
X114250000Y-133000000D03*
D12*
%TO.P,J3,2,Pin_2*%
%TO.N,VIN*%
X121450000Y-133000000D03*
%TD*%
D14*
%TO.P,H4,1*%
%TO.N,N/C*%
X90160000Y-119260000D03*
%TD*%
D22*
%TO.P,C11,1*%
%TO.N,VIN*%
X118495000Y-88224999D03*
%TO.P,C11,2*%
%TO.N,GND*%
X118495000Y-89774999D03*
%TD*%
D40*
%TO.P,Q7,1,S*%
%TO.N,GND*%
X92725435Y-98385877D03*
%TO.P,Q7,2,S*%
X92725435Y-97115877D03*
%TO.P,Q7,3,S*%
X92725435Y-95835877D03*
%TO.P,Q7,4,G*%
%TO.N,Net-(Q7-G)*%
X92725435Y-94565877D03*
D41*
%TO.P,Q7,5,D*%
%TO.N,Net-(D2-A)*%
X89455435Y-96475877D03*
%TD*%
D35*
%TO.P,C5,1*%
%TO.N,+5V*%
X145300000Y-90325000D03*
%TO.P,C5,2*%
%TO.N,GND*%
X145300000Y-84725000D03*
%TD*%
D22*
%TO.P,C7,1*%
%TO.N,+5V*%
X147700000Y-93150000D03*
%TO.P,C7,2*%
%TO.N,GND*%
X147700000Y-94700000D03*
%TD*%
D15*
%TO.P,D4,1,K*%
%TO.N,VIN*%
X145050000Y-129600000D03*
%TO.P,D4,2,A*%
%TO.N,Net-(D4-A)*%
X142950000Y-129600000D03*
%TD*%
D36*
%TO.P,R8,1*%
%TO.N,+5V*%
X91000000Y-74600000D03*
%TO.P,R8,2*%
%TO.N,Net-(D6-A)*%
X89350000Y-74600000D03*
%TD*%
D42*
%TO.P,D6,1,K*%
%TO.N,GND*%
X87750000Y-74477499D03*
%TO.P,D6,2,A*%
%TO.N,Net-(D6-A)*%
X87750000Y-72902499D03*
%TD*%
D22*
%TO.P,C2,1*%
%TO.N,VIN*%
X158300000Y-94250000D03*
%TO.P,C2,2*%
%TO.N,GND*%
X158300000Y-95800000D03*
%TD*%
D13*
%TO.P,R4,1*%
%TO.N,Net-(U3-FB)*%
X151075000Y-96625001D03*
%TO.P,R4,2*%
%TO.N,GND*%
X152725000Y-96625001D03*
%TD*%
D17*
%TO.P,Q4,1,S*%
%TO.N,GND*%
X135160000Y-119880000D03*
%TO.P,Q4,2,S*%
X133890000Y-119880000D03*
%TO.P,Q4,3,S*%
X132610000Y-119880000D03*
%TO.P,Q4,4,G*%
%TO.N,Net-(Q3-G)*%
X131340000Y-119880000D03*
D18*
%TO.P,Q4,5,D*%
%TO.N,Net-(D4-A)*%
X133250000Y-123150000D03*
%TD*%
D43*
%TO.P,D1,1,K*%
%TO.N,VIN*%
X167550000Y-87800000D03*
%TO.P,D1,2,A*%
%TO.N,VBUS*%
X169650000Y-87800000D03*
%TD*%
D17*
%TO.P,Q1,1,S*%
%TO.N,GND*%
X173410000Y-120230000D03*
%TO.P,Q1,2,S*%
X172140000Y-120230000D03*
%TO.P,Q1,3,S*%
X170860000Y-120230000D03*
%TO.P,Q1,4,G*%
%TO.N,Net-(Q1-G)*%
X169590000Y-120230000D03*
D18*
%TO.P,Q1,5,D*%
%TO.N,Net-(D5-A)*%
X171500000Y-123500000D03*
%TD*%
D44*
%TO.N,GPIO11*%
X120900000Y-85800000D03*
X123380000Y-88680000D03*
%TO.N,GPIO13*%
X101700000Y-82800000D03*
X106400000Y-89200000D03*
%TO.N,Net-(D2-A)*%
X88800000Y-95000000D03*
X90300000Y-95000002D03*
X87300001Y-95000000D03*
X87300002Y-98000000D03*
X90300000Y-96500000D03*
X88800000Y-98000000D03*
X88800000Y-96500000D03*
X90300000Y-98000000D03*
X87300001Y-96500000D03*
%TO.N,Net-(D3-A)*%
X111856428Y-124020710D03*
X113356427Y-121020711D03*
X114856428Y-122520712D03*
X111856428Y-121020712D03*
X111856428Y-122520710D03*
X114856428Y-124020712D03*
X114856429Y-121020712D03*
X113356428Y-124020712D03*
X113356428Y-122520710D03*
%TO.N,Net-(D4-A)*%
X133269300Y-123787718D03*
X131640000Y-125300000D03*
X144323295Y-123759064D03*
X133269300Y-122287718D03*
X134769300Y-122287718D03*
X142823295Y-123759064D03*
X142823295Y-122259064D03*
X142823295Y-125259064D03*
X131640000Y-122300000D03*
X141323295Y-125259064D03*
X131640000Y-123800000D03*
X144323295Y-125259063D03*
X144323295Y-122259064D03*
X134769299Y-123787718D03*
X141323295Y-123759064D03*
X141323296Y-122259064D03*
X133269300Y-125287718D03*
X134769300Y-125287718D03*
%TO.N,Net-(D5-A)*%
X159781536Y-124209616D03*
X171400000Y-124000000D03*
X158281536Y-125709616D03*
X156781536Y-122709615D03*
X172900000Y-125500000D03*
X169900000Y-125500000D03*
X156781536Y-125709616D03*
X169900000Y-124000000D03*
X159781536Y-125709616D03*
X169900000Y-122500000D03*
X172900000Y-124000000D03*
X158281537Y-122709616D03*
X171400000Y-122500000D03*
X159781536Y-122709616D03*
X171400000Y-125500000D03*
X156781536Y-124209617D03*
X158281537Y-124209616D03*
X172900000Y-122500000D03*
%TO.N,VIN*%
X159700000Y-91400000D03*
X88600000Y-81800000D03*
X119700000Y-86900000D03*
X166400000Y-87800000D03*
X133595000Y-86075000D03*
%TO.N,Net-(J13-CC1)*%
X169900000Y-85100000D03*
X167370678Y-85117727D03*
%TO.N,Net-(J13-CC2)*%
X167375000Y-81530000D03*
X170000000Y-82600000D03*
%TO.N,Net-(Q1-G)*%
X168600000Y-121600000D03*
X156350000Y-119050000D03*
X153600000Y-107500000D03*
X134750000Y-85250000D03*
%TO.N,Net-(Q3-G)*%
X131300000Y-118800000D03*
X129800000Y-105500000D03*
X140921719Y-118734840D03*
X129790712Y-91300000D03*
%TO.N,Net-(Q7-G)*%
X107900000Y-94500000D03*
X98000000Y-94500000D03*
%TO.N,Net-(Q6-G)*%
X111450000Y-104750000D03*
X118000000Y-86900000D03*
%TD*%
D45*
%TO.N,GPIO10*%
X123740000Y-86140000D02*
X124500000Y-86140000D01*
X107700000Y-84300000D02*
X121900000Y-84300000D01*
X121900000Y-84300000D02*
X123740000Y-86140000D01*
X95900000Y-75525000D02*
X98925000Y-75525000D01*
X98925000Y-75525000D02*
X107700000Y-84300000D01*
%TO.N,GPIO11*%
X120200000Y-85100000D02*
X107300000Y-85100000D01*
X123380000Y-88680000D02*
X124500000Y-88680000D01*
X98975000Y-76775000D02*
X95900000Y-76775000D01*
X120900000Y-85800000D02*
X120200000Y-85100000D01*
X107300000Y-85100000D02*
X98975000Y-76775000D01*
%TO.N,GPIO12*%
X98200000Y-78000000D02*
X98700000Y-78000000D01*
X98175000Y-78025000D02*
X98200000Y-78000000D01*
X98700000Y-78000000D02*
X107865000Y-87165000D01*
X95900000Y-78025000D02*
X98175000Y-78025000D01*
X107865000Y-87165000D02*
X111005000Y-87165000D01*
%TO.N,GPIO13*%
X101700000Y-82700000D02*
X98275000Y-79275000D01*
X98275000Y-79275000D02*
X95900000Y-79275000D01*
X106905000Y-89705000D02*
X111005000Y-89705000D01*
X101700000Y-82800000D02*
X101700000Y-82700000D01*
X106400000Y-89200000D02*
X106905000Y-89705000D01*
D46*
%TO.N,GPIO14*%
X91425000Y-80400000D02*
X95775000Y-80400000D01*
X95775000Y-80400000D02*
X95900000Y-80525000D01*
X91200000Y-81800000D02*
X91200000Y-80200000D01*
X91200000Y-80200000D02*
X91400000Y-80400000D01*
D47*
%TO.N,Net-(U3-BST)*%
X150225000Y-92975000D02*
X151399999Y-92975000D01*
X149600000Y-93600000D02*
X150225000Y-92975000D01*
D48*
%TO.N,+5V*%
X148675000Y-94104594D02*
X149570406Y-95000000D01*
X147700000Y-93150000D02*
X148654594Y-94104594D01*
D47*
X136700000Y-83500000D02*
X143525000Y-90325000D01*
D49*
X90974998Y-74575000D02*
X90999999Y-74600000D01*
D47*
X143525000Y-90325000D02*
X145300000Y-90325000D01*
D49*
X90975000Y-72989999D02*
X95864999Y-72989999D01*
X90975000Y-72989999D02*
X90974998Y-74575000D01*
D47*
X95900000Y-73025000D02*
X97725000Y-73025000D01*
D48*
X148654594Y-94104594D02*
X148675000Y-94104594D01*
D47*
X108200000Y-83500000D02*
X136700000Y-83500000D01*
D49*
X95864999Y-72989999D02*
X95900000Y-73025000D01*
D47*
X97725000Y-73025000D02*
X108200000Y-83500000D01*
D48*
X149570406Y-95000000D02*
X149599999Y-95000000D01*
D47*
%TO.N,Net-(U3-FB)*%
X149600000Y-96650000D02*
X151050000Y-96649999D01*
X151050000Y-96649999D02*
X151074999Y-96625000D01*
X151074999Y-96625000D02*
X151075000Y-95199999D01*
X151075000Y-95199999D02*
X151400000Y-94875000D01*
D45*
%TO.N,VIN*%
X92450000Y-129600000D02*
X92450000Y-130200000D01*
X92450000Y-130200000D02*
X95250000Y-133000000D01*
X169150000Y-129700000D02*
X170459478Y-129700000D01*
X119700000Y-86900000D02*
X119700000Y-87195001D01*
X118750000Y-130300000D02*
X121450000Y-133000000D01*
X170459478Y-129700000D02*
X171200000Y-130440522D01*
X133595000Y-87400000D02*
X133595000Y-86075000D01*
X116340000Y-88400000D02*
X120080000Y-88400000D01*
X116305000Y-88435000D02*
X116340000Y-88400000D01*
X159700000Y-91400000D02*
X159675000Y-91425000D01*
X167550000Y-87800000D02*
X166400000Y-87800000D01*
D46*
X89550000Y-81800000D02*
X88600000Y-81800000D01*
D45*
X129800000Y-87410000D02*
X133585000Y-87410000D01*
X120080000Y-88400000D02*
X120080000Y-87575000D01*
X145050000Y-130400000D02*
X147650000Y-133000000D01*
X119700000Y-87195001D02*
X120094999Y-87590000D01*
X171200000Y-130440522D02*
X171200000Y-133050000D01*
X145050000Y-129600000D02*
X145050000Y-130400000D01*
X118750000Y-129700000D02*
X118750000Y-130300000D01*
X159675000Y-91425000D02*
X158200000Y-91425000D01*
D48*
%TO.N,GND*%
X152562500Y-96462500D02*
X152725001Y-96625000D01*
X151400000Y-93925000D02*
X152100000Y-93924999D01*
D47*
X171800000Y-87079999D02*
X171800000Y-87600000D01*
X171800000Y-87600000D02*
X172400000Y-88200000D01*
D48*
X152562500Y-94387500D02*
X152562500Y-96462500D01*
X152100000Y-93924999D02*
X152562500Y-94387500D01*
D47*
%TO.N,VBUS*%
X168525000Y-85930000D02*
X168875000Y-86280000D01*
X169775000Y-81480000D02*
X168924999Y-81480000D01*
X171799999Y-81480000D02*
X169775000Y-81480000D01*
X168525000Y-81880000D02*
X168525000Y-85930000D01*
D45*
X169675000Y-86380000D02*
X169575000Y-86280000D01*
D47*
X168924999Y-81480000D02*
X168525000Y-81880000D01*
X171800000Y-86280000D02*
X168875000Y-86280000D01*
D45*
X169675000Y-87880000D02*
X169675000Y-86380000D01*
D46*
%TO.N,Net-(J13-CC1)*%
X169900000Y-85100000D02*
X169930000Y-85130000D01*
X169930000Y-85130000D02*
X171800000Y-85130000D01*
X167370678Y-84200678D02*
X167370678Y-85117727D01*
X167200000Y-84030000D02*
X167370678Y-84200678D01*
%TO.N,USB_D+*%
X172775000Y-84129999D02*
X171800000Y-84129999D01*
X171800000Y-83130001D02*
X172800000Y-83130000D01*
X172800000Y-83130000D02*
X172925000Y-83255000D01*
X172925000Y-83255000D02*
X172925000Y-83979999D01*
X172925000Y-83979999D02*
X172775000Y-84129999D01*
%TO.N,USB_D-*%
X170775000Y-83805000D02*
X170775000Y-84530001D01*
X170875000Y-84630000D02*
X171800000Y-84630000D01*
X170950000Y-83630000D02*
X170775000Y-83805000D01*
X171800000Y-83630000D02*
X170950000Y-83630000D01*
X170775000Y-84530001D02*
X170875000Y-84630000D01*
%TO.N,Net-(J13-CC2)*%
X170000000Y-82600000D02*
X170470000Y-82130000D01*
X170470000Y-82130000D02*
X171800000Y-82130000D01*
X167375000Y-81530000D02*
X167375000Y-82355000D01*
X167375000Y-82355000D02*
X167200000Y-82530000D01*
D45*
%TO.N,Net-(Q1-G)*%
X169590000Y-120610000D02*
X169590000Y-120230000D01*
X168600000Y-121600000D02*
X169590000Y-120610000D01*
X153600000Y-116300000D02*
X156350000Y-119050000D01*
X156360000Y-119060000D02*
X156350000Y-119050000D01*
X153600000Y-107500000D02*
X153600000Y-116300000D01*
X156360000Y-120230000D02*
X156360000Y-119060000D01*
X132237096Y-86160111D02*
X133397207Y-85000000D01*
X133397207Y-85000000D02*
X134500000Y-85000000D01*
X134500000Y-85000000D02*
X134750000Y-85250000D01*
X129790712Y-86160111D02*
X132237096Y-86160111D01*
%TO.N,Net-(Q3-G)*%
X140921719Y-118734840D02*
X140921719Y-119798281D01*
X131340000Y-118840000D02*
X131340000Y-119880000D01*
X129800000Y-117300000D02*
X129800000Y-105500000D01*
X131300000Y-118800000D02*
X131340000Y-118840000D01*
X131300000Y-118800000D02*
X129800000Y-117300000D01*
X140921719Y-119798281D02*
X140890000Y-119830000D01*
X129790712Y-91300000D02*
X129790712Y-88700111D01*
%TO.N,Net-(Q7-G)*%
X97934123Y-94565877D02*
X92725435Y-94565877D01*
X98000000Y-94500000D02*
X97934123Y-94565877D01*
X107900000Y-94500000D02*
X111510000Y-94500000D01*
X111510000Y-94500000D02*
X116305000Y-89705000D01*
%TO.N,Net-(Q6-G)*%
X117735000Y-87165000D02*
X116305000Y-87165000D01*
X111440000Y-104760000D02*
X111440000Y-118530000D01*
X111450000Y-104750000D02*
X111440000Y-104760000D01*
X118000000Y-86900000D02*
X117735000Y-87165000D01*
D49*
%TO.N,Net-(D6-A)*%
X89324999Y-74575000D02*
X89349998Y-74600000D01*
X89325000Y-72989999D02*
X87837498Y-72990001D01*
X87837498Y-72990001D02*
X87750000Y-72902501D01*
X89325000Y-72989999D02*
X89324999Y-74575000D01*
%TD*%
%TA.AperFunction,Conductor*%
%TO.N,Net-(D7-K)*%
G36*
X154344386Y-84144685D02*
G01*
X154390141Y-84197489D01*
X154401340Y-84247645D01*
X154500070Y-93281069D01*
X154481119Y-93348319D01*
X154428818Y-93394649D01*
X154359772Y-93405347D01*
X154319787Y-93392911D01*
X154312806Y-93389354D01*
X154312801Y-93389352D01*
X154219024Y-93374500D01*
X153130982Y-93374500D01*
X153062347Y-93385370D01*
X153037196Y-93389354D01*
X153037194Y-93389354D01*
X153037192Y-93389355D01*
X153037189Y-93389356D01*
X153033680Y-93391144D01*
X153028958Y-93392030D01*
X153027913Y-93392370D01*
X153027869Y-93392234D01*
X152965010Y-93404035D01*
X152900271Y-93377753D01*
X152881362Y-93359102D01*
X152817618Y-93281069D01*
X152200000Y-92525000D01*
X152199999Y-92524999D01*
X152195824Y-92523597D01*
X152159777Y-92501261D01*
X152158741Y-92502689D01*
X152150845Y-92496953D01*
X152150842Y-92496950D01*
X152061263Y-92451307D01*
X152037801Y-92439352D01*
X151944024Y-92424500D01*
X151944019Y-92424500D01*
X151475665Y-92424500D01*
X151475664Y-92424500D01*
X150234397Y-92424500D01*
X150168174Y-92422238D01*
X150168173Y-92422238D01*
X150168171Y-92422238D01*
X150125170Y-92432717D01*
X150118930Y-92433902D01*
X150075079Y-92439930D01*
X150058616Y-92447081D01*
X150038575Y-92453820D01*
X150021150Y-92458066D01*
X150021145Y-92458068D01*
X149982567Y-92479758D01*
X149976881Y-92482582D01*
X149936279Y-92500220D01*
X149922357Y-92511546D01*
X149904883Y-92523438D01*
X149889246Y-92532230D01*
X149889239Y-92532235D01*
X149857939Y-92563535D01*
X149853225Y-92567789D01*
X149818891Y-92595722D01*
X149808541Y-92610385D01*
X149794920Y-92626554D01*
X149558292Y-92863181D01*
X149496969Y-92896666D01*
X149470611Y-92899500D01*
X149325487Y-92899500D01*
X149258448Y-92879815D01*
X149212693Y-92827011D01*
X149201604Y-92770116D01*
X149209283Y-92593527D01*
X149209391Y-92586191D01*
X149209141Y-92568287D01*
X149208670Y-92565779D01*
X149193055Y-92482569D01*
X149193054Y-92482565D01*
X149193053Y-92482560D01*
X149187057Y-92466486D01*
X149187051Y-92466413D01*
X149169112Y-92418379D01*
X149169113Y-92418379D01*
X149168601Y-92417008D01*
X149168598Y-92417004D01*
X149168234Y-92416027D01*
X149154497Y-92379199D01*
X149152780Y-92375771D01*
X149137817Y-92335655D01*
X149130000Y-92292324D01*
X149130000Y-91807676D01*
X149137818Y-91764344D01*
X149148693Y-91735186D01*
X149165610Y-91704205D01*
X149182154Y-91682106D01*
X149207107Y-91657153D01*
X149229208Y-91640608D01*
X149260181Y-91623694D01*
X149311190Y-91604668D01*
X149327995Y-91599722D01*
X149344035Y-91596213D01*
X149344048Y-91596208D01*
X149344051Y-91596208D01*
X149394571Y-91579253D01*
X149444734Y-91556119D01*
X151071250Y-90580210D01*
X151117661Y-90544545D01*
X151158179Y-90505255D01*
X151179256Y-90482151D01*
X151225464Y-90393816D01*
X151245149Y-90326777D01*
X151255499Y-90254792D01*
X151255499Y-87449000D01*
X151249660Y-87394687D01*
X151238454Y-87343176D01*
X151231218Y-87316802D01*
X151216236Y-87290492D01*
X151200168Y-87222495D01*
X151200237Y-87221312D01*
X151392514Y-84241016D01*
X151416474Y-84175384D01*
X151472114Y-84133123D01*
X151516257Y-84125000D01*
X154277347Y-84125000D01*
X154344386Y-84144685D01*
G37*
%TD.AperFunction*%
%TD*%
%TA.AperFunction,Conductor*%
%TO.N,+5V*%
G36*
X150943038Y-87344685D02*
G01*
X150988793Y-87397489D01*
X150999999Y-87449000D01*
X150999999Y-90254792D01*
X150980314Y-90321831D01*
X150939796Y-90361121D01*
X149313280Y-91337030D01*
X149262744Y-91353990D01*
X149247882Y-91355588D01*
X149119773Y-91403372D01*
X149010313Y-91485313D01*
X148928373Y-91594771D01*
X148880587Y-91722889D01*
X148874500Y-91779498D01*
X148874500Y-92320481D01*
X148874501Y-92320490D01*
X148880587Y-92377114D01*
X148925285Y-92496950D01*
X148928372Y-92505226D01*
X148929247Y-92506395D01*
X148929759Y-92507766D01*
X148932624Y-92513014D01*
X148931869Y-92513425D01*
X148953666Y-92571858D01*
X148953865Y-92586094D01*
X148930584Y-93121540D01*
X148922883Y-93159487D01*
X148880587Y-93272887D01*
X148874500Y-93329498D01*
X148874500Y-93699827D01*
X148854815Y-93766866D01*
X148802011Y-93812621D01*
X148749531Y-93823823D01*
X145752069Y-93800406D01*
X145685186Y-93780199D01*
X145663832Y-93762540D01*
X143749170Y-91779498D01*
X142934792Y-90936035D01*
X142902389Y-90874135D01*
X142899999Y-90849915D01*
X142899999Y-87448999D01*
X142919684Y-87381961D01*
X142972488Y-87336206D01*
X143023999Y-87325000D01*
X150875999Y-87325000D01*
X150943038Y-87344685D01*
G37*
%TD.AperFunction*%
%TD*%
%TA.AperFunction,Conductor*%
%TO.N,VIN*%
G36*
X159191926Y-89444684D02*
G01*
X159237681Y-89497488D01*
X159248882Y-89550106D01*
X159201097Y-94902107D01*
X159180815Y-94968968D01*
X159127604Y-95014250D01*
X159077102Y-95025000D01*
X155599999Y-95025000D01*
X154927156Y-95409481D01*
X154868734Y-95425780D01*
X153190099Y-95467746D01*
X153122589Y-95449743D01*
X153075528Y-95398099D01*
X153063000Y-95343785D01*
X153063000Y-94454638D01*
X153065834Y-94428279D01*
X153066858Y-94423573D01*
X153063157Y-94371837D01*
X153063000Y-94367415D01*
X153063000Y-94351700D01*
X153060764Y-94336152D01*
X153060290Y-94331745D01*
X153056592Y-94280022D01*
X153056590Y-94280014D01*
X153054907Y-94275502D01*
X153048350Y-94249812D01*
X153047665Y-94245043D01*
X153026112Y-94197851D01*
X153024432Y-94193795D01*
X153006296Y-94145169D01*
X153003405Y-94141307D01*
X152989879Y-94118510D01*
X152987877Y-94114127D01*
X152980356Y-94105447D01*
X152953911Y-94074927D01*
X152951133Y-94071479D01*
X152941729Y-94058917D01*
X152941725Y-94058912D01*
X152941721Y-94058907D01*
X152936319Y-94053505D01*
X152902834Y-93992182D01*
X152900000Y-93965824D01*
X152900000Y-93778584D01*
X152919685Y-93711545D01*
X152972489Y-93665790D01*
X153006279Y-93656880D01*
X153006165Y-93656272D01*
X153012152Y-93655147D01*
X153012153Y-93655148D01*
X153073670Y-93643598D01*
X153076075Y-93643147D01*
X153076076Y-93643148D01*
X153080798Y-93642262D01*
X153080802Y-93642260D01*
X153081903Y-93642054D01*
X153081938Y-93642046D01*
X153119190Y-93635052D01*
X153141458Y-93631525D01*
X153160847Y-93630000D01*
X154189156Y-93630000D01*
X154208550Y-93631526D01*
X154225500Y-93634210D01*
X154236634Y-93635973D01*
X154254067Y-93640042D01*
X154283893Y-93649319D01*
X154299292Y-93653586D01*
X154361542Y-93656241D01*
X154398889Y-93657834D01*
X154398891Y-93657834D01*
X154398891Y-93657833D01*
X154398892Y-93657834D01*
X154467938Y-93647136D01*
X154512151Y-93636177D01*
X154598236Y-93585902D01*
X154650537Y-93539572D01*
X154681801Y-93506455D01*
X154727041Y-93417620D01*
X154738411Y-93377269D01*
X154745992Y-93350372D01*
X154755554Y-93278287D01*
X154755554Y-93278284D01*
X154755555Y-93278277D01*
X154742403Y-92074965D01*
X154745148Y-92047641D01*
X154900000Y-91325000D01*
X154900000Y-89548999D01*
X154919685Y-89481960D01*
X154972489Y-89436205D01*
X155023995Y-89424999D01*
X159124887Y-89424999D01*
X159191926Y-89444684D01*
G37*
%TD.AperFunction*%
%TD*%
%TA.AperFunction,Conductor*%
%TO.N,GND*%
G36*
X172175000Y-80380000D02*
G01*
X172175000Y-80629556D01*
X172119900Y-80767847D01*
X172119899Y-80767851D01*
X172119899Y-80767853D01*
X172110437Y-80825562D01*
X172080168Y-80888532D01*
X172020658Y-80925142D01*
X171988072Y-80929500D01*
X169675000Y-80929500D01*
X169675000Y-78379999D01*
X172175000Y-78379999D01*
X172175000Y-80380000D01*
G37*
%TD.AperFunction*%
%TD*%
%TA.AperFunction,Conductor*%
%TO.N,GND*%
G36*
X152341364Y-93711327D02*
G01*
X152385128Y-93765792D01*
X152394500Y-93813083D01*
X152394500Y-93979359D01*
X152395950Y-94006413D01*
X152395950Y-94006416D01*
X152398077Y-94026198D01*
X152385670Y-94094957D01*
X152338059Y-94146094D01*
X152270359Y-94163372D01*
X152211667Y-94146184D01*
X152206405Y-94143072D01*
X152172898Y-94123256D01*
X152172896Y-94123255D01*
X152172894Y-94123254D01*
X152015073Y-94077402D01*
X152015067Y-94077401D01*
X151978196Y-94074500D01*
X151978194Y-94074500D01*
X150821806Y-94074500D01*
X150821804Y-94074500D01*
X150784932Y-94077401D01*
X150724257Y-94095029D01*
X150654387Y-94094829D01*
X150595718Y-94056886D01*
X150566875Y-93993247D01*
X150566305Y-93963349D01*
X150574116Y-93886897D01*
X150600513Y-93822205D01*
X150657694Y-93782054D01*
X150697474Y-93775500D01*
X151978196Y-93775500D01*
X151996631Y-93774049D01*
X152015069Y-93772598D01*
X152015071Y-93772597D01*
X152015073Y-93772597D01*
X152056691Y-93760505D01*
X152172898Y-93726744D01*
X152207380Y-93706351D01*
X152275101Y-93689168D01*
X152341364Y-93711327D01*
G37*
%TD.AperFunction*%
%TA.AperFunction,Conductor*%
G36*
X173589474Y-62217504D02*
G01*
X173594826Y-62217973D01*
X173978659Y-62268506D01*
X173983967Y-62269442D01*
X174361920Y-62353232D01*
X174367119Y-62354625D01*
X174736341Y-62471040D01*
X174741422Y-62472889D01*
X175099088Y-62621039D01*
X175103958Y-62623310D01*
X175447350Y-62802069D01*
X175452028Y-62804771D01*
X175778526Y-63012772D01*
X175782959Y-63015876D01*
X176090077Y-63251536D01*
X176094222Y-63255015D01*
X176379630Y-63516543D01*
X176383456Y-63520369D01*
X176644984Y-63805777D01*
X176648463Y-63809922D01*
X176884123Y-64117040D01*
X176887227Y-64121473D01*
X177095228Y-64447971D01*
X177097934Y-64452657D01*
X177265804Y-64775132D01*
X177276680Y-64796023D01*
X177278967Y-64800927D01*
X177427110Y-65158578D01*
X177428961Y-65163663D01*
X177545368Y-65532858D01*
X177546768Y-65538085D01*
X177630556Y-65916030D01*
X177631496Y-65921359D01*
X177682024Y-66305155D01*
X177682496Y-66310546D01*
X177699500Y-66700000D01*
X177699500Y-96117581D01*
X177679815Y-96184620D01*
X177627011Y-96230375D01*
X177557853Y-96240319D01*
X177532168Y-96233763D01*
X177457485Y-96205909D01*
X177457483Y-96205908D01*
X177397883Y-96199501D01*
X177397881Y-96199500D01*
X177397873Y-96199500D01*
X177397864Y-96199500D01*
X175302129Y-96199500D01*
X175302123Y-96199501D01*
X175242516Y-96205908D01*
X175107671Y-96256202D01*
X175107664Y-96256206D01*
X174992455Y-96342452D01*
X174992452Y-96342455D01*
X174906206Y-96457664D01*
X174906202Y-96457671D01*
X174855908Y-96592517D01*
X174849501Y-96652116D01*
X174849500Y-96652135D01*
X174849500Y-97647870D01*
X174849501Y-97647876D01*
X174855908Y-97707483D01*
X174906202Y-97842328D01*
X174906206Y-97842335D01*
X174992452Y-97957544D01*
X174992455Y-97957547D01*
X175107664Y-98043793D01*
X175107671Y-98043797D01*
X175242517Y-98094091D01*
X175242516Y-98094091D01*
X175248525Y-98094737D01*
X175302127Y-98100500D01*
X177397872Y-98100499D01*
X177457483Y-98094091D01*
X177457482Y-98094090D01*
X177532167Y-98066236D01*
X177601859Y-98061252D01*
X177663182Y-98094737D01*
X177696666Y-98156061D01*
X177699500Y-98182418D01*
X177699500Y-109617581D01*
X177679815Y-109684620D01*
X177627011Y-109730375D01*
X177557853Y-109740319D01*
X177532168Y-109733763D01*
X177457485Y-109705909D01*
X177457483Y-109705908D01*
X177397883Y-109699501D01*
X177397881Y-109699500D01*
X177397873Y-109699500D01*
X177397864Y-109699500D01*
X175302129Y-109699500D01*
X175302123Y-109699501D01*
X175242516Y-109705908D01*
X175107671Y-109756202D01*
X175107664Y-109756206D01*
X174992455Y-109842452D01*
X174992452Y-109842455D01*
X174906206Y-109957664D01*
X174906202Y-109957671D01*
X174855908Y-110092517D01*
X174849501Y-110152116D01*
X174849500Y-110152135D01*
X174849500Y-111147870D01*
X174849501Y-111147876D01*
X174855908Y-111207483D01*
X174906202Y-111342328D01*
X174906206Y-111342335D01*
X174992452Y-111457544D01*
X174992455Y-111457547D01*
X175107664Y-111543793D01*
X175107671Y-111543797D01*
X175242517Y-111594091D01*
X175242516Y-111594091D01*
X175248525Y-111594737D01*
X175302127Y-111600500D01*
X177397872Y-111600499D01*
X177457483Y-111594091D01*
X177457482Y-111594090D01*
X177532167Y-111566236D01*
X177601859Y-111561252D01*
X177663182Y-111594737D01*
X177696666Y-111656061D01*
X177699500Y-111682418D01*
X177699500Y-136100000D01*
X177682496Y-136489453D01*
X177682024Y-136494844D01*
X177631496Y-136878640D01*
X177630556Y-136883969D01*
X177546768Y-137261914D01*
X177545368Y-137267141D01*
X177428961Y-137636336D01*
X177427110Y-137641421D01*
X177278967Y-137999072D01*
X177276680Y-138003976D01*
X177097934Y-138347342D01*
X177095228Y-138352028D01*
X176887227Y-138678526D01*
X176884123Y-138682959D01*
X176648463Y-138990077D01*
X176644984Y-138994222D01*
X176383456Y-139279630D01*
X176379630Y-139283456D01*
X176094222Y-139544984D01*
X176090077Y-139548463D01*
X175782959Y-139784123D01*
X175778526Y-139787227D01*
X175491124Y-139970322D01*
X175424007Y-139989740D01*
X175357046Y-139969790D01*
X175311501Y-139916805D01*
X175300499Y-139865741D01*
X175300499Y-138002129D01*
X175300498Y-138002123D01*
X175300497Y-138002116D01*
X175294091Y-137942517D01*
X175275442Y-137892517D01*
X175243797Y-137807671D01*
X175243793Y-137807664D01*
X175157547Y-137692455D01*
X175157544Y-137692452D01*
X175042335Y-137606206D01*
X175042328Y-137606202D01*
X174907482Y-137555908D01*
X174907483Y-137555908D01*
X174847883Y-137549501D01*
X174847881Y-137549500D01*
X174847873Y-137549500D01*
X174847864Y-137549500D01*
X173852129Y-137549500D01*
X173852123Y-137549501D01*
X173792516Y-137555908D01*
X173657671Y-137606202D01*
X173657664Y-137606206D01*
X173542455Y-137692452D01*
X173542452Y-137692455D01*
X173456206Y-137807664D01*
X173456202Y-137807671D01*
X173405908Y-137942517D01*
X173399828Y-137999072D01*
X173399501Y-138002123D01*
X173399500Y-138002135D01*
X173399500Y-140097870D01*
X173399501Y-140097876D01*
X173405908Y-140157483D01*
X173456202Y-140292328D01*
X173456203Y-140292329D01*
X173456204Y-140292331D01*
X173505024Y-140357546D01*
X173530063Y-140390994D01*
X173554480Y-140456458D01*
X173539628Y-140524731D01*
X173490223Y-140574137D01*
X173436205Y-140589187D01*
X173200000Y-140599500D01*
X168129500Y-140599500D01*
X168062461Y-140579815D01*
X168016706Y-140527011D01*
X168005500Y-140475500D01*
X168005500Y-131930134D01*
X168025185Y-131863095D01*
X168058993Y-131828130D01*
X169176227Y-131055924D01*
X169276812Y-130964099D01*
X169319249Y-130913281D01*
X169391662Y-130797947D01*
X169423700Y-130687674D01*
X169431802Y-130659788D01*
X169431802Y-130659786D01*
X169431804Y-130659780D01*
X169441100Y-130593785D01*
X169441263Y-130592952D01*
X169441544Y-130590636D01*
X169441550Y-130590594D01*
X169441551Y-130590590D01*
X169441362Y-130524856D01*
X169460854Y-130457761D01*
X169513527Y-130411854D01*
X169565362Y-130400500D01*
X170117959Y-130400500D01*
X170184998Y-130420185D01*
X170205640Y-130436819D01*
X170261095Y-130492274D01*
X170294580Y-130553597D01*
X170289596Y-130623289D01*
X170247724Y-130679222D01*
X170219063Y-130695247D01*
X170111902Y-130737676D01*
X169830678Y-130892280D01*
X169830660Y-130892291D01*
X169571044Y-131080913D01*
X169571034Y-131080921D01*
X169337087Y-131300611D01*
X169132522Y-131547888D01*
X169132520Y-131547891D01*
X168960562Y-131818855D01*
X168960558Y-131818861D01*
X168823918Y-132109235D01*
X168823916Y-132109240D01*
X168724745Y-132414457D01*
X168664607Y-132729709D01*
X168664606Y-132729716D01*
X168644457Y-133049994D01*
X168644457Y-133050005D01*
X168664606Y-133370283D01*
X168664607Y-133370290D01*
X168724745Y-133685542D01*
X168823916Y-133990759D01*
X168823918Y-133990764D01*
X168960558Y-134281138D01*
X168960562Y-134281144D01*
X169132520Y-134552108D01*
X169132522Y-134552111D01*
X169337087Y-134799388D01*
X169571034Y-135019078D01*
X169571044Y-135019086D01*
X169830660Y-135207708D01*
X169830666Y-135207711D01*
X169830672Y-135207716D01*
X170111903Y-135362324D01*
X170410294Y-135480466D01*
X170410293Y-135480466D01*
X170683056Y-135550499D01*
X170721139Y-135560277D01*
X170787935Y-135568715D01*
X171039524Y-135600499D01*
X171039533Y-135600499D01*
X171039536Y-135600500D01*
X171039538Y-135600500D01*
X171360462Y-135600500D01*
X171360464Y-135600500D01*
X171360467Y-135600499D01*
X171360475Y-135600499D01*
X171550463Y-135576497D01*
X171678861Y-135560277D01*
X171989706Y-135480466D01*
X172288097Y-135362324D01*
X172569328Y-135207716D01*
X172828964Y-135019080D01*
X173062911Y-134799390D01*
X173267478Y-134552110D01*
X173439439Y-134281142D01*
X173576084Y-133990758D01*
X173675256Y-133685538D01*
X173735392Y-133370294D01*
X173738538Y-133320290D01*
X173755543Y-133050005D01*
X173755543Y-133049994D01*
X173735393Y-132729716D01*
X173735392Y-132729709D01*
X173735392Y-132729706D01*
X173675256Y-132414462D01*
X173576084Y-132109242D01*
X173552556Y-132059242D01*
X173439441Y-131818861D01*
X173439437Y-131818855D01*
X173267479Y-131547891D01*
X173267477Y-131547888D01*
X173062912Y-131300611D01*
X172828965Y-131080921D01*
X172828955Y-131080913D01*
X172569339Y-130892291D01*
X172569321Y-130892280D01*
X172288096Y-130737675D01*
X172288093Y-130737674D01*
X171989705Y-130619533D01*
X171986178Y-130618387D01*
X171928504Y-130578948D01*
X171901307Y-130514589D01*
X171900500Y-130500470D01*
X171900500Y-130463553D01*
X171900613Y-130459812D01*
X171904357Y-130397916D01*
X171893177Y-130336908D01*
X171892615Y-130333211D01*
X171885140Y-130271651D01*
X171885139Y-130271647D01*
X171881546Y-130262173D01*
X171875519Y-130240551D01*
X171873694Y-130230592D01*
X171873694Y-130230590D01*
X171848239Y-130174034D01*
X171846809Y-130170579D01*
X171841034Y-130155352D01*
X171824818Y-130112592D01*
X171819059Y-130104249D01*
X171808030Y-130084694D01*
X171803877Y-130075465D01*
X171803874Y-130075460D01*
X171765633Y-130026649D01*
X171763413Y-130023632D01*
X171749829Y-130003953D01*
X171728183Y-129972593D01*
X171681750Y-129931457D01*
X171679056Y-129928921D01*
X171427704Y-129677569D01*
X171394219Y-129616246D01*
X171399203Y-129546554D01*
X171441075Y-129490621D01*
X171444835Y-129487914D01*
X174533382Y-127353185D01*
X174610808Y-127287232D01*
X174645170Y-127251401D01*
X174707824Y-127171287D01*
X174766511Y-127039919D01*
X174785641Y-126972719D01*
X174804940Y-126830138D01*
X174759261Y-121303078D01*
X174743053Y-121180212D01*
X174727888Y-121121808D01*
X174724691Y-121113733D01*
X174703887Y-121061179D01*
X174682275Y-121006583D01*
X174596048Y-120891402D01*
X174546642Y-120841998D01*
X174546640Y-120841996D01*
X174546633Y-120841991D01*
X174431461Y-120755778D01*
X174296656Y-120705500D01*
X174296645Y-120705497D01*
X174228387Y-120690649D01*
X174228377Y-120690648D01*
X174189672Y-120687880D01*
X174084872Y-120680385D01*
X174084868Y-120680385D01*
X173944280Y-120710968D01*
X173880723Y-120734673D01*
X173879677Y-120735024D01*
X173878811Y-120735386D01*
X173788266Y-120784830D01*
X173728837Y-120799999D01*
X173083272Y-120799999D01*
X173039944Y-120792182D01*
X172986514Y-120772255D01*
X172977956Y-120769406D01*
X172969379Y-120766552D01*
X172943754Y-120759029D01*
X172908820Y-120750113D01*
X172765305Y-120739846D01*
X172765304Y-120739846D01*
X172730460Y-120742337D01*
X172695616Y-120744829D01*
X172695613Y-120744829D01*
X172695607Y-120744829D01*
X172695606Y-120744830D01*
X172695604Y-120744830D01*
X172695594Y-120744832D01*
X172555020Y-120775412D01*
X172555015Y-120775413D01*
X172555014Y-120775414D01*
X172525192Y-120786537D01*
X172510060Y-120792181D01*
X172466727Y-120799999D01*
X171813275Y-120799999D01*
X171769942Y-120792181D01*
X171711530Y-120770395D01*
X171694396Y-120764692D01*
X171668758Y-120757165D01*
X171633818Y-120748247D01*
X171490299Y-120737982D01*
X171490298Y-120737982D01*
X171471875Y-120739299D01*
X171422813Y-120742808D01*
X171421693Y-120742848D01*
X171420605Y-120742965D01*
X171280016Y-120773548D01*
X171280012Y-120773549D01*
X171230058Y-120792181D01*
X171186726Y-120799999D01*
X170564499Y-120799999D01*
X170497460Y-120780314D01*
X170451705Y-120727510D01*
X170440499Y-120675999D01*
X170440499Y-119607129D01*
X170440498Y-119607123D01*
X170440497Y-119607116D01*
X170434091Y-119547517D01*
X170430787Y-119538659D01*
X170383797Y-119412671D01*
X170383793Y-119412664D01*
X170297547Y-119297455D01*
X170297544Y-119297452D01*
X170182335Y-119211206D01*
X170182328Y-119211202D01*
X170047482Y-119160908D01*
X170047483Y-119160908D01*
X169987883Y-119154501D01*
X169987881Y-119154500D01*
X169987873Y-119154500D01*
X169987864Y-119154500D01*
X169192129Y-119154500D01*
X169192123Y-119154501D01*
X169132516Y-119160908D01*
X168997671Y-119211202D01*
X168997664Y-119211206D01*
X168882451Y-119297455D01*
X168882319Y-119297588D01*
X168882154Y-119297677D01*
X168875355Y-119302768D01*
X168874622Y-119301789D01*
X168820994Y-119331068D01*
X168751302Y-119326078D01*
X168695372Y-119284203D01*
X168670960Y-119218736D01*
X168670827Y-119216613D01*
X168668384Y-119171551D01*
X168655972Y-118942629D01*
X168652770Y-118923099D01*
X168598073Y-118589460D01*
X168598072Y-118589459D01*
X168598071Y-118589448D01*
X168554277Y-118431715D01*
X168502327Y-118244607D01*
X168502325Y-118244600D01*
X168486390Y-118204607D01*
X168411183Y-118015851D01*
X168369857Y-117912129D01*
X168369848Y-117912111D01*
X168366568Y-117905925D01*
X168219185Y-117627931D01*
X168202215Y-117595922D01*
X168202213Y-117595919D01*
X168202211Y-117595915D01*
X168001365Y-117299689D01*
X168001361Y-117299684D01*
X168001358Y-117299680D01*
X167769668Y-117026914D01*
X167751646Y-117009843D01*
X167509837Y-116780789D01*
X167509830Y-116780783D01*
X167509827Y-116780781D01*
X167421817Y-116713878D01*
X167224919Y-116564200D01*
X166918253Y-116379685D01*
X166918252Y-116379684D01*
X166918248Y-116379682D01*
X166918244Y-116379680D01*
X166593447Y-116229414D01*
X166593441Y-116229411D01*
X166593435Y-116229409D01*
X166423854Y-116172270D01*
X166254273Y-116115131D01*
X165904744Y-116038194D01*
X165548949Y-115999500D01*
X165548948Y-115999500D01*
X165191052Y-115999500D01*
X165191050Y-115999500D01*
X164835255Y-116038194D01*
X164485726Y-116115131D01*
X164237994Y-116198603D01*
X164146565Y-116229409D01*
X164146562Y-116229410D01*
X164146563Y-116229410D01*
X164146552Y-116229414D01*
X163821755Y-116379680D01*
X163821751Y-116379682D01*
X163673517Y-116468872D01*
X163515081Y-116564200D01*
X163431247Y-116627929D01*
X163230172Y-116780781D01*
X163230163Y-116780789D01*
X162970331Y-117026914D01*
X162738641Y-117299680D01*
X162738634Y-117299690D01*
X162537790Y-117595913D01*
X162537784Y-117595922D01*
X162370151Y-117912111D01*
X162370142Y-117912129D01*
X162237674Y-118244600D01*
X162237672Y-118244607D01*
X162141932Y-118589434D01*
X162141926Y-118589460D01*
X162084029Y-118942614D01*
X162084028Y-118942631D01*
X162064652Y-119299997D01*
X162064652Y-119300002D01*
X162084028Y-119657368D01*
X162084029Y-119657385D01*
X162141926Y-120010539D01*
X162141932Y-120010565D01*
X162208684Y-120250987D01*
X162207652Y-120320849D01*
X162169013Y-120379063D01*
X162105036Y-120407145D01*
X162089853Y-120408158D01*
X161190990Y-120412864D01*
X161096105Y-120413361D01*
X161079581Y-120413995D01*
X161078712Y-120414042D01*
X161062897Y-120414911D01*
X161062892Y-120414912D01*
X160922314Y-120445498D01*
X160856846Y-120469918D01*
X160730570Y-120538874D01*
X160628836Y-120640612D01*
X160628827Y-120640623D01*
X160592249Y-120689487D01*
X160592247Y-120689490D01*
X160586965Y-120696545D01*
X160582076Y-120705500D01*
X160565757Y-120735389D01*
X160565738Y-120735423D01*
X160516333Y-120784830D01*
X160456904Y-120799999D01*
X159853272Y-120799999D01*
X159809944Y-120792182D01*
X159756514Y-120772255D01*
X159747956Y-120769406D01*
X159739379Y-120766552D01*
X159713754Y-120759029D01*
X159678820Y-120750113D01*
X159535305Y-120739846D01*
X159535304Y-120739846D01*
X159500460Y-120742337D01*
X159465616Y-120744829D01*
X159465613Y-120744829D01*
X159465607Y-120744829D01*
X159465606Y-120744830D01*
X159465604Y-120744830D01*
X159465594Y-120744832D01*
X159325020Y-120775412D01*
X159325015Y-120775413D01*
X159325014Y-120775414D01*
X159295192Y-120786537D01*
X159280060Y-120792181D01*
X159236727Y-120799999D01*
X158583275Y-120799999D01*
X158539942Y-120792181D01*
X158481530Y-120770395D01*
X158464396Y-120764692D01*
X158438758Y-120757165D01*
X158403818Y-120748247D01*
X158260299Y-120737982D01*
X158260298Y-120737982D01*
X158241875Y-120739299D01*
X158192813Y-120742808D01*
X158191693Y-120742848D01*
X158190605Y-120742965D01*
X158050016Y-120773548D01*
X158050012Y-120773549D01*
X158000058Y-120792181D01*
X157956726Y-120799999D01*
X157334499Y-120799999D01*
X157267460Y-120780314D01*
X157221705Y-120727510D01*
X157210499Y-120675999D01*
X157210499Y-119607129D01*
X157210498Y-119607123D01*
X157210497Y-119607116D01*
X157204091Y-119547517D01*
X157200787Y-119538659D01*
X157182381Y-119489309D01*
X157177397Y-119419617D01*
X157180632Y-119407658D01*
X157197399Y-119356053D01*
X157235674Y-119238256D01*
X157255460Y-119050000D01*
X157235674Y-118861744D01*
X157177179Y-118681716D01*
X157082533Y-118517784D01*
X156955871Y-118377112D01*
X156955870Y-118377111D01*
X156802734Y-118265851D01*
X156802729Y-118265848D01*
X156629807Y-118188857D01*
X156629802Y-118188855D01*
X156493490Y-118159882D01*
X156474872Y-118155924D01*
X156413391Y-118122733D01*
X156412973Y-118122316D01*
X155550337Y-117259680D01*
X154336816Y-116046159D01*
X154303333Y-115984839D01*
X154300500Y-115958490D01*
X154300500Y-113406610D01*
X170199500Y-113406610D01*
X170238679Y-113616198D01*
X170315702Y-113815019D01*
X170427948Y-113996302D01*
X170571592Y-114153872D01*
X170571593Y-114153872D01*
X170741746Y-114282367D01*
X170932606Y-114377403D01*
X170932608Y-114377403D01*
X170932611Y-114377405D01*
X171137690Y-114435756D01*
X171296806Y-114450500D01*
X171296810Y-114450500D01*
X172703190Y-114450500D01*
X172703194Y-114450500D01*
X172862310Y-114435756D01*
X173067389Y-114377405D01*
X173067393Y-114377403D01*
X173067394Y-114377403D01*
X173258253Y-114282367D01*
X173258253Y-114282366D01*
X173258255Y-114282366D01*
X173428407Y-114153872D01*
X173572052Y-113996302D01*
X173684298Y-113815019D01*
X173761321Y-113616198D01*
X173800500Y-113406610D01*
X173800500Y-113193390D01*
X173761321Y-112983802D01*
X173684298Y-112784981D01*
X173572052Y-112603698D01*
X173428407Y-112446128D01*
X173428406Y-112446127D01*
X173258253Y-112317632D01*
X173067393Y-112222596D01*
X172862310Y-112164244D01*
X172862309Y-112164244D01*
X172703194Y-112149500D01*
X171296806Y-112149500D01*
X171169513Y-112161295D01*
X171137689Y-112164244D01*
X170932607Y-112222596D01*
X170932605Y-112222596D01*
X170741746Y-112317632D01*
X170571593Y-112446127D01*
X170427947Y-112603699D01*
X170315702Y-112784980D01*
X170315701Y-112784982D01*
X170238680Y-112983799D01*
X170238679Y-112983802D01*
X170199500Y-113193390D01*
X170199500Y-113406610D01*
X154300500Y-113406610D01*
X154300500Y-111805870D01*
X159641500Y-111805870D01*
X159641501Y-111805876D01*
X159647908Y-111865483D01*
X159698202Y-112000328D01*
X159698206Y-112000335D01*
X159784452Y-112115544D01*
X159784455Y-112115547D01*
X159899664Y-112201793D01*
X159899671Y-112201797D01*
X160034517Y-112252091D01*
X160034516Y-112252091D01*
X160041444Y-112252835D01*
X160094127Y-112258500D01*
X165105872Y-112258499D01*
X165165483Y-112252091D01*
X165300331Y-112201796D01*
X165415546Y-112115546D01*
X165501796Y-112000331D01*
X165552091Y-111865483D01*
X165558500Y-111805873D01*
X165558499Y-107500005D01*
X167794457Y-107500005D01*
X167814606Y-107820283D01*
X167814607Y-107820290D01*
X167874745Y-108135542D01*
X167973916Y-108440759D01*
X167973918Y-108440764D01*
X168110558Y-108731138D01*
X168110562Y-108731144D01*
X168282520Y-109002108D01*
X168282522Y-109002111D01*
X168487087Y-109249388D01*
X168721034Y-109469078D01*
X168721044Y-109469086D01*
X168980660Y-109657708D01*
X168980666Y-109657711D01*
X168980672Y-109657716D01*
X169261903Y-109812324D01*
X169560294Y-109930466D01*
X169560293Y-109930466D01*
X169871135Y-110010276D01*
X169871139Y-110010277D01*
X169937935Y-110018715D01*
X170189524Y-110050499D01*
X170189533Y-110050499D01*
X170189536Y-110050500D01*
X170189538Y-110050500D01*
X170510462Y-110050500D01*
X170510464Y-110050500D01*
X170510467Y-110050499D01*
X170510475Y-110050499D01*
X170700463Y-110026497D01*
X170828861Y-110010277D01*
X171139706Y-109930466D01*
X171438097Y-109812324D01*
X171719328Y-109657716D01*
X171978964Y-109469080D01*
X172212911Y-109249390D01*
X172417478Y-109002110D01*
X172589439Y-108731142D01*
X172726084Y-108440758D01*
X172825256Y-108135538D01*
X172885392Y-107820294D01*
X172905543Y-107500000D01*
X172885392Y-107179706D01*
X172825256Y-106864462D01*
X172726084Y-106559242D01*
X172690892Y-106484455D01*
X172589441Y-106268861D01*
X172589437Y-106268855D01*
X172417479Y-105997891D01*
X172417477Y-105997888D01*
X172212912Y-105750611D01*
X171978965Y-105530921D01*
X171978955Y-105530913D01*
X171719339Y-105342291D01*
X171719321Y-105342280D01*
X171438096Y-105187675D01*
X171438093Y-105187674D01*
X171139703Y-105069533D01*
X171139706Y-105069533D01*
X170828864Y-104989723D01*
X170828851Y-104989721D01*
X170510475Y-104949500D01*
X170510464Y-104949500D01*
X170189536Y-104949500D01*
X170189524Y-104949500D01*
X169871148Y-104989721D01*
X169871135Y-104989723D01*
X169560294Y-105069533D01*
X169261906Y-105187674D01*
X169261903Y-105187675D01*
X168980678Y-105342280D01*
X168980660Y-105342291D01*
X168721044Y-105530913D01*
X168721034Y-105530921D01*
X168487087Y-105750611D01*
X168282522Y-105997888D01*
X168282520Y-105997891D01*
X168110562Y-106268855D01*
X168110558Y-106268861D01*
X167973918Y-106559235D01*
X167973916Y-106559240D01*
X167874745Y-106864457D01*
X167814607Y-107179709D01*
X167814606Y-107179716D01*
X167794457Y-107499994D01*
X167794457Y-107500005D01*
X165558499Y-107500005D01*
X165558499Y-106794128D01*
X165552091Y-106734517D01*
X165545128Y-106715849D01*
X165501797Y-106599671D01*
X165501793Y-106599664D01*
X165415547Y-106484455D01*
X165415544Y-106484452D01*
X165300335Y-106398206D01*
X165300328Y-106398202D01*
X165165482Y-106347908D01*
X165165483Y-106347908D01*
X165105883Y-106341501D01*
X165105881Y-106341500D01*
X165105873Y-106341500D01*
X165105864Y-106341500D01*
X160094129Y-106341500D01*
X160094123Y-106341501D01*
X160034516Y-106347908D01*
X159899671Y-106398202D01*
X159899664Y-106398206D01*
X159784455Y-106484452D01*
X159784452Y-106484455D01*
X159698206Y-106599664D01*
X159698202Y-106599671D01*
X159647908Y-106734517D01*
X159641501Y-106794116D01*
X159641501Y-106794123D01*
X159641500Y-106794135D01*
X159641500Y-111805870D01*
X154300500Y-111805870D01*
X154300500Y-108115391D01*
X154320185Y-108048352D01*
X154332352Y-108032417D01*
X154332533Y-108032216D01*
X154427179Y-107868284D01*
X154485674Y-107688256D01*
X154505460Y-107500000D01*
X154485674Y-107311744D01*
X154427179Y-107131716D01*
X154332533Y-106967784D01*
X154205871Y-106827112D01*
X154205870Y-106827111D01*
X154052734Y-106715851D01*
X154052729Y-106715848D01*
X153879807Y-106638857D01*
X153879802Y-106638855D01*
X153695450Y-106599671D01*
X153694646Y-106599500D01*
X153505354Y-106599500D01*
X153504550Y-106599671D01*
X153320197Y-106638855D01*
X153320192Y-106638857D01*
X153147270Y-106715848D01*
X153147265Y-106715851D01*
X152994129Y-106827111D01*
X152867466Y-106967785D01*
X152772821Y-107131715D01*
X152772818Y-107131722D01*
X152714327Y-107311740D01*
X152714326Y-107311744D01*
X152694540Y-107500000D01*
X152714326Y-107688256D01*
X152714327Y-107688259D01*
X152772818Y-107868277D01*
X152772821Y-107868284D01*
X152867466Y-108032215D01*
X152867648Y-108032417D01*
X152867716Y-108032559D01*
X152871285Y-108037471D01*
X152870386Y-108038123D01*
X152897879Y-108095408D01*
X152899500Y-108115391D01*
X152899500Y-116276951D01*
X152899387Y-116280696D01*
X152895642Y-116342603D01*
X152895642Y-116342605D01*
X152906821Y-116403612D01*
X152907384Y-116407313D01*
X152914859Y-116468870D01*
X152914860Y-116468874D01*
X152918451Y-116478343D01*
X152924474Y-116499946D01*
X152926304Y-116509930D01*
X152951759Y-116566490D01*
X152953189Y-116569941D01*
X152975182Y-116627930D01*
X152975183Y-116627931D01*
X152980936Y-116636266D01*
X152991961Y-116655813D01*
X152996120Y-116665055D01*
X152996124Y-116665060D01*
X153034371Y-116713878D01*
X153036591Y-116716896D01*
X153071812Y-116767924D01*
X153071816Y-116767928D01*
X153071817Y-116767929D01*
X153118250Y-116809064D01*
X153120941Y-116811598D01*
X154325191Y-118015848D01*
X155423495Y-119114152D01*
X155456980Y-119175475D01*
X155459134Y-119188869D01*
X155464325Y-119238249D01*
X155464327Y-119238260D01*
X155522821Y-119418286D01*
X155524677Y-119422454D01*
X155533962Y-119491704D01*
X155527581Y-119516221D01*
X155515908Y-119547517D01*
X155511184Y-119591462D01*
X155509501Y-119607123D01*
X155509500Y-119607135D01*
X155509500Y-120319258D01*
X155489815Y-120386297D01*
X155437011Y-120432052D01*
X155386150Y-120443256D01*
X155270708Y-120443860D01*
X155270682Y-120443862D01*
X155164603Y-120455688D01*
X155113740Y-120466892D01*
X155037696Y-120492313D01*
X155012496Y-120500738D01*
X155012494Y-120500738D01*
X155012494Y-120500739D01*
X155012491Y-120500740D01*
X154891462Y-120578521D01*
X154891451Y-120578530D01*
X154838659Y-120624274D01*
X154744433Y-120733015D01*
X154744430Y-120733019D01*
X154684664Y-120863885D01*
X154664978Y-120930926D01*
X154664976Y-120930931D01*
X154644500Y-121073352D01*
X154644500Y-140475500D01*
X154624815Y-140542539D01*
X154572011Y-140588294D01*
X154520500Y-140599500D01*
X151656894Y-140599500D01*
X151589855Y-140579815D01*
X151544100Y-140527011D01*
X151534156Y-140457853D01*
X151563181Y-140394297D01*
X151582582Y-140376234D01*
X151607546Y-140357546D01*
X151693796Y-140242331D01*
X151744091Y-140107483D01*
X151750500Y-140047873D01*
X151750499Y-137952128D01*
X151744091Y-137892517D01*
X151693796Y-137757669D01*
X151693795Y-137757668D01*
X151693793Y-137757664D01*
X151607547Y-137642455D01*
X151607544Y-137642452D01*
X151492335Y-137556206D01*
X151492328Y-137556202D01*
X151357482Y-137505908D01*
X151357483Y-137505908D01*
X151297883Y-137499501D01*
X151297881Y-137499500D01*
X151297873Y-137499500D01*
X151297864Y-137499500D01*
X150302129Y-137499500D01*
X150302123Y-137499501D01*
X150242516Y-137505908D01*
X150107671Y-137556202D01*
X150107664Y-137556206D01*
X149992455Y-137642452D01*
X149992452Y-137642455D01*
X149906206Y-137757664D01*
X149906202Y-137757671D01*
X149855908Y-137892517D01*
X149850533Y-137942516D01*
X149849501Y-137952123D01*
X149849500Y-137952135D01*
X149849500Y-140047870D01*
X149849501Y-140047876D01*
X149855908Y-140107483D01*
X149906202Y-140242328D01*
X149906206Y-140242335D01*
X149992452Y-140357544D01*
X149992453Y-140357544D01*
X149992454Y-140357546D01*
X150017418Y-140376234D01*
X150059288Y-140432168D01*
X150064272Y-140501860D01*
X150030786Y-140563182D01*
X149969462Y-140596667D01*
X149943106Y-140599500D01*
X143929500Y-140599500D01*
X143862461Y-140579815D01*
X143816706Y-140527011D01*
X143805500Y-140475500D01*
X143805500Y-130664506D01*
X143821354Y-130603839D01*
X143827462Y-130592952D01*
X144117354Y-130076185D01*
X144167321Y-130027349D01*
X144235759Y-130013278D01*
X144300940Y-130038442D01*
X144342170Y-130094850D01*
X144349500Y-130136853D01*
X144349500Y-130376951D01*
X144349387Y-130380696D01*
X144345642Y-130442603D01*
X144345642Y-130442605D01*
X144356821Y-130503612D01*
X144357384Y-130507313D01*
X144364859Y-130568870D01*
X144364860Y-130568874D01*
X144368451Y-130578343D01*
X144374474Y-130599946D01*
X144376304Y-130609930D01*
X144401759Y-130666490D01*
X144403189Y-130669941D01*
X144425182Y-130727930D01*
X144425183Y-130727931D01*
X144430936Y-130736266D01*
X144441961Y-130755813D01*
X144446120Y-130765055D01*
X144446124Y-130765060D01*
X144454546Y-130775810D01*
X144481560Y-130810291D01*
X144484371Y-130813878D01*
X144486591Y-130816896D01*
X144521812Y-130867924D01*
X144521816Y-130867928D01*
X144521817Y-130867929D01*
X144568250Y-130909064D01*
X144570941Y-130911598D01*
X145157231Y-131497888D01*
X145354581Y-131695238D01*
X145388066Y-131756561D01*
X145383082Y-131826253D01*
X145379099Y-131835715D01*
X145273916Y-132059241D01*
X145174745Y-132364457D01*
X145114607Y-132679709D01*
X145114606Y-132679716D01*
X145094457Y-132999994D01*
X145094457Y-133000005D01*
X145114606Y-133320283D01*
X145114607Y-133320290D01*
X145174745Y-133635542D01*
X145273916Y-133940759D01*
X145273918Y-133940764D01*
X145410558Y-134231138D01*
X145410562Y-134231144D01*
X145582520Y-134502108D01*
X145582522Y-134502111D01*
X145787087Y-134749388D01*
X146021034Y-134969078D01*
X146021044Y-134969086D01*
X146280660Y-135157708D01*
X146280666Y-135157711D01*
X146280672Y-135157716D01*
X146561903Y-135312324D01*
X146860294Y-135430466D01*
X146860293Y-135430466D01*
X147055032Y-135480466D01*
X147171139Y-135510277D01*
X147237935Y-135518715D01*
X147489524Y-135550499D01*
X147489533Y-135550499D01*
X147489536Y-135550500D01*
X147489538Y-135550500D01*
X147810462Y-135550500D01*
X147810464Y-135550500D01*
X147810467Y-135550499D01*
X147810475Y-135550499D01*
X148000463Y-135526497D01*
X148128861Y-135510277D01*
X148439706Y-135430466D01*
X148738097Y-135312324D01*
X149019328Y-135157716D01*
X149278964Y-134969080D01*
X149512911Y-134749390D01*
X149717478Y-134502110D01*
X149889439Y-134231142D01*
X150026084Y-133940758D01*
X150125256Y-133635538D01*
X150185392Y-133320294D01*
X150202397Y-133050005D01*
X150205543Y-133000005D01*
X150205543Y-132999994D01*
X150185393Y-132679716D01*
X150185392Y-132679709D01*
X150185392Y-132679706D01*
X150125256Y-132364462D01*
X150026084Y-132059242D01*
X150026081Y-132059235D01*
X149889441Y-131768861D01*
X149889437Y-131768855D01*
X149717479Y-131497891D01*
X149717477Y-131497888D01*
X149512912Y-131250611D01*
X149278965Y-131030921D01*
X149278955Y-131030913D01*
X149019339Y-130842291D01*
X149019321Y-130842280D01*
X148738096Y-130687675D01*
X148738093Y-130687674D01*
X148526350Y-130603839D01*
X148439706Y-130569534D01*
X148439704Y-130569533D01*
X148439706Y-130569533D01*
X148128864Y-130489723D01*
X148128851Y-130489721D01*
X147810475Y-130449500D01*
X147810464Y-130449500D01*
X147489536Y-130449500D01*
X147489524Y-130449500D01*
X147171148Y-130489721D01*
X147171135Y-130489723D01*
X146860294Y-130569533D01*
X146561904Y-130687674D01*
X146492772Y-130725680D01*
X146424542Y-130740726D01*
X146359008Y-130716495D01*
X146345355Y-130704698D01*
X145796009Y-130155352D01*
X145762524Y-130094029D01*
X145767508Y-130024337D01*
X145776954Y-130004556D01*
X145804555Y-129957887D01*
X145847765Y-129809156D01*
X145850500Y-129774405D01*
X145850499Y-129425596D01*
X145847765Y-129390844D01*
X145804555Y-129242113D01*
X145725715Y-129108802D01*
X145725713Y-129108800D01*
X145725710Y-129108796D01*
X145616203Y-128999289D01*
X145616194Y-128999282D01*
X145535111Y-128951330D01*
X145482887Y-128920445D01*
X145334156Y-128877235D01*
X145334153Y-128877234D01*
X145334151Y-128877234D01*
X145299407Y-128874500D01*
X145003210Y-128874500D01*
X144936171Y-128854815D01*
X144890416Y-128802011D01*
X144880472Y-128732853D01*
X144895063Y-128689835D01*
X146024708Y-126676122D01*
X146073514Y-126554303D01*
X146089362Y-126492466D01*
X146105166Y-126362200D01*
X146056643Y-121218862D01*
X146044242Y-121112251D01*
X146032705Y-121061177D01*
X145998069Y-120959574D01*
X145919495Y-120839044D01*
X145873397Y-120786539D01*
X145764053Y-120693031D01*
X145632789Y-120634113D01*
X145632785Y-120634111D01*
X145632781Y-120634110D01*
X145632783Y-120634110D01*
X145576484Y-120617976D01*
X145570009Y-120615465D01*
X145423075Y-120595314D01*
X141861547Y-120618484D01*
X141794381Y-120599236D01*
X141748283Y-120546731D01*
X141737451Y-120481231D01*
X141738667Y-120469918D01*
X141740500Y-120452873D01*
X141740499Y-119207128D01*
X141740498Y-119207116D01*
X141740498Y-119207111D01*
X141736695Y-119171740D01*
X141746710Y-119108037D01*
X141748899Y-119103121D01*
X141766159Y-119049999D01*
X141807393Y-118923096D01*
X141827179Y-118734840D01*
X141807393Y-118546584D01*
X141748898Y-118366556D01*
X141654252Y-118202624D01*
X141527590Y-118061952D01*
X141527589Y-118061951D01*
X141374453Y-117950691D01*
X141374448Y-117950688D01*
X141201526Y-117873697D01*
X141201521Y-117873695D01*
X141055720Y-117842705D01*
X141016365Y-117834340D01*
X140827073Y-117834340D01*
X140794616Y-117841238D01*
X140641916Y-117873695D01*
X140641911Y-117873697D01*
X140468989Y-117950688D01*
X140468984Y-117950691D01*
X140315848Y-118061951D01*
X140189185Y-118202625D01*
X140094540Y-118366555D01*
X140094537Y-118366562D01*
X140045402Y-118517785D01*
X140036045Y-118546584D01*
X140016259Y-118734840D01*
X140036045Y-118923096D01*
X140036046Y-118923099D01*
X140066243Y-119016036D01*
X140068238Y-119085877D01*
X140064494Y-119097687D01*
X140045908Y-119147517D01*
X140039501Y-119207116D01*
X140039500Y-119207135D01*
X140039500Y-120452870D01*
X140039501Y-120452879D01*
X140043906Y-120493855D01*
X140031499Y-120562614D01*
X139983887Y-120613750D01*
X139921423Y-120631104D01*
X132310242Y-120680618D01*
X132243076Y-120661370D01*
X132196978Y-120608865D01*
X132186146Y-120543366D01*
X132190500Y-120502873D01*
X132190499Y-119257128D01*
X132184091Y-119197517D01*
X132163711Y-119142878D01*
X132158728Y-119073188D01*
X132161958Y-119061242D01*
X132185674Y-118988256D01*
X132205460Y-118800000D01*
X132185674Y-118611744D01*
X132127179Y-118431716D01*
X132032533Y-118267784D01*
X131905871Y-118127112D01*
X131816186Y-118061952D01*
X131752734Y-118015851D01*
X131752729Y-118015848D01*
X131579807Y-117938857D01*
X131579802Y-117938855D01*
X131430533Y-117907128D01*
X131424872Y-117905924D01*
X131363391Y-117872733D01*
X131362973Y-117872316D01*
X130536818Y-117046161D01*
X130503333Y-116984838D01*
X130500499Y-116958489D01*
X130500499Y-106115391D01*
X130520184Y-106048353D01*
X130532351Y-106032418D01*
X130532353Y-106032416D01*
X130532533Y-106032216D01*
X130627179Y-105868284D01*
X130685674Y-105688256D01*
X130705460Y-105500000D01*
X130685674Y-105311744D01*
X130627179Y-105131716D01*
X130532533Y-104967784D01*
X130405871Y-104827112D01*
X130405870Y-104827111D01*
X130252734Y-104715851D01*
X130252729Y-104715848D01*
X130079807Y-104638857D01*
X130079802Y-104638855D01*
X129934000Y-104607865D01*
X129894646Y-104599500D01*
X129705354Y-104599500D01*
X129672897Y-104606398D01*
X129520197Y-104638855D01*
X129520192Y-104638857D01*
X129347270Y-104715848D01*
X129347265Y-104715851D01*
X129194129Y-104827111D01*
X129067466Y-104967785D01*
X128972821Y-105131715D01*
X128972818Y-105131722D01*
X128914327Y-105311740D01*
X128914326Y-105311744D01*
X128894540Y-105500000D01*
X128914326Y-105688256D01*
X128914327Y-105688259D01*
X128972818Y-105868277D01*
X128972821Y-105868284D01*
X129067464Y-106032212D01*
X129067468Y-106032217D01*
X129067647Y-106032416D01*
X129067714Y-106032555D01*
X129071286Y-106037472D01*
X129070386Y-106038125D01*
X129097878Y-106095407D01*
X129099499Y-106115390D01*
X129099499Y-117276951D01*
X129099386Y-117280694D01*
X129095641Y-117342601D01*
X129095642Y-117342605D01*
X129106821Y-117403612D01*
X129107384Y-117407313D01*
X129114859Y-117468870D01*
X129114860Y-117468874D01*
X129118451Y-117478343D01*
X129124474Y-117499946D01*
X129126304Y-117509930D01*
X129151759Y-117566490D01*
X129153189Y-117569941D01*
X129175182Y-117627930D01*
X129175183Y-117627931D01*
X129180936Y-117636266D01*
X129191961Y-117655813D01*
X129196120Y-117665055D01*
X129196122Y-117665057D01*
X129233423Y-117712669D01*
X129234371Y-117713878D01*
X129236591Y-117716896D01*
X129271812Y-117767924D01*
X129271816Y-117767928D01*
X129271817Y-117767929D01*
X129318250Y-117809064D01*
X129320941Y-117811598D01*
X129875898Y-118366555D01*
X130373495Y-118864152D01*
X130406980Y-118925475D01*
X130409134Y-118938869D01*
X130414325Y-118988249D01*
X130414327Y-118988260D01*
X130472820Y-119168283D01*
X130474707Y-119171551D01*
X130475224Y-119173682D01*
X130475463Y-119174219D01*
X130475364Y-119174262D01*
X130491180Y-119239451D01*
X130490610Y-119246800D01*
X130489500Y-119257120D01*
X130489500Y-120502870D01*
X130489501Y-120502876D01*
X130495209Y-120555973D01*
X130482802Y-120624732D01*
X130435191Y-120675869D01*
X130372727Y-120693223D01*
X130298190Y-120693708D01*
X130298169Y-120693709D01*
X130192420Y-120705601D01*
X130192406Y-120705603D01*
X130192404Y-120705604D01*
X130168128Y-120710968D01*
X130141702Y-120716807D01*
X130141694Y-120716809D01*
X130040782Y-120750579D01*
X130040771Y-120750584D01*
X129919748Y-120828361D01*
X129919731Y-120828374D01*
X129866939Y-120874118D01*
X129772714Y-120982858D01*
X129772711Y-120982862D01*
X129712943Y-121113733D01*
X129694092Y-121177930D01*
X129693767Y-121178869D01*
X129693257Y-121180772D01*
X129672781Y-121323192D01*
X129672781Y-140475500D01*
X129653096Y-140542539D01*
X129600292Y-140588294D01*
X129548781Y-140599500D01*
X125456894Y-140599500D01*
X125389855Y-140579815D01*
X125344100Y-140527011D01*
X125334156Y-140457853D01*
X125363181Y-140394297D01*
X125382582Y-140376234D01*
X125407546Y-140357546D01*
X125493796Y-140242331D01*
X125544091Y-140107483D01*
X125550500Y-140047873D01*
X125550499Y-137952128D01*
X125544091Y-137892517D01*
X125493796Y-137757669D01*
X125493795Y-137757668D01*
X125493793Y-137757664D01*
X125407547Y-137642455D01*
X125407544Y-137642452D01*
X125292335Y-137556206D01*
X125292328Y-137556202D01*
X125157482Y-137505908D01*
X125157483Y-137505908D01*
X125097883Y-137499501D01*
X125097881Y-137499500D01*
X125097873Y-137499500D01*
X125097864Y-137499500D01*
X124102129Y-137499500D01*
X124102123Y-137499501D01*
X124042516Y-137505908D01*
X123907671Y-137556202D01*
X123907664Y-137556206D01*
X123792455Y-137642452D01*
X123792452Y-137642455D01*
X123706206Y-137757664D01*
X123706202Y-137757671D01*
X123655908Y-137892517D01*
X123650533Y-137942516D01*
X123649501Y-137952123D01*
X123649500Y-137952135D01*
X123649500Y-140047870D01*
X123649501Y-140047876D01*
X123655908Y-140107483D01*
X123706202Y-140242328D01*
X123706206Y-140242335D01*
X123792452Y-140357544D01*
X123792453Y-140357544D01*
X123792454Y-140357546D01*
X123817418Y-140376234D01*
X123859288Y-140432168D01*
X123864272Y-140501860D01*
X123830786Y-140563182D01*
X123769462Y-140596667D01*
X123743106Y-140599500D01*
X118149500Y-140599500D01*
X118082461Y-140579815D01*
X118036706Y-140527011D01*
X118025500Y-140475500D01*
X118025500Y-130869523D01*
X118045185Y-130802484D01*
X118097989Y-130756729D01*
X118167147Y-130746785D01*
X118230703Y-130775810D01*
X118231591Y-130776587D01*
X118268248Y-130809063D01*
X118270941Y-130811598D01*
X118759953Y-131300610D01*
X119154581Y-131695238D01*
X119188066Y-131756561D01*
X119183082Y-131826253D01*
X119179099Y-131835715D01*
X119073916Y-132059241D01*
X118974745Y-132364457D01*
X118914607Y-132679709D01*
X118914606Y-132679716D01*
X118894457Y-132999994D01*
X118894457Y-133000005D01*
X118914606Y-133320283D01*
X118914607Y-133320290D01*
X118974745Y-133635542D01*
X119073916Y-133940759D01*
X119073918Y-133940764D01*
X119210558Y-134231138D01*
X119210562Y-134231144D01*
X119382520Y-134502108D01*
X119382522Y-134502111D01*
X119587087Y-134749388D01*
X119821034Y-134969078D01*
X119821044Y-134969086D01*
X120080660Y-135157708D01*
X120080666Y-135157711D01*
X120080672Y-135157716D01*
X120361903Y-135312324D01*
X120660294Y-135430466D01*
X120660293Y-135430466D01*
X120855032Y-135480466D01*
X120971139Y-135510277D01*
X121037935Y-135518715D01*
X121289524Y-135550499D01*
X121289533Y-135550499D01*
X121289536Y-135550500D01*
X121289538Y-135550500D01*
X121610462Y-135550500D01*
X121610464Y-135550500D01*
X121610467Y-135550499D01*
X121610475Y-135550499D01*
X121800463Y-135526497D01*
X121928861Y-135510277D01*
X122239706Y-135430466D01*
X122538097Y-135312324D01*
X122819328Y-135157716D01*
X123078964Y-134969080D01*
X123312911Y-134749390D01*
X123517478Y-134502110D01*
X123689439Y-134231142D01*
X123826084Y-133940758D01*
X123925256Y-133635538D01*
X123985392Y-133320294D01*
X124002397Y-133050005D01*
X124005543Y-133000005D01*
X124005543Y-132999994D01*
X123985393Y-132679716D01*
X123985392Y-132679709D01*
X123985392Y-132679706D01*
X123925256Y-132364462D01*
X123826084Y-132059242D01*
X123826081Y-132059235D01*
X123689441Y-131768861D01*
X123689437Y-131768855D01*
X123517479Y-131497891D01*
X123517477Y-131497888D01*
X123312912Y-131250611D01*
X123078965Y-131030921D01*
X123078955Y-131030913D01*
X122819339Y-130842291D01*
X122819321Y-130842280D01*
X122538096Y-130687675D01*
X122538093Y-130687674D01*
X122326350Y-130603839D01*
X122239706Y-130569534D01*
X122239704Y-130569533D01*
X122239706Y-130569533D01*
X121928864Y-130489723D01*
X121928851Y-130489721D01*
X121610475Y-130449500D01*
X121610464Y-130449500D01*
X121289536Y-130449500D01*
X121289524Y-130449500D01*
X120971148Y-130489721D01*
X120971135Y-130489723D01*
X120660294Y-130569533D01*
X120361904Y-130687674D01*
X120292772Y-130725680D01*
X120224542Y-130740726D01*
X120159008Y-130716495D01*
X120145355Y-130704698D01*
X119555056Y-130114399D01*
X119521571Y-130053076D01*
X119523661Y-129992123D01*
X119547763Y-129909162D01*
X119547765Y-129909156D01*
X119550500Y-129874405D01*
X119550499Y-129525596D01*
X119547765Y-129490844D01*
X119504555Y-129342113D01*
X119425715Y-129208802D01*
X119425713Y-129208800D01*
X119425710Y-129208796D01*
X119316203Y-129099289D01*
X119316194Y-129099282D01*
X119235111Y-129051330D01*
X119182887Y-129020445D01*
X119034156Y-128977235D01*
X119034153Y-128977234D01*
X119034151Y-128977234D01*
X118999407Y-128974500D01*
X118999405Y-128974500D01*
X118666581Y-128974500D01*
X118500595Y-128974501D01*
X118465847Y-128977234D01*
X118465843Y-128977235D01*
X118465844Y-128977235D01*
X118317113Y-129020445D01*
X118317111Y-129020445D01*
X118317111Y-129020446D01*
X118212621Y-129082241D01*
X118144897Y-129099424D01*
X118078634Y-129077264D01*
X118034871Y-129022798D01*
X118025500Y-128975509D01*
X118025500Y-126362193D01*
X118025500Y-119974000D01*
X118013947Y-119866544D01*
X118002741Y-119815033D01*
X118002637Y-119814722D01*
X117968616Y-119712502D01*
X117968613Y-119712496D01*
X117900896Y-119607128D01*
X117890825Y-119591457D01*
X117852751Y-119547517D01*
X117845076Y-119538659D01*
X117845072Y-119538656D01*
X117845070Y-119538653D01*
X117736336Y-119444433D01*
X117736333Y-119444431D01*
X117736331Y-119444430D01*
X117605465Y-119384664D01*
X117605460Y-119384662D01*
X117605459Y-119384662D01*
X117582858Y-119378025D01*
X117538425Y-119364978D01*
X117538419Y-119364976D01*
X117452966Y-119352690D01*
X117396000Y-119344500D01*
X117395998Y-119344500D01*
X112407943Y-119344500D01*
X112340904Y-119324815D01*
X112295149Y-119272011D01*
X112284654Y-119207244D01*
X112284667Y-119207129D01*
X112290500Y-119152873D01*
X112290499Y-117907128D01*
X112284091Y-117847517D01*
X112279176Y-117834340D01*
X112233797Y-117712671D01*
X112233795Y-117712668D01*
X112165233Y-117621080D01*
X112140816Y-117555615D01*
X112140500Y-117546769D01*
X112140500Y-105376497D01*
X112160185Y-105309458D01*
X112172351Y-105293524D01*
X112182533Y-105282216D01*
X112277179Y-105118284D01*
X112335674Y-104938256D01*
X112355460Y-104750000D01*
X112335674Y-104561744D01*
X112277179Y-104381716D01*
X112182533Y-104217784D01*
X112055871Y-104077112D01*
X112055870Y-104077111D01*
X111902734Y-103965851D01*
X111902729Y-103965848D01*
X111729807Y-103888857D01*
X111729802Y-103888855D01*
X111584000Y-103857865D01*
X111544646Y-103849500D01*
X111355354Y-103849500D01*
X111322897Y-103856398D01*
X111170197Y-103888855D01*
X111170192Y-103888857D01*
X110997270Y-103965848D01*
X110997265Y-103965851D01*
X110844129Y-104077111D01*
X110717466Y-104217785D01*
X110622821Y-104381715D01*
X110622818Y-104381722D01*
X110564327Y-104561740D01*
X110564326Y-104561744D01*
X110544540Y-104750000D01*
X110564326Y-104938256D01*
X110564327Y-104938259D01*
X110622818Y-105118277D01*
X110622821Y-105118284D01*
X110720716Y-105287844D01*
X110718987Y-105288842D01*
X110739296Y-105345730D01*
X110739500Y-105352831D01*
X110739500Y-117546769D01*
X110719815Y-117613808D01*
X110714767Y-117621080D01*
X110646204Y-117712668D01*
X110646202Y-117712671D01*
X110595908Y-117847517D01*
X110593094Y-117873695D01*
X110589501Y-117907123D01*
X110589500Y-117907135D01*
X110589500Y-119152870D01*
X110589501Y-119152876D01*
X110595346Y-119207247D01*
X110582939Y-119276006D01*
X110535328Y-119327143D01*
X110472056Y-119344500D01*
X105124000Y-119344500D01*
X105123991Y-119344500D01*
X105123990Y-119344501D01*
X105016549Y-119356052D01*
X105016537Y-119356054D01*
X104965027Y-119367260D01*
X104862502Y-119401383D01*
X104862496Y-119401386D01*
X104741462Y-119479171D01*
X104741451Y-119479179D01*
X104688659Y-119524923D01*
X104594433Y-119633664D01*
X104594430Y-119633668D01*
X104534664Y-119764534D01*
X104514978Y-119831575D01*
X104514976Y-119831580D01*
X104498595Y-119945516D01*
X104494502Y-119973990D01*
X104494500Y-119974001D01*
X104494500Y-140475500D01*
X104474815Y-140542539D01*
X104422011Y-140588294D01*
X104370500Y-140599500D01*
X99256894Y-140599500D01*
X99189855Y-140579815D01*
X99144100Y-140527011D01*
X99134156Y-140457853D01*
X99163181Y-140394297D01*
X99182582Y-140376234D01*
X99207546Y-140357546D01*
X99293796Y-140242331D01*
X99344091Y-140107483D01*
X99350500Y-140047873D01*
X99350499Y-137952128D01*
X99344091Y-137892517D01*
X99293796Y-137757669D01*
X99293795Y-137757668D01*
X99293793Y-137757664D01*
X99207547Y-137642455D01*
X99207544Y-137642452D01*
X99092335Y-137556206D01*
X99092328Y-137556202D01*
X98957482Y-137505908D01*
X98957483Y-137505908D01*
X98897883Y-137499501D01*
X98897881Y-137499500D01*
X98897873Y-137499500D01*
X98897864Y-137499500D01*
X97902129Y-137499500D01*
X97902123Y-137499501D01*
X97842516Y-137505908D01*
X97707671Y-137556202D01*
X97707664Y-137556206D01*
X97592455Y-137642452D01*
X97592452Y-137642455D01*
X97506206Y-137757664D01*
X97506202Y-137757671D01*
X97455908Y-137892517D01*
X97450533Y-137942516D01*
X97449501Y-137952123D01*
X97449500Y-137952135D01*
X97449500Y-140047870D01*
X97449501Y-140047876D01*
X97455908Y-140107483D01*
X97506202Y-140242328D01*
X97506206Y-140242335D01*
X97592452Y-140357544D01*
X97592453Y-140357544D01*
X97592454Y-140357546D01*
X97617418Y-140376234D01*
X97659288Y-140432168D01*
X97664272Y-140501860D01*
X97630786Y-140563182D01*
X97569462Y-140596667D01*
X97543106Y-140599500D01*
X91761058Y-140599500D01*
X91694019Y-140579815D01*
X91648264Y-140527011D01*
X91637059Y-140474986D01*
X91649366Y-137505908D01*
X91677529Y-130711430D01*
X91697491Y-130644475D01*
X91750485Y-130598939D01*
X91819684Y-130589282D01*
X91883118Y-130618570D01*
X91903578Y-130641506D01*
X91921815Y-130667927D01*
X91921816Y-130667928D01*
X91921817Y-130667929D01*
X91968250Y-130709064D01*
X91970941Y-130711598D01*
X92509953Y-131250610D01*
X92954581Y-131695238D01*
X92988066Y-131756561D01*
X92983082Y-131826253D01*
X92979099Y-131835715D01*
X92873916Y-132059241D01*
X92774745Y-132364457D01*
X92714607Y-132679709D01*
X92714606Y-132679716D01*
X92694457Y-132999994D01*
X92694457Y-133000005D01*
X92714606Y-133320283D01*
X92714607Y-133320290D01*
X92774745Y-133635542D01*
X92873916Y-133940759D01*
X92873918Y-133940764D01*
X93010558Y-134231138D01*
X93010562Y-134231144D01*
X93182520Y-134502108D01*
X93182522Y-134502111D01*
X93387087Y-134749388D01*
X93621034Y-134969078D01*
X93621044Y-134969086D01*
X93880660Y-135157708D01*
X93880666Y-135157711D01*
X93880672Y-135157716D01*
X94161903Y-135312324D01*
X94460294Y-135430466D01*
X94460293Y-135430466D01*
X94655032Y-135480466D01*
X94771139Y-135510277D01*
X94837935Y-135518715D01*
X95089524Y-135550499D01*
X95089533Y-135550499D01*
X95089536Y-135550500D01*
X95089538Y-135550500D01*
X95410462Y-135550500D01*
X95410464Y-135550500D01*
X95410467Y-135550499D01*
X95410475Y-135550499D01*
X95600463Y-135526497D01*
X95728861Y-135510277D01*
X96039706Y-135430466D01*
X96338097Y-135312324D01*
X96619328Y-135157716D01*
X96878964Y-134969080D01*
X97112911Y-134749390D01*
X97317478Y-134502110D01*
X97489439Y-134231142D01*
X97626084Y-133940758D01*
X97725256Y-133635538D01*
X97785392Y-133320294D01*
X97802397Y-133050005D01*
X97805543Y-133000005D01*
X97805543Y-132999994D01*
X97785393Y-132679716D01*
X97785392Y-132679709D01*
X97785392Y-132679706D01*
X97725256Y-132364462D01*
X97626084Y-132059242D01*
X97626081Y-132059235D01*
X97489441Y-131768861D01*
X97489437Y-131768855D01*
X97317479Y-131497891D01*
X97317477Y-131497888D01*
X97112912Y-131250611D01*
X96878965Y-131030921D01*
X96878955Y-131030913D01*
X96619339Y-130842291D01*
X96619321Y-130842280D01*
X96338096Y-130687675D01*
X96338093Y-130687674D01*
X96126350Y-130603839D01*
X96039706Y-130569534D01*
X96039704Y-130569533D01*
X96039706Y-130569533D01*
X95728864Y-130489723D01*
X95728851Y-130489721D01*
X95410475Y-130449500D01*
X95410464Y-130449500D01*
X95089536Y-130449500D01*
X95089524Y-130449500D01*
X94771148Y-130489721D01*
X94771135Y-130489723D01*
X94460294Y-130569533D01*
X94161904Y-130687674D01*
X94092772Y-130725680D01*
X94024542Y-130740726D01*
X93959008Y-130716495D01*
X93945355Y-130704698D01*
X93255056Y-130014399D01*
X93221571Y-129953076D01*
X93223661Y-129892123D01*
X93228808Y-129874407D01*
X93247765Y-129809156D01*
X93250500Y-129774405D01*
X93250499Y-129425596D01*
X93247765Y-129390844D01*
X93204555Y-129242113D01*
X93125715Y-129108802D01*
X93125713Y-129108800D01*
X93125710Y-129108796D01*
X93016203Y-128999289D01*
X93016194Y-128999282D01*
X92935111Y-128951330D01*
X92882887Y-128920445D01*
X92734156Y-128877235D01*
X92734153Y-128877234D01*
X92734151Y-128877234D01*
X92699407Y-128874500D01*
X92699405Y-128874500D01*
X92366165Y-128874500D01*
X92200595Y-128874501D01*
X92165847Y-128877234D01*
X92165843Y-128877235D01*
X92165844Y-128877235D01*
X92017113Y-128920445D01*
X92017111Y-128920445D01*
X92017111Y-128920446D01*
X91877087Y-129003256D01*
X91876220Y-129001791D01*
X91819983Y-129023863D01*
X91751467Y-129010173D01*
X91701230Y-128961615D01*
X91685037Y-128899836D01*
X91711343Y-122553873D01*
X91710338Y-122530277D01*
X91707222Y-122495470D01*
X91700821Y-122448693D01*
X91658675Y-122323824D01*
X91655887Y-122254010D01*
X91691286Y-122193771D01*
X91712229Y-122177922D01*
X92014919Y-121995800D01*
X92299837Y-121779211D01*
X92559668Y-121533086D01*
X92791365Y-121260311D01*
X92992211Y-120964085D01*
X93159853Y-120647880D01*
X93292324Y-120315403D01*
X93388071Y-119970552D01*
X93439412Y-119657385D01*
X93445970Y-119617385D01*
X93445970Y-119617382D01*
X93445972Y-119617371D01*
X93465348Y-119260000D01*
X93445972Y-118902629D01*
X93444754Y-118895202D01*
X93388073Y-118549460D01*
X93388072Y-118549459D01*
X93388071Y-118549448D01*
X93309331Y-118265851D01*
X93292327Y-118204607D01*
X93292325Y-118204600D01*
X93286052Y-118188857D01*
X93217120Y-118015849D01*
X93159857Y-117872129D01*
X93159848Y-117872111D01*
X93104611Y-117767924D01*
X93045174Y-117655813D01*
X92992215Y-117555922D01*
X92992213Y-117555919D01*
X92992211Y-117555915D01*
X92791365Y-117259689D01*
X92791361Y-117259684D01*
X92791358Y-117259680D01*
X92559668Y-116986914D01*
X92557476Y-116984838D01*
X92299837Y-116740789D01*
X92299830Y-116740783D01*
X92299827Y-116740781D01*
X92200213Y-116665057D01*
X92014919Y-116524200D01*
X91736760Y-116356837D01*
X91689465Y-116305408D01*
X91677483Y-116236573D01*
X91688110Y-116198608D01*
X91697610Y-116178034D01*
X91717572Y-116111077D01*
X91738638Y-115968748D01*
X91823457Y-95506178D01*
X91843419Y-95439224D01*
X91896413Y-95393688D01*
X91965612Y-95384031D01*
X91990788Y-95390513D01*
X92042949Y-95409967D01*
X92042951Y-95409968D01*
X92049879Y-95410712D01*
X92102562Y-95416377D01*
X93348307Y-95416376D01*
X93407918Y-95409968D01*
X93542766Y-95359673D01*
X93601254Y-95315888D01*
X93634355Y-95291110D01*
X93699820Y-95266693D01*
X93708666Y-95266377D01*
X97483259Y-95266377D01*
X97541163Y-95281891D01*
X97541334Y-95281508D01*
X97543755Y-95282586D01*
X97545255Y-95282988D01*
X97547268Y-95284149D01*
X97547270Y-95284151D01*
X97643943Y-95327193D01*
X97720192Y-95361142D01*
X97720197Y-95361144D01*
X97905354Y-95400500D01*
X97905355Y-95400500D01*
X98094644Y-95400500D01*
X98094646Y-95400500D01*
X98279803Y-95361144D01*
X98452730Y-95284151D01*
X98605871Y-95172888D01*
X98732533Y-95032216D01*
X98827179Y-94868284D01*
X98885674Y-94688256D01*
X98905460Y-94500000D01*
X98885674Y-94311744D01*
X98827179Y-94131716D01*
X98732533Y-93967784D01*
X98605871Y-93827112D01*
X98586562Y-93813083D01*
X98452734Y-93715851D01*
X98452729Y-93715848D01*
X98279807Y-93638857D01*
X98279802Y-93638855D01*
X98097713Y-93600152D01*
X98094646Y-93599500D01*
X97905354Y-93599500D01*
X97902287Y-93600152D01*
X97720197Y-93638855D01*
X97720192Y-93638857D01*
X97547270Y-93715848D01*
X97547265Y-93715851D01*
X97394129Y-93827111D01*
X97389300Y-93831460D01*
X97387792Y-93829785D01*
X97337135Y-93860997D01*
X97304467Y-93865377D01*
X93708666Y-93865377D01*
X93641627Y-93845692D01*
X93634355Y-93840644D01*
X93542766Y-93772081D01*
X93542763Y-93772079D01*
X93407917Y-93721785D01*
X93407918Y-93721785D01*
X93348318Y-93715378D01*
X93348316Y-93715377D01*
X93348308Y-93715377D01*
X93348299Y-93715377D01*
X92102564Y-93715377D01*
X92102558Y-93715378D01*
X92042949Y-93721786D01*
X91998600Y-93738327D01*
X91928908Y-93743311D01*
X91867585Y-93709825D01*
X91834101Y-93648501D01*
X91831269Y-93621638D01*
X91834980Y-92726609D01*
X91823652Y-92618081D01*
X91812447Y-92566056D01*
X91791776Y-92503734D01*
X91778099Y-92462497D01*
X91700318Y-92341468D01*
X91700305Y-92341451D01*
X91654561Y-92288659D01*
X91654557Y-92288656D01*
X91654555Y-92288653D01*
X91545821Y-92194433D01*
X91545818Y-92194431D01*
X91545816Y-92194430D01*
X91414950Y-92134664D01*
X91414945Y-92134662D01*
X91414944Y-92134662D01*
X91392343Y-92128025D01*
X91347910Y-92114978D01*
X91347904Y-92114976D01*
X91262451Y-92102690D01*
X91205485Y-92094500D01*
X79388087Y-92094500D01*
X79321048Y-92074815D01*
X79275293Y-92022011D01*
X79264087Y-91970321D01*
X79264286Y-91832214D01*
X79275943Y-83741966D01*
X96849500Y-83741966D01*
X96849501Y-84858032D01*
X96849501Y-84858033D01*
X96860113Y-84977415D01*
X96916089Y-85173045D01*
X96916090Y-85173048D01*
X96916091Y-85173049D01*
X97010302Y-85353407D01*
X97010304Y-85353409D01*
X97138890Y-85511109D01*
X97232803Y-85587684D01*
X97296593Y-85639698D01*
X97476951Y-85733909D01*
X97672582Y-85789886D01*
X97791963Y-85800500D01*
X97791964Y-85800499D01*
X97791965Y-85800500D01*
X97791966Y-85800500D01*
X98612955Y-85800499D01*
X99708036Y-85800499D01*
X99827418Y-85789886D01*
X100023049Y-85733909D01*
X100203407Y-85639698D01*
X100361109Y-85511109D01*
X100489698Y-85353407D01*
X100583909Y-85173049D01*
X100639886Y-84977418D01*
X100650500Y-84858037D01*
X100650499Y-83741964D01*
X100639886Y-83622582D01*
X100583909Y-83426951D01*
X100489698Y-83246593D01*
X100437684Y-83182803D01*
X100361109Y-83088890D01*
X100245933Y-82994977D01*
X100203407Y-82960302D01*
X100023049Y-82866091D01*
X100023048Y-82866090D01*
X100023045Y-82866089D01*
X99905829Y-82832550D01*
X99827418Y-82810114D01*
X99827415Y-82810113D01*
X99827413Y-82810113D01*
X99736983Y-82802073D01*
X99708037Y-82799500D01*
X99708035Y-82799500D01*
X99708034Y-82799500D01*
X98893824Y-82799500D01*
X97791964Y-82799501D01*
X97762727Y-82802100D01*
X97672584Y-82810113D01*
X97476954Y-82866089D01*
X97386771Y-82913196D01*
X97296593Y-82960302D01*
X97296591Y-82960303D01*
X97296590Y-82960304D01*
X97138890Y-83088890D01*
X97010304Y-83246590D01*
X96916089Y-83426954D01*
X96860114Y-83622583D01*
X96860113Y-83622586D01*
X96849500Y-83741965D01*
X96849500Y-83741966D01*
X79275943Y-83741966D01*
X79291177Y-73169180D01*
X86774500Y-73169180D01*
X86784563Y-73267682D01*
X86837450Y-73427283D01*
X86837455Y-73427294D01*
X86925716Y-73570386D01*
X86925719Y-73570390D01*
X87044608Y-73689279D01*
X87044612Y-73689282D01*
X87187704Y-73777543D01*
X87187707Y-73777544D01*
X87187713Y-73777548D01*
X87347315Y-73830435D01*
X87445826Y-73840499D01*
X87445831Y-73840499D01*
X88054169Y-73840499D01*
X88054174Y-73840499D01*
X88152685Y-73830435D01*
X88312287Y-73777548D01*
X88435793Y-73701368D01*
X88503182Y-73682928D01*
X88569846Y-73703850D01*
X88588569Y-73719226D01*
X88589169Y-73719826D01*
X88622654Y-73781149D01*
X88617670Y-73850841D01*
X88599098Y-73883981D01*
X88594528Y-73889813D01*
X88506522Y-74035393D01*
X88455913Y-74197807D01*
X88449500Y-74268386D01*
X88449500Y-74931613D01*
X88455913Y-75002192D01*
X88455913Y-75002194D01*
X88455914Y-75002196D01*
X88506522Y-75164606D01*
X88593995Y-75309304D01*
X88594530Y-75310188D01*
X88714811Y-75430469D01*
X88714813Y-75430470D01*
X88714815Y-75430472D01*
X88860394Y-75518478D01*
X89022804Y-75569086D01*
X89093384Y-75575500D01*
X89093387Y-75575500D01*
X89606613Y-75575500D01*
X89606616Y-75575500D01*
X89677196Y-75569086D01*
X89839606Y-75518478D01*
X89985185Y-75430472D01*
X89985188Y-75430467D01*
X90087319Y-75328339D01*
X90148642Y-75294854D01*
X90218334Y-75299838D01*
X90262681Y-75328339D01*
X90364811Y-75430469D01*
X90364813Y-75430470D01*
X90364815Y-75430472D01*
X90510394Y-75518478D01*
X90672804Y-75569086D01*
X90743384Y-75575500D01*
X90743387Y-75575500D01*
X91256613Y-75575500D01*
X91256616Y-75575500D01*
X91327196Y-75569086D01*
X91489606Y-75518478D01*
X91635185Y-75430472D01*
X91755472Y-75310185D01*
X91843478Y-75164606D01*
X91894086Y-75002196D01*
X91900500Y-74931616D01*
X91900500Y-74268384D01*
X91894086Y-74197804D01*
X91843478Y-74035394D01*
X91755472Y-73889815D01*
X91755470Y-73889813D01*
X91755469Y-73889811D01*
X91735832Y-73870175D01*
X91702345Y-73808853D01*
X91707328Y-73739161D01*
X91725901Y-73706018D01*
X91730464Y-73700191D01*
X91730472Y-73700184D01*
X91745485Y-73675348D01*
X91797014Y-73628161D01*
X91851602Y-73615499D01*
X94669191Y-73615499D01*
X94736230Y-73635184D01*
X94756873Y-73651819D01*
X94798129Y-73693076D01*
X94798133Y-73693079D01*
X94798135Y-73693081D01*
X94939602Y-73776744D01*
X94954764Y-73781149D01*
X95097426Y-73822597D01*
X95097429Y-73822597D01*
X95097431Y-73822598D01*
X95109722Y-73823565D01*
X95134304Y-73825500D01*
X95134306Y-73825500D01*
X95855046Y-73825500D01*
X97342060Y-73825500D01*
X97409099Y-73845185D01*
X97429741Y-73861819D01*
X98180741Y-74612819D01*
X98214226Y-74674142D01*
X98209242Y-74743834D01*
X98167370Y-74799767D01*
X98101906Y-74824184D01*
X98093060Y-74824500D01*
X96980969Y-74824500D01*
X96917848Y-74807232D01*
X96905225Y-74799767D01*
X96860398Y-74773256D01*
X96860397Y-74773255D01*
X96860396Y-74773255D01*
X96860393Y-74773254D01*
X96702573Y-74727402D01*
X96702567Y-74727401D01*
X96665696Y-74724500D01*
X96665694Y-74724500D01*
X95134306Y-74724500D01*
X95134304Y-74724500D01*
X95097432Y-74727401D01*
X95097426Y-74727402D01*
X94939606Y-74773254D01*
X94939603Y-74773255D01*
X94798137Y-74856917D01*
X94798129Y-74856923D01*
X94681923Y-74973129D01*
X94681917Y-74973137D01*
X94598255Y-75114603D01*
X94598254Y-75114606D01*
X94552402Y-75272426D01*
X94552401Y-75272432D01*
X94549500Y-75309304D01*
X94549500Y-75740696D01*
X94552401Y-75777567D01*
X94552402Y-75777573D01*
X94598254Y-75935393D01*
X94598255Y-75935396D01*
X94685890Y-76083580D01*
X94683919Y-76084745D01*
X94705232Y-76139058D01*
X94691540Y-76207573D01*
X94685864Y-76216404D01*
X94685890Y-76216420D01*
X94598255Y-76364603D01*
X94598254Y-76364606D01*
X94552402Y-76522426D01*
X94552401Y-76522432D01*
X94549500Y-76559304D01*
X94549500Y-76990696D01*
X94552401Y-77027567D01*
X94552402Y-77027573D01*
X94598254Y-77185393D01*
X94598255Y-77185396D01*
X94685890Y-77333580D01*
X94683919Y-77334745D01*
X94705232Y-77389058D01*
X94691540Y-77457573D01*
X94685864Y-77466404D01*
X94685890Y-77466420D01*
X94598255Y-77614603D01*
X94598254Y-77614606D01*
X94552402Y-77772426D01*
X94552401Y-77772432D01*
X94549500Y-77809304D01*
X94549500Y-78240696D01*
X94552401Y-78277567D01*
X94552402Y-78277573D01*
X94598254Y-78435393D01*
X94598255Y-78435396D01*
X94685890Y-78583580D01*
X94683919Y-78584745D01*
X94705232Y-78639058D01*
X94691540Y-78707573D01*
X94685864Y-78716404D01*
X94685890Y-78716420D01*
X94598255Y-78864603D01*
X94598254Y-78864606D01*
X94552402Y-79022426D01*
X94552401Y-79022432D01*
X94549500Y-79059304D01*
X94549500Y-79490696D01*
X94552401Y-79527567D01*
X94552402Y-79527573D01*
X94585329Y-79640905D01*
X94585130Y-79710774D01*
X94547188Y-79769444D01*
X94483550Y-79798288D01*
X94466253Y-79799500D01*
X92185856Y-79799500D01*
X92118817Y-79779815D01*
X92073062Y-79727011D01*
X92067470Y-79712390D01*
X92043478Y-79635394D01*
X91955472Y-79489815D01*
X91955470Y-79489813D01*
X91955469Y-79489811D01*
X91835188Y-79369530D01*
X91689606Y-79281522D01*
X91689605Y-79281521D01*
X91527196Y-79230914D01*
X91527194Y-79230913D01*
X91527192Y-79230913D01*
X91477778Y-79226423D01*
X91456616Y-79224500D01*
X90943384Y-79224500D01*
X90924145Y-79226248D01*
X90872807Y-79230913D01*
X90710393Y-79281522D01*
X90564811Y-79369530D01*
X90444530Y-79489811D01*
X90356522Y-79635393D01*
X90305913Y-79797807D01*
X90299500Y-79868386D01*
X90299500Y-80531613D01*
X90305913Y-80602192D01*
X90305913Y-80602194D01*
X90305914Y-80602196D01*
X90356522Y-80764606D01*
X90398345Y-80833790D01*
X90403342Y-80842055D01*
X90421178Y-80909610D01*
X90399660Y-80976083D01*
X90345620Y-81020371D01*
X90276215Y-81028412D01*
X90213480Y-80997653D01*
X90209544Y-80993886D01*
X90185188Y-80969530D01*
X90134447Y-80938856D01*
X90039606Y-80881522D01*
X89877196Y-80830914D01*
X89877194Y-80830913D01*
X89877192Y-80830913D01*
X89827778Y-80826423D01*
X89806616Y-80824500D01*
X89293384Y-80824500D01*
X89274145Y-80826248D01*
X89222807Y-80830913D01*
X89060393Y-80881522D01*
X88984106Y-80927639D01*
X88916551Y-80945474D01*
X88881651Y-80939456D01*
X88879805Y-80938856D01*
X88742210Y-80909610D01*
X88694646Y-80899500D01*
X88505354Y-80899500D01*
X88472897Y-80906398D01*
X88320197Y-80938855D01*
X88320192Y-80938857D01*
X88147270Y-81015848D01*
X88147265Y-81015851D01*
X87994129Y-81127111D01*
X87867466Y-81267785D01*
X87772821Y-81431715D01*
X87772818Y-81431722D01*
X87731364Y-81559306D01*
X87714326Y-81611744D01*
X87694540Y-81800000D01*
X87714326Y-81988256D01*
X87714327Y-81988259D01*
X87772818Y-82168277D01*
X87772821Y-82168284D01*
X87867467Y-82332216D01*
X87994129Y-82472888D01*
X88147265Y-82584148D01*
X88147270Y-82584151D01*
X88320192Y-82661142D01*
X88320197Y-82661144D01*
X88505354Y-82700500D01*
X88505355Y-82700500D01*
X88694644Y-82700500D01*
X88694646Y-82700500D01*
X88879803Y-82661144D01*
X88881638Y-82660548D01*
X88882758Y-82660515D01*
X88886160Y-82659793D01*
X88886292Y-82660414D01*
X88951479Y-82658551D01*
X88984105Y-82672360D01*
X89060394Y-82718478D01*
X89222804Y-82769086D01*
X89293384Y-82775500D01*
X89293387Y-82775500D01*
X89806613Y-82775500D01*
X89806616Y-82775500D01*
X89877196Y-82769086D01*
X90039606Y-82718478D01*
X90185185Y-82630472D01*
X90287319Y-82528337D01*
X90348640Y-82494853D01*
X90418331Y-82499837D01*
X90462680Y-82528338D01*
X90564811Y-82630469D01*
X90564813Y-82630470D01*
X90564815Y-82630472D01*
X90710394Y-82718478D01*
X90872804Y-82769086D01*
X90943384Y-82775500D01*
X90943387Y-82775500D01*
X91456613Y-82775500D01*
X91456616Y-82775500D01*
X91527196Y-82769086D01*
X91689606Y-82718478D01*
X91835185Y-82630472D01*
X91955472Y-82510185D01*
X92043478Y-82364606D01*
X92094086Y-82202196D01*
X92100500Y-82131616D01*
X92100500Y-81468384D01*
X92094086Y-81397804D01*
X92043478Y-81235394D01*
X92015219Y-81188649D01*
X91997384Y-81121095D01*
X92018902Y-81054621D01*
X92072942Y-81010334D01*
X92121337Y-81000500D01*
X94566028Y-81000500D01*
X94633067Y-81020185D01*
X94672759Y-81061378D01*
X94685889Y-81083579D01*
X94683918Y-81084744D01*
X94705232Y-81139058D01*
X94691540Y-81207573D01*
X94685864Y-81216404D01*
X94685890Y-81216420D01*
X94598255Y-81364603D01*
X94598254Y-81364606D01*
X94552402Y-81522426D01*
X94552401Y-81522432D01*
X94549500Y-81559304D01*
X94549500Y-81990696D01*
X94552401Y-82027567D01*
X94552402Y-82027573D01*
X94598254Y-82185393D01*
X94598255Y-82185396D01*
X94681917Y-82326862D01*
X94681923Y-82326870D01*
X94798129Y-82443076D01*
X94798133Y-82443079D01*
X94798135Y-82443081D01*
X94939602Y-82526744D01*
X94945089Y-82528338D01*
X95097426Y-82572597D01*
X95097429Y-82572597D01*
X95097431Y-82572598D01*
X95109722Y-82573565D01*
X95134304Y-82575500D01*
X95134306Y-82575500D01*
X96665696Y-82575500D01*
X96684131Y-82574049D01*
X96702569Y-82572598D01*
X96702571Y-82572597D01*
X96702573Y-82572597D01*
X96797712Y-82544956D01*
X96860398Y-82526744D01*
X97001865Y-82443081D01*
X97118081Y-82326865D01*
X97201744Y-82185398D01*
X97247598Y-82027569D01*
X97250500Y-81990694D01*
X97250500Y-81559306D01*
X97247598Y-81522431D01*
X97231896Y-81468386D01*
X97201745Y-81364606D01*
X97201744Y-81364603D01*
X97201744Y-81364602D01*
X97118081Y-81223135D01*
X97114110Y-81216420D01*
X97116087Y-81215250D01*
X97094770Y-81160988D01*
X97108436Y-81092468D01*
X97114137Y-81083596D01*
X97114110Y-81083580D01*
X97154164Y-81015851D01*
X97201744Y-80935398D01*
X97241689Y-80797909D01*
X97247597Y-80777573D01*
X97247598Y-80777567D01*
X97250500Y-80740696D01*
X97250500Y-80309304D01*
X97247598Y-80272432D01*
X97247597Y-80272426D01*
X97207408Y-80134095D01*
X97207607Y-80064226D01*
X97245549Y-80005556D01*
X97309187Y-79976712D01*
X97326484Y-79975500D01*
X97933481Y-79975500D01*
X98000520Y-79995185D01*
X98021162Y-80011819D01*
X100761751Y-82752408D01*
X100795236Y-82813731D01*
X100797391Y-82827127D01*
X100814326Y-82988256D01*
X100814327Y-82988259D01*
X100872818Y-83168277D01*
X100872821Y-83168284D01*
X100967467Y-83332216D01*
X101014229Y-83384150D01*
X101094129Y-83472888D01*
X101247265Y-83584148D01*
X101247270Y-83584151D01*
X101420192Y-83661142D01*
X101420197Y-83661144D01*
X101605354Y-83700500D01*
X101605355Y-83700500D01*
X101794644Y-83700500D01*
X101794646Y-83700500D01*
X101979803Y-83661144D01*
X102152730Y-83584151D01*
X102305871Y-83472888D01*
X102432533Y-83332216D01*
X102527179Y-83168284D01*
X102550593Y-83096223D01*
X102590028Y-83038549D01*
X102654387Y-83011350D01*
X102723233Y-83023264D01*
X102756203Y-83046861D01*
X107353399Y-87644056D01*
X107355935Y-87646750D01*
X107397071Y-87693183D01*
X107428431Y-87714829D01*
X107448110Y-87728413D01*
X107451127Y-87730633D01*
X107499938Y-87768874D01*
X107499943Y-87768877D01*
X107509174Y-87773031D01*
X107528727Y-87784059D01*
X107537070Y-87789818D01*
X107595057Y-87811809D01*
X107598512Y-87813239D01*
X107610991Y-87818856D01*
X107655063Y-87838692D01*
X107655064Y-87838692D01*
X107655068Y-87838694D01*
X107665030Y-87840519D01*
X107686651Y-87846546D01*
X107696125Y-87850139D01*
X107696128Y-87850140D01*
X107701070Y-87850740D01*
X107757689Y-87857615D01*
X107761386Y-87858177D01*
X107822394Y-87869357D01*
X107822395Y-87869356D01*
X107822396Y-87869357D01*
X107884293Y-87865613D01*
X107888037Y-87865500D01*
X109974031Y-87865500D01*
X110037151Y-87882767D01*
X110094602Y-87916744D01*
X110136224Y-87928836D01*
X110252426Y-87962597D01*
X110252429Y-87962597D01*
X110252431Y-87962598D01*
X110264722Y-87963565D01*
X110289304Y-87965500D01*
X110289306Y-87965500D01*
X111720696Y-87965500D01*
X111739131Y-87964049D01*
X111757569Y-87962598D01*
X111790904Y-87952913D01*
X111860773Y-87953112D01*
X111919444Y-87991053D01*
X111948288Y-88054691D01*
X111949500Y-88071989D01*
X111949500Y-88798010D01*
X111929815Y-88865049D01*
X111877011Y-88910804D01*
X111807853Y-88920748D01*
X111790907Y-88917087D01*
X111757570Y-88907402D01*
X111757567Y-88907401D01*
X111720696Y-88904500D01*
X111720694Y-88904500D01*
X110289306Y-88904500D01*
X110289304Y-88904500D01*
X110252432Y-88907401D01*
X110252426Y-88907402D01*
X110094606Y-88953254D01*
X110094603Y-88953255D01*
X110037152Y-88987232D01*
X109974031Y-89004500D01*
X107373411Y-89004500D01*
X107306372Y-88984815D01*
X107260617Y-88932011D01*
X107255480Y-88918818D01*
X107255246Y-88918099D01*
X107239052Y-88868256D01*
X107227181Y-88831721D01*
X107227178Y-88831715D01*
X107132533Y-88667784D01*
X107005871Y-88527112D01*
X107005870Y-88527111D01*
X106852734Y-88415851D01*
X106852729Y-88415848D01*
X106679807Y-88338857D01*
X106679802Y-88338855D01*
X106534000Y-88307865D01*
X106494646Y-88299500D01*
X106305354Y-88299500D01*
X106272897Y-88306398D01*
X106120197Y-88338855D01*
X106120192Y-88338857D01*
X105947270Y-88415848D01*
X105947265Y-88415851D01*
X105794129Y-88527111D01*
X105667466Y-88667785D01*
X105572821Y-88831715D01*
X105572818Y-88831722D01*
X105514327Y-89011740D01*
X105514326Y-89011744D01*
X105494540Y-89200000D01*
X105514326Y-89388256D01*
X105514327Y-89388259D01*
X105572818Y-89568277D01*
X105572821Y-89568284D01*
X105667467Y-89732216D01*
X105755768Y-89830284D01*
X105794129Y-89872888D01*
X105947265Y-89984148D01*
X105947270Y-89984151D01*
X106120191Y-90061142D01*
X106120193Y-90061142D01*
X106120197Y-90061144D01*
X106275130Y-90094075D01*
X106336607Y-90127266D01*
X106337026Y-90127683D01*
X106393399Y-90184056D01*
X106395935Y-90186750D01*
X106437071Y-90233183D01*
X106488130Y-90268427D01*
X106491112Y-90270621D01*
X106539944Y-90308878D01*
X106539947Y-90308880D01*
X106539946Y-90308880D01*
X106549177Y-90313034D01*
X106568731Y-90324062D01*
X106577066Y-90329816D01*
X106577068Y-90329816D01*
X106577070Y-90329818D01*
X106635079Y-90351817D01*
X106638476Y-90353224D01*
X106682598Y-90373082D01*
X106695064Y-90378693D01*
X106695065Y-90378693D01*
X106695069Y-90378695D01*
X106705034Y-90380521D01*
X106726656Y-90386548D01*
X106729777Y-90387731D01*
X106736128Y-90390140D01*
X106781251Y-90395618D01*
X106797674Y-90397613D01*
X106801371Y-90398175D01*
X106862394Y-90409358D01*
X106917752Y-90406009D01*
X106924303Y-90405613D01*
X106928048Y-90405500D01*
X109974031Y-90405500D01*
X110037151Y-90422767D01*
X110094602Y-90456744D01*
X110136224Y-90468836D01*
X110252426Y-90502597D01*
X110252429Y-90502597D01*
X110252431Y-90502598D01*
X110264722Y-90503565D01*
X110289304Y-90505500D01*
X110289306Y-90505500D01*
X111720696Y-90505500D01*
X111739131Y-90504049D01*
X111757569Y-90502598D01*
X111757571Y-90502597D01*
X111757573Y-90502597D01*
X111845539Y-90477040D01*
X111915398Y-90456744D01*
X112056865Y-90373081D01*
X112173081Y-90256865D01*
X112256744Y-90115398D01*
X112302598Y-89957569D01*
X112302598Y-89957567D01*
X112303575Y-89952222D01*
X112334983Y-89889809D01*
X112395148Y-89854286D01*
X112425549Y-89850499D01*
X112654366Y-89850499D01*
X112661309Y-89850888D01*
X112700000Y-89855249D01*
X112738690Y-89850888D01*
X112745634Y-89850499D01*
X114564361Y-89850499D01*
X114571301Y-89850888D01*
X114601453Y-89854286D01*
X114609999Y-89855249D01*
X114610000Y-89855249D01*
X114610001Y-89855249D01*
X114618546Y-89854286D01*
X114648697Y-89850888D01*
X114655638Y-89850499D01*
X114869481Y-89850499D01*
X114936520Y-89870184D01*
X114982275Y-89922988D01*
X114992219Y-89992146D01*
X114963194Y-90055702D01*
X114957162Y-90062180D01*
X111256162Y-93763181D01*
X111194839Y-93796666D01*
X111168481Y-93799500D01*
X108508156Y-93799500D01*
X108441117Y-93779815D01*
X108435271Y-93775818D01*
X108352734Y-93715851D01*
X108352729Y-93715848D01*
X108179807Y-93638857D01*
X108179802Y-93638855D01*
X107997713Y-93600152D01*
X107994646Y-93599500D01*
X107805354Y-93599500D01*
X107802287Y-93600152D01*
X107620197Y-93638855D01*
X107620192Y-93638857D01*
X107447270Y-93715848D01*
X107447265Y-93715851D01*
X107294129Y-93827111D01*
X107167466Y-93967785D01*
X107072821Y-94131715D01*
X107072818Y-94131722D01*
X107014327Y-94311740D01*
X107014326Y-94311744D01*
X106994540Y-94500000D01*
X107014326Y-94688256D01*
X107014327Y-94688259D01*
X107072818Y-94868277D01*
X107072821Y-94868284D01*
X107167467Y-95032216D01*
X107271934Y-95148238D01*
X107294129Y-95172888D01*
X107447265Y-95284148D01*
X107447270Y-95284151D01*
X107620192Y-95361142D01*
X107620197Y-95361144D01*
X107805354Y-95400500D01*
X107805355Y-95400500D01*
X107994644Y-95400500D01*
X107994646Y-95400500D01*
X108179803Y-95361144D01*
X108352730Y-95284151D01*
X108377194Y-95266377D01*
X108435271Y-95224182D01*
X108501077Y-95200702D01*
X108508156Y-95200500D01*
X111486952Y-95200500D01*
X111490697Y-95200613D01*
X111498042Y-95201057D01*
X111552606Y-95204358D01*
X111590314Y-95197447D01*
X111613621Y-95193177D01*
X111617325Y-95192613D01*
X111635170Y-95190446D01*
X111678872Y-95185140D01*
X111688335Y-95181550D01*
X111709961Y-95175522D01*
X111710893Y-95175351D01*
X111719932Y-95173695D01*
X111776512Y-95148229D01*
X111779942Y-95146809D01*
X111837930Y-95124818D01*
X111846266Y-95119062D01*
X111865821Y-95108034D01*
X111875057Y-95103878D01*
X111923896Y-95065613D01*
X111926876Y-95063421D01*
X111977929Y-95028183D01*
X112019065Y-94981748D01*
X112021599Y-94979056D01*
X116458837Y-90541819D01*
X116520161Y-90508334D01*
X116546519Y-90505500D01*
X117020696Y-90505500D01*
X117039131Y-90504049D01*
X117057569Y-90502598D01*
X117057571Y-90502597D01*
X117057573Y-90502597D01*
X117145539Y-90477040D01*
X117215398Y-90456744D01*
X117356865Y-90373081D01*
X117473081Y-90256865D01*
X117556744Y-90115398D01*
X117602598Y-89957569D01*
X117604049Y-89939131D01*
X117605500Y-89920696D01*
X117605500Y-89489304D01*
X117602598Y-89452432D01*
X117602597Y-89452426D01*
X117556745Y-89294606D01*
X117556744Y-89294602D01*
X117552615Y-89287621D01*
X117535432Y-89219899D01*
X117557591Y-89153636D01*
X117612057Y-89109872D01*
X117659347Y-89100500D01*
X117884147Y-89100500D01*
X117929195Y-89110487D01*
X117929447Y-89109730D01*
X117936302Y-89112001D01*
X117936303Y-89112002D01*
X118097292Y-89165348D01*
X118196655Y-89175499D01*
X118793344Y-89175498D01*
X118793352Y-89175497D01*
X118793355Y-89175497D01*
X118847760Y-89169939D01*
X118892708Y-89165348D01*
X119053697Y-89112002D01*
X119053697Y-89112001D01*
X119060553Y-89109730D01*
X119060804Y-89110487D01*
X119105853Y-89100500D01*
X119484145Y-89100500D01*
X119529197Y-89110487D01*
X119529448Y-89109731D01*
X119536301Y-89112001D01*
X119536303Y-89112003D01*
X119697292Y-89165349D01*
X119796655Y-89175500D01*
X120393344Y-89175499D01*
X120393352Y-89175498D01*
X120393355Y-89175498D01*
X120447760Y-89169940D01*
X120492708Y-89165349D01*
X120653697Y-89112003D01*
X120798044Y-89022968D01*
X120917968Y-88903044D01*
X121007003Y-88758697D01*
X121060349Y-88597708D01*
X121070500Y-88498345D01*
X121070499Y-87951656D01*
X121068664Y-87933697D01*
X121060349Y-87852292D01*
X121060348Y-87852289D01*
X121049270Y-87818857D01*
X121007003Y-87691303D01*
X121006999Y-87691297D01*
X121006998Y-87691294D01*
X120917970Y-87546959D01*
X120917967Y-87546955D01*
X120798278Y-87427266D01*
X120773433Y-87386162D01*
X120771773Y-87386910D01*
X120735618Y-87306577D01*
X120698877Y-87224943D01*
X120621579Y-87126280D01*
X120619362Y-87123266D01*
X120612999Y-87114048D01*
X120591116Y-87047693D01*
X120591727Y-87030655D01*
X120605460Y-86900000D01*
X120597284Y-86822214D01*
X120609853Y-86753488D01*
X120657585Y-86702464D01*
X120725325Y-86685346D01*
X120746385Y-86687965D01*
X120805354Y-86700500D01*
X120805355Y-86700500D01*
X120994644Y-86700500D01*
X120994646Y-86700500D01*
X121179803Y-86661144D01*
X121352730Y-86584151D01*
X121505871Y-86472888D01*
X121632533Y-86332216D01*
X121727179Y-86168284D01*
X121785674Y-85988256D01*
X121805460Y-85800000D01*
X121785674Y-85611744D01*
X121735712Y-85457980D01*
X121733718Y-85388140D01*
X121769798Y-85328307D01*
X121832499Y-85297479D01*
X121901913Y-85305444D01*
X121941325Y-85331982D01*
X123228383Y-86619040D01*
X123230951Y-86621768D01*
X123272069Y-86668182D01*
X123291996Y-86681936D01*
X123319535Y-86707986D01*
X123322629Y-86711975D01*
X123438841Y-86828187D01*
X123438845Y-86828190D01*
X123438847Y-86828192D01*
X123580314Y-86911855D01*
X123621936Y-86923947D01*
X123738138Y-86957708D01*
X123738141Y-86957708D01*
X123738143Y-86957709D01*
X123750434Y-86958676D01*
X123775016Y-86960611D01*
X123775018Y-86960611D01*
X125206408Y-86960611D01*
X125224843Y-86959160D01*
X125243281Y-86957709D01*
X125276616Y-86948024D01*
X125346485Y-86948223D01*
X125405156Y-86986164D01*
X125434000Y-87049802D01*
X125435212Y-87067100D01*
X125435212Y-87793121D01*
X125415527Y-87860160D01*
X125362723Y-87905915D01*
X125293565Y-87915859D01*
X125276619Y-87912198D01*
X125243282Y-87902513D01*
X125243279Y-87902512D01*
X125206408Y-87899611D01*
X125206406Y-87899611D01*
X123867536Y-87899611D01*
X123817100Y-87888890D01*
X123659807Y-87818857D01*
X123659802Y-87818855D01*
X123496099Y-87784060D01*
X123474646Y-87779500D01*
X123285354Y-87779500D01*
X123263901Y-87784060D01*
X123100197Y-87818855D01*
X123100192Y-87818857D01*
X122927270Y-87895848D01*
X122927265Y-87895851D01*
X122774129Y-88007111D01*
X122647466Y-88147785D01*
X122552824Y-88311711D01*
X122552818Y-88311722D01*
X122494327Y-88491740D01*
X122494326Y-88491744D01*
X122474540Y-88680000D01*
X122494326Y-88868256D01*
X122494327Y-88868259D01*
X122552818Y-89048277D01*
X122552821Y-89048284D01*
X122647467Y-89212216D01*
X122715249Y-89287495D01*
X122774129Y-89352888D01*
X122927265Y-89464148D01*
X122927270Y-89464151D01*
X123100192Y-89541142D01*
X123100197Y-89541144D01*
X123285354Y-89580500D01*
X123285355Y-89580500D01*
X123474644Y-89580500D01*
X123474646Y-89580500D01*
X123659803Y-89541144D01*
X123726761Y-89511331D01*
X123777197Y-89500611D01*
X125206408Y-89500611D01*
X125226953Y-89498994D01*
X125243281Y-89497709D01*
X125243283Y-89497708D01*
X125243285Y-89497708D01*
X125284903Y-89485616D01*
X125401110Y-89451855D01*
X125542577Y-89368192D01*
X125658793Y-89251976D01*
X125742456Y-89110509D01*
X125788310Y-88952680D01*
X125788310Y-88952678D01*
X125789287Y-88947333D01*
X125820695Y-88884920D01*
X125880860Y-88849397D01*
X125911261Y-88845610D01*
X126140078Y-88845610D01*
X126147021Y-88845999D01*
X126185712Y-88850360D01*
X126224402Y-88845999D01*
X126231346Y-88845610D01*
X128050073Y-88845610D01*
X128057013Y-88845999D01*
X128087165Y-88849397D01*
X128095711Y-88850360D01*
X128095712Y-88850360D01*
X128095713Y-88850360D01*
X128104258Y-88849397D01*
X128134409Y-88845999D01*
X128141350Y-88845610D01*
X128370155Y-88845610D01*
X128437194Y-88865295D01*
X128482949Y-88918099D01*
X128492137Y-88947333D01*
X128493113Y-88952679D01*
X128538966Y-89110504D01*
X128538967Y-89110507D01*
X128622629Y-89251973D01*
X128622635Y-89251981D01*
X128738841Y-89368187D01*
X128738845Y-89368190D01*
X128738847Y-89368192D01*
X128880314Y-89451855D01*
X128909617Y-89460368D01*
X129000806Y-89486862D01*
X129059692Y-89524468D01*
X129088898Y-89587941D01*
X129090211Y-89605938D01*
X129090211Y-90684608D01*
X129070526Y-90751647D01*
X129058376Y-90767564D01*
X129058184Y-90767776D01*
X129058176Y-90767787D01*
X128963533Y-90931715D01*
X128963530Y-90931722D01*
X128905039Y-91111740D01*
X128905038Y-91111744D01*
X128885252Y-91300000D01*
X128905038Y-91488256D01*
X128905039Y-91488259D01*
X128963530Y-91668277D01*
X128963533Y-91668284D01*
X129058179Y-91832216D01*
X129148218Y-91932214D01*
X129184841Y-91972888D01*
X129337977Y-92084148D01*
X129337982Y-92084151D01*
X129510904Y-92161142D01*
X129510909Y-92161144D01*
X129696066Y-92200500D01*
X129696067Y-92200500D01*
X129885356Y-92200500D01*
X129885358Y-92200500D01*
X130070515Y-92161144D01*
X130243442Y-92084151D01*
X130396583Y-91972888D01*
X130523245Y-91832216D01*
X130617891Y-91668284D01*
X130676386Y-91488256D01*
X130696172Y-91300000D01*
X130676386Y-91111744D01*
X130617891Y-90931716D01*
X130523245Y-90767784D01*
X130523054Y-90767572D01*
X130522983Y-90767423D01*
X130519427Y-90762529D01*
X130520322Y-90761878D01*
X130492830Y-90704579D01*
X130491211Y-90684607D01*
X130491211Y-90127266D01*
X130491211Y-89605934D01*
X130510896Y-89538899D01*
X130563700Y-89493144D01*
X130580602Y-89486865D01*
X130701110Y-89451855D01*
X130842577Y-89368192D01*
X130958793Y-89251976D01*
X131042456Y-89110509D01*
X131088310Y-88952680D01*
X131090975Y-88918818D01*
X131091212Y-88915807D01*
X131091212Y-88484415D01*
X131088310Y-88447543D01*
X131088309Y-88447537D01*
X131048850Y-88311722D01*
X131042456Y-88289713D01*
X131042453Y-88289708D01*
X131040295Y-88284720D01*
X131031732Y-88215377D01*
X131062019Y-88152413D01*
X131121538Y-88115818D01*
X131191394Y-88117211D01*
X131241775Y-88147787D01*
X131291955Y-88197967D01*
X131291959Y-88197970D01*
X131436294Y-88286998D01*
X131436297Y-88286999D01*
X131436303Y-88287003D01*
X131597292Y-88340349D01*
X131696655Y-88350500D01*
X132293344Y-88350499D01*
X132293352Y-88350498D01*
X132293355Y-88350498D01*
X132347760Y-88344940D01*
X132392708Y-88340349D01*
X132553697Y-88287003D01*
X132698044Y-88197968D01*
X132707319Y-88188692D01*
X132768642Y-88155208D01*
X132838334Y-88160192D01*
X132882681Y-88188693D01*
X132891955Y-88197967D01*
X132891959Y-88197970D01*
X133036294Y-88286998D01*
X133036297Y-88286999D01*
X133036303Y-88287003D01*
X133197292Y-88340349D01*
X133296655Y-88350500D01*
X133893344Y-88350499D01*
X133893352Y-88350498D01*
X133893355Y-88350498D01*
X133947760Y-88344940D01*
X133992708Y-88340349D01*
X134153697Y-88287003D01*
X134298044Y-88197968D01*
X134417968Y-88078044D01*
X134507003Y-87933697D01*
X134560349Y-87772708D01*
X134570500Y-87673345D01*
X134570499Y-87126656D01*
X134568498Y-87107071D01*
X134560349Y-87027292D01*
X134560348Y-87027289D01*
X134551282Y-86999930D01*
X134507003Y-86866303D01*
X134506999Y-86866297D01*
X134506998Y-86866294D01*
X134417970Y-86721959D01*
X134417967Y-86721955D01*
X134385916Y-86689904D01*
X134352431Y-86628581D01*
X134357415Y-86558889D01*
X134366201Y-86540240D01*
X134422179Y-86443284D01*
X134480674Y-86263256D01*
X134481687Y-86253610D01*
X134508270Y-86188994D01*
X134565567Y-86149008D01*
X134630787Y-86145278D01*
X134655354Y-86150500D01*
X134655358Y-86150500D01*
X134844644Y-86150500D01*
X134844646Y-86150500D01*
X135029803Y-86111144D01*
X135202730Y-86034151D01*
X135355871Y-85922888D01*
X135482533Y-85782216D01*
X135577179Y-85618284D01*
X135635674Y-85438256D01*
X135655460Y-85250000D01*
X135635674Y-85061744D01*
X135577179Y-84881716D01*
X135482533Y-84717784D01*
X135355871Y-84577112D01*
X135283893Y-84524817D01*
X135241229Y-84469488D01*
X135235250Y-84399875D01*
X135267856Y-84338080D01*
X135328695Y-84303722D01*
X135356780Y-84300500D01*
X136317060Y-84300500D01*
X136384099Y-84320185D01*
X136404741Y-84336819D01*
X142358180Y-90290258D01*
X142391665Y-90351581D01*
X142394499Y-90377938D01*
X142394499Y-90862348D01*
X142395721Y-90887183D01*
X142399332Y-90923776D01*
X142400512Y-90931715D01*
X142406631Y-90972899D01*
X142454538Y-91108571D01*
X142486942Y-91170472D01*
X142486944Y-91170477D01*
X142571133Y-91287151D01*
X142571135Y-91287153D01*
X145310006Y-94123840D01*
X145310009Y-94123843D01*
X145310008Y-94123843D01*
X145330776Y-94143072D01*
X145330777Y-94143072D01*
X145330778Y-94143073D01*
X145363039Y-94169752D01*
X145363042Y-94169754D01*
X145363041Y-94169754D01*
X145404423Y-94200244D01*
X145408581Y-94203307D01*
X145538989Y-94264096D01*
X145605872Y-94284303D01*
X145748120Y-94305891D01*
X147759841Y-94321606D01*
X147826724Y-94341813D01*
X147846553Y-94357921D01*
X148078864Y-94590232D01*
X148090645Y-94603864D01*
X148104982Y-94623122D01*
X148145003Y-94656705D01*
X148148991Y-94660360D01*
X148154810Y-94666179D01*
X148154814Y-94666182D01*
X148154817Y-94666185D01*
X148180552Y-94686533D01*
X148180553Y-94686534D01*
X148239380Y-94735897D01*
X148245022Y-94739607D01*
X148264566Y-94755528D01*
X148588181Y-95079142D01*
X148621666Y-95140465D01*
X148624500Y-95166823D01*
X148624500Y-95256614D01*
X148630913Y-95327193D01*
X148630913Y-95327195D01*
X148630914Y-95327197D01*
X148681522Y-95489607D01*
X148699546Y-95519423D01*
X148769530Y-95635189D01*
X148871661Y-95737320D01*
X148905146Y-95798643D01*
X148900162Y-95868335D01*
X148871661Y-95912682D01*
X148769531Y-96014811D01*
X148769530Y-96014812D01*
X148681522Y-96160394D01*
X148630913Y-96322808D01*
X148624500Y-96393387D01*
X148624500Y-96906614D01*
X148630913Y-96977193D01*
X148681522Y-97139607D01*
X148769530Y-97285189D01*
X148889811Y-97405470D01*
X148889813Y-97405471D01*
X148889815Y-97405473D01*
X149035394Y-97493479D01*
X149197804Y-97544087D01*
X149268384Y-97550501D01*
X149268387Y-97550501D01*
X149931613Y-97550501D01*
X149931616Y-97550501D01*
X150002196Y-97544087D01*
X150164606Y-97493479D01*
X150206119Y-97468382D01*
X150270270Y-97450499D01*
X150397020Y-97450499D01*
X150461168Y-97468381D01*
X150585394Y-97543479D01*
X150747804Y-97594087D01*
X150818384Y-97600501D01*
X150818387Y-97600501D01*
X151331613Y-97600501D01*
X151331616Y-97600501D01*
X151402196Y-97594087D01*
X151564606Y-97543479D01*
X151710185Y-97455473D01*
X151830472Y-97335186D01*
X151918478Y-97189607D01*
X151969086Y-97027197D01*
X151975500Y-96956617D01*
X151975500Y-96293385D01*
X151969086Y-96222805D01*
X151918478Y-96060395D01*
X151893381Y-96018881D01*
X151875499Y-95954732D01*
X151875499Y-95848378D01*
X151875499Y-95798203D01*
X151895184Y-95731167D01*
X151947988Y-95685412D01*
X151989771Y-95674588D01*
X152015069Y-95672598D01*
X152015071Y-95672597D01*
X152015073Y-95672597D01*
X152056691Y-95660505D01*
X152172898Y-95626744D01*
X152314365Y-95543081D01*
X152381955Y-95475490D01*
X152443276Y-95442007D01*
X152512968Y-95446991D01*
X152568902Y-95488862D01*
X152586534Y-95521815D01*
X152596683Y-95550500D01*
X152621102Y-95619521D01*
X152701892Y-95738578D01*
X152748953Y-95790222D01*
X152860007Y-95881693D01*
X152992338Y-95938174D01*
X153059848Y-95956177D01*
X153062836Y-95956569D01*
X153063480Y-95956607D01*
X153084602Y-95959106D01*
X153202733Y-95973088D01*
X154881368Y-95931122D01*
X155004575Y-95912686D01*
X155062997Y-95896387D01*
X155063002Y-95896384D01*
X155063005Y-95896384D01*
X155177954Y-95848378D01*
X155265755Y-95798206D01*
X155705650Y-95546837D01*
X155767171Y-95530500D01*
X159077098Y-95530500D01*
X159077102Y-95530500D01*
X159182346Y-95519423D01*
X159232848Y-95508673D01*
X159333482Y-95475926D01*
X159455211Y-95399222D01*
X159505699Y-95356256D01*
X159506207Y-95355873D01*
X159508393Y-95353964D01*
X159508422Y-95353940D01*
X159508425Y-95353938D01*
X159603613Y-95246046D01*
X159664548Y-95115706D01*
X159684830Y-95048845D01*
X159706577Y-94906620D01*
X159710148Y-94506610D01*
X170199500Y-94506610D01*
X170238679Y-94716198D01*
X170315702Y-94915019D01*
X170427948Y-95096302D01*
X170508935Y-95185140D01*
X170571593Y-95253872D01*
X170741746Y-95382367D01*
X170932606Y-95477403D01*
X170932608Y-95477403D01*
X170932611Y-95477405D01*
X171137690Y-95535756D01*
X171296806Y-95550500D01*
X171296810Y-95550500D01*
X172703190Y-95550500D01*
X172703194Y-95550500D01*
X172862310Y-95535756D01*
X173067389Y-95477405D01*
X173067393Y-95477403D01*
X173067394Y-95477403D01*
X173258253Y-95382367D01*
X173258253Y-95382366D01*
X173258255Y-95382366D01*
X173428407Y-95253872D01*
X173572052Y-95096302D01*
X173684298Y-94915019D01*
X173761321Y-94716198D01*
X173800500Y-94506610D01*
X173800500Y-94293390D01*
X173761321Y-94083802D01*
X173684298Y-93884981D01*
X173572052Y-93703698D01*
X173428407Y-93546128D01*
X173428406Y-93546127D01*
X173258253Y-93417632D01*
X173067393Y-93322596D01*
X172862310Y-93264244D01*
X172862309Y-93264244D01*
X172703194Y-93249500D01*
X171296806Y-93249500D01*
X171169513Y-93261295D01*
X171137689Y-93264244D01*
X170932607Y-93322596D01*
X170932605Y-93322596D01*
X170741746Y-93417632D01*
X170571593Y-93546127D01*
X170427947Y-93703699D01*
X170315702Y-93884980D01*
X170315701Y-93884982D01*
X170241159Y-94077401D01*
X170238679Y-94083802D01*
X170199500Y-94293390D01*
X170199500Y-94506610D01*
X159710148Y-94506610D01*
X159728834Y-92413793D01*
X159749116Y-92346934D01*
X159802327Y-92301652D01*
X159827034Y-92293615D01*
X159979803Y-92261144D01*
X159979807Y-92261142D01*
X159979808Y-92261142D01*
X160038058Y-92235206D01*
X160152730Y-92184151D01*
X160305871Y-92072888D01*
X160432533Y-91932216D01*
X160527179Y-91768284D01*
X160585674Y-91588256D01*
X160605460Y-91400000D01*
X160585674Y-91211744D01*
X160527179Y-91031716D01*
X160432533Y-90867784D01*
X160305871Y-90727112D01*
X160274857Y-90704579D01*
X160152734Y-90615851D01*
X160152729Y-90615848D01*
X159979807Y-90538857D01*
X159979802Y-90538855D01*
X159861724Y-90513757D01*
X159845135Y-90510231D01*
X159783654Y-90477040D01*
X159749878Y-90415877D01*
X159746922Y-90387843D01*
X159754362Y-89554619D01*
X159743304Y-89444857D01*
X159732103Y-89392239D01*
X159697500Y-89287495D01*
X159619712Y-89166456D01*
X159618751Y-89165347D01*
X159573963Y-89113658D01*
X159573959Y-89113655D01*
X159573957Y-89113652D01*
X159465223Y-89019432D01*
X159465220Y-89019430D01*
X159465218Y-89019429D01*
X159334352Y-88959663D01*
X159334347Y-88959661D01*
X159334346Y-88959661D01*
X159310565Y-88952678D01*
X159267312Y-88939977D01*
X159267306Y-88939975D01*
X159181853Y-88927689D01*
X159124887Y-88919499D01*
X155080583Y-88919499D01*
X155013544Y-88899814D01*
X154967789Y-88847010D01*
X154956590Y-88796854D01*
X154955107Y-88661142D01*
X154945695Y-87800000D01*
X165494540Y-87800000D01*
X165514326Y-87988256D01*
X165514327Y-87988259D01*
X165572818Y-88168277D01*
X165572821Y-88168284D01*
X165667467Y-88332216D01*
X165729144Y-88400715D01*
X165794129Y-88472888D01*
X165947265Y-88584148D01*
X165947270Y-88584151D01*
X166120192Y-88661142D01*
X166120197Y-88661144D01*
X166305354Y-88700500D01*
X166305355Y-88700500D01*
X166494644Y-88700500D01*
X166494646Y-88700500D01*
X166679803Y-88661144D01*
X166852730Y-88584151D01*
X166913788Y-88539790D01*
X166935271Y-88524182D01*
X167001077Y-88500702D01*
X167008156Y-88500500D01*
X167171560Y-88500500D01*
X167206155Y-88505424D01*
X167265839Y-88522764D01*
X167265842Y-88522764D01*
X167265844Y-88522765D01*
X167271638Y-88523221D01*
X167300593Y-88525500D01*
X167300594Y-88525499D01*
X167300595Y-88525500D01*
X167634261Y-88525499D01*
X167799405Y-88525499D01*
X167806354Y-88524952D01*
X167834156Y-88522765D01*
X167982887Y-88479555D01*
X168116198Y-88400715D01*
X168225715Y-88291198D01*
X168304555Y-88157887D01*
X168347765Y-88009156D01*
X168350500Y-87974405D01*
X168350499Y-87625596D01*
X168347765Y-87590844D01*
X168304555Y-87442113D01*
X168225715Y-87308802D01*
X168225713Y-87308800D01*
X168225710Y-87308796D01*
X168116203Y-87199289D01*
X168116194Y-87199282D01*
X168035111Y-87151330D01*
X167982887Y-87120445D01*
X167834156Y-87077235D01*
X167834153Y-87077234D01*
X167834151Y-87077234D01*
X167799407Y-87074500D01*
X167799405Y-87074500D01*
X167466325Y-87074500D01*
X167300595Y-87074501D01*
X167265842Y-87077235D01*
X167206155Y-87094576D01*
X167171560Y-87099500D01*
X167008156Y-87099500D01*
X166941117Y-87079815D01*
X166935271Y-87075818D01*
X166852734Y-87015851D01*
X166852729Y-87015848D01*
X166679807Y-86938857D01*
X166679802Y-86938855D01*
X166534000Y-86907865D01*
X166494646Y-86899500D01*
X166305354Y-86899500D01*
X166272897Y-86906398D01*
X166120197Y-86938855D01*
X166120192Y-86938857D01*
X165947270Y-87015848D01*
X165947265Y-87015851D01*
X165794129Y-87127111D01*
X165667466Y-87267785D01*
X165572821Y-87431715D01*
X165572818Y-87431722D01*
X165521116Y-87590847D01*
X165514326Y-87611744D01*
X165494540Y-87800000D01*
X154945695Y-87800000D01*
X154908116Y-84361613D01*
X166299500Y-84361613D01*
X166305913Y-84432192D01*
X166305913Y-84432194D01*
X166305914Y-84432196D01*
X166356522Y-84594606D01*
X166444528Y-84740185D01*
X166467766Y-84763423D01*
X166501251Y-84824744D01*
X166498017Y-84889420D01*
X166485004Y-84929469D01*
X166485004Y-84929470D01*
X166471102Y-85061740D01*
X166465218Y-85117727D01*
X166485004Y-85305983D01*
X166485005Y-85305986D01*
X166543496Y-85486004D01*
X166543499Y-85486011D01*
X166638145Y-85649943D01*
X166764150Y-85789885D01*
X166764807Y-85790615D01*
X166917943Y-85901875D01*
X166917948Y-85901878D01*
X167090870Y-85978869D01*
X167090875Y-85978871D01*
X167276032Y-86018227D01*
X167276033Y-86018227D01*
X167465322Y-86018227D01*
X167465324Y-86018227D01*
X167589503Y-85991832D01*
X167659169Y-85997148D01*
X167714903Y-86039285D01*
X167738503Y-86099234D01*
X167739632Y-86109259D01*
X167753420Y-86148662D01*
X167755345Y-86155345D01*
X167764639Y-86196061D01*
X167782759Y-86233688D01*
X167785421Y-86240114D01*
X167799212Y-86279525D01*
X167821422Y-86314872D01*
X167824787Y-86320959D01*
X167842910Y-86358589D01*
X167868940Y-86391229D01*
X167872966Y-86396904D01*
X167895182Y-86432259D01*
X167895184Y-86432262D01*
X168372739Y-86909817D01*
X168372742Y-86909819D01*
X168408089Y-86932029D01*
X168413763Y-86936055D01*
X168440918Y-86957709D01*
X168446414Y-86962092D01*
X168463435Y-86970289D01*
X168484033Y-86980209D01*
X168490122Y-86983574D01*
X168525471Y-87005785D01*
X168525474Y-87005786D01*
X168525478Y-87005789D01*
X168564899Y-87019583D01*
X168571307Y-87022238D01*
X168608939Y-87040360D01*
X168649641Y-87049650D01*
X168656328Y-87051576D01*
X168695742Y-87065367D01*
X168695745Y-87065368D01*
X168737241Y-87070043D01*
X168744093Y-87071207D01*
X168784806Y-87080500D01*
X168830046Y-87080500D01*
X168850500Y-87080500D01*
X168917539Y-87100185D01*
X168963294Y-87152989D01*
X168974500Y-87204500D01*
X168974500Y-87274515D01*
X168957232Y-87337636D01*
X168901594Y-87431715D01*
X168895445Y-87442113D01*
X168884000Y-87481507D01*
X168852234Y-87590847D01*
X168852234Y-87590849D01*
X168849500Y-87625593D01*
X168849501Y-87974405D01*
X168852234Y-88009152D01*
X168852234Y-88009155D01*
X168852235Y-88009156D01*
X168895445Y-88157887D01*
X168901590Y-88168277D01*
X168974282Y-88291194D01*
X168974289Y-88291203D01*
X169083796Y-88400710D01*
X169083800Y-88400713D01*
X169083802Y-88400715D01*
X169217113Y-88479555D01*
X169365844Y-88522765D01*
X169371640Y-88523221D01*
X169419541Y-88537043D01*
X169424775Y-88539790D01*
X169589944Y-88580500D01*
X169760056Y-88580500D01*
X169925225Y-88539790D01*
X169975761Y-88513265D01*
X169998781Y-88503989D01*
X170082887Y-88479555D01*
X170216198Y-88400715D01*
X170325715Y-88291198D01*
X170404555Y-88157887D01*
X170447765Y-88009156D01*
X170450500Y-87974405D01*
X170450499Y-87625596D01*
X170447765Y-87590844D01*
X170404555Y-87442113D01*
X170398410Y-87431722D01*
X170392768Y-87422181D01*
X170375500Y-87359060D01*
X170375500Y-87204500D01*
X170395185Y-87137461D01*
X170447989Y-87091706D01*
X170499500Y-87080500D01*
X171848694Y-87080500D01*
X171848710Y-87080499D01*
X172075668Y-87080499D01*
X172142707Y-87100184D01*
X172185223Y-87146416D01*
X172232714Y-87235993D01*
X172348955Y-87372842D01*
X172348956Y-87372843D01*
X172491901Y-87481507D01*
X172654862Y-87556901D01*
X172654863Y-87556901D01*
X172654865Y-87556902D01*
X172708065Y-87568611D01*
X172830221Y-87595500D01*
X172830224Y-87595500D01*
X172964755Y-87595500D01*
X172964760Y-87595500D01*
X173098505Y-87580954D01*
X173268662Y-87523622D01*
X173422517Y-87431050D01*
X173552875Y-87307569D01*
X173553540Y-87306589D01*
X173579850Y-87267784D01*
X173653640Y-87158951D01*
X173720101Y-86992147D01*
X173749150Y-86814955D01*
X173739429Y-86635661D01*
X173739139Y-86634615D01*
X173691394Y-86462651D01*
X173691391Y-86462645D01*
X173607285Y-86304006D01*
X173491044Y-86167157D01*
X173491043Y-86167156D01*
X173348099Y-86058493D01*
X173185138Y-85983099D01*
X173185134Y-85983097D01*
X173017843Y-85946275D01*
X172956602Y-85912639D01*
X172923268Y-85851234D01*
X172920499Y-85825183D01*
X172920499Y-85432128D01*
X172920498Y-85432111D01*
X172916320Y-85393253D01*
X172916320Y-85366747D01*
X172920500Y-85327873D01*
X172920499Y-84932128D01*
X172920498Y-84932111D01*
X172916320Y-84893253D01*
X172916320Y-84866747D01*
X172920500Y-84827873D01*
X172920499Y-84802563D01*
X172940181Y-84735526D01*
X172992984Y-84689769D01*
X172997047Y-84688001D01*
X173029842Y-84674417D01*
X173077841Y-84654535D01*
X173086944Y-84647550D01*
X173203282Y-84558281D01*
X173224983Y-84529998D01*
X173230311Y-84523921D01*
X173318922Y-84435310D01*
X173324999Y-84429982D01*
X173353282Y-84408281D01*
X173449536Y-84282840D01*
X173510044Y-84136761D01*
X173522267Y-84043916D01*
X173530682Y-83979999D01*
X173526030Y-83944668D01*
X173525500Y-83936570D01*
X173525500Y-83298428D01*
X173526031Y-83290326D01*
X173526943Y-83283403D01*
X173530682Y-83255000D01*
X173519264Y-83168275D01*
X173510044Y-83098239D01*
X173510042Y-83098234D01*
X173508539Y-83094606D01*
X173449538Y-82952163D01*
X173449538Y-82952162D01*
X173434214Y-82932192D01*
X173399908Y-82887483D01*
X173380058Y-82861613D01*
X173353283Y-82826718D01*
X173325007Y-82805022D01*
X173318904Y-82799669D01*
X173288321Y-82769086D01*
X173255321Y-82736086D01*
X173249977Y-82729991D01*
X173241142Y-82718478D01*
X173228282Y-82701718D01*
X173144651Y-82637546D01*
X173102841Y-82605464D01*
X173102837Y-82605462D01*
X173102838Y-82605462D01*
X172997046Y-82561642D01*
X172942643Y-82517801D01*
X172920578Y-82451507D01*
X172920499Y-82447081D01*
X172920499Y-82432128D01*
X172920498Y-82432111D01*
X172916320Y-82393253D01*
X172916320Y-82366747D01*
X172920500Y-82327873D01*
X172920499Y-81932128D01*
X172920499Y-81932127D01*
X172920499Y-81931558D01*
X172940183Y-81864519D01*
X172992987Y-81818764D01*
X173031088Y-81808286D01*
X173098505Y-81800954D01*
X173268662Y-81743622D01*
X173422517Y-81651050D01*
X173552875Y-81527569D01*
X173653640Y-81378951D01*
X173720101Y-81212147D01*
X173749150Y-81034955D01*
X173739429Y-80855661D01*
X173737909Y-80850186D01*
X173691394Y-80682651D01*
X173691391Y-80682645D01*
X173607285Y-80524006D01*
X173491044Y-80387157D01*
X173491044Y-80387156D01*
X173348099Y-80278493D01*
X173185138Y-80203099D01*
X173185134Y-80203097D01*
X173009779Y-80164500D01*
X172875240Y-80164500D01*
X172875238Y-80164500D01*
X172741496Y-80179045D01*
X172741489Y-80179047D01*
X172571339Y-80236377D01*
X172571336Y-80236379D01*
X172417482Y-80328950D01*
X172287123Y-80452431D01*
X172186359Y-80601050D01*
X172186223Y-80601393D01*
X172186082Y-80601572D01*
X172183206Y-80606997D01*
X172182234Y-80606481D01*
X172175000Y-80615711D01*
X172175000Y-80380000D01*
X172175000Y-78379999D01*
X169675000Y-78379999D01*
X169675000Y-80679500D01*
X169015192Y-80679500D01*
X168834804Y-80679500D01*
X168834803Y-80679500D01*
X168834795Y-80679501D01*
X168794092Y-80688791D01*
X168787233Y-80689957D01*
X168745748Y-80694630D01*
X168745744Y-80694631D01*
X168706333Y-80708422D01*
X168699651Y-80710347D01*
X168658937Y-80719640D01*
X168658935Y-80719640D01*
X168658934Y-80719641D01*
X168621306Y-80737760D01*
X168614881Y-80740422D01*
X168575476Y-80754211D01*
X168540125Y-80776423D01*
X168534039Y-80779787D01*
X168496417Y-80797906D01*
X168496415Y-80797907D01*
X168496412Y-80797909D01*
X168463767Y-80823942D01*
X168458095Y-80827966D01*
X168422738Y-80850183D01*
X168422734Y-80850186D01*
X168390747Y-80882174D01*
X168279339Y-80993582D01*
X168218016Y-81027066D01*
X168148324Y-81022082D01*
X168099509Y-80988873D01*
X167980871Y-80857112D01*
X167978867Y-80855656D01*
X167827734Y-80745851D01*
X167827729Y-80745848D01*
X167654807Y-80668857D01*
X167654802Y-80668855D01*
X167509001Y-80637865D01*
X167469646Y-80629500D01*
X167280354Y-80629500D01*
X167247897Y-80636398D01*
X167095197Y-80668855D01*
X167095192Y-80668857D01*
X166922270Y-80745848D01*
X166922265Y-80745851D01*
X166769129Y-80857111D01*
X166642466Y-80997785D01*
X166547821Y-81161715D01*
X166547818Y-81161722D01*
X166489327Y-81341740D01*
X166489326Y-81341744D01*
X166483434Y-81397804D01*
X166469540Y-81530000D01*
X166488542Y-81710798D01*
X166475972Y-81779528D01*
X166452905Y-81811437D01*
X166444526Y-81819816D01*
X166356522Y-81965393D01*
X166305913Y-82127807D01*
X166302236Y-82168277D01*
X166299500Y-82198384D01*
X166299500Y-82861616D01*
X166300279Y-82870184D01*
X166305913Y-82932192D01*
X166305913Y-82932194D01*
X166305914Y-82932196D01*
X166356522Y-83094606D01*
X166429817Y-83215851D01*
X166447653Y-83283403D01*
X166429817Y-83344149D01*
X166356522Y-83465393D01*
X166305913Y-83627807D01*
X166299500Y-83698386D01*
X166299500Y-84361613D01*
X154908116Y-84361613D01*
X154906810Y-84242121D01*
X154906301Y-84237728D01*
X154894692Y-84137499D01*
X154894691Y-84137488D01*
X154883492Y-84087332D01*
X154849960Y-83987496D01*
X154843436Y-83977345D01*
X154772176Y-83866462D01*
X154772167Y-83866451D01*
X154726423Y-83813659D01*
X154726419Y-83813656D01*
X154726417Y-83813653D01*
X154617683Y-83719433D01*
X154617680Y-83719431D01*
X154617678Y-83719430D01*
X154486812Y-83659664D01*
X154486807Y-83659662D01*
X154486806Y-83659662D01*
X154447901Y-83648238D01*
X154419772Y-83639978D01*
X154419766Y-83639976D01*
X154334313Y-83627690D01*
X154277347Y-83619500D01*
X151516257Y-83619500D01*
X151506049Y-83620431D01*
X151424779Y-83627845D01*
X151424765Y-83627847D01*
X151380641Y-83635967D01*
X151380625Y-83635970D01*
X151292160Y-83660738D01*
X151292154Y-83660741D01*
X151166360Y-83730574D01*
X151166354Y-83730578D01*
X151110729Y-83772829D01*
X151110721Y-83772835D01*
X151009699Y-83875276D01*
X150941628Y-84002031D01*
X150917667Y-84067664D01*
X150917666Y-84067669D01*
X150888062Y-84208472D01*
X150888062Y-84208474D01*
X150727094Y-86703483D01*
X150703134Y-86769116D01*
X150647494Y-86811377D01*
X150603351Y-86819500D01*
X143023999Y-86819500D01*
X143023990Y-86819500D01*
X143023989Y-86819501D01*
X142916548Y-86831052D01*
X142916536Y-86831054D01*
X142865026Y-86842260D01*
X142762501Y-86876383D01*
X142762495Y-86876386D01*
X142641461Y-86954171D01*
X142641450Y-86954179D01*
X142588656Y-86999925D01*
X142588653Y-86999928D01*
X142494437Y-87108656D01*
X142494435Y-87108660D01*
X142434660Y-87239543D01*
X142426368Y-87267784D01*
X142414977Y-87306577D01*
X142414975Y-87306583D01*
X142414974Y-87306585D01*
X142414973Y-87306589D01*
X142394499Y-87448998D01*
X142394499Y-87763059D01*
X142374814Y-87830098D01*
X142322010Y-87875853D01*
X142252852Y-87885797D01*
X142189296Y-87856772D01*
X142182818Y-87850740D01*
X137251693Y-82919615D01*
X137251691Y-82919612D01*
X137234252Y-82902173D01*
X137202262Y-82870184D01*
X137202259Y-82870182D01*
X137202258Y-82870181D01*
X137166904Y-82847966D01*
X137161229Y-82843940D01*
X137128589Y-82817910D01*
X137090959Y-82799787D01*
X137084872Y-82796422D01*
X137049525Y-82774212D01*
X137010114Y-82760421D01*
X137003688Y-82757759D01*
X136966061Y-82739639D01*
X136925345Y-82730345D01*
X136918662Y-82728420D01*
X136879259Y-82714632D01*
X136837763Y-82709955D01*
X136830908Y-82708791D01*
X136790200Y-82699501D01*
X136790196Y-82699500D01*
X136790194Y-82699500D01*
X136790191Y-82699500D01*
X108582940Y-82699500D01*
X108515901Y-82679815D01*
X108495259Y-82663181D01*
X100362964Y-74530886D01*
X109433708Y-74530886D01*
X109433814Y-74566418D01*
X109433813Y-74633870D01*
X109434026Y-74637057D01*
X109449299Y-79733371D01*
X109449515Y-79805597D01*
X109449515Y-79893280D01*
X109481908Y-80076998D01*
X109481910Y-80077003D01*
X109545714Y-80252303D01*
X109560835Y-80278493D01*
X109638992Y-80413869D01*
X109737791Y-80531616D01*
X109758903Y-80556777D01*
X109811663Y-80601049D01*
X109901805Y-80676690D01*
X109901808Y-80676692D01*
X109901811Y-80676694D01*
X110063371Y-80769974D01*
X110238674Y-80833784D01*
X110422394Y-80866183D01*
X110474761Y-80866183D01*
X110474777Y-80866185D01*
X110515672Y-80866185D01*
X110581564Y-80866187D01*
X110581567Y-80866185D01*
X110590187Y-80866186D01*
X110590216Y-80866185D01*
X158043275Y-80866185D01*
X158043279Y-80866185D01*
X158227003Y-80833790D01*
X158402311Y-80769983D01*
X158563875Y-80676704D01*
X158706787Y-80556787D01*
X158826704Y-80413875D01*
X158919983Y-80252311D01*
X158983790Y-80077003D01*
X159016185Y-79893279D01*
X159016185Y-79800000D01*
X159016185Y-79734108D01*
X159016185Y-74640216D01*
X159016186Y-74640187D01*
X159016186Y-74631567D01*
X159016187Y-74631564D01*
X159016186Y-74617049D01*
X159016200Y-74617000D01*
X159016199Y-74565672D01*
X159016200Y-74565672D01*
X159016198Y-74472393D01*
X158983798Y-74288670D01*
X158983796Y-74288665D01*
X158983796Y-74288663D01*
X158919990Y-74113371D01*
X158919988Y-74113365D01*
X158826706Y-73951802D01*
X158769795Y-73883981D01*
X158706787Y-73808893D01*
X158668474Y-73776745D01*
X158563874Y-73688977D01*
X158540267Y-73675348D01*
X158448302Y-73622253D01*
X158402310Y-73595700D01*
X158314656Y-73563796D01*
X158227001Y-73531893D01*
X158043283Y-73499500D01*
X158043279Y-73499500D01*
X157985799Y-73499500D01*
X110464201Y-73499500D01*
X110462190Y-73499500D01*
X110461771Y-73499515D01*
X110406719Y-73499515D01*
X110223001Y-73531908D01*
X110109469Y-73573230D01*
X110047697Y-73595714D01*
X110047694Y-73595715D01*
X110047693Y-73595716D01*
X109886130Y-73688992D01*
X109743229Y-73808897D01*
X109743221Y-73808905D01*
X109623309Y-73951805D01*
X109530026Y-74113370D01*
X109530026Y-74113371D01*
X109466217Y-74288670D01*
X109433816Y-74472395D01*
X109433816Y-74472396D01*
X109433815Y-74527740D01*
X109433708Y-74530886D01*
X100362964Y-74530886D01*
X98241813Y-72409735D01*
X98241810Y-72409733D01*
X98227262Y-72395184D01*
X98227261Y-72395183D01*
X98227260Y-72395182D01*
X98191904Y-72372967D01*
X98186230Y-72368941D01*
X98153589Y-72342910D01*
X98115959Y-72324787D01*
X98109872Y-72321422D01*
X98074525Y-72299212D01*
X98035114Y-72285421D01*
X98028688Y-72282759D01*
X97991061Y-72264640D01*
X97950344Y-72255345D01*
X97943661Y-72253419D01*
X97909713Y-72241541D01*
X97852937Y-72200819D01*
X97827189Y-72135867D01*
X97840645Y-72067305D01*
X97889032Y-72016902D01*
X97950663Y-72000499D01*
X99708036Y-72000499D01*
X99827418Y-71989886D01*
X100023049Y-71933909D01*
X100203407Y-71839698D01*
X100361109Y-71711109D01*
X100489698Y-71553407D01*
X100583909Y-71373049D01*
X100639886Y-71177418D01*
X100650500Y-71058037D01*
X100650499Y-69941964D01*
X100639886Y-69822582D01*
X100588678Y-69643617D01*
X100583910Y-69626954D01*
X100583909Y-69626953D01*
X100583909Y-69626951D01*
X100489698Y-69446593D01*
X100409200Y-69347870D01*
X100361109Y-69288890D01*
X100203409Y-69160304D01*
X100203410Y-69160304D01*
X100203407Y-69160302D01*
X100023049Y-69066091D01*
X100023048Y-69066090D01*
X100023045Y-69066089D01*
X99905829Y-69032550D01*
X99827418Y-69010114D01*
X99827415Y-69010113D01*
X99827413Y-69010113D01*
X99736983Y-69002073D01*
X99708037Y-68999500D01*
X99708035Y-68999500D01*
X99708034Y-68999500D01*
X98889142Y-68999500D01*
X97791964Y-68999501D01*
X97762727Y-69002100D01*
X97672584Y-69010113D01*
X97476954Y-69066089D01*
X97386771Y-69113196D01*
X97296593Y-69160302D01*
X97296591Y-69160303D01*
X97296590Y-69160304D01*
X97138890Y-69288890D01*
X97010304Y-69446590D01*
X96916089Y-69626954D01*
X96860114Y-69822583D01*
X96860113Y-69822586D01*
X96849500Y-69941965D01*
X96849500Y-69941966D01*
X96849501Y-71058032D01*
X96849501Y-71058033D01*
X96860113Y-71177415D01*
X96916089Y-71373045D01*
X96916090Y-71373048D01*
X96916091Y-71373049D01*
X97010302Y-71553407D01*
X97010304Y-71553409D01*
X97138890Y-71711109D01*
X97232803Y-71787684D01*
X97296593Y-71839698D01*
X97476951Y-71933909D01*
X97642522Y-71981284D01*
X97701559Y-72018651D01*
X97731023Y-72082005D01*
X97721558Y-72151230D01*
X97676169Y-72204349D01*
X97609267Y-72224497D01*
X97608410Y-72224500D01*
X95134304Y-72224500D01*
X95097432Y-72227401D01*
X95097426Y-72227402D01*
X94939606Y-72273254D01*
X94939603Y-72273255D01*
X94814516Y-72347231D01*
X94751395Y-72364499D01*
X91851602Y-72364499D01*
X91784563Y-72344814D01*
X91745486Y-72304650D01*
X91736727Y-72290161D01*
X91730472Y-72279814D01*
X91730471Y-72279813D01*
X91730468Y-72279809D01*
X91610188Y-72159529D01*
X91464606Y-72071521D01*
X91323174Y-72027450D01*
X91302196Y-72020913D01*
X91302194Y-72020912D01*
X91302192Y-72020912D01*
X91252778Y-72016422D01*
X91231616Y-72014499D01*
X90718384Y-72014499D01*
X90699145Y-72016247D01*
X90647807Y-72020912D01*
X90485393Y-72071521D01*
X90339811Y-72159529D01*
X90339810Y-72159530D01*
X90237681Y-72261660D01*
X90176358Y-72295145D01*
X90106666Y-72290161D01*
X90062319Y-72261660D01*
X89960188Y-72159529D01*
X89814606Y-72071521D01*
X89673174Y-72027450D01*
X89652196Y-72020913D01*
X89652194Y-72020912D01*
X89652192Y-72020912D01*
X89602778Y-72016422D01*
X89581616Y-72014499D01*
X89068384Y-72014499D01*
X89049145Y-72016247D01*
X88997807Y-72020912D01*
X88835393Y-72071521D01*
X88689815Y-72159527D01*
X88682185Y-72167157D01*
X88620860Y-72200639D01*
X88551169Y-72195652D01*
X88506826Y-72167153D01*
X88455391Y-72115718D01*
X88455387Y-72115715D01*
X88312295Y-72027454D01*
X88312289Y-72027451D01*
X88312287Y-72027450D01*
X88152685Y-71974563D01*
X88152683Y-71974562D01*
X88054181Y-71964499D01*
X88054174Y-71964499D01*
X87445826Y-71964499D01*
X87445818Y-71964499D01*
X87347316Y-71974562D01*
X87347315Y-71974563D01*
X87269046Y-72000499D01*
X87187715Y-72027449D01*
X87187704Y-72027454D01*
X87044612Y-72115715D01*
X87044608Y-72115718D01*
X86925719Y-72234607D01*
X86925716Y-72234611D01*
X86837455Y-72377703D01*
X86837450Y-72377714D01*
X86821061Y-72427174D01*
X86784564Y-72537314D01*
X86784564Y-72537315D01*
X86784563Y-72537315D01*
X86774500Y-72635817D01*
X86774500Y-73169180D01*
X79291177Y-73169180D01*
X79298683Y-67960002D01*
X86844652Y-67960002D01*
X86864028Y-68317368D01*
X86864029Y-68317385D01*
X86921926Y-68670539D01*
X86921932Y-68670565D01*
X87017672Y-69015392D01*
X87017674Y-69015399D01*
X87150142Y-69347870D01*
X87150151Y-69347888D01*
X87317784Y-69664077D01*
X87317787Y-69664082D01*
X87317789Y-69664085D01*
X87506198Y-69941968D01*
X87518634Y-69960309D01*
X87518641Y-69960319D01*
X87732945Y-70212617D01*
X87750332Y-70233086D01*
X88010163Y-70479211D01*
X88295081Y-70695800D01*
X88601747Y-70880315D01*
X88601749Y-70880316D01*
X88601751Y-70880317D01*
X88601755Y-70880319D01*
X88882309Y-71010116D01*
X88926565Y-71030591D01*
X89265726Y-71144868D01*
X89615254Y-71221805D01*
X89971052Y-71260500D01*
X89971058Y-71260500D01*
X90328942Y-71260500D01*
X90328948Y-71260500D01*
X90684746Y-71221805D01*
X91034274Y-71144868D01*
X91373435Y-71030591D01*
X91698253Y-70880315D01*
X92004919Y-70695800D01*
X92289837Y-70479211D01*
X92549668Y-70233086D01*
X92781365Y-69960311D01*
X92982211Y-69664085D01*
X93149853Y-69347880D01*
X93282324Y-69015403D01*
X93378071Y-68670552D01*
X93435972Y-68317371D01*
X93455348Y-67960000D01*
X93454238Y-67939533D01*
X162034183Y-67939533D01*
X162053559Y-68296899D01*
X162053560Y-68296916D01*
X162111457Y-68650070D01*
X162111463Y-68650096D01*
X162207203Y-68994923D01*
X162207205Y-68994930D01*
X162339673Y-69327401D01*
X162339682Y-69327419D01*
X162507315Y-69643608D01*
X162507318Y-69643613D01*
X162507320Y-69643616D01*
X162628663Y-69822584D01*
X162708165Y-69939840D01*
X162708172Y-69939850D01*
X162725559Y-69960319D01*
X162939863Y-70212617D01*
X163199694Y-70458742D01*
X163484612Y-70675331D01*
X163791278Y-70859846D01*
X163791280Y-70859847D01*
X163791282Y-70859848D01*
X163791286Y-70859850D01*
X164116083Y-71010116D01*
X164116096Y-71010122D01*
X164455257Y-71124399D01*
X164804785Y-71201336D01*
X165160583Y-71240031D01*
X165160589Y-71240031D01*
X165518473Y-71240031D01*
X165518479Y-71240031D01*
X165874277Y-71201336D01*
X166223805Y-71124399D01*
X166562966Y-71010122D01*
X166887784Y-70859846D01*
X167194450Y-70675331D01*
X167479368Y-70458742D01*
X167739199Y-70212617D01*
X167970896Y-69939842D01*
X168171742Y-69643616D01*
X168339384Y-69327411D01*
X168471855Y-68994934D01*
X168567602Y-68650083D01*
X168622145Y-68317385D01*
X168625501Y-68296916D01*
X168625501Y-68296913D01*
X168625503Y-68296902D01*
X168644879Y-67939531D01*
X168625503Y-67582160D01*
X168567602Y-67228979D01*
X168471855Y-66884128D01*
X168426035Y-66769128D01*
X168339388Y-66551660D01*
X168339379Y-66551642D01*
X168297419Y-66472498D01*
X168171742Y-66235446D01*
X167970896Y-65939220D01*
X167970892Y-65939215D01*
X167970889Y-65939211D01*
X167739199Y-65666445D01*
X167637645Y-65570248D01*
X167479368Y-65420320D01*
X167479361Y-65420314D01*
X167479358Y-65420312D01*
X167411776Y-65368938D01*
X167194450Y-65203731D01*
X166887784Y-65019216D01*
X166887783Y-65019215D01*
X166887779Y-65019213D01*
X166887775Y-65019211D01*
X166562978Y-64868945D01*
X166562972Y-64868942D01*
X166562966Y-64868940D01*
X166393385Y-64811801D01*
X166223804Y-64754662D01*
X165874275Y-64677725D01*
X165518480Y-64639031D01*
X165518479Y-64639031D01*
X165160583Y-64639031D01*
X165160581Y-64639031D01*
X164804786Y-64677725D01*
X164455257Y-64754662D01*
X164199501Y-64840837D01*
X164116096Y-64868940D01*
X164116093Y-64868941D01*
X164116094Y-64868941D01*
X164116083Y-64868945D01*
X163791286Y-65019211D01*
X163791282Y-65019213D01*
X163608540Y-65129166D01*
X163484612Y-65203731D01*
X163396299Y-65270864D01*
X163199703Y-65420312D01*
X163199694Y-65420320D01*
X162939862Y-65666445D01*
X162708172Y-65939211D01*
X162708165Y-65939221D01*
X162507321Y-66235444D01*
X162507315Y-66235453D01*
X162339682Y-66551642D01*
X162339673Y-66551660D01*
X162207205Y-66884131D01*
X162207203Y-66884138D01*
X162111463Y-67228965D01*
X162111457Y-67228991D01*
X162053560Y-67582145D01*
X162053559Y-67582162D01*
X162034183Y-67939528D01*
X162034183Y-67939533D01*
X93454238Y-67939533D01*
X93435972Y-67602629D01*
X93432616Y-67582160D01*
X93378073Y-67249460D01*
X93378072Y-67249459D01*
X93378071Y-67249448D01*
X93282324Y-66904597D01*
X93200633Y-66699568D01*
X93149857Y-66572129D01*
X93149848Y-66572111D01*
X93097036Y-66472498D01*
X92982211Y-66255915D01*
X92781365Y-65959689D01*
X92781361Y-65959684D01*
X92781358Y-65959680D01*
X92549668Y-65686914D01*
X92392551Y-65538085D01*
X92289837Y-65440789D01*
X92289830Y-65440783D01*
X92289827Y-65440781D01*
X92222245Y-65389407D01*
X92004919Y-65224200D01*
X91698253Y-65039685D01*
X91698252Y-65039684D01*
X91698248Y-65039682D01*
X91698244Y-65039680D01*
X91373447Y-64889414D01*
X91373441Y-64889411D01*
X91373435Y-64889409D01*
X91203854Y-64832270D01*
X91034273Y-64775131D01*
X90684744Y-64698194D01*
X90328949Y-64659500D01*
X90328948Y-64659500D01*
X89971052Y-64659500D01*
X89971050Y-64659500D01*
X89615255Y-64698194D01*
X89265726Y-64775131D01*
X89009970Y-64861306D01*
X88926565Y-64889409D01*
X88926562Y-64889410D01*
X88926563Y-64889410D01*
X88926552Y-64889414D01*
X88601755Y-65039680D01*
X88601751Y-65039682D01*
X88399987Y-65161080D01*
X88295081Y-65224200D01*
X88206768Y-65291333D01*
X88010172Y-65440781D01*
X88010163Y-65440789D01*
X87750331Y-65686914D01*
X87518641Y-65959680D01*
X87518634Y-65959690D01*
X87317790Y-66255913D01*
X87317784Y-66255922D01*
X87150151Y-66572111D01*
X87150142Y-66572129D01*
X87017674Y-66904600D01*
X87017672Y-66904607D01*
X86921932Y-67249434D01*
X86921926Y-67249460D01*
X86864029Y-67602614D01*
X86864028Y-67602631D01*
X86844652Y-67959997D01*
X86844652Y-67960002D01*
X79298683Y-67960002D01*
X79300397Y-66770643D01*
X79300500Y-66769128D01*
X79300500Y-66700000D01*
X79306083Y-66572120D01*
X79317504Y-66310523D01*
X79317973Y-66305175D01*
X79368506Y-65921337D01*
X79369443Y-65916030D01*
X79420237Y-65686914D01*
X79453233Y-65538074D01*
X79454623Y-65532886D01*
X79571042Y-65163650D01*
X79572889Y-65158578D01*
X79622136Y-65039685D01*
X79721043Y-64800902D01*
X79723306Y-64796050D01*
X79902075Y-64452639D01*
X79904771Y-64447971D01*
X80112772Y-64121473D01*
X80115864Y-64117055D01*
X80351548Y-63809906D01*
X80355007Y-63805785D01*
X80616554Y-63520357D01*
X80620357Y-63516554D01*
X80905785Y-63255007D01*
X80909906Y-63251548D01*
X81217055Y-63015864D01*
X81221465Y-63012777D01*
X81547971Y-62804771D01*
X81552639Y-62802075D01*
X81896050Y-62623306D01*
X81900902Y-62621043D01*
X82258585Y-62472886D01*
X82263650Y-62471042D01*
X82632886Y-62354623D01*
X82638074Y-62353233D01*
X83016036Y-62269441D01*
X83021337Y-62268506D01*
X83405175Y-62217973D01*
X83410523Y-62217504D01*
X83800000Y-62200500D01*
X83865892Y-62200500D01*
X173134108Y-62200500D01*
X173200000Y-62200500D01*
X173589474Y-62217504D01*
G37*
%TD.AperFunction*%
%TD*%
%TA.AperFunction,NonConductor*%
G36*
X169522385Y-83366071D02*
G01*
X169547269Y-83384150D01*
X169547270Y-83384151D01*
X169720192Y-83461142D01*
X169720197Y-83461144D01*
X169905354Y-83500500D01*
X169905355Y-83500500D01*
X170068012Y-83500500D01*
X170135051Y-83520185D01*
X170180806Y-83572989D01*
X170190951Y-83640686D01*
X170189957Y-83648235D01*
X170189956Y-83648238D01*
X170177616Y-83741968D01*
X170169318Y-83804999D01*
X170173969Y-83840326D01*
X170174500Y-83848428D01*
X170174500Y-84084601D01*
X170154815Y-84151640D01*
X170102011Y-84197395D01*
X170032853Y-84207339D01*
X170024720Y-84205892D01*
X169994646Y-84199500D01*
X169805354Y-84199500D01*
X169775282Y-84205892D01*
X169620197Y-84238855D01*
X169620192Y-84238857D01*
X169499936Y-84292400D01*
X169430686Y-84301685D01*
X169367409Y-84272057D01*
X169330196Y-84212922D01*
X169325500Y-84179121D01*
X169325500Y-83466389D01*
X169345185Y-83399350D01*
X169397989Y-83353595D01*
X169467147Y-83343651D01*
X169522385Y-83366071D01*
G37*
%TD.AperFunction*%
%TA.AperFunction,NonConductor*%
G36*
X128494788Y-84320185D02*
G01*
X128540543Y-84372989D01*
X128550487Y-84442147D01*
X128541548Y-84473753D01*
X128538965Y-84479720D01*
X128493114Y-84637540D01*
X128492137Y-84642890D01*
X128460728Y-84705302D01*
X128400562Y-84740825D01*
X128370155Y-84744611D01*
X128141343Y-84744611D01*
X128134402Y-84744221D01*
X128104259Y-84740825D01*
X128095714Y-84739862D01*
X128095711Y-84739862D01*
X128092845Y-84740185D01*
X128057017Y-84744221D01*
X128050081Y-84744611D01*
X126231355Y-84744611D01*
X126224409Y-84744221D01*
X126188579Y-84740185D01*
X126185712Y-84739862D01*
X126185711Y-84739862D01*
X126147014Y-84744221D01*
X126140068Y-84744611D01*
X125911269Y-84744611D01*
X125844230Y-84724926D01*
X125798475Y-84672122D01*
X125789287Y-84642890D01*
X125788310Y-84637543D01*
X125788310Y-84637542D01*
X125742456Y-84479713D01*
X125742452Y-84479706D01*
X125739876Y-84473753D01*
X125731313Y-84404410D01*
X125761599Y-84341445D01*
X125821119Y-84304850D01*
X125853675Y-84300500D01*
X128427749Y-84300500D01*
X128494788Y-84320185D01*
G37*
%TD.AperFunction*%
%TA.AperFunction,NonConductor*%
G36*
X132872573Y-84320185D02*
G01*
X132918328Y-84372989D01*
X132928272Y-84442147D01*
X132899247Y-84505703D01*
X132898344Y-84506733D01*
X132888146Y-84518243D01*
X132885581Y-84520967D01*
X131983258Y-85423292D01*
X131921935Y-85456777D01*
X131895577Y-85459611D01*
X131161385Y-85459611D01*
X131094346Y-85439926D01*
X131048591Y-85387122D01*
X131038647Y-85317964D01*
X131042309Y-85301016D01*
X131088309Y-85142684D01*
X131088310Y-85142678D01*
X131091212Y-85105807D01*
X131091212Y-84674415D01*
X131088310Y-84637543D01*
X131088309Y-84637537D01*
X131042458Y-84479720D01*
X131042456Y-84479713D01*
X131042452Y-84479706D01*
X131039876Y-84473753D01*
X131031313Y-84404410D01*
X131061599Y-84341445D01*
X131121119Y-84304850D01*
X131153675Y-84300500D01*
X132805534Y-84300500D01*
X132872573Y-84320185D01*
G37*
%TD.AperFunction*%
%TA.AperFunction,NonConductor*%
G36*
X119439218Y-85820185D02*
G01*
X119484973Y-85872989D01*
X119494917Y-85942147D01*
X119465892Y-86005703D01*
X119422615Y-86037779D01*
X119247270Y-86115848D01*
X119247265Y-86115851D01*
X119094129Y-86227111D01*
X118967467Y-86367783D01*
X118957387Y-86385243D01*
X118906819Y-86433458D01*
X118838212Y-86446680D01*
X118773347Y-86420712D01*
X118742613Y-86385243D01*
X118732532Y-86367783D01*
X118700506Y-86332214D01*
X118605871Y-86227112D01*
X118563133Y-86196061D01*
X118452734Y-86115851D01*
X118452729Y-86115848D01*
X118277385Y-86037779D01*
X118224148Y-85992529D01*
X118203827Y-85925680D01*
X118222873Y-85858456D01*
X118275239Y-85812201D01*
X118327821Y-85800500D01*
X119372179Y-85800500D01*
X119439218Y-85820185D01*
G37*
%TD.AperFunction*%
%TA.AperFunction,NonConductor*%
G36*
X109647539Y-85820185D02*
G01*
X109693294Y-85872989D01*
X109704500Y-85924500D01*
X109704500Y-86110696D01*
X109707401Y-86147567D01*
X109707402Y-86147573D01*
X109753403Y-86305905D01*
X109753204Y-86375774D01*
X109715262Y-86434444D01*
X109651624Y-86463288D01*
X109634327Y-86464500D01*
X108206519Y-86464500D01*
X108139480Y-86444815D01*
X108118838Y-86428181D01*
X107702838Y-86012181D01*
X107669353Y-85950858D01*
X107674337Y-85881166D01*
X107716209Y-85825233D01*
X107781673Y-85800816D01*
X107790519Y-85800500D01*
X109580500Y-85800500D01*
X109647539Y-85820185D01*
G37*
%TD.AperFunction*%
%TA.AperFunction,Conductor*%
%TO.N,Net-(D2-A)*%
G36*
X91272524Y-92619685D02*
G01*
X91318279Y-92672489D01*
X91329484Y-92724514D01*
X91233142Y-115966653D01*
X91213180Y-116033610D01*
X91160186Y-116079146D01*
X91090987Y-116088803D01*
X91069549Y-116083648D01*
X91044273Y-116075131D01*
X90694744Y-115998194D01*
X90338949Y-115959500D01*
X90338948Y-115959500D01*
X89981052Y-115959500D01*
X89981050Y-115959500D01*
X89625255Y-115998194D01*
X89275726Y-116075131D01*
X89019970Y-116161306D01*
X88936565Y-116189409D01*
X88936562Y-116189410D01*
X88936563Y-116189410D01*
X88936552Y-116189414D01*
X88611755Y-116339680D01*
X88611751Y-116339682D01*
X88383367Y-116477096D01*
X88305081Y-116524200D01*
X88216768Y-116591333D01*
X88020172Y-116740781D01*
X88020163Y-116740789D01*
X87760331Y-116986914D01*
X87528641Y-117259680D01*
X87528634Y-117259690D01*
X87327790Y-117555913D01*
X87327784Y-117555922D01*
X87160151Y-117872111D01*
X87160142Y-117872129D01*
X87027674Y-118204600D01*
X87027672Y-118204607D01*
X86931932Y-118549434D01*
X86931926Y-118549460D01*
X86874029Y-118902614D01*
X86874028Y-118902631D01*
X86854652Y-119259997D01*
X86854652Y-119260002D01*
X86874028Y-119617368D01*
X86874029Y-119617385D01*
X86931926Y-119970539D01*
X86931932Y-119970565D01*
X87027672Y-120315392D01*
X87027674Y-120315399D01*
X87160142Y-120647870D01*
X87160151Y-120647888D01*
X87327784Y-120964077D01*
X87327790Y-120964086D01*
X87528634Y-121260309D01*
X87528641Y-121260319D01*
X87760331Y-121533085D01*
X87760332Y-121533086D01*
X88020163Y-121779211D01*
X88305081Y-121995800D01*
X88611747Y-122180315D01*
X88611749Y-122180316D01*
X88611751Y-122180317D01*
X88611755Y-122180319D01*
X88936552Y-122330585D01*
X88936565Y-122330591D01*
X89275726Y-122444868D01*
X89625254Y-122521805D01*
X89981052Y-122560500D01*
X89981058Y-122560500D01*
X90338942Y-122560500D01*
X90338948Y-122560500D01*
X90694746Y-122521805D01*
X91044274Y-122444868D01*
X91044294Y-122444861D01*
X91047503Y-122443971D01*
X91047551Y-122444146D01*
X91047555Y-122444146D01*
X91047567Y-122444204D01*
X91047887Y-122445355D01*
X91111958Y-122442797D01*
X91172197Y-122478195D01*
X91203735Y-122540542D01*
X91205798Y-122563587D01*
X91131550Y-140476014D01*
X91111588Y-140542971D01*
X91058594Y-140588507D01*
X91007551Y-140599500D01*
X85756894Y-140599500D01*
X85689855Y-140579815D01*
X85644100Y-140527011D01*
X85634156Y-140457853D01*
X85663181Y-140394297D01*
X85682582Y-140376234D01*
X85707546Y-140357546D01*
X85793796Y-140242331D01*
X85844091Y-140107483D01*
X85850500Y-140047873D01*
X85850499Y-137952128D01*
X85844091Y-137892517D01*
X85793796Y-137757669D01*
X85793795Y-137757668D01*
X85793793Y-137757664D01*
X85707547Y-137642455D01*
X85707544Y-137642452D01*
X85592335Y-137556206D01*
X85592328Y-137556202D01*
X85457482Y-137505908D01*
X85457483Y-137505908D01*
X85397883Y-137499501D01*
X85397881Y-137499500D01*
X85397873Y-137499500D01*
X85397864Y-137499500D01*
X84402129Y-137499500D01*
X84402123Y-137499501D01*
X84342516Y-137505908D01*
X84207671Y-137556202D01*
X84207664Y-137556206D01*
X84092455Y-137642452D01*
X84092452Y-137642455D01*
X84006206Y-137757664D01*
X84006202Y-137757671D01*
X83955908Y-137892517D01*
X83949501Y-137952116D01*
X83949501Y-137952123D01*
X83949500Y-137952135D01*
X83949500Y-140047870D01*
X83949501Y-140047876D01*
X83955908Y-140107483D01*
X84006202Y-140242328D01*
X84006206Y-140242335D01*
X84092452Y-140357544D01*
X84092453Y-140357544D01*
X84092454Y-140357546D01*
X84117418Y-140376234D01*
X84159288Y-140432168D01*
X84164272Y-140501860D01*
X84130786Y-140563182D01*
X84069462Y-140596667D01*
X84043106Y-140599500D01*
X83700000Y-140599500D01*
X83310546Y-140582496D01*
X83305155Y-140582024D01*
X82921359Y-140531496D01*
X82916030Y-140530556D01*
X82538085Y-140446768D01*
X82532865Y-140445370D01*
X82313593Y-140376234D01*
X82163663Y-140328961D01*
X82158578Y-140327110D01*
X81913889Y-140225757D01*
X81800921Y-140178964D01*
X81796031Y-140176684D01*
X81452657Y-139997934D01*
X81447971Y-139995228D01*
X81121473Y-139787227D01*
X81117040Y-139784123D01*
X80809922Y-139548463D01*
X80805777Y-139544984D01*
X80520369Y-139283456D01*
X80516543Y-139279630D01*
X80255015Y-138994222D01*
X80251536Y-138990077D01*
X80015876Y-138682959D01*
X80012772Y-138678526D01*
X79804771Y-138352028D01*
X79802065Y-138347342D01*
X79623310Y-138003958D01*
X79621039Y-137999088D01*
X79472889Y-137641421D01*
X79471038Y-137636336D01*
X79445773Y-137556206D01*
X79354625Y-137267119D01*
X79353231Y-137261914D01*
X79269443Y-136883969D01*
X79268506Y-136878659D01*
X79217973Y-136494826D01*
X79217504Y-136489474D01*
X79200560Y-136101409D01*
X79200502Y-136098617D01*
X79263002Y-92723821D01*
X79282783Y-92656810D01*
X79335653Y-92611132D01*
X79387002Y-92600000D01*
X91205485Y-92600000D01*
X91272524Y-92619685D01*
G37*
%TD.AperFunction*%
%TD*%
%TA.AperFunction,Conductor*%
%TO.N,Net-(D5-A)*%
G36*
X162480835Y-120931302D02*
G01*
X162523899Y-120977886D01*
X162537784Y-121004077D01*
X162537787Y-121004082D01*
X162537789Y-121004085D01*
X162703874Y-121249043D01*
X162738634Y-121300309D01*
X162738641Y-121300319D01*
X162773891Y-121341818D01*
X162970332Y-121573086D01*
X163230163Y-121819211D01*
X163515081Y-122035800D01*
X163821747Y-122220315D01*
X163821749Y-122220316D01*
X163821751Y-122220317D01*
X163821755Y-122220319D01*
X163935382Y-122272888D01*
X164146565Y-122370591D01*
X164485726Y-122484868D01*
X164835254Y-122561805D01*
X165191052Y-122600500D01*
X165191058Y-122600500D01*
X165548942Y-122600500D01*
X165548948Y-122600500D01*
X165904746Y-122561805D01*
X166254274Y-122484868D01*
X166593435Y-122370591D01*
X166918253Y-122220315D01*
X167224919Y-122035800D01*
X167509837Y-121819211D01*
X167531354Y-121798827D01*
X167593557Y-121767015D01*
X167663089Y-121773883D01*
X167717869Y-121817251D01*
X167734560Y-121850531D01*
X167772819Y-121968280D01*
X167772821Y-121968284D01*
X167867467Y-122132216D01*
X167946792Y-122220315D01*
X167994129Y-122272888D01*
X168147265Y-122384148D01*
X168147270Y-122384151D01*
X168320192Y-122461142D01*
X168320197Y-122461144D01*
X168505354Y-122500500D01*
X168505355Y-122500500D01*
X168694644Y-122500500D01*
X168694646Y-122500500D01*
X168879803Y-122461144D01*
X169052730Y-122384151D01*
X169205871Y-122272888D01*
X169332533Y-122132216D01*
X169427179Y-121968284D01*
X169485674Y-121788256D01*
X169490864Y-121738869D01*
X169517447Y-121674258D01*
X169526494Y-121664161D01*
X169848838Y-121341817D01*
X169910161Y-121308333D01*
X169936519Y-121305499D01*
X169987871Y-121305499D01*
X169987872Y-121305499D01*
X170047483Y-121299091D01*
X170181669Y-121249042D01*
X170251358Y-121244059D01*
X170268321Y-121249039D01*
X170402517Y-121299091D01*
X170462127Y-121305500D01*
X171257872Y-121305499D01*
X171317483Y-121299091D01*
X171452331Y-121248796D01*
X171452334Y-121248793D01*
X171456666Y-121247178D01*
X171526358Y-121242194D01*
X171543334Y-121247178D01*
X171547665Y-121248793D01*
X171547669Y-121248796D01*
X171682517Y-121299091D01*
X171742127Y-121305500D01*
X172537872Y-121305499D01*
X172597483Y-121299091D01*
X172731669Y-121249042D01*
X172801358Y-121244059D01*
X172818321Y-121249039D01*
X172952517Y-121299091D01*
X173012127Y-121305500D01*
X173807872Y-121305499D01*
X173867483Y-121299091D01*
X174002331Y-121248796D01*
X174055472Y-121209013D01*
X174120933Y-121184597D01*
X174189207Y-121199448D01*
X174238613Y-121248852D01*
X174253778Y-121307256D01*
X174299457Y-126834316D01*
X174280327Y-126901516D01*
X174245965Y-126937347D01*
X171040746Y-129152718D01*
X170974405Y-129174642D01*
X170906743Y-129157219D01*
X170899808Y-129152767D01*
X170876370Y-129136588D01*
X170873357Y-129134371D01*
X170824537Y-129096123D01*
X170824533Y-129096120D01*
X170815291Y-129091961D01*
X170795744Y-129080936D01*
X170787409Y-129075183D01*
X170787410Y-129075183D01*
X170787408Y-129075182D01*
X170729419Y-129053189D01*
X170725968Y-129051759D01*
X170669408Y-129026304D01*
X170659424Y-129024474D01*
X170637821Y-129018451D01*
X170628352Y-129014860D01*
X170628348Y-129014859D01*
X170566791Y-129007384D01*
X170563090Y-129006821D01*
X170502086Y-128995642D01*
X170502081Y-128995642D01*
X170440175Y-128999387D01*
X170436430Y-128999500D01*
X169528440Y-128999500D01*
X169493845Y-128994576D01*
X169434160Y-128977235D01*
X169434154Y-128977234D01*
X169399407Y-128974500D01*
X169399405Y-128974500D01*
X169066496Y-128974500D01*
X168900595Y-128974501D01*
X168865847Y-128977234D01*
X168865843Y-128977235D01*
X168865844Y-128977235D01*
X168717113Y-129020445D01*
X168717111Y-129020445D01*
X168717111Y-129020446D01*
X168583805Y-129099282D01*
X168583796Y-129099289D01*
X168474289Y-129208796D01*
X168474282Y-129208805D01*
X168395446Y-129342111D01*
X168352234Y-129490847D01*
X168352234Y-129490849D01*
X168349500Y-129525593D01*
X168349501Y-129874405D01*
X168352234Y-129909152D01*
X168352234Y-129909155D01*
X168352235Y-129909156D01*
X168395445Y-130057887D01*
X168395446Y-130057888D01*
X168474282Y-130191194D01*
X168474289Y-130191203D01*
X168583796Y-130300710D01*
X168583800Y-130300713D01*
X168583802Y-130300715D01*
X168717113Y-130379555D01*
X168852902Y-130419005D01*
X168911785Y-130456609D01*
X168940992Y-130520082D01*
X168931246Y-130589268D01*
X168888809Y-130640086D01*
X167500000Y-131600000D01*
X167500000Y-140475500D01*
X167480315Y-140542539D01*
X167427511Y-140588294D01*
X167376000Y-140599500D01*
X161761571Y-140599500D01*
X161694532Y-140579815D01*
X161648777Y-140527011D01*
X161638833Y-140457853D01*
X161662305Y-140401189D01*
X161743793Y-140292335D01*
X161743792Y-140292335D01*
X161743796Y-140292331D01*
X161794091Y-140157483D01*
X161800500Y-140097873D01*
X161800499Y-138002128D01*
X161794091Y-137942517D01*
X161743796Y-137807669D01*
X161743795Y-137807668D01*
X161743793Y-137807664D01*
X161657547Y-137692455D01*
X161657544Y-137692452D01*
X161542335Y-137606206D01*
X161542328Y-137606202D01*
X161407482Y-137555908D01*
X161407483Y-137555908D01*
X161347883Y-137549501D01*
X161347881Y-137549500D01*
X161347873Y-137549500D01*
X161347864Y-137549500D01*
X160352129Y-137549500D01*
X160352123Y-137549501D01*
X160292516Y-137555908D01*
X160157671Y-137606202D01*
X160157664Y-137606206D01*
X160042455Y-137692452D01*
X160042452Y-137692455D01*
X159956206Y-137807664D01*
X159956202Y-137807671D01*
X159905908Y-137942517D01*
X159899560Y-138001571D01*
X159899501Y-138002123D01*
X159899500Y-138002135D01*
X159899500Y-140097870D01*
X159899501Y-140097876D01*
X159905908Y-140157483D01*
X159956202Y-140292328D01*
X159956206Y-140292335D01*
X160037695Y-140401189D01*
X160062113Y-140466653D01*
X160047262Y-140534926D01*
X159997857Y-140584332D01*
X159938429Y-140599500D01*
X155274000Y-140599500D01*
X155206961Y-140579815D01*
X155161206Y-140527011D01*
X155150000Y-140475500D01*
X155150000Y-121073351D01*
X155169685Y-121006312D01*
X155222489Y-120960557D01*
X155273345Y-120949354D01*
X155442588Y-120948468D01*
X155509726Y-120967800D01*
X155555757Y-121020364D01*
X155559416Y-121029133D01*
X155566201Y-121047326D01*
X155566206Y-121047335D01*
X155652452Y-121162544D01*
X155652455Y-121162547D01*
X155767664Y-121248793D01*
X155767671Y-121248797D01*
X155902517Y-121299091D01*
X155902516Y-121299091D01*
X155909444Y-121299835D01*
X155962127Y-121305500D01*
X156757872Y-121305499D01*
X156817483Y-121299091D01*
X156951669Y-121249042D01*
X157021358Y-121244059D01*
X157038321Y-121249039D01*
X157172517Y-121299091D01*
X157232127Y-121305500D01*
X158027872Y-121305499D01*
X158087483Y-121299091D01*
X158222331Y-121248796D01*
X158222334Y-121248793D01*
X158226666Y-121247178D01*
X158296358Y-121242194D01*
X158313334Y-121247178D01*
X158317665Y-121248793D01*
X158317669Y-121248796D01*
X158452517Y-121299091D01*
X158512127Y-121305500D01*
X159307872Y-121305499D01*
X159367483Y-121299091D01*
X159501669Y-121249042D01*
X159571358Y-121244059D01*
X159588321Y-121249039D01*
X159722517Y-121299091D01*
X159782127Y-121305500D01*
X160577872Y-121305499D01*
X160637483Y-121299091D01*
X160772331Y-121248796D01*
X160887546Y-121162546D01*
X160973796Y-121047331D01*
X160991645Y-120999473D01*
X161033513Y-120943542D01*
X161098976Y-120919123D01*
X161107128Y-120918810D01*
X162413698Y-120911970D01*
X162480835Y-120931302D01*
G37*
%TD.AperFunction*%
%TD*%
%TA.AperFunction,Conductor*%
%TO.N,Net-(D4-A)*%
G36*
X145493530Y-121120052D02*
G01*
X145539628Y-121172557D01*
X145551165Y-121223631D01*
X145599688Y-126366969D01*
X145583840Y-126428806D01*
X143300000Y-130499999D01*
X143300000Y-140475500D01*
X143280315Y-140542539D01*
X143227511Y-140588294D01*
X143176000Y-140599500D01*
X138156894Y-140599500D01*
X138089855Y-140579815D01*
X138044100Y-140527011D01*
X138034156Y-140457853D01*
X138063181Y-140394297D01*
X138082582Y-140376234D01*
X138107546Y-140357546D01*
X138193796Y-140242331D01*
X138244091Y-140107483D01*
X138250500Y-140047873D01*
X138250499Y-137952128D01*
X138244091Y-137892517D01*
X138193796Y-137757669D01*
X138193795Y-137757668D01*
X138193793Y-137757664D01*
X138107547Y-137642455D01*
X138107544Y-137642452D01*
X137992335Y-137556206D01*
X137992328Y-137556202D01*
X137857482Y-137505908D01*
X137857483Y-137505908D01*
X137797883Y-137499501D01*
X137797881Y-137499500D01*
X137797873Y-137499500D01*
X137797864Y-137499500D01*
X136802129Y-137499500D01*
X136802123Y-137499501D01*
X136742516Y-137505908D01*
X136607671Y-137556202D01*
X136607664Y-137556206D01*
X136492455Y-137642452D01*
X136492452Y-137642455D01*
X136406206Y-137757664D01*
X136406202Y-137757671D01*
X136355908Y-137892517D01*
X136349501Y-137952116D01*
X136349501Y-137952123D01*
X136349500Y-137952135D01*
X136349500Y-140047870D01*
X136349501Y-140047876D01*
X136355908Y-140107483D01*
X136406202Y-140242328D01*
X136406206Y-140242335D01*
X136492452Y-140357544D01*
X136492453Y-140357544D01*
X136492454Y-140357546D01*
X136517418Y-140376234D01*
X136559288Y-140432168D01*
X136564272Y-140501860D01*
X136530786Y-140563182D01*
X136469462Y-140596667D01*
X136443106Y-140599500D01*
X130302281Y-140599500D01*
X130235242Y-140579815D01*
X130189487Y-140527011D01*
X130178281Y-140475500D01*
X130178281Y-137499500D01*
X130178281Y-121323191D01*
X130197965Y-121256156D01*
X130250769Y-121210401D01*
X130301470Y-121199198D01*
X145426365Y-121100804D01*
X145493530Y-121120052D01*
G37*
%TD.AperFunction*%
%TD*%
%TA.AperFunction,Conductor*%
%TO.N,Net-(D3-A)*%
G36*
X117463039Y-119869685D02*
G01*
X117508794Y-119922489D01*
X117520000Y-119974000D01*
X117520000Y-140475500D01*
X117500315Y-140542539D01*
X117447511Y-140588294D01*
X117396000Y-140599500D01*
X111956894Y-140599500D01*
X111889855Y-140579815D01*
X111844100Y-140527011D01*
X111834156Y-140457853D01*
X111863181Y-140394297D01*
X111882582Y-140376234D01*
X111907546Y-140357546D01*
X111993796Y-140242331D01*
X112044091Y-140107483D01*
X112050500Y-140047873D01*
X112050499Y-137952128D01*
X112044091Y-137892517D01*
X111993796Y-137757669D01*
X111993795Y-137757668D01*
X111993793Y-137757664D01*
X111907547Y-137642455D01*
X111907544Y-137642452D01*
X111792335Y-137556206D01*
X111792328Y-137556202D01*
X111657482Y-137505908D01*
X111657483Y-137505908D01*
X111597883Y-137499501D01*
X111597881Y-137499500D01*
X111597873Y-137499500D01*
X111597864Y-137499500D01*
X110602129Y-137499500D01*
X110602123Y-137499501D01*
X110542516Y-137505908D01*
X110407671Y-137556202D01*
X110407664Y-137556206D01*
X110292455Y-137642452D01*
X110292452Y-137642455D01*
X110206206Y-137757664D01*
X110206202Y-137757671D01*
X110155908Y-137892517D01*
X110149501Y-137952116D01*
X110149501Y-137952123D01*
X110149500Y-137952135D01*
X110149500Y-140047870D01*
X110149501Y-140047876D01*
X110155908Y-140107483D01*
X110206202Y-140242328D01*
X110206206Y-140242335D01*
X110292452Y-140357544D01*
X110292453Y-140357544D01*
X110292454Y-140357546D01*
X110317418Y-140376234D01*
X110359288Y-140432168D01*
X110364272Y-140501860D01*
X110330786Y-140563182D01*
X110269462Y-140596667D01*
X110243106Y-140599500D01*
X105124000Y-140599500D01*
X105056961Y-140579815D01*
X105011206Y-140527011D01*
X105000000Y-140475500D01*
X105000000Y-119974000D01*
X105019685Y-119906961D01*
X105072489Y-119861206D01*
X105124000Y-119850000D01*
X117396000Y-119850000D01*
X117463039Y-119869685D01*
G37*
%TD.AperFunction*%
%TD*%
M02*
