M48
; DRILL file {KiCad 8.0.0} date 2024-05-13T21:34:14+1000
; FORMAT={-:-/ absolute / inch / decimal}
; #@! TF.CreationDate,2024-05-13T21:34:14+10:00
; #@! TF.GenerationSoftware,Kicad,Pcbnew,8.0.0
; #@! TF.FileFunction,Plated,1,4,PTH
FMAT,2
INCH
; #@! TA.AperFunction,Plated,PTH,ViaDrill
T1C0.0157
; #@! TA.AperFunction,Plated,PTH,ComponentDrill
T2C0.0236
; #@! TA.AperFunction,Plated,PTH,ComponentDrill
T3C0.1063
; #@! TA.AperFunction,Plated,PTH,ComponentDrill
T4C0.1260
; #@! TA.AperFunction,Plated,PTH,ComponentDrill
T5C0.1535
%
G90
G05
T1
X3.7717Y-2.4646
X3.8031Y-2.8425
X3.8031Y-2.9528
X3.874Y-2.7402
X3.9134Y-2.8504
X3.966Y-2.9735
X3.9921Y-2.4646
X4.0077Y-2.9318
X4.0077Y-3.0153
X4.0157Y-4.4449
X4.0236Y-2.5906
X4.0315Y-2.7402
X4.0495Y-3.0571
X4.0495Y-2.89
X4.0495Y-2.9735
X4.0591Y-4.6969
X4.0866Y-5.3307
X4.0912Y-2.9318
X4.0912Y-3.0153
X4.1285Y-2.814
X4.133Y-2.9735
X4.1378Y-5.3504
X4.1417Y-4.7264
X4.1702Y-2.7723
X4.1702Y-2.8558
X4.1881Y-5.3771
X4.1969Y-2.4646
X4.1969Y-2.5984
X4.212Y-2.8976
X4.212Y-2.7305
X4.212Y-2.814
X4.2537Y-2.7723
X4.2537Y-2.8558
X4.2644Y-2.4252
X4.2677Y-2.2205
X4.2913Y-5.1417
X4.2913Y-5.189
X4.2913Y-5.2362
X4.2955Y-2.814
X4.437Y-4.311
X4.4941Y-4.3711
X4.4961Y-4.4291
X4.5039Y-5.1516
X4.5354Y-5.2185
X4.5728Y-5.1535
X4.7047Y-2.4606
X4.7047Y-2.815
X4.7173Y-2.9023
X4.7173Y-2.9613
X4.7173Y-3.0204
X4.7764Y-2.9023
X4.7764Y-2.9613
X4.7764Y-3.0204
X4.7835Y-2.7441
X4.7992Y-5.2579
X4.8031Y-5.1654
X4.8354Y-2.9023
X4.8354Y-3.0204
X4.8354Y-2.9613
X4.8386Y-2.4606
X4.8521Y-4.4247
X4.8521Y-4.4641
X4.8521Y-4.5035
X4.8543Y-2.815
X4.8954Y-3.1192
X4.9606Y-5.2579
X4.9606Y-5.1654
X4.9803Y-2.4606
X4.9882Y-2.5866
X4.9882Y-2.7047
X4.9882Y-2.8228
X5.0096Y-2.9011
X5.0096Y-3.0192
X5.0096Y-2.9602
X5.0686Y-2.9011
X5.0686Y-2.9602
X5.0686Y-3.0192
X5.1142Y-2.4606
X5.1142Y-2.5866
X5.1142Y-2.7047
X5.1142Y-2.8228
X5.1161Y-5.2569
X5.1181Y-5.1614
X5.1328Y-2.9007
X5.1328Y-3.0188
X5.1328Y-2.9597
X5.1954Y-3.1093
X5.2052Y-2.2052
X5.2052Y-2.4213
X5.6156Y-2.4793
X5.6235Y-2.8257
X5.6349Y-2.922
X5.6349Y-2.9811
X5.6349Y-3.0402
X5.6939Y-2.9811
X5.6939Y-2.922
X5.6939Y-3.0402
X5.7101Y-2.747
X5.7495Y-2.4793
X5.753Y-2.922
X5.753Y-3.0402
X5.753Y-2.9811
X5.7731Y-2.8257
X5.8051Y-3.1299
X5.8912Y-2.4793
X5.8912Y-2.6131
X5.8912Y-2.7391
X5.8912Y-2.8257
X5.8952Y-2.911
X5.8952Y-2.9701
X5.8952Y-3.0291
X5.9016Y-4.4724
X5.9543Y-3.0291
X5.9543Y-2.911
X5.9543Y-2.9701
X5.9921Y-2.1969
X6.0118Y-4.5079
X6.0118Y-4.5787
X6.0133Y-2.911
X6.0133Y-2.9701
X6.0133Y-3.0291
X6.033Y-2.4793
X6.033Y-2.6131
X6.0408Y-2.7391
X6.0408Y-2.8257
X6.073Y-3.0901
X6.0971Y-2.4293
X6.1358Y-4.5787
X6.1811Y-2.2264
X6.187Y-4.6417
X6.935Y-3.2008
X7.0925Y-3.0217
X7.124Y-3.3327
X7.126Y-4.687
X7.1594Y-4.5925
X7.1597Y-3.3071
T3
X3.5773Y-2.5955
X3.689Y-4.4094
X3.689Y-4.6929
X3.8607Y-2.5955
X4.5025Y-2.5975
X4.7859Y-2.5975
X5.4331Y-2.6004
X5.7165Y-2.6004
X6.8996Y-3.998
X6.8996Y-4.2815
X6.9035Y-3.3583
X6.9035Y-3.6417
X6.9035Y-4.6437
X6.9035Y-4.9272
T4
X3.8151Y-3.1448
X3.8163Y-5.1669
X6.7761Y-3.1464
X6.7765Y-5.166
T5
X3.8218Y-3.5405
X3.8218Y-3.9696
X6.7047Y-2.3819
X6.7047Y-2.811
T2
G00X3.4714Y-3.383
M15
G01X3.432Y-3.383
M16
G05
G00X3.4714Y-4.1271
M15
G01X3.432Y-4.1271
M16
G05
G00X3.4311Y-4.2854
M15
G01X3.4744Y-4.2854
M16
G05
G00X3.4311Y-4.8169
M15
G01X3.4744Y-4.8169
M16
G05
G00X3.4533Y-2.3377
M15
G01X3.4533Y-2.381
M16
G05
G00X3.9848Y-2.3377
M15
G01X3.9848Y-2.381
M16
G05
G00X4.3785Y-2.3396
M15
G01X4.3785Y-2.3829
M16
G05
G00X4.91Y-2.3396
M15
G01X4.91Y-2.3829
M16
G05
G00X5.3091Y-2.3425
M15
G01X5.3091Y-2.3858
M16
G05
G00X5.8406Y-2.3425
M15
G01X5.8406Y-2.3858
M16
G05
G00X7.0551Y-2.2244
M15
G01X7.0945Y-2.2244
M16
G05
G00X7.0551Y-2.9685
M15
G01X7.0945Y-2.9685
M16
G05
G00X7.1575Y-3.874
M15
G01X7.1142Y-3.874
M16
G05
G00X7.1575Y-4.4055
M15
G01X7.1142Y-4.4055
M16
G05
G00X7.1614Y-3.2343
M15
G01X7.1181Y-3.2343
M16
G05
G00X7.1614Y-3.7657
M15
G01X7.1181Y-3.7657
M16
G05
G00X7.1614Y-4.5197
M15
G01X7.1181Y-4.5197
M16
G05
G00X7.1614Y-5.0512
M15
G01X7.1181Y-5.0512
M16
G05
M30
