%TF.GenerationSoftware,KiCad,Pcbnew,8.0.0*%
%TF.CreationDate,2024-05-13T21:34:14+10:00*%
%TF.ProjectId,rear_screen,72656172-5f73-4637-9265-656e2e6b6963,v0.3*%
%TF.SameCoordinates,Original*%
%TF.FileFunction,Soldermask,Top*%
%TF.FilePolarity,Negative*%
%FSLAX46Y46*%
G04 Gerber Fmt 4.6, Leading zero omitted, Abs format (unit mm)*
G04 Created by KiCad (PCBNEW 8.0.0) date 2024-05-13 21:34:14*
%MOMM*%
%LPD*%
G01*
G04 APERTURE LIST*
G04 Aperture macros list*
%AMRoundRect*
0 Rectangle with rounded corners*
0 $1 Rounding radius*
0 $2 $3 $4 $5 $6 $7 $8 $9 X,Y pos of 4 corners*
0 Add a 4 corners polygon primitive as box body*
4,1,4,$2,$3,$4,$5,$6,$7,$8,$9,$2,$3,0*
0 Add four circle primitives for the rounded corners*
1,1,$1+$1,$2,$3*
1,1,$1+$1,$4,$5*
1,1,$1+$1,$6,$7*
1,1,$1+$1,$8,$9*
0 Add four rect primitives between the rounded corners*
20,1,$1+$1,$2,$3,$4,$5,0*
20,1,$1+$1,$4,$5,$6,$7,0*
20,1,$1+$1,$6,$7,$8,$9,0*
20,1,$1+$1,$8,$9,$2,$3,0*%
%AMFreePoly0*
4,1,21,3.024497,2.399497,3.045000,2.350000,3.045000,-2.350000,3.024497,-2.399497,2.975000,-2.420000,1.425000,-2.420000,1.375503,-2.399497,1.355000,-2.350000,1.355000,-2.170000,-1.650000,-2.170000,-1.699497,-2.149497,-1.720000,-2.100000,-1.720000,2.100000,-1.699497,2.149497,-1.650000,2.170000,1.355000,2.170000,1.355000,2.350000,1.375503,2.399497,1.425000,2.420000,2.975000,2.420000,
3.024497,2.399497,3.024497,2.399497,$1*%
%AMFreePoly1*
4,1,9,2.975000,-2.350000,1.425000,-2.350000,1.425000,-2.100000,-1.650000,-2.100000,-1.650000,2.100000,1.425000,2.100000,1.425000,2.350000,2.975000,2.350000,2.975000,-2.350000,2.975000,-2.350000,$1*%
G04 Aperture macros list end*
%ADD10C,0.010000*%
%ADD11C,5.600000*%
%ADD12R,0.900000X2.000000*%
%ADD13RoundRect,1.025000X-1.025000X-1.025000X1.025000X-1.025000X1.025000X1.025000X-1.025000X1.025000X0*%
%ADD14C,4.100000*%
%ADD15RoundRect,0.112500X-0.187500X-0.112500X0.187500X-0.112500X0.187500X0.112500X-0.187500X0.112500X0*%
%ADD16R,1.200000X1.200000*%
%ADD17RoundRect,0.070000X-0.350000X-0.575000X0.350000X-0.575000X0.350000X0.575000X-0.350000X0.575000X0*%
%ADD18FreePoly0,90.000000*%
%ADD19RoundRect,0.175000X0.159099X-0.406586X0.406586X-0.159099X-0.159099X0.406586X-0.406586X0.159099X0*%
%ADD20FreePoly1,135.000000*%
%ADD21RoundRect,0.225000X0.250000X-0.225000X0.250000X0.225000X-0.250000X0.225000X-0.250000X-0.225000X0*%
%ADD22R,2.000000X0.900000*%
%ADD23RoundRect,1.025000X-1.025000X1.025000X-1.025000X-1.025000X1.025000X-1.025000X1.025000X1.025000X0*%
%ADD24RoundRect,0.200000X-0.275000X0.200000X-0.275000X-0.200000X0.275000X-0.200000X0.275000X0.200000X0*%
%ADD25RoundRect,0.070000X0.159099X-0.654074X0.654074X-0.159099X-0.159099X0.654074X-0.654074X0.159099X0*%
%ADD26FreePoly0,135.000000*%
%ADD27RoundRect,1.025000X1.025000X-1.025000X1.025000X1.025000X-1.025000X1.025000X-1.025000X-1.025000X0*%
%ADD28RoundRect,0.225000X-0.250000X0.225000X-0.250000X-0.225000X0.250000X-0.225000X0.250000X0.225000X0*%
%ADD29RoundRect,0.150000X0.587500X0.150000X-0.587500X0.150000X-0.587500X-0.150000X0.587500X-0.150000X0*%
%ADD30RoundRect,0.102000X-0.305000X0.635000X-0.305000X-0.635000X0.305000X-0.635000X0.305000X0.635000X0*%
%ADD31C,5.500000*%
%ADD32R,4.916000X4.916000*%
%ADD33O,2.600000X1.300000*%
%ADD34RoundRect,0.200000X0.275000X-0.200000X0.275000X0.200000X-0.275000X0.200000X-0.275000X-0.200000X0*%
%ADD35RoundRect,0.102000X-0.664680X0.233345X0.233345X-0.664680X0.664680X-0.233345X-0.233345X0.664680X0*%
%ADD36R,7.800000X2.170000*%
%ADD37R,7.800000X2.200000*%
%ADD38RoundRect,0.125000X-0.125000X0.537500X-0.125000X-0.537500X0.125000X-0.537500X0.125000X0.537500X0*%
%ADD39R,1.500000X2.500000*%
%ADD40RoundRect,0.125000X0.537500X0.125000X-0.537500X0.125000X-0.537500X-0.125000X0.537500X-0.125000X0*%
%ADD41RoundRect,0.200000X0.200000X0.275000X-0.200000X0.275000X-0.200000X-0.275000X0.200000X-0.275000X0*%
%ADD42RoundRect,0.150000X-0.150000X-0.700000X0.150000X-0.700000X0.150000X0.700000X-0.150000X0.700000X0*%
%ADD43RoundRect,0.500000X-0.500000X-0.900000X0.500000X-0.900000X0.500000X0.900000X-0.500000X0.900000X0*%
%ADD44RoundRect,0.250000X-0.550000X1.500000X-0.550000X-1.500000X0.550000X-1.500000X0.550000X1.500000X0*%
%ADD45RoundRect,0.150000X0.512500X0.150000X-0.512500X0.150000X-0.512500X-0.150000X0.512500X-0.150000X0*%
%ADD46RoundRect,0.102000X0.664680X-0.233345X-0.233345X0.664680X-0.664680X0.233345X0.233345X-0.664680X0*%
%ADD47C,4.916000*%
%ADD48R,2.170000X7.800000*%
%ADD49R,2.200000X7.800000*%
%ADD50RoundRect,0.200000X-0.200000X-0.275000X0.200000X-0.275000X0.200000X0.275000X-0.200000X0.275000X0*%
%ADD51RoundRect,0.218750X-0.256250X0.218750X-0.256250X-0.218750X0.256250X-0.218750X0.256250X0.218750X0*%
%ADD52RoundRect,0.125000X-0.537500X-0.125000X0.537500X-0.125000X0.537500X0.125000X-0.537500X0.125000X0*%
G04 APERTURE END LIST*
D10*
%TO.C,Q10*%
X163995000Y-69283841D02*
X163982500Y-69283841D01*
X163982500Y-69993841D01*
X163172500Y-69993841D01*
X163172500Y-69283841D01*
X162700000Y-69283841D01*
X162700000Y-69993841D01*
X161890000Y-69993841D01*
X161890000Y-68773841D01*
X162145000Y-68773841D01*
X162145000Y-65273841D01*
X163995001Y-65273841D01*
X163995000Y-69283841D01*
G36*
X163995000Y-69283841D02*
G01*
X163982500Y-69283841D01*
X163982500Y-69993841D01*
X163172500Y-69993841D01*
X163172500Y-69283841D01*
X162700000Y-69283841D01*
X162700000Y-69993841D01*
X161890000Y-69993841D01*
X161890000Y-68773841D01*
X162145000Y-68773841D01*
X162145000Y-65273841D01*
X163995001Y-65273841D01*
X163995000Y-69283841D01*
G37*
X166255000Y-68773841D02*
X166510000Y-68773841D01*
X166510000Y-69993841D01*
X165700000Y-69993841D01*
X165700000Y-69283841D01*
X165227500Y-69283841D01*
X165227500Y-69993841D01*
X164417500Y-69993841D01*
X164417500Y-69283841D01*
X164405000Y-69283841D01*
X164404999Y-65273841D01*
X166255000Y-65273841D01*
X166255000Y-68773841D01*
G36*
X166255000Y-68773841D02*
G01*
X166510000Y-68773841D01*
X166510000Y-69993841D01*
X165700000Y-69993841D01*
X165700000Y-69283841D01*
X165227500Y-69283841D01*
X165227500Y-69993841D01*
X164417500Y-69993841D01*
X164417500Y-69283841D01*
X164405000Y-69283841D01*
X164404999Y-65273841D01*
X166255000Y-65273841D01*
X166255000Y-68773841D01*
G37*
%TO.C,Q16*%
X106360696Y-97900610D02*
X106351857Y-97909449D01*
X106853903Y-98411494D01*
X106281146Y-98984251D01*
X105779101Y-98482205D01*
X105444993Y-98816313D01*
X105947038Y-99318359D01*
X105374282Y-99891115D01*
X104511612Y-99028445D01*
X104691924Y-98848133D01*
X102217050Y-96373259D01*
X103525198Y-95065111D01*
X106360696Y-97900610D01*
G36*
X106360696Y-97900610D02*
G01*
X106351857Y-97909449D01*
X106853903Y-98411494D01*
X106281146Y-98984251D01*
X105779101Y-98482205D01*
X105444993Y-98816313D01*
X105947038Y-99318359D01*
X105374282Y-99891115D01*
X104511612Y-99028445D01*
X104691924Y-98848133D01*
X102217050Y-96373259D01*
X103525198Y-95065111D01*
X106360696Y-97900610D01*
G37*
X107598133Y-95941924D02*
X107778445Y-95761612D01*
X108641115Y-96624282D01*
X108068359Y-97197038D01*
X107566313Y-96694993D01*
X107232205Y-97029101D01*
X107734251Y-97531146D01*
X107161494Y-98103903D01*
X106659449Y-97601857D01*
X106650610Y-97610696D01*
X103815111Y-94775198D01*
X105123259Y-93467050D01*
X107598133Y-95941924D01*
G36*
X107598133Y-95941924D02*
G01*
X107778445Y-95761612D01*
X108641115Y-96624282D01*
X108068359Y-97197038D01*
X107566313Y-96694993D01*
X107232205Y-97029101D01*
X107734251Y-97531146D01*
X107161494Y-98103903D01*
X106659449Y-97601857D01*
X106650610Y-97610696D01*
X103815111Y-94775198D01*
X105123259Y-93467050D01*
X107598133Y-95941924D01*
G37*
%TO.C,Q13*%
X165899614Y-121011155D02*
X165908453Y-121002316D01*
X168743952Y-123837814D01*
X167435804Y-125145962D01*
X164960930Y-122671088D01*
X164780618Y-122851400D01*
X163917948Y-121988730D01*
X164490704Y-121415974D01*
X164992750Y-121918019D01*
X165326858Y-121583911D01*
X164824812Y-121081866D01*
X165397569Y-120509109D01*
X165899614Y-121011155D01*
G36*
X165899614Y-121011155D02*
G01*
X165908453Y-121002316D01*
X168743952Y-123837814D01*
X167435804Y-125145962D01*
X164960930Y-122671088D01*
X164780618Y-122851400D01*
X163917948Y-121988730D01*
X164490704Y-121415974D01*
X164992750Y-121918019D01*
X165326858Y-121583911D01*
X164824812Y-121081866D01*
X165397569Y-120509109D01*
X165899614Y-121011155D01*
G37*
X168047451Y-119584567D02*
X167867139Y-119764879D01*
X170342013Y-122239753D01*
X169033865Y-123547901D01*
X166198367Y-120712402D01*
X166207206Y-120703563D01*
X165705160Y-120201518D01*
X166277917Y-119628761D01*
X166779962Y-120130807D01*
X167114070Y-119796699D01*
X166612025Y-119294653D01*
X167184781Y-118721897D01*
X168047451Y-119584567D01*
G36*
X168047451Y-119584567D02*
G01*
X167867139Y-119764879D01*
X170342013Y-122239753D01*
X169033865Y-123547901D01*
X166198367Y-120712402D01*
X166207206Y-120703563D01*
X165705160Y-120201518D01*
X166277917Y-119628761D01*
X166779962Y-120130807D01*
X167114070Y-119796699D01*
X166612025Y-119294653D01*
X167184781Y-118721897D01*
X168047451Y-119584567D01*
G37*
%TO.C,Q7*%
X158645000Y-69295000D02*
X158632500Y-69295000D01*
X158632500Y-70005000D01*
X157822500Y-70005000D01*
X157822500Y-69295000D01*
X157350000Y-69295000D01*
X157350000Y-70005000D01*
X156540000Y-70005000D01*
X156540000Y-68785000D01*
X156795000Y-68785000D01*
X156795000Y-65285000D01*
X158645001Y-65285000D01*
X158645000Y-69295000D01*
G36*
X158645000Y-69295000D02*
G01*
X158632500Y-69295000D01*
X158632500Y-70005000D01*
X157822500Y-70005000D01*
X157822500Y-69295000D01*
X157350000Y-69295000D01*
X157350000Y-70005000D01*
X156540000Y-70005000D01*
X156540000Y-68785000D01*
X156795000Y-68785000D01*
X156795000Y-65285000D01*
X158645001Y-65285000D01*
X158645000Y-69295000D01*
G37*
X160905000Y-68785000D02*
X161160000Y-68785000D01*
X161160000Y-70005000D01*
X160350000Y-70005000D01*
X160350000Y-69295000D01*
X159877500Y-69295000D01*
X159877500Y-70005000D01*
X159067500Y-70005000D01*
X159067500Y-69295000D01*
X159055000Y-69295000D01*
X159054999Y-65285000D01*
X160905000Y-65285000D01*
X160905000Y-68785000D01*
G36*
X160905000Y-68785000D02*
G01*
X161160000Y-68785000D01*
X161160000Y-70005000D01*
X160350000Y-70005000D01*
X160350000Y-69295000D01*
X159877500Y-69295000D01*
X159877500Y-70005000D01*
X159067500Y-70005000D01*
X159067500Y-69295000D01*
X159055000Y-69295000D01*
X159054999Y-65285000D01*
X160905000Y-65285000D01*
X160905000Y-68785000D01*
G37*
%TD*%
D11*
%TO.C,H1*%
X172122855Y-131217541D03*
%TD*%
D12*
%TO.C,J4*%
X111212742Y-59976559D03*
X124712742Y-59976559D03*
D13*
X121562742Y-65976559D03*
D14*
X114362742Y-65976559D03*
%TD*%
D15*
%TO.C,D3*%
X93562742Y-69226559D03*
X95662742Y-69226559D03*
%TD*%
D16*
%TO.C,D7*%
X118000001Y-117400000D03*
X120799999Y-117400000D03*
%TD*%
D17*
%TO.C,Q2*%
X149340000Y-79420000D03*
X150610000Y-79420000D03*
X151890000Y-79420000D03*
X153160000Y-79420000D03*
D18*
X151250000Y-76150000D03*
%TD*%
D17*
%TO.C,Q3*%
X119432742Y-79146559D03*
X120702742Y-79146559D03*
X121982742Y-79146559D03*
X123252742Y-79146559D03*
D18*
X121342742Y-75876559D03*
%TD*%
D19*
%TO.C,Q11*%
X108414716Y-75574585D03*
X109312742Y-74676559D03*
X110217838Y-73771463D03*
X111115864Y-72873437D03*
D20*
X107453051Y-71911772D03*
%TD*%
D21*
%TO.C,C3*%
X115199999Y-107775000D03*
X115199999Y-106225000D03*
%TD*%
D22*
%TO.C,J2*%
X181350000Y-114800000D03*
X181350000Y-128300000D03*
D23*
X175350000Y-117950000D03*
D14*
X175350000Y-125150000D03*
%TD*%
D24*
%TO.C,R14*%
X154200000Y-114175000D03*
X154200000Y-115825000D03*
%TD*%
D25*
%TO.C,Q6*%
X104332555Y-79696048D03*
X105230581Y-78798022D03*
X106135677Y-77892926D03*
X107033703Y-76994900D03*
D26*
X103370890Y-76033235D03*
%TD*%
D12*
%TO.C,J5*%
X134850000Y-60050000D03*
X148350000Y-60050000D03*
D13*
X145200000Y-66050000D03*
D14*
X138000000Y-66050000D03*
%TD*%
D22*
%TO.C,J11*%
X87700000Y-122350000D03*
X87700000Y-108850000D03*
D27*
X93700000Y-112000000D03*
D14*
X93700000Y-119200000D03*
%TD*%
D28*
%TO.C,C12*%
X98800000Y-117275000D03*
X98800000Y-118825000D03*
%TD*%
D22*
%TO.C,J9*%
X181350000Y-82150000D03*
X181350000Y-95650000D03*
D23*
X175350000Y-85300000D03*
D14*
X175350000Y-92500000D03*
%TD*%
D29*
%TO.C,Q9*%
X124937500Y-130100000D03*
X124937500Y-128200000D03*
X123062499Y-129150000D03*
%TD*%
D30*
%TO.C,Q10*%
X166105000Y-63918840D03*
X164835000Y-63918841D03*
X163565000Y-63918841D03*
X162295000Y-63918840D03*
%TD*%
D31*
%TO.C,J6*%
X97072855Y-100827541D03*
D32*
X97072855Y-89927541D03*
D33*
X87672855Y-85927541D03*
X87672855Y-104827541D03*
%TD*%
D11*
%TO.C,H3*%
X96902855Y-79877541D03*
%TD*%
D34*
%TO.C,R1*%
X132850001Y-133525001D03*
X132850001Y-131875001D03*
%TD*%
D22*
%TO.C,J1*%
X181250000Y-98400000D03*
X181250000Y-111900000D03*
D23*
X175250000Y-108750000D03*
D14*
X175250000Y-101550000D03*
%TD*%
D21*
%TO.C,C6*%
X124899999Y-109375000D03*
X124899999Y-107825000D03*
%TD*%
D35*
%TO.C,Q16*%
X104059063Y-92614986D03*
X103161038Y-93513012D03*
X102263012Y-94411038D03*
X101364986Y-95309063D03*
%TD*%
D34*
%TO.C,R13*%
X123150000Y-133550000D03*
X123150000Y-131900000D03*
%TD*%
D36*
%TO.C,R15*%
X166400000Y-111100000D03*
D37*
X166400000Y-116900000D03*
%TD*%
D38*
%TO.C,U5*%
X102375000Y-116809467D03*
X101725000Y-116809467D03*
X101075000Y-116809467D03*
X100425000Y-116809467D03*
X100425000Y-119084467D03*
X101075000Y-119084467D03*
X101725000Y-119084467D03*
X102375000Y-119084467D03*
%TD*%
D39*
%TO.C,L1*%
X117249998Y-113700000D03*
X120950000Y-113700000D03*
%TD*%
D28*
%TO.C,C8*%
X160000000Y-113225000D03*
X160000000Y-114775000D03*
%TD*%
D29*
%TO.C,Q8*%
X128787499Y-130100000D03*
X128787499Y-128200000D03*
X126912498Y-129150000D03*
%TD*%
D40*
%TO.C,U2*%
X158200000Y-115300000D03*
X158200000Y-114650000D03*
X158200000Y-114000000D03*
X158200000Y-113350000D03*
X155925000Y-113350000D03*
X155925000Y-114000000D03*
X155925000Y-114650000D03*
X155925000Y-115300000D03*
%TD*%
D41*
%TO.C,R6*%
X158175000Y-60000000D03*
X156525000Y-60000000D03*
%TD*%
D11*
%TO.C,H2*%
X96933324Y-131238010D03*
%TD*%
D42*
%TO.C,J7*%
X108975000Y-134400000D03*
X110225000Y-134400000D03*
X111475000Y-134400000D03*
X112725000Y-134400000D03*
X113975000Y-134400000D03*
X115225000Y-134400000D03*
X116475000Y-134400000D03*
X117725000Y-134400000D03*
D43*
X106450000Y-131550000D03*
X120250000Y-131550000D03*
%TD*%
D44*
%TO.C,C1*%
X112699999Y-112300000D03*
X112699999Y-117700000D03*
%TD*%
D34*
%TO.C,R3*%
X121299999Y-107525000D03*
X121299999Y-105875000D03*
%TD*%
D45*
%TO.C,U3*%
X119499998Y-109549999D03*
X119499998Y-108600000D03*
X119499998Y-107650001D03*
X117224998Y-107650001D03*
X117224998Y-108600000D03*
X117224998Y-109549999D03*
%TD*%
D46*
%TO.C,Q13*%
X168500000Y-125998026D03*
X169398025Y-125100000D03*
X170296051Y-124201974D03*
X171194077Y-123303949D03*
%TD*%
D28*
%TO.C,C4*%
X121299999Y-108925001D03*
X121299999Y-110475001D03*
%TD*%
D15*
%TO.C,D5*%
X140624466Y-69400000D03*
X142724466Y-69400000D03*
%TD*%
D34*
%TO.C,R11*%
X131100000Y-133525000D03*
X131100000Y-131875000D03*
%TD*%
D36*
%TO.C,R12*%
X162000000Y-75900000D03*
D37*
X162000000Y-81700000D03*
%TD*%
D29*
%TO.C,Q5*%
X132787500Y-130225001D03*
X132787500Y-128325001D03*
X130912499Y-129275001D03*
%TD*%
D12*
%TO.C,J3*%
X87712742Y-59926559D03*
X101212742Y-59926559D03*
D13*
X98062742Y-65926559D03*
D14*
X90862742Y-65926559D03*
%TD*%
D34*
%TO.C,R9*%
X128850000Y-133550000D03*
X128850000Y-131900000D03*
%TD*%
D11*
%TO.C,H4*%
X172112855Y-79917541D03*
%TD*%
D47*
%TO.C,J10*%
X170300000Y-60500000D03*
D32*
X170300000Y-71400000D03*
D33*
X179700000Y-75400000D03*
X179700000Y-56500000D03*
%TD*%
D44*
%TO.C,C5*%
X125600000Y-112200000D03*
X125600000Y-117800000D03*
%TD*%
D34*
%TO.C,R2*%
X127100000Y-133550000D03*
X127100000Y-131900000D03*
%TD*%
D24*
%TO.C,R16*%
X151100000Y-114125000D03*
X151100000Y-115775000D03*
%TD*%
D21*
%TO.C,C7*%
X123199999Y-109374999D03*
X123199999Y-107824999D03*
%TD*%
D48*
%TO.C,R7*%
X99300000Y-111400000D03*
D49*
X105100000Y-111400000D03*
%TD*%
D15*
%TO.C,D4*%
X116962742Y-69376559D03*
X119062742Y-69376559D03*
%TD*%
D30*
%TO.C,Q7*%
X160755000Y-63929999D03*
X159485000Y-63930000D03*
X158215000Y-63930000D03*
X156945000Y-63929999D03*
%TD*%
D21*
%TO.C,C9*%
X176200000Y-80175000D03*
X176200000Y-78625000D03*
%TD*%
D34*
%TO.C,R8*%
X126643917Y-109413343D03*
X126643917Y-107763343D03*
%TD*%
D50*
%TO.C,R20*%
X105825000Y-91400000D03*
X107475000Y-91400000D03*
%TD*%
D51*
%TO.C,D6*%
X128443917Y-107823697D03*
X128443917Y-109398699D03*
%TD*%
D21*
%TO.C,C2*%
X113699999Y-107775000D03*
X113699999Y-106225000D03*
%TD*%
D41*
%TO.C,R4*%
X119824999Y-105899999D03*
X118174999Y-105899999D03*
%TD*%
D17*
%TO.C,Q4*%
X126852742Y-79096559D03*
X128122742Y-79096559D03*
X129402742Y-79096559D03*
X130672742Y-79096559D03*
D18*
X128762742Y-75826559D03*
%TD*%
D52*
%TO.C,U4*%
X177862500Y-77725000D03*
X177862500Y-78375000D03*
X177862500Y-79025000D03*
X177862500Y-79675000D03*
X180137500Y-79675000D03*
X180137500Y-79025000D03*
X180137500Y-78375000D03*
X180137500Y-77725000D03*
%TD*%
D34*
%TO.C,R10*%
X124900000Y-133575000D03*
X124900000Y-131925000D03*
%TD*%
D17*
%TO.C,Q1*%
X142640000Y-79470000D03*
X143910000Y-79470000D03*
X145190000Y-79470000D03*
X146460000Y-79470000D03*
D18*
X144550000Y-76200000D03*
%TD*%
D24*
%TO.C,R18*%
X172000000Y-119725000D03*
X172000000Y-121375000D03*
%TD*%
M02*
