%TF.GenerationSoftware,KiCad,Pcbnew,8.0.0*%
%TF.CreationDate,2024-05-13T21:34:14+10:00*%
%TF.ProjectId,rear_screen,72656172-5f73-4637-9265-656e2e6b6963,v0.3*%
%TF.SameCoordinates,Original*%
%TF.FileFunction,Copper,L2,Inr*%
%TF.FilePolarity,Positive*%
%FSLAX46Y46*%
G04 Gerber Fmt 4.6, Leading zero omitted, Abs format (unit mm)*
G04 Created by KiCad (PCBNEW 8.0.0) date 2024-05-13 21:34:14*
%MOMM*%
%LPD*%
G01*
G04 APERTURE LIST*
G04 Aperture macros list*
%AMRoundRect*
0 Rectangle with rounded corners*
0 $1 Rounding radius*
0 $2 $3 $4 $5 $6 $7 $8 $9 X,Y pos of 4 corners*
0 Add a 4 corners polygon primitive as box body*
4,1,4,$2,$3,$4,$5,$6,$7,$8,$9,$2,$3,0*
0 Add four circle primitives for the rounded corners*
1,1,$1+$1,$2,$3*
1,1,$1+$1,$4,$5*
1,1,$1+$1,$6,$7*
1,1,$1+$1,$8,$9*
0 Add four rect primitives between the rounded corners*
20,1,$1+$1,$2,$3,$4,$5,0*
20,1,$1+$1,$4,$5,$6,$7,0*
20,1,$1+$1,$6,$7,$8,$9,0*
20,1,$1+$1,$8,$9,$2,$3,0*%
G04 Aperture macros list end*
%TA.AperFunction,ComponentPad*%
%ADD10C,5.600000*%
%TD*%
%TA.AperFunction,ComponentPad*%
%ADD11R,0.900000X2.000000*%
%TD*%
%TA.AperFunction,ComponentPad*%
%ADD12RoundRect,1.025000X-1.025000X-1.025000X1.025000X-1.025000X1.025000X1.025000X-1.025000X1.025000X0*%
%TD*%
%TA.AperFunction,ComponentPad*%
%ADD13C,4.100000*%
%TD*%
%TA.AperFunction,ComponentPad*%
%ADD14R,2.000000X0.900000*%
%TD*%
%TA.AperFunction,ComponentPad*%
%ADD15RoundRect,1.025000X-1.025000X1.025000X-1.025000X-1.025000X1.025000X-1.025000X1.025000X1.025000X0*%
%TD*%
%TA.AperFunction,ComponentPad*%
%ADD16RoundRect,1.025000X1.025000X-1.025000X1.025000X1.025000X-1.025000X1.025000X-1.025000X-1.025000X0*%
%TD*%
%TA.AperFunction,ComponentPad*%
%ADD17C,5.500000*%
%TD*%
%TA.AperFunction,ComponentPad*%
%ADD18R,4.916000X4.916000*%
%TD*%
%TA.AperFunction,ComponentPad*%
%ADD19O,2.600000X1.300000*%
%TD*%
%TA.AperFunction,ComponentPad*%
%ADD20C,4.916000*%
%TD*%
%TA.AperFunction,ViaPad*%
%ADD21C,0.800000*%
%TD*%
%TA.AperFunction,Conductor*%
%ADD22C,0.250000*%
%TD*%
%TA.AperFunction,Conductor*%
%ADD23C,0.200000*%
%TD*%
%TA.AperFunction,Conductor*%
%ADD24C,1.000000*%
%TD*%
G04 APERTURE END LIST*
D10*
%TO.N,N/C*%
%TO.C,H1*%
X172122855Y-131217541D03*
%TD*%
D11*
%TO.N,*%
%TO.C,J4*%
X111212742Y-59976559D03*
X124712742Y-59976559D03*
D12*
%TO.N,Net-(D4-A)*%
X121562742Y-65976559D03*
D13*
%TO.N,B+*%
X114362742Y-65976559D03*
%TD*%
D14*
%TO.N,*%
%TO.C,J2*%
X181350000Y-114800000D03*
X181350000Y-128300000D03*
D15*
%TO.N,GND*%
X175350000Y-117950000D03*
D13*
%TO.N,S*%
X175350000Y-125150000D03*
%TD*%
D11*
%TO.N,*%
%TO.C,J5*%
X134850000Y-60050000D03*
X148350000Y-60050000D03*
D12*
%TO.N,Net-(D5-A)*%
X145200000Y-66050000D03*
D13*
%TO.N,B+*%
X138000000Y-66050000D03*
%TD*%
D14*
%TO.N,*%
%TO.C,J11*%
X87700000Y-122350000D03*
X87700000Y-108850000D03*
D16*
%TO.N,V-*%
X93700000Y-112000000D03*
D13*
%TO.N,GND*%
X93700000Y-119200000D03*
%TD*%
D14*
%TO.N,*%
%TO.C,J9*%
X181350000Y-82150000D03*
X181350000Y-95650000D03*
D15*
%TO.N,GND*%
X175350000Y-85300000D03*
D13*
%TO.N,B+*%
X175350000Y-92500000D03*
%TD*%
D17*
%TO.N,GND*%
%TO.C,J6*%
X97072855Y-100827541D03*
D18*
%TO.N,V*%
X97072855Y-89927541D03*
D19*
%TO.N,N/C*%
X87672855Y-85927541D03*
X87672855Y-104827541D03*
%TD*%
D10*
%TO.N,N/C*%
%TO.C,H3*%
X96902855Y-79877541D03*
%TD*%
D14*
%TO.N,*%
%TO.C,J1*%
X181250000Y-98400000D03*
X181250000Y-111900000D03*
D15*
%TO.N,S-*%
X175250000Y-108750000D03*
D13*
%TO.N,GND*%
X175250000Y-101550000D03*
%TD*%
D10*
%TO.N,N/C*%
%TO.C,H2*%
X96933324Y-131238010D03*
%TD*%
D11*
%TO.N,*%
%TO.C,J3*%
X87712742Y-59926559D03*
X101212742Y-59926559D03*
D12*
%TO.N,Net-(D3-A)*%
X98062742Y-65926559D03*
D13*
%TO.N,B+*%
X90862742Y-65926559D03*
%TD*%
D10*
%TO.N,N/C*%
%TO.C,H4*%
X172112855Y-79917541D03*
%TD*%
D20*
%TO.N,B*%
%TO.C,J10*%
X170300000Y-60500000D03*
D18*
%TO.N,GND*%
X170300000Y-71400000D03*
D19*
%TO.N,N/C*%
X179700000Y-75400000D03*
X179700000Y-56500000D03*
%TD*%
D21*
%TO.N,GPIO13*%
X180950000Y-84650000D03*
X149900000Y-113600000D03*
X115200000Y-132550000D03*
%TO.N,GPIO14*%
X181000000Y-119050000D03*
X116150000Y-130900000D03*
X114400000Y-130850000D03*
X181856347Y-84000000D03*
X181850000Y-116650000D03*
X152700000Y-114500000D03*
%TO.N,Net-(D3-A)*%
X102856726Y-73406841D03*
X101400000Y-62600000D03*
X105923403Y-72537219D03*
X106600000Y-66000000D03*
X108044724Y-72537219D03*
X99400000Y-72400000D03*
X103917386Y-76588820D03*
X106984064Y-69355239D03*
X101796066Y-76588820D03*
X104978045Y-75528160D03*
X106600000Y-62600000D03*
X103917386Y-74467501D03*
X102400000Y-69600000D03*
X104862742Y-71476559D03*
X106984063Y-73597880D03*
X109105384Y-71476559D03*
X100735404Y-75528160D03*
X102200000Y-65800000D03*
X102856724Y-77649481D03*
X105923403Y-70415899D03*
X95800000Y-62600000D03*
X96600000Y-75000000D03*
X101796066Y-74467500D03*
X98400000Y-69600000D03*
X106984064Y-71476560D03*
X96600000Y-72200000D03*
X108044724Y-70415899D03*
X102856726Y-75528161D03*
%TO.N,Net-(D4-A)*%
X128743442Y-75188841D03*
X130372742Y-73676558D03*
X119819447Y-75217495D03*
X126500000Y-62500000D03*
X128743442Y-76688840D03*
X127243442Y-76688841D03*
X121319447Y-75217495D03*
X119500000Y-62500000D03*
X121319447Y-76717495D03*
X121319447Y-73717495D03*
X119500000Y-71500000D03*
X130372742Y-76676559D03*
X129900000Y-71700000D03*
X122819446Y-73717495D03*
X129900000Y-65700000D03*
X126700000Y-65700000D03*
X122900000Y-62500000D03*
X130372743Y-75176559D03*
X121500000Y-69700000D03*
X119819447Y-73717496D03*
X119819447Y-76717494D03*
X123300000Y-71500000D03*
X127243443Y-75188841D03*
X122819447Y-75217495D03*
X129900000Y-68700000D03*
X122819446Y-76717495D03*
X126700000Y-68700000D03*
X129900000Y-62500000D03*
X128743442Y-73688841D03*
X127243442Y-73688841D03*
X126700000Y-71700000D03*
%TO.N,Net-(D5-A)*%
X149738464Y-75440383D03*
X146037258Y-62973441D03*
X149637258Y-71773441D03*
X144625533Y-75720000D03*
X151238464Y-73940384D03*
X142837258Y-71773441D03*
X152738464Y-76940385D03*
X153437258Y-71773441D03*
X143125534Y-74220000D03*
X146125534Y-74220000D03*
X149637258Y-62973441D03*
X152738464Y-73940384D03*
X146125535Y-75719999D03*
X149738464Y-73940384D03*
X146125534Y-77220001D03*
X153237258Y-62973441D03*
X143125534Y-75720000D03*
X153237258Y-66373441D03*
X151238463Y-76940385D03*
X146637258Y-71773441D03*
X144625534Y-77219999D03*
X149738464Y-76940384D03*
X144625534Y-74220000D03*
X153437258Y-69573441D03*
X142637258Y-62973441D03*
X149637258Y-66373441D03*
X152738464Y-75440384D03*
X151238464Y-75440383D03*
X149637258Y-69573441D03*
X143125534Y-77220000D03*
X145037258Y-69773441D03*
%TO.N,+5V*%
X176150000Y-81300000D03*
X109000000Y-133000000D03*
X105200000Y-120050000D03*
X123243917Y-112388343D03*
X123243917Y-113388343D03*
X152700000Y-116300000D03*
X123243917Y-114388343D03*
X109000000Y-130600000D03*
X109000000Y-131800000D03*
%TO.N,Net-(Q1-G)*%
X130000000Y-131100000D03*
X154867258Y-61703441D03*
X106377541Y-136577541D03*
X147450000Y-79500000D03*
X154255204Y-78487437D03*
X152200000Y-55800000D03*
%TO.N,Net-(Q3-G)*%
X131962742Y-78976559D03*
X124342742Y-79226559D03*
X126000000Y-131200000D03*
X132212742Y-56012742D03*
X105100000Y-135900000D03*
X132212742Y-61500000D03*
%TO.N,Net-(Q11-G)*%
X103800000Y-135400000D03*
X122000000Y-131200000D03*
X108400000Y-56400000D03*
X108314652Y-61600000D03*
%TO.N,B+*%
X112699998Y-109500000D03*
X114199999Y-112500000D03*
X121900000Y-133550000D03*
X114149999Y-111025001D03*
X129950000Y-133525001D03*
X125999999Y-133550000D03*
%TO.N,ABFET*%
X180150000Y-76750000D03*
X157000000Y-56550000D03*
%TO.N,ASFET*%
X155850000Y-116300000D03*
X157150000Y-117900000D03*
%TO.N,AVFET*%
X102000000Y-112900000D03*
X103100000Y-119300000D03*
%TD*%
D22*
%TO.N,+5V*%
X178550000Y-94650000D02*
X179800000Y-93400000D01*
X179800000Y-93400000D02*
X179800000Y-84950000D01*
X178011657Y-112388343D02*
X178550000Y-111850000D01*
X178550000Y-111850000D02*
X178550000Y-94650000D01*
X123243917Y-112388343D02*
X178011657Y-112388343D01*
X179800000Y-84950000D02*
X176150000Y-81300000D01*
D23*
%TO.N,GPIO13*%
X179400000Y-115100000D02*
X179400000Y-115700000D01*
X180450000Y-129450000D02*
X181550000Y-129450000D01*
X182465822Y-132648658D02*
X182435153Y-132999168D01*
X182133248Y-134075259D02*
X182017770Y-134322896D01*
X180400000Y-127150000D02*
X179750000Y-127800000D01*
X182450000Y-118750000D02*
X182450000Y-127150000D01*
X181094938Y-135489376D02*
X180905758Y-135648114D01*
X179750000Y-127800000D02*
X179750000Y-128750000D01*
X181643473Y-134910412D02*
X181484764Y-135099550D01*
X182133248Y-134066752D02*
X182133248Y-134075259D01*
X182017770Y-134322896D02*
X181843456Y-134624810D01*
X181550000Y-129450000D02*
X182465822Y-130365822D01*
X182465822Y-130365822D02*
X182465822Y-132648658D01*
X182374608Y-133342522D02*
X182284368Y-133679289D01*
X182284368Y-133679289D02*
X182165126Y-134006896D01*
X182450000Y-127150000D02*
X180400000Y-127150000D01*
X179750000Y-128750000D02*
X180450000Y-129450000D01*
X180620156Y-135848091D02*
X180318232Y-136022403D01*
X182435153Y-132999168D02*
X182374608Y-133342522D01*
X182165126Y-134006896D02*
X182140680Y-134059320D01*
X182140680Y-134059320D02*
X182133248Y-134066752D01*
X119800000Y-134818629D02*
X117531371Y-132550000D01*
X181484764Y-135099550D02*
X181094938Y-135489376D01*
X181843456Y-134624810D02*
X181643473Y-134910412D01*
X179400000Y-115700000D02*
X182450000Y-118750000D01*
X180905758Y-135648114D02*
X180620156Y-135848091D01*
X117531371Y-132550000D02*
X115200000Y-132550000D01*
X180318232Y-136022403D02*
X180002248Y-136169746D01*
X180002248Y-136169746D02*
X179674610Y-136288993D01*
X179674610Y-136288993D02*
X179337870Y-136379219D01*
X179337870Y-136379219D02*
X178994501Y-136439762D01*
X178994501Y-136439762D02*
X178877476Y-136450000D01*
X178877476Y-136450000D02*
X120300000Y-136450000D01*
X120300000Y-136450000D02*
X119800000Y-135950000D01*
X119800000Y-135950000D02*
X119800000Y-134818629D01*
X149900000Y-113600000D02*
X179400000Y-113600000D01*
X179400000Y-113600000D02*
X179400000Y-115100000D01*
X180950000Y-84650000D02*
X180950000Y-93434314D01*
X180950000Y-93434314D02*
X179400000Y-94984315D01*
X179400000Y-94984315D02*
X179400000Y-115100000D01*
%TO.N,GPIO14*%
X179350000Y-128915685D02*
X179350000Y-127634314D01*
X116447057Y-130900000D02*
X120400000Y-134852943D01*
X182038197Y-132946905D02*
X182065822Y-132631186D01*
X180405035Y-135510410D02*
X180662030Y-135330464D01*
X181856347Y-84000000D02*
X181643859Y-84212488D01*
X182050000Y-118915686D02*
X181592157Y-118457843D01*
X181350000Y-85381371D02*
X181350000Y-93600000D01*
X181643859Y-84212488D02*
X181750000Y-84318629D01*
X179800000Y-115534314D02*
X180915686Y-116650000D01*
X181325828Y-134666678D02*
X181505782Y-134409679D01*
X181733248Y-133901067D02*
X181803568Y-133830747D01*
X181250000Y-129850000D02*
X180284315Y-129850000D01*
X181350000Y-93600000D02*
X179800000Y-95150000D01*
X180662030Y-135330464D02*
X180824440Y-135194188D01*
X178860012Y-136050000D02*
X178942239Y-136042806D01*
X179251224Y-135988326D02*
X179554213Y-135907143D01*
X116150000Y-130900000D02*
X116447057Y-130900000D01*
X182065822Y-132631186D02*
X182065822Y-130665822D01*
X180133352Y-135667263D02*
X180405035Y-135510410D01*
X181000000Y-119050000D02*
X181592157Y-118457843D01*
X178942239Y-136042806D02*
X179251224Y-135988326D01*
X179800000Y-95150000D02*
X179800000Y-115534314D01*
X181189578Y-134829050D02*
X181325828Y-134666678D01*
X179350000Y-127634314D02*
X180334314Y-126650000D01*
X120400000Y-134852943D02*
X120400000Y-135800000D01*
X177634314Y-114500000D02*
X181592157Y-118457843D01*
X180824440Y-135194188D02*
X181189578Y-134829050D01*
X181750000Y-84318629D02*
X181750000Y-84981371D01*
X181983716Y-133255871D02*
X182038197Y-132946905D01*
X180334314Y-126650000D02*
X182050000Y-126650000D01*
X181902521Y-133558884D02*
X181983716Y-133255871D01*
X181662631Y-134138016D02*
X181733248Y-133986579D01*
X179849030Y-135799842D02*
X180133352Y-135667263D01*
X120400000Y-135800000D02*
X120650000Y-136050000D01*
X120650000Y-136050000D02*
X178860012Y-136050000D01*
X182065822Y-130665822D02*
X181250000Y-129850000D01*
X181505782Y-134409679D02*
X181662631Y-134138016D01*
X180915686Y-116650000D02*
X181850000Y-116650000D01*
X180284315Y-129850000D02*
X179350000Y-128915685D01*
X179554213Y-135907143D02*
X179849030Y-135799842D01*
X181733248Y-133986579D02*
X181733248Y-133901067D01*
X181750000Y-84981371D02*
X181350000Y-85381371D01*
X181803568Y-133830747D02*
X181902521Y-133558884D01*
X152700000Y-114500000D02*
X177634314Y-114500000D01*
X182050000Y-126650000D02*
X182050000Y-118915686D01*
D22*
%TO.N,+5V*%
X148375000Y-115875000D02*
X145888343Y-113388343D01*
D24*
X104689159Y-126089159D02*
X104689159Y-120543292D01*
X123243917Y-113388343D02*
X123243917Y-112388343D01*
X123243917Y-117388343D02*
X123243917Y-113388343D01*
X121243917Y-119388343D02*
X123243917Y-117388343D01*
X105182451Y-120050000D02*
X105200000Y-120050000D01*
X105200000Y-126600000D02*
X104689159Y-126089159D01*
X109000000Y-133000000D02*
X109000000Y-130400000D01*
D23*
X176150000Y-81300000D02*
X176200000Y-81300000D01*
D24*
X105200000Y-120032451D02*
X105844108Y-119388343D01*
X105844108Y-119388343D02*
X121243917Y-119388343D01*
X105200000Y-120050000D02*
X105200000Y-120032451D01*
X109000000Y-130400000D02*
X105200000Y-126600000D01*
D22*
X145888343Y-113388343D02*
X123243917Y-113388343D01*
D24*
X104689159Y-120543292D02*
X105182451Y-120050000D01*
D22*
X152275000Y-115875000D02*
X148375000Y-115875000D01*
X152700000Y-116300000D02*
X152275000Y-115875000D01*
D23*
%TO.N,Net-(Q1-G)*%
X152200000Y-55800000D02*
X154400000Y-55800000D01*
X154400000Y-55800000D02*
X154867258Y-56267258D01*
X154867258Y-56267258D02*
X154867258Y-61703441D01*
%TO.N,Net-(Q3-G)*%
X132212742Y-56012742D02*
X132190722Y-56034762D01*
X132190722Y-61477980D02*
X132212742Y-61500000D01*
X132190722Y-56034762D02*
X132190722Y-61477980D01*
%TO.N,Net-(Q11-G)*%
X108400000Y-56400000D02*
X108315870Y-56484130D01*
X108315870Y-61598782D02*
X108314652Y-61600000D01*
X108315870Y-56484130D02*
X108315870Y-61598782D01*
%TO.N,ABFET*%
X157400000Y-56150000D02*
X175918630Y-56150000D01*
X157000000Y-56550000D02*
X157400000Y-56150000D01*
X175918630Y-56150000D02*
X182033512Y-62264883D01*
X181450000Y-76750000D02*
X180150000Y-76750000D01*
X182033512Y-76166488D02*
X181450000Y-76750000D01*
X182033512Y-62264883D02*
X182033512Y-76166488D01*
%TO.N,ASFET*%
X157150000Y-117900000D02*
X157150000Y-117600000D01*
X157150000Y-117600000D02*
X155850000Y-116300000D01*
%TO.N,AVFET*%
X103100000Y-119300000D02*
X102000000Y-118200000D01*
X102000000Y-118200000D02*
X102000000Y-112900000D01*
%TD*%
%TA.AperFunction,Conductor*%
%TO.N,GND*%
G36*
X151811082Y-55119245D02*
G01*
X151829827Y-55164500D01*
X151811082Y-55209755D01*
X151802183Y-55217171D01*
X151799150Y-55219264D01*
X151671816Y-55332071D01*
X151671814Y-55332073D01*
X151575182Y-55472068D01*
X151514859Y-55631129D01*
X151494355Y-55799996D01*
X151494355Y-55800003D01*
X151514859Y-55968870D01*
X151575182Y-56127931D01*
X151671814Y-56267926D01*
X151671816Y-56267928D01*
X151671817Y-56267929D01*
X151799148Y-56380734D01*
X151949775Y-56459790D01*
X151949777Y-56459791D01*
X152114937Y-56500499D01*
X152114942Y-56500499D01*
X152114944Y-56500500D01*
X152114946Y-56500500D01*
X152285054Y-56500500D01*
X152285056Y-56500500D01*
X152285058Y-56500499D01*
X152285062Y-56500499D01*
X152450222Y-56459791D01*
X152450222Y-56459790D01*
X152450225Y-56459790D01*
X152600852Y-56380734D01*
X152728183Y-56267929D01*
X152824670Y-56128143D01*
X152865805Y-56101548D01*
X152877341Y-56100500D01*
X154249019Y-56100500D01*
X154294274Y-56119245D01*
X154548013Y-56372984D01*
X154566758Y-56418239D01*
X154566758Y-61031347D01*
X154548013Y-61076602D01*
X154532502Y-61088016D01*
X154466404Y-61122708D01*
X154339074Y-61235512D01*
X154339072Y-61235514D01*
X154242440Y-61375510D01*
X154217365Y-61441626D01*
X154183789Y-61477292D01*
X154134828Y-61478771D01*
X154131165Y-61477250D01*
X154112744Y-61468924D01*
X154045641Y-61449504D01*
X154045636Y-61449503D01*
X154045635Y-61449503D01*
X154045629Y-61449502D01*
X153969326Y-61438834D01*
X153903137Y-61429581D01*
X153903135Y-61429581D01*
X148712145Y-61449824D01*
X148666818Y-61431256D01*
X148647896Y-61386075D01*
X148666465Y-61340747D01*
X148687400Y-61326699D01*
X148729179Y-61309394D01*
X148805708Y-61258258D01*
X148828774Y-61248704D01*
X148878231Y-61238867D01*
X148944552Y-61194552D01*
X148988867Y-61128231D01*
X148998704Y-61078774D01*
X149008260Y-61055706D01*
X149059394Y-60979179D01*
X149103367Y-60873018D01*
X149119736Y-60833501D01*
X149119737Y-60833495D01*
X149150500Y-60678844D01*
X149150500Y-59421155D01*
X149119737Y-59266504D01*
X149119736Y-59266498D01*
X149085711Y-59184356D01*
X149059394Y-59120821D01*
X149008259Y-59044292D01*
X148998704Y-59021223D01*
X148988867Y-58971769D01*
X148988254Y-58970852D01*
X148972839Y-58947782D01*
X148944552Y-58905448D01*
X148878231Y-58861133D01*
X148828775Y-58851295D01*
X148805706Y-58841739D01*
X148729184Y-58790609D01*
X148729181Y-58790607D01*
X148729179Y-58790606D01*
X148698393Y-58777854D01*
X148583501Y-58730263D01*
X148583495Y-58730262D01*
X148428845Y-58699500D01*
X148428842Y-58699500D01*
X148271158Y-58699500D01*
X148271155Y-58699500D01*
X148116504Y-58730262D01*
X148116498Y-58730263D01*
X147970823Y-58790605D01*
X147970814Y-58790609D01*
X147894293Y-58841739D01*
X147871224Y-58851295D01*
X147821768Y-58861133D01*
X147821767Y-58861133D01*
X147755448Y-58905448D01*
X147711133Y-58971767D01*
X147711133Y-58971768D01*
X147701295Y-59021224D01*
X147691739Y-59044293D01*
X147640609Y-59120814D01*
X147640605Y-59120823D01*
X147580263Y-59266498D01*
X147580262Y-59266504D01*
X147549500Y-59421155D01*
X147549500Y-60678844D01*
X147580262Y-60833495D01*
X147580263Y-60833501D01*
X147632897Y-60960568D01*
X147640606Y-60979179D01*
X147640607Y-60979181D01*
X147640609Y-60979184D01*
X147691739Y-61055706D01*
X147701295Y-61078775D01*
X147711133Y-61128231D01*
X147711133Y-61128232D01*
X147724217Y-61147813D01*
X147755448Y-61194552D01*
X147821769Y-61238867D01*
X147871223Y-61248704D01*
X147894293Y-61258260D01*
X147945046Y-61292172D01*
X147970821Y-61309394D01*
X148019346Y-61329493D01*
X148053982Y-61364129D01*
X148053983Y-61413112D01*
X148019346Y-61447749D01*
X147995104Y-61452621D01*
X142376470Y-61474532D01*
X141744306Y-61476998D01*
X141715441Y-61480221D01*
X141636690Y-61489014D01*
X141585145Y-61500460D01*
X141585139Y-61500462D01*
X141482573Y-61535112D01*
X141361899Y-61613469D01*
X141309314Y-61659468D01*
X141309312Y-61659470D01*
X141309310Y-61659472D01*
X141301242Y-61668872D01*
X141215608Y-61768637D01*
X141215604Y-61768644D01*
X141156453Y-61899786D01*
X141156449Y-61899796D01*
X141137081Y-61966916D01*
X141137076Y-61966934D01*
X141117268Y-62109451D01*
X141193921Y-78428150D01*
X141193922Y-78428168D01*
X141206073Y-78535976D01*
X141206077Y-78536000D01*
X141217612Y-78587633D01*
X141217617Y-78587653D01*
X141252499Y-78690389D01*
X141252500Y-78690392D01*
X141331064Y-78810922D01*
X141331068Y-78810928D01*
X141374365Y-78860249D01*
X141374553Y-78860493D01*
X141377165Y-78863439D01*
X141486509Y-78956956D01*
X141617770Y-79015880D01*
X141684935Y-79035131D01*
X141827476Y-79054686D01*
X146806023Y-79022566D01*
X146851398Y-79041019D01*
X146870435Y-79086152D01*
X146859107Y-79122921D01*
X146825182Y-79172068D01*
X146764859Y-79331129D01*
X146744355Y-79499996D01*
X146744355Y-79500003D01*
X146764859Y-79668870D01*
X146825182Y-79827931D01*
X146921814Y-79967926D01*
X146921816Y-79967928D01*
X146921817Y-79967929D01*
X147049148Y-80080734D01*
X147199775Y-80159790D01*
X147199777Y-80159791D01*
X147364937Y-80200499D01*
X147364942Y-80200499D01*
X147364944Y-80200500D01*
X147364946Y-80200500D01*
X147535054Y-80200500D01*
X147535056Y-80200500D01*
X147535058Y-80200499D01*
X147535062Y-80200499D01*
X147700222Y-80159791D01*
X147700222Y-80159790D01*
X147700225Y-80159790D01*
X147850852Y-80080734D01*
X147978183Y-79967929D01*
X148012964Y-79917541D01*
X169107270Y-79917541D01*
X169127593Y-80266472D01*
X169188285Y-80610671D01*
X169188290Y-80610691D01*
X169276550Y-80905499D01*
X169288529Y-80945512D01*
X169409712Y-81226445D01*
X169426966Y-81266445D01*
X169593821Y-81555448D01*
X169601725Y-81569137D01*
X169810443Y-81849494D01*
X169952910Y-82000500D01*
X170050301Y-82103728D01*
X170318036Y-82328384D01*
X170318039Y-82328386D01*
X170318044Y-82328390D01*
X170610062Y-82520454D01*
X170922404Y-82677318D01*
X171250844Y-82796860D01*
X171590941Y-82877464D01*
X171938096Y-82918041D01*
X171938098Y-82918041D01*
X172287612Y-82918041D01*
X172287614Y-82918041D01*
X172634769Y-82877464D01*
X172974866Y-82796860D01*
X173303306Y-82677318D01*
X173615648Y-82520454D01*
X173907666Y-82328390D01*
X174175413Y-82103724D01*
X174415267Y-81849494D01*
X174623985Y-81569137D01*
X174798744Y-81266445D01*
X174937181Y-80945512D01*
X175037424Y-80610677D01*
X175098117Y-80266468D01*
X175118440Y-79917541D01*
X175098117Y-79568614D01*
X175037424Y-79224405D01*
X174937181Y-78889570D01*
X174798744Y-78568637D01*
X174623985Y-78265945D01*
X174415267Y-77985588D01*
X174175413Y-77731358D01*
X174175411Y-77731356D01*
X174175408Y-77731353D01*
X173907673Y-77506697D01*
X173907668Y-77506694D01*
X173907666Y-77506692D01*
X173615648Y-77314628D01*
X173303306Y-77157764D01*
X173303301Y-77157762D01*
X172974870Y-77038223D01*
X172940263Y-77030021D01*
X172634769Y-76957618D01*
X172634765Y-76957617D01*
X172634763Y-76957617D01*
X172437078Y-76934511D01*
X172287614Y-76917041D01*
X171938096Y-76917041D01*
X171813121Y-76931648D01*
X171590946Y-76957617D01*
X171590942Y-76957617D01*
X171590941Y-76957618D01*
X171452377Y-76990458D01*
X171250839Y-77038223D01*
X170922408Y-77157762D01*
X170610062Y-77314628D01*
X170318044Y-77506692D01*
X170318036Y-77506697D01*
X170050301Y-77731353D01*
X169810440Y-77985591D01*
X169601723Y-78265947D01*
X169426966Y-78568636D01*
X169288530Y-78889568D01*
X169288525Y-78889582D01*
X169188290Y-79224390D01*
X169188285Y-79224410D01*
X169127593Y-79568609D01*
X169107270Y-79917541D01*
X148012964Y-79917541D01*
X148074818Y-79827930D01*
X148135140Y-79668872D01*
X148148688Y-79557293D01*
X148155645Y-79500003D01*
X148155645Y-79499996D01*
X148135140Y-79331129D01*
X148125037Y-79304490D01*
X148074818Y-79172070D01*
X148035185Y-79114653D01*
X148024905Y-79066762D01*
X148051501Y-79025627D01*
X148087441Y-79014299D01*
X149448541Y-79005519D01*
X149449511Y-79005520D01*
X153226504Y-79043289D01*
X153310517Y-79037109D01*
X153323031Y-79035130D01*
X153351185Y-79030678D01*
X153351187Y-79030677D01*
X153351196Y-79030676D01*
X153433018Y-79010630D01*
X153561525Y-78945920D01*
X153616063Y-78907859D01*
X153663902Y-78897333D01*
X153705173Y-78923716D01*
X153705335Y-78923949D01*
X153727021Y-78955366D01*
X153854352Y-79068171D01*
X154001553Y-79145429D01*
X154004981Y-79147228D01*
X154170141Y-79187936D01*
X154170146Y-79187936D01*
X154170148Y-79187937D01*
X154170150Y-79187937D01*
X154340258Y-79187937D01*
X154340260Y-79187937D01*
X154340262Y-79187936D01*
X154340266Y-79187936D01*
X154505426Y-79147228D01*
X154505426Y-79147227D01*
X154505429Y-79147227D01*
X154656056Y-79068171D01*
X154783387Y-78955366D01*
X154880022Y-78815367D01*
X154940344Y-78656309D01*
X154951216Y-78566769D01*
X154960849Y-78487440D01*
X154960849Y-78487433D01*
X154940344Y-78318566D01*
X154939662Y-78316769D01*
X154880022Y-78159507D01*
X154880021Y-78159505D01*
X154783389Y-78019510D01*
X154783382Y-78019503D01*
X154764884Y-78003115D01*
X154743441Y-77959075D01*
X154759224Y-77913337D01*
X154759065Y-77913199D01*
X154759410Y-77912799D01*
X154759420Y-77912771D01*
X154759603Y-77912576D01*
X154760560Y-77911469D01*
X154854645Y-77802618D01*
X154914254Y-77671666D01*
X154933856Y-77604602D01*
X154933856Y-77604601D01*
X154934037Y-77603325D01*
X154934493Y-77600149D01*
X154934496Y-77600110D01*
X154940918Y-77555048D01*
X154954157Y-77462160D01*
X154935749Y-62561418D01*
X154927006Y-62468430D01*
X154927004Y-62468424D01*
X154926867Y-62466957D01*
X154927790Y-62466870D01*
X154939374Y-62421959D01*
X154975195Y-62398301D01*
X155034777Y-62383616D01*
X155117480Y-62363232D01*
X155117480Y-62363231D01*
X155117483Y-62363231D01*
X155268110Y-62284175D01*
X155395441Y-62171370D01*
X155492076Y-62031371D01*
X155552398Y-61872313D01*
X155564958Y-61768872D01*
X155572903Y-61703444D01*
X155572903Y-61703437D01*
X155552398Y-61534570D01*
X155539462Y-61500461D01*
X155492076Y-61375511D01*
X155492075Y-61375509D01*
X155395443Y-61235514D01*
X155395441Y-61235512D01*
X155358303Y-61202611D01*
X155268110Y-61122707D01*
X155222836Y-61098945D01*
X155202014Y-61088016D01*
X155170655Y-61050386D01*
X155167758Y-61031347D01*
X155167758Y-60500004D01*
X167636641Y-60500004D01*
X167656059Y-60821023D01*
X167656060Y-60821034D01*
X167714033Y-61137385D01*
X167805607Y-61431256D01*
X167809716Y-61444440D01*
X167837106Y-61505298D01*
X167941711Y-61737722D01*
X168108093Y-62012951D01*
X168108096Y-62012956D01*
X168108099Y-62012960D01*
X168306447Y-62266134D01*
X168533866Y-62493553D01*
X168787040Y-62691901D01*
X169062275Y-62858287D01*
X169355560Y-62990284D01*
X169662616Y-63085967D01*
X169978968Y-63143940D01*
X170192989Y-63156886D01*
X170299996Y-63163359D01*
X170300000Y-63163359D01*
X170300004Y-63163359D01*
X170398779Y-63157383D01*
X170621032Y-63143940D01*
X170937384Y-63085967D01*
X171244440Y-62990284D01*
X171537725Y-62858287D01*
X171812960Y-62691901D01*
X172066134Y-62493553D01*
X172293553Y-62266134D01*
X172491901Y-62012960D01*
X172658287Y-61737725D01*
X172790284Y-61444440D01*
X172885967Y-61137384D01*
X172943940Y-60821032D01*
X172963359Y-60500000D01*
X172943940Y-60178968D01*
X172885967Y-59862616D01*
X172790284Y-59555560D01*
X172658287Y-59262275D01*
X172512566Y-59021224D01*
X172491906Y-58987048D01*
X172491904Y-58987046D01*
X172491901Y-58987040D01*
X172293553Y-58733866D01*
X172066134Y-58506447D01*
X171812960Y-58308099D01*
X171812956Y-58308096D01*
X171812951Y-58308093D01*
X171537722Y-58141711D01*
X171351978Y-58058115D01*
X171244440Y-58009716D01*
X171244432Y-58009713D01*
X171244425Y-58009711D01*
X170937385Y-57914033D01*
X170621034Y-57856060D01*
X170621023Y-57856059D01*
X170300004Y-57836641D01*
X170299996Y-57836641D01*
X169978976Y-57856059D01*
X169978965Y-57856060D01*
X169662614Y-57914033D01*
X169355574Y-58009711D01*
X169355560Y-58009716D01*
X169062277Y-58141711D01*
X168787048Y-58308093D01*
X168787041Y-58308098D01*
X168533867Y-58506446D01*
X168306446Y-58733867D01*
X168108098Y-58987041D01*
X168108093Y-58987048D01*
X167941711Y-59262277D01*
X167809716Y-59555560D01*
X167809711Y-59555574D01*
X167714033Y-59862614D01*
X167656060Y-60178965D01*
X167656059Y-60178976D01*
X167636641Y-60499995D01*
X167636641Y-60500004D01*
X155167758Y-60500004D01*
X155167758Y-56550003D01*
X156294355Y-56550003D01*
X156314859Y-56718870D01*
X156375182Y-56877931D01*
X156471814Y-57017926D01*
X156471816Y-57017928D01*
X156471817Y-57017929D01*
X156599148Y-57130734D01*
X156749775Y-57209790D01*
X156749777Y-57209791D01*
X156914937Y-57250499D01*
X156914942Y-57250499D01*
X156914944Y-57250500D01*
X156914946Y-57250500D01*
X157085054Y-57250500D01*
X157085056Y-57250500D01*
X157085058Y-57250499D01*
X157085062Y-57250499D01*
X157250222Y-57209791D01*
X157250222Y-57209790D01*
X157250225Y-57209790D01*
X157400852Y-57130734D01*
X157528183Y-57017929D01*
X157624818Y-56877930D01*
X157685140Y-56718872D01*
X157695374Y-56634588D01*
X157705645Y-56550003D01*
X157705645Y-56549998D01*
X157702271Y-56522216D01*
X157715423Y-56475031D01*
X157758088Y-56450967D01*
X157765804Y-56450500D01*
X175767649Y-56450500D01*
X175812904Y-56469245D01*
X181714267Y-62370608D01*
X181733012Y-62415863D01*
X181733012Y-76015507D01*
X181714267Y-76060762D01*
X181344274Y-76430755D01*
X181299019Y-76449500D01*
X180827341Y-76449500D01*
X180782086Y-76430755D01*
X180774670Y-76421856D01*
X180725761Y-76351000D01*
X180678183Y-76282071D01*
X180678181Y-76282068D01*
X180675613Y-76279169D01*
X180677084Y-76277865D01*
X180658404Y-76239511D01*
X180674378Y-76193205D01*
X180697791Y-76176514D01*
X180752863Y-76153703D01*
X180892162Y-76060626D01*
X181010626Y-75942162D01*
X181103703Y-75802863D01*
X181167816Y-75648082D01*
X181200500Y-75483767D01*
X181200500Y-75316233D01*
X181200500Y-75316230D01*
X181167817Y-75151925D01*
X181167816Y-75151918D01*
X181103703Y-74997137D01*
X181010626Y-74857838D01*
X180892162Y-74739374D01*
X180752863Y-74646297D01*
X180752862Y-74646296D01*
X180752860Y-74646295D01*
X180598084Y-74582185D01*
X180598085Y-74582185D01*
X180598082Y-74582184D01*
X180598078Y-74582183D01*
X180598074Y-74582182D01*
X180433770Y-74549500D01*
X180433767Y-74549500D01*
X178966233Y-74549500D01*
X178966230Y-74549500D01*
X178801925Y-74582182D01*
X178801915Y-74582185D01*
X178647139Y-74646295D01*
X178507836Y-74739375D01*
X178389375Y-74857836D01*
X178296295Y-74997139D01*
X178232185Y-75151915D01*
X178232182Y-75151925D01*
X178199500Y-75316230D01*
X178199500Y-75483769D01*
X178232182Y-75648074D01*
X178232185Y-75648084D01*
X178296295Y-75802860D01*
X178296296Y-75802862D01*
X178296297Y-75802863D01*
X178389374Y-75942162D01*
X178507838Y-76060626D01*
X178647137Y-76153703D01*
X178801918Y-76217816D01*
X178867104Y-76230782D01*
X178966230Y-76250500D01*
X178966233Y-76250500D01*
X179521667Y-76250500D01*
X179566922Y-76269245D01*
X179585667Y-76314500D01*
X179574338Y-76350855D01*
X179568518Y-76359286D01*
X179525182Y-76422068D01*
X179464859Y-76581129D01*
X179444355Y-76749996D01*
X179444355Y-76750003D01*
X179464859Y-76918870D01*
X179525182Y-77077931D01*
X179621814Y-77217926D01*
X179621816Y-77217928D01*
X179621817Y-77217929D01*
X179749148Y-77330734D01*
X179864856Y-77391463D01*
X179899777Y-77409791D01*
X180064937Y-77450499D01*
X180064942Y-77450499D01*
X180064944Y-77450500D01*
X180064946Y-77450500D01*
X180235054Y-77450500D01*
X180235056Y-77450500D01*
X180235058Y-77450499D01*
X180235062Y-77450499D01*
X180400222Y-77409791D01*
X180400222Y-77409790D01*
X180400225Y-77409790D01*
X180550852Y-77330734D01*
X180678183Y-77217929D01*
X180774670Y-77078143D01*
X180815805Y-77051548D01*
X180827341Y-77050500D01*
X181489559Y-77050500D01*
X181489562Y-77050500D01*
X181565989Y-77030021D01*
X181634511Y-76990460D01*
X181690460Y-76934511D01*
X182273972Y-76350999D01*
X182313534Y-76282476D01*
X182330859Y-76217817D01*
X182334012Y-76206051D01*
X182334012Y-62225323D01*
X182334011Y-62225316D01*
X182322065Y-62180735D01*
X182322065Y-62180734D01*
X182313534Y-62148895D01*
X182273972Y-62080372D01*
X176103141Y-55909540D01*
X176048877Y-55878211D01*
X176048877Y-55878210D01*
X176048875Y-55878210D01*
X176034619Y-55869979D01*
X176019333Y-55865883D01*
X175958196Y-55849500D01*
X175958192Y-55849500D01*
X157360438Y-55849500D01*
X157360433Y-55849500D01*
X157284011Y-55869979D01*
X157271652Y-55877114D01*
X157224336Y-55883829D01*
X157085061Y-55849500D01*
X157085056Y-55849500D01*
X156914944Y-55849500D01*
X156914937Y-55849500D01*
X156749777Y-55890208D01*
X156599148Y-55969266D01*
X156471816Y-56082071D01*
X156471814Y-56082073D01*
X156375182Y-56222068D01*
X156314859Y-56381129D01*
X156294355Y-56549996D01*
X156294355Y-56550003D01*
X155167758Y-56550003D01*
X155167758Y-56227694D01*
X155147796Y-56153195D01*
X155147280Y-56151270D01*
X155107718Y-56082747D01*
X154584511Y-55559540D01*
X154559005Y-55544814D01*
X154559002Y-55544812D01*
X154559002Y-55544811D01*
X154515993Y-55519981D01*
X154515991Y-55519980D01*
X154515989Y-55519979D01*
X154500703Y-55515883D01*
X154439566Y-55499500D01*
X154439562Y-55499500D01*
X152877341Y-55499500D01*
X152832086Y-55480755D01*
X152824670Y-55471856D01*
X152728185Y-55332073D01*
X152728183Y-55332071D01*
X152600852Y-55219266D01*
X152600850Y-55219265D01*
X152600849Y-55219264D01*
X152597817Y-55217171D01*
X152571221Y-55176037D01*
X152581502Y-55128144D01*
X152622636Y-55101548D01*
X152634173Y-55100500D01*
X178400478Y-55100500D01*
X178402600Y-55100638D01*
X178405722Y-55100638D01*
X178405726Y-55100639D01*
X178470225Y-55100638D01*
X178473015Y-55100698D01*
X178860997Y-55117631D01*
X178866525Y-55118114D01*
X179250194Y-55168619D01*
X179255687Y-55169588D01*
X179633463Y-55253333D01*
X179638845Y-55254775D01*
X180007885Y-55371128D01*
X180013125Y-55373034D01*
X180370644Y-55521119D01*
X180375684Y-55523470D01*
X180385793Y-55528732D01*
X180417278Y-55566256D01*
X180413008Y-55615053D01*
X180375484Y-55646538D01*
X180356240Y-55649500D01*
X178966230Y-55649500D01*
X178801925Y-55682182D01*
X178801915Y-55682185D01*
X178647139Y-55746295D01*
X178507836Y-55839375D01*
X178389375Y-55957836D01*
X178296295Y-56097139D01*
X178232185Y-56251915D01*
X178232182Y-56251925D01*
X178199500Y-56416230D01*
X178199500Y-56583769D01*
X178232182Y-56748074D01*
X178232185Y-56748084D01*
X178296295Y-56902860D01*
X178296296Y-56902862D01*
X178296297Y-56902863D01*
X178389374Y-57042162D01*
X178507838Y-57160626D01*
X178647137Y-57253703D01*
X178801918Y-57317816D01*
X178867104Y-57330782D01*
X178966230Y-57350500D01*
X178966233Y-57350500D01*
X180433770Y-57350500D01*
X180516298Y-57334083D01*
X180598082Y-57317816D01*
X180752863Y-57253703D01*
X180892162Y-57160626D01*
X181010626Y-57042162D01*
X181103703Y-56902863D01*
X181167816Y-56748082D01*
X181200500Y-56583767D01*
X181200500Y-56416233D01*
X181200500Y-56416230D01*
X181180782Y-56317104D01*
X181167816Y-56251918D01*
X181126220Y-56151498D01*
X181107986Y-56107476D01*
X181107986Y-56058492D01*
X181142622Y-56023856D01*
X181191606Y-56023856D01*
X181206068Y-56032205D01*
X181361665Y-56151597D01*
X181365936Y-56155182D01*
X181448818Y-56231128D01*
X181650824Y-56416230D01*
X181651223Y-56416595D01*
X181655156Y-56420527D01*
X181916593Y-56705832D01*
X181920172Y-56710097D01*
X182127840Y-56980735D01*
X182155740Y-57017094D01*
X182158939Y-57021664D01*
X182171998Y-57042162D01*
X182366841Y-57348004D01*
X182369633Y-57352839D01*
X182548310Y-57696073D01*
X182550669Y-57701133D01*
X182698743Y-58058616D01*
X182700653Y-58063863D01*
X182817009Y-58432903D01*
X182818454Y-58438296D01*
X182902203Y-58816065D01*
X182903173Y-58821564D01*
X182953679Y-59205210D01*
X182954165Y-59210772D01*
X182971047Y-59597516D01*
X182971108Y-59600307D01*
X182971108Y-59666026D01*
X182971656Y-59670190D01*
X182971186Y-59670251D01*
X182972355Y-59679107D01*
X182972355Y-132476141D01*
X182972294Y-132478933D01*
X182955351Y-132866902D01*
X182954864Y-132872464D01*
X182904357Y-133256080D01*
X182903388Y-133261579D01*
X182819635Y-133639351D01*
X182818190Y-133644744D01*
X182701830Y-134013780D01*
X182699920Y-134019026D01*
X182551842Y-134376508D01*
X182549482Y-134381568D01*
X182370818Y-134724771D01*
X182368027Y-134729607D01*
X182160112Y-135055963D01*
X182156909Y-135060536D01*
X181921358Y-135367506D01*
X181917770Y-135371783D01*
X181891914Y-135400000D01*
X181690940Y-135619322D01*
X181656357Y-135657062D01*
X181652408Y-135661010D01*
X181367125Y-135922418D01*
X181362848Y-135926007D01*
X181055865Y-136161559D01*
X181051292Y-136164761D01*
X180724949Y-136372660D01*
X180720114Y-136375452D01*
X180376900Y-136554115D01*
X180371839Y-136556475D01*
X180014344Y-136704550D01*
X180009098Y-136706459D01*
X179640070Y-136822809D01*
X179634677Y-136824254D01*
X179256916Y-136907999D01*
X179251417Y-136908969D01*
X178867777Y-136959473D01*
X178862215Y-136959959D01*
X178472276Y-136976979D01*
X178469485Y-136977040D01*
X178403051Y-136977040D01*
X178403035Y-136977041D01*
X107067936Y-136977041D01*
X107022681Y-136958296D01*
X107003936Y-136913041D01*
X107008095Y-136890346D01*
X107033708Y-136822809D01*
X107062681Y-136746413D01*
X107073025Y-136661223D01*
X107083186Y-136577544D01*
X107083186Y-136577537D01*
X107065103Y-136428614D01*
X107062681Y-136408669D01*
X107002359Y-136249611D01*
X107002358Y-136249609D01*
X106905726Y-136109614D01*
X106905724Y-136109612D01*
X106895439Y-136100500D01*
X106778393Y-135996807D01*
X106627763Y-135917749D01*
X106462603Y-135877041D01*
X106462597Y-135877041D01*
X106292485Y-135877041D01*
X106292478Y-135877041D01*
X106127318Y-135917749D01*
X106007315Y-135980733D01*
X105976689Y-135996807D01*
X105898599Y-136065989D01*
X105898171Y-136066368D01*
X105851867Y-136082346D01*
X105807826Y-136060903D01*
X105791848Y-136014599D01*
X105792198Y-136010749D01*
X105805645Y-135900003D01*
X105805645Y-135899996D01*
X105785789Y-135736472D01*
X105785140Y-135731128D01*
X105724818Y-135572070D01*
X105722611Y-135568872D01*
X105628185Y-135432073D01*
X105628183Y-135432071D01*
X105611172Y-135417001D01*
X105500852Y-135319266D01*
X105350222Y-135240208D01*
X105185062Y-135199500D01*
X105185056Y-135199500D01*
X105014944Y-135199500D01*
X105014937Y-135199500D01*
X104849777Y-135240208D01*
X104699147Y-135319266D01*
X104699143Y-135319269D01*
X104606861Y-135401023D01*
X104560557Y-135417001D01*
X104516517Y-135395557D01*
X104500889Y-135360832D01*
X104496831Y-135327413D01*
X104485140Y-135231128D01*
X104424818Y-135072070D01*
X104424817Y-135072068D01*
X104328185Y-134932073D01*
X104328183Y-134932071D01*
X104286776Y-134895388D01*
X104200852Y-134819266D01*
X104050222Y-134740208D01*
X103885062Y-134699500D01*
X103885056Y-134699500D01*
X103714944Y-134699500D01*
X103714937Y-134699500D01*
X103549777Y-134740208D01*
X103399148Y-134819266D01*
X103271816Y-134932071D01*
X103271814Y-134932073D01*
X103175182Y-135072068D01*
X103114859Y-135231129D01*
X103094355Y-135399996D01*
X103094355Y-135400003D01*
X103114859Y-135568870D01*
X103175182Y-135727931D01*
X103271814Y-135867926D01*
X103271816Y-135867928D01*
X103271817Y-135867929D01*
X103399148Y-135980734D01*
X103549775Y-136059790D01*
X103549777Y-136059791D01*
X103714937Y-136100499D01*
X103714942Y-136100499D01*
X103714944Y-136100500D01*
X103714946Y-136100500D01*
X103885054Y-136100500D01*
X103885056Y-136100500D01*
X103885058Y-136100499D01*
X103885062Y-136100499D01*
X104050222Y-136059791D01*
X104050222Y-136059790D01*
X104050225Y-136059790D01*
X104200852Y-135980734D01*
X104293138Y-135898975D01*
X104339441Y-135882998D01*
X104383482Y-135904441D01*
X104399110Y-135939166D01*
X104414859Y-136068870D01*
X104475182Y-136227931D01*
X104571814Y-136367926D01*
X104571816Y-136367928D01*
X104571817Y-136367929D01*
X104699148Y-136480734D01*
X104849775Y-136559790D01*
X104849777Y-136559791D01*
X105014937Y-136600499D01*
X105014942Y-136600499D01*
X105014944Y-136600500D01*
X105014946Y-136600500D01*
X105185054Y-136600500D01*
X105185056Y-136600500D01*
X105185058Y-136600499D01*
X105185062Y-136600499D01*
X105350222Y-136559791D01*
X105350222Y-136559790D01*
X105350225Y-136559790D01*
X105500852Y-136480734D01*
X105579371Y-136411172D01*
X105625673Y-136395194D01*
X105669713Y-136416637D01*
X105685692Y-136462941D01*
X105685342Y-136466791D01*
X105671896Y-136577537D01*
X105671896Y-136577544D01*
X105692400Y-136746411D01*
X105746987Y-136890346D01*
X105745508Y-136939308D01*
X105709841Y-136972882D01*
X105687146Y-136977041D01*
X89074255Y-136977041D01*
X89071463Y-136976980D01*
X88683490Y-136960037D01*
X88677928Y-136959550D01*
X88294306Y-136909042D01*
X88288807Y-136908073D01*
X87911033Y-136824320D01*
X87905641Y-136822875D01*
X87536607Y-136706517D01*
X87531360Y-136704607D01*
X87173881Y-136556532D01*
X87168821Y-136554173D01*
X86946796Y-136438593D01*
X86825589Y-136375495D01*
X86820756Y-136372705D01*
X86494419Y-136164804D01*
X86489849Y-136161605D01*
X86454540Y-136134511D01*
X86182855Y-135926039D01*
X86178590Y-135922460D01*
X86057308Y-135811325D01*
X85893303Y-135661042D01*
X85889355Y-135657094D01*
X85758648Y-135514453D01*
X85627934Y-135371804D01*
X85624359Y-135367543D01*
X85388784Y-135060536D01*
X85385596Y-135055982D01*
X85177687Y-134729631D01*
X85174905Y-134724815D01*
X84996220Y-134381568D01*
X84993865Y-134376515D01*
X84993862Y-134376508D01*
X84845787Y-134019026D01*
X84843881Y-134013789D01*
X84843878Y-134013780D01*
X84727520Y-133644744D01*
X84726078Y-133639362D01*
X84724869Y-133633910D01*
X84642322Y-133261572D01*
X84641358Y-133256100D01*
X84590848Y-132872461D01*
X84590362Y-132866905D01*
X84589691Y-132851548D01*
X84573416Y-132478841D01*
X84573355Y-132476049D01*
X84573355Y-131238010D01*
X93927739Y-131238010D01*
X93948062Y-131586941D01*
X94008754Y-131931140D01*
X94008759Y-131931160D01*
X94095788Y-132221856D01*
X94108998Y-132265981D01*
X94231510Y-132549996D01*
X94247435Y-132586914D01*
X94410695Y-132869690D01*
X94422194Y-132889606D01*
X94630912Y-133169963D01*
X94857744Y-133410390D01*
X94870770Y-133424197D01*
X95138505Y-133648853D01*
X95138508Y-133648855D01*
X95138513Y-133648859D01*
X95430531Y-133840923D01*
X95742873Y-133997787D01*
X96071313Y-134117329D01*
X96411410Y-134197933D01*
X96758565Y-134238510D01*
X96758567Y-134238510D01*
X97108081Y-134238510D01*
X97108083Y-134238510D01*
X97455238Y-134197933D01*
X97795335Y-134117329D01*
X98123775Y-133997787D01*
X98436117Y-133840923D01*
X98728135Y-133648859D01*
X98995882Y-133424193D01*
X99235736Y-133169963D01*
X99444454Y-132889606D01*
X99619213Y-132586914D01*
X99757650Y-132265981D01*
X99857893Y-131931146D01*
X99918586Y-131586937D01*
X99938909Y-131238010D01*
X99918586Y-130889083D01*
X99857893Y-130544874D01*
X99757650Y-130210039D01*
X99619213Y-129889106D01*
X99444454Y-129586414D01*
X99235736Y-129306057D01*
X98995882Y-129051827D01*
X98995880Y-129051825D01*
X98995877Y-129051822D01*
X98728142Y-128827166D01*
X98728137Y-128827163D01*
X98728135Y-128827161D01*
X98436117Y-128635097D01*
X98123775Y-128478233D01*
X98067537Y-128457764D01*
X97795339Y-128358692D01*
X97708973Y-128338223D01*
X97455238Y-128278087D01*
X97455234Y-128278086D01*
X97455232Y-128278086D01*
X97260491Y-128255324D01*
X97108083Y-128237510D01*
X96758565Y-128237510D01*
X96633590Y-128252117D01*
X96411415Y-128278086D01*
X96411411Y-128278086D01*
X96411410Y-128278087D01*
X96241361Y-128318389D01*
X96071308Y-128358692D01*
X95742877Y-128478231D01*
X95430531Y-128635097D01*
X95138513Y-128827161D01*
X95138505Y-128827166D01*
X94870770Y-129051822D01*
X94630909Y-129306060D01*
X94422192Y-129586416D01*
X94247435Y-129889105D01*
X94170186Y-130068189D01*
X94117828Y-130189570D01*
X94108999Y-130210037D01*
X94108994Y-130210051D01*
X94008759Y-130544859D01*
X94008754Y-130544879D01*
X93948062Y-130889078D01*
X93927739Y-131238010D01*
X84573355Y-131238010D01*
X84573355Y-126158155D01*
X103988659Y-126158155D01*
X104015577Y-126293482D01*
X104015578Y-126293484D01*
X104015579Y-126293487D01*
X104068384Y-126420970D01*
X104068385Y-126420972D01*
X104068387Y-126420975D01*
X104145044Y-126535701D01*
X108280755Y-130671412D01*
X108299500Y-130716667D01*
X108299500Y-131753758D01*
X108299033Y-131761473D01*
X108294355Y-131799998D01*
X108294355Y-131800001D01*
X108299033Y-131838526D01*
X108299500Y-131846241D01*
X108299500Y-132953758D01*
X108299033Y-132961473D01*
X108294355Y-132999998D01*
X108294355Y-133000001D01*
X108299033Y-133038526D01*
X108299500Y-133046241D01*
X108299500Y-133068995D01*
X108307325Y-133108334D01*
X108308088Y-133113106D01*
X108314858Y-133168867D01*
X108314860Y-133168875D01*
X108322449Y-133188885D01*
X108325378Y-133199090D01*
X108326420Y-133204329D01*
X108326421Y-133204333D01*
X108348394Y-133257378D01*
X108349102Y-133259163D01*
X108350019Y-133261579D01*
X108375182Y-133327931D01*
X108420229Y-133393192D01*
X108420772Y-133393991D01*
X108455886Y-133446542D01*
X108455887Y-133446543D01*
X108455890Y-133446547D01*
X108457882Y-133448975D01*
X108457867Y-133448987D01*
X108462960Y-133455098D01*
X108471815Y-133467927D01*
X108471816Y-133467928D01*
X108471817Y-133467929D01*
X108518185Y-133509007D01*
X108518195Y-133509016D01*
X108521010Y-133511666D01*
X108553461Y-133544117D01*
X108562271Y-133550003D01*
X108567546Y-133553528D01*
X108567551Y-133553531D01*
X108574431Y-133558837D01*
X108599148Y-133580734D01*
X108638656Y-133601469D01*
X108644445Y-133604910D01*
X108668189Y-133620775D01*
X108668190Y-133620775D01*
X108668191Y-133620776D01*
X108699901Y-133633911D01*
X108705152Y-133636370D01*
X108728936Y-133648853D01*
X108749775Y-133659790D01*
X108776205Y-133666303D01*
X108785382Y-133669317D01*
X108795672Y-133673580D01*
X108846389Y-133683667D01*
X108849141Y-133684280D01*
X108914944Y-133700500D01*
X108914945Y-133700500D01*
X109085055Y-133700500D01*
X109085056Y-133700500D01*
X109150876Y-133684276D01*
X109153608Y-133683667D01*
X109204328Y-133673580D01*
X109214618Y-133669317D01*
X109223797Y-133666302D01*
X109250225Y-133659790D01*
X109294861Y-133636362D01*
X109300079Y-133633918D01*
X109331811Y-133620775D01*
X109355551Y-133604911D01*
X109361344Y-133601468D01*
X109400852Y-133580734D01*
X109425570Y-133558835D01*
X109432448Y-133553531D01*
X109446542Y-133544114D01*
X109479012Y-133511642D01*
X109481792Y-133509026D01*
X109528183Y-133467929D01*
X109537035Y-133455103D01*
X109542131Y-133448988D01*
X109542116Y-133448976D01*
X109544108Y-133446547D01*
X109544114Y-133446542D01*
X109579282Y-133393908D01*
X109579728Y-133393252D01*
X109624818Y-133327930D01*
X109650902Y-133259148D01*
X109651576Y-133257448D01*
X109673580Y-133204328D01*
X109674620Y-133199095D01*
X109677549Y-133188884D01*
X109685140Y-133168872D01*
X109691915Y-133113066D01*
X109692665Y-133108372D01*
X109700500Y-133068993D01*
X109700500Y-133046241D01*
X109700967Y-133038526D01*
X109705645Y-133000001D01*
X109705645Y-132999998D01*
X109700967Y-132961473D01*
X109700500Y-132953758D01*
X109700500Y-132550003D01*
X114494355Y-132550003D01*
X114514859Y-132718870D01*
X114575182Y-132877931D01*
X114671814Y-133017926D01*
X114671816Y-133017928D01*
X114671817Y-133017929D01*
X114799148Y-133130734D01*
X114925541Y-133197071D01*
X114949777Y-133209791D01*
X115114937Y-133250499D01*
X115114942Y-133250499D01*
X115114944Y-133250500D01*
X115114946Y-133250500D01*
X115285054Y-133250500D01*
X115285056Y-133250500D01*
X115285058Y-133250499D01*
X115285062Y-133250499D01*
X115450222Y-133209791D01*
X115450222Y-133209790D01*
X115450225Y-133209790D01*
X115600852Y-133130734D01*
X115728183Y-133017929D01*
X115824670Y-132878143D01*
X115865805Y-132851548D01*
X115877341Y-132850500D01*
X117380390Y-132850500D01*
X117425645Y-132869245D01*
X119480755Y-134924355D01*
X119499500Y-134969610D01*
X119499500Y-135989566D01*
X119519978Y-136065986D01*
X119519979Y-136065989D01*
X119555943Y-136128280D01*
X119555942Y-136128280D01*
X119555945Y-136128284D01*
X119559540Y-136134511D01*
X120115489Y-136690460D01*
X120184012Y-136730022D01*
X120184014Y-136730022D01*
X120184015Y-136730023D01*
X120260437Y-136750500D01*
X120260438Y-136750500D01*
X120339562Y-136750500D01*
X178845581Y-136750500D01*
X178856693Y-136751472D01*
X178858908Y-136751862D01*
X178864254Y-136752805D01*
X178864254Y-136752804D01*
X178864255Y-136752805D01*
X178876092Y-136751769D01*
X178887812Y-136750743D01*
X178893390Y-136750500D01*
X178917035Y-136750500D01*
X178917038Y-136750500D01*
X178924448Y-136748513D01*
X178935421Y-136746577D01*
X178988931Y-136741897D01*
X179000074Y-136741897D01*
X179007719Y-136742567D01*
X179031000Y-136738461D01*
X179036529Y-136737732D01*
X179060102Y-136735671D01*
X179067315Y-136733044D01*
X179078078Y-136730160D01*
X179358647Y-136680689D01*
X179369756Y-136679718D01*
X179377428Y-136679719D01*
X179400295Y-136673591D01*
X179405700Y-136672393D01*
X179429011Y-136668284D01*
X179435971Y-136665037D01*
X179446442Y-136661226D01*
X179721577Y-136587507D01*
X179732557Y-136585570D01*
X179740208Y-136584902D01*
X179762437Y-136576810D01*
X179767741Y-136575138D01*
X179790597Y-136569015D01*
X179797242Y-136565178D01*
X179807343Y-136560466D01*
X180075061Y-136463028D01*
X180085832Y-136460143D01*
X180093387Y-136458812D01*
X180114826Y-136448813D01*
X180119962Y-136446686D01*
X180142199Y-136438594D01*
X180148486Y-136434190D01*
X180158140Y-136428616D01*
X180416328Y-136308224D01*
X180426798Y-136304413D01*
X180434218Y-136302426D01*
X180454713Y-136290592D01*
X180459634Y-136288030D01*
X180481083Y-136278030D01*
X180486968Y-136273090D01*
X180496090Y-136266703D01*
X180742790Y-136124274D01*
X180752889Y-136119565D01*
X180760106Y-136116939D01*
X180779492Y-136103364D01*
X180784176Y-136100380D01*
X180804665Y-136088552D01*
X180810086Y-136083129D01*
X180818632Y-136075958D01*
X181051994Y-135912559D01*
X181061646Y-135906987D01*
X181068607Y-135903742D01*
X181086730Y-135888533D01*
X181091138Y-135885150D01*
X181110523Y-135871579D01*
X181115455Y-135865700D01*
X181123334Y-135857820D01*
X181263671Y-135740065D01*
X181272795Y-135733676D01*
X181279449Y-135729836D01*
X181296183Y-135713100D01*
X181300274Y-135709351D01*
X181318400Y-135694144D01*
X181322801Y-135687857D01*
X181329965Y-135679318D01*
X181674702Y-135334581D01*
X181683247Y-135327413D01*
X181689528Y-135323016D01*
X181704737Y-135304889D01*
X181708487Y-135300796D01*
X181725224Y-135284061D01*
X181729059Y-135277417D01*
X181735455Y-135268281D01*
X181853168Y-135127999D01*
X181861057Y-135120112D01*
X181866931Y-135115183D01*
X181866935Y-135115180D01*
X181880502Y-135095803D01*
X181883887Y-135091391D01*
X181899097Y-135073266D01*
X181902343Y-135066303D01*
X181907912Y-135056657D01*
X182071323Y-134823285D01*
X182078480Y-134814757D01*
X182083914Y-134809324D01*
X182095747Y-134788825D01*
X182098727Y-134784148D01*
X182112302Y-134764764D01*
X182114928Y-134757547D01*
X182119633Y-134747454D01*
X182262062Y-134500767D01*
X182268462Y-134491629D01*
X182273390Y-134485756D01*
X182273393Y-134485752D01*
X182273392Y-134485752D01*
X182273394Y-134485751D01*
X182283397Y-134464296D01*
X182285956Y-134459380D01*
X182297790Y-134438887D01*
X182299776Y-134431470D01*
X182303588Y-134420998D01*
X182398874Y-134216664D01*
X182401434Y-134211745D01*
X182413269Y-134191248D01*
X182413272Y-134191236D01*
X182414872Y-134187375D01*
X182415175Y-134187500D01*
X182419017Y-134178223D01*
X182420701Y-134175308D01*
X182421905Y-134170813D01*
X182431301Y-134150664D01*
X182433972Y-134146851D01*
X182442066Y-134124611D01*
X182444200Y-134119462D01*
X182445196Y-134117327D01*
X182454191Y-134098038D01*
X182455523Y-134090480D01*
X182458408Y-134079713D01*
X182555837Y-133812033D01*
X182560552Y-133801925D01*
X182564386Y-133795284D01*
X182564385Y-133795284D01*
X182564388Y-133795281D01*
X182570515Y-133772413D01*
X182572184Y-133767122D01*
X182580276Y-133744892D01*
X182580944Y-133737245D01*
X182582882Y-133726260D01*
X182584862Y-133718870D01*
X182656617Y-133451090D01*
X182660430Y-133440616D01*
X182663672Y-133433666D01*
X182667778Y-133410373D01*
X182668985Y-133404934D01*
X182675107Y-133382090D01*
X182675108Y-133382084D01*
X182675108Y-133374412D01*
X182676080Y-133363298D01*
X182682316Y-133327931D01*
X182725548Y-133082754D01*
X182728436Y-133071980D01*
X182731061Y-133064773D01*
X182733123Y-133041193D01*
X182733853Y-133035660D01*
X182737957Y-133012391D01*
X182737288Y-133004748D01*
X182737288Y-132993591D01*
X182762399Y-132706611D01*
X182764333Y-132695638D01*
X182766322Y-132688220D01*
X182766322Y-132664573D01*
X182766566Y-132658993D01*
X182768627Y-132635441D01*
X182768627Y-132635440D01*
X182767294Y-132627878D01*
X182766322Y-132616767D01*
X182766322Y-130326262D01*
X182766321Y-130326255D01*
X182751050Y-130269266D01*
X182745843Y-130249833D01*
X182706282Y-130181311D01*
X182650333Y-130125362D01*
X181734726Y-129209755D01*
X181715981Y-129164500D01*
X181734726Y-129119245D01*
X181779981Y-129100500D01*
X181978845Y-129100500D01*
X182071635Y-129082042D01*
X182133497Y-129069737D01*
X182133498Y-129069736D01*
X182133501Y-129069736D01*
X182183875Y-129048869D01*
X182279179Y-129009394D01*
X182355708Y-128958258D01*
X182378774Y-128948704D01*
X182428231Y-128938867D01*
X182494552Y-128894552D01*
X182538867Y-128828231D01*
X182548704Y-128778774D01*
X182558258Y-128755708D01*
X182609394Y-128679179D01*
X182649500Y-128582353D01*
X182669736Y-128533501D01*
X182669737Y-128533495D01*
X182700500Y-128378844D01*
X182700500Y-128221155D01*
X182669737Y-128066504D01*
X182669736Y-128066498D01*
X182635711Y-127984356D01*
X182609394Y-127920821D01*
X182558259Y-127844292D01*
X182548704Y-127821223D01*
X182538867Y-127771769D01*
X182494552Y-127705448D01*
X182428231Y-127661133D01*
X182378775Y-127651295D01*
X182355706Y-127641739D01*
X182279184Y-127590609D01*
X182279181Y-127590607D01*
X182279179Y-127590606D01*
X182238189Y-127573627D01*
X182203554Y-127538992D01*
X182203554Y-127490008D01*
X182238190Y-127455372D01*
X182262682Y-127450500D01*
X182489559Y-127450500D01*
X182489562Y-127450500D01*
X182565989Y-127430021D01*
X182634511Y-127390460D01*
X182690460Y-127334511D01*
X182730021Y-127265989D01*
X182750500Y-127189562D01*
X182750500Y-118710438D01*
X182730021Y-118634011D01*
X182690460Y-118565489D01*
X182634511Y-118509540D01*
X181543122Y-117418151D01*
X181524377Y-117372896D01*
X181543122Y-117327641D01*
X181588377Y-117308896D01*
X181603693Y-117310756D01*
X181764937Y-117350499D01*
X181764942Y-117350499D01*
X181764944Y-117350500D01*
X181764946Y-117350500D01*
X181935054Y-117350500D01*
X181935056Y-117350500D01*
X181935058Y-117350499D01*
X181935062Y-117350499D01*
X182100222Y-117309791D01*
X182100222Y-117309790D01*
X182100225Y-117309790D01*
X182250852Y-117230734D01*
X182378183Y-117117929D01*
X182474818Y-116977930D01*
X182535140Y-116818872D01*
X182555645Y-116650000D01*
X182552965Y-116627931D01*
X182535140Y-116481129D01*
X182485220Y-116349500D01*
X182474818Y-116322070D01*
X182474817Y-116322068D01*
X182378185Y-116182073D01*
X182378183Y-116182071D01*
X182373947Y-116178318D01*
X182250852Y-116069266D01*
X182100222Y-115990208D01*
X181935062Y-115949500D01*
X181935056Y-115949500D01*
X181764944Y-115949500D01*
X181764937Y-115949500D01*
X181599777Y-115990208D01*
X181449148Y-116069266D01*
X181321816Y-116182071D01*
X181321814Y-116182073D01*
X181225330Y-116321856D01*
X181184195Y-116348452D01*
X181172659Y-116349500D01*
X181066667Y-116349500D01*
X181021412Y-116330755D01*
X180243389Y-115552732D01*
X180224644Y-115507477D01*
X180243389Y-115462222D01*
X180288644Y-115443477D01*
X180301126Y-115444706D01*
X180321225Y-115448704D01*
X180344293Y-115458260D01*
X180350223Y-115462222D01*
X180420821Y-115509394D01*
X180484356Y-115535711D01*
X180566498Y-115569736D01*
X180566502Y-115569736D01*
X180566503Y-115569737D01*
X180605166Y-115577427D01*
X180721155Y-115600500D01*
X180721158Y-115600500D01*
X181978845Y-115600500D01*
X182071635Y-115582042D01*
X182133497Y-115569737D01*
X182133498Y-115569736D01*
X182133501Y-115569736D01*
X182183875Y-115548869D01*
X182279179Y-115509394D01*
X182355708Y-115458258D01*
X182378774Y-115448704D01*
X182428231Y-115438867D01*
X182494552Y-115394552D01*
X182538867Y-115328231D01*
X182548704Y-115278774D01*
X182558258Y-115255708D01*
X182609394Y-115179179D01*
X182658578Y-115060438D01*
X182669736Y-115033501D01*
X182669737Y-115033495D01*
X182700500Y-114878844D01*
X182700500Y-114721155D01*
X182669737Y-114566504D01*
X182669736Y-114566498D01*
X182635711Y-114484356D01*
X182609394Y-114420821D01*
X182558259Y-114344292D01*
X182548704Y-114321223D01*
X182544582Y-114300500D01*
X182538867Y-114271769D01*
X182530863Y-114259791D01*
X182517842Y-114240304D01*
X182494552Y-114205448D01*
X182428231Y-114161133D01*
X182378775Y-114151295D01*
X182355706Y-114141739D01*
X182279184Y-114090609D01*
X182279181Y-114090607D01*
X182279179Y-114090606D01*
X182260568Y-114082897D01*
X182133501Y-114030263D01*
X182133495Y-114030262D01*
X181978845Y-113999500D01*
X181978842Y-113999500D01*
X180721158Y-113999500D01*
X180721155Y-113999500D01*
X180566504Y-114030262D01*
X180566498Y-114030263D01*
X180420823Y-114090605D01*
X180420814Y-114090609D01*
X180344293Y-114141739D01*
X180321224Y-114151295D01*
X180271768Y-114161133D01*
X180271767Y-114161133D01*
X180200207Y-114208950D01*
X180198189Y-114205931D01*
X180164500Y-114219886D01*
X180119245Y-114201141D01*
X180100500Y-114155886D01*
X180100500Y-112602674D01*
X180119245Y-112557419D01*
X180164500Y-112538674D01*
X180176977Y-112539903D01*
X180221225Y-112548704D01*
X180244293Y-112558260D01*
X180310764Y-112602674D01*
X180320821Y-112609394D01*
X180384356Y-112635711D01*
X180466498Y-112669736D01*
X180466502Y-112669736D01*
X180466503Y-112669737D01*
X180505166Y-112677427D01*
X180621155Y-112700500D01*
X180621158Y-112700500D01*
X181878845Y-112700500D01*
X181971635Y-112682042D01*
X182033497Y-112669737D01*
X182033498Y-112669736D01*
X182033501Y-112669736D01*
X182084029Y-112648806D01*
X182179179Y-112609394D01*
X182255708Y-112558258D01*
X182278774Y-112548704D01*
X182328231Y-112538867D01*
X182394552Y-112494552D01*
X182438867Y-112428231D01*
X182448704Y-112378774D01*
X182458258Y-112355708D01*
X182509394Y-112279179D01*
X182553760Y-112172070D01*
X182569736Y-112133501D01*
X182569737Y-112133495D01*
X182570245Y-112130945D01*
X182597262Y-111995120D01*
X182600500Y-111978844D01*
X182600500Y-111821155D01*
X182573375Y-111684791D01*
X182569737Y-111666503D01*
X182569736Y-111666502D01*
X182569736Y-111666498D01*
X182535711Y-111584356D01*
X182509394Y-111520821D01*
X182458259Y-111444292D01*
X182448704Y-111421223D01*
X182438867Y-111371769D01*
X182394552Y-111305448D01*
X182328231Y-111261133D01*
X182323013Y-111260095D01*
X182278775Y-111251295D01*
X182255706Y-111241739D01*
X182179184Y-111190609D01*
X182179181Y-111190607D01*
X182179179Y-111190606D01*
X182160568Y-111182897D01*
X182033501Y-111130263D01*
X182033495Y-111130262D01*
X181878845Y-111099500D01*
X181878842Y-111099500D01*
X180621158Y-111099500D01*
X180621155Y-111099500D01*
X180466504Y-111130262D01*
X180466498Y-111130263D01*
X180320823Y-111190605D01*
X180320814Y-111190609D01*
X180244293Y-111241739D01*
X180221224Y-111251295D01*
X180176987Y-111260095D01*
X180128944Y-111250540D01*
X180101730Y-111209812D01*
X180100500Y-111197325D01*
X180100500Y-99102674D01*
X180119245Y-99057419D01*
X180164500Y-99038674D01*
X180176977Y-99039903D01*
X180221225Y-99048704D01*
X180244293Y-99058260D01*
X180310764Y-99102674D01*
X180320821Y-99109394D01*
X180384356Y-99135711D01*
X180466498Y-99169736D01*
X180466502Y-99169736D01*
X180466503Y-99169737D01*
X180505166Y-99177427D01*
X180621155Y-99200500D01*
X180621158Y-99200500D01*
X181878845Y-99200500D01*
X181971635Y-99182042D01*
X182033497Y-99169737D01*
X182033498Y-99169736D01*
X182033501Y-99169736D01*
X182083875Y-99148869D01*
X182179179Y-99109394D01*
X182255708Y-99058258D01*
X182278774Y-99048704D01*
X182328231Y-99038867D01*
X182394552Y-98994552D01*
X182438867Y-98928231D01*
X182448704Y-98878774D01*
X182458258Y-98855708D01*
X182509394Y-98779179D01*
X182548869Y-98683875D01*
X182569736Y-98633501D01*
X182569737Y-98633495D01*
X182600500Y-98478844D01*
X182600500Y-98321155D01*
X182569737Y-98166504D01*
X182569736Y-98166498D01*
X182535711Y-98084356D01*
X182509394Y-98020821D01*
X182458259Y-97944292D01*
X182448704Y-97921223D01*
X182438867Y-97871769D01*
X182394552Y-97805448D01*
X182328231Y-97761133D01*
X182323013Y-97760095D01*
X182278775Y-97751295D01*
X182255706Y-97741739D01*
X182179184Y-97690609D01*
X182179181Y-97690607D01*
X182179179Y-97690606D01*
X182160568Y-97682897D01*
X182033501Y-97630263D01*
X182033495Y-97630262D01*
X181878845Y-97599500D01*
X181878842Y-97599500D01*
X180621158Y-97599500D01*
X180621155Y-97599500D01*
X180466504Y-97630262D01*
X180466498Y-97630263D01*
X180320823Y-97690605D01*
X180320814Y-97690609D01*
X180244293Y-97741739D01*
X180221224Y-97751295D01*
X180176987Y-97760095D01*
X180128944Y-97750540D01*
X180101730Y-97709812D01*
X180100500Y-97697325D01*
X180100500Y-96294114D01*
X180119245Y-96248859D01*
X180164500Y-96230114D01*
X180198189Y-96244068D01*
X180200207Y-96241050D01*
X180205447Y-96244551D01*
X180205448Y-96244552D01*
X180271769Y-96288867D01*
X180321223Y-96298704D01*
X180344293Y-96308260D01*
X180420815Y-96359390D01*
X180420821Y-96359394D01*
X180484356Y-96385711D01*
X180566498Y-96419736D01*
X180566502Y-96419736D01*
X180566503Y-96419737D01*
X180605166Y-96427427D01*
X180721155Y-96450500D01*
X180721158Y-96450500D01*
X181978845Y-96450500D01*
X182071635Y-96432042D01*
X182133497Y-96419737D01*
X182133498Y-96419736D01*
X182133501Y-96419736D01*
X182183875Y-96398869D01*
X182279179Y-96359394D01*
X182355708Y-96308258D01*
X182378774Y-96298704D01*
X182428231Y-96288867D01*
X182494552Y-96244552D01*
X182538867Y-96178231D01*
X182548704Y-96128774D01*
X182558258Y-96105708D01*
X182609394Y-96029179D01*
X182648869Y-95933875D01*
X182669736Y-95883501D01*
X182669737Y-95883495D01*
X182700500Y-95728844D01*
X182700500Y-95571155D01*
X182669737Y-95416504D01*
X182669736Y-95416498D01*
X182635711Y-95334356D01*
X182609394Y-95270821D01*
X182558259Y-95194292D01*
X182548704Y-95171223D01*
X182538867Y-95121769D01*
X182494552Y-95055448D01*
X182428231Y-95011133D01*
X182378775Y-95001295D01*
X182355706Y-94991739D01*
X182279184Y-94940609D01*
X182279181Y-94940607D01*
X182279179Y-94940606D01*
X182256058Y-94931029D01*
X182133501Y-94880263D01*
X182133495Y-94880262D01*
X181978845Y-94849500D01*
X181978842Y-94849500D01*
X180721158Y-94849500D01*
X180721155Y-94849500D01*
X180683807Y-94856929D01*
X180635764Y-94847373D01*
X180608551Y-94806645D01*
X180618107Y-94758602D01*
X180626066Y-94748904D01*
X180924834Y-94450136D01*
X181590460Y-93784511D01*
X181605836Y-93757877D01*
X181619153Y-93734814D01*
X181619153Y-93734811D01*
X181630021Y-93715989D01*
X181650500Y-93639562D01*
X181650500Y-85532352D01*
X181669245Y-85487097D01*
X181770965Y-85385377D01*
X181990460Y-85165882D01*
X182004877Y-85140911D01*
X182030021Y-85097360D01*
X182050500Y-85020933D01*
X182050500Y-84723751D01*
X182069245Y-84678496D01*
X182099184Y-84661610D01*
X182106572Y-84659790D01*
X182257199Y-84580734D01*
X182384530Y-84467929D01*
X182481165Y-84327930D01*
X182541487Y-84168872D01*
X182549689Y-84101323D01*
X182561992Y-84000003D01*
X182561992Y-83999996D01*
X182541487Y-83831129D01*
X182481164Y-83672068D01*
X182384532Y-83532073D01*
X182384530Y-83532071D01*
X182257199Y-83419266D01*
X182106569Y-83340208D01*
X181941409Y-83299500D01*
X181941403Y-83299500D01*
X181771291Y-83299500D01*
X181771284Y-83299500D01*
X181606124Y-83340208D01*
X181455495Y-83419266D01*
X181328163Y-83532071D01*
X181328161Y-83532073D01*
X181231529Y-83672068D01*
X181171206Y-83831128D01*
X181171205Y-83831132D01*
X181162002Y-83906929D01*
X181137939Y-83949594D01*
X181090754Y-83962747D01*
X181083153Y-83961354D01*
X181035062Y-83949501D01*
X181035058Y-83949500D01*
X181035056Y-83949500D01*
X180864944Y-83949500D01*
X180864937Y-83949500D01*
X180699777Y-83990208D01*
X180549148Y-84069266D01*
X180421816Y-84182071D01*
X180421814Y-84182073D01*
X180325182Y-84322068D01*
X180264859Y-84481129D01*
X180244355Y-84649996D01*
X180244355Y-84650003D01*
X180264859Y-84818870D01*
X180325182Y-84977931D01*
X180421814Y-85117926D01*
X180421816Y-85117928D01*
X180421817Y-85117929D01*
X180549148Y-85230734D01*
X180615244Y-85265424D01*
X180646602Y-85303050D01*
X180649500Y-85322091D01*
X180649500Y-93283333D01*
X180630755Y-93328588D01*
X179215489Y-94743855D01*
X179159541Y-94799802D01*
X179119979Y-94868325D01*
X179119979Y-94868326D01*
X179099500Y-94944748D01*
X179099500Y-113235500D01*
X179080755Y-113280755D01*
X179035500Y-113299500D01*
X150577341Y-113299500D01*
X150532086Y-113280755D01*
X150524670Y-113271856D01*
X150428185Y-113132073D01*
X150428183Y-113132071D01*
X150378351Y-113087924D01*
X150300852Y-113019266D01*
X150150222Y-112940208D01*
X149985062Y-112899500D01*
X149985056Y-112899500D01*
X149814944Y-112899500D01*
X149814937Y-112899500D01*
X149649777Y-112940208D01*
X149499148Y-113019266D01*
X149371816Y-113132071D01*
X149371814Y-113132073D01*
X149275182Y-113272068D01*
X149214859Y-113431129D01*
X149194355Y-113599996D01*
X149194355Y-113600003D01*
X149214859Y-113768870D01*
X149275182Y-113927931D01*
X149371814Y-114067926D01*
X149371816Y-114067928D01*
X149371817Y-114067929D01*
X149499148Y-114180734D01*
X149612644Y-114240302D01*
X149649777Y-114259791D01*
X149814937Y-114300499D01*
X149814942Y-114300499D01*
X149814944Y-114300500D01*
X149814946Y-114300500D01*
X149985054Y-114300500D01*
X149985056Y-114300500D01*
X149985058Y-114300499D01*
X149985062Y-114300499D01*
X150150222Y-114259791D01*
X150150222Y-114259790D01*
X150150225Y-114259790D01*
X150300852Y-114180734D01*
X150428183Y-114067929D01*
X150524670Y-113928143D01*
X150565805Y-113901548D01*
X150577341Y-113900500D01*
X152151576Y-113900500D01*
X152196831Y-113919245D01*
X152215576Y-113964500D01*
X152196831Y-114009755D01*
X152194025Y-114012396D01*
X152185763Y-114019715D01*
X152171816Y-114032071D01*
X152171814Y-114032073D01*
X152075182Y-114172068D01*
X152014859Y-114331129D01*
X151994355Y-114499996D01*
X151994355Y-114500003D01*
X152014859Y-114668870D01*
X152075182Y-114827931D01*
X152171814Y-114967926D01*
X152171816Y-114967928D01*
X152171817Y-114967929D01*
X152299148Y-115080734D01*
X152449775Y-115159790D01*
X152449777Y-115159791D01*
X152614937Y-115200499D01*
X152614942Y-115200499D01*
X152614944Y-115200500D01*
X152614946Y-115200500D01*
X152785054Y-115200500D01*
X152785056Y-115200500D01*
X152785058Y-115200499D01*
X152785062Y-115200499D01*
X152950222Y-115159791D01*
X152950222Y-115159790D01*
X152950225Y-115159790D01*
X153100852Y-115080734D01*
X153228183Y-114967929D01*
X153324670Y-114828143D01*
X153365805Y-114801548D01*
X153377341Y-114800500D01*
X177483333Y-114800500D01*
X177528588Y-114819245D01*
X180950317Y-118240974D01*
X180969062Y-118286229D01*
X180950317Y-118331484D01*
X180918331Y-118347065D01*
X180918703Y-118348573D01*
X180749777Y-118390208D01*
X180599148Y-118469266D01*
X180471816Y-118582071D01*
X180471814Y-118582073D01*
X180375182Y-118722068D01*
X180314859Y-118881129D01*
X180294355Y-119049996D01*
X180294355Y-119050003D01*
X180314859Y-119218870D01*
X180375182Y-119377931D01*
X180471814Y-119517926D01*
X180471816Y-119517928D01*
X180471817Y-119517929D01*
X180599148Y-119630734D01*
X180749775Y-119709790D01*
X180749777Y-119709791D01*
X180914937Y-119750499D01*
X180914942Y-119750499D01*
X180914944Y-119750500D01*
X180914946Y-119750500D01*
X181085054Y-119750500D01*
X181085056Y-119750500D01*
X181085058Y-119750499D01*
X181085062Y-119750499D01*
X181250222Y-119709791D01*
X181250222Y-119709790D01*
X181250225Y-119709790D01*
X181400852Y-119630734D01*
X181528183Y-119517929D01*
X181624818Y-119377930D01*
X181625659Y-119375711D01*
X181626389Y-119374936D01*
X181626616Y-119374504D01*
X181626736Y-119374567D01*
X181659233Y-119340045D01*
X181708194Y-119338565D01*
X181743861Y-119372139D01*
X181749500Y-119398406D01*
X181749500Y-126285500D01*
X181730755Y-126330755D01*
X181685500Y-126349500D01*
X180294747Y-126349500D01*
X180218325Y-126369979D01*
X180218324Y-126369979D01*
X180149801Y-126409541D01*
X179109541Y-127449801D01*
X179069979Y-127518324D01*
X179069979Y-127518325D01*
X179049500Y-127594747D01*
X179049500Y-128955251D01*
X179064009Y-129009393D01*
X179069979Y-129031674D01*
X179091955Y-129069737D01*
X179109537Y-129100192D01*
X179109538Y-129100194D01*
X179109540Y-129100196D01*
X180043855Y-130034511D01*
X180099804Y-130090460D01*
X180168326Y-130130021D01*
X180225366Y-130145305D01*
X180244748Y-130150499D01*
X180244750Y-130150499D01*
X180244753Y-130150500D01*
X180323877Y-130150500D01*
X181099019Y-130150500D01*
X181144274Y-130169245D01*
X181746577Y-130771548D01*
X181765322Y-130816803D01*
X181765322Y-132615271D01*
X181765078Y-132620850D01*
X181740227Y-132904855D01*
X181739499Y-132910390D01*
X181690542Y-133188024D01*
X181689333Y-133193475D01*
X181616378Y-133465737D01*
X181614699Y-133471062D01*
X181548828Y-133652035D01*
X181533944Y-133675399D01*
X181492787Y-133716556D01*
X181453227Y-133785077D01*
X181453227Y-133785078D01*
X181432748Y-133861500D01*
X181432748Y-133905770D01*
X181426751Y-133932819D01*
X181397010Y-133996595D01*
X181394432Y-134001547D01*
X181253499Y-134245644D01*
X181250500Y-134250352D01*
X181088797Y-134481285D01*
X181085397Y-134485715D01*
X180969614Y-134623696D01*
X180965843Y-134627812D01*
X180623205Y-134970450D01*
X180619088Y-134974222D01*
X180481075Y-135090027D01*
X180476646Y-135093426D01*
X180245718Y-135255121D01*
X180241009Y-135258121D01*
X179996883Y-135399065D01*
X179991930Y-135401643D01*
X179736462Y-135520767D01*
X179731304Y-135522904D01*
X179466389Y-135619322D01*
X179461064Y-135621000D01*
X179188834Y-135693942D01*
X179183383Y-135695151D01*
X178905719Y-135744109D01*
X178900185Y-135744837D01*
X178867838Y-135747667D01*
X178849680Y-135749256D01*
X178844104Y-135749500D01*
X120800981Y-135749500D01*
X120755726Y-135730755D01*
X120719245Y-135694274D01*
X120700500Y-135649019D01*
X120700500Y-134813381D01*
X120694098Y-134789489D01*
X120694098Y-134789488D01*
X120680022Y-134736955D01*
X120640460Y-134668432D01*
X119522031Y-133550003D01*
X121194355Y-133550003D01*
X121214859Y-133718870D01*
X121275182Y-133877931D01*
X121371814Y-134017926D01*
X121371816Y-134017928D01*
X121371817Y-134017929D01*
X121499148Y-134130734D01*
X121627184Y-134197933D01*
X121649777Y-134209791D01*
X121814937Y-134250499D01*
X121814942Y-134250499D01*
X121814944Y-134250500D01*
X121814946Y-134250500D01*
X121985054Y-134250500D01*
X121985056Y-134250500D01*
X121985058Y-134250499D01*
X121985062Y-134250499D01*
X122150222Y-134209791D01*
X122150222Y-134209790D01*
X122150225Y-134209790D01*
X122300852Y-134130734D01*
X122428183Y-134017929D01*
X122524818Y-133877930D01*
X122585140Y-133718872D01*
X122595158Y-133636370D01*
X122605645Y-133550003D01*
X125294354Y-133550003D01*
X125314858Y-133718870D01*
X125375181Y-133877931D01*
X125471813Y-134017926D01*
X125471815Y-134017928D01*
X125471816Y-134017929D01*
X125599147Y-134130734D01*
X125727183Y-134197933D01*
X125749776Y-134209791D01*
X125914936Y-134250499D01*
X125914941Y-134250499D01*
X125914943Y-134250500D01*
X125914945Y-134250500D01*
X126085053Y-134250500D01*
X126085055Y-134250500D01*
X126085057Y-134250499D01*
X126085061Y-134250499D01*
X126250221Y-134209791D01*
X126250221Y-134209790D01*
X126250224Y-134209790D01*
X126400851Y-134130734D01*
X126528182Y-134017929D01*
X126624817Y-133877930D01*
X126685139Y-133718872D01*
X126695157Y-133636370D01*
X126705644Y-133550003D01*
X126705644Y-133549996D01*
X126702609Y-133525004D01*
X129244355Y-133525004D01*
X129264859Y-133693871D01*
X129325182Y-133852932D01*
X129421814Y-133992927D01*
X129421816Y-133992929D01*
X129421817Y-133992930D01*
X129549148Y-134105735D01*
X129681699Y-134175304D01*
X129699777Y-134184792D01*
X129864937Y-134225500D01*
X129864942Y-134225500D01*
X129864944Y-134225501D01*
X129864946Y-134225501D01*
X130035054Y-134225501D01*
X130035056Y-134225501D01*
X130035058Y-134225500D01*
X130035062Y-134225500D01*
X130200222Y-134184792D01*
X130200222Y-134184791D01*
X130200225Y-134184791D01*
X130350852Y-134105735D01*
X130478183Y-133992930D01*
X130574818Y-133852931D01*
X130635140Y-133693873D01*
X130645653Y-133607293D01*
X130655645Y-133525004D01*
X130655645Y-133524997D01*
X130635140Y-133356130D01*
X130624445Y-133327930D01*
X130574818Y-133197071D01*
X130572336Y-133193475D01*
X130478185Y-133057074D01*
X130478183Y-133057072D01*
X130454014Y-133035660D01*
X130350852Y-132944267D01*
X130200222Y-132865209D01*
X130035062Y-132824501D01*
X130035056Y-132824501D01*
X129864944Y-132824501D01*
X129864937Y-132824501D01*
X129699777Y-132865209D01*
X129549148Y-132944267D01*
X129421816Y-133057072D01*
X129421814Y-133057074D01*
X129325182Y-133197069D01*
X129264859Y-133356130D01*
X129244355Y-133524997D01*
X129244355Y-133525004D01*
X126702609Y-133525004D01*
X126687883Y-133403724D01*
X126685139Y-133381128D01*
X126624817Y-133222070D01*
X126624816Y-133222068D01*
X126528184Y-133082073D01*
X126528182Y-133082071D01*
X126513419Y-133068992D01*
X126400851Y-132969266D01*
X126250221Y-132890208D01*
X126085061Y-132849500D01*
X126085055Y-132849500D01*
X125914943Y-132849500D01*
X125914936Y-132849500D01*
X125749776Y-132890208D01*
X125599147Y-132969266D01*
X125471815Y-133082071D01*
X125471813Y-133082073D01*
X125375181Y-133222068D01*
X125314858Y-133381129D01*
X125294354Y-133549996D01*
X125294354Y-133550003D01*
X122605645Y-133550003D01*
X122605645Y-133549996D01*
X122587884Y-133403724D01*
X122585140Y-133381128D01*
X122524818Y-133222070D01*
X122524817Y-133222068D01*
X122428185Y-133082073D01*
X122428183Y-133082071D01*
X122413420Y-133068992D01*
X122300852Y-132969266D01*
X122150222Y-132890208D01*
X121985062Y-132849500D01*
X121985056Y-132849500D01*
X121814944Y-132849500D01*
X121814937Y-132849500D01*
X121649777Y-132890208D01*
X121499148Y-132969266D01*
X121371816Y-133082071D01*
X121371814Y-133082073D01*
X121275182Y-133222068D01*
X121214859Y-133381129D01*
X121194355Y-133549996D01*
X121194355Y-133550003D01*
X119522031Y-133550003D01*
X117172031Y-131200003D01*
X121294355Y-131200003D01*
X121314859Y-131368870D01*
X121375182Y-131527931D01*
X121471814Y-131667926D01*
X121471816Y-131667928D01*
X121471817Y-131667929D01*
X121599148Y-131780734D01*
X121716588Y-131842372D01*
X121749777Y-131859791D01*
X121914937Y-131900499D01*
X121914942Y-131900499D01*
X121914944Y-131900500D01*
X121914946Y-131900500D01*
X122085054Y-131900500D01*
X122085056Y-131900500D01*
X122085058Y-131900499D01*
X122085062Y-131900499D01*
X122250222Y-131859791D01*
X122250222Y-131859790D01*
X122250225Y-131859790D01*
X122400852Y-131780734D01*
X122528183Y-131667929D01*
X122624818Y-131527930D01*
X122685140Y-131368872D01*
X122705645Y-131200003D01*
X125294355Y-131200003D01*
X125314859Y-131368870D01*
X125375182Y-131527931D01*
X125471814Y-131667926D01*
X125471816Y-131667928D01*
X125471817Y-131667929D01*
X125599148Y-131780734D01*
X125716588Y-131842372D01*
X125749777Y-131859791D01*
X125914937Y-131900499D01*
X125914942Y-131900499D01*
X125914944Y-131900500D01*
X125914946Y-131900500D01*
X126085054Y-131900500D01*
X126085056Y-131900500D01*
X126085058Y-131900499D01*
X126085062Y-131900499D01*
X126250222Y-131859791D01*
X126250222Y-131859790D01*
X126250225Y-131859790D01*
X126400852Y-131780734D01*
X126528183Y-131667929D01*
X126624818Y-131527930D01*
X126685140Y-131368872D01*
X126705645Y-131200000D01*
X126702965Y-131177931D01*
X126693503Y-131100003D01*
X129294355Y-131100003D01*
X129314859Y-131268870D01*
X129375182Y-131427931D01*
X129471814Y-131567926D01*
X129471816Y-131567928D01*
X129471817Y-131567929D01*
X129599148Y-131680734D01*
X129738282Y-131753758D01*
X129749777Y-131759791D01*
X129914937Y-131800499D01*
X129914942Y-131800499D01*
X129914944Y-131800500D01*
X129914946Y-131800500D01*
X130085054Y-131800500D01*
X130085056Y-131800500D01*
X130085058Y-131800499D01*
X130085062Y-131800499D01*
X130250222Y-131759791D01*
X130250222Y-131759790D01*
X130250225Y-131759790D01*
X130400852Y-131680734D01*
X130528183Y-131567929D01*
X130624818Y-131427930D01*
X130685140Y-131268872D01*
X130691373Y-131217541D01*
X169117270Y-131217541D01*
X169137593Y-131566472D01*
X169198285Y-131910671D01*
X169198290Y-131910691D01*
X169291447Y-132221856D01*
X169298529Y-132245512D01*
X169390960Y-132459790D01*
X169436966Y-132566445D01*
X169610434Y-132866902D01*
X169611725Y-132869137D01*
X169820443Y-133149494D01*
X170051174Y-133394054D01*
X170060301Y-133403728D01*
X170328036Y-133628384D01*
X170328039Y-133628386D01*
X170328044Y-133628390D01*
X170620062Y-133820454D01*
X170932404Y-133977318D01*
X171260844Y-134096860D01*
X171600941Y-134177464D01*
X171948096Y-134218041D01*
X171948098Y-134218041D01*
X172297612Y-134218041D01*
X172297614Y-134218041D01*
X172644769Y-134177464D01*
X172984866Y-134096860D01*
X173313306Y-133977318D01*
X173625648Y-133820454D01*
X173917666Y-133628390D01*
X174185413Y-133403724D01*
X174425267Y-133149494D01*
X174633985Y-132869137D01*
X174808744Y-132566445D01*
X174947181Y-132245512D01*
X175047424Y-131910677D01*
X175108117Y-131566468D01*
X175128440Y-131217541D01*
X175108117Y-130868614D01*
X175047424Y-130524405D01*
X174947181Y-130189570D01*
X174808744Y-129868637D01*
X174633985Y-129565945D01*
X174425267Y-129285588D01*
X174185413Y-129031358D01*
X174185411Y-129031356D01*
X174185408Y-129031353D01*
X173917673Y-128806697D01*
X173917668Y-128806694D01*
X173917666Y-128806692D01*
X173625648Y-128614628D01*
X173313306Y-128457764D01*
X173313301Y-128457762D01*
X172984870Y-128338223D01*
X172984866Y-128338222D01*
X172644769Y-128257618D01*
X172644765Y-128257617D01*
X172644763Y-128257617D01*
X172450022Y-128234855D01*
X172297614Y-128217041D01*
X171948096Y-128217041D01*
X171823121Y-128231648D01*
X171600946Y-128257617D01*
X171600942Y-128257617D01*
X171600941Y-128257618D01*
X171514575Y-128278087D01*
X171260839Y-128338223D01*
X170932408Y-128457762D01*
X170620062Y-128614628D01*
X170328044Y-128806692D01*
X170328036Y-128806697D01*
X170060301Y-129031353D01*
X169820440Y-129285591D01*
X169611723Y-129565947D01*
X169436966Y-129868636D01*
X169382752Y-129994319D01*
X169302093Y-130181309D01*
X169298530Y-130189568D01*
X169298525Y-130189582D01*
X169198290Y-130524390D01*
X169198285Y-130524410D01*
X169137593Y-130868609D01*
X169117270Y-131217541D01*
X130691373Y-131217541D01*
X130696182Y-131177931D01*
X130705645Y-131100003D01*
X130705645Y-131099996D01*
X130685140Y-130931129D01*
X130673334Y-130900000D01*
X130624818Y-130772070D01*
X130597210Y-130732073D01*
X130528185Y-130632073D01*
X130528183Y-130632071D01*
X130491980Y-130599998D01*
X130400852Y-130519266D01*
X130250222Y-130440208D01*
X130085062Y-130399500D01*
X130085056Y-130399500D01*
X129914944Y-130399500D01*
X129914937Y-130399500D01*
X129749777Y-130440208D01*
X129599148Y-130519266D01*
X129471816Y-130632071D01*
X129471814Y-130632073D01*
X129375182Y-130772068D01*
X129314859Y-130931129D01*
X129294355Y-131099996D01*
X129294355Y-131100003D01*
X126693503Y-131100003D01*
X126685140Y-131031129D01*
X126624817Y-130872068D01*
X126528185Y-130732073D01*
X126528183Y-130732071D01*
X126510795Y-130716667D01*
X126400852Y-130619266D01*
X126250222Y-130540208D01*
X126085062Y-130499500D01*
X126085056Y-130499500D01*
X125914944Y-130499500D01*
X125914937Y-130499500D01*
X125749777Y-130540208D01*
X125599148Y-130619266D01*
X125471816Y-130732071D01*
X125471814Y-130732073D01*
X125375182Y-130872068D01*
X125314859Y-131031129D01*
X125294355Y-131199996D01*
X125294355Y-131200003D01*
X122705645Y-131200003D01*
X122705645Y-131200000D01*
X122702965Y-131177931D01*
X122685140Y-131031129D01*
X122624817Y-130872068D01*
X122528185Y-130732073D01*
X122528183Y-130732071D01*
X122510795Y-130716667D01*
X122400852Y-130619266D01*
X122250222Y-130540208D01*
X122085062Y-130499500D01*
X122085056Y-130499500D01*
X121914944Y-130499500D01*
X121914937Y-130499500D01*
X121749777Y-130540208D01*
X121599148Y-130619266D01*
X121471816Y-130732071D01*
X121471814Y-130732073D01*
X121375182Y-130872068D01*
X121314859Y-131031129D01*
X121294355Y-131199996D01*
X121294355Y-131200003D01*
X117172031Y-131200003D01*
X116868995Y-130896967D01*
X116850717Y-130859426D01*
X116835140Y-130731128D01*
X116774818Y-130572070D01*
X116774817Y-130572068D01*
X116678185Y-130432073D01*
X116678183Y-130432071D01*
X116641418Y-130399500D01*
X116550852Y-130319266D01*
X116400222Y-130240208D01*
X116235062Y-130199500D01*
X116235056Y-130199500D01*
X116064944Y-130199500D01*
X116064937Y-130199500D01*
X115899777Y-130240208D01*
X115749148Y-130319266D01*
X115621816Y-130432071D01*
X115621814Y-130432073D01*
X115525182Y-130572068D01*
X115464859Y-130731129D01*
X115444355Y-130899996D01*
X115444355Y-130900003D01*
X115464859Y-131068870D01*
X115525182Y-131227931D01*
X115621814Y-131367926D01*
X115621816Y-131367928D01*
X115621817Y-131367929D01*
X115749148Y-131480734D01*
X115882073Y-131550499D01*
X115899777Y-131559791D01*
X116064937Y-131600499D01*
X116064942Y-131600499D01*
X116064944Y-131600500D01*
X116064946Y-131600500D01*
X116235054Y-131600500D01*
X116235056Y-131600500D01*
X116235058Y-131600499D01*
X116235062Y-131600499D01*
X116400222Y-131559791D01*
X116400222Y-131559790D01*
X116400225Y-131559790D01*
X116543234Y-131484731D01*
X116592017Y-131480299D01*
X116618232Y-131496146D01*
X117262331Y-132140245D01*
X117281076Y-132185500D01*
X117262331Y-132230755D01*
X117217076Y-132249500D01*
X115877341Y-132249500D01*
X115832086Y-132230755D01*
X115824670Y-132221856D01*
X115728185Y-132082073D01*
X115728183Y-132082071D01*
X115600852Y-131969266D01*
X115450222Y-131890208D01*
X115285062Y-131849500D01*
X115285056Y-131849500D01*
X115114944Y-131849500D01*
X115114937Y-131849500D01*
X114949777Y-131890208D01*
X114799148Y-131969266D01*
X114671816Y-132082071D01*
X114671814Y-132082073D01*
X114575182Y-132222068D01*
X114514859Y-132381129D01*
X114494355Y-132549996D01*
X114494355Y-132550003D01*
X109700500Y-132550003D01*
X109700500Y-131846241D01*
X109700967Y-131838526D01*
X109705645Y-131800001D01*
X109705645Y-131799998D01*
X109700967Y-131761473D01*
X109700500Y-131753758D01*
X109700500Y-130850003D01*
X113694355Y-130850003D01*
X113714859Y-131018870D01*
X113775182Y-131177931D01*
X113871814Y-131317926D01*
X113871816Y-131317928D01*
X113871817Y-131317929D01*
X113999148Y-131430734D01*
X114123779Y-131496146D01*
X114149777Y-131509791D01*
X114314937Y-131550499D01*
X114314942Y-131550499D01*
X114314944Y-131550500D01*
X114314946Y-131550500D01*
X114485054Y-131550500D01*
X114485056Y-131550500D01*
X114485058Y-131550499D01*
X114485062Y-131550499D01*
X114650222Y-131509791D01*
X114650222Y-131509790D01*
X114650225Y-131509790D01*
X114800852Y-131430734D01*
X114928183Y-131317929D01*
X115024818Y-131177930D01*
X115085140Y-131018872D01*
X115095794Y-130931128D01*
X115105645Y-130850003D01*
X115105645Y-130849996D01*
X115085140Y-130681129D01*
X115054372Y-130600000D01*
X115024818Y-130522070D01*
X114968314Y-130440210D01*
X114928185Y-130382073D01*
X114928183Y-130382071D01*
X114865185Y-130326260D01*
X114800852Y-130269266D01*
X114650222Y-130190208D01*
X114485062Y-130149500D01*
X114485056Y-130149500D01*
X114314944Y-130149500D01*
X114314937Y-130149500D01*
X114149777Y-130190208D01*
X113999148Y-130269266D01*
X113871816Y-130382071D01*
X113871814Y-130382073D01*
X113775182Y-130522068D01*
X113714859Y-130681129D01*
X113694355Y-130849996D01*
X113694355Y-130850003D01*
X109700500Y-130850003D01*
X109700500Y-130646241D01*
X109700967Y-130638526D01*
X109705645Y-130600001D01*
X109705645Y-130599998D01*
X109700967Y-130561473D01*
X109700500Y-130553758D01*
X109700500Y-130331004D01*
X109673580Y-130195673D01*
X109673579Y-130195668D01*
X109650226Y-130139292D01*
X109620775Y-130068189D01*
X109571416Y-129994318D01*
X109544114Y-129953457D01*
X105791935Y-126201278D01*
X105773190Y-126156023D01*
X105791935Y-126110768D01*
X105837190Y-126092023D01*
X105859072Y-126095880D01*
X105995879Y-126145665D01*
X106078732Y-126160267D01*
X106179603Y-126178047D01*
X106179608Y-126178047D01*
X106179618Y-126178049D01*
X106272904Y-126178041D01*
X146202751Y-126178041D01*
X146202857Y-126178047D01*
X146207007Y-126178046D01*
X146207013Y-126178048D01*
X146272901Y-126178041D01*
X146272907Y-126178041D01*
X146343242Y-126178041D01*
X146343336Y-126178033D01*
X146366178Y-126178032D01*
X146549886Y-126145625D01*
X146725176Y-126081813D01*
X146886726Y-125988536D01*
X147029626Y-125868626D01*
X147149536Y-125725726D01*
X147242813Y-125564176D01*
X147306625Y-125388886D01*
X147339032Y-125205178D01*
X147339033Y-125182241D01*
X147339040Y-125182161D01*
X147339040Y-125150000D01*
X173094671Y-125150000D01*
X173113965Y-125444373D01*
X173113967Y-125444390D01*
X173171516Y-125733714D01*
X173171519Y-125733726D01*
X173266344Y-126013067D01*
X173266351Y-126013084D01*
X173396827Y-126277664D01*
X173560718Y-126522944D01*
X173560727Y-126522957D01*
X173755242Y-126744758D01*
X173977043Y-126939273D01*
X174222335Y-127103172D01*
X174486923Y-127233652D01*
X174486932Y-127233655D01*
X174766273Y-127328480D01*
X174766285Y-127328483D01*
X175055609Y-127386032D01*
X175055611Y-127386032D01*
X175055620Y-127386034D01*
X175350000Y-127405329D01*
X175644380Y-127386034D01*
X175651905Y-127384537D01*
X175933714Y-127328483D01*
X175933726Y-127328480D01*
X176117819Y-127265988D01*
X176213077Y-127233652D01*
X176477665Y-127103172D01*
X176722957Y-126939273D01*
X176944758Y-126744758D01*
X177139273Y-126522957D01*
X177303172Y-126277665D01*
X177433652Y-126013077D01*
X177528481Y-125733722D01*
X177530072Y-125725726D01*
X177586032Y-125444390D01*
X177586031Y-125444390D01*
X177586034Y-125444380D01*
X177605329Y-125150000D01*
X177586034Y-124855620D01*
X177586032Y-124855609D01*
X177528483Y-124566285D01*
X177528480Y-124566273D01*
X177433655Y-124286930D01*
X177433654Y-124286929D01*
X177433652Y-124286923D01*
X177303172Y-124022336D01*
X177139273Y-123777043D01*
X176944758Y-123555242D01*
X176722957Y-123360727D01*
X176477665Y-123196828D01*
X176477666Y-123196828D01*
X176477664Y-123196827D01*
X176213084Y-123066351D01*
X176213067Y-123066344D01*
X175933726Y-122971519D01*
X175933714Y-122971516D01*
X175644390Y-122913967D01*
X175644373Y-122913965D01*
X175350000Y-122894671D01*
X175055626Y-122913965D01*
X175055609Y-122913967D01*
X174766285Y-122971516D01*
X174766273Y-122971519D01*
X174486930Y-123066344D01*
X174486929Y-123066345D01*
X174222336Y-123196827D01*
X173977055Y-123360718D01*
X173977040Y-123360729D01*
X173755244Y-123555240D01*
X173755240Y-123555244D01*
X173560729Y-123777040D01*
X173560718Y-123777055D01*
X173396827Y-124022336D01*
X173266345Y-124286929D01*
X173266344Y-124286930D01*
X173171519Y-124566273D01*
X173171516Y-124566285D01*
X173113967Y-124855609D01*
X173113965Y-124855626D01*
X173094671Y-125150000D01*
X147339040Y-125150000D01*
X147339040Y-125111807D01*
X147339040Y-125111801D01*
X147339047Y-125046013D01*
X147339045Y-125046007D01*
X147339046Y-125042009D01*
X147339040Y-125041899D01*
X147339040Y-121204091D01*
X147339043Y-121204083D01*
X147339044Y-121177577D01*
X147339049Y-121084293D01*
X147306662Y-120900557D01*
X147271152Y-120802982D01*
X147242860Y-120725238D01*
X147242857Y-120725233D01*
X147149579Y-120563664D01*
X147149578Y-120563662D01*
X147029655Y-120420741D01*
X147029651Y-120420737D01*
X146886740Y-120300823D01*
X146886739Y-120300822D01*
X146886734Y-120300818D01*
X146725158Y-120207539D01*
X146725156Y-120207538D01*
X146725154Y-120207537D01*
X146549839Y-120143736D01*
X146366108Y-120111351D01*
X146366105Y-120111350D01*
X146366101Y-120111350D01*
X146366094Y-120111350D01*
X146272914Y-120111355D01*
X135979860Y-120111355D01*
X135979753Y-120111348D01*
X135975599Y-120111348D01*
X135975598Y-120111348D01*
X135929961Y-120111352D01*
X135918132Y-120111354D01*
X135901561Y-120109173D01*
X135894004Y-120107148D01*
X135855143Y-120077328D01*
X135848750Y-120061894D01*
X135846750Y-120054429D01*
X135844570Y-120037865D01*
X135844570Y-120037590D01*
X135844574Y-119980304D01*
X135844572Y-119980299D01*
X135844573Y-119977868D01*
X135844358Y-119974661D01*
X135844232Y-119932457D01*
X135839016Y-118182185D01*
X135839026Y-118097647D01*
X135806647Y-117913908D01*
X135742850Y-117738585D01*
X135649575Y-117577005D01*
X135649571Y-117577000D01*
X135649570Y-117576998D01*
X135529657Y-117434082D01*
X135527260Y-117432071D01*
X135386735Y-117314154D01*
X135386734Y-117314153D01*
X135386730Y-117314150D01*
X135225170Y-117220876D01*
X135225160Y-117220870D01*
X135189847Y-117208018D01*
X135049840Y-117157066D01*
X134866108Y-117124679D01*
X134866107Y-117124678D01*
X134866102Y-117124678D01*
X134866096Y-117124678D01*
X134772817Y-117124684D01*
X130468762Y-117124684D01*
X130468563Y-117124671D01*
X130425191Y-117124679D01*
X130425014Y-117124606D01*
X130305335Y-117124626D01*
X130305326Y-117124627D01*
X130158362Y-117150565D01*
X130121621Y-117157050D01*
X130056518Y-117180755D01*
X129946335Y-117220874D01*
X129946329Y-117220877D01*
X129784784Y-117314167D01*
X129641892Y-117434086D01*
X129641890Y-117434088D01*
X129521986Y-117577001D01*
X129428713Y-117738564D01*
X129364913Y-117913853D01*
X129332514Y-118097565D01*
X129332513Y-118120862D01*
X129332310Y-118124048D01*
X129332317Y-118126469D01*
X129332317Y-118126470D01*
X129332341Y-118134408D01*
X129332510Y-118191551D01*
X129332510Y-118191743D01*
X129332507Y-118259158D01*
X129332721Y-118262363D01*
X129338012Y-120037590D01*
X129335830Y-120054352D01*
X129333815Y-120061869D01*
X129303991Y-120100727D01*
X129288567Y-120107115D01*
X129280886Y-120109174D01*
X129264319Y-120111356D01*
X121633698Y-120111356D01*
X121588443Y-120092611D01*
X121569698Y-120047356D01*
X121588443Y-120002101D01*
X121598142Y-119994142D01*
X121635970Y-119968865D01*
X121690460Y-119932457D01*
X123788031Y-117834886D01*
X123864692Y-117720154D01*
X123917497Y-117592671D01*
X123921595Y-117572070D01*
X123944417Y-117457336D01*
X123944417Y-114434584D01*
X123944884Y-114426869D01*
X123949562Y-114388344D01*
X123949562Y-114388341D01*
X123944884Y-114349816D01*
X123944417Y-114342101D01*
X123944417Y-113777843D01*
X123963162Y-113732588D01*
X124008417Y-113713843D01*
X145727006Y-113713843D01*
X145772261Y-113732588D01*
X148175138Y-116135465D01*
X148249361Y-116178318D01*
X148249363Y-116178318D01*
X148249364Y-116178319D01*
X148332146Y-116200500D01*
X148332147Y-116200500D01*
X151934196Y-116200500D01*
X151979451Y-116219245D01*
X151998196Y-116264500D01*
X151997729Y-116272216D01*
X151994355Y-116299998D01*
X151994355Y-116300003D01*
X152014859Y-116468870D01*
X152075182Y-116627931D01*
X152171814Y-116767926D01*
X152171816Y-116767928D01*
X152171817Y-116767929D01*
X152299148Y-116880734D01*
X152432075Y-116950500D01*
X152449777Y-116959791D01*
X152614937Y-117000499D01*
X152614942Y-117000499D01*
X152614944Y-117000500D01*
X152614946Y-117000500D01*
X152785054Y-117000500D01*
X152785056Y-117000500D01*
X152785058Y-117000499D01*
X152785062Y-117000499D01*
X152950222Y-116959791D01*
X152950222Y-116959790D01*
X152950225Y-116959790D01*
X153100852Y-116880734D01*
X153228183Y-116767929D01*
X153324818Y-116627930D01*
X153385140Y-116468872D01*
X153402965Y-116322070D01*
X153405645Y-116300003D01*
X155144355Y-116300003D01*
X155164859Y-116468870D01*
X155225182Y-116627931D01*
X155321814Y-116767926D01*
X155321816Y-116767928D01*
X155321817Y-116767929D01*
X155449148Y-116880734D01*
X155582075Y-116950500D01*
X155599777Y-116959791D01*
X155764937Y-117000499D01*
X155764942Y-117000499D01*
X155764944Y-117000500D01*
X155764946Y-117000500D01*
X155935054Y-117000500D01*
X155935056Y-117000500D01*
X156052817Y-116971474D01*
X156101242Y-116978844D01*
X156113388Y-116988359D01*
X156557672Y-117432643D01*
X156576417Y-117477898D01*
X156565089Y-117514253D01*
X156525182Y-117572069D01*
X156464859Y-117731129D01*
X156444355Y-117899996D01*
X156444355Y-117900003D01*
X156464859Y-118068870D01*
X156525182Y-118227931D01*
X156621814Y-118367926D01*
X156621816Y-118367928D01*
X156621817Y-118367929D01*
X156749148Y-118480734D01*
X156804033Y-118509540D01*
X156899777Y-118559791D01*
X157064937Y-118600499D01*
X157064942Y-118600499D01*
X157064944Y-118600500D01*
X157064946Y-118600500D01*
X157235054Y-118600500D01*
X157235056Y-118600500D01*
X157235058Y-118600499D01*
X157235062Y-118600499D01*
X157400222Y-118559791D01*
X157400222Y-118559790D01*
X157400225Y-118559790D01*
X157550852Y-118480734D01*
X157678183Y-118367929D01*
X157774818Y-118227930D01*
X157835140Y-118068872D01*
X157843342Y-118001323D01*
X157855645Y-117900003D01*
X157855645Y-117899996D01*
X157835140Y-117731129D01*
X157782629Y-117592668D01*
X157774818Y-117572070D01*
X157734910Y-117514253D01*
X157678185Y-117432073D01*
X157678183Y-117432071D01*
X157550852Y-117319266D01*
X157400222Y-117240208D01*
X157235062Y-117199500D01*
X157235056Y-117199500D01*
X157200981Y-117199500D01*
X157155726Y-117180755D01*
X156539295Y-116564324D01*
X156520550Y-116519069D01*
X156524710Y-116496373D01*
X156535139Y-116468875D01*
X156535141Y-116468867D01*
X156555645Y-116300003D01*
X156555645Y-116299996D01*
X156535140Y-116131129D01*
X156481697Y-115990210D01*
X156474818Y-115972070D01*
X156459239Y-115949500D01*
X156378185Y-115832073D01*
X156378183Y-115832071D01*
X156250852Y-115719266D01*
X156100222Y-115640208D01*
X155935062Y-115599500D01*
X155935056Y-115599500D01*
X155764944Y-115599500D01*
X155764937Y-115599500D01*
X155599777Y-115640208D01*
X155449148Y-115719266D01*
X155321816Y-115832071D01*
X155321814Y-115832073D01*
X155225182Y-115972068D01*
X155164859Y-116131129D01*
X155144355Y-116299996D01*
X155144355Y-116300003D01*
X153405645Y-116300003D01*
X153405645Y-116299996D01*
X153385140Y-116131129D01*
X153331697Y-115990210D01*
X153324818Y-115972070D01*
X153309239Y-115949500D01*
X153228185Y-115832073D01*
X153228183Y-115832071D01*
X153100852Y-115719266D01*
X152950222Y-115640208D01*
X152785062Y-115599500D01*
X152785056Y-115599500D01*
X152614944Y-115599500D01*
X152614942Y-115599500D01*
X152614937Y-115599501D01*
X152523530Y-115622030D01*
X152476214Y-115615316D01*
X152474862Y-115614535D01*
X152400639Y-115571682D01*
X152400637Y-115571681D01*
X152400635Y-115571680D01*
X152317854Y-115549500D01*
X152317853Y-115549500D01*
X148536337Y-115549500D01*
X148491082Y-115530755D01*
X146088206Y-113127879D01*
X146088205Y-113127878D01*
X146013982Y-113085025D01*
X146013980Y-113085024D01*
X146013978Y-113085023D01*
X145931197Y-113062843D01*
X145931196Y-113062843D01*
X124008417Y-113062843D01*
X123963162Y-113044098D01*
X123944417Y-112998843D01*
X123944417Y-112777843D01*
X123963162Y-112732588D01*
X124008417Y-112713843D01*
X178054511Y-112713843D01*
X178091012Y-112704062D01*
X178137296Y-112691661D01*
X178211519Y-112648808D01*
X178810465Y-112049862D01*
X178853318Y-111975639D01*
X178868115Y-111920414D01*
X178875500Y-111892854D01*
X178875500Y-94811337D01*
X178894245Y-94766082D01*
X179371057Y-94289270D01*
X180060465Y-93599862D01*
X180103318Y-93525639D01*
X180125500Y-93442853D01*
X180125500Y-93357147D01*
X180125500Y-84998018D01*
X180125501Y-84998005D01*
X180125501Y-84907150D01*
X180125500Y-84907143D01*
X180119874Y-84886149D01*
X180103318Y-84824362D01*
X180100147Y-84818870D01*
X180087440Y-84796859D01*
X180087440Y-84796858D01*
X180060467Y-84750140D01*
X179997632Y-84687305D01*
X179997621Y-84687295D01*
X177539171Y-82228844D01*
X179999500Y-82228844D01*
X180030262Y-82383495D01*
X180030263Y-82383501D01*
X180082897Y-82510568D01*
X180090606Y-82529179D01*
X180090607Y-82529181D01*
X180090609Y-82529184D01*
X180141739Y-82605706D01*
X180151295Y-82628775D01*
X180161133Y-82678231D01*
X180161133Y-82678232D01*
X180183290Y-82711391D01*
X180205448Y-82744552D01*
X180271769Y-82788867D01*
X180321223Y-82798704D01*
X180344293Y-82808260D01*
X180388000Y-82837464D01*
X180420821Y-82859394D01*
X180484356Y-82885711D01*
X180566498Y-82919736D01*
X180566502Y-82919736D01*
X180566503Y-82919737D01*
X180605166Y-82927427D01*
X180721155Y-82950500D01*
X180721158Y-82950500D01*
X181978845Y-82950500D01*
X182071635Y-82932042D01*
X182133497Y-82919737D01*
X182133498Y-82919736D01*
X182133501Y-82919736D01*
X182183875Y-82898869D01*
X182279179Y-82859394D01*
X182355708Y-82808258D01*
X182378774Y-82798704D01*
X182428231Y-82788867D01*
X182494552Y-82744552D01*
X182538867Y-82678231D01*
X182548704Y-82628774D01*
X182558260Y-82605706D01*
X182609394Y-82529179D01*
X182648869Y-82433875D01*
X182669736Y-82383501D01*
X182669737Y-82383495D01*
X182680699Y-82328390D01*
X182700500Y-82228842D01*
X182700500Y-82071158D01*
X182700500Y-82071155D01*
X182669737Y-81916504D01*
X182669736Y-81916498D01*
X182635711Y-81834356D01*
X182609394Y-81770821D01*
X182558259Y-81694292D01*
X182548704Y-81671223D01*
X182538867Y-81621769D01*
X182494552Y-81555448D01*
X182428231Y-81511133D01*
X182378775Y-81501295D01*
X182355706Y-81491739D01*
X182279184Y-81440609D01*
X182279181Y-81440607D01*
X182279179Y-81440606D01*
X182260568Y-81432897D01*
X182133501Y-81380263D01*
X182133495Y-81380262D01*
X181978845Y-81349500D01*
X181978842Y-81349500D01*
X180721158Y-81349500D01*
X180721155Y-81349500D01*
X180566504Y-81380262D01*
X180566498Y-81380263D01*
X180420823Y-81440605D01*
X180420814Y-81440609D01*
X180344293Y-81491739D01*
X180321224Y-81501295D01*
X180271768Y-81511133D01*
X180271767Y-81511133D01*
X180205448Y-81555448D01*
X180161133Y-81621767D01*
X180161133Y-81621768D01*
X180151295Y-81671224D01*
X180141739Y-81694293D01*
X180090609Y-81770814D01*
X180090605Y-81770823D01*
X180030263Y-81916498D01*
X180030262Y-81916504D01*
X179999500Y-82071155D01*
X179999500Y-82228844D01*
X177539171Y-82228844D01*
X176849017Y-81538690D01*
X176830272Y-81493435D01*
X176834432Y-81470738D01*
X176835140Y-81468872D01*
X176838573Y-81440606D01*
X176855645Y-81300003D01*
X176855645Y-81299996D01*
X176835140Y-81131129D01*
X176774817Y-80972068D01*
X176678185Y-80832073D01*
X176678183Y-80832071D01*
X176550852Y-80719266D01*
X176400222Y-80640208D01*
X176235062Y-80599500D01*
X176235056Y-80599500D01*
X176064944Y-80599500D01*
X176064937Y-80599500D01*
X175899777Y-80640208D01*
X175749148Y-80719266D01*
X175621816Y-80832071D01*
X175621814Y-80832073D01*
X175525182Y-80972068D01*
X175464859Y-81131129D01*
X175444355Y-81299996D01*
X175444355Y-81300003D01*
X175464859Y-81468870D01*
X175525182Y-81627931D01*
X175621814Y-81767926D01*
X175621816Y-81767928D01*
X175621817Y-81767929D01*
X175749148Y-81880734D01*
X175899775Y-81959790D01*
X175899777Y-81959791D01*
X176064937Y-82000499D01*
X176064942Y-82000499D01*
X176064944Y-82000500D01*
X176064946Y-82000500D01*
X176235055Y-82000500D01*
X176235056Y-82000500D01*
X176324453Y-81978465D01*
X176372877Y-81985834D01*
X176385023Y-81995350D01*
X179455755Y-85066081D01*
X179474500Y-85111336D01*
X179474500Y-93238663D01*
X179455755Y-93283918D01*
X178289536Y-94450136D01*
X178246682Y-94524361D01*
X178244501Y-94532502D01*
X178224500Y-94607145D01*
X178224500Y-111688663D01*
X178205755Y-111733918D01*
X177895575Y-112044098D01*
X177850320Y-112062843D01*
X123904002Y-112062843D01*
X123858747Y-112044098D01*
X123851332Y-112035200D01*
X123823666Y-111995120D01*
X123823122Y-111994319D01*
X123812781Y-111978842D01*
X123788031Y-111941801D01*
X123788029Y-111941799D01*
X123786035Y-111939368D01*
X123786049Y-111939355D01*
X123780953Y-111933240D01*
X123772099Y-111920413D01*
X123725720Y-111879325D01*
X123722905Y-111876675D01*
X123690460Y-111844230D01*
X123684444Y-111840210D01*
X123676356Y-111834805D01*
X123669480Y-111829500D01*
X123644773Y-111807612D01*
X123644771Y-111807610D01*
X123644769Y-111807609D01*
X123610165Y-111789447D01*
X123605269Y-111786877D01*
X123599456Y-111783422D01*
X123575728Y-111767567D01*
X123544009Y-111754429D01*
X123538766Y-111751973D01*
X123507478Y-111735552D01*
X123494139Y-111728551D01*
X123467716Y-111722039D01*
X123458543Y-111719028D01*
X123448245Y-111714763D01*
X123448240Y-111714761D01*
X123397572Y-111704683D01*
X123394742Y-111704053D01*
X123328979Y-111687843D01*
X123328973Y-111687843D01*
X123158861Y-111687843D01*
X123158859Y-111687843D01*
X123158854Y-111687844D01*
X123093090Y-111704053D01*
X123090260Y-111704683D01*
X123039591Y-111714762D01*
X123039589Y-111714762D01*
X123029282Y-111719031D01*
X123020113Y-111722040D01*
X122993696Y-111728551D01*
X122949062Y-111751975D01*
X122943816Y-111754431D01*
X122912108Y-111767566D01*
X122888372Y-111783425D01*
X122882563Y-111786877D01*
X122843065Y-111807609D01*
X122818352Y-111829501D01*
X122811476Y-111834805D01*
X122797374Y-111844229D01*
X122764918Y-111876684D01*
X122762105Y-111879332D01*
X122715731Y-111920416D01*
X122706872Y-111933249D01*
X122701783Y-111939358D01*
X122701798Y-111939370D01*
X122699802Y-111941801D01*
X122664688Y-111994351D01*
X122664147Y-111995148D01*
X122626381Y-112049863D01*
X122619099Y-112060413D01*
X122606504Y-112093620D01*
X122593030Y-112129150D01*
X122592318Y-112130945D01*
X122570336Y-112184015D01*
X122570336Y-112184016D01*
X122569295Y-112189251D01*
X122566366Y-112199460D01*
X122558776Y-112219471D01*
X122558775Y-112219475D01*
X122552005Y-112275237D01*
X122551242Y-112280009D01*
X122543417Y-112319347D01*
X122543417Y-112342101D01*
X122542950Y-112349816D01*
X122538272Y-112388341D01*
X122538272Y-112388344D01*
X122542950Y-112426869D01*
X122543417Y-112434584D01*
X122543417Y-113342101D01*
X122542950Y-113349816D01*
X122538272Y-113388341D01*
X122538272Y-113388344D01*
X122542950Y-113426869D01*
X122543417Y-113434584D01*
X122543417Y-114342101D01*
X122542950Y-114349816D01*
X122538272Y-114388341D01*
X122538272Y-114388344D01*
X122542950Y-114426869D01*
X122543417Y-114434584D01*
X122543417Y-117071676D01*
X122524672Y-117116931D01*
X120972505Y-118669098D01*
X120927250Y-118687843D01*
X105775112Y-118687843D01*
X105666699Y-118709408D01*
X105666698Y-118709408D01*
X105639784Y-118714761D01*
X105639781Y-118714762D01*
X105512296Y-118767567D01*
X105397565Y-118844228D01*
X104145044Y-120096749D01*
X104068387Y-120211475D01*
X104068383Y-120211483D01*
X104015580Y-120338957D01*
X104015577Y-120338967D01*
X103999725Y-120418668D01*
X103999725Y-120418669D01*
X103996036Y-120437212D01*
X103988659Y-120474297D01*
X103988659Y-126158155D01*
X84573355Y-126158155D01*
X84573355Y-122428844D01*
X86349500Y-122428844D01*
X86380262Y-122583495D01*
X86380263Y-122583501D01*
X86432897Y-122710568D01*
X86440606Y-122729179D01*
X86440607Y-122729181D01*
X86440609Y-122729184D01*
X86491739Y-122805706D01*
X86501295Y-122828775D01*
X86511133Y-122878231D01*
X86511133Y-122878232D01*
X86522118Y-122894671D01*
X86555448Y-122944552D01*
X86621769Y-122988867D01*
X86671223Y-122998704D01*
X86694293Y-123008260D01*
X86770815Y-123059390D01*
X86770821Y-123059394D01*
X86834356Y-123085711D01*
X86916498Y-123119736D01*
X86916502Y-123119736D01*
X86916503Y-123119737D01*
X86955166Y-123127427D01*
X87071155Y-123150500D01*
X87071158Y-123150500D01*
X88328845Y-123150500D01*
X88421635Y-123132042D01*
X88483497Y-123119737D01*
X88483498Y-123119736D01*
X88483501Y-123119736D01*
X88533875Y-123098869D01*
X88629179Y-123059394D01*
X88705708Y-123008258D01*
X88728774Y-122998704D01*
X88778231Y-122988867D01*
X88844552Y-122944552D01*
X88888867Y-122878231D01*
X88898704Y-122828774D01*
X88908260Y-122805706D01*
X88959394Y-122729179D01*
X88998869Y-122633875D01*
X89019736Y-122583501D01*
X89019737Y-122583495D01*
X89050500Y-122428844D01*
X89050500Y-122271155D01*
X89019737Y-122116504D01*
X89019736Y-122116498D01*
X88985711Y-122034356D01*
X88959394Y-121970821D01*
X88908259Y-121894292D01*
X88898704Y-121871223D01*
X88888867Y-121821769D01*
X88844552Y-121755448D01*
X88778231Y-121711133D01*
X88728775Y-121701295D01*
X88705706Y-121691739D01*
X88629184Y-121640609D01*
X88629181Y-121640607D01*
X88629179Y-121640606D01*
X88610568Y-121632897D01*
X88483501Y-121580263D01*
X88483495Y-121580262D01*
X88328845Y-121549500D01*
X88328842Y-121549500D01*
X87071158Y-121549500D01*
X87071155Y-121549500D01*
X86916504Y-121580262D01*
X86916498Y-121580263D01*
X86770823Y-121640605D01*
X86770814Y-121640609D01*
X86694293Y-121691739D01*
X86671224Y-121701295D01*
X86621768Y-121711133D01*
X86621767Y-121711133D01*
X86555448Y-121755448D01*
X86511133Y-121821767D01*
X86511133Y-121821768D01*
X86501295Y-121871224D01*
X86491739Y-121894293D01*
X86440609Y-121970814D01*
X86440605Y-121970823D01*
X86380263Y-122116498D01*
X86380262Y-122116504D01*
X86349500Y-122271155D01*
X86349500Y-122428844D01*
X84573355Y-122428844D01*
X84573355Y-113087924D01*
X91449500Y-113087924D01*
X91459696Y-113217488D01*
X91459698Y-113217495D01*
X91513594Y-113431388D01*
X91513595Y-113431391D01*
X91513596Y-113431393D01*
X91604824Y-113632239D01*
X91730449Y-113813567D01*
X91886433Y-113969551D01*
X92067761Y-114095176D01*
X92268607Y-114186404D01*
X92482515Y-114240304D01*
X92612067Y-114250500D01*
X94787932Y-114250499D01*
X94917485Y-114240304D01*
X95131393Y-114186404D01*
X95332239Y-114095176D01*
X95513567Y-113969551D01*
X95669551Y-113813567D01*
X95795176Y-113632239D01*
X95886404Y-113431393D01*
X95940304Y-113217485D01*
X95950500Y-113087933D01*
X95950500Y-112900003D01*
X101294355Y-112900003D01*
X101314859Y-113068870D01*
X101375182Y-113227931D01*
X101471814Y-113367926D01*
X101471816Y-113367928D01*
X101471817Y-113367929D01*
X101599148Y-113480734D01*
X101665244Y-113515424D01*
X101696602Y-113553050D01*
X101699500Y-113572091D01*
X101699500Y-118239566D01*
X101719978Y-118315986D01*
X101719979Y-118315989D01*
X101759244Y-118383998D01*
X101759242Y-118383999D01*
X101759252Y-118384012D01*
X101759540Y-118384511D01*
X101759541Y-118384512D01*
X102410704Y-119035675D01*
X102429449Y-119080930D01*
X102425291Y-119103623D01*
X102414859Y-119131130D01*
X102414858Y-119131133D01*
X102394355Y-119299996D01*
X102394355Y-119300003D01*
X102414859Y-119468870D01*
X102475182Y-119627931D01*
X102571814Y-119767926D01*
X102571816Y-119767928D01*
X102571817Y-119767929D01*
X102699148Y-119880734D01*
X102797697Y-119932457D01*
X102849777Y-119959791D01*
X103014937Y-120000499D01*
X103014942Y-120000499D01*
X103014944Y-120000500D01*
X103014946Y-120000500D01*
X103185054Y-120000500D01*
X103185056Y-120000500D01*
X103185058Y-120000499D01*
X103185062Y-120000499D01*
X103350222Y-119959791D01*
X103350222Y-119959790D01*
X103350225Y-119959790D01*
X103500852Y-119880734D01*
X103628183Y-119767929D01*
X103724818Y-119627930D01*
X103785140Y-119468872D01*
X103796182Y-119377931D01*
X103805645Y-119300003D01*
X103805645Y-119299996D01*
X103789241Y-119164902D01*
X103785140Y-119131128D01*
X103724818Y-118972070D01*
X103662045Y-118881128D01*
X103628185Y-118832073D01*
X103628183Y-118832071D01*
X103500852Y-118719266D01*
X103350222Y-118640208D01*
X103185062Y-118599500D01*
X103185056Y-118599500D01*
X103014944Y-118599500D01*
X103014942Y-118599500D01*
X103014935Y-118599501D01*
X102897180Y-118628524D01*
X102848755Y-118621154D01*
X102836610Y-118611639D01*
X102319245Y-118094274D01*
X102300500Y-118049019D01*
X102300500Y-113572091D01*
X102319245Y-113526836D01*
X102334748Y-113515427D01*
X102400852Y-113480734D01*
X102528183Y-113367929D01*
X102624818Y-113227930D01*
X102685140Y-113068872D01*
X102705645Y-112900000D01*
X102705584Y-112899500D01*
X102685140Y-112731129D01*
X102678584Y-112713843D01*
X102624818Y-112572070D01*
X102614705Y-112557419D01*
X102528185Y-112432073D01*
X102528183Y-112432071D01*
X102523850Y-112428232D01*
X102400852Y-112319266D01*
X102250222Y-112240208D01*
X102085062Y-112199500D01*
X102085056Y-112199500D01*
X101914944Y-112199500D01*
X101914937Y-112199500D01*
X101749777Y-112240208D01*
X101599148Y-112319266D01*
X101471816Y-112432071D01*
X101471814Y-112432073D01*
X101375182Y-112572068D01*
X101314859Y-112731129D01*
X101294355Y-112899996D01*
X101294355Y-112900003D01*
X95950500Y-112900003D01*
X95950499Y-111025004D01*
X113444354Y-111025004D01*
X113464858Y-111193871D01*
X113525181Y-111352932D01*
X113621813Y-111492927D01*
X113621815Y-111492929D01*
X113621816Y-111492930D01*
X113749147Y-111605735D01*
X113899772Y-111684790D01*
X113899776Y-111684792D01*
X113987940Y-111706522D01*
X114027394Y-111735552D01*
X114034764Y-111783978D01*
X114005734Y-111823432D01*
X113987941Y-111830802D01*
X113949775Y-111840209D01*
X113799147Y-111919266D01*
X113671815Y-112032071D01*
X113671813Y-112032073D01*
X113575181Y-112172068D01*
X113514858Y-112331129D01*
X113494354Y-112499996D01*
X113494354Y-112500003D01*
X113514858Y-112668870D01*
X113575181Y-112827931D01*
X113671813Y-112967926D01*
X113671815Y-112967928D01*
X113671816Y-112967929D01*
X113799147Y-113080734D01*
X113949774Y-113159790D01*
X113949776Y-113159791D01*
X114114936Y-113200499D01*
X114114941Y-113200499D01*
X114114943Y-113200500D01*
X114114945Y-113200500D01*
X114285053Y-113200500D01*
X114285055Y-113200500D01*
X114285057Y-113200499D01*
X114285061Y-113200499D01*
X114450221Y-113159791D01*
X114450221Y-113159790D01*
X114450224Y-113159790D01*
X114600851Y-113080734D01*
X114728182Y-112967929D01*
X114824817Y-112827930D01*
X114885139Y-112668872D01*
X114905644Y-112500000D01*
X114904982Y-112494552D01*
X114885139Y-112331129D01*
X114865437Y-112279179D01*
X114824817Y-112172070D01*
X114798192Y-112133497D01*
X114728184Y-112032073D01*
X114728182Y-112032071D01*
X114686504Y-111995148D01*
X114600851Y-111919266D01*
X114450221Y-111840208D01*
X114362057Y-111818478D01*
X114322603Y-111789447D01*
X114315233Y-111741022D01*
X114344264Y-111701568D01*
X114362052Y-111694199D01*
X114400224Y-111684791D01*
X114550851Y-111605735D01*
X114678182Y-111492930D01*
X114774817Y-111352931D01*
X114835139Y-111193873D01*
X114855644Y-111025001D01*
X114844886Y-110936405D01*
X114835139Y-110856130D01*
X114830984Y-110845175D01*
X114774817Y-110697071D01*
X114686147Y-110568611D01*
X114678184Y-110557074D01*
X114678182Y-110557072D01*
X114550851Y-110444267D01*
X114400221Y-110365209D01*
X114235061Y-110324501D01*
X114235055Y-110324501D01*
X114064943Y-110324501D01*
X114064936Y-110324501D01*
X113899776Y-110365209D01*
X113749147Y-110444267D01*
X113621815Y-110557072D01*
X113621813Y-110557074D01*
X113525181Y-110697069D01*
X113464858Y-110856130D01*
X113444354Y-111024997D01*
X113444354Y-111025004D01*
X95950499Y-111025004D01*
X95950499Y-110912068D01*
X95940304Y-110782515D01*
X95886404Y-110568607D01*
X95795176Y-110367761D01*
X95669551Y-110186433D01*
X95513567Y-110030449D01*
X95332239Y-109904824D01*
X95131393Y-109813596D01*
X95131391Y-109813595D01*
X95131388Y-109813594D01*
X95003321Y-109781324D01*
X94917485Y-109759696D01*
X94787933Y-109749500D01*
X94787925Y-109749500D01*
X92612075Y-109749500D01*
X92482511Y-109759696D01*
X92482504Y-109759698D01*
X92268611Y-109813594D01*
X92067760Y-109904824D01*
X91886436Y-110030446D01*
X91730446Y-110186436D01*
X91604824Y-110367760D01*
X91513594Y-110568611D01*
X91475561Y-110719553D01*
X91459696Y-110782515D01*
X91449500Y-110912067D01*
X91449500Y-110912068D01*
X91449500Y-110912074D01*
X91449500Y-113087924D01*
X84573355Y-113087924D01*
X84573355Y-108928844D01*
X86349500Y-108928844D01*
X86380262Y-109083495D01*
X86380263Y-109083501D01*
X86432897Y-109210568D01*
X86440606Y-109229179D01*
X86440607Y-109229181D01*
X86440609Y-109229184D01*
X86491739Y-109305706D01*
X86501295Y-109328775D01*
X86511133Y-109378231D01*
X86511133Y-109378232D01*
X86533290Y-109411391D01*
X86555448Y-109444552D01*
X86621769Y-109488867D01*
X86671223Y-109498704D01*
X86694293Y-109508260D01*
X86770815Y-109559390D01*
X86770821Y-109559394D01*
X86834356Y-109585711D01*
X86916498Y-109619736D01*
X86916502Y-109619736D01*
X86916503Y-109619737D01*
X86955166Y-109627427D01*
X87071155Y-109650500D01*
X87071158Y-109650500D01*
X88328845Y-109650500D01*
X88421635Y-109632042D01*
X88483497Y-109619737D01*
X88483498Y-109619736D01*
X88483501Y-109619736D01*
X88533875Y-109598869D01*
X88629179Y-109559394D01*
X88705708Y-109508258D01*
X88725638Y-109500003D01*
X111994353Y-109500003D01*
X112014857Y-109668870D01*
X112075180Y-109827931D01*
X112171812Y-109967926D01*
X112171814Y-109967928D01*
X112171815Y-109967929D01*
X112299146Y-110080734D01*
X112449773Y-110159790D01*
X112449775Y-110159791D01*
X112614935Y-110200499D01*
X112614940Y-110200499D01*
X112614942Y-110200500D01*
X112614944Y-110200500D01*
X112785052Y-110200500D01*
X112785054Y-110200500D01*
X112785056Y-110200499D01*
X112785060Y-110200499D01*
X112950220Y-110159791D01*
X112950220Y-110159790D01*
X112950223Y-110159790D01*
X113100850Y-110080734D01*
X113228181Y-109967929D01*
X113317918Y-109837924D01*
X172999500Y-109837924D01*
X173009696Y-109967488D01*
X173009698Y-109967495D01*
X173063594Y-110181388D01*
X173063595Y-110181391D01*
X173063596Y-110181393D01*
X173072275Y-110200500D01*
X173154824Y-110382239D01*
X173275950Y-110557074D01*
X173280449Y-110563567D01*
X173436433Y-110719551D01*
X173617761Y-110845176D01*
X173818607Y-110936404D01*
X174032515Y-110990304D01*
X174162067Y-111000500D01*
X176337932Y-111000499D01*
X176467485Y-110990304D01*
X176681393Y-110936404D01*
X176882239Y-110845176D01*
X177063567Y-110719551D01*
X177219551Y-110563567D01*
X177345176Y-110382239D01*
X177436404Y-110181393D01*
X177490304Y-109967485D01*
X177500500Y-109837933D01*
X177500499Y-107662068D01*
X177490304Y-107532515D01*
X177436404Y-107318607D01*
X177345176Y-107117761D01*
X177219551Y-106936433D01*
X177063567Y-106780449D01*
X176882239Y-106654824D01*
X176681393Y-106563596D01*
X176681391Y-106563595D01*
X176681388Y-106563594D01*
X176553321Y-106531324D01*
X176467485Y-106509696D01*
X176337933Y-106499500D01*
X176337925Y-106499500D01*
X174162075Y-106499500D01*
X174032511Y-106509696D01*
X174032504Y-106509698D01*
X173818611Y-106563594D01*
X173617760Y-106654824D01*
X173436436Y-106780446D01*
X173280446Y-106936436D01*
X173154824Y-107117760D01*
X173063594Y-107318611D01*
X173020338Y-107490279D01*
X173009696Y-107532515D01*
X172999500Y-107662067D01*
X172999500Y-107662068D01*
X172999500Y-107662074D01*
X172999500Y-109837924D01*
X113317918Y-109837924D01*
X113324816Y-109827930D01*
X113385138Y-109668872D01*
X113404640Y-109508260D01*
X113405643Y-109500003D01*
X113405643Y-109499996D01*
X113385138Y-109331129D01*
X113384245Y-109328775D01*
X113324816Y-109172070D01*
X113263681Y-109083501D01*
X113228183Y-109032073D01*
X113228181Y-109032071D01*
X113100850Y-108919266D01*
X112950220Y-108840208D01*
X112785060Y-108799500D01*
X112785054Y-108799500D01*
X112614942Y-108799500D01*
X112614935Y-108799500D01*
X112449775Y-108840208D01*
X112299146Y-108919266D01*
X112171814Y-109032071D01*
X112171812Y-109032073D01*
X112075180Y-109172068D01*
X112014857Y-109331129D01*
X111994353Y-109499996D01*
X111994353Y-109500003D01*
X88725638Y-109500003D01*
X88728774Y-109498704D01*
X88778231Y-109488867D01*
X88844552Y-109444552D01*
X88888867Y-109378231D01*
X88898704Y-109328774D01*
X88908260Y-109305706D01*
X88959394Y-109229179D01*
X88998869Y-109133875D01*
X89019736Y-109083501D01*
X89019737Y-109083495D01*
X89050500Y-108928844D01*
X89050500Y-108771155D01*
X89019737Y-108616504D01*
X89019736Y-108616498D01*
X88985711Y-108534356D01*
X88959394Y-108470821D01*
X88908259Y-108394292D01*
X88898704Y-108371223D01*
X88888867Y-108321769D01*
X88844552Y-108255448D01*
X88778231Y-108211133D01*
X88728775Y-108201295D01*
X88705706Y-108191739D01*
X88629184Y-108140609D01*
X88629181Y-108140607D01*
X88629179Y-108140606D01*
X88610568Y-108132897D01*
X88483501Y-108080263D01*
X88483495Y-108080262D01*
X88328845Y-108049500D01*
X88328842Y-108049500D01*
X87071158Y-108049500D01*
X87071155Y-108049500D01*
X86916504Y-108080262D01*
X86916498Y-108080263D01*
X86770823Y-108140605D01*
X86770814Y-108140609D01*
X86694293Y-108191739D01*
X86671224Y-108201295D01*
X86621768Y-108211133D01*
X86621767Y-108211133D01*
X86555448Y-108255448D01*
X86511133Y-108321767D01*
X86511133Y-108321768D01*
X86501295Y-108371224D01*
X86491739Y-108394293D01*
X86440609Y-108470814D01*
X86440605Y-108470823D01*
X86380263Y-108616498D01*
X86380262Y-108616504D01*
X86349500Y-108771155D01*
X86349500Y-108928844D01*
X84573355Y-108928844D01*
X84573355Y-104911310D01*
X86172355Y-104911310D01*
X86205037Y-105075615D01*
X86205040Y-105075625D01*
X86269150Y-105230401D01*
X86269151Y-105230403D01*
X86269152Y-105230404D01*
X86362229Y-105369703D01*
X86480693Y-105488167D01*
X86619992Y-105581244D01*
X86774773Y-105645357D01*
X86839959Y-105658323D01*
X86939085Y-105678041D01*
X86939088Y-105678041D01*
X88406625Y-105678041D01*
X88489153Y-105661624D01*
X88570937Y-105645357D01*
X88725718Y-105581244D01*
X88865017Y-105488167D01*
X88983481Y-105369703D01*
X89076558Y-105230404D01*
X89140671Y-105075623D01*
X89173355Y-104911308D01*
X89173355Y-104743774D01*
X89173355Y-104743771D01*
X89140672Y-104579466D01*
X89140671Y-104579459D01*
X89076558Y-104424678D01*
X88983481Y-104285379D01*
X88865017Y-104166915D01*
X88725718Y-104073838D01*
X88725717Y-104073837D01*
X88725715Y-104073836D01*
X88570939Y-104009726D01*
X88570940Y-104009726D01*
X88570937Y-104009725D01*
X88570933Y-104009724D01*
X88570929Y-104009723D01*
X88406625Y-103977041D01*
X88406622Y-103977041D01*
X86939088Y-103977041D01*
X86939085Y-103977041D01*
X86774780Y-104009723D01*
X86774770Y-104009726D01*
X86619994Y-104073836D01*
X86480691Y-104166916D01*
X86362230Y-104285377D01*
X86269150Y-104424680D01*
X86205040Y-104579456D01*
X86205037Y-104579466D01*
X86172355Y-104743771D01*
X86172355Y-104911310D01*
X84573355Y-104911310D01*
X84573355Y-92405290D01*
X94414355Y-92405290D01*
X94425988Y-92463772D01*
X94425988Y-92463773D01*
X94448145Y-92496932D01*
X94470303Y-92530093D01*
X94536624Y-92574408D01*
X94575699Y-92582180D01*
X94595105Y-92586041D01*
X94595107Y-92586041D01*
X99550605Y-92586041D01*
X99567248Y-92582729D01*
X99609086Y-92574408D01*
X99675407Y-92530093D01*
X99695515Y-92500000D01*
X173094671Y-92500000D01*
X173113965Y-92794373D01*
X173113967Y-92794390D01*
X173171516Y-93083714D01*
X173171519Y-93083726D01*
X173266344Y-93363067D01*
X173266351Y-93363084D01*
X173396827Y-93627664D01*
X173501628Y-93784509D01*
X173560727Y-93872957D01*
X173755242Y-94094758D01*
X173977043Y-94289273D01*
X174222335Y-94453172D01*
X174486923Y-94583652D01*
X174486932Y-94583655D01*
X174766273Y-94678480D01*
X174766285Y-94678483D01*
X175055609Y-94736032D01*
X175055611Y-94736032D01*
X175055620Y-94736034D01*
X175350000Y-94755329D01*
X175644380Y-94736034D01*
X175651905Y-94734537D01*
X175933714Y-94678483D01*
X175933726Y-94678480D01*
X176066575Y-94633382D01*
X176213077Y-94583652D01*
X176477665Y-94453172D01*
X176722957Y-94289273D01*
X176944758Y-94094758D01*
X177139273Y-93872957D01*
X177303172Y-93627665D01*
X177433652Y-93363077D01*
X177528481Y-93083722D01*
X177586034Y-92794380D01*
X177605329Y-92500000D01*
X177586034Y-92205620D01*
X177586032Y-92205609D01*
X177528483Y-91916285D01*
X177528480Y-91916273D01*
X177433655Y-91636930D01*
X177433654Y-91636929D01*
X177433652Y-91636923D01*
X177303172Y-91372336D01*
X177139273Y-91127043D01*
X176944758Y-90905242D01*
X176722957Y-90710727D01*
X176477665Y-90546828D01*
X176477666Y-90546828D01*
X176477664Y-90546827D01*
X176213084Y-90416351D01*
X176213067Y-90416344D01*
X175933726Y-90321519D01*
X175933714Y-90321516D01*
X175644390Y-90263967D01*
X175644373Y-90263965D01*
X175350000Y-90244671D01*
X175055626Y-90263965D01*
X175055609Y-90263967D01*
X174766285Y-90321516D01*
X174766273Y-90321519D01*
X174486930Y-90416344D01*
X174486929Y-90416345D01*
X174222336Y-90546827D01*
X173977055Y-90710718D01*
X173977040Y-90710729D01*
X173755244Y-90905240D01*
X173755240Y-90905244D01*
X173560729Y-91127040D01*
X173560718Y-91127055D01*
X173396827Y-91372336D01*
X173266345Y-91636929D01*
X173266344Y-91636930D01*
X173171519Y-91916273D01*
X173171516Y-91916285D01*
X173113967Y-92205609D01*
X173113965Y-92205626D01*
X173094671Y-92500000D01*
X99695515Y-92500000D01*
X99719722Y-92463772D01*
X99731355Y-92405289D01*
X99731355Y-87449793D01*
X99719722Y-87391310D01*
X99675407Y-87324989D01*
X99609086Y-87280674D01*
X99550605Y-87269041D01*
X99550603Y-87269041D01*
X94595107Y-87269041D01*
X94595105Y-87269041D01*
X94536623Y-87280674D01*
X94536622Y-87280674D01*
X94470303Y-87324989D01*
X94425988Y-87391308D01*
X94425988Y-87391309D01*
X94414355Y-87449791D01*
X94414355Y-92405290D01*
X84573355Y-92405290D01*
X84573355Y-86011310D01*
X86172355Y-86011310D01*
X86205037Y-86175615D01*
X86205040Y-86175625D01*
X86269150Y-86330401D01*
X86269151Y-86330403D01*
X86269152Y-86330404D01*
X86362229Y-86469703D01*
X86480693Y-86588167D01*
X86619992Y-86681244D01*
X86774773Y-86745357D01*
X86839959Y-86758323D01*
X86939085Y-86778041D01*
X86939088Y-86778041D01*
X88406625Y-86778041D01*
X88489153Y-86761624D01*
X88570937Y-86745357D01*
X88725718Y-86681244D01*
X88865017Y-86588167D01*
X88983481Y-86469703D01*
X89076558Y-86330404D01*
X89140671Y-86175623D01*
X89173355Y-86011308D01*
X89173355Y-85843774D01*
X89173355Y-85843771D01*
X89140672Y-85679466D01*
X89140671Y-85679459D01*
X89076558Y-85524678D01*
X88983481Y-85385379D01*
X88865017Y-85266915D01*
X88725718Y-85173838D01*
X88725717Y-85173837D01*
X88725715Y-85173836D01*
X88590743Y-85117929D01*
X88570937Y-85109725D01*
X88570933Y-85109724D01*
X88570929Y-85109723D01*
X88406625Y-85077041D01*
X88406622Y-85077041D01*
X86939088Y-85077041D01*
X86939085Y-85077041D01*
X86774780Y-85109723D01*
X86774770Y-85109726D01*
X86619994Y-85173836D01*
X86480691Y-85266916D01*
X86362230Y-85385377D01*
X86269150Y-85524680D01*
X86205040Y-85679456D01*
X86205037Y-85679466D01*
X86172355Y-85843771D01*
X86172355Y-86011310D01*
X84573355Y-86011310D01*
X84573355Y-79877541D01*
X93897270Y-79877541D01*
X93917593Y-80226472D01*
X93978285Y-80570671D01*
X93978290Y-80570691D01*
X94056542Y-80832071D01*
X94078529Y-80905512D01*
X94216966Y-81226445D01*
X94391725Y-81529137D01*
X94600443Y-81809494D01*
X94840297Y-82063724D01*
X94840301Y-82063728D01*
X95108036Y-82288384D01*
X95108039Y-82288386D01*
X95108044Y-82288390D01*
X95400062Y-82480454D01*
X95712404Y-82637318D01*
X96040844Y-82756860D01*
X96380941Y-82837464D01*
X96728096Y-82878041D01*
X96728098Y-82878041D01*
X97077612Y-82878041D01*
X97077614Y-82878041D01*
X97424769Y-82837464D01*
X97764866Y-82756860D01*
X98093306Y-82637318D01*
X98405648Y-82480454D01*
X98697666Y-82288390D01*
X98965413Y-82063724D01*
X99205267Y-81809494D01*
X99413985Y-81529137D01*
X99588744Y-81226445D01*
X99727181Y-80905512D01*
X99827424Y-80570677D01*
X99844067Y-80476284D01*
X99870386Y-80434973D01*
X99918208Y-80424371D01*
X99948927Y-80438963D01*
X99989306Y-80473840D01*
X100120279Y-80533402D01*
X100144746Y-80540544D01*
X100187348Y-80552980D01*
X100191775Y-80553612D01*
X100191833Y-80553617D01*
X100329800Y-80573229D01*
X102023913Y-80570528D01*
X102023928Y-80570527D01*
X102023935Y-80570527D01*
X102047578Y-80569231D01*
X102077551Y-80567589D01*
X102103711Y-80564755D01*
X102156719Y-80556143D01*
X102291528Y-80505861D01*
X102291532Y-80505858D01*
X102291534Y-80505858D01*
X102350170Y-80473840D01*
X102352851Y-80472376D01*
X102468032Y-80386153D01*
X103627623Y-79226562D01*
X123637097Y-79226562D01*
X123657601Y-79395429D01*
X123717924Y-79554490D01*
X123814556Y-79694485D01*
X123814558Y-79694487D01*
X123814559Y-79694488D01*
X123941890Y-79807293D01*
X124075735Y-79877541D01*
X124092519Y-79886350D01*
X124257679Y-79927058D01*
X124257684Y-79927058D01*
X124257686Y-79927059D01*
X124257688Y-79927059D01*
X124427796Y-79927059D01*
X124427798Y-79927059D01*
X124427800Y-79927058D01*
X124427804Y-79927058D01*
X124592964Y-79886350D01*
X124592964Y-79886349D01*
X124592967Y-79886349D01*
X124743594Y-79807293D01*
X124870925Y-79694488D01*
X124967560Y-79554489D01*
X125027882Y-79395431D01*
X125038924Y-79304490D01*
X125048387Y-79226562D01*
X125048387Y-79226555D01*
X125027882Y-79057688D01*
X125026743Y-79054685D01*
X124997115Y-78976562D01*
X131257097Y-78976562D01*
X131277601Y-79145429D01*
X131337924Y-79304490D01*
X131434556Y-79444485D01*
X131434558Y-79444487D01*
X131434559Y-79444488D01*
X131561890Y-79557293D01*
X131712517Y-79636349D01*
X131712519Y-79636350D01*
X131877679Y-79677058D01*
X131877684Y-79677058D01*
X131877686Y-79677059D01*
X131877688Y-79677059D01*
X132047796Y-79677059D01*
X132047798Y-79677059D01*
X132047800Y-79677058D01*
X132047804Y-79677058D01*
X132212964Y-79636350D01*
X132212964Y-79636349D01*
X132212967Y-79636349D01*
X132363594Y-79557293D01*
X132490925Y-79444488D01*
X132587560Y-79304489D01*
X132647882Y-79145431D01*
X132658901Y-79054684D01*
X132668387Y-78976562D01*
X132668387Y-78976555D01*
X132648815Y-78815368D01*
X132647882Y-78807687D01*
X132587560Y-78648629D01*
X132545471Y-78587653D01*
X132490927Y-78508632D01*
X132490925Y-78508630D01*
X132466998Y-78487433D01*
X132363594Y-78395825D01*
X132212964Y-78316767D01*
X132047804Y-78276059D01*
X132047798Y-78276059D01*
X131877686Y-78276059D01*
X131877679Y-78276059D01*
X131712519Y-78316767D01*
X131561890Y-78395825D01*
X131434558Y-78508630D01*
X131434556Y-78508632D01*
X131337924Y-78648627D01*
X131277601Y-78807688D01*
X131257097Y-78976555D01*
X131257097Y-78976562D01*
X124997115Y-78976562D01*
X124967560Y-78898629D01*
X124967559Y-78898627D01*
X124870927Y-78758632D01*
X124870925Y-78758630D01*
X124743594Y-78645825D01*
X124592964Y-78566767D01*
X124427804Y-78526059D01*
X124427798Y-78526059D01*
X124257686Y-78526059D01*
X124257679Y-78526059D01*
X124092519Y-78566767D01*
X123941890Y-78645825D01*
X123814558Y-78758630D01*
X123814556Y-78758632D01*
X123717924Y-78898627D01*
X123657601Y-79057688D01*
X123637097Y-79226555D01*
X123637097Y-79226562D01*
X103627623Y-79226562D01*
X108333865Y-74520321D01*
X108370030Y-74480059D01*
X108370035Y-74480051D01*
X108370041Y-74480046D01*
X108370042Y-74480044D01*
X108386662Y-74459419D01*
X108386664Y-74459417D01*
X108418309Y-74415533D01*
X108478080Y-74284656D01*
X108497765Y-74217617D01*
X108497766Y-74217613D01*
X108518242Y-74075197D01*
X108518242Y-73082380D01*
X108536987Y-73037125D01*
X108539803Y-73034475D01*
X108572907Y-73005148D01*
X108669542Y-72865149D01*
X108729864Y-72706091D01*
X108744342Y-72586856D01*
X117907320Y-72586856D01*
X117956020Y-77359440D01*
X117966431Y-77450500D01*
X117967899Y-77463341D01*
X117967899Y-77463344D01*
X117978907Y-77513163D01*
X118011899Y-77612373D01*
X118089234Y-77733707D01*
X118089238Y-77733711D01*
X118134784Y-77786674D01*
X118134791Y-77786681D01*
X118134792Y-77786682D01*
X118243177Y-77881310D01*
X118373830Y-77941569D01*
X118440795Y-77961504D01*
X118440796Y-77961504D01*
X118583134Y-77982512D01*
X131707968Y-78031589D01*
X131816659Y-78020182D01*
X131868760Y-78008920D01*
X131972460Y-77974417D01*
X132093413Y-77896496D01*
X132144440Y-77852182D01*
X132145332Y-77851461D01*
X132146166Y-77850683D01*
X132146170Y-77850680D01*
X132240270Y-77741838D01*
X132299894Y-77610893D01*
X132319504Y-77543831D01*
X132339822Y-77401394D01*
X132339743Y-77330734D01*
X132327210Y-66050000D01*
X135744671Y-66050000D01*
X135763965Y-66344373D01*
X135763967Y-66344390D01*
X135821516Y-66633714D01*
X135821519Y-66633726D01*
X135916344Y-66913067D01*
X135916351Y-66913084D01*
X136046827Y-67177664D01*
X136210718Y-67422944D01*
X136210727Y-67422957D01*
X136405242Y-67644758D01*
X136627043Y-67839273D01*
X136872335Y-68003172D01*
X137136923Y-68133652D01*
X137136932Y-68133655D01*
X137416273Y-68228480D01*
X137416285Y-68228483D01*
X137705609Y-68286032D01*
X137705611Y-68286032D01*
X137705620Y-68286034D01*
X138000000Y-68305329D01*
X138294380Y-68286034D01*
X138301905Y-68284537D01*
X138583714Y-68228483D01*
X138583726Y-68228480D01*
X138777826Y-68162591D01*
X138863077Y-68133652D01*
X139127665Y-68003172D01*
X139372957Y-67839273D01*
X139594758Y-67644758D01*
X139789273Y-67422957D01*
X139953172Y-67177665D01*
X140083652Y-66913077D01*
X140178481Y-66633722D01*
X140193089Y-66560285D01*
X140236032Y-66344390D01*
X140236031Y-66344390D01*
X140236034Y-66344380D01*
X140255329Y-66050000D01*
X140236034Y-65755620D01*
X140211482Y-65632185D01*
X140178483Y-65466285D01*
X140178480Y-65466273D01*
X140083655Y-65186930D01*
X140083654Y-65186929D01*
X140083652Y-65186923D01*
X139953172Y-64922336D01*
X139789273Y-64677043D01*
X139594758Y-64455242D01*
X139372957Y-64260727D01*
X139263045Y-64187286D01*
X139127664Y-64096827D01*
X138863084Y-63966351D01*
X138863067Y-63966344D01*
X138583726Y-63871519D01*
X138583714Y-63871516D01*
X138294390Y-63813967D01*
X138294373Y-63813965D01*
X138000000Y-63794671D01*
X137705626Y-63813965D01*
X137705609Y-63813967D01*
X137416285Y-63871516D01*
X137416273Y-63871519D01*
X137136930Y-63966344D01*
X137136929Y-63966345D01*
X136872336Y-64096827D01*
X136627055Y-64260718D01*
X136627040Y-64260729D01*
X136405244Y-64455240D01*
X136405240Y-64455244D01*
X136210729Y-64677040D01*
X136210718Y-64677055D01*
X136046827Y-64922336D01*
X135916345Y-65186929D01*
X135916344Y-65186930D01*
X135821519Y-65466273D01*
X135821516Y-65466285D01*
X135763967Y-65755609D01*
X135763965Y-65755626D01*
X135744671Y-66050000D01*
X132327210Y-66050000D01*
X132323142Y-62388319D01*
X132323142Y-62388317D01*
X132320120Y-62363231D01*
X132308815Y-62269380D01*
X132307466Y-62263835D01*
X132314979Y-62215433D01*
X132354335Y-62186565D01*
X132462964Y-62159791D01*
X132462964Y-62159790D01*
X132462967Y-62159790D01*
X132613594Y-62080734D01*
X132740925Y-61967929D01*
X132837560Y-61827930D01*
X132897882Y-61668872D01*
X132918387Y-61500000D01*
X132915985Y-61480221D01*
X132897882Y-61331129D01*
X132897261Y-61329492D01*
X132837560Y-61172070D01*
X132832974Y-61165426D01*
X132740927Y-61032073D01*
X132740925Y-61032071D01*
X132710130Y-61004789D01*
X132613594Y-60919266D01*
X132547770Y-60884718D01*
X132525479Y-60873018D01*
X132494120Y-60835388D01*
X132491222Y-60816349D01*
X132491222Y-60678844D01*
X134049500Y-60678844D01*
X134080262Y-60833495D01*
X134080263Y-60833501D01*
X134132897Y-60960568D01*
X134140606Y-60979179D01*
X134140607Y-60979181D01*
X134140609Y-60979184D01*
X134191739Y-61055706D01*
X134201295Y-61078775D01*
X134211133Y-61128231D01*
X134211133Y-61128232D01*
X134224217Y-61147813D01*
X134255448Y-61194552D01*
X134321769Y-61238867D01*
X134371223Y-61248704D01*
X134394293Y-61258260D01*
X134445046Y-61292172D01*
X134470821Y-61309394D01*
X134534356Y-61335711D01*
X134616498Y-61369736D01*
X134616502Y-61369736D01*
X134616503Y-61369737D01*
X134645521Y-61375509D01*
X134771155Y-61400500D01*
X134771158Y-61400500D01*
X134928845Y-61400500D01*
X135021635Y-61382042D01*
X135083497Y-61369737D01*
X135083498Y-61369736D01*
X135083501Y-61369736D01*
X135133875Y-61348869D01*
X135229179Y-61309394D01*
X135305708Y-61258258D01*
X135328774Y-61248704D01*
X135378231Y-61238867D01*
X135444552Y-61194552D01*
X135488867Y-61128231D01*
X135498704Y-61078774D01*
X135508260Y-61055706D01*
X135559394Y-60979179D01*
X135603367Y-60873018D01*
X135619736Y-60833501D01*
X135619737Y-60833495D01*
X135650500Y-60678844D01*
X135650500Y-59421155D01*
X135619737Y-59266504D01*
X135619736Y-59266498D01*
X135585711Y-59184356D01*
X135559394Y-59120821D01*
X135508259Y-59044292D01*
X135498704Y-59021223D01*
X135488867Y-58971769D01*
X135488254Y-58970852D01*
X135472839Y-58947782D01*
X135444552Y-58905448D01*
X135378231Y-58861133D01*
X135328775Y-58851295D01*
X135305706Y-58841739D01*
X135229184Y-58790609D01*
X135229181Y-58790607D01*
X135229179Y-58790606D01*
X135198393Y-58777854D01*
X135083501Y-58730263D01*
X135083495Y-58730262D01*
X134928845Y-58699500D01*
X134928842Y-58699500D01*
X134771158Y-58699500D01*
X134771155Y-58699500D01*
X134616504Y-58730262D01*
X134616498Y-58730263D01*
X134470823Y-58790605D01*
X134470814Y-58790609D01*
X134394293Y-58841739D01*
X134371224Y-58851295D01*
X134321768Y-58861133D01*
X134321767Y-58861133D01*
X134255448Y-58905448D01*
X134211133Y-58971767D01*
X134211133Y-58971768D01*
X134201295Y-59021224D01*
X134191739Y-59044293D01*
X134140609Y-59120814D01*
X134140605Y-59120823D01*
X134080263Y-59266498D01*
X134080262Y-59266504D01*
X134049500Y-59421155D01*
X134049500Y-60678844D01*
X132491222Y-60678844D01*
X132491222Y-56696390D01*
X132509967Y-56651135D01*
X132525475Y-56639724D01*
X132613594Y-56593476D01*
X132740925Y-56480671D01*
X132837560Y-56340672D01*
X132897882Y-56181614D01*
X132908139Y-56097139D01*
X132918387Y-56012745D01*
X132918387Y-56012738D01*
X132897882Y-55843871D01*
X132881245Y-55800003D01*
X132837560Y-55684812D01*
X132811141Y-55646538D01*
X132740926Y-55544814D01*
X132715398Y-55522198D01*
X132613594Y-55432008D01*
X132462964Y-55352950D01*
X132297804Y-55312242D01*
X132297798Y-55312242D01*
X132127686Y-55312242D01*
X132127679Y-55312242D01*
X131962519Y-55352950D01*
X131811890Y-55432008D01*
X131684557Y-55544814D01*
X131587924Y-55684810D01*
X131527601Y-55843871D01*
X131507097Y-56012738D01*
X131507097Y-56012745D01*
X131527601Y-56181612D01*
X131587924Y-56340673D01*
X131684556Y-56480668D01*
X131684558Y-56480670D01*
X131684559Y-56480671D01*
X131811890Y-56593476D01*
X131855965Y-56616608D01*
X131887324Y-56654235D01*
X131890222Y-56673276D01*
X131890222Y-60839463D01*
X131871477Y-60884718D01*
X131855966Y-60896131D01*
X131811893Y-60919263D01*
X131684559Y-61032071D01*
X131604667Y-61147813D01*
X131563532Y-61174408D01*
X131525563Y-61169742D01*
X131442500Y-61132073D01*
X131412465Y-61118452D01*
X131412463Y-61118451D01*
X131412460Y-61118450D01*
X131345374Y-61098944D01*
X131345364Y-61098941D01*
X131222992Y-61081679D01*
X131202896Y-61078845D01*
X131202895Y-61078845D01*
X125421920Y-61094219D01*
X125376616Y-61075594D01*
X125357750Y-61030389D01*
X125358980Y-61017734D01*
X125361446Y-61005336D01*
X125371002Y-60982265D01*
X125422136Y-60905738D01*
X125461611Y-60810434D01*
X125482478Y-60760060D01*
X125482479Y-60760054D01*
X125513242Y-60605403D01*
X125513242Y-59347714D01*
X125482479Y-59193063D01*
X125482478Y-59193057D01*
X125448453Y-59110915D01*
X125422136Y-59047380D01*
X125371001Y-58970851D01*
X125361446Y-58947782D01*
X125355614Y-58918464D01*
X125351609Y-58898328D01*
X125307294Y-58832007D01*
X125240973Y-58787692D01*
X125191517Y-58777854D01*
X125168448Y-58768298D01*
X125091926Y-58717168D01*
X125091923Y-58717166D01*
X125091921Y-58717165D01*
X125049274Y-58699500D01*
X124946243Y-58656822D01*
X124946237Y-58656821D01*
X124791587Y-58626059D01*
X124791584Y-58626059D01*
X124633900Y-58626059D01*
X124633897Y-58626059D01*
X124479246Y-58656821D01*
X124479240Y-58656822D01*
X124333565Y-58717164D01*
X124333556Y-58717168D01*
X124257035Y-58768298D01*
X124233966Y-58777854D01*
X124184510Y-58787692D01*
X124184509Y-58787692D01*
X124118190Y-58832007D01*
X124073875Y-58898326D01*
X124073875Y-58898327D01*
X124064037Y-58947783D01*
X124054481Y-58970852D01*
X124003351Y-59047373D01*
X124003347Y-59047382D01*
X123943005Y-59193057D01*
X123943004Y-59193063D01*
X123912242Y-59347714D01*
X123912242Y-60605403D01*
X123943004Y-60760054D01*
X123943005Y-60760060D01*
X123989795Y-60873018D01*
X124003348Y-60905738D01*
X124003349Y-60905740D01*
X124003351Y-60905743D01*
X124054481Y-60982265D01*
X124064037Y-61005335D01*
X124067253Y-61021502D01*
X124057697Y-61069544D01*
X124016969Y-61096758D01*
X124004653Y-61097988D01*
X118835058Y-61111738D01*
X118728304Y-61123432D01*
X118728289Y-61123434D01*
X118677117Y-61134638D01*
X118677113Y-61134639D01*
X118575238Y-61168622D01*
X118454195Y-61246413D01*
X118401395Y-61292165D01*
X118401389Y-61292172D01*
X118307173Y-61400902D01*
X118247406Y-61531769D01*
X118247403Y-61531777D01*
X118227719Y-61598813D01*
X118227719Y-61598816D01*
X118227718Y-61598820D01*
X118217647Y-61668870D01*
X118207242Y-61741237D01*
X118207242Y-68455758D01*
X118207071Y-68460428D01*
X117908968Y-72534489D01*
X117907868Y-72555523D01*
X117907544Y-72565787D01*
X117907320Y-72586822D01*
X117907320Y-72586856D01*
X108744342Y-72586856D01*
X108746901Y-72565782D01*
X108750369Y-72537222D01*
X108750369Y-72537215D01*
X108729864Y-72368348D01*
X108669541Y-72209287D01*
X108632653Y-72155847D01*
X108622372Y-72107955D01*
X108648968Y-72066820D01*
X108696860Y-72056539D01*
X108715065Y-72062821D01*
X108855159Y-72136349D01*
X108855161Y-72136350D01*
X109020321Y-72177058D01*
X109020326Y-72177058D01*
X109020328Y-72177059D01*
X109020330Y-72177059D01*
X109190438Y-72177059D01*
X109190440Y-72177059D01*
X109190442Y-72177058D01*
X109190446Y-72177058D01*
X109355606Y-72136350D01*
X109355606Y-72136349D01*
X109355609Y-72136349D01*
X109506236Y-72057293D01*
X109633567Y-71944488D01*
X109730202Y-71804489D01*
X109790524Y-71645431D01*
X109811029Y-71476559D01*
X109790524Y-71307687D01*
X109730202Y-71148629D01*
X109692526Y-71094046D01*
X109633569Y-71008632D01*
X109633567Y-71008630D01*
X109547358Y-70932256D01*
X109506236Y-70895825D01*
X109355606Y-70816767D01*
X109190446Y-70776059D01*
X109190440Y-70776059D01*
X109020328Y-70776059D01*
X109020321Y-70776059D01*
X108855159Y-70816768D01*
X108715066Y-70890295D01*
X108666284Y-70894728D01*
X108628655Y-70863368D01*
X108624222Y-70814586D01*
X108632652Y-70797272D01*
X108669542Y-70743829D01*
X108729864Y-70584771D01*
X108750369Y-70415899D01*
X108729864Y-70247027D01*
X108669542Y-70087969D01*
X108572907Y-69947970D01*
X108572906Y-69947969D01*
X108539802Y-69918641D01*
X108518359Y-69874600D01*
X108518242Y-69870736D01*
X108518242Y-65976559D01*
X112107413Y-65976559D01*
X112126707Y-66270932D01*
X112126709Y-66270949D01*
X112184258Y-66560273D01*
X112184261Y-66560285D01*
X112279086Y-66839626D01*
X112279093Y-66839643D01*
X112409569Y-67104223D01*
X112540051Y-67299503D01*
X112573469Y-67349516D01*
X112767984Y-67571317D01*
X112989785Y-67765832D01*
X113235077Y-67929731D01*
X113499665Y-68060211D01*
X113499674Y-68060214D01*
X113779015Y-68155039D01*
X113779027Y-68155042D01*
X114068351Y-68212591D01*
X114068353Y-68212591D01*
X114068362Y-68212593D01*
X114362742Y-68231888D01*
X114657122Y-68212593D01*
X114664647Y-68211096D01*
X114946456Y-68155042D01*
X114946468Y-68155039D01*
X115093761Y-68105039D01*
X115225819Y-68060211D01*
X115490407Y-67929731D01*
X115735699Y-67765832D01*
X115957500Y-67571317D01*
X116152015Y-67349516D01*
X116315914Y-67104224D01*
X116446394Y-66839636D01*
X116541223Y-66560281D01*
X116551169Y-66510281D01*
X116598774Y-66270949D01*
X116598773Y-66270949D01*
X116598776Y-66270939D01*
X116618071Y-65976559D01*
X116598776Y-65682179D01*
X116588831Y-65632179D01*
X116541225Y-65392844D01*
X116541222Y-65392832D01*
X116446397Y-65113489D01*
X116446396Y-65113488D01*
X116446394Y-65113482D01*
X116315914Y-64848895D01*
X116152015Y-64603602D01*
X115957500Y-64381801D01*
X115735699Y-64187286D01*
X115660869Y-64137286D01*
X115490406Y-64023386D01*
X115225826Y-63892910D01*
X115225809Y-63892903D01*
X114946468Y-63798078D01*
X114946456Y-63798075D01*
X114657132Y-63740526D01*
X114657115Y-63740524D01*
X114362742Y-63721230D01*
X114068368Y-63740524D01*
X114068351Y-63740526D01*
X113779027Y-63798075D01*
X113779015Y-63798078D01*
X113499672Y-63892903D01*
X113499671Y-63892904D01*
X113235078Y-64023386D01*
X112989797Y-64187277D01*
X112989782Y-64187288D01*
X112767986Y-64381799D01*
X112767982Y-64381803D01*
X112573471Y-64603599D01*
X112573460Y-64603614D01*
X112409569Y-64848895D01*
X112279087Y-65113488D01*
X112279086Y-65113489D01*
X112184261Y-65392832D01*
X112184258Y-65392844D01*
X112126709Y-65682168D01*
X112126707Y-65682185D01*
X112107413Y-65976559D01*
X108518242Y-65976559D01*
X108518242Y-62531903D01*
X108518235Y-62529172D01*
X108518235Y-62529171D01*
X108518229Y-62528025D01*
X108518229Y-62528024D01*
X108518213Y-62525836D01*
X108518213Y-62525830D01*
X108509162Y-62466870D01*
X108496382Y-62383617D01*
X108485774Y-62348722D01*
X108490545Y-62299974D01*
X108528391Y-62268876D01*
X108531665Y-62267975D01*
X108564877Y-62259790D01*
X108715504Y-62180734D01*
X108842835Y-62067929D01*
X108939470Y-61927930D01*
X108999792Y-61768872D01*
X109010809Y-61678142D01*
X109020297Y-61600003D01*
X109020297Y-61599996D01*
X109001408Y-61444439D01*
X108999792Y-61431128D01*
X108939470Y-61272070D01*
X108928616Y-61256345D01*
X108842837Y-61132073D01*
X108842835Y-61132071D01*
X108715502Y-61019264D01*
X108650627Y-60985214D01*
X108619267Y-60947584D01*
X108616370Y-60928545D01*
X108616370Y-60605403D01*
X110412242Y-60605403D01*
X110443004Y-60760054D01*
X110443005Y-60760060D01*
X110489795Y-60873018D01*
X110503348Y-60905738D01*
X110503349Y-60905740D01*
X110503351Y-60905743D01*
X110554481Y-60982265D01*
X110564037Y-61005334D01*
X110573875Y-61054790D01*
X110573875Y-61054791D01*
X110589902Y-61078776D01*
X110618190Y-61121111D01*
X110684511Y-61165426D01*
X110729667Y-61174408D01*
X110733965Y-61175263D01*
X110757035Y-61184819D01*
X110826480Y-61231220D01*
X110833563Y-61235953D01*
X110897098Y-61262270D01*
X110979240Y-61296295D01*
X110979244Y-61296295D01*
X110979245Y-61296296D01*
X111017908Y-61303986D01*
X111133897Y-61327059D01*
X111133900Y-61327059D01*
X111291587Y-61327059D01*
X111384377Y-61308601D01*
X111446239Y-61296296D01*
X111446240Y-61296295D01*
X111446243Y-61296295D01*
X111504731Y-61272068D01*
X111591921Y-61235953D01*
X111668450Y-61184817D01*
X111691516Y-61175263D01*
X111740973Y-61165426D01*
X111807294Y-61121111D01*
X111851609Y-61054790D01*
X111861446Y-61005333D01*
X111871002Y-60982265D01*
X111922136Y-60905738D01*
X111961611Y-60810434D01*
X111982478Y-60760060D01*
X111982479Y-60760054D01*
X112013242Y-60605403D01*
X112013242Y-59347714D01*
X111982479Y-59193063D01*
X111982478Y-59193057D01*
X111948453Y-59110915D01*
X111922136Y-59047380D01*
X111871001Y-58970851D01*
X111861446Y-58947782D01*
X111855614Y-58918464D01*
X111851609Y-58898328D01*
X111807294Y-58832007D01*
X111740973Y-58787692D01*
X111691517Y-58777854D01*
X111668448Y-58768298D01*
X111591926Y-58717168D01*
X111591923Y-58717166D01*
X111591921Y-58717165D01*
X111549274Y-58699500D01*
X111446243Y-58656822D01*
X111446237Y-58656821D01*
X111291587Y-58626059D01*
X111291584Y-58626059D01*
X111133900Y-58626059D01*
X111133897Y-58626059D01*
X110979246Y-58656821D01*
X110979240Y-58656822D01*
X110833565Y-58717164D01*
X110833556Y-58717168D01*
X110757035Y-58768298D01*
X110733966Y-58777854D01*
X110684510Y-58787692D01*
X110684509Y-58787692D01*
X110618190Y-58832007D01*
X110573875Y-58898326D01*
X110573875Y-58898327D01*
X110564037Y-58947783D01*
X110554481Y-58970852D01*
X110503351Y-59047373D01*
X110503347Y-59047382D01*
X110443005Y-59193057D01*
X110443004Y-59193063D01*
X110412242Y-59347714D01*
X110412242Y-60605403D01*
X108616370Y-60605403D01*
X108616370Y-57116247D01*
X108635115Y-57070992D01*
X108650625Y-57059579D01*
X108800852Y-56980734D01*
X108928183Y-56867929D01*
X109024818Y-56727930D01*
X109085140Y-56568872D01*
X109095850Y-56480668D01*
X109105645Y-56400003D01*
X109105645Y-56399996D01*
X109085140Y-56231129D01*
X109083837Y-56227694D01*
X109024818Y-56072070D01*
X109015446Y-56058492D01*
X108928185Y-55932073D01*
X108928183Y-55932071D01*
X108800852Y-55819266D01*
X108650222Y-55740208D01*
X108485062Y-55699500D01*
X108485056Y-55699500D01*
X108314944Y-55699500D01*
X108314937Y-55699500D01*
X108149777Y-55740208D01*
X107999148Y-55819266D01*
X107871816Y-55932071D01*
X107871814Y-55932073D01*
X107775182Y-56072068D01*
X107714859Y-56231129D01*
X107694355Y-56399996D01*
X107694355Y-56400003D01*
X107714859Y-56568870D01*
X107775182Y-56727931D01*
X107871814Y-56867926D01*
X107871816Y-56867928D01*
X107871817Y-56867929D01*
X107993810Y-56976005D01*
X108015253Y-57020045D01*
X108015370Y-57023909D01*
X108015370Y-60927267D01*
X107996625Y-60972522D01*
X107981113Y-60983936D01*
X107913800Y-61019266D01*
X107786469Y-61132071D01*
X107700688Y-61256345D01*
X107659553Y-61282940D01*
X107621430Y-61278204D01*
X107518559Y-61231223D01*
X107518551Y-61231220D01*
X107451515Y-61211536D01*
X107451510Y-61211535D01*
X107451509Y-61211535D01*
X107309093Y-61191059D01*
X107309091Y-61191059D01*
X101838759Y-61191059D01*
X101793504Y-61172314D01*
X101774759Y-61127059D01*
X101793504Y-61081804D01*
X101803203Y-61073845D01*
X101805512Y-61072301D01*
X101807294Y-61071111D01*
X101851609Y-61004790D01*
X101861446Y-60955333D01*
X101871002Y-60932265D01*
X101922136Y-60855738D01*
X101961769Y-60760054D01*
X101982478Y-60710060D01*
X101982479Y-60710054D01*
X102013242Y-60555403D01*
X102013242Y-59297714D01*
X101982479Y-59143063D01*
X101982478Y-59143057D01*
X101942847Y-59047382D01*
X101922136Y-58997380D01*
X101871001Y-58920851D01*
X101861446Y-58897782D01*
X101851609Y-58848328D01*
X101847206Y-58841739D01*
X101840453Y-58831632D01*
X101807294Y-58782007D01*
X101740973Y-58737692D01*
X101691517Y-58727854D01*
X101668448Y-58718298D01*
X101591926Y-58667168D01*
X101591923Y-58667166D01*
X101591921Y-58667165D01*
X101566948Y-58656821D01*
X101446243Y-58606822D01*
X101446237Y-58606821D01*
X101291587Y-58576059D01*
X101291584Y-58576059D01*
X101133900Y-58576059D01*
X101133897Y-58576059D01*
X100979246Y-58606821D01*
X100979240Y-58606822D01*
X100833565Y-58667164D01*
X100833556Y-58667168D01*
X100757035Y-58718298D01*
X100733966Y-58727854D01*
X100684510Y-58737692D01*
X100684509Y-58737692D01*
X100618190Y-58782007D01*
X100573875Y-58848326D01*
X100573875Y-58848327D01*
X100564037Y-58897783D01*
X100554481Y-58920852D01*
X100503351Y-58997373D01*
X100503347Y-58997382D01*
X100443005Y-59143057D01*
X100443004Y-59143063D01*
X100412242Y-59297714D01*
X100412242Y-60555403D01*
X100443004Y-60710054D01*
X100443005Y-60710060D01*
X100494137Y-60833501D01*
X100503348Y-60855738D01*
X100503349Y-60855740D01*
X100503351Y-60855743D01*
X100554481Y-60932265D01*
X100564037Y-60955334D01*
X100573875Y-61004790D01*
X100573875Y-61004791D01*
X100618190Y-61071111D01*
X100618191Y-61071112D01*
X100622281Y-61073845D01*
X100649495Y-61114573D01*
X100639939Y-61162615D01*
X100599211Y-61189829D01*
X100586725Y-61191059D01*
X94916728Y-61191059D01*
X94809287Y-61202611D01*
X94809277Y-61202613D01*
X94757781Y-61213816D01*
X94655235Y-61247947D01*
X94534193Y-61325738D01*
X94481397Y-61371486D01*
X94481392Y-61371491D01*
X94387175Y-61480223D01*
X94327407Y-61611090D01*
X94327404Y-61611098D01*
X94308049Y-61677014D01*
X94307785Y-61677854D01*
X94307719Y-61678136D01*
X94307718Y-61678141D01*
X94307718Y-61678142D01*
X94294674Y-61768870D01*
X94287242Y-61820559D01*
X94287242Y-77085707D01*
X94287243Y-77085724D01*
X94303407Y-77212522D01*
X94303409Y-77212534D01*
X94303410Y-77212537D01*
X94307455Y-77228145D01*
X94319018Y-77272761D01*
X94319022Y-77272771D01*
X94353678Y-77359440D01*
X94366484Y-77391465D01*
X94453555Y-77506008D01*
X94453557Y-77506010D01*
X94453558Y-77506011D01*
X94503323Y-77555048D01*
X94570549Y-77604602D01*
X94619137Y-77640418D01*
X94728085Y-77680141D01*
X94764181Y-77713254D01*
X94766290Y-77762192D01*
X94752714Y-77784188D01*
X94600444Y-77945586D01*
X94391723Y-78225947D01*
X94216966Y-78528636D01*
X94078530Y-78849568D01*
X94078525Y-78849582D01*
X93978290Y-79184390D01*
X93978285Y-79184410D01*
X93917593Y-79528609D01*
X93897270Y-79877541D01*
X84573355Y-79877541D01*
X84573355Y-65926559D01*
X88607413Y-65926559D01*
X88626707Y-66220932D01*
X88626709Y-66220949D01*
X88684258Y-66510273D01*
X88684261Y-66510285D01*
X88779086Y-66789626D01*
X88779093Y-66789643D01*
X88909569Y-67054223D01*
X89073460Y-67299503D01*
X89073469Y-67299516D01*
X89267984Y-67521317D01*
X89489785Y-67715832D01*
X89735077Y-67879731D01*
X89999665Y-68010211D01*
X89999674Y-68010214D01*
X90279015Y-68105039D01*
X90279027Y-68105042D01*
X90568351Y-68162591D01*
X90568353Y-68162591D01*
X90568362Y-68162593D01*
X90862742Y-68181888D01*
X91157122Y-68162593D01*
X91195099Y-68155039D01*
X91446456Y-68105042D01*
X91446468Y-68105039D01*
X91579317Y-68059941D01*
X91725819Y-68010211D01*
X91990407Y-67879731D01*
X92235699Y-67715832D01*
X92457500Y-67521317D01*
X92652015Y-67299516D01*
X92815914Y-67054224D01*
X92946394Y-66789636D01*
X93041223Y-66510281D01*
X93074221Y-66344390D01*
X93098774Y-66220949D01*
X93098773Y-66220949D01*
X93098776Y-66220939D01*
X93118071Y-65926559D01*
X93098776Y-65632179D01*
X93051170Y-65392844D01*
X93041225Y-65342844D01*
X93041222Y-65342832D01*
X92946397Y-65063489D01*
X92946396Y-65063488D01*
X92946394Y-65063482D01*
X92815914Y-64798895D01*
X92652015Y-64553602D01*
X92457500Y-64331801D01*
X92235699Y-64137286D01*
X92235686Y-64137277D01*
X91990406Y-63973386D01*
X91725826Y-63842910D01*
X91725809Y-63842903D01*
X91446468Y-63748078D01*
X91446456Y-63748075D01*
X91157132Y-63690526D01*
X91157115Y-63690524D01*
X90862742Y-63671230D01*
X90568368Y-63690524D01*
X90568351Y-63690526D01*
X90279027Y-63748075D01*
X90279015Y-63748078D01*
X89999672Y-63842903D01*
X89999671Y-63842904D01*
X89735078Y-63973386D01*
X89489797Y-64137277D01*
X89489782Y-64137288D01*
X89267986Y-64331799D01*
X89267982Y-64331803D01*
X89073471Y-64553599D01*
X89073460Y-64553614D01*
X88909569Y-64798895D01*
X88779087Y-65063488D01*
X88779086Y-65063489D01*
X88684261Y-65342832D01*
X88684258Y-65342844D01*
X88626709Y-65632168D01*
X88626707Y-65632185D01*
X88607413Y-65926559D01*
X84573355Y-65926559D01*
X84573355Y-60555403D01*
X86912242Y-60555403D01*
X86943004Y-60710054D01*
X86943005Y-60710060D01*
X86994137Y-60833501D01*
X87003348Y-60855738D01*
X87003349Y-60855740D01*
X87003351Y-60855743D01*
X87054481Y-60932265D01*
X87064037Y-60955334D01*
X87073875Y-61004790D01*
X87073875Y-61004791D01*
X87090980Y-61030389D01*
X87118190Y-61071111D01*
X87184511Y-61115426D01*
X87233965Y-61125263D01*
X87257035Y-61134819D01*
X87313151Y-61172314D01*
X87333563Y-61185953D01*
X87395324Y-61211535D01*
X87479240Y-61246295D01*
X87479244Y-61246295D01*
X87479245Y-61246296D01*
X87491351Y-61248704D01*
X87633897Y-61277059D01*
X87633900Y-61277059D01*
X87791587Y-61277059D01*
X87886092Y-61258260D01*
X87946239Y-61246296D01*
X87946240Y-61246295D01*
X87946243Y-61246295D01*
X88024648Y-61213818D01*
X88091921Y-61185953D01*
X88168450Y-61134817D01*
X88191516Y-61125263D01*
X88240973Y-61115426D01*
X88307294Y-61071111D01*
X88351609Y-61004790D01*
X88361446Y-60955333D01*
X88371002Y-60932265D01*
X88422136Y-60855738D01*
X88461769Y-60760054D01*
X88482478Y-60710060D01*
X88482479Y-60710054D01*
X88513242Y-60555403D01*
X88513242Y-59297714D01*
X88482479Y-59143063D01*
X88482478Y-59143057D01*
X88442847Y-59047382D01*
X88422136Y-58997380D01*
X88371001Y-58920851D01*
X88361446Y-58897782D01*
X88351609Y-58848328D01*
X88347206Y-58841739D01*
X88340453Y-58831632D01*
X88307294Y-58782007D01*
X88240973Y-58737692D01*
X88191517Y-58727854D01*
X88168448Y-58718298D01*
X88091926Y-58667168D01*
X88091923Y-58667166D01*
X88091921Y-58667165D01*
X88066948Y-58656821D01*
X87946243Y-58606822D01*
X87946237Y-58606821D01*
X87791587Y-58576059D01*
X87791584Y-58576059D01*
X87633900Y-58576059D01*
X87633897Y-58576059D01*
X87479246Y-58606821D01*
X87479240Y-58606822D01*
X87333565Y-58667164D01*
X87333556Y-58667168D01*
X87257035Y-58718298D01*
X87233966Y-58727854D01*
X87184510Y-58737692D01*
X87184509Y-58737692D01*
X87118190Y-58782007D01*
X87073875Y-58848326D01*
X87073875Y-58848327D01*
X87064037Y-58897783D01*
X87054481Y-58920852D01*
X87003351Y-58997373D01*
X87003347Y-58997382D01*
X86943005Y-59143057D01*
X86943004Y-59143063D01*
X86912242Y-59297714D01*
X86912242Y-60555403D01*
X84573355Y-60555403D01*
X84573355Y-59670314D01*
X84573477Y-59668452D01*
X84573477Y-59600692D01*
X84573538Y-59597900D01*
X84576343Y-59533652D01*
X84590473Y-59210003D01*
X84590960Y-59204450D01*
X84599042Y-59143062D01*
X84641455Y-58820892D01*
X84642418Y-58815428D01*
X84726155Y-58437711D01*
X84727599Y-58432323D01*
X84766766Y-58308099D01*
X84843937Y-58063341D01*
X84845832Y-58058134D01*
X84993886Y-57700693D01*
X84996223Y-57695679D01*
X85174878Y-57352481D01*
X85177656Y-57347670D01*
X85385529Y-57021369D01*
X85388707Y-57016830D01*
X85624227Y-56709888D01*
X85627812Y-56705617D01*
X85636267Y-56696390D01*
X85889180Y-56420376D01*
X85893097Y-56416459D01*
X86178342Y-56155074D01*
X86182598Y-56151502D01*
X86489521Y-55915985D01*
X86494083Y-55912789D01*
X86820378Y-55704909D01*
X86825199Y-55702126D01*
X87168344Y-55523489D01*
X87173403Y-55521130D01*
X87176182Y-55519979D01*
X87530840Y-55373065D01*
X87536033Y-55371175D01*
X87905029Y-55254823D01*
X87910394Y-55253385D01*
X88288111Y-55169640D01*
X88293587Y-55168674D01*
X88677144Y-55118169D01*
X88682695Y-55117683D01*
X89071220Y-55100710D01*
X89073943Y-55100650D01*
X89137878Y-55100650D01*
X89140923Y-55100650D01*
X89143212Y-55100500D01*
X151765827Y-55100500D01*
X151811082Y-55119245D01*
G37*
%TD.AperFunction*%
%TD*%
%TA.AperFunction,NonConductor*%
G36*
X179080755Y-113919245D02*
G01*
X179099500Y-113964500D01*
X179099500Y-115385705D01*
X179080755Y-115430960D01*
X179035500Y-115449705D01*
X178990245Y-115430960D01*
X177818826Y-114259541D01*
X177818825Y-114259540D01*
X177770398Y-114231581D01*
X177770398Y-114231580D01*
X177770396Y-114231580D01*
X177750306Y-114219980D01*
X177750303Y-114219979D01*
X177673880Y-114199500D01*
X177673876Y-114199500D01*
X153377341Y-114199500D01*
X153332086Y-114180755D01*
X153324670Y-114171856D01*
X153317268Y-114161133D01*
X153268587Y-114090606D01*
X153228185Y-114032073D01*
X153228183Y-114032071D01*
X153226141Y-114030262D01*
X153205983Y-114012404D01*
X153184541Y-113968364D01*
X153200519Y-113922060D01*
X153244560Y-113900617D01*
X153248424Y-113900500D01*
X179035500Y-113900500D01*
X179080755Y-113919245D01*
G37*
%TD.AperFunction*%
%TA.AperFunction,Conductor*%
%TO.N,Net-(D5-A)*%
G36*
X153972219Y-61954500D02*
G01*
X154018180Y-62007125D01*
X154023518Y-62020757D01*
X154040077Y-62071721D01*
X154040079Y-62071725D01*
X154134725Y-62235657D01*
X154261387Y-62376329D01*
X154379134Y-62461877D01*
X154421800Y-62517207D01*
X154430249Y-62562042D01*
X154448657Y-77462784D01*
X154429055Y-77529848D01*
X154376308Y-77575668D01*
X154324657Y-77586937D01*
X154160558Y-77586937D01*
X154128101Y-77593835D01*
X153975401Y-77626292D01*
X153975396Y-77626294D01*
X153802474Y-77703285D01*
X153802469Y-77703288D01*
X153649333Y-77814548D01*
X153522670Y-77955222D01*
X153428025Y-78119152D01*
X153428022Y-78119159D01*
X153369531Y-78299177D01*
X153369530Y-78299181D01*
X153356224Y-78425784D01*
X153356119Y-78426782D01*
X153329534Y-78491396D01*
X153272237Y-78531381D01*
X153231558Y-78537814D01*
X149449962Y-78500000D01*
X141824215Y-78549197D01*
X141757050Y-78529946D01*
X141710955Y-78477438D01*
X141699416Y-78425784D01*
X141622763Y-62107071D01*
X141642133Y-62039944D01*
X141694721Y-61993942D01*
X141746277Y-61982494D01*
X153905106Y-61935077D01*
X153972219Y-61954500D01*
G37*
%TD.AperFunction*%
%TD*%
%TA.AperFunction,Conductor*%
%TO.N,Net-(D4-A)*%
G36*
X131271329Y-61603850D02*
G01*
X131317224Y-61656532D01*
X131325856Y-61682557D01*
X131327066Y-61688252D01*
X131385560Y-61868277D01*
X131385563Y-61868284D01*
X131480209Y-62032216D01*
X131606871Y-62172888D01*
X131765269Y-62287971D01*
X131763718Y-62290105D01*
X131803847Y-62332175D01*
X131817642Y-62388877D01*
X131834322Y-77401956D01*
X131814712Y-77469018D01*
X131761959Y-77514831D01*
X131709858Y-77526093D01*
X118585024Y-77477016D01*
X118518059Y-77457081D01*
X118472502Y-77404106D01*
X118461494Y-77354282D01*
X118412794Y-72581698D01*
X118413118Y-72571413D01*
X118712742Y-68476559D01*
X118712742Y-61741236D01*
X118732427Y-61674197D01*
X118785231Y-61628442D01*
X118836411Y-61617236D01*
X131204240Y-61584343D01*
X131271329Y-61603850D01*
G37*
%TD.AperFunction*%
%TD*%
%TA.AperFunction,Conductor*%
%TO.N,Net-(D3-A)*%
G36*
X107376132Y-61716244D02*
G01*
X107421887Y-61769048D01*
X107427024Y-61782241D01*
X107487470Y-61968278D01*
X107487473Y-61968284D01*
X107582119Y-62132216D01*
X107708781Y-62272888D01*
X107861917Y-62384148D01*
X107861919Y-62384149D01*
X107861922Y-62384151D01*
X107939180Y-62418549D01*
X107992414Y-62463796D01*
X108012736Y-62530645D01*
X108012742Y-62531826D01*
X108012742Y-74075197D01*
X107993057Y-74142236D01*
X107976423Y-74162878D01*
X102110590Y-80028710D01*
X102049267Y-80062195D01*
X102023107Y-80065029D01*
X100328994Y-80067730D01*
X100261923Y-80048152D01*
X100216084Y-79995421D01*
X100204978Y-79937016D01*
X100208203Y-79877542D01*
X100208203Y-79877538D01*
X100205723Y-79831807D01*
X100188827Y-79520170D01*
X100130926Y-79166989D01*
X100035179Y-78822138D01*
X99902708Y-78489661D01*
X99735066Y-78173456D01*
X99534220Y-77877230D01*
X99534216Y-77877225D01*
X99534213Y-77877221D01*
X99302523Y-77604455D01*
X99042692Y-77358330D01*
X99042685Y-77358324D01*
X99042682Y-77358322D01*
X98975100Y-77306948D01*
X98757774Y-77141741D01*
X98451108Y-76957226D01*
X98451107Y-76957225D01*
X98451103Y-76957223D01*
X98451099Y-76957221D01*
X98126302Y-76806955D01*
X98126296Y-76806952D01*
X98126290Y-76806950D01*
X97956709Y-76749811D01*
X97787128Y-76692672D01*
X97437599Y-76615735D01*
X97081804Y-76577041D01*
X97081803Y-76577041D01*
X96723907Y-76577041D01*
X96723905Y-76577041D01*
X96368110Y-76615735D01*
X96018581Y-76692672D01*
X95762825Y-76778847D01*
X95679420Y-76806950D01*
X95679418Y-76806951D01*
X95679407Y-76806955D01*
X95354610Y-76957221D01*
X95354605Y-76957223D01*
X95047933Y-77141742D01*
X94991782Y-77184426D01*
X94926500Y-77209325D01*
X94858119Y-77194977D01*
X94808351Y-77145938D01*
X94792742Y-77085713D01*
X94792742Y-61820558D01*
X94812427Y-61753520D01*
X94865231Y-61707765D01*
X94916742Y-61696559D01*
X107309093Y-61696559D01*
X107376132Y-61716244D01*
G37*
%TD.AperFunction*%
%TD*%
M02*
