M48
; DRILL file {KiCad 7.0.6-0} date 2023 August 20, Sunday 12:25:09
; FORMAT={-:-/ absolute / inch / decimal}
; #@! TF.CreationDate,2023-08-20T12:25:09+10:00
; #@! TF.GenerationSoftware,Kicad,Pcbnew,7.0.6-0
; #@! TF.FileFunction,Plated,1,2,PTH
FMAT,2
INCH
; #@! TA.AperFunction,Plated,PTH,ComponentDrill
T1C0.0118
; #@! TA.AperFunction,Plated,PTH,ViaDrill
T2C0.0157
; #@! TA.AperFunction,Plated,PTH,ComponentDrill
T3C0.0236
; #@! TA.AperFunction,Plated,PTH,ComponentDrill
T4C0.1063
; #@! TA.AperFunction,Plated,PTH,ComponentDrill
T5C0.1260
; #@! TA.AperFunction,Plated,PTH,ComponentDrill
T6C0.1535
%
G90
G05
T1
X4.437Y-3.4055
X4.437Y-3.4567
X4.437Y-3.5079
X4.5122Y-3.4055
X4.5122Y-3.4567
X4.5122Y-3.5079
X4.9679Y-3.3659
X4.9679Y-3.4171
X4.9679Y-3.4683
X5.0431Y-3.3659
X5.0431Y-3.4171
X5.0431Y-3.4683
T2
X3.437Y-3.7402
X3.437Y-3.7992
X3.437Y-3.8583
X3.4882Y-3.2205
X3.4961Y-3.7402
X3.4961Y-3.7992
X3.4961Y-3.8583
X3.5551Y-3.7402
X3.5551Y-3.7992
X3.5551Y-3.8583
X3.8583Y-3.7205
X4.0039Y-3.2598
X4.189Y-3.5118
X4.248Y-3.7205
X4.3878Y-4.124
X4.4038Y-4.7646
X4.4038Y-4.8236
X4.4038Y-4.8827
X4.4629Y-4.7646
X4.4629Y-4.8236
X4.4629Y-4.8827
X4.5219Y-4.8237
X4.5219Y-4.8827
X4.5219Y-4.7646
X4.6457Y-3.4213
X4.7126Y-3.4213
X4.7598Y-3.378
X4.8575Y-3.4913
X5.1099Y-3.5945
X5.1102Y-4.1535
X5.1693Y-4.6772
X5.1827Y-4.815
X5.1827Y-4.874
X5.1827Y-4.9331
X5.2468Y-4.8145
X5.2468Y-4.8735
X5.2468Y-4.9326
X5.2596Y-3.3888
X5.3051Y-3.3563
X5.3059Y-4.8735
X5.3059Y-4.8145
X5.3059Y-4.9326
X5.5481Y-4.6746
X5.5639Y-4.8724
X5.5639Y-4.9315
X5.5639Y-4.8133
X5.623Y-4.8133
X5.623Y-4.8724
X5.623Y-4.9315
X5.682Y-4.8133
X5.682Y-4.8724
X5.682Y-4.9315
X6.0472Y-4.2323
X6.1555Y-4.687
X6.1725Y-4.8311
X6.1725Y-4.8901
X6.1725Y-4.9492
X6.2316Y-4.9492
X6.2316Y-4.8311
X6.2316Y-4.8901
X6.2874Y-3.5984
X6.2906Y-4.8311
X6.2906Y-4.8901
X6.2906Y-4.9492
X6.5512Y-3.4567
X6.5894Y-3.3511
X6.5896Y-3.2098
X6.6378Y-4.7874
X6.689Y-3.3504
X6.689Y-4.8228
X6.689Y-4.8819
X6.689Y-4.9409
X6.6929Y-3.252
X6.748Y-4.8228
X6.748Y-4.8819
X6.748Y-4.9409
X6.8071Y-4.8228
X6.8071Y-4.8819
X6.8071Y-4.9409
T4
X3.4665Y-5.2362
X3.75Y-5.2362
X4.498Y-5.2362
X4.7815Y-5.2362
X5.5295Y-5.2362
X5.813Y-5.2362
X6.4567Y-5.2382
X6.7067Y-3.9488
X6.7067Y-4.2323
X6.7402Y-5.2382
T5
X3.5492Y-2.6756
X3.5496Y-4.6953
X6.5094Y-2.6748
X6.5106Y-4.6969
T6
X6.4016Y-3.874
X6.4016Y-4.3031
T3
G00X3.3425Y-5.4941
M15
G01X3.3425Y-5.4508
M16
G05
G00X3.874Y-5.4941
M15
G01X3.874Y-5.4508
M16
G05
G00X4.374Y-5.4941
M15
G01X4.374Y-5.4508
M16
G05
G00X4.9055Y-5.4941
M15
G01X4.9055Y-5.4508
M16
G05
G00X5.4055Y-5.4941
M15
G01X5.4055Y-5.4508
M16
G05
G00X5.937Y-5.4941
M15
G01X5.937Y-5.4508
M16
G05
G00X6.3327Y-5.4961
M15
G01X6.3327Y-5.4528
M16
G05
G00X6.752Y-3.7165
M15
G01X6.7913Y-3.7165
M16
G05
G00X6.752Y-4.4606
M15
G01X6.7913Y-4.4606
M16
G05
G00X6.7657Y-3.1323
M15
G01X6.8091Y-3.1323
M16
G05
G00X6.7657Y-3.4724
M15
G01X6.8091Y-3.4724
M16
G05
G00X6.8642Y-5.4961
M15
G01X6.8642Y-5.4528
M16
G05
G00X6.9646Y-3.8248
M15
G01X6.9213Y-3.8248
M16
G05
G00X6.9646Y-4.3563
M15
G01X6.9213Y-4.3563
M16
G05
G00X6.937Y-3.1323
M15
G01X6.9685Y-3.1323
M16
G05
G00X6.937Y-3.4724
M15
G01X6.9685Y-3.4724
M16
G05
T0
M30
