%TF.GenerationSoftware,KiCad,Pcbnew,7.0.6-0*%
%TF.CreationDate,2023-08-20T12:25:08+10:00*%
%TF.ProjectId,rear_screen,72656172-5f73-4637-9265-656e2e6b6963,v0.1a*%
%TF.SameCoordinates,Original*%
%TF.FileFunction,Copper,L2,Bot*%
%TF.FilePolarity,Positive*%
%FSLAX46Y46*%
G04 Gerber Fmt 4.6, Leading zero omitted, Abs format (unit mm)*
G04 Created by KiCad (PCBNEW 7.0.6-0) date 2023-08-20 12:25:08*
%MOMM*%
%LPD*%
G01*
G04 APERTURE LIST*
G04 Aperture macros list*
%AMRoundRect*
0 Rectangle with rounded corners*
0 $1 Rounding radius*
0 $2 $3 $4 $5 $6 $7 $8 $9 X,Y pos of 4 corners*
0 Add a 4 corners polygon primitive as box body*
4,1,4,$2,$3,$4,$5,$6,$7,$8,$9,$2,$3,0*
0 Add four circle primitives for the rounded corners*
1,1,$1+$1,$2,$3*
1,1,$1+$1,$4,$5*
1,1,$1+$1,$6,$7*
1,1,$1+$1,$8,$9*
0 Add four rect primitives between the rounded corners*
20,1,$1+$1,$2,$3,$4,$5,0*
20,1,$1+$1,$4,$5,$6,$7,0*
20,1,$1+$1,$6,$7,$8,$9,0*
20,1,$1+$1,$8,$9,$2,$3,0*%
G04 Aperture macros list end*
%TA.AperFunction,ComponentPad*%
%ADD10R,0.900000X2.000000*%
%TD*%
%TA.AperFunction,ComponentPad*%
%ADD11RoundRect,1.025000X1.025000X1.025000X-1.025000X1.025000X-1.025000X-1.025000X1.025000X-1.025000X0*%
%TD*%
%TA.AperFunction,ComponentPad*%
%ADD12C,4.100000*%
%TD*%
%TA.AperFunction,ComponentPad*%
%ADD13C,5.600000*%
%TD*%
%TA.AperFunction,ComponentPad*%
%ADD14C,0.500000*%
%TD*%
%TA.AperFunction,SMDPad,CuDef*%
%ADD15R,2.410000X3.100000*%
%TD*%
%TA.AperFunction,ComponentPad*%
%ADD16O,2.100000X1.000000*%
%TD*%
%TA.AperFunction,ComponentPad*%
%ADD17O,1.800000X1.000000*%
%TD*%
%TA.AperFunction,ComponentPad*%
%ADD18C,4.916000*%
%TD*%
%TA.AperFunction,ComponentPad*%
%ADD19R,4.916000X4.916000*%
%TD*%
%TA.AperFunction,ComponentPad*%
%ADD20O,2.600000X1.300000*%
%TD*%
%TA.AperFunction,ComponentPad*%
%ADD21R,2.000000X0.900000*%
%TD*%
%TA.AperFunction,ComponentPad*%
%ADD22RoundRect,1.025000X-1.025000X1.025000X-1.025000X-1.025000X1.025000X-1.025000X1.025000X1.025000X0*%
%TD*%
%TA.AperFunction,ViaPad*%
%ADD23C,0.800000*%
%TD*%
%TA.AperFunction,Conductor*%
%ADD24C,0.400000*%
%TD*%
%TA.AperFunction,Conductor*%
%ADD25C,0.200000*%
%TD*%
G04 APERTURE END LIST*
D10*
%TO.P,J2,*%
%TO.N,*%
X98400000Y-139000000D03*
X84900000Y-139000000D03*
D11*
%TO.P,J2,1,Pin_1*%
%TO.N,Net-(D2-A)*%
X88050000Y-133000000D03*
D12*
%TO.P,J2,2,Pin_2*%
%TO.N,VIN*%
X95250000Y-133000000D03*
%TD*%
D13*
%TO.P,H1,1*%
%TO.N,N/C*%
X90150000Y-67960000D03*
%TD*%
D10*
%TO.P,J4,*%
%TO.N,*%
X150800000Y-139000000D03*
X137300000Y-139000000D03*
D11*
%TO.P,J4,1,Pin_1*%
%TO.N,Net-(D4-A)*%
X140450000Y-133000000D03*
D12*
%TO.P,J4,2,Pin_2*%
%TO.N,VIN*%
X147650000Y-133000000D03*
%TD*%
D14*
%TO.P,U2,9,TH*%
%TO.N,unconnected-(U2-TH-Pad9)*%
X126185712Y-85495111D03*
X126185712Y-86795111D03*
X126185712Y-88095111D03*
D15*
X127140712Y-86795111D03*
D14*
X128095712Y-85495111D03*
X128095712Y-86795111D03*
X128095712Y-88095111D03*
%TD*%
D16*
%TO.P,J13,S1,SHIELD*%
%TO.N,GND*%
X172400000Y-88200000D03*
D17*
X176600000Y-88200000D03*
D16*
X172400000Y-79560000D03*
D17*
X176600000Y-79560000D03*
%TD*%
D10*
%TO.P,J5,*%
%TO.N,*%
X174350000Y-139050000D03*
X160850000Y-139050000D03*
D11*
%TO.P,J5,1,Pin_1*%
%TO.N,Net-(D5-A)*%
X164000000Y-133050000D03*
D12*
%TO.P,J5,2,Pin_2*%
%TO.N,VIN*%
X171200000Y-133050000D03*
%TD*%
D14*
%TO.P,U1,9,TH*%
%TO.N,unconnected-(U1-TH-Pad9)*%
X112700000Y-86500000D03*
X112700000Y-87800000D03*
X112700000Y-89100000D03*
D15*
X113655000Y-87800000D03*
D14*
X114610000Y-86500000D03*
X114610000Y-87800000D03*
X114610000Y-89100000D03*
%TD*%
D18*
%TO.P,J6,1,Pin_1*%
%TO.N,GND*%
X162600000Y-98400000D03*
D19*
%TO.P,J6,2,Pin_2*%
%TO.N,VIN*%
X162600000Y-109300000D03*
D20*
%TO.P,J6,S1*%
%TO.N,N/C*%
X172000000Y-113300000D03*
%TO.P,J6,S2*%
X172000000Y-94400000D03*
%TD*%
D13*
%TO.P,H3,1*%
%TO.N,N/C*%
X165370000Y-119300000D03*
%TD*%
D21*
%TO.P,J1,*%
%TO.N,*%
X176350000Y-97150000D03*
X176350000Y-110650000D03*
D22*
%TO.P,J1,1,Pin_1*%
%TO.N,GND*%
X170350000Y-100300000D03*
D12*
%TO.P,J1,2,Pin_2*%
%TO.N,VIN*%
X170350000Y-107500000D03*
%TD*%
D13*
%TO.P,H2,1*%
%TO.N,N/C*%
X165339531Y-67939531D03*
%TD*%
D10*
%TO.P,J3,*%
%TO.N,*%
X124600000Y-139000000D03*
X111100000Y-139000000D03*
D11*
%TO.P,J3,1,Pin_1*%
%TO.N,Net-(D3-A)*%
X114250000Y-133000000D03*
D12*
%TO.P,J3,2,Pin_2*%
%TO.N,VIN*%
X121450000Y-133000000D03*
%TD*%
D13*
%TO.P,H4,1*%
%TO.N,N/C*%
X90160000Y-119260000D03*
%TD*%
D23*
%TO.N,GPIO11*%
X120900000Y-85800000D03*
X123380000Y-88680000D03*
%TO.N,GPIO13*%
X101700000Y-82800000D03*
X106400000Y-89200000D03*
%TO.N,Net-(D2-A)*%
X88800000Y-95000000D03*
X90300000Y-95000002D03*
X87300001Y-95000000D03*
X87300002Y-98000000D03*
X90300000Y-96500000D03*
X88800000Y-98000000D03*
X88800000Y-96500000D03*
X90300000Y-98000000D03*
X87300001Y-96500000D03*
%TO.N,Net-(D3-A)*%
X111856428Y-124020710D03*
X113356427Y-121020711D03*
X114856428Y-122520712D03*
X111856428Y-121020712D03*
X111856428Y-122520710D03*
X114856428Y-124020712D03*
X114856429Y-121020712D03*
X113356428Y-124020712D03*
X113356428Y-122520710D03*
%TO.N,Net-(D4-A)*%
X133269300Y-123787718D03*
X131640000Y-125300000D03*
X144323295Y-123759064D03*
X133269300Y-122287718D03*
X134769300Y-122287718D03*
X142823295Y-123759064D03*
X142823295Y-122259064D03*
X142823295Y-125259064D03*
X131640000Y-122300000D03*
X141323295Y-125259064D03*
X131640000Y-123800000D03*
X144323295Y-125259063D03*
X144323295Y-122259064D03*
X134769299Y-123787718D03*
X141323295Y-123759064D03*
X141323296Y-122259064D03*
X133269300Y-125287718D03*
X134769300Y-125287718D03*
%TO.N,Net-(D5-A)*%
X159781536Y-124209616D03*
X171400000Y-124000000D03*
X158281536Y-125709616D03*
X156781536Y-122709615D03*
X172900000Y-125500000D03*
X169900000Y-125500000D03*
X156781536Y-125709616D03*
X169900000Y-124000000D03*
X159781536Y-125709616D03*
X169900000Y-122500000D03*
X172900000Y-124000000D03*
X158281537Y-122709616D03*
X171400000Y-122500000D03*
X159781536Y-122709616D03*
X171400000Y-125500000D03*
X156781536Y-124209617D03*
X158281537Y-124209616D03*
X172900000Y-122500000D03*
%TO.N,VIN*%
X159700000Y-91400000D03*
X88600000Y-81800000D03*
X119700000Y-86900000D03*
X166400000Y-87800000D03*
X133595000Y-86075000D03*
%TO.N,Net-(J13-CC1)*%
X169900000Y-85100000D03*
X167370678Y-85117727D03*
%TO.N,Net-(J13-CC2)*%
X167375000Y-81530000D03*
X170000000Y-82600000D03*
%TO.N,Net-(Q1-G)*%
X168600000Y-121600000D03*
X156350000Y-119050000D03*
X153600000Y-107500000D03*
X134750000Y-85250000D03*
%TO.N,Net-(Q3-G)*%
X131300000Y-118800000D03*
X129800000Y-105500000D03*
X140921719Y-118734840D03*
X129790712Y-91300000D03*
%TO.N,Net-(Q7-G)*%
X107900000Y-94500000D03*
X98000000Y-94500000D03*
%TO.N,Net-(Q6-G)*%
X111450000Y-104750000D03*
X118000000Y-86900000D03*
%TD*%
D24*
%TO.N,GPIO11*%
X120900000Y-86200000D02*
X123380000Y-88680000D01*
X120900000Y-85800000D02*
X120900000Y-86200000D01*
%TO.N,GPIO13*%
X106400000Y-87500000D02*
X106400000Y-89200000D01*
X101700000Y-82800000D02*
X106400000Y-87500000D01*
%TO.N,VIN*%
X160025000Y-91400000D02*
X162125000Y-89300000D01*
X163625000Y-87800000D02*
X166400000Y-87800000D01*
X159700000Y-91400000D02*
X160025000Y-91400000D01*
X162125000Y-89300000D02*
X163625000Y-87800000D01*
D25*
%TO.N,Net-(J13-CC1)*%
X169882273Y-85117727D02*
X167370678Y-85117727D01*
X169900000Y-85100000D02*
X169882273Y-85117727D01*
%TO.N,Net-(J13-CC2)*%
X168930000Y-81530000D02*
X167375000Y-81530000D01*
X170000000Y-82600000D02*
X168930000Y-81530000D01*
D24*
%TO.N,Net-(Q1-G)*%
X167700000Y-122500000D02*
X168600000Y-121600000D01*
X153600000Y-107500000D02*
X153600000Y-102600000D01*
X164044516Y-122500000D02*
X167700000Y-122500000D01*
X156350000Y-119050000D02*
X160594516Y-119050000D01*
X160594516Y-119050000D02*
X164044516Y-122500000D01*
X153600000Y-102600000D02*
X136250000Y-85250000D01*
X136250000Y-85250000D02*
X134750000Y-85250000D01*
%TO.N,Net-(Q3-G)*%
X131300000Y-118800000D02*
X131365160Y-118734840D01*
X129750000Y-105000000D02*
X129800000Y-105050000D01*
X129800000Y-105050000D02*
X129800000Y-105500000D01*
X131365160Y-118734840D02*
X140921719Y-118734840D01*
X129790712Y-91300000D02*
X129750000Y-91340712D01*
X129750000Y-91340712D02*
X129750000Y-105000000D01*
%TO.N,Net-(Q7-G)*%
X107900000Y-94500000D02*
X98000000Y-94500000D01*
%TO.N,Net-(Q6-G)*%
X111450000Y-99350000D02*
X111450000Y-104750000D01*
X118000000Y-92800000D02*
X111450000Y-99350000D01*
X118000000Y-86900000D02*
X118000000Y-92800000D01*
%TD*%
%TA.AperFunction,Conductor*%
%TO.N,Net-(D2-A)*%
G36*
X91272524Y-92619685D02*
G01*
X91318279Y-92672489D01*
X91329484Y-92724514D01*
X91233142Y-115966653D01*
X91213180Y-116033610D01*
X91160186Y-116079146D01*
X91090987Y-116088803D01*
X91069549Y-116083648D01*
X91044273Y-116075131D01*
X90694744Y-115998194D01*
X90338949Y-115959500D01*
X90338948Y-115959500D01*
X89981052Y-115959500D01*
X89981050Y-115959500D01*
X89625255Y-115998194D01*
X89275726Y-116075131D01*
X89019970Y-116161306D01*
X88936565Y-116189409D01*
X88936562Y-116189410D01*
X88936563Y-116189410D01*
X88936552Y-116189414D01*
X88611755Y-116339680D01*
X88611751Y-116339682D01*
X88383367Y-116477096D01*
X88305081Y-116524200D01*
X88216768Y-116591333D01*
X88020172Y-116740781D01*
X88020163Y-116740789D01*
X87760331Y-116986914D01*
X87528641Y-117259680D01*
X87528634Y-117259690D01*
X87327790Y-117555913D01*
X87327784Y-117555922D01*
X87160151Y-117872111D01*
X87160142Y-117872129D01*
X87027674Y-118204600D01*
X87027672Y-118204607D01*
X86931932Y-118549434D01*
X86931926Y-118549460D01*
X86874029Y-118902614D01*
X86874028Y-118902631D01*
X86854652Y-119259997D01*
X86854652Y-119260002D01*
X86874028Y-119617368D01*
X86874029Y-119617385D01*
X86931926Y-119970539D01*
X86931932Y-119970565D01*
X87027672Y-120315392D01*
X87027674Y-120315399D01*
X87160142Y-120647870D01*
X87160151Y-120647888D01*
X87327784Y-120964077D01*
X87327790Y-120964086D01*
X87528634Y-121260309D01*
X87528641Y-121260319D01*
X87760331Y-121533085D01*
X87760332Y-121533086D01*
X88020163Y-121779211D01*
X88305081Y-121995800D01*
X88611747Y-122180315D01*
X88611749Y-122180316D01*
X88611751Y-122180317D01*
X88611755Y-122180319D01*
X88936552Y-122330585D01*
X88936565Y-122330591D01*
X89275726Y-122444868D01*
X89625254Y-122521805D01*
X89981052Y-122560500D01*
X89981058Y-122560500D01*
X90338942Y-122560500D01*
X90338948Y-122560500D01*
X90694746Y-122521805D01*
X91044274Y-122444868D01*
X91044294Y-122444861D01*
X91047503Y-122443971D01*
X91047551Y-122444146D01*
X91047555Y-122444146D01*
X91047567Y-122444204D01*
X91047887Y-122445355D01*
X91111958Y-122442797D01*
X91172197Y-122478195D01*
X91203735Y-122540542D01*
X91205798Y-122563587D01*
X91131550Y-140476014D01*
X91111588Y-140542971D01*
X91058594Y-140588507D01*
X91007551Y-140599500D01*
X85756894Y-140599500D01*
X85689855Y-140579815D01*
X85644100Y-140527011D01*
X85634156Y-140457853D01*
X85663181Y-140394297D01*
X85682582Y-140376234D01*
X85707546Y-140357546D01*
X85793796Y-140242331D01*
X85844091Y-140107483D01*
X85850500Y-140047873D01*
X85850499Y-137952128D01*
X85844091Y-137892517D01*
X85793796Y-137757669D01*
X85793795Y-137757668D01*
X85793793Y-137757664D01*
X85707547Y-137642455D01*
X85707544Y-137642452D01*
X85592335Y-137556206D01*
X85592328Y-137556202D01*
X85457482Y-137505908D01*
X85457483Y-137505908D01*
X85397883Y-137499501D01*
X85397881Y-137499500D01*
X85397873Y-137499500D01*
X85397864Y-137499500D01*
X84402129Y-137499500D01*
X84402123Y-137499501D01*
X84342516Y-137505908D01*
X84207671Y-137556202D01*
X84207664Y-137556206D01*
X84092455Y-137642452D01*
X84092452Y-137642455D01*
X84006206Y-137757664D01*
X84006202Y-137757671D01*
X83955908Y-137892517D01*
X83949501Y-137952116D01*
X83949501Y-137952123D01*
X83949500Y-137952135D01*
X83949500Y-140047870D01*
X83949501Y-140047876D01*
X83955908Y-140107483D01*
X84006202Y-140242328D01*
X84006206Y-140242335D01*
X84092452Y-140357544D01*
X84092453Y-140357544D01*
X84092454Y-140357546D01*
X84117418Y-140376234D01*
X84159288Y-140432168D01*
X84164272Y-140501860D01*
X84130786Y-140563182D01*
X84069462Y-140596667D01*
X84043106Y-140599500D01*
X83700000Y-140599500D01*
X83310546Y-140582496D01*
X83305155Y-140582024D01*
X82921359Y-140531496D01*
X82916030Y-140530556D01*
X82538085Y-140446768D01*
X82532865Y-140445370D01*
X82313593Y-140376234D01*
X82163663Y-140328961D01*
X82158578Y-140327110D01*
X81913889Y-140225757D01*
X81800921Y-140178964D01*
X81796031Y-140176684D01*
X81452657Y-139997934D01*
X81447971Y-139995228D01*
X81121473Y-139787227D01*
X81117040Y-139784123D01*
X80809922Y-139548463D01*
X80805777Y-139544984D01*
X80520369Y-139283456D01*
X80516543Y-139279630D01*
X80255015Y-138994222D01*
X80251536Y-138990077D01*
X80015876Y-138682959D01*
X80012772Y-138678526D01*
X79804771Y-138352028D01*
X79802065Y-138347342D01*
X79623310Y-138003958D01*
X79621039Y-137999088D01*
X79472889Y-137641421D01*
X79471038Y-137636336D01*
X79445773Y-137556206D01*
X79354625Y-137267119D01*
X79353231Y-137261914D01*
X79269443Y-136883969D01*
X79268506Y-136878659D01*
X79217973Y-136494826D01*
X79217504Y-136489474D01*
X79200560Y-136101409D01*
X79200502Y-136098617D01*
X79263002Y-92723821D01*
X79282783Y-92656810D01*
X79335653Y-92611132D01*
X79387002Y-92600000D01*
X91205485Y-92600000D01*
X91272524Y-92619685D01*
G37*
%TD.AperFunction*%
%TD*%
%TA.AperFunction,Conductor*%
%TO.N,Net-(D5-A)*%
G36*
X174193517Y-120869980D02*
G01*
X174239548Y-120922544D01*
X174251021Y-120973620D01*
X174299457Y-126834316D01*
X174280327Y-126901516D01*
X174245965Y-126937347D01*
X167500000Y-131600000D01*
X167500000Y-140475500D01*
X167480315Y-140542539D01*
X167427511Y-140588294D01*
X167376000Y-140599500D01*
X161761571Y-140599500D01*
X161694532Y-140579815D01*
X161648777Y-140527011D01*
X161638833Y-140457853D01*
X161662305Y-140401189D01*
X161743793Y-140292335D01*
X161743792Y-140292335D01*
X161743796Y-140292331D01*
X161794091Y-140157483D01*
X161800500Y-140097873D01*
X161800499Y-138002128D01*
X161794091Y-137942517D01*
X161743796Y-137807669D01*
X161743795Y-137807668D01*
X161743793Y-137807664D01*
X161657547Y-137692455D01*
X161657544Y-137692452D01*
X161542335Y-137606206D01*
X161542328Y-137606202D01*
X161407482Y-137555908D01*
X161407483Y-137555908D01*
X161347883Y-137549501D01*
X161347881Y-137549500D01*
X161347873Y-137549500D01*
X161347864Y-137549500D01*
X160352129Y-137549500D01*
X160352123Y-137549501D01*
X160292516Y-137555908D01*
X160157671Y-137606202D01*
X160157664Y-137606206D01*
X160042455Y-137692452D01*
X160042452Y-137692455D01*
X159956206Y-137807664D01*
X159956202Y-137807671D01*
X159905908Y-137942517D01*
X159899560Y-138001571D01*
X159899501Y-138002123D01*
X159899500Y-138002135D01*
X159899500Y-140097870D01*
X159899501Y-140097876D01*
X159905908Y-140157483D01*
X159956202Y-140292328D01*
X159956206Y-140292335D01*
X160037695Y-140401189D01*
X160062113Y-140466653D01*
X160047262Y-140534926D01*
X159997857Y-140584332D01*
X159938429Y-140599500D01*
X155274000Y-140599500D01*
X155206961Y-140579815D01*
X155161206Y-140527011D01*
X155150000Y-140475500D01*
X155150000Y-121073352D01*
X155169685Y-121006313D01*
X155222489Y-120960558D01*
X155273350Y-120949354D01*
X161419028Y-120917177D01*
X161486163Y-120936509D01*
X161507352Y-120953493D01*
X163532915Y-122979056D01*
X163535451Y-122981750D01*
X163576587Y-123028183D01*
X163627646Y-123063427D01*
X163630628Y-123065621D01*
X163679459Y-123103877D01*
X163679463Y-123103880D01*
X163679462Y-123103880D01*
X163688693Y-123108034D01*
X163708247Y-123119062D01*
X163716582Y-123124816D01*
X163716584Y-123124816D01*
X163716586Y-123124818D01*
X163774595Y-123146817D01*
X163777992Y-123148224D01*
X163825286Y-123169509D01*
X163834580Y-123173693D01*
X163834581Y-123173693D01*
X163834585Y-123173695D01*
X163844550Y-123175521D01*
X163866172Y-123181548D01*
X163866183Y-123181552D01*
X163875644Y-123185140D01*
X163920767Y-123190618D01*
X163937190Y-123192613D01*
X163940887Y-123193175D01*
X164001910Y-123204358D01*
X164057268Y-123201009D01*
X164063819Y-123200613D01*
X164067564Y-123200500D01*
X167676952Y-123200500D01*
X167680697Y-123200613D01*
X167688042Y-123201057D01*
X167742606Y-123204358D01*
X167780314Y-123197447D01*
X167803621Y-123193177D01*
X167807325Y-123192613D01*
X167825170Y-123190446D01*
X167868872Y-123185140D01*
X167878335Y-123181550D01*
X167899961Y-123175522D01*
X167900893Y-123175351D01*
X167909932Y-123173695D01*
X167966512Y-123148229D01*
X167969942Y-123146809D01*
X168027930Y-123124818D01*
X168036266Y-123119062D01*
X168055821Y-123108034D01*
X168065057Y-123103878D01*
X168113896Y-123065613D01*
X168116876Y-123063421D01*
X168167929Y-123028183D01*
X168209065Y-122981748D01*
X168211599Y-122979056D01*
X168662976Y-122527680D01*
X168724295Y-122494198D01*
X168724304Y-122494195D01*
X168879803Y-122461144D01*
X168879807Y-122461142D01*
X168879808Y-122461142D01*
X168938058Y-122435206D01*
X169052730Y-122384151D01*
X169205871Y-122272888D01*
X169332533Y-122132216D01*
X169427179Y-121968284D01*
X169485674Y-121788256D01*
X169505460Y-121600000D01*
X169485674Y-121411744D01*
X169427179Y-121231716D01*
X169332533Y-121067784D01*
X169329284Y-121062156D01*
X169331637Y-121060797D01*
X169312183Y-121006311D01*
X169327993Y-120938254D01*
X169378087Y-120889548D01*
X169435323Y-120875207D01*
X174126376Y-120850647D01*
X174193517Y-120869980D01*
G37*
%TD.AperFunction*%
%TD*%
%TA.AperFunction,Conductor*%
%TO.N,Net-(D4-A)*%
G36*
X145493530Y-121120052D02*
G01*
X145539628Y-121172557D01*
X145551165Y-121223631D01*
X145599688Y-126366969D01*
X145583840Y-126428806D01*
X143300000Y-130499999D01*
X143300000Y-140475500D01*
X143280315Y-140542539D01*
X143227511Y-140588294D01*
X143176000Y-140599500D01*
X138156894Y-140599500D01*
X138089855Y-140579815D01*
X138044100Y-140527011D01*
X138034156Y-140457853D01*
X138063181Y-140394297D01*
X138082582Y-140376234D01*
X138107546Y-140357546D01*
X138193796Y-140242331D01*
X138244091Y-140107483D01*
X138250500Y-140047873D01*
X138250499Y-137952128D01*
X138244091Y-137892517D01*
X138193796Y-137757669D01*
X138193795Y-137757668D01*
X138193793Y-137757664D01*
X138107547Y-137642455D01*
X138107544Y-137642452D01*
X137992335Y-137556206D01*
X137992328Y-137556202D01*
X137857482Y-137505908D01*
X137857483Y-137505908D01*
X137797883Y-137499501D01*
X137797881Y-137499500D01*
X137797873Y-137499500D01*
X137797864Y-137499500D01*
X136802129Y-137499500D01*
X136802123Y-137499501D01*
X136742516Y-137505908D01*
X136607671Y-137556202D01*
X136607664Y-137556206D01*
X136492455Y-137642452D01*
X136492452Y-137642455D01*
X136406206Y-137757664D01*
X136406202Y-137757671D01*
X136355908Y-137892517D01*
X136349501Y-137952116D01*
X136349501Y-137952123D01*
X136349500Y-137952135D01*
X136349500Y-140047870D01*
X136349501Y-140047876D01*
X136355908Y-140107483D01*
X136406202Y-140242328D01*
X136406206Y-140242335D01*
X136492452Y-140357544D01*
X136492453Y-140357544D01*
X136492454Y-140357546D01*
X136517418Y-140376234D01*
X136559288Y-140432168D01*
X136564272Y-140501860D01*
X136530786Y-140563182D01*
X136469462Y-140596667D01*
X136443106Y-140599500D01*
X130302281Y-140599500D01*
X130235242Y-140579815D01*
X130189487Y-140527011D01*
X130178281Y-140475500D01*
X130178281Y-137499500D01*
X130178281Y-121323191D01*
X130197965Y-121256156D01*
X130250769Y-121210401D01*
X130301470Y-121199198D01*
X145426365Y-121100804D01*
X145493530Y-121120052D01*
G37*
%TD.AperFunction*%
%TD*%
%TA.AperFunction,Conductor*%
%TO.N,Net-(D3-A)*%
G36*
X117463039Y-119869685D02*
G01*
X117508794Y-119922489D01*
X117520000Y-119974000D01*
X117520000Y-140475500D01*
X117500315Y-140542539D01*
X117447511Y-140588294D01*
X117396000Y-140599500D01*
X111956894Y-140599500D01*
X111889855Y-140579815D01*
X111844100Y-140527011D01*
X111834156Y-140457853D01*
X111863181Y-140394297D01*
X111882582Y-140376234D01*
X111907546Y-140357546D01*
X111993796Y-140242331D01*
X112044091Y-140107483D01*
X112050500Y-140047873D01*
X112050499Y-137952128D01*
X112044091Y-137892517D01*
X111993796Y-137757669D01*
X111993795Y-137757668D01*
X111993793Y-137757664D01*
X111907547Y-137642455D01*
X111907544Y-137642452D01*
X111792335Y-137556206D01*
X111792328Y-137556202D01*
X111657482Y-137505908D01*
X111657483Y-137505908D01*
X111597883Y-137499501D01*
X111597881Y-137499500D01*
X111597873Y-137499500D01*
X111597864Y-137499500D01*
X110602129Y-137499500D01*
X110602123Y-137499501D01*
X110542516Y-137505908D01*
X110407671Y-137556202D01*
X110407664Y-137556206D01*
X110292455Y-137642452D01*
X110292452Y-137642455D01*
X110206206Y-137757664D01*
X110206202Y-137757671D01*
X110155908Y-137892517D01*
X110149501Y-137952116D01*
X110149501Y-137952123D01*
X110149500Y-137952135D01*
X110149500Y-140047870D01*
X110149501Y-140047876D01*
X110155908Y-140107483D01*
X110206202Y-140242328D01*
X110206206Y-140242335D01*
X110292452Y-140357544D01*
X110292453Y-140357544D01*
X110292454Y-140357546D01*
X110317418Y-140376234D01*
X110359288Y-140432168D01*
X110364272Y-140501860D01*
X110330786Y-140563182D01*
X110269462Y-140596667D01*
X110243106Y-140599500D01*
X105124000Y-140599500D01*
X105056961Y-140579815D01*
X105011206Y-140527011D01*
X105000000Y-140475500D01*
X105000000Y-119974000D01*
X105019685Y-119906961D01*
X105072489Y-119861206D01*
X105124000Y-119850000D01*
X117396000Y-119850000D01*
X117463039Y-119869685D01*
G37*
%TD.AperFunction*%
%TD*%
%TA.AperFunction,Conductor*%
%TO.N,VIN*%
G36*
X173589474Y-62217504D02*
G01*
X173594826Y-62217973D01*
X173978659Y-62268506D01*
X173983967Y-62269442D01*
X174361920Y-62353232D01*
X174367119Y-62354625D01*
X174736341Y-62471040D01*
X174741422Y-62472889D01*
X175099088Y-62621039D01*
X175103958Y-62623310D01*
X175447350Y-62802069D01*
X175452028Y-62804771D01*
X175778526Y-63012772D01*
X175782959Y-63015876D01*
X176090077Y-63251536D01*
X176094222Y-63255015D01*
X176379630Y-63516543D01*
X176383456Y-63520369D01*
X176644984Y-63805777D01*
X176648463Y-63809922D01*
X176884123Y-64117040D01*
X176887227Y-64121473D01*
X177095228Y-64447971D01*
X177097934Y-64452657D01*
X177265804Y-64775132D01*
X177276680Y-64796023D01*
X177278967Y-64800927D01*
X177427110Y-65158578D01*
X177428961Y-65163663D01*
X177545368Y-65532858D01*
X177546768Y-65538085D01*
X177630556Y-65916030D01*
X177631496Y-65921359D01*
X177682024Y-66305155D01*
X177682496Y-66310546D01*
X177699500Y-66700000D01*
X177699500Y-78590493D01*
X177679815Y-78657532D01*
X177627011Y-78703287D01*
X177557853Y-78713231D01*
X177504665Y-78692270D01*
X177503795Y-78691664D01*
X177488049Y-78680705D01*
X177301058Y-78600460D01*
X177301056Y-78600459D01*
X177101741Y-78559500D01*
X176149258Y-78559500D01*
X176149257Y-78559500D01*
X175997560Y-78574925D01*
X175803420Y-78635837D01*
X175803405Y-78635844D01*
X175625500Y-78734589D01*
X175625495Y-78734592D01*
X175471106Y-78867132D01*
X175471104Y-78867134D01*
X175346554Y-79028037D01*
X175346553Y-79028040D01*
X175256940Y-79210728D01*
X175205937Y-79407714D01*
X175195631Y-79610936D01*
X175226442Y-79812063D01*
X175226445Y-79812075D01*
X175297111Y-80002881D01*
X175297115Y-80002888D01*
X175404745Y-80175567D01*
X175404749Y-80175572D01*
X175477690Y-80252306D01*
X175544941Y-80323053D01*
X175634531Y-80385409D01*
X175711949Y-80439294D01*
X175711950Y-80439294D01*
X175711951Y-80439295D01*
X175898942Y-80519540D01*
X176098259Y-80560500D01*
X177050743Y-80560500D01*
X177202439Y-80545074D01*
X177396579Y-80484162D01*
X177396580Y-80484161D01*
X177396588Y-80484159D01*
X177515322Y-80418256D01*
X177583491Y-80402933D01*
X177649123Y-80426897D01*
X177691380Y-80482540D01*
X177699500Y-80526675D01*
X177699500Y-87230493D01*
X177679815Y-87297532D01*
X177627011Y-87343287D01*
X177557853Y-87353231D01*
X177504665Y-87332270D01*
X177503795Y-87331664D01*
X177488049Y-87320705D01*
X177301058Y-87240460D01*
X177301056Y-87240459D01*
X177101741Y-87199500D01*
X176149258Y-87199500D01*
X176149257Y-87199500D01*
X175997560Y-87214925D01*
X175803420Y-87275837D01*
X175803405Y-87275844D01*
X175625500Y-87374589D01*
X175625495Y-87374592D01*
X175471106Y-87507132D01*
X175471104Y-87507134D01*
X175346554Y-87668037D01*
X175346553Y-87668040D01*
X175256940Y-87850728D01*
X175205937Y-88047714D01*
X175195631Y-88250936D01*
X175226442Y-88452063D01*
X175226445Y-88452075D01*
X175297111Y-88642881D01*
X175297113Y-88642884D01*
X175297114Y-88642887D01*
X175312634Y-88667787D01*
X175404745Y-88815567D01*
X175404747Y-88815569D01*
X175404748Y-88815571D01*
X175544941Y-88963053D01*
X175659708Y-89042933D01*
X175711949Y-89079294D01*
X175711950Y-89079294D01*
X175711951Y-89079295D01*
X175898942Y-89159540D01*
X176098259Y-89200500D01*
X177050743Y-89200500D01*
X177202439Y-89185074D01*
X177396579Y-89124162D01*
X177396580Y-89124161D01*
X177396588Y-89124159D01*
X177515322Y-89058256D01*
X177583491Y-89042933D01*
X177649123Y-89066897D01*
X177691380Y-89122540D01*
X177699500Y-89166675D01*
X177699500Y-96117581D01*
X177679815Y-96184620D01*
X177627011Y-96230375D01*
X177557853Y-96240319D01*
X177532168Y-96233763D01*
X177457485Y-96205909D01*
X177457483Y-96205908D01*
X177397883Y-96199501D01*
X177397881Y-96199500D01*
X177397873Y-96199500D01*
X177397864Y-96199500D01*
X175302129Y-96199500D01*
X175302123Y-96199501D01*
X175242516Y-96205908D01*
X175107671Y-96256202D01*
X175107664Y-96256206D01*
X174992455Y-96342452D01*
X174992452Y-96342455D01*
X174906206Y-96457664D01*
X174906202Y-96457671D01*
X174855908Y-96592517D01*
X174849501Y-96652116D01*
X174849500Y-96652135D01*
X174849500Y-97647870D01*
X174849501Y-97647876D01*
X174855908Y-97707483D01*
X174906202Y-97842328D01*
X174906206Y-97842335D01*
X174992452Y-97957544D01*
X174992455Y-97957547D01*
X175107664Y-98043793D01*
X175107671Y-98043797D01*
X175242517Y-98094091D01*
X175242516Y-98094091D01*
X175248525Y-98094737D01*
X175302127Y-98100500D01*
X177397872Y-98100499D01*
X177457483Y-98094091D01*
X177457482Y-98094090D01*
X177532167Y-98066236D01*
X177601859Y-98061252D01*
X177663182Y-98094737D01*
X177696666Y-98156061D01*
X177699500Y-98182418D01*
X177699500Y-109617581D01*
X177679815Y-109684620D01*
X177627011Y-109730375D01*
X177557853Y-109740319D01*
X177532168Y-109733763D01*
X177457485Y-109705909D01*
X177457483Y-109705908D01*
X177397883Y-109699501D01*
X177397881Y-109699500D01*
X177397873Y-109699500D01*
X177397864Y-109699500D01*
X175302129Y-109699500D01*
X175302123Y-109699501D01*
X175242516Y-109705908D01*
X175107671Y-109756202D01*
X175107664Y-109756206D01*
X174992455Y-109842452D01*
X174992452Y-109842455D01*
X174906206Y-109957664D01*
X174906202Y-109957671D01*
X174855908Y-110092517D01*
X174849501Y-110152116D01*
X174849500Y-110152135D01*
X174849500Y-111147870D01*
X174849501Y-111147876D01*
X174855908Y-111207483D01*
X174906202Y-111342328D01*
X174906206Y-111342335D01*
X174992452Y-111457544D01*
X174992455Y-111457547D01*
X175107664Y-111543793D01*
X175107671Y-111543797D01*
X175242517Y-111594091D01*
X175242516Y-111594091D01*
X175248525Y-111594737D01*
X175302127Y-111600500D01*
X177397872Y-111600499D01*
X177457483Y-111594091D01*
X177457482Y-111594090D01*
X177532167Y-111566236D01*
X177601859Y-111561252D01*
X177663182Y-111594737D01*
X177696666Y-111656061D01*
X177699500Y-111682418D01*
X177699500Y-136100000D01*
X177682496Y-136489453D01*
X177682024Y-136494844D01*
X177631496Y-136878640D01*
X177630556Y-136883969D01*
X177546768Y-137261914D01*
X177545368Y-137267141D01*
X177428961Y-137636336D01*
X177427110Y-137641421D01*
X177278967Y-137999072D01*
X177276680Y-138003976D01*
X177097934Y-138347342D01*
X177095228Y-138352028D01*
X176887227Y-138678526D01*
X176884123Y-138682959D01*
X176648463Y-138990077D01*
X176644984Y-138994222D01*
X176383456Y-139279630D01*
X176379630Y-139283456D01*
X176094222Y-139544984D01*
X176090077Y-139548463D01*
X175782959Y-139784123D01*
X175778526Y-139787227D01*
X175491124Y-139970322D01*
X175424007Y-139989740D01*
X175357046Y-139969790D01*
X175311501Y-139916805D01*
X175300499Y-139865741D01*
X175300499Y-138002129D01*
X175300498Y-138002123D01*
X175300497Y-138002116D01*
X175294091Y-137942517D01*
X175275442Y-137892517D01*
X175243797Y-137807671D01*
X175243793Y-137807664D01*
X175157547Y-137692455D01*
X175157544Y-137692452D01*
X175042335Y-137606206D01*
X175042328Y-137606202D01*
X174907482Y-137555908D01*
X174907483Y-137555908D01*
X174847883Y-137549501D01*
X174847881Y-137549500D01*
X174847873Y-137549500D01*
X174847864Y-137549500D01*
X173852129Y-137549500D01*
X173852123Y-137549501D01*
X173792516Y-137555908D01*
X173657671Y-137606202D01*
X173657664Y-137606206D01*
X173542455Y-137692452D01*
X173542452Y-137692455D01*
X173456206Y-137807664D01*
X173456202Y-137807671D01*
X173405908Y-137942517D01*
X173399828Y-137999072D01*
X173399501Y-138002123D01*
X173399500Y-138002135D01*
X173399500Y-140097870D01*
X173399501Y-140097876D01*
X173405908Y-140157483D01*
X173456202Y-140292328D01*
X173456203Y-140292329D01*
X173456204Y-140292331D01*
X173505024Y-140357546D01*
X173530063Y-140390994D01*
X173554480Y-140456458D01*
X173539628Y-140524731D01*
X173490223Y-140574137D01*
X173436205Y-140589187D01*
X173200000Y-140599500D01*
X168129500Y-140599500D01*
X168062461Y-140579815D01*
X168016706Y-140527011D01*
X168005500Y-140475500D01*
X168005500Y-131930134D01*
X168025185Y-131863095D01*
X168058993Y-131828130D01*
X174533383Y-127353185D01*
X174610808Y-127287232D01*
X174645170Y-127251401D01*
X174707824Y-127171287D01*
X174766511Y-127039919D01*
X174785641Y-126972719D01*
X174804940Y-126830138D01*
X174757697Y-121113735D01*
X174756504Y-120969437D01*
X174744232Y-120862844D01*
X174744231Y-120862832D01*
X174732758Y-120811756D01*
X174698261Y-120710147D01*
X174619841Y-120589516D01*
X174573810Y-120536952D01*
X174567959Y-120530271D01*
X174560398Y-120525454D01*
X174531572Y-120500739D01*
X174464580Y-120443301D01*
X174464578Y-120443300D01*
X174464577Y-120443299D01*
X174334832Y-120384866D01*
X174333391Y-120384217D01*
X174333390Y-120384216D01*
X174333384Y-120384214D01*
X174266257Y-120364885D01*
X174266250Y-120364884D01*
X174123729Y-120345154D01*
X174123727Y-120345154D01*
X169432681Y-120369713D01*
X169432678Y-120369713D01*
X169312465Y-120384864D01*
X169312457Y-120384866D01*
X169255236Y-120399202D01*
X169142083Y-120442522D01*
X169025702Y-120527119D01*
X169025697Y-120527122D01*
X168975605Y-120575827D01*
X168975602Y-120575831D01*
X168901800Y-120671584D01*
X168845283Y-120712665D01*
X168777807Y-120717176D01*
X168776080Y-120716809D01*
X168694646Y-120699500D01*
X168548110Y-120699500D01*
X168481071Y-120679815D01*
X168435316Y-120627011D01*
X168425372Y-120557853D01*
X168432917Y-120529603D01*
X168478344Y-120415587D01*
X168502324Y-120355403D01*
X168598071Y-120010552D01*
X168621681Y-119866537D01*
X168655970Y-119657385D01*
X168655970Y-119657382D01*
X168655972Y-119657371D01*
X168675348Y-119300000D01*
X168655972Y-118942629D01*
X168652770Y-118923099D01*
X168598073Y-118589460D01*
X168598072Y-118589459D01*
X168598071Y-118589448D01*
X168545960Y-118401759D01*
X168502327Y-118244607D01*
X168502325Y-118244600D01*
X168486390Y-118204607D01*
X168418550Y-118034340D01*
X168369857Y-117912129D01*
X168369848Y-117912111D01*
X168202215Y-117595922D01*
X168202213Y-117595919D01*
X168202211Y-117595915D01*
X168001365Y-117299689D01*
X168001361Y-117299684D01*
X168001358Y-117299680D01*
X167769668Y-117026914D01*
X167769667Y-117026914D01*
X167509837Y-116780789D01*
X167509830Y-116780783D01*
X167509827Y-116780781D01*
X167442245Y-116729407D01*
X167224919Y-116564200D01*
X166918253Y-116379685D01*
X166918252Y-116379684D01*
X166918248Y-116379682D01*
X166918244Y-116379680D01*
X166593447Y-116229414D01*
X166593441Y-116229411D01*
X166593435Y-116229409D01*
X166423854Y-116172270D01*
X166254273Y-116115131D01*
X165904744Y-116038194D01*
X165548949Y-115999500D01*
X165548948Y-115999500D01*
X165191052Y-115999500D01*
X165191050Y-115999500D01*
X164835255Y-116038194D01*
X164485726Y-116115131D01*
X164237994Y-116198603D01*
X164146565Y-116229409D01*
X164146562Y-116229410D01*
X164146563Y-116229410D01*
X164146552Y-116229414D01*
X163821755Y-116379680D01*
X163821751Y-116379682D01*
X163593367Y-116517096D01*
X163515081Y-116564200D01*
X163426768Y-116631333D01*
X163230172Y-116780781D01*
X163230163Y-116780789D01*
X162970331Y-117026914D01*
X162738641Y-117299680D01*
X162738634Y-117299690D01*
X162537790Y-117595913D01*
X162537784Y-117595922D01*
X162370151Y-117912111D01*
X162370142Y-117912129D01*
X162237674Y-118244600D01*
X162237672Y-118244607D01*
X162141932Y-118589434D01*
X162141926Y-118589460D01*
X162084029Y-118942614D01*
X162084027Y-118942631D01*
X162067891Y-119240251D01*
X162044606Y-119306127D01*
X161989402Y-119348956D01*
X161919807Y-119355140D01*
X161857916Y-119322717D01*
X161856392Y-119321219D01*
X161523429Y-118988256D01*
X161106114Y-118570941D01*
X161103580Y-118568250D01*
X161062445Y-118521817D01*
X161062444Y-118521816D01*
X161062440Y-118521812D01*
X161011412Y-118486591D01*
X161008403Y-118484377D01*
X160959576Y-118446124D01*
X160959571Y-118446120D01*
X160950329Y-118441961D01*
X160930782Y-118430936D01*
X160922447Y-118425183D01*
X160922448Y-118425183D01*
X160922446Y-118425182D01*
X160864457Y-118403189D01*
X160861006Y-118401759D01*
X160804446Y-118376304D01*
X160794462Y-118374474D01*
X160772859Y-118368451D01*
X160763390Y-118364860D01*
X160763386Y-118364859D01*
X160701829Y-118357384D01*
X160698128Y-118356821D01*
X160637124Y-118345642D01*
X160637119Y-118345642D01*
X160575213Y-118349387D01*
X160571468Y-118349500D01*
X156958156Y-118349500D01*
X156891117Y-118329815D01*
X156885271Y-118325818D01*
X156802734Y-118265851D01*
X156802729Y-118265848D01*
X156629807Y-118188857D01*
X156629802Y-118188855D01*
X156484001Y-118157865D01*
X156444646Y-118149500D01*
X156255354Y-118149500D01*
X156222897Y-118156398D01*
X156070197Y-118188855D01*
X156070192Y-118188857D01*
X155897270Y-118265848D01*
X155897265Y-118265851D01*
X155744129Y-118377111D01*
X155617466Y-118517785D01*
X155522821Y-118681715D01*
X155522818Y-118681722D01*
X155464327Y-118861740D01*
X155464326Y-118861744D01*
X155444540Y-119050000D01*
X155464326Y-119238256D01*
X155464327Y-119238259D01*
X155522818Y-119418277D01*
X155522821Y-119418284D01*
X155617467Y-119582216D01*
X155723971Y-119700500D01*
X155744129Y-119722888D01*
X155897265Y-119834148D01*
X155897270Y-119834151D01*
X156070192Y-119911142D01*
X156070197Y-119911144D01*
X156255354Y-119950500D01*
X156255355Y-119950500D01*
X156444644Y-119950500D01*
X156444646Y-119950500D01*
X156629803Y-119911144D01*
X156802730Y-119834151D01*
X156867877Y-119786819D01*
X156885271Y-119774182D01*
X156951077Y-119750702D01*
X156958156Y-119750500D01*
X160252997Y-119750500D01*
X160320036Y-119770185D01*
X160340678Y-119786819D01*
X160757767Y-120203908D01*
X160791252Y-120265231D01*
X160786268Y-120334923D01*
X160744396Y-120390856D01*
X160678932Y-120415273D01*
X160670735Y-120415587D01*
X155270713Y-120443860D01*
X155270686Y-120443862D01*
X155164612Y-120455688D01*
X155164603Y-120455689D01*
X155164602Y-120455690D01*
X155148572Y-120459221D01*
X155113739Y-120466894D01*
X155113737Y-120466895D01*
X155012498Y-120500737D01*
X155012495Y-120500739D01*
X154891462Y-120578522D01*
X154891451Y-120578531D01*
X154838659Y-120624275D01*
X154744433Y-120733016D01*
X154744430Y-120733020D01*
X154684664Y-120863886D01*
X154664978Y-120930927D01*
X154664976Y-120930932D01*
X154657511Y-120982858D01*
X154646251Y-121061177D01*
X154644500Y-121073353D01*
X154644500Y-140475500D01*
X154624815Y-140542539D01*
X154572011Y-140588294D01*
X154520500Y-140599500D01*
X151656894Y-140599500D01*
X151589855Y-140579815D01*
X151544100Y-140527011D01*
X151534156Y-140457853D01*
X151563181Y-140394297D01*
X151582582Y-140376234D01*
X151607546Y-140357546D01*
X151693796Y-140242331D01*
X151744091Y-140107483D01*
X151750500Y-140047873D01*
X151750499Y-137952128D01*
X151744091Y-137892517D01*
X151693796Y-137757669D01*
X151693795Y-137757668D01*
X151693793Y-137757664D01*
X151607547Y-137642455D01*
X151607544Y-137642452D01*
X151492335Y-137556206D01*
X151492328Y-137556202D01*
X151357482Y-137505908D01*
X151357483Y-137505908D01*
X151297883Y-137499501D01*
X151297881Y-137499500D01*
X151297873Y-137499500D01*
X151297864Y-137499500D01*
X150302129Y-137499500D01*
X150302123Y-137499501D01*
X150242516Y-137505908D01*
X150107671Y-137556202D01*
X150107664Y-137556206D01*
X149992455Y-137642452D01*
X149992452Y-137642455D01*
X149906206Y-137757664D01*
X149906202Y-137757671D01*
X149855908Y-137892517D01*
X149850533Y-137942516D01*
X149849501Y-137952123D01*
X149849500Y-137952135D01*
X149849500Y-140047870D01*
X149849501Y-140047876D01*
X149855908Y-140107483D01*
X149906202Y-140242328D01*
X149906206Y-140242335D01*
X149992452Y-140357544D01*
X149992453Y-140357544D01*
X149992454Y-140357546D01*
X150017418Y-140376234D01*
X150059288Y-140432168D01*
X150064272Y-140501860D01*
X150030786Y-140563182D01*
X149969462Y-140596667D01*
X149943106Y-140599500D01*
X143929500Y-140599500D01*
X143862461Y-140579815D01*
X143816706Y-140527011D01*
X143805500Y-140475500D01*
X143805500Y-130664506D01*
X143821354Y-130603839D01*
X146024708Y-126676122D01*
X146073514Y-126554303D01*
X146089362Y-126492466D01*
X146105166Y-126362200D01*
X146056643Y-121218862D01*
X146044242Y-121112251D01*
X146032705Y-121061177D01*
X145998069Y-120959574D01*
X145919495Y-120839044D01*
X145873397Y-120786539D01*
X145764053Y-120693031D01*
X145632789Y-120634113D01*
X145632785Y-120634111D01*
X145632781Y-120634110D01*
X145632783Y-120634110D01*
X145576484Y-120617976D01*
X145570009Y-120615465D01*
X145423075Y-120595314D01*
X130298189Y-120693708D01*
X130298169Y-120693709D01*
X130192420Y-120705601D01*
X130192406Y-120705603D01*
X130192404Y-120705604D01*
X130167053Y-120711205D01*
X130141702Y-120716807D01*
X130141694Y-120716809D01*
X130040782Y-120750579D01*
X130040771Y-120750584D01*
X129919748Y-120828361D01*
X129919731Y-120828374D01*
X129866939Y-120874118D01*
X129772714Y-120982858D01*
X129772711Y-120982862D01*
X129712943Y-121113733D01*
X129694092Y-121177930D01*
X129693767Y-121178869D01*
X129693257Y-121180772D01*
X129672781Y-121323192D01*
X129672781Y-140475500D01*
X129653096Y-140542539D01*
X129600292Y-140588294D01*
X129548781Y-140599500D01*
X125456894Y-140599500D01*
X125389855Y-140579815D01*
X125344100Y-140527011D01*
X125334156Y-140457853D01*
X125363181Y-140394297D01*
X125382582Y-140376234D01*
X125407546Y-140357546D01*
X125493796Y-140242331D01*
X125544091Y-140107483D01*
X125550500Y-140047873D01*
X125550499Y-137952128D01*
X125544091Y-137892517D01*
X125493796Y-137757669D01*
X125493795Y-137757668D01*
X125493793Y-137757664D01*
X125407547Y-137642455D01*
X125407544Y-137642452D01*
X125292335Y-137556206D01*
X125292328Y-137556202D01*
X125157482Y-137505908D01*
X125157483Y-137505908D01*
X125097883Y-137499501D01*
X125097881Y-137499500D01*
X125097873Y-137499500D01*
X125097864Y-137499500D01*
X124102129Y-137499500D01*
X124102123Y-137499501D01*
X124042516Y-137505908D01*
X123907671Y-137556202D01*
X123907664Y-137556206D01*
X123792455Y-137642452D01*
X123792452Y-137642455D01*
X123706206Y-137757664D01*
X123706202Y-137757671D01*
X123655908Y-137892517D01*
X123650533Y-137942516D01*
X123649501Y-137952123D01*
X123649500Y-137952135D01*
X123649500Y-140047870D01*
X123649501Y-140047876D01*
X123655908Y-140107483D01*
X123706202Y-140242328D01*
X123706206Y-140242335D01*
X123792452Y-140357544D01*
X123792453Y-140357544D01*
X123792454Y-140357546D01*
X123817418Y-140376234D01*
X123859288Y-140432168D01*
X123864272Y-140501860D01*
X123830786Y-140563182D01*
X123769462Y-140596667D01*
X123743106Y-140599500D01*
X118149500Y-140599500D01*
X118082461Y-140579815D01*
X118036706Y-140527011D01*
X118025500Y-140475500D01*
X118025500Y-119974010D01*
X118025500Y-119974000D01*
X118013947Y-119866544D01*
X118002741Y-119815033D01*
X118002637Y-119814722D01*
X117968616Y-119712502D01*
X117968613Y-119712496D01*
X117890828Y-119591462D01*
X117890825Y-119591457D01*
X117890820Y-119591451D01*
X117845076Y-119538659D01*
X117845072Y-119538656D01*
X117845070Y-119538653D01*
X117736336Y-119444433D01*
X117736333Y-119444431D01*
X117736331Y-119444430D01*
X117605465Y-119384664D01*
X117605460Y-119384662D01*
X117605459Y-119384662D01*
X117582858Y-119378025D01*
X117538425Y-119364978D01*
X117538419Y-119364976D01*
X117452966Y-119352690D01*
X117396000Y-119344500D01*
X105124000Y-119344500D01*
X105123991Y-119344500D01*
X105123990Y-119344501D01*
X105016549Y-119356052D01*
X105016537Y-119356054D01*
X104965027Y-119367260D01*
X104862502Y-119401383D01*
X104862496Y-119401386D01*
X104741462Y-119479171D01*
X104741451Y-119479179D01*
X104688659Y-119524923D01*
X104594433Y-119633664D01*
X104594430Y-119633668D01*
X104534664Y-119764534D01*
X104514978Y-119831575D01*
X104514976Y-119831580D01*
X104503537Y-119911142D01*
X104494502Y-119973990D01*
X104494500Y-119974001D01*
X104494500Y-140475500D01*
X104474815Y-140542539D01*
X104422011Y-140588294D01*
X104370500Y-140599500D01*
X99256894Y-140599500D01*
X99189855Y-140579815D01*
X99144100Y-140527011D01*
X99134156Y-140457853D01*
X99163181Y-140394297D01*
X99182582Y-140376234D01*
X99207546Y-140357546D01*
X99293796Y-140242331D01*
X99344091Y-140107483D01*
X99350500Y-140047873D01*
X99350499Y-137952128D01*
X99344091Y-137892517D01*
X99293796Y-137757669D01*
X99293795Y-137757668D01*
X99293793Y-137757664D01*
X99207547Y-137642455D01*
X99207544Y-137642452D01*
X99092335Y-137556206D01*
X99092328Y-137556202D01*
X98957482Y-137505908D01*
X98957483Y-137505908D01*
X98897883Y-137499501D01*
X98897881Y-137499500D01*
X98897873Y-137499500D01*
X98897864Y-137499500D01*
X97902129Y-137499500D01*
X97902123Y-137499501D01*
X97842516Y-137505908D01*
X97707671Y-137556202D01*
X97707664Y-137556206D01*
X97592455Y-137642452D01*
X97592452Y-137642455D01*
X97506206Y-137757664D01*
X97506202Y-137757671D01*
X97455908Y-137892517D01*
X97450533Y-137942516D01*
X97449501Y-137952123D01*
X97449500Y-137952135D01*
X97449500Y-140047870D01*
X97449501Y-140047876D01*
X97455908Y-140107483D01*
X97506202Y-140242328D01*
X97506206Y-140242335D01*
X97592452Y-140357544D01*
X97592453Y-140357544D01*
X97592454Y-140357546D01*
X97617418Y-140376234D01*
X97659288Y-140432168D01*
X97664272Y-140501860D01*
X97630786Y-140563182D01*
X97569462Y-140596667D01*
X97543106Y-140599500D01*
X91761058Y-140599500D01*
X91694019Y-140579815D01*
X91648264Y-140527011D01*
X91637059Y-140474986D01*
X91711343Y-122553881D01*
X91711343Y-122553880D01*
X91710338Y-122530280D01*
X91710338Y-122530277D01*
X91707222Y-122495470D01*
X91700821Y-122448693D01*
X91658675Y-122323824D01*
X91655887Y-122254010D01*
X91691286Y-122193771D01*
X91712229Y-122177922D01*
X92014919Y-121995800D01*
X92299837Y-121779211D01*
X92559668Y-121533086D01*
X92791365Y-121260311D01*
X92992211Y-120964085D01*
X93159853Y-120647880D01*
X93292324Y-120315403D01*
X93388071Y-119970552D01*
X93413568Y-119815027D01*
X93445970Y-119617385D01*
X93445970Y-119617382D01*
X93445972Y-119617371D01*
X93463694Y-119290488D01*
X93465348Y-119260002D01*
X93465348Y-119259997D01*
X93453962Y-119049999D01*
X93445972Y-118902629D01*
X93439269Y-118861744D01*
X93429147Y-118800000D01*
X130394540Y-118800000D01*
X130414326Y-118988256D01*
X130414327Y-118988259D01*
X130472818Y-119168277D01*
X130472821Y-119168284D01*
X130567467Y-119332216D01*
X130660321Y-119435340D01*
X130694129Y-119472888D01*
X130847265Y-119584148D01*
X130847270Y-119584151D01*
X131020192Y-119661142D01*
X131020197Y-119661144D01*
X131205354Y-119700500D01*
X131205355Y-119700500D01*
X131394644Y-119700500D01*
X131394646Y-119700500D01*
X131579803Y-119661144D01*
X131752730Y-119584151D01*
X131905871Y-119472888D01*
X131905874Y-119472883D01*
X131910701Y-119468539D01*
X131912391Y-119470416D01*
X131962242Y-119439715D01*
X131994888Y-119435340D01*
X140313563Y-119435340D01*
X140380602Y-119455025D01*
X140386448Y-119459022D01*
X140468984Y-119518988D01*
X140468989Y-119518991D01*
X140641911Y-119595982D01*
X140641916Y-119595984D01*
X140827073Y-119635340D01*
X140827074Y-119635340D01*
X141016363Y-119635340D01*
X141016365Y-119635340D01*
X141201522Y-119595984D01*
X141374449Y-119518991D01*
X141527590Y-119407728D01*
X141654252Y-119267056D01*
X141748898Y-119103124D01*
X141807393Y-118923096D01*
X141827179Y-118734840D01*
X141807393Y-118546584D01*
X141748898Y-118366556D01*
X141654252Y-118202624D01*
X141527590Y-118061952D01*
X141527589Y-118061951D01*
X141374453Y-117950691D01*
X141374448Y-117950688D01*
X141201526Y-117873697D01*
X141201521Y-117873695D01*
X141055720Y-117842705D01*
X141016365Y-117834340D01*
X140827073Y-117834340D01*
X140794616Y-117841238D01*
X140641916Y-117873695D01*
X140641911Y-117873697D01*
X140468989Y-117950688D01*
X140468984Y-117950691D01*
X140386448Y-118010658D01*
X140320642Y-118034138D01*
X140313563Y-118034340D01*
X131817983Y-118034340D01*
X131758683Y-118018451D01*
X131758666Y-118018492D01*
X131758411Y-118018378D01*
X131755987Y-118017729D01*
X131752732Y-118015850D01*
X131579807Y-117938857D01*
X131579802Y-117938855D01*
X131434000Y-117907865D01*
X131394646Y-117899500D01*
X131205354Y-117899500D01*
X131172897Y-117906398D01*
X131020197Y-117938855D01*
X131020192Y-117938857D01*
X130847270Y-118015848D01*
X130847265Y-118015851D01*
X130694129Y-118127111D01*
X130567466Y-118267785D01*
X130472821Y-118431715D01*
X130472818Y-118431722D01*
X130414327Y-118611740D01*
X130414326Y-118611744D01*
X130394540Y-118800000D01*
X93429147Y-118800000D01*
X93388073Y-118549460D01*
X93388072Y-118549459D01*
X93388071Y-118549448D01*
X93331485Y-118345642D01*
X93292327Y-118204607D01*
X93292325Y-118204600D01*
X93286052Y-118188857D01*
X93217120Y-118015849D01*
X93159857Y-117872129D01*
X93159848Y-117872111D01*
X92992215Y-117555922D01*
X92992213Y-117555919D01*
X92992211Y-117555915D01*
X92791365Y-117259689D01*
X92791361Y-117259684D01*
X92791358Y-117259680D01*
X92559668Y-116986914D01*
X92342064Y-116780789D01*
X92299837Y-116740789D01*
X92299830Y-116740783D01*
X92299827Y-116740781D01*
X92232245Y-116689407D01*
X92014919Y-116524200D01*
X91736760Y-116356837D01*
X91689465Y-116305408D01*
X91677483Y-116236573D01*
X91688110Y-116198608D01*
X91697610Y-116178034D01*
X91717572Y-116111077D01*
X91738638Y-115968748D01*
X91749258Y-113406610D01*
X170199500Y-113406610D01*
X170238679Y-113616198D01*
X170315702Y-113815019D01*
X170427948Y-113996302D01*
X170571592Y-114153872D01*
X170571593Y-114153872D01*
X170741746Y-114282367D01*
X170932606Y-114377403D01*
X170932608Y-114377403D01*
X170932611Y-114377405D01*
X171137690Y-114435756D01*
X171296806Y-114450500D01*
X171296810Y-114450500D01*
X172703190Y-114450500D01*
X172703194Y-114450500D01*
X172862310Y-114435756D01*
X173067389Y-114377405D01*
X173067393Y-114377403D01*
X173067394Y-114377403D01*
X173258253Y-114282367D01*
X173258253Y-114282366D01*
X173258255Y-114282366D01*
X173428407Y-114153872D01*
X173572052Y-113996302D01*
X173684298Y-113815019D01*
X173761321Y-113616198D01*
X173800500Y-113406610D01*
X173800500Y-113193390D01*
X173761321Y-112983802D01*
X173684298Y-112784981D01*
X173572052Y-112603698D01*
X173428407Y-112446128D01*
X173428406Y-112446127D01*
X173258253Y-112317632D01*
X173067393Y-112222596D01*
X172862310Y-112164244D01*
X172862309Y-112164244D01*
X172703194Y-112149500D01*
X171296806Y-112149500D01*
X171169513Y-112161295D01*
X171137689Y-112164244D01*
X170932607Y-112222596D01*
X170932605Y-112222596D01*
X170741746Y-112317632D01*
X170571593Y-112446127D01*
X170427947Y-112603699D01*
X170315702Y-112784980D01*
X170315701Y-112784982D01*
X170238680Y-112983799D01*
X170238679Y-112983802D01*
X170199500Y-113193390D01*
X170199500Y-113406610D01*
X91749258Y-113406610D01*
X91827629Y-94500000D01*
X97094540Y-94500000D01*
X97114326Y-94688256D01*
X97114327Y-94688259D01*
X97172818Y-94868277D01*
X97172821Y-94868284D01*
X97267467Y-95032216D01*
X97394129Y-95172888D01*
X97547265Y-95284148D01*
X97547270Y-95284151D01*
X97720192Y-95361142D01*
X97720197Y-95361144D01*
X97905354Y-95400500D01*
X97905355Y-95400500D01*
X98094644Y-95400500D01*
X98094646Y-95400500D01*
X98279803Y-95361144D01*
X98452730Y-95284151D01*
X98494406Y-95253872D01*
X98535271Y-95224182D01*
X98601077Y-95200702D01*
X98608156Y-95200500D01*
X107291844Y-95200500D01*
X107358883Y-95220185D01*
X107364729Y-95224182D01*
X107447265Y-95284148D01*
X107447270Y-95284151D01*
X107620192Y-95361142D01*
X107620197Y-95361144D01*
X107805354Y-95400500D01*
X107805355Y-95400500D01*
X107994644Y-95400500D01*
X107994646Y-95400500D01*
X108179803Y-95361144D01*
X108352730Y-95284151D01*
X108505871Y-95172888D01*
X108632533Y-95032216D01*
X108727179Y-94868284D01*
X108785674Y-94688256D01*
X108805460Y-94500000D01*
X108785674Y-94311744D01*
X108727179Y-94131716D01*
X108632533Y-93967784D01*
X108505871Y-93827112D01*
X108505870Y-93827111D01*
X108352734Y-93715851D01*
X108352729Y-93715848D01*
X108179807Y-93638857D01*
X108179802Y-93638855D01*
X108034000Y-93607865D01*
X107994646Y-93599500D01*
X107805354Y-93599500D01*
X107772897Y-93606398D01*
X107620197Y-93638855D01*
X107620192Y-93638857D01*
X107447270Y-93715848D01*
X107447265Y-93715851D01*
X107364729Y-93775818D01*
X107298923Y-93799298D01*
X107291844Y-93799500D01*
X98608156Y-93799500D01*
X98541117Y-93779815D01*
X98535271Y-93775818D01*
X98452734Y-93715851D01*
X98452729Y-93715848D01*
X98279807Y-93638857D01*
X98279802Y-93638855D01*
X98134000Y-93607865D01*
X98094646Y-93599500D01*
X97905354Y-93599500D01*
X97872897Y-93606398D01*
X97720197Y-93638855D01*
X97720192Y-93638857D01*
X97547270Y-93715848D01*
X97547265Y-93715851D01*
X97394129Y-93827111D01*
X97267466Y-93967785D01*
X97172821Y-94131715D01*
X97172818Y-94131722D01*
X97120289Y-94293392D01*
X97114326Y-94311744D01*
X97094540Y-94500000D01*
X91827629Y-94500000D01*
X91834980Y-92726609D01*
X91823652Y-92618081D01*
X91812447Y-92566056D01*
X91791776Y-92503734D01*
X91778099Y-92462497D01*
X91700318Y-92341468D01*
X91700305Y-92341451D01*
X91654561Y-92288659D01*
X91654557Y-92288656D01*
X91654555Y-92288653D01*
X91545821Y-92194433D01*
X91545818Y-92194431D01*
X91545816Y-92194430D01*
X91414950Y-92134664D01*
X91414945Y-92134662D01*
X91414944Y-92134662D01*
X91392343Y-92128025D01*
X91347910Y-92114978D01*
X91347904Y-92114976D01*
X91262451Y-92102690D01*
X91205485Y-92094500D01*
X79388087Y-92094500D01*
X79321048Y-92074815D01*
X79275293Y-92022011D01*
X79264087Y-91970321D01*
X79264308Y-91817183D01*
X79277301Y-82800000D01*
X100794540Y-82800000D01*
X100814326Y-82988256D01*
X100814327Y-82988259D01*
X100872818Y-83168277D01*
X100872821Y-83168284D01*
X100967467Y-83332216D01*
X101014227Y-83384148D01*
X101094129Y-83472888D01*
X101247265Y-83584148D01*
X101247270Y-83584151D01*
X101420191Y-83661142D01*
X101420193Y-83661142D01*
X101420197Y-83661144D01*
X101575130Y-83694075D01*
X101636607Y-83727266D01*
X101637026Y-83727683D01*
X105663182Y-87753839D01*
X105696666Y-87815160D01*
X105699500Y-87841518D01*
X105699500Y-88584608D01*
X105679815Y-88651647D01*
X105667656Y-88667574D01*
X105667468Y-88667782D01*
X105667464Y-88667787D01*
X105572821Y-88831715D01*
X105572818Y-88831722D01*
X105514327Y-89011740D01*
X105514326Y-89011744D01*
X105494540Y-89200000D01*
X105514326Y-89388256D01*
X105514327Y-89388259D01*
X105572818Y-89568277D01*
X105572821Y-89568284D01*
X105667467Y-89732216D01*
X105794128Y-89872887D01*
X105794129Y-89872888D01*
X105947265Y-89984148D01*
X105947270Y-89984151D01*
X106068318Y-90038046D01*
X106121555Y-90083296D01*
X106141876Y-90150145D01*
X106141680Y-90156897D01*
X106144065Y-90828767D01*
X106155570Y-90934231D01*
X106155570Y-90934232D01*
X106166543Y-90984779D01*
X106166546Y-90984790D01*
X106166548Y-90984796D01*
X106199803Y-91085522D01*
X106203824Y-91091839D01*
X106277054Y-91206899D01*
X106277058Y-91206905D01*
X106322578Y-91259907D01*
X106322579Y-91259908D01*
X106430897Y-91354605D01*
X106474527Y-91374763D01*
X106561506Y-91414950D01*
X106561507Y-91414950D01*
X106561511Y-91414952D01*
X106628463Y-91434932D01*
X106628465Y-91434933D01*
X106770789Y-91456036D01*
X117172727Y-91501860D01*
X117172732Y-91501859D01*
X117176046Y-91501874D01*
X117242998Y-91521854D01*
X117288520Y-91574859D01*
X117299500Y-91625873D01*
X117299500Y-92458480D01*
X117279815Y-92525519D01*
X117263181Y-92546161D01*
X110970966Y-98838375D01*
X110968240Y-98840942D01*
X110921818Y-98882068D01*
X110886586Y-98933109D01*
X110884368Y-98936124D01*
X110846124Y-98984939D01*
X110846119Y-98984948D01*
X110841960Y-98994188D01*
X110830942Y-99013723D01*
X110825187Y-99022061D01*
X110825183Y-99022067D01*
X110825182Y-99022070D01*
X110825180Y-99022074D01*
X110825179Y-99022077D01*
X110803189Y-99080055D01*
X110801757Y-99083513D01*
X110776305Y-99140068D01*
X110774477Y-99150042D01*
X110768453Y-99171653D01*
X110764860Y-99181127D01*
X110764859Y-99181128D01*
X110757384Y-99242685D01*
X110756821Y-99246386D01*
X110745642Y-99307390D01*
X110745642Y-99307395D01*
X110749387Y-99369302D01*
X110749500Y-99373047D01*
X110749500Y-104134608D01*
X110729815Y-104201647D01*
X110717656Y-104217574D01*
X110717468Y-104217782D01*
X110717464Y-104217787D01*
X110622821Y-104381715D01*
X110622818Y-104381722D01*
X110564327Y-104561740D01*
X110564326Y-104561744D01*
X110544540Y-104750000D01*
X110564326Y-104938256D01*
X110564327Y-104938259D01*
X110622818Y-105118277D01*
X110622821Y-105118284D01*
X110717467Y-105282216D01*
X110844128Y-105422888D01*
X110844129Y-105422888D01*
X110997265Y-105534148D01*
X110997270Y-105534151D01*
X111170192Y-105611142D01*
X111170197Y-105611144D01*
X111355354Y-105650500D01*
X111355355Y-105650500D01*
X111544644Y-105650500D01*
X111544646Y-105650500D01*
X111729803Y-105611144D01*
X111902730Y-105534151D01*
X112055871Y-105422888D01*
X112182533Y-105282216D01*
X112277179Y-105118284D01*
X112335674Y-104938256D01*
X112355460Y-104750000D01*
X112335674Y-104561744D01*
X112277179Y-104381716D01*
X112182533Y-104217784D01*
X112182342Y-104217572D01*
X112182271Y-104217423D01*
X112178715Y-104212529D01*
X112179610Y-104211878D01*
X112152118Y-104154579D01*
X112150499Y-104134607D01*
X112150499Y-102008809D01*
X112150499Y-99691515D01*
X112170184Y-99624480D01*
X112186813Y-99603843D01*
X118479056Y-93311599D01*
X118481748Y-93309065D01*
X118528183Y-93267929D01*
X118563417Y-93216883D01*
X118565620Y-93213887D01*
X118603878Y-93165056D01*
X118608037Y-93155813D01*
X118619061Y-93136268D01*
X118624818Y-93127930D01*
X118646810Y-93069939D01*
X118648232Y-93066503D01*
X118673695Y-93009931D01*
X118675522Y-92999959D01*
X118681546Y-92978347D01*
X118685140Y-92968872D01*
X118692613Y-92907324D01*
X118693177Y-92903619D01*
X118696535Y-92885289D01*
X118704358Y-92842606D01*
X118700613Y-92780696D01*
X118700500Y-92776951D01*
X118700500Y-87515391D01*
X118720185Y-87448352D01*
X118732352Y-87432417D01*
X118732533Y-87432216D01*
X118827179Y-87268284D01*
X118885674Y-87088256D01*
X118905460Y-86900000D01*
X118885674Y-86711744D01*
X118827179Y-86531716D01*
X118732533Y-86367784D01*
X118605871Y-86227112D01*
X118575892Y-86205331D01*
X118533228Y-86150002D01*
X118527249Y-86080388D01*
X118530221Y-86068682D01*
X118533344Y-86058493D01*
X118543587Y-86025066D01*
X118565736Y-85882906D01*
X118566711Y-85800000D01*
X119994540Y-85800000D01*
X120014326Y-85988256D01*
X120014327Y-85988259D01*
X120072818Y-86168277D01*
X120072821Y-86168284D01*
X120167464Y-86332212D01*
X120167468Y-86332217D01*
X120202250Y-86370847D01*
X120221199Y-86404006D01*
X120223228Y-86403094D01*
X120251760Y-86466491D01*
X120253193Y-86469951D01*
X120275182Y-86527930D01*
X120279826Y-86534657D01*
X120280936Y-86536266D01*
X120291961Y-86555813D01*
X120296120Y-86565055D01*
X120296124Y-86565060D01*
X120334371Y-86613878D01*
X120336591Y-86616896D01*
X120371812Y-86667924D01*
X120371816Y-86667928D01*
X120371817Y-86667929D01*
X120418250Y-86709064D01*
X120420941Y-86711598D01*
X120609342Y-86899999D01*
X120720125Y-87010782D01*
X120753610Y-87072105D01*
X120748626Y-87141797D01*
X120726446Y-87179331D01*
X120631431Y-87289776D01*
X120572128Y-87420861D01*
X120552681Y-87487973D01*
X120552680Y-87487975D01*
X120532710Y-87630465D01*
X120544065Y-90828763D01*
X120555572Y-90934221D01*
X120555577Y-90934248D01*
X120566554Y-90984801D01*
X120566558Y-90984819D01*
X120599825Y-91085560D01*
X120599828Y-91085567D01*
X120677084Y-91206927D01*
X120677096Y-91206943D01*
X120722611Y-91259931D01*
X120722611Y-91259930D01*
X120722619Y-91259939D01*
X120722621Y-91259941D01*
X120722631Y-91259951D01*
X120790583Y-91319345D01*
X120830952Y-91354630D01*
X120830953Y-91354630D01*
X120830954Y-91354631D01*
X120961566Y-91414961D01*
X120961567Y-91414961D01*
X120961571Y-91414963D01*
X121028525Y-91434936D01*
X121170849Y-91456025D01*
X128815715Y-91488976D01*
X128882668Y-91508949D01*
X128928195Y-91561950D01*
X128933111Y-91574656D01*
X128963531Y-91668280D01*
X128963533Y-91668284D01*
X129032887Y-91788408D01*
X129049500Y-91850408D01*
X129049500Y-104965678D01*
X129032887Y-105027678D01*
X128972821Y-105131714D01*
X128923921Y-105282214D01*
X128914326Y-105311744D01*
X128894540Y-105500000D01*
X128914326Y-105688256D01*
X128914327Y-105688259D01*
X128972818Y-105868277D01*
X128972821Y-105868284D01*
X129067467Y-106032216D01*
X129194129Y-106172887D01*
X129194129Y-106172888D01*
X129347265Y-106284148D01*
X129347270Y-106284151D01*
X129520192Y-106361142D01*
X129520197Y-106361144D01*
X129705354Y-106400500D01*
X129705355Y-106400500D01*
X129894644Y-106400500D01*
X129894646Y-106400500D01*
X130079803Y-106361144D01*
X130252730Y-106284151D01*
X130405871Y-106172888D01*
X130532533Y-106032216D01*
X130627179Y-105868284D01*
X130685674Y-105688256D01*
X130705460Y-105500000D01*
X130685674Y-105311744D01*
X130627179Y-105131716D01*
X130532533Y-104967784D01*
X130516135Y-104949572D01*
X130485907Y-104886584D01*
X130485195Y-104881588D01*
X130485140Y-104881128D01*
X130481548Y-104871656D01*
X130475521Y-104850034D01*
X130473695Y-104840069D01*
X130461424Y-104812803D01*
X130450500Y-104761913D01*
X130450500Y-91960606D01*
X130470185Y-91893567D01*
X130482343Y-91877640D01*
X130523245Y-91832216D01*
X130617891Y-91668284D01*
X130645583Y-91583055D01*
X130685020Y-91525380D01*
X130749378Y-91498181D01*
X130764034Y-91497374D01*
X132524743Y-91504964D01*
X132630398Y-91494265D01*
X132681113Y-91483659D01*
X132782206Y-91451120D01*
X132904152Y-91374762D01*
X132956136Y-91330776D01*
X132956961Y-91330119D01*
X132957496Y-91329627D01*
X133019329Y-91259939D01*
X133052988Y-91222005D01*
X133114292Y-91091839D01*
X133134763Y-91025036D01*
X133156912Y-90882876D01*
X133211597Y-86234655D01*
X133211341Y-86219921D01*
X133210320Y-86198002D01*
X133209209Y-86183341D01*
X133199186Y-86087959D01*
X133199186Y-86062039D01*
X133199456Y-86059476D01*
X133207927Y-85978871D01*
X133213303Y-85927725D01*
X133213698Y-85922888D01*
X133214258Y-85916037D01*
X133215278Y-85898556D01*
X133215691Y-85886794D01*
X133216822Y-85790620D01*
X133223182Y-85250000D01*
X133844540Y-85250000D01*
X133864326Y-85438256D01*
X133864327Y-85438259D01*
X133922818Y-85618277D01*
X133922821Y-85618284D01*
X134017467Y-85782216D01*
X134137960Y-85916037D01*
X134144129Y-85922888D01*
X134297265Y-86034148D01*
X134297270Y-86034151D01*
X134470192Y-86111142D01*
X134470197Y-86111144D01*
X134655354Y-86150500D01*
X134655355Y-86150500D01*
X134844644Y-86150500D01*
X134844646Y-86150500D01*
X135029803Y-86111144D01*
X135202730Y-86034151D01*
X135227191Y-86016379D01*
X135285271Y-85974182D01*
X135351077Y-85950702D01*
X135358156Y-85950500D01*
X135908481Y-85950500D01*
X135975520Y-85970185D01*
X135996162Y-85986819D01*
X152863181Y-102853838D01*
X152896666Y-102915161D01*
X152899500Y-102941519D01*
X152899500Y-106884608D01*
X152879815Y-106951647D01*
X152867656Y-106967574D01*
X152867468Y-106967782D01*
X152867464Y-106967787D01*
X152772821Y-107131715D01*
X152772818Y-107131722D01*
X152714327Y-107311740D01*
X152714326Y-107311744D01*
X152694540Y-107500000D01*
X152714326Y-107688256D01*
X152714327Y-107688259D01*
X152772818Y-107868277D01*
X152772821Y-107868284D01*
X152867467Y-108032216D01*
X152994129Y-108172887D01*
X152994129Y-108172888D01*
X153147265Y-108284148D01*
X153147270Y-108284151D01*
X153320192Y-108361142D01*
X153320197Y-108361144D01*
X153505354Y-108400500D01*
X153505355Y-108400500D01*
X153694644Y-108400500D01*
X153694646Y-108400500D01*
X153879803Y-108361144D01*
X154052730Y-108284151D01*
X154205871Y-108172888D01*
X154332533Y-108032216D01*
X154427179Y-107868284D01*
X154485674Y-107688256D01*
X154505460Y-107500000D01*
X154485674Y-107311744D01*
X154427179Y-107131716D01*
X154332533Y-106967784D01*
X154332344Y-106967574D01*
X154332273Y-106967427D01*
X154328714Y-106962528D01*
X154329610Y-106961876D01*
X154302119Y-106904580D01*
X154300500Y-106884608D01*
X154300500Y-102623035D01*
X154300613Y-102619290D01*
X154304357Y-102557394D01*
X154293177Y-102496386D01*
X154292615Y-102492689D01*
X154285140Y-102431129D01*
X154285139Y-102431125D01*
X154281546Y-102421651D01*
X154275519Y-102400029D01*
X154273694Y-102390070D01*
X154273694Y-102390068D01*
X154248239Y-102333512D01*
X154246809Y-102330057D01*
X154224818Y-102272070D01*
X154219059Y-102263727D01*
X154208030Y-102244172D01*
X154203877Y-102234943D01*
X154203874Y-102234938D01*
X154165633Y-102186127D01*
X154163413Y-102183110D01*
X154149829Y-102163431D01*
X154128183Y-102132071D01*
X154081750Y-102090935D01*
X154079056Y-102088399D01*
X150390660Y-98400003D01*
X159636486Y-98400003D01*
X159656524Y-98744043D01*
X159656525Y-98744054D01*
X159716364Y-99083415D01*
X159716367Y-99083429D01*
X159815207Y-99413580D01*
X159951703Y-99730014D01*
X159951709Y-99730027D01*
X160124020Y-100028479D01*
X160329813Y-100304906D01*
X160329818Y-100304912D01*
X160451958Y-100434372D01*
X160566313Y-100555582D01*
X160830312Y-100777103D01*
X161118243Y-100966478D01*
X161426212Y-101121146D01*
X161750055Y-101239015D01*
X161798290Y-101250447D01*
X162085375Y-101318489D01*
X162085382Y-101318490D01*
X162085391Y-101318492D01*
X162427687Y-101358500D01*
X162427694Y-101358500D01*
X162772306Y-101358500D01*
X162772313Y-101358500D01*
X163114609Y-101318492D01*
X163114618Y-101318489D01*
X163114624Y-101318489D01*
X163315810Y-101270805D01*
X163449945Y-101239015D01*
X163773788Y-101121146D01*
X164081757Y-100966478D01*
X164369688Y-100777103D01*
X164633687Y-100555582D01*
X164870183Y-100304910D01*
X165075980Y-100028478D01*
X165248293Y-99730023D01*
X165384792Y-99413581D01*
X165447325Y-99204705D01*
X167799500Y-99204705D01*
X167799501Y-101395293D01*
X167809718Y-101540027D01*
X167809718Y-101540031D01*
X167809719Y-101540034D01*
X167809720Y-101540038D01*
X167863834Y-101780314D01*
X167863835Y-101780319D01*
X167955794Y-102008809D01*
X167955795Y-102008809D01*
X168083216Y-102219589D01*
X168120762Y-102263729D01*
X168242798Y-102407201D01*
X168343302Y-102492689D01*
X168430411Y-102566784D01*
X168641191Y-102694205D01*
X168869683Y-102786165D01*
X169109966Y-102840281D01*
X169254705Y-102850500D01*
X171445294Y-102850499D01*
X171590034Y-102840281D01*
X171830317Y-102786165D01*
X172058809Y-102694205D01*
X172269589Y-102566784D01*
X172457201Y-102407201D01*
X172616784Y-102219589D01*
X172744205Y-102008809D01*
X172836165Y-101780317D01*
X172890281Y-101540034D01*
X172900500Y-101395295D01*
X172900499Y-99204706D01*
X172890281Y-99059966D01*
X172836165Y-98819683D01*
X172744205Y-98591191D01*
X172616784Y-98380411D01*
X172550930Y-98302990D01*
X172457201Y-98192798D01*
X172327654Y-98082606D01*
X172269589Y-98033216D01*
X172058809Y-97905795D01*
X171901121Y-97842331D01*
X171830318Y-97813835D01*
X171590036Y-97759719D01*
X171590029Y-97759718D01*
X171445295Y-97749500D01*
X169254706Y-97749501D01*
X169238915Y-97750615D01*
X169109972Y-97759718D01*
X169109966Y-97759718D01*
X169109966Y-97759719D01*
X169109963Y-97759719D01*
X169109961Y-97759720D01*
X168869685Y-97813834D01*
X168869680Y-97813835D01*
X168641190Y-97905795D01*
X168641185Y-97905798D01*
X168430417Y-98033212D01*
X168430407Y-98033219D01*
X168242798Y-98192798D01*
X168083219Y-98380407D01*
X168083212Y-98380417D01*
X167955798Y-98591185D01*
X167955795Y-98591190D01*
X167863835Y-98819680D01*
X167863835Y-98819682D01*
X167809719Y-99059963D01*
X167809718Y-99059970D01*
X167799500Y-99204705D01*
X165447325Y-99204705D01*
X165483632Y-99083433D01*
X165543476Y-98744043D01*
X165563514Y-98400000D01*
X165562373Y-98380417D01*
X165546070Y-98100500D01*
X165543476Y-98055957D01*
X165539465Y-98033212D01*
X165483635Y-97716584D01*
X165483634Y-97716583D01*
X165483632Y-97716567D01*
X165384792Y-97386419D01*
X165248293Y-97069977D01*
X165075980Y-96771522D01*
X165075979Y-96771520D01*
X164870186Y-96495093D01*
X164870181Y-96495087D01*
X164726177Y-96342452D01*
X164633687Y-96244418D01*
X164369688Y-96022897D01*
X164081757Y-95833522D01*
X164076539Y-95830901D01*
X163773795Y-95678857D01*
X163773789Y-95678854D01*
X163449957Y-95560989D01*
X163449948Y-95560986D01*
X163449945Y-95560985D01*
X163449942Y-95560984D01*
X163449935Y-95560982D01*
X163114624Y-95481510D01*
X163114609Y-95481508D01*
X163114608Y-95481507D01*
X162772313Y-95441500D01*
X162427687Y-95441500D01*
X162128177Y-95476507D01*
X162085390Y-95481508D01*
X162085375Y-95481510D01*
X161750064Y-95560982D01*
X161750042Y-95560989D01*
X161426210Y-95678854D01*
X161426204Y-95678857D01*
X161118246Y-95833520D01*
X160830313Y-96022896D01*
X160566311Y-96244419D01*
X160566311Y-96244420D01*
X160329818Y-96495087D01*
X160329813Y-96495093D01*
X160124020Y-96771520D01*
X159951709Y-97069972D01*
X159951703Y-97069985D01*
X159815207Y-97386419D01*
X159716367Y-97716570D01*
X159716364Y-97716584D01*
X159656525Y-98055945D01*
X159656524Y-98055956D01*
X159636486Y-98399996D01*
X159636486Y-98400003D01*
X150390660Y-98400003D01*
X146497267Y-94506610D01*
X170199500Y-94506610D01*
X170238679Y-94716198D01*
X170315702Y-94915019D01*
X170427948Y-95096302D01*
X170497766Y-95172888D01*
X170571593Y-95253872D01*
X170741746Y-95382367D01*
X170932606Y-95477403D01*
X170932608Y-95477403D01*
X170932611Y-95477405D01*
X171137690Y-95535756D01*
X171296806Y-95550500D01*
X171296810Y-95550500D01*
X172703190Y-95550500D01*
X172703194Y-95550500D01*
X172862310Y-95535756D01*
X173067389Y-95477405D01*
X173067393Y-95477403D01*
X173067394Y-95477403D01*
X173258253Y-95382367D01*
X173258253Y-95382366D01*
X173258255Y-95382366D01*
X173428407Y-95253872D01*
X173572052Y-95096302D01*
X173684298Y-94915019D01*
X173761321Y-94716198D01*
X173800500Y-94506610D01*
X173800500Y-94293390D01*
X173761321Y-94083802D01*
X173684298Y-93884981D01*
X173572052Y-93703698D01*
X173428407Y-93546128D01*
X173428406Y-93546127D01*
X173258253Y-93417632D01*
X173067393Y-93322596D01*
X172862310Y-93264244D01*
X172862309Y-93264244D01*
X172703194Y-93249500D01*
X171296806Y-93249500D01*
X171169513Y-93261295D01*
X171137689Y-93264244D01*
X170932607Y-93322596D01*
X170932605Y-93322596D01*
X170741746Y-93417632D01*
X170571593Y-93546127D01*
X170427947Y-93703699D01*
X170315702Y-93884980D01*
X170315701Y-93884982D01*
X170238680Y-94083799D01*
X170238679Y-94083802D01*
X170199500Y-94293390D01*
X170199500Y-94506610D01*
X146497267Y-94506610D01*
X140241593Y-88250936D01*
X170845631Y-88250936D01*
X170876442Y-88452063D01*
X170876445Y-88452075D01*
X170947111Y-88642881D01*
X170947113Y-88642884D01*
X170947114Y-88642887D01*
X170962634Y-88667787D01*
X171054745Y-88815567D01*
X171054747Y-88815569D01*
X171054748Y-88815571D01*
X171194941Y-88963053D01*
X171309708Y-89042933D01*
X171361949Y-89079294D01*
X171361950Y-89079294D01*
X171361951Y-89079295D01*
X171548942Y-89159540D01*
X171748259Y-89200500D01*
X173000743Y-89200500D01*
X173152439Y-89185074D01*
X173346579Y-89124162D01*
X173346580Y-89124161D01*
X173346588Y-89124159D01*
X173524502Y-89025409D01*
X173678895Y-88892866D01*
X173803448Y-88731958D01*
X173893060Y-88549271D01*
X173944063Y-88352285D01*
X173954369Y-88149064D01*
X173923556Y-87947929D01*
X173852886Y-87757113D01*
X173745252Y-87584429D01*
X173605059Y-87436947D01*
X173605059Y-87436946D01*
X173600587Y-87433108D01*
X173562545Y-87374503D01*
X173562225Y-87304634D01*
X173578724Y-87269444D01*
X173653640Y-87158951D01*
X173720101Y-86992147D01*
X173749150Y-86814955D01*
X173739429Y-86635661D01*
X173734219Y-86616896D01*
X173691394Y-86462651D01*
X173691391Y-86462645D01*
X173607285Y-86304006D01*
X173491044Y-86167157D01*
X173468477Y-86150002D01*
X173348099Y-86058493D01*
X173185138Y-85983099D01*
X173185134Y-85983097D01*
X173009779Y-85944500D01*
X172875240Y-85944500D01*
X172875238Y-85944500D01*
X172741496Y-85959045D01*
X172741489Y-85959047D01*
X172571339Y-86016377D01*
X172571336Y-86016379D01*
X172417482Y-86108950D01*
X172287123Y-86232431D01*
X172186358Y-86381051D01*
X172186357Y-86381053D01*
X172119900Y-86547847D01*
X172119899Y-86547852D01*
X172119899Y-86547853D01*
X172093032Y-86711740D01*
X172090850Y-86725048D01*
X172100571Y-86904338D01*
X172100571Y-86904343D01*
X172138882Y-87042327D01*
X172137850Y-87112189D01*
X172099211Y-87170403D01*
X172035233Y-87198485D01*
X172019402Y-87199500D01*
X171799257Y-87199500D01*
X171647560Y-87214925D01*
X171453420Y-87275837D01*
X171453405Y-87275844D01*
X171275500Y-87374589D01*
X171275495Y-87374592D01*
X171121106Y-87507132D01*
X171121104Y-87507134D01*
X170996554Y-87668037D01*
X170996553Y-87668040D01*
X170906940Y-87850728D01*
X170855937Y-88047714D01*
X170845631Y-88250936D01*
X140241593Y-88250936D01*
X137108384Y-85117727D01*
X166465218Y-85117727D01*
X166485004Y-85305983D01*
X166485005Y-85305986D01*
X166543496Y-85486004D01*
X166543499Y-85486011D01*
X166638145Y-85649943D01*
X166764806Y-85790614D01*
X166764807Y-85790615D01*
X166917943Y-85901875D01*
X166917948Y-85901878D01*
X167090870Y-85978869D01*
X167090875Y-85978871D01*
X167276032Y-86018227D01*
X167276033Y-86018227D01*
X167465322Y-86018227D01*
X167465324Y-86018227D01*
X167650481Y-85978871D01*
X167823408Y-85901878D01*
X167976549Y-85790615D01*
X168004786Y-85759254D01*
X168064273Y-85722606D01*
X168096936Y-85718227D01*
X169189703Y-85718227D01*
X169256742Y-85737912D01*
X169281853Y-85759255D01*
X169294123Y-85772883D01*
X169294130Y-85772889D01*
X169447265Y-85884148D01*
X169447270Y-85884151D01*
X169620192Y-85961142D01*
X169620197Y-85961144D01*
X169805354Y-86000500D01*
X169805355Y-86000500D01*
X169994644Y-86000500D01*
X169994646Y-86000500D01*
X170179803Y-85961144D01*
X170352730Y-85884151D01*
X170505871Y-85772888D01*
X170632533Y-85632216D01*
X170727179Y-85468284D01*
X170785674Y-85288256D01*
X170805460Y-85100000D01*
X170785674Y-84911744D01*
X170727179Y-84731716D01*
X170632533Y-84567784D01*
X170505871Y-84427112D01*
X170505870Y-84427111D01*
X170352734Y-84315851D01*
X170352729Y-84315848D01*
X170179807Y-84238857D01*
X170179802Y-84238855D01*
X170034000Y-84207865D01*
X169994646Y-84199500D01*
X169805354Y-84199500D01*
X169772897Y-84206398D01*
X169620197Y-84238855D01*
X169620192Y-84238857D01*
X169447270Y-84315848D01*
X169447265Y-84315851D01*
X169294129Y-84427111D01*
X169249931Y-84476199D01*
X169190444Y-84512848D01*
X169157781Y-84517227D01*
X168096936Y-84517227D01*
X168029897Y-84497542D01*
X168004787Y-84476200D01*
X167976549Y-84444839D01*
X167976542Y-84444833D01*
X167823412Y-84333578D01*
X167823407Y-84333575D01*
X167650485Y-84256584D01*
X167650480Y-84256582D01*
X167504678Y-84225592D01*
X167465324Y-84217227D01*
X167276032Y-84217227D01*
X167243575Y-84224125D01*
X167090875Y-84256582D01*
X167090870Y-84256584D01*
X166917948Y-84333575D01*
X166917943Y-84333578D01*
X166764807Y-84444838D01*
X166638144Y-84585512D01*
X166543499Y-84749442D01*
X166543496Y-84749449D01*
X166498062Y-84889282D01*
X166485004Y-84929471D01*
X166465218Y-85117727D01*
X137108384Y-85117727D01*
X136761598Y-84770941D01*
X136759064Y-84768250D01*
X136717929Y-84721817D01*
X136717928Y-84721816D01*
X136717924Y-84721812D01*
X136666896Y-84686591D01*
X136663887Y-84684377D01*
X136615060Y-84646124D01*
X136615055Y-84646120D01*
X136605813Y-84641961D01*
X136586266Y-84630936D01*
X136577931Y-84625183D01*
X136577932Y-84625183D01*
X136577930Y-84625182D01*
X136519941Y-84603189D01*
X136516490Y-84601759D01*
X136459930Y-84576304D01*
X136449946Y-84574474D01*
X136428343Y-84568451D01*
X136418874Y-84564860D01*
X136418870Y-84564859D01*
X136357313Y-84557384D01*
X136353612Y-84556821D01*
X136292608Y-84545642D01*
X136292603Y-84545642D01*
X136230697Y-84549387D01*
X136226952Y-84549500D01*
X135358156Y-84549500D01*
X135291117Y-84529815D01*
X135285271Y-84525818D01*
X135202734Y-84465851D01*
X135202729Y-84465848D01*
X135029807Y-84388857D01*
X135029802Y-84388855D01*
X134884001Y-84357865D01*
X134844646Y-84349500D01*
X134655354Y-84349500D01*
X134622897Y-84356398D01*
X134470197Y-84388855D01*
X134470192Y-84388857D01*
X134297270Y-84465848D01*
X134297265Y-84465851D01*
X134144129Y-84577111D01*
X134017466Y-84717785D01*
X133922821Y-84881715D01*
X133922818Y-84881722D01*
X133879238Y-85015849D01*
X133864326Y-85061744D01*
X133844540Y-85250000D01*
X133223182Y-85250000D01*
X133253989Y-82631420D01*
X133253988Y-82631418D01*
X133253989Y-82631406D01*
X133243095Y-82520915D01*
X133235239Y-82483750D01*
X133231899Y-82467947D01*
X133197147Y-82362498D01*
X133197146Y-82362496D01*
X133119362Y-82241462D01*
X133119353Y-82241451D01*
X133073609Y-82188659D01*
X133073605Y-82188656D01*
X133073603Y-82188653D01*
X132964869Y-82094433D01*
X132964866Y-82094431D01*
X132964864Y-82094430D01*
X132833998Y-82034664D01*
X132833993Y-82034662D01*
X132833992Y-82034662D01*
X132811391Y-82028025D01*
X132766958Y-82014978D01*
X132766952Y-82014976D01*
X132681499Y-82002690D01*
X132624533Y-81994500D01*
X121144441Y-81994500D01*
X121144437Y-81994500D01*
X121036114Y-82006243D01*
X121036102Y-82006245D01*
X120984214Y-82017628D01*
X120984205Y-82017631D01*
X120880904Y-82052319D01*
X120760141Y-82130536D01*
X120708805Y-82175339D01*
X120707683Y-82176264D01*
X120613666Y-82285548D01*
X120554361Y-82416641D01*
X120534915Y-82483750D01*
X120514944Y-82626241D01*
X120522741Y-84822092D01*
X120522741Y-84822091D01*
X120524303Y-84849273D01*
X120524304Y-84849275D01*
X120528309Y-84885132D01*
X120516190Y-84953942D01*
X120468792Y-85005277D01*
X120455519Y-85012175D01*
X120447270Y-85015848D01*
X120294129Y-85127111D01*
X120167466Y-85267785D01*
X120072821Y-85431715D01*
X120072818Y-85431722D01*
X120055179Y-85486011D01*
X120014326Y-85611744D01*
X119994540Y-85800000D01*
X118566711Y-85800000D01*
X118576953Y-84929467D01*
X118603989Y-82631420D01*
X118603988Y-82631418D01*
X118603989Y-82631406D01*
X118593095Y-82520915D01*
X118585239Y-82483750D01*
X118581899Y-82467947D01*
X118547147Y-82362498D01*
X118547146Y-82362496D01*
X118469362Y-82241462D01*
X118469353Y-82241451D01*
X118423609Y-82188659D01*
X118423605Y-82188656D01*
X118423603Y-82188653D01*
X118314869Y-82094433D01*
X118314866Y-82094431D01*
X118314864Y-82094430D01*
X118183998Y-82034664D01*
X118183993Y-82034662D01*
X118183992Y-82034662D01*
X118161391Y-82028025D01*
X118116958Y-82014978D01*
X118116952Y-82014976D01*
X118031499Y-82002690D01*
X117974533Y-81994500D01*
X106744441Y-81994500D01*
X106744437Y-81994500D01*
X106636114Y-82006243D01*
X106636102Y-82006245D01*
X106584214Y-82017628D01*
X106584205Y-82017631D01*
X106480904Y-82052319D01*
X106360141Y-82130536D01*
X106308805Y-82175339D01*
X106307683Y-82176264D01*
X106213666Y-82285548D01*
X106154361Y-82416641D01*
X106134915Y-82483750D01*
X106114944Y-82626241D01*
X106126694Y-85936236D01*
X106107248Y-86003345D01*
X106054607Y-86049287D01*
X105985484Y-86059476D01*
X105921825Y-86030677D01*
X105915014Y-86024357D01*
X102626503Y-82735846D01*
X102593018Y-82674523D01*
X102590865Y-82661143D01*
X102585674Y-82611744D01*
X102527179Y-82431716D01*
X102432533Y-82267784D01*
X102305871Y-82127112D01*
X102305870Y-82127111D01*
X102152734Y-82015851D01*
X102152729Y-82015848D01*
X101979807Y-81938857D01*
X101979802Y-81938855D01*
X101834001Y-81907865D01*
X101794646Y-81899500D01*
X101605354Y-81899500D01*
X101572897Y-81906398D01*
X101420197Y-81938855D01*
X101420192Y-81938857D01*
X101247270Y-82015848D01*
X101247265Y-82015851D01*
X101094129Y-82127111D01*
X100967466Y-82267785D01*
X100872821Y-82431715D01*
X100872818Y-82431722D01*
X100843838Y-82520915D01*
X100814326Y-82611744D01*
X100794540Y-82800000D01*
X79277301Y-82800000D01*
X79279131Y-81530000D01*
X166469540Y-81530000D01*
X166489326Y-81718256D01*
X166489327Y-81718259D01*
X166547818Y-81898277D01*
X166547821Y-81898284D01*
X166642467Y-82062216D01*
X166744324Y-82175339D01*
X166769129Y-82202888D01*
X166922265Y-82314148D01*
X166922270Y-82314151D01*
X167095192Y-82391142D01*
X167095197Y-82391144D01*
X167280354Y-82430500D01*
X167280355Y-82430500D01*
X167469644Y-82430500D01*
X167469646Y-82430500D01*
X167654803Y-82391144D01*
X167827730Y-82314151D01*
X167980871Y-82202888D01*
X168009108Y-82171527D01*
X168068595Y-82134879D01*
X168101258Y-82130500D01*
X168629903Y-82130500D01*
X168696942Y-82150185D01*
X168717584Y-82166819D01*
X169058221Y-82507456D01*
X169091706Y-82568779D01*
X169094540Y-82595137D01*
X169094540Y-82599997D01*
X169094540Y-82600000D01*
X169114326Y-82788256D01*
X169114327Y-82788259D01*
X169172818Y-82968277D01*
X169172821Y-82968284D01*
X169267467Y-83132216D01*
X169299937Y-83168277D01*
X169394129Y-83272888D01*
X169547265Y-83384148D01*
X169547270Y-83384151D01*
X169720192Y-83461142D01*
X169720197Y-83461144D01*
X169905354Y-83500500D01*
X169905355Y-83500500D01*
X170094644Y-83500500D01*
X170094646Y-83500500D01*
X170279803Y-83461144D01*
X170452730Y-83384151D01*
X170605871Y-83272888D01*
X170732533Y-83132216D01*
X170827179Y-82968284D01*
X170885674Y-82788256D01*
X170905460Y-82600000D01*
X170885674Y-82411744D01*
X170827179Y-82231716D01*
X170732533Y-82067784D01*
X170605871Y-81927112D01*
X170605870Y-81927111D01*
X170452734Y-81815851D01*
X170452729Y-81815848D01*
X170279807Y-81738857D01*
X170279802Y-81738855D01*
X170104088Y-81701507D01*
X170094646Y-81699500D01*
X170094645Y-81699500D01*
X170000097Y-81699500D01*
X169933058Y-81679815D01*
X169912416Y-81663181D01*
X169705227Y-81455992D01*
X169385320Y-81136085D01*
X169379980Y-81129995D01*
X169358282Y-81101718D01*
X169232841Y-81005464D01*
X169214302Y-80997785D01*
X169086762Y-80944956D01*
X169086760Y-80944955D01*
X168969361Y-80929500D01*
X168930000Y-80924318D01*
X168894670Y-80928969D01*
X168886572Y-80929500D01*
X168101258Y-80929500D01*
X168034219Y-80909815D01*
X168009109Y-80888473D01*
X167980871Y-80857112D01*
X167980864Y-80857106D01*
X167827734Y-80745851D01*
X167827729Y-80745848D01*
X167654807Y-80668857D01*
X167654802Y-80668855D01*
X167509001Y-80637865D01*
X167469646Y-80629500D01*
X167280354Y-80629500D01*
X167247897Y-80636398D01*
X167095197Y-80668855D01*
X167095192Y-80668857D01*
X166922270Y-80745848D01*
X166922265Y-80745851D01*
X166769129Y-80857111D01*
X166642466Y-80997785D01*
X166547821Y-81161715D01*
X166547818Y-81161722D01*
X166503751Y-81297348D01*
X166489326Y-81341744D01*
X166469540Y-81530000D01*
X79279131Y-81530000D01*
X79289215Y-74530886D01*
X109433708Y-74530886D01*
X109433814Y-74566418D01*
X109433813Y-74633870D01*
X109434026Y-74637057D01*
X109446703Y-78867132D01*
X109449515Y-79805597D01*
X109449515Y-79893280D01*
X109481908Y-80076998D01*
X109487355Y-80091962D01*
X109545714Y-80252303D01*
X109610128Y-80363873D01*
X109638992Y-80413869D01*
X109708552Y-80496769D01*
X109758903Y-80556777D01*
X109786799Y-80580185D01*
X109901805Y-80676690D01*
X109901808Y-80676692D01*
X109901811Y-80676694D01*
X110063371Y-80769974D01*
X110238674Y-80833784D01*
X110422394Y-80866183D01*
X110474761Y-80866183D01*
X110474777Y-80866185D01*
X110515672Y-80866185D01*
X110581564Y-80866187D01*
X110581567Y-80866185D01*
X110590187Y-80866186D01*
X110590216Y-80866185D01*
X158043275Y-80866185D01*
X158043279Y-80866185D01*
X158227003Y-80833790D01*
X158402311Y-80769983D01*
X158563875Y-80676704D01*
X158706787Y-80556787D01*
X158826704Y-80413875D01*
X158919983Y-80252311D01*
X158983790Y-80077003D01*
X159016185Y-79893279D01*
X159016185Y-79800000D01*
X159016185Y-79734108D01*
X159016185Y-79610936D01*
X170845631Y-79610936D01*
X170876442Y-79812063D01*
X170876445Y-79812075D01*
X170947111Y-80002881D01*
X170947115Y-80002888D01*
X171054745Y-80175567D01*
X171054749Y-80175572D01*
X171127690Y-80252306D01*
X171194941Y-80323053D01*
X171284531Y-80385409D01*
X171361949Y-80439294D01*
X171361950Y-80439294D01*
X171361951Y-80439295D01*
X171548942Y-80519540D01*
X171748259Y-80560500D01*
X172019629Y-80560500D01*
X172086668Y-80580185D01*
X172132423Y-80632989D01*
X172142367Y-80702147D01*
X172134822Y-80730397D01*
X172119900Y-80767847D01*
X172119899Y-80767852D01*
X172119899Y-80767853D01*
X172093399Y-80929500D01*
X172090850Y-80945048D01*
X172100571Y-81124338D01*
X172100571Y-81124343D01*
X172148605Y-81297348D01*
X172148608Y-81297354D01*
X172232714Y-81455993D01*
X172348955Y-81592842D01*
X172348956Y-81592843D01*
X172491901Y-81701507D01*
X172654862Y-81776901D01*
X172654863Y-81776901D01*
X172654865Y-81776902D01*
X172708065Y-81788611D01*
X172830221Y-81815500D01*
X172830224Y-81815500D01*
X172964755Y-81815500D01*
X172964760Y-81815500D01*
X173098505Y-81800954D01*
X173268662Y-81743622D01*
X173422517Y-81651050D01*
X173552875Y-81527569D01*
X173653640Y-81378951D01*
X173720101Y-81212147D01*
X173749150Y-81034955D01*
X173739429Y-80855661D01*
X173733355Y-80833784D01*
X173691394Y-80682651D01*
X173691391Y-80682645D01*
X173626633Y-80560500D01*
X173607286Y-80524008D01*
X173584149Y-80496769D01*
X173555752Y-80432930D01*
X173566377Y-80363873D01*
X173597886Y-80322410D01*
X173678895Y-80252866D01*
X173803448Y-80091958D01*
X173893060Y-79909271D01*
X173944063Y-79712285D01*
X173954369Y-79509064D01*
X173923556Y-79307929D01*
X173852886Y-79117113D01*
X173745252Y-78944429D01*
X173605059Y-78796947D01*
X173470494Y-78703287D01*
X173438050Y-78680705D01*
X173251056Y-78600459D01*
X173051741Y-78559500D01*
X171799258Y-78559500D01*
X171799257Y-78559500D01*
X171647560Y-78574925D01*
X171453420Y-78635837D01*
X171453405Y-78635844D01*
X171275500Y-78734589D01*
X171275495Y-78734592D01*
X171121106Y-78867132D01*
X171121104Y-78867134D01*
X170996554Y-79028037D01*
X170996553Y-79028040D01*
X170906940Y-79210728D01*
X170855937Y-79407714D01*
X170845631Y-79610936D01*
X159016185Y-79610936D01*
X159016185Y-74640216D01*
X159016186Y-74640187D01*
X159016186Y-74631567D01*
X159016187Y-74631564D01*
X159016186Y-74617049D01*
X159016200Y-74617000D01*
X159016199Y-74565672D01*
X159016200Y-74565672D01*
X159016198Y-74472393D01*
X158983798Y-74288670D01*
X158983796Y-74288665D01*
X158983796Y-74288663D01*
X158919990Y-74113371D01*
X158919988Y-74113365D01*
X158826706Y-73951802D01*
X158706787Y-73808893D01*
X158563874Y-73688977D01*
X158402310Y-73595700D01*
X158314656Y-73563796D01*
X158227001Y-73531893D01*
X158043283Y-73499500D01*
X158043279Y-73499500D01*
X157985799Y-73499500D01*
X110464201Y-73499500D01*
X110462190Y-73499500D01*
X110461771Y-73499515D01*
X110406719Y-73499515D01*
X110223001Y-73531908D01*
X110109469Y-73573230D01*
X110047697Y-73595714D01*
X110047694Y-73595715D01*
X110047693Y-73595716D01*
X109886130Y-73688992D01*
X109743229Y-73808897D01*
X109743221Y-73808905D01*
X109623309Y-73951805D01*
X109530026Y-74113370D01*
X109530026Y-74113371D01*
X109466217Y-74288670D01*
X109433816Y-74472395D01*
X109433816Y-74472396D01*
X109433815Y-74527740D01*
X109433708Y-74530886D01*
X79289215Y-74530886D01*
X79298683Y-67960002D01*
X86844652Y-67960002D01*
X86864028Y-68317368D01*
X86864029Y-68317385D01*
X86921926Y-68670539D01*
X86921932Y-68670565D01*
X87017672Y-69015392D01*
X87017674Y-69015399D01*
X87150142Y-69347870D01*
X87150151Y-69347888D01*
X87317784Y-69664077D01*
X87317787Y-69664082D01*
X87317789Y-69664085D01*
X87504755Y-69939840D01*
X87518634Y-69960309D01*
X87518641Y-69960319D01*
X87732945Y-70212617D01*
X87750332Y-70233086D01*
X88010163Y-70479211D01*
X88295081Y-70695800D01*
X88601747Y-70880315D01*
X88601749Y-70880316D01*
X88601751Y-70880317D01*
X88601755Y-70880319D01*
X88882309Y-71010116D01*
X88926565Y-71030591D01*
X89265726Y-71144868D01*
X89615254Y-71221805D01*
X89971052Y-71260500D01*
X89971058Y-71260500D01*
X90328942Y-71260500D01*
X90328948Y-71260500D01*
X90684746Y-71221805D01*
X91034274Y-71144868D01*
X91373435Y-71030591D01*
X91698253Y-70880315D01*
X92004919Y-70695800D01*
X92289837Y-70479211D01*
X92549668Y-70233086D01*
X92781365Y-69960311D01*
X92982211Y-69664085D01*
X93149853Y-69347880D01*
X93282324Y-69015403D01*
X93378071Y-68670552D01*
X93435972Y-68317371D01*
X93455348Y-67960000D01*
X93454238Y-67939533D01*
X162034183Y-67939533D01*
X162053559Y-68296899D01*
X162053560Y-68296916D01*
X162111457Y-68650070D01*
X162111463Y-68650096D01*
X162207203Y-68994923D01*
X162207205Y-68994930D01*
X162339673Y-69327401D01*
X162339682Y-69327419D01*
X162507315Y-69643608D01*
X162507318Y-69643613D01*
X162507320Y-69643616D01*
X162521198Y-69664085D01*
X162708165Y-69939840D01*
X162708172Y-69939850D01*
X162725559Y-69960319D01*
X162939863Y-70212617D01*
X163199694Y-70458742D01*
X163484612Y-70675331D01*
X163791278Y-70859846D01*
X163791280Y-70859847D01*
X163791282Y-70859848D01*
X163791286Y-70859850D01*
X164116083Y-71010116D01*
X164116096Y-71010122D01*
X164455257Y-71124399D01*
X164804785Y-71201336D01*
X165160583Y-71240031D01*
X165160589Y-71240031D01*
X165518473Y-71240031D01*
X165518479Y-71240031D01*
X165874277Y-71201336D01*
X166223805Y-71124399D01*
X166562966Y-71010122D01*
X166887784Y-70859846D01*
X167194450Y-70675331D01*
X167479368Y-70458742D01*
X167739199Y-70212617D01*
X167970896Y-69939842D01*
X168171742Y-69643616D01*
X168339384Y-69327411D01*
X168471855Y-68994934D01*
X168567602Y-68650083D01*
X168622145Y-68317385D01*
X168625501Y-68296916D01*
X168625501Y-68296913D01*
X168625503Y-68296902D01*
X168644879Y-67939531D01*
X168625503Y-67582160D01*
X168567602Y-67228979D01*
X168471855Y-66884128D01*
X168426035Y-66769128D01*
X168339388Y-66551660D01*
X168339379Y-66551642D01*
X168297419Y-66472498D01*
X168171742Y-66235446D01*
X167970896Y-65939220D01*
X167970892Y-65939215D01*
X167970889Y-65939211D01*
X167739199Y-65666445D01*
X167637645Y-65570248D01*
X167479368Y-65420320D01*
X167479361Y-65420314D01*
X167479358Y-65420312D01*
X167411776Y-65368938D01*
X167194450Y-65203731D01*
X166887784Y-65019216D01*
X166887783Y-65019215D01*
X166887779Y-65019213D01*
X166887775Y-65019211D01*
X166562978Y-64868945D01*
X166562972Y-64868942D01*
X166562966Y-64868940D01*
X166393385Y-64811801D01*
X166223804Y-64754662D01*
X165874275Y-64677725D01*
X165518480Y-64639031D01*
X165518479Y-64639031D01*
X165160583Y-64639031D01*
X165160581Y-64639031D01*
X164804786Y-64677725D01*
X164455257Y-64754662D01*
X164199501Y-64840837D01*
X164116096Y-64868940D01*
X164116093Y-64868941D01*
X164116094Y-64868941D01*
X164116083Y-64868945D01*
X163791286Y-65019211D01*
X163791282Y-65019213D01*
X163608540Y-65129166D01*
X163484612Y-65203731D01*
X163396299Y-65270864D01*
X163199703Y-65420312D01*
X163199694Y-65420320D01*
X162939862Y-65666445D01*
X162708172Y-65939211D01*
X162708165Y-65939221D01*
X162507321Y-66235444D01*
X162507315Y-66235453D01*
X162339682Y-66551642D01*
X162339673Y-66551660D01*
X162207205Y-66884131D01*
X162207203Y-66884138D01*
X162111463Y-67228965D01*
X162111457Y-67228991D01*
X162053560Y-67582145D01*
X162053559Y-67582162D01*
X162034183Y-67939528D01*
X162034183Y-67939533D01*
X93454238Y-67939533D01*
X93435972Y-67602629D01*
X93432616Y-67582160D01*
X93378073Y-67249460D01*
X93378072Y-67249459D01*
X93378071Y-67249448D01*
X93282324Y-66904597D01*
X93200633Y-66699568D01*
X93149857Y-66572129D01*
X93149848Y-66572111D01*
X93097036Y-66472498D01*
X92982211Y-66255915D01*
X92781365Y-65959689D01*
X92781361Y-65959684D01*
X92781358Y-65959680D01*
X92549668Y-65686914D01*
X92392551Y-65538085D01*
X92289837Y-65440789D01*
X92289830Y-65440783D01*
X92289827Y-65440781D01*
X92222245Y-65389407D01*
X92004919Y-65224200D01*
X91698253Y-65039685D01*
X91698252Y-65039684D01*
X91698248Y-65039682D01*
X91698244Y-65039680D01*
X91373447Y-64889414D01*
X91373441Y-64889411D01*
X91373435Y-64889409D01*
X91203854Y-64832270D01*
X91034273Y-64775131D01*
X90684744Y-64698194D01*
X90328949Y-64659500D01*
X90328948Y-64659500D01*
X89971052Y-64659500D01*
X89971050Y-64659500D01*
X89615255Y-64698194D01*
X89265726Y-64775131D01*
X89009970Y-64861306D01*
X88926565Y-64889409D01*
X88926562Y-64889410D01*
X88926563Y-64889410D01*
X88926552Y-64889414D01*
X88601755Y-65039680D01*
X88601751Y-65039682D01*
X88399987Y-65161080D01*
X88295081Y-65224200D01*
X88206768Y-65291333D01*
X88010172Y-65440781D01*
X88010163Y-65440789D01*
X87750331Y-65686914D01*
X87518641Y-65959680D01*
X87518634Y-65959690D01*
X87317790Y-66255913D01*
X87317784Y-66255922D01*
X87150151Y-66572111D01*
X87150142Y-66572129D01*
X87017674Y-66904600D01*
X87017672Y-66904607D01*
X86921932Y-67249434D01*
X86921926Y-67249460D01*
X86864029Y-67602614D01*
X86864028Y-67602631D01*
X86844652Y-67959997D01*
X86844652Y-67960002D01*
X79298683Y-67960002D01*
X79300397Y-66770643D01*
X79300500Y-66769128D01*
X79300500Y-66700000D01*
X79306083Y-66572120D01*
X79317504Y-66310523D01*
X79317973Y-66305175D01*
X79368506Y-65921337D01*
X79369443Y-65916030D01*
X79420237Y-65686914D01*
X79453233Y-65538074D01*
X79454623Y-65532886D01*
X79571042Y-65163650D01*
X79572889Y-65158578D01*
X79622136Y-65039685D01*
X79721043Y-64800902D01*
X79723306Y-64796050D01*
X79902075Y-64452639D01*
X79904771Y-64447971D01*
X80112772Y-64121473D01*
X80115864Y-64117055D01*
X80351548Y-63809906D01*
X80355007Y-63805785D01*
X80616554Y-63520357D01*
X80620357Y-63516554D01*
X80905785Y-63255007D01*
X80909906Y-63251548D01*
X81217055Y-63015864D01*
X81221465Y-63012777D01*
X81547971Y-62804771D01*
X81552639Y-62802075D01*
X81896050Y-62623306D01*
X81900902Y-62621043D01*
X82258585Y-62472886D01*
X82263650Y-62471042D01*
X82632886Y-62354623D01*
X82638074Y-62353233D01*
X83016036Y-62269441D01*
X83021337Y-62268506D01*
X83405175Y-62217973D01*
X83410523Y-62217504D01*
X83800000Y-62200500D01*
X83865892Y-62200500D01*
X173134108Y-62200500D01*
X173200000Y-62200500D01*
X173589474Y-62217504D01*
G37*
%TD.AperFunction*%
%TD*%
%TA.AperFunction,Conductor*%
%TO.N,unconnected-(U2-TH-Pad9)*%
G36*
X132691572Y-82519685D02*
G01*
X132737327Y-82572489D01*
X132748524Y-82625459D01*
X132711177Y-85800000D01*
X132710295Y-85874963D01*
X132709959Y-85880717D01*
X132689540Y-86075000D01*
X132705709Y-86228861D01*
X132706045Y-86236076D01*
X132651447Y-90876929D01*
X132630976Y-90943732D01*
X132577637Y-90988863D01*
X132526922Y-90999469D01*
X130723578Y-90991696D01*
X130656624Y-90971723D01*
X130616725Y-90929697D01*
X130612091Y-90921670D01*
X130523245Y-90767784D01*
X130396583Y-90627112D01*
X130396582Y-90627111D01*
X130243446Y-90515851D01*
X130243441Y-90515848D01*
X130070519Y-90438857D01*
X130070514Y-90438855D01*
X129924713Y-90407865D01*
X129885358Y-90399500D01*
X129696066Y-90399500D01*
X129663609Y-90406398D01*
X129510909Y-90438855D01*
X129510904Y-90438857D01*
X129337982Y-90515848D01*
X129337977Y-90515851D01*
X129184841Y-90627111D01*
X129058177Y-90767785D01*
X128969332Y-90921670D01*
X128918765Y-90969886D01*
X128861411Y-90983669D01*
X121173028Y-90950530D01*
X121106074Y-90930557D01*
X121060547Y-90877556D01*
X121049563Y-90826971D01*
X121049353Y-90767785D01*
X121038208Y-87628665D01*
X121057654Y-87561557D01*
X121110295Y-87515615D01*
X121179418Y-87505426D01*
X121243077Y-87534225D01*
X121249888Y-87540545D01*
X122453495Y-88744152D01*
X122486980Y-88805475D01*
X122489134Y-88818869D01*
X122494325Y-88868249D01*
X122494327Y-88868260D01*
X122552818Y-89048277D01*
X122552821Y-89048284D01*
X122647467Y-89212216D01*
X122774128Y-89352887D01*
X122774129Y-89352888D01*
X122927265Y-89464148D01*
X122927270Y-89464151D01*
X123100192Y-89541142D01*
X123100197Y-89541144D01*
X123285354Y-89580500D01*
X123285355Y-89580500D01*
X123474644Y-89580500D01*
X123474646Y-89580500D01*
X123659803Y-89541144D01*
X123832730Y-89464151D01*
X123985871Y-89352888D01*
X124112533Y-89212216D01*
X124207179Y-89048284D01*
X124265674Y-88868256D01*
X124285460Y-88680000D01*
X124265674Y-88491744D01*
X124207179Y-88311716D01*
X124112533Y-88147784D01*
X123985871Y-88007112D01*
X123985870Y-88007111D01*
X123832734Y-87895851D01*
X123832729Y-87895848D01*
X123659807Y-87818857D01*
X123659802Y-87818855D01*
X123523490Y-87789882D01*
X123504872Y-87785924D01*
X123443391Y-87752733D01*
X123442973Y-87752316D01*
X121813223Y-86122566D01*
X121779738Y-86061243D01*
X121782973Y-85996566D01*
X121785674Y-85988256D01*
X121805460Y-85800000D01*
X121785674Y-85611744D01*
X121727179Y-85431716D01*
X121632533Y-85267784D01*
X121505871Y-85127112D01*
X121505870Y-85127111D01*
X121352734Y-85015851D01*
X121352729Y-85015848D01*
X121179807Y-84938857D01*
X121179802Y-84938855D01*
X121126406Y-84927506D01*
X121064924Y-84894314D01*
X121031148Y-84833151D01*
X121028189Y-84806668D01*
X121021472Y-82914719D01*
X121020442Y-82624440D01*
X121039888Y-82557331D01*
X121092529Y-82511389D01*
X121144441Y-82500000D01*
X132624533Y-82500000D01*
X132691572Y-82519685D01*
G37*
%TD.AperFunction*%
%TD*%
%TA.AperFunction,Conductor*%
%TO.N,unconnected-(U1-TH-Pad9)*%
G36*
X118041572Y-82519685D02*
G01*
X118087327Y-82572489D01*
X118098524Y-82625459D01*
X118060271Y-85876959D01*
X118039800Y-85943762D01*
X117986461Y-85988893D01*
X117936280Y-85999500D01*
X117905354Y-85999500D01*
X117872897Y-86006398D01*
X117720197Y-86038855D01*
X117720192Y-86038857D01*
X117547270Y-86115848D01*
X117547265Y-86115851D01*
X117394129Y-86227111D01*
X117267466Y-86367785D01*
X117172821Y-86531715D01*
X117172818Y-86531722D01*
X117114327Y-86711740D01*
X117114326Y-86711744D01*
X117094540Y-86900000D01*
X117114326Y-87088256D01*
X117114327Y-87088259D01*
X117172818Y-87268277D01*
X117172821Y-87268284D01*
X117267466Y-87432215D01*
X117267648Y-87432417D01*
X117267716Y-87432559D01*
X117271285Y-87437471D01*
X117270386Y-87438123D01*
X117297879Y-87495408D01*
X117299500Y-87515391D01*
X117299500Y-90872366D01*
X117279815Y-90939405D01*
X117227011Y-90985160D01*
X117174954Y-90996365D01*
X106773016Y-90950541D01*
X106706064Y-90930561D01*
X106660542Y-90877556D01*
X106649563Y-90826982D01*
X106647183Y-90156634D01*
X106666629Y-90089525D01*
X106719270Y-90043583D01*
X106720746Y-90042915D01*
X106764449Y-90023456D01*
X106852730Y-89984151D01*
X107005871Y-89872888D01*
X107132533Y-89732216D01*
X107227179Y-89568284D01*
X107285674Y-89388256D01*
X107305460Y-89200000D01*
X107285674Y-89011744D01*
X107227179Y-88831716D01*
X107132533Y-88667784D01*
X107132344Y-88667574D01*
X107132273Y-88667427D01*
X107128714Y-88662528D01*
X107129610Y-88661876D01*
X107102119Y-88604580D01*
X107100500Y-88584608D01*
X107100500Y-87523047D01*
X107100613Y-87519302D01*
X107104358Y-87457394D01*
X107093175Y-87396371D01*
X107092613Y-87392674D01*
X107090618Y-87376251D01*
X107085140Y-87331128D01*
X107081548Y-87321656D01*
X107075521Y-87300034D01*
X107073695Y-87290071D01*
X107073695Y-87290069D01*
X107048224Y-87233476D01*
X107046817Y-87230079D01*
X107024818Y-87172070D01*
X107024816Y-87172068D01*
X107024816Y-87172066D01*
X107019062Y-87163731D01*
X107008034Y-87144177D01*
X107003880Y-87134947D01*
X107003878Y-87134944D01*
X106965621Y-87086112D01*
X106963427Y-87083130D01*
X106928183Y-87032071D01*
X106881750Y-86990935D01*
X106879056Y-86988399D01*
X106671204Y-86780547D01*
X106637719Y-86719224D01*
X106634887Y-86693319D01*
X106622173Y-83112244D01*
X106620442Y-82624440D01*
X106639888Y-82557331D01*
X106692529Y-82511389D01*
X106744441Y-82500000D01*
X117974533Y-82500000D01*
X118041572Y-82519685D01*
G37*
%TD.AperFunction*%
%TD*%
M02*
