%TF.GenerationSoftware,KiCad,Pcbnew,8.0.0*%
%TF.CreationDate,2024-05-13T21:34:14+10:00*%
%TF.ProjectId,rear_screen,72656172-5f73-4637-9265-656e2e6b6963,v0.3*%
%TF.SameCoordinates,Original*%
%TF.FileFunction,Legend,Top*%
%TF.FilePolarity,Positive*%
%FSLAX46Y46*%
G04 Gerber Fmt 4.6, Leading zero omitted, Abs format (unit mm)*
G04 Created by KiCad (PCBNEW 8.0.0) date 2024-05-13 21:34:14*
%MOMM*%
%LPD*%
G01*
G04 APERTURE LIST*
G04 Aperture macros list*
%AMRoundRect*
0 Rectangle with rounded corners*
0 $1 Rounding radius*
0 $2 $3 $4 $5 $6 $7 $8 $9 X,Y pos of 4 corners*
0 Add a 4 corners polygon primitive as box body*
4,1,4,$2,$3,$4,$5,$6,$7,$8,$9,$2,$3,0*
0 Add four circle primitives for the rounded corners*
1,1,$1+$1,$2,$3*
1,1,$1+$1,$4,$5*
1,1,$1+$1,$6,$7*
1,1,$1+$1,$8,$9*
0 Add four rect primitives between the rounded corners*
20,1,$1+$1,$2,$3,$4,$5,0*
20,1,$1+$1,$4,$5,$6,$7,0*
20,1,$1+$1,$6,$7,$8,$9,0*
20,1,$1+$1,$8,$9,$2,$3,0*%
%AMFreePoly0*
4,1,21,3.024497,2.399497,3.045000,2.350000,3.045000,-2.350000,3.024497,-2.399497,2.975000,-2.420000,1.425000,-2.420000,1.375503,-2.399497,1.355000,-2.350000,1.355000,-2.170000,-1.650000,-2.170000,-1.699497,-2.149497,-1.720000,-2.100000,-1.720000,2.100000,-1.699497,2.149497,-1.650000,2.170000,1.355000,2.170000,1.355000,2.350000,1.375503,2.399497,1.425000,2.420000,2.975000,2.420000,
3.024497,2.399497,3.024497,2.399497,$1*%
%AMFreePoly1*
4,1,9,2.975000,-2.350000,1.425000,-2.350000,1.425000,-2.100000,-1.650000,-2.100000,-1.650000,2.100000,1.425000,2.100000,1.425000,2.350000,2.975000,2.350000,2.975000,-2.350000,2.975000,-2.350000,$1*%
G04 Aperture macros list end*
%ADD10C,0.300000*%
%ADD11C,0.600000*%
%ADD12C,0.150000*%
%ADD13C,0.200000*%
%ADD14C,0.120000*%
%ADD15C,0.127000*%
%ADD16C,0.000000*%
%ADD17C,0.010000*%
%ADD18C,5.600000*%
%ADD19R,0.900000X2.000000*%
%ADD20RoundRect,1.025000X-1.025000X-1.025000X1.025000X-1.025000X1.025000X1.025000X-1.025000X1.025000X0*%
%ADD21C,4.100000*%
%ADD22RoundRect,0.112500X-0.187500X-0.112500X0.187500X-0.112500X0.187500X0.112500X-0.187500X0.112500X0*%
%ADD23R,1.200000X1.200000*%
%ADD24RoundRect,0.070000X-0.350000X-0.575000X0.350000X-0.575000X0.350000X0.575000X-0.350000X0.575000X0*%
%ADD25FreePoly0,90.000000*%
%ADD26RoundRect,0.175000X0.159099X-0.406586X0.406586X-0.159099X-0.159099X0.406586X-0.406586X0.159099X0*%
%ADD27FreePoly1,135.000000*%
%ADD28RoundRect,0.225000X0.250000X-0.225000X0.250000X0.225000X-0.250000X0.225000X-0.250000X-0.225000X0*%
%ADD29R,2.000000X0.900000*%
%ADD30RoundRect,1.025000X-1.025000X1.025000X-1.025000X-1.025000X1.025000X-1.025000X1.025000X1.025000X0*%
%ADD31RoundRect,0.200000X-0.275000X0.200000X-0.275000X-0.200000X0.275000X-0.200000X0.275000X0.200000X0*%
%ADD32RoundRect,0.070000X0.159099X-0.654074X0.654074X-0.159099X-0.159099X0.654074X-0.654074X0.159099X0*%
%ADD33FreePoly0,135.000000*%
%ADD34RoundRect,1.025000X1.025000X-1.025000X1.025000X1.025000X-1.025000X1.025000X-1.025000X-1.025000X0*%
%ADD35RoundRect,0.225000X-0.250000X0.225000X-0.250000X-0.225000X0.250000X-0.225000X0.250000X0.225000X0*%
%ADD36RoundRect,0.150000X0.587500X0.150000X-0.587500X0.150000X-0.587500X-0.150000X0.587500X-0.150000X0*%
%ADD37RoundRect,0.102000X-0.305000X0.635000X-0.305000X-0.635000X0.305000X-0.635000X0.305000X0.635000X0*%
%ADD38C,5.500000*%
%ADD39R,4.916000X4.916000*%
%ADD40O,2.600000X1.300000*%
%ADD41RoundRect,0.200000X0.275000X-0.200000X0.275000X0.200000X-0.275000X0.200000X-0.275000X-0.200000X0*%
%ADD42RoundRect,0.102000X-0.664680X0.233345X0.233345X-0.664680X0.664680X-0.233345X-0.233345X0.664680X0*%
%ADD43R,7.800000X2.170000*%
%ADD44R,7.800000X2.200000*%
%ADD45RoundRect,0.125000X-0.125000X0.537500X-0.125000X-0.537500X0.125000X-0.537500X0.125000X0.537500X0*%
%ADD46R,1.500000X2.500000*%
%ADD47RoundRect,0.125000X0.537500X0.125000X-0.537500X0.125000X-0.537500X-0.125000X0.537500X-0.125000X0*%
%ADD48RoundRect,0.200000X0.200000X0.275000X-0.200000X0.275000X-0.200000X-0.275000X0.200000X-0.275000X0*%
%ADD49RoundRect,0.150000X-0.150000X-0.700000X0.150000X-0.700000X0.150000X0.700000X-0.150000X0.700000X0*%
%ADD50RoundRect,0.500000X-0.500000X-0.900000X0.500000X-0.900000X0.500000X0.900000X-0.500000X0.900000X0*%
%ADD51RoundRect,0.250000X-0.550000X1.500000X-0.550000X-1.500000X0.550000X-1.500000X0.550000X1.500000X0*%
%ADD52RoundRect,0.150000X0.512500X0.150000X-0.512500X0.150000X-0.512500X-0.150000X0.512500X-0.150000X0*%
%ADD53RoundRect,0.102000X0.664680X-0.233345X-0.233345X0.664680X-0.664680X0.233345X0.233345X-0.664680X0*%
%ADD54C,4.916000*%
%ADD55R,2.170000X7.800000*%
%ADD56R,2.200000X7.800000*%
%ADD57RoundRect,0.200000X-0.200000X-0.275000X0.200000X-0.275000X0.200000X0.275000X-0.200000X0.275000X0*%
%ADD58RoundRect,0.218750X-0.256250X0.218750X-0.256250X-0.218750X0.256250X-0.218750X0.256250X0.218750X0*%
%ADD59RoundRect,0.125000X-0.537500X-0.125000X0.537500X-0.125000X0.537500X0.125000X-0.537500X0.125000X0*%
G04 APERTURE END LIST*
D10*
X155649774Y-82539171D02*
X155364060Y-82539171D01*
X155364060Y-82539171D02*
X155221203Y-82467742D01*
X155221203Y-82467742D02*
X155078346Y-82324885D01*
X155078346Y-82324885D02*
X155006917Y-82039171D01*
X155006917Y-82039171D02*
X155006917Y-81539171D01*
X155006917Y-81539171D02*
X155078346Y-81253457D01*
X155078346Y-81253457D02*
X155221203Y-81110600D01*
X155221203Y-81110600D02*
X155364060Y-81039171D01*
X155364060Y-81039171D02*
X155649774Y-81039171D01*
X155649774Y-81039171D02*
X155792632Y-81110600D01*
X155792632Y-81110600D02*
X155935489Y-81253457D01*
X155935489Y-81253457D02*
X156006917Y-81539171D01*
X156006917Y-81539171D02*
X156006917Y-82039171D01*
X156006917Y-82039171D02*
X155935489Y-82324885D01*
X155935489Y-82324885D02*
X155792632Y-82467742D01*
X155792632Y-82467742D02*
X155649774Y-82539171D01*
X153721203Y-82039171D02*
X153721203Y-81039171D01*
X154364060Y-82039171D02*
X154364060Y-81253457D01*
X154364060Y-81253457D02*
X154292631Y-81110600D01*
X154292631Y-81110600D02*
X154149774Y-81039171D01*
X154149774Y-81039171D02*
X153935488Y-81039171D01*
X153935488Y-81039171D02*
X153792631Y-81110600D01*
X153792631Y-81110600D02*
X153721203Y-81182028D01*
X153221202Y-82039171D02*
X152649774Y-82039171D01*
X153006917Y-82539171D02*
X153006917Y-81253457D01*
X153006917Y-81253457D02*
X152935488Y-81110600D01*
X152935488Y-81110600D02*
X152792631Y-81039171D01*
X152792631Y-81039171D02*
X152649774Y-81039171D01*
X152149774Y-82039171D02*
X152149774Y-80539171D01*
X152149774Y-81967742D02*
X152006917Y-82039171D01*
X152006917Y-82039171D02*
X151721202Y-82039171D01*
X151721202Y-82039171D02*
X151578345Y-81967742D01*
X151578345Y-81967742D02*
X151506917Y-81896314D01*
X151506917Y-81896314D02*
X151435488Y-81753457D01*
X151435488Y-81753457D02*
X151435488Y-81324885D01*
X151435488Y-81324885D02*
X151506917Y-81182028D01*
X151506917Y-81182028D02*
X151578345Y-81110600D01*
X151578345Y-81110600D02*
X151721202Y-81039171D01*
X151721202Y-81039171D02*
X152006917Y-81039171D01*
X152006917Y-81039171D02*
X152149774Y-81110600D01*
X150149774Y-82039171D02*
X150149774Y-81039171D01*
X150792631Y-82039171D02*
X150792631Y-81253457D01*
X150792631Y-81253457D02*
X150721202Y-81110600D01*
X150721202Y-81110600D02*
X150578345Y-81039171D01*
X150578345Y-81039171D02*
X150364059Y-81039171D01*
X150364059Y-81039171D02*
X150221202Y-81110600D01*
X150221202Y-81110600D02*
X150149774Y-81182028D01*
X149649773Y-82039171D02*
X149078345Y-82039171D01*
X149435488Y-82539171D02*
X149435488Y-81253457D01*
X149435488Y-81253457D02*
X149364059Y-81110600D01*
X149364059Y-81110600D02*
X149221202Y-81039171D01*
X149221202Y-81039171D02*
X149078345Y-81039171D01*
X147578345Y-82539171D02*
X146649773Y-82539171D01*
X146649773Y-82539171D02*
X147149773Y-81967742D01*
X147149773Y-81967742D02*
X146935488Y-81967742D01*
X146935488Y-81967742D02*
X146792631Y-81896314D01*
X146792631Y-81896314D02*
X146721202Y-81824885D01*
X146721202Y-81824885D02*
X146649773Y-81682028D01*
X146649773Y-81682028D02*
X146649773Y-81324885D01*
X146649773Y-81324885D02*
X146721202Y-81182028D01*
X146721202Y-81182028D02*
X146792631Y-81110600D01*
X146792631Y-81110600D02*
X146935488Y-81039171D01*
X146935488Y-81039171D02*
X147364059Y-81039171D01*
X147364059Y-81039171D02*
X147506916Y-81110600D01*
X147506916Y-81110600D02*
X147578345Y-81182028D01*
X107150000Y-86785156D02*
X106650000Y-86785156D01*
X106650000Y-87570870D02*
X106650000Y-86070870D01*
X106650000Y-86070870D02*
X107364286Y-86070870D01*
X107935714Y-87570870D02*
X107935714Y-86570870D01*
X107935714Y-86856584D02*
X108007143Y-86713727D01*
X108007143Y-86713727D02*
X108078572Y-86642299D01*
X108078572Y-86642299D02*
X108221429Y-86570870D01*
X108221429Y-86570870D02*
X108364286Y-86570870D01*
X109078571Y-87570870D02*
X108935714Y-87499442D01*
X108935714Y-87499442D02*
X108864285Y-87428013D01*
X108864285Y-87428013D02*
X108792857Y-87285156D01*
X108792857Y-87285156D02*
X108792857Y-86856584D01*
X108792857Y-86856584D02*
X108864285Y-86713727D01*
X108864285Y-86713727D02*
X108935714Y-86642299D01*
X108935714Y-86642299D02*
X109078571Y-86570870D01*
X109078571Y-86570870D02*
X109292857Y-86570870D01*
X109292857Y-86570870D02*
X109435714Y-86642299D01*
X109435714Y-86642299D02*
X109507143Y-86713727D01*
X109507143Y-86713727D02*
X109578571Y-86856584D01*
X109578571Y-86856584D02*
X109578571Y-87285156D01*
X109578571Y-87285156D02*
X109507143Y-87428013D01*
X109507143Y-87428013D02*
X109435714Y-87499442D01*
X109435714Y-87499442D02*
X109292857Y-87570870D01*
X109292857Y-87570870D02*
X109078571Y-87570870D01*
X110221428Y-87570870D02*
X110221428Y-86570870D01*
X110221428Y-86713727D02*
X110292857Y-86642299D01*
X110292857Y-86642299D02*
X110435714Y-86570870D01*
X110435714Y-86570870D02*
X110650000Y-86570870D01*
X110650000Y-86570870D02*
X110792857Y-86642299D01*
X110792857Y-86642299D02*
X110864286Y-86785156D01*
X110864286Y-86785156D02*
X110864286Y-87570870D01*
X110864286Y-86785156D02*
X110935714Y-86642299D01*
X110935714Y-86642299D02*
X111078571Y-86570870D01*
X111078571Y-86570870D02*
X111292857Y-86570870D01*
X111292857Y-86570870D02*
X111435714Y-86642299D01*
X111435714Y-86642299D02*
X111507143Y-86785156D01*
X111507143Y-86785156D02*
X111507143Y-87570870D01*
X103150001Y-88485786D02*
X103650001Y-89985786D01*
X103650001Y-89985786D02*
X104150001Y-88485786D01*
X105221429Y-89914358D02*
X105078572Y-89985786D01*
X105078572Y-89985786D02*
X104792858Y-89985786D01*
X104792858Y-89985786D02*
X104650000Y-89914358D01*
X104650000Y-89914358D02*
X104578572Y-89771500D01*
X104578572Y-89771500D02*
X104578572Y-89200072D01*
X104578572Y-89200072D02*
X104650000Y-89057215D01*
X104650000Y-89057215D02*
X104792858Y-88985786D01*
X104792858Y-88985786D02*
X105078572Y-88985786D01*
X105078572Y-88985786D02*
X105221429Y-89057215D01*
X105221429Y-89057215D02*
X105292858Y-89200072D01*
X105292858Y-89200072D02*
X105292858Y-89342929D01*
X105292858Y-89342929D02*
X104578572Y-89485786D01*
X105935714Y-89985786D02*
X105935714Y-88485786D01*
X106578572Y-89985786D02*
X106578572Y-89200072D01*
X106578572Y-89200072D02*
X106507143Y-89057215D01*
X106507143Y-89057215D02*
X106364286Y-88985786D01*
X106364286Y-88985786D02*
X106150000Y-88985786D01*
X106150000Y-88985786D02*
X106007143Y-89057215D01*
X106007143Y-89057215D02*
X105935714Y-89128643D01*
X107292857Y-89985786D02*
X107292857Y-88985786D01*
X107292857Y-88485786D02*
X107221429Y-88557215D01*
X107221429Y-88557215D02*
X107292857Y-88628643D01*
X107292857Y-88628643D02*
X107364286Y-88557215D01*
X107364286Y-88557215D02*
X107292857Y-88485786D01*
X107292857Y-88485786D02*
X107292857Y-88628643D01*
X108650001Y-89914358D02*
X108507143Y-89985786D01*
X108507143Y-89985786D02*
X108221429Y-89985786D01*
X108221429Y-89985786D02*
X108078572Y-89914358D01*
X108078572Y-89914358D02*
X108007143Y-89842929D01*
X108007143Y-89842929D02*
X107935715Y-89700072D01*
X107935715Y-89700072D02*
X107935715Y-89271500D01*
X107935715Y-89271500D02*
X108007143Y-89128643D01*
X108007143Y-89128643D02*
X108078572Y-89057215D01*
X108078572Y-89057215D02*
X108221429Y-88985786D01*
X108221429Y-88985786D02*
X108507143Y-88985786D01*
X108507143Y-88985786D02*
X108650001Y-89057215D01*
X109507143Y-89985786D02*
X109364286Y-89914358D01*
X109364286Y-89914358D02*
X109292857Y-89771500D01*
X109292857Y-89771500D02*
X109292857Y-88485786D01*
X110650000Y-89914358D02*
X110507143Y-89985786D01*
X110507143Y-89985786D02*
X110221429Y-89985786D01*
X110221429Y-89985786D02*
X110078571Y-89914358D01*
X110078571Y-89914358D02*
X110007143Y-89771500D01*
X110007143Y-89771500D02*
X110007143Y-89200072D01*
X110007143Y-89200072D02*
X110078571Y-89057215D01*
X110078571Y-89057215D02*
X110221429Y-88985786D01*
X110221429Y-88985786D02*
X110507143Y-88985786D01*
X110507143Y-88985786D02*
X110650000Y-89057215D01*
X110650000Y-89057215D02*
X110721429Y-89200072D01*
X110721429Y-89200072D02*
X110721429Y-89342929D01*
X110721429Y-89342929D02*
X110007143Y-89485786D01*
X113292857Y-89985786D02*
X112435714Y-89985786D01*
X112864285Y-89985786D02*
X112864285Y-88485786D01*
X112864285Y-88485786D02*
X112721428Y-88700072D01*
X112721428Y-88700072D02*
X112578571Y-88842929D01*
X112578571Y-88842929D02*
X112435714Y-88914358D01*
X113864285Y-88628643D02*
X113935713Y-88557215D01*
X113935713Y-88557215D02*
X114078571Y-88485786D01*
X114078571Y-88485786D02*
X114435713Y-88485786D01*
X114435713Y-88485786D02*
X114578571Y-88557215D01*
X114578571Y-88557215D02*
X114649999Y-88628643D01*
X114649999Y-88628643D02*
X114721428Y-88771500D01*
X114721428Y-88771500D02*
X114721428Y-88914358D01*
X114721428Y-88914358D02*
X114649999Y-89128643D01*
X114649999Y-89128643D02*
X113792856Y-89985786D01*
X113792856Y-89985786D02*
X114721428Y-89985786D01*
X115149999Y-88485786D02*
X115649999Y-89985786D01*
X115649999Y-89985786D02*
X116149999Y-88485786D01*
D11*
X152719021Y-95691657D02*
X152719021Y-98120228D01*
X152719021Y-98120228D02*
X152861878Y-98405942D01*
X152861878Y-98405942D02*
X153004736Y-98548800D01*
X153004736Y-98548800D02*
X153290450Y-98691657D01*
X153290450Y-98691657D02*
X153861878Y-98691657D01*
X153861878Y-98691657D02*
X154147593Y-98548800D01*
X154147593Y-98548800D02*
X154290450Y-98405942D01*
X154290450Y-98405942D02*
X154433307Y-98120228D01*
X154433307Y-98120228D02*
X154433307Y-95691657D01*
X155861878Y-98691657D02*
X155861878Y-95691657D01*
X155861878Y-95691657D02*
X157004735Y-95691657D01*
X157004735Y-95691657D02*
X157290450Y-95834514D01*
X157290450Y-95834514D02*
X157433307Y-95977371D01*
X157433307Y-95977371D02*
X157576164Y-96263085D01*
X157576164Y-96263085D02*
X157576164Y-96691657D01*
X157576164Y-96691657D02*
X157433307Y-96977371D01*
X157433307Y-96977371D02*
X157290450Y-97120228D01*
X157290450Y-97120228D02*
X157004735Y-97263085D01*
X157004735Y-97263085D02*
X155861878Y-97263085D01*
X158433307Y-95977371D02*
X159004735Y-95548800D01*
X159004735Y-95548800D02*
X159576164Y-95977371D01*
D10*
X159100000Y-87385156D02*
X158600000Y-87385156D01*
X158600000Y-88170870D02*
X158600000Y-86670870D01*
X158600000Y-86670870D02*
X159314286Y-86670870D01*
X159885714Y-88170870D02*
X159885714Y-87170870D01*
X159885714Y-87456584D02*
X159957143Y-87313727D01*
X159957143Y-87313727D02*
X160028572Y-87242299D01*
X160028572Y-87242299D02*
X160171429Y-87170870D01*
X160171429Y-87170870D02*
X160314286Y-87170870D01*
X161028571Y-88170870D02*
X160885714Y-88099442D01*
X160885714Y-88099442D02*
X160814285Y-88028013D01*
X160814285Y-88028013D02*
X160742857Y-87885156D01*
X160742857Y-87885156D02*
X160742857Y-87456584D01*
X160742857Y-87456584D02*
X160814285Y-87313727D01*
X160814285Y-87313727D02*
X160885714Y-87242299D01*
X160885714Y-87242299D02*
X161028571Y-87170870D01*
X161028571Y-87170870D02*
X161242857Y-87170870D01*
X161242857Y-87170870D02*
X161385714Y-87242299D01*
X161385714Y-87242299D02*
X161457143Y-87313727D01*
X161457143Y-87313727D02*
X161528571Y-87456584D01*
X161528571Y-87456584D02*
X161528571Y-87885156D01*
X161528571Y-87885156D02*
X161457143Y-88028013D01*
X161457143Y-88028013D02*
X161385714Y-88099442D01*
X161385714Y-88099442D02*
X161242857Y-88170870D01*
X161242857Y-88170870D02*
X161028571Y-88170870D01*
X162171428Y-88170870D02*
X162171428Y-87170870D01*
X162171428Y-87313727D02*
X162242857Y-87242299D01*
X162242857Y-87242299D02*
X162385714Y-87170870D01*
X162385714Y-87170870D02*
X162600000Y-87170870D01*
X162600000Y-87170870D02*
X162742857Y-87242299D01*
X162742857Y-87242299D02*
X162814286Y-87385156D01*
X162814286Y-87385156D02*
X162814286Y-88170870D01*
X162814286Y-87385156D02*
X162885714Y-87242299D01*
X162885714Y-87242299D02*
X163028571Y-87170870D01*
X163028571Y-87170870D02*
X163242857Y-87170870D01*
X163242857Y-87170870D02*
X163385714Y-87242299D01*
X163385714Y-87242299D02*
X163457143Y-87385156D01*
X163457143Y-87385156D02*
X163457143Y-88170870D01*
X165314285Y-88170870D02*
X165314285Y-86670870D01*
X165314285Y-86670870D02*
X165814285Y-87742299D01*
X165814285Y-87742299D02*
X166314285Y-86670870D01*
X166314285Y-86670870D02*
X166314285Y-88170870D01*
X167028571Y-88170870D02*
X167028571Y-86670870D01*
X167028571Y-86670870D02*
X167600000Y-86670870D01*
X167600000Y-86670870D02*
X167742857Y-86742299D01*
X167742857Y-86742299D02*
X167814286Y-86813727D01*
X167814286Y-86813727D02*
X167885714Y-86956584D01*
X167885714Y-86956584D02*
X167885714Y-87170870D01*
X167885714Y-87170870D02*
X167814286Y-87313727D01*
X167814286Y-87313727D02*
X167742857Y-87385156D01*
X167742857Y-87385156D02*
X167600000Y-87456584D01*
X167600000Y-87456584D02*
X167028571Y-87456584D01*
X168528571Y-88170870D02*
X168528571Y-86670870D01*
X168528571Y-86670870D02*
X169100000Y-86670870D01*
X169100000Y-86670870D02*
X169242857Y-86742299D01*
X169242857Y-86742299D02*
X169314286Y-86813727D01*
X169314286Y-86813727D02*
X169385714Y-86956584D01*
X169385714Y-86956584D02*
X169385714Y-87170870D01*
X169385714Y-87170870D02*
X169314286Y-87313727D01*
X169314286Y-87313727D02*
X169242857Y-87385156D01*
X169242857Y-87385156D02*
X169100000Y-87456584D01*
X169100000Y-87456584D02*
X168528571Y-87456584D01*
X169814286Y-86670870D02*
X170671429Y-86670870D01*
X170242857Y-88170870D02*
X170242857Y-86670870D01*
X159528571Y-89800072D02*
X159742857Y-89871500D01*
X159742857Y-89871500D02*
X159814286Y-89942929D01*
X159814286Y-89942929D02*
X159885714Y-90085786D01*
X159885714Y-90085786D02*
X159885714Y-90300072D01*
X159885714Y-90300072D02*
X159814286Y-90442929D01*
X159814286Y-90442929D02*
X159742857Y-90514358D01*
X159742857Y-90514358D02*
X159600000Y-90585786D01*
X159600000Y-90585786D02*
X159028571Y-90585786D01*
X159028571Y-90585786D02*
X159028571Y-89085786D01*
X159028571Y-89085786D02*
X159528571Y-89085786D01*
X159528571Y-89085786D02*
X159671429Y-89157215D01*
X159671429Y-89157215D02*
X159742857Y-89228643D01*
X159742857Y-89228643D02*
X159814286Y-89371500D01*
X159814286Y-89371500D02*
X159814286Y-89514358D01*
X159814286Y-89514358D02*
X159742857Y-89657215D01*
X159742857Y-89657215D02*
X159671429Y-89728643D01*
X159671429Y-89728643D02*
X159528571Y-89800072D01*
X159528571Y-89800072D02*
X159028571Y-89800072D01*
X161171429Y-90585786D02*
X161171429Y-89800072D01*
X161171429Y-89800072D02*
X161100000Y-89657215D01*
X161100000Y-89657215D02*
X160957143Y-89585786D01*
X160957143Y-89585786D02*
X160671429Y-89585786D01*
X160671429Y-89585786D02*
X160528571Y-89657215D01*
X161171429Y-90514358D02*
X161028571Y-90585786D01*
X161028571Y-90585786D02*
X160671429Y-90585786D01*
X160671429Y-90585786D02*
X160528571Y-90514358D01*
X160528571Y-90514358D02*
X160457143Y-90371500D01*
X160457143Y-90371500D02*
X160457143Y-90228643D01*
X160457143Y-90228643D02*
X160528571Y-90085786D01*
X160528571Y-90085786D02*
X160671429Y-90014358D01*
X160671429Y-90014358D02*
X161028571Y-90014358D01*
X161028571Y-90014358D02*
X161171429Y-89942929D01*
X161671429Y-89585786D02*
X162242857Y-89585786D01*
X161885714Y-89085786D02*
X161885714Y-90371500D01*
X161885714Y-90371500D02*
X161957143Y-90514358D01*
X161957143Y-90514358D02*
X162100000Y-90585786D01*
X162100000Y-90585786D02*
X162242857Y-90585786D01*
X162528572Y-89585786D02*
X163100000Y-89585786D01*
X162742857Y-89085786D02*
X162742857Y-90371500D01*
X162742857Y-90371500D02*
X162814286Y-90514358D01*
X162814286Y-90514358D02*
X162957143Y-90585786D01*
X162957143Y-90585786D02*
X163100000Y-90585786D01*
X164171429Y-90514358D02*
X164028572Y-90585786D01*
X164028572Y-90585786D02*
X163742858Y-90585786D01*
X163742858Y-90585786D02*
X163600000Y-90514358D01*
X163600000Y-90514358D02*
X163528572Y-90371500D01*
X163528572Y-90371500D02*
X163528572Y-89800072D01*
X163528572Y-89800072D02*
X163600000Y-89657215D01*
X163600000Y-89657215D02*
X163742858Y-89585786D01*
X163742858Y-89585786D02*
X164028572Y-89585786D01*
X164028572Y-89585786D02*
X164171429Y-89657215D01*
X164171429Y-89657215D02*
X164242858Y-89800072D01*
X164242858Y-89800072D02*
X164242858Y-89942929D01*
X164242858Y-89942929D02*
X163528572Y-90085786D01*
X164885714Y-90585786D02*
X164885714Y-89585786D01*
X164885714Y-89871500D02*
X164957143Y-89728643D01*
X164957143Y-89728643D02*
X165028572Y-89657215D01*
X165028572Y-89657215D02*
X165171429Y-89585786D01*
X165171429Y-89585786D02*
X165314286Y-89585786D01*
X165671428Y-89585786D02*
X166028571Y-90585786D01*
X166385714Y-89585786D02*
X166028571Y-90585786D01*
X166028571Y-90585786D02*
X165885714Y-90942929D01*
X165885714Y-90942929D02*
X165814285Y-91014358D01*
X165814285Y-91014358D02*
X165671428Y-91085786D01*
X168385714Y-89085786D02*
X168671428Y-89085786D01*
X168671428Y-89085786D02*
X168814285Y-89157215D01*
X168814285Y-89157215D02*
X168957142Y-89300072D01*
X168957142Y-89300072D02*
X169028571Y-89585786D01*
X169028571Y-89585786D02*
X169028571Y-90085786D01*
X169028571Y-90085786D02*
X168957142Y-90371500D01*
X168957142Y-90371500D02*
X168814285Y-90514358D01*
X168814285Y-90514358D02*
X168671428Y-90585786D01*
X168671428Y-90585786D02*
X168385714Y-90585786D01*
X168385714Y-90585786D02*
X168242857Y-90514358D01*
X168242857Y-90514358D02*
X168099999Y-90371500D01*
X168099999Y-90371500D02*
X168028571Y-90085786D01*
X168028571Y-90085786D02*
X168028571Y-89585786D01*
X168028571Y-89585786D02*
X168099999Y-89300072D01*
X168099999Y-89300072D02*
X168242857Y-89157215D01*
X168242857Y-89157215D02*
X168385714Y-89085786D01*
X170314286Y-89585786D02*
X170314286Y-90585786D01*
X169671428Y-89585786D02*
X169671428Y-90371500D01*
X169671428Y-90371500D02*
X169742857Y-90514358D01*
X169742857Y-90514358D02*
X169885714Y-90585786D01*
X169885714Y-90585786D02*
X170100000Y-90585786D01*
X170100000Y-90585786D02*
X170242857Y-90514358D01*
X170242857Y-90514358D02*
X170314286Y-90442929D01*
X170814286Y-89585786D02*
X171385714Y-89585786D01*
X171028571Y-89085786D02*
X171028571Y-90371500D01*
X171028571Y-90371500D02*
X171100000Y-90514358D01*
X171100000Y-90514358D02*
X171242857Y-90585786D01*
X171242857Y-90585786D02*
X171385714Y-90585786D01*
D12*
X124033092Y-89908207D02*
X124509283Y-89574874D01*
X124033092Y-89336779D02*
X125033092Y-89336779D01*
X125033092Y-89336779D02*
X125033092Y-89717731D01*
X125033092Y-89717731D02*
X124985473Y-89812969D01*
X124985473Y-89812969D02*
X124937854Y-89860588D01*
X124937854Y-89860588D02*
X124842616Y-89908207D01*
X124842616Y-89908207D02*
X124699759Y-89908207D01*
X124699759Y-89908207D02*
X124604521Y-89860588D01*
X124604521Y-89860588D02*
X124556902Y-89812969D01*
X124556902Y-89812969D02*
X124509283Y-89717731D01*
X124509283Y-89717731D02*
X124509283Y-89336779D01*
X124080712Y-90717731D02*
X124033092Y-90622493D01*
X124033092Y-90622493D02*
X124033092Y-90432017D01*
X124033092Y-90432017D02*
X124080712Y-90336779D01*
X124080712Y-90336779D02*
X124175950Y-90289160D01*
X124175950Y-90289160D02*
X124556902Y-90289160D01*
X124556902Y-90289160D02*
X124652140Y-90336779D01*
X124652140Y-90336779D02*
X124699759Y-90432017D01*
X124699759Y-90432017D02*
X124699759Y-90622493D01*
X124699759Y-90622493D02*
X124652140Y-90717731D01*
X124652140Y-90717731D02*
X124556902Y-90765350D01*
X124556902Y-90765350D02*
X124461664Y-90765350D01*
X124461664Y-90765350D02*
X124366426Y-90289160D01*
X124033092Y-91622493D02*
X124556902Y-91622493D01*
X124556902Y-91622493D02*
X124652140Y-91574874D01*
X124652140Y-91574874D02*
X124699759Y-91479636D01*
X124699759Y-91479636D02*
X124699759Y-91289160D01*
X124699759Y-91289160D02*
X124652140Y-91193922D01*
X124080712Y-91622493D02*
X124033092Y-91527255D01*
X124033092Y-91527255D02*
X124033092Y-91289160D01*
X124033092Y-91289160D02*
X124080712Y-91193922D01*
X124080712Y-91193922D02*
X124175950Y-91146303D01*
X124175950Y-91146303D02*
X124271188Y-91146303D01*
X124271188Y-91146303D02*
X124366426Y-91193922D01*
X124366426Y-91193922D02*
X124414045Y-91289160D01*
X124414045Y-91289160D02*
X124414045Y-91527255D01*
X124414045Y-91527255D02*
X124461664Y-91622493D01*
X124033092Y-92098684D02*
X124699759Y-92098684D01*
X124509283Y-92098684D02*
X124604521Y-92146303D01*
X124604521Y-92146303D02*
X124652140Y-92193922D01*
X124652140Y-92193922D02*
X124699759Y-92289160D01*
X124699759Y-92289160D02*
X124699759Y-92384398D01*
X124414045Y-92717732D02*
X124414045Y-93479637D01*
X124033092Y-93955827D02*
X125033092Y-93955827D01*
X125033092Y-94622493D02*
X125033092Y-94812969D01*
X125033092Y-94812969D02*
X124985473Y-94908207D01*
X124985473Y-94908207D02*
X124890235Y-95003445D01*
X124890235Y-95003445D02*
X124699759Y-95051064D01*
X124699759Y-95051064D02*
X124366426Y-95051064D01*
X124366426Y-95051064D02*
X124175950Y-95003445D01*
X124175950Y-95003445D02*
X124080712Y-94908207D01*
X124080712Y-94908207D02*
X124033092Y-94812969D01*
X124033092Y-94812969D02*
X124033092Y-94622493D01*
X124033092Y-94622493D02*
X124080712Y-94527255D01*
X124080712Y-94527255D02*
X124175950Y-94432017D01*
X124175950Y-94432017D02*
X124366426Y-94384398D01*
X124366426Y-94384398D02*
X124699759Y-94384398D01*
X124699759Y-94384398D02*
X124890235Y-94432017D01*
X124890235Y-94432017D02*
X124985473Y-94527255D01*
X124985473Y-94527255D02*
X125033092Y-94622493D01*
X124128331Y-95479636D02*
X124080712Y-95527255D01*
X124080712Y-95527255D02*
X124033092Y-95479636D01*
X124033092Y-95479636D02*
X124080712Y-95432017D01*
X124080712Y-95432017D02*
X124128331Y-95479636D01*
X124128331Y-95479636D02*
X124033092Y-95479636D01*
X124652140Y-95479636D02*
X124604521Y-95527255D01*
X124604521Y-95527255D02*
X124556902Y-95479636D01*
X124556902Y-95479636D02*
X124604521Y-95432017D01*
X124604521Y-95432017D02*
X124652140Y-95479636D01*
X124652140Y-95479636D02*
X124556902Y-95479636D01*
X124556902Y-96289159D02*
X124509283Y-96432016D01*
X124509283Y-96432016D02*
X124461664Y-96479635D01*
X124461664Y-96479635D02*
X124366426Y-96527254D01*
X124366426Y-96527254D02*
X124223569Y-96527254D01*
X124223569Y-96527254D02*
X124128331Y-96479635D01*
X124128331Y-96479635D02*
X124080712Y-96432016D01*
X124080712Y-96432016D02*
X124033092Y-96336778D01*
X124033092Y-96336778D02*
X124033092Y-95955826D01*
X124033092Y-95955826D02*
X125033092Y-95955826D01*
X125033092Y-95955826D02*
X125033092Y-96289159D01*
X125033092Y-96289159D02*
X124985473Y-96384397D01*
X124985473Y-96384397D02*
X124937854Y-96432016D01*
X124937854Y-96432016D02*
X124842616Y-96479635D01*
X124842616Y-96479635D02*
X124747378Y-96479635D01*
X124747378Y-96479635D02*
X124652140Y-96432016D01*
X124652140Y-96432016D02*
X124604521Y-96384397D01*
X124604521Y-96384397D02*
X124556902Y-96289159D01*
X124556902Y-96289159D02*
X124556902Y-95955826D01*
X124033092Y-97384397D02*
X124556902Y-97384397D01*
X124556902Y-97384397D02*
X124652140Y-97336778D01*
X124652140Y-97336778D02*
X124699759Y-97241540D01*
X124699759Y-97241540D02*
X124699759Y-97051064D01*
X124699759Y-97051064D02*
X124652140Y-96955826D01*
X124080712Y-97384397D02*
X124033092Y-97289159D01*
X124033092Y-97289159D02*
X124033092Y-97051064D01*
X124033092Y-97051064D02*
X124080712Y-96955826D01*
X124080712Y-96955826D02*
X124175950Y-96908207D01*
X124175950Y-96908207D02*
X124271188Y-96908207D01*
X124271188Y-96908207D02*
X124366426Y-96955826D01*
X124366426Y-96955826D02*
X124414045Y-97051064D01*
X124414045Y-97051064D02*
X124414045Y-97289159D01*
X124414045Y-97289159D02*
X124461664Y-97384397D01*
X124080712Y-97812969D02*
X124033092Y-97908207D01*
X124033092Y-97908207D02*
X124033092Y-98098683D01*
X124033092Y-98098683D02*
X124080712Y-98193921D01*
X124080712Y-98193921D02*
X124175950Y-98241540D01*
X124175950Y-98241540D02*
X124223569Y-98241540D01*
X124223569Y-98241540D02*
X124318807Y-98193921D01*
X124318807Y-98193921D02*
X124366426Y-98098683D01*
X124366426Y-98098683D02*
X124366426Y-97955826D01*
X124366426Y-97955826D02*
X124414045Y-97860588D01*
X124414045Y-97860588D02*
X124509283Y-97812969D01*
X124509283Y-97812969D02*
X124556902Y-97812969D01*
X124556902Y-97812969D02*
X124652140Y-97860588D01*
X124652140Y-97860588D02*
X124699759Y-97955826D01*
X124699759Y-97955826D02*
X124699759Y-98098683D01*
X124699759Y-98098683D02*
X124652140Y-98193921D01*
X124033092Y-98670112D02*
X124699759Y-98670112D01*
X125033092Y-98670112D02*
X124985473Y-98622493D01*
X124985473Y-98622493D02*
X124937854Y-98670112D01*
X124937854Y-98670112D02*
X124985473Y-98717731D01*
X124985473Y-98717731D02*
X125033092Y-98670112D01*
X125033092Y-98670112D02*
X124937854Y-98670112D01*
X124080712Y-99574873D02*
X124033092Y-99479635D01*
X124033092Y-99479635D02*
X124033092Y-99289159D01*
X124033092Y-99289159D02*
X124080712Y-99193921D01*
X124080712Y-99193921D02*
X124128331Y-99146302D01*
X124128331Y-99146302D02*
X124223569Y-99098683D01*
X124223569Y-99098683D02*
X124509283Y-99098683D01*
X124509283Y-99098683D02*
X124604521Y-99146302D01*
X124604521Y-99146302D02*
X124652140Y-99193921D01*
X124652140Y-99193921D02*
X124699759Y-99289159D01*
X124699759Y-99289159D02*
X124699759Y-99479635D01*
X124699759Y-99479635D02*
X124652140Y-99574873D01*
X122708863Y-89289160D02*
X122708863Y-89765350D01*
X122423148Y-89193922D02*
X123423148Y-89527255D01*
X123423148Y-89527255D02*
X122423148Y-89860588D01*
X122470768Y-90622493D02*
X122423148Y-90527255D01*
X122423148Y-90527255D02*
X122423148Y-90336779D01*
X122423148Y-90336779D02*
X122470768Y-90241541D01*
X122470768Y-90241541D02*
X122518387Y-90193922D01*
X122518387Y-90193922D02*
X122613625Y-90146303D01*
X122613625Y-90146303D02*
X122899339Y-90146303D01*
X122899339Y-90146303D02*
X122994577Y-90193922D01*
X122994577Y-90193922D02*
X123042196Y-90241541D01*
X123042196Y-90241541D02*
X123089815Y-90336779D01*
X123089815Y-90336779D02*
X123089815Y-90527255D01*
X123089815Y-90527255D02*
X123042196Y-90622493D01*
X122470768Y-91432017D02*
X122423148Y-91336779D01*
X122423148Y-91336779D02*
X122423148Y-91146303D01*
X122423148Y-91146303D02*
X122470768Y-91051065D01*
X122470768Y-91051065D02*
X122566006Y-91003446D01*
X122566006Y-91003446D02*
X122946958Y-91003446D01*
X122946958Y-91003446D02*
X123042196Y-91051065D01*
X123042196Y-91051065D02*
X123089815Y-91146303D01*
X123089815Y-91146303D02*
X123089815Y-91336779D01*
X123089815Y-91336779D02*
X123042196Y-91432017D01*
X123042196Y-91432017D02*
X122946958Y-91479636D01*
X122946958Y-91479636D02*
X122851720Y-91479636D01*
X122851720Y-91479636D02*
X122756482Y-91003446D01*
X123423148Y-91955827D02*
X123232672Y-91860589D01*
X122470768Y-92336779D02*
X122423148Y-92432017D01*
X122423148Y-92432017D02*
X122423148Y-92622493D01*
X122423148Y-92622493D02*
X122470768Y-92717731D01*
X122470768Y-92717731D02*
X122566006Y-92765350D01*
X122566006Y-92765350D02*
X122613625Y-92765350D01*
X122613625Y-92765350D02*
X122708863Y-92717731D01*
X122708863Y-92717731D02*
X122756482Y-92622493D01*
X122756482Y-92622493D02*
X122756482Y-92479636D01*
X122756482Y-92479636D02*
X122804101Y-92384398D01*
X122804101Y-92384398D02*
X122899339Y-92336779D01*
X122899339Y-92336779D02*
X122946958Y-92336779D01*
X122946958Y-92336779D02*
X123042196Y-92384398D01*
X123042196Y-92384398D02*
X123089815Y-92479636D01*
X123089815Y-92479636D02*
X123089815Y-92622493D01*
X123089815Y-92622493D02*
X123042196Y-92717731D01*
X122946958Y-93955827D02*
X122946958Y-94289160D01*
X122423148Y-94432017D02*
X122423148Y-93955827D01*
X122423148Y-93955827D02*
X123423148Y-93955827D01*
X123423148Y-93955827D02*
X123423148Y-94432017D01*
X122423148Y-95003446D02*
X122470768Y-94908208D01*
X122470768Y-94908208D02*
X122566006Y-94860589D01*
X122566006Y-94860589D02*
X123423148Y-94860589D01*
X122470768Y-95765351D02*
X122423148Y-95670113D01*
X122423148Y-95670113D02*
X122423148Y-95479637D01*
X122423148Y-95479637D02*
X122470768Y-95384399D01*
X122470768Y-95384399D02*
X122566006Y-95336780D01*
X122566006Y-95336780D02*
X122946958Y-95336780D01*
X122946958Y-95336780D02*
X123042196Y-95384399D01*
X123042196Y-95384399D02*
X123089815Y-95479637D01*
X123089815Y-95479637D02*
X123089815Y-95670113D01*
X123089815Y-95670113D02*
X123042196Y-95765351D01*
X123042196Y-95765351D02*
X122946958Y-95812970D01*
X122946958Y-95812970D02*
X122851720Y-95812970D01*
X122851720Y-95812970D02*
X122756482Y-95336780D01*
X122470768Y-96670113D02*
X122423148Y-96574875D01*
X122423148Y-96574875D02*
X122423148Y-96384399D01*
X122423148Y-96384399D02*
X122470768Y-96289161D01*
X122470768Y-96289161D02*
X122518387Y-96241542D01*
X122518387Y-96241542D02*
X122613625Y-96193923D01*
X122613625Y-96193923D02*
X122899339Y-96193923D01*
X122899339Y-96193923D02*
X122994577Y-96241542D01*
X122994577Y-96241542D02*
X123042196Y-96289161D01*
X123042196Y-96289161D02*
X123089815Y-96384399D01*
X123089815Y-96384399D02*
X123089815Y-96574875D01*
X123089815Y-96574875D02*
X123042196Y-96670113D01*
X123089815Y-96955828D02*
X123089815Y-97336780D01*
X123423148Y-97098685D02*
X122566006Y-97098685D01*
X122566006Y-97098685D02*
X122470768Y-97146304D01*
X122470768Y-97146304D02*
X122423148Y-97241542D01*
X122423148Y-97241542D02*
X122423148Y-97336780D01*
X122423148Y-97670114D02*
X123089815Y-97670114D01*
X122899339Y-97670114D02*
X122994577Y-97717733D01*
X122994577Y-97717733D02*
X123042196Y-97765352D01*
X123042196Y-97765352D02*
X123089815Y-97860590D01*
X123089815Y-97860590D02*
X123089815Y-97955828D01*
X122423148Y-98432019D02*
X122470768Y-98336781D01*
X122470768Y-98336781D02*
X122518387Y-98289162D01*
X122518387Y-98289162D02*
X122613625Y-98241543D01*
X122613625Y-98241543D02*
X122899339Y-98241543D01*
X122899339Y-98241543D02*
X122994577Y-98289162D01*
X122994577Y-98289162D02*
X123042196Y-98336781D01*
X123042196Y-98336781D02*
X123089815Y-98432019D01*
X123089815Y-98432019D02*
X123089815Y-98574876D01*
X123089815Y-98574876D02*
X123042196Y-98670114D01*
X123042196Y-98670114D02*
X122994577Y-98717733D01*
X122994577Y-98717733D02*
X122899339Y-98765352D01*
X122899339Y-98765352D02*
X122613625Y-98765352D01*
X122613625Y-98765352D02*
X122518387Y-98717733D01*
X122518387Y-98717733D02*
X122470768Y-98670114D01*
X122470768Y-98670114D02*
X122423148Y-98574876D01*
X122423148Y-98574876D02*
X122423148Y-98432019D01*
X123089815Y-99193924D02*
X122423148Y-99193924D01*
X122994577Y-99193924D02*
X123042196Y-99241543D01*
X123042196Y-99241543D02*
X123089815Y-99336781D01*
X123089815Y-99336781D02*
X123089815Y-99479638D01*
X123089815Y-99479638D02*
X123042196Y-99574876D01*
X123042196Y-99574876D02*
X122946958Y-99622495D01*
X122946958Y-99622495D02*
X122423148Y-99622495D01*
X122423148Y-100098686D02*
X123089815Y-100098686D01*
X123423148Y-100098686D02*
X123375529Y-100051067D01*
X123375529Y-100051067D02*
X123327910Y-100098686D01*
X123327910Y-100098686D02*
X123375529Y-100146305D01*
X123375529Y-100146305D02*
X123423148Y-100098686D01*
X123423148Y-100098686D02*
X123327910Y-100098686D01*
X122470768Y-101003447D02*
X122423148Y-100908209D01*
X122423148Y-100908209D02*
X122423148Y-100717733D01*
X122423148Y-100717733D02*
X122470768Y-100622495D01*
X122470768Y-100622495D02*
X122518387Y-100574876D01*
X122518387Y-100574876D02*
X122613625Y-100527257D01*
X122613625Y-100527257D02*
X122899339Y-100527257D01*
X122899339Y-100527257D02*
X122994577Y-100574876D01*
X122994577Y-100574876D02*
X123042196Y-100622495D01*
X123042196Y-100622495D02*
X123089815Y-100717733D01*
X123089815Y-100717733D02*
X123089815Y-100908209D01*
X123089815Y-100908209D02*
X123042196Y-101003447D01*
X122470768Y-101384400D02*
X122423148Y-101479638D01*
X122423148Y-101479638D02*
X122423148Y-101670114D01*
X122423148Y-101670114D02*
X122470768Y-101765352D01*
X122470768Y-101765352D02*
X122566006Y-101812971D01*
X122566006Y-101812971D02*
X122613625Y-101812971D01*
X122613625Y-101812971D02*
X122708863Y-101765352D01*
X122708863Y-101765352D02*
X122756482Y-101670114D01*
X122756482Y-101670114D02*
X122756482Y-101527257D01*
X122756482Y-101527257D02*
X122804101Y-101432019D01*
X122804101Y-101432019D02*
X122899339Y-101384400D01*
X122899339Y-101384400D02*
X122946958Y-101384400D01*
X122946958Y-101384400D02*
X123042196Y-101432019D01*
X123042196Y-101432019D02*
X123089815Y-101527257D01*
X123089815Y-101527257D02*
X123089815Y-101670114D01*
X123089815Y-101670114D02*
X123042196Y-101765352D01*
D10*
X161171429Y-102570870D02*
X162028572Y-102570870D01*
X161600000Y-104070870D02*
X161600000Y-102570870D01*
X162742857Y-104070870D02*
X162600000Y-103999442D01*
X162600000Y-103999442D02*
X162528571Y-103928013D01*
X162528571Y-103928013D02*
X162457143Y-103785156D01*
X162457143Y-103785156D02*
X162457143Y-103356584D01*
X162457143Y-103356584D02*
X162528571Y-103213727D01*
X162528571Y-103213727D02*
X162600000Y-103142299D01*
X162600000Y-103142299D02*
X162742857Y-103070870D01*
X162742857Y-103070870D02*
X162957143Y-103070870D01*
X162957143Y-103070870D02*
X163100000Y-103142299D01*
X163100000Y-103142299D02*
X163171429Y-103213727D01*
X163171429Y-103213727D02*
X163242857Y-103356584D01*
X163242857Y-103356584D02*
X163242857Y-103785156D01*
X163242857Y-103785156D02*
X163171429Y-103928013D01*
X163171429Y-103928013D02*
X163100000Y-103999442D01*
X163100000Y-103999442D02*
X162957143Y-104070870D01*
X162957143Y-104070870D02*
X162742857Y-104070870D01*
X165028571Y-104070870D02*
X165028571Y-102570870D01*
X165028571Y-102570870D02*
X165528571Y-103642299D01*
X165528571Y-103642299D02*
X166028571Y-102570870D01*
X166028571Y-102570870D02*
X166028571Y-104070870D01*
X166742857Y-104070870D02*
X166742857Y-102570870D01*
X166742857Y-102570870D02*
X167314286Y-102570870D01*
X167314286Y-102570870D02*
X167457143Y-102642299D01*
X167457143Y-102642299D02*
X167528572Y-102713727D01*
X167528572Y-102713727D02*
X167600000Y-102856584D01*
X167600000Y-102856584D02*
X167600000Y-103070870D01*
X167600000Y-103070870D02*
X167528572Y-103213727D01*
X167528572Y-103213727D02*
X167457143Y-103285156D01*
X167457143Y-103285156D02*
X167314286Y-103356584D01*
X167314286Y-103356584D02*
X166742857Y-103356584D01*
X168242857Y-104070870D02*
X168242857Y-102570870D01*
X168242857Y-102570870D02*
X168814286Y-102570870D01*
X168814286Y-102570870D02*
X168957143Y-102642299D01*
X168957143Y-102642299D02*
X169028572Y-102713727D01*
X169028572Y-102713727D02*
X169100000Y-102856584D01*
X169100000Y-102856584D02*
X169100000Y-103070870D01*
X169100000Y-103070870D02*
X169028572Y-103213727D01*
X169028572Y-103213727D02*
X168957143Y-103285156D01*
X168957143Y-103285156D02*
X168814286Y-103356584D01*
X168814286Y-103356584D02*
X168242857Y-103356584D01*
X169528572Y-102570870D02*
X170385715Y-102570870D01*
X169957143Y-104070870D02*
X169957143Y-102570870D01*
X162100000Y-106414358D02*
X162314286Y-106485786D01*
X162314286Y-106485786D02*
X162671428Y-106485786D01*
X162671428Y-106485786D02*
X162814286Y-106414358D01*
X162814286Y-106414358D02*
X162885714Y-106342929D01*
X162885714Y-106342929D02*
X162957143Y-106200072D01*
X162957143Y-106200072D02*
X162957143Y-106057215D01*
X162957143Y-106057215D02*
X162885714Y-105914358D01*
X162885714Y-105914358D02*
X162814286Y-105842929D01*
X162814286Y-105842929D02*
X162671428Y-105771500D01*
X162671428Y-105771500D02*
X162385714Y-105700072D01*
X162385714Y-105700072D02*
X162242857Y-105628643D01*
X162242857Y-105628643D02*
X162171428Y-105557215D01*
X162171428Y-105557215D02*
X162100000Y-105414358D01*
X162100000Y-105414358D02*
X162100000Y-105271500D01*
X162100000Y-105271500D02*
X162171428Y-105128643D01*
X162171428Y-105128643D02*
X162242857Y-105057215D01*
X162242857Y-105057215D02*
X162385714Y-104985786D01*
X162385714Y-104985786D02*
X162742857Y-104985786D01*
X162742857Y-104985786D02*
X162957143Y-105057215D01*
X163814285Y-106485786D02*
X163671428Y-106414358D01*
X163671428Y-106414358D02*
X163599999Y-106342929D01*
X163599999Y-106342929D02*
X163528571Y-106200072D01*
X163528571Y-106200072D02*
X163528571Y-105771500D01*
X163528571Y-105771500D02*
X163599999Y-105628643D01*
X163599999Y-105628643D02*
X163671428Y-105557215D01*
X163671428Y-105557215D02*
X163814285Y-105485786D01*
X163814285Y-105485786D02*
X164028571Y-105485786D01*
X164028571Y-105485786D02*
X164171428Y-105557215D01*
X164171428Y-105557215D02*
X164242857Y-105628643D01*
X164242857Y-105628643D02*
X164314285Y-105771500D01*
X164314285Y-105771500D02*
X164314285Y-106200072D01*
X164314285Y-106200072D02*
X164242857Y-106342929D01*
X164242857Y-106342929D02*
X164171428Y-106414358D01*
X164171428Y-106414358D02*
X164028571Y-106485786D01*
X164028571Y-106485786D02*
X163814285Y-106485786D01*
X165171428Y-106485786D02*
X165028571Y-106414358D01*
X165028571Y-106414358D02*
X164957142Y-106271500D01*
X164957142Y-106271500D02*
X164957142Y-104985786D01*
X166385714Y-106485786D02*
X166385714Y-105700072D01*
X166385714Y-105700072D02*
X166314285Y-105557215D01*
X166314285Y-105557215D02*
X166171428Y-105485786D01*
X166171428Y-105485786D02*
X165885714Y-105485786D01*
X165885714Y-105485786D02*
X165742856Y-105557215D01*
X166385714Y-106414358D02*
X166242856Y-106485786D01*
X166242856Y-106485786D02*
X165885714Y-106485786D01*
X165885714Y-106485786D02*
X165742856Y-106414358D01*
X165742856Y-106414358D02*
X165671428Y-106271500D01*
X165671428Y-106271500D02*
X165671428Y-106128643D01*
X165671428Y-106128643D02*
X165742856Y-105985786D01*
X165742856Y-105985786D02*
X165885714Y-105914358D01*
X165885714Y-105914358D02*
X166242856Y-105914358D01*
X166242856Y-105914358D02*
X166385714Y-105842929D01*
X167099999Y-106485786D02*
X167099999Y-105485786D01*
X167099999Y-105771500D02*
X167171428Y-105628643D01*
X167171428Y-105628643D02*
X167242857Y-105557215D01*
X167242857Y-105557215D02*
X167385714Y-105485786D01*
X167385714Y-105485786D02*
X167528571Y-105485786D01*
X169171427Y-106485786D02*
X169171427Y-105485786D01*
X169171427Y-104985786D02*
X169099999Y-105057215D01*
X169099999Y-105057215D02*
X169171427Y-105128643D01*
X169171427Y-105128643D02*
X169242856Y-105057215D01*
X169242856Y-105057215D02*
X169171427Y-104985786D01*
X169171427Y-104985786D02*
X169171427Y-105128643D01*
X169885713Y-105485786D02*
X169885713Y-106485786D01*
X169885713Y-105628643D02*
X169957142Y-105557215D01*
X169957142Y-105557215D02*
X170099999Y-105485786D01*
X170099999Y-105485786D02*
X170314285Y-105485786D01*
X170314285Y-105485786D02*
X170457142Y-105557215D01*
X170457142Y-105557215D02*
X170528571Y-105700072D01*
X170528571Y-105700072D02*
X170528571Y-106485786D01*
D13*
X157771429Y-71073434D02*
X157438096Y-71073434D01*
X157438096Y-71597244D02*
X157438096Y-70597244D01*
X157438096Y-70597244D02*
X157914286Y-70597244D01*
X158295239Y-71597244D02*
X158295239Y-70930577D01*
X158295239Y-71121053D02*
X158342858Y-71025815D01*
X158342858Y-71025815D02*
X158390477Y-70978196D01*
X158390477Y-70978196D02*
X158485715Y-70930577D01*
X158485715Y-70930577D02*
X158580953Y-70930577D01*
X159057144Y-71597244D02*
X158961906Y-71549625D01*
X158961906Y-71549625D02*
X158914287Y-71502005D01*
X158914287Y-71502005D02*
X158866668Y-71406767D01*
X158866668Y-71406767D02*
X158866668Y-71121053D01*
X158866668Y-71121053D02*
X158914287Y-71025815D01*
X158914287Y-71025815D02*
X158961906Y-70978196D01*
X158961906Y-70978196D02*
X159057144Y-70930577D01*
X159057144Y-70930577D02*
X159200001Y-70930577D01*
X159200001Y-70930577D02*
X159295239Y-70978196D01*
X159295239Y-70978196D02*
X159342858Y-71025815D01*
X159342858Y-71025815D02*
X159390477Y-71121053D01*
X159390477Y-71121053D02*
X159390477Y-71406767D01*
X159390477Y-71406767D02*
X159342858Y-71502005D01*
X159342858Y-71502005D02*
X159295239Y-71549625D01*
X159295239Y-71549625D02*
X159200001Y-71597244D01*
X159200001Y-71597244D02*
X159057144Y-71597244D01*
X159819049Y-71597244D02*
X159819049Y-70930577D01*
X159819049Y-71025815D02*
X159866668Y-70978196D01*
X159866668Y-70978196D02*
X159961906Y-70930577D01*
X159961906Y-70930577D02*
X160104763Y-70930577D01*
X160104763Y-70930577D02*
X160200001Y-70978196D01*
X160200001Y-70978196D02*
X160247620Y-71073434D01*
X160247620Y-71073434D02*
X160247620Y-71597244D01*
X160247620Y-71073434D02*
X160295239Y-70978196D01*
X160295239Y-70978196D02*
X160390477Y-70930577D01*
X160390477Y-70930577D02*
X160533334Y-70930577D01*
X160533334Y-70930577D02*
X160628573Y-70978196D01*
X160628573Y-70978196D02*
X160676192Y-71073434D01*
X160676192Y-71073434D02*
X160676192Y-71597244D01*
X162438096Y-71597244D02*
X161866668Y-71597244D01*
X162152382Y-71597244D02*
X162152382Y-70597244D01*
X162152382Y-70597244D02*
X162057144Y-70740101D01*
X162057144Y-70740101D02*
X161961906Y-70835339D01*
X161961906Y-70835339D02*
X161866668Y-70882958D01*
X162819049Y-70692482D02*
X162866668Y-70644863D01*
X162866668Y-70644863D02*
X162961906Y-70597244D01*
X162961906Y-70597244D02*
X163200001Y-70597244D01*
X163200001Y-70597244D02*
X163295239Y-70644863D01*
X163295239Y-70644863D02*
X163342858Y-70692482D01*
X163342858Y-70692482D02*
X163390477Y-70787720D01*
X163390477Y-70787720D02*
X163390477Y-70882958D01*
X163390477Y-70882958D02*
X163342858Y-71025815D01*
X163342858Y-71025815D02*
X162771430Y-71597244D01*
X162771430Y-71597244D02*
X163390477Y-71597244D01*
X163676192Y-70597244D02*
X164009525Y-71597244D01*
X164009525Y-71597244D02*
X164342858Y-70597244D01*
X155890476Y-73207188D02*
X155414286Y-73207188D01*
X155414286Y-73207188D02*
X155414286Y-72207188D01*
X156223810Y-73207188D02*
X156223810Y-72540521D01*
X156223810Y-72207188D02*
X156176191Y-72254807D01*
X156176191Y-72254807D02*
X156223810Y-72302426D01*
X156223810Y-72302426D02*
X156271429Y-72254807D01*
X156271429Y-72254807D02*
X156223810Y-72207188D01*
X156223810Y-72207188D02*
X156223810Y-72302426D01*
X157033333Y-72683378D02*
X156700000Y-72683378D01*
X156700000Y-73207188D02*
X156700000Y-72207188D01*
X156700000Y-72207188D02*
X157176190Y-72207188D01*
X157938095Y-73159569D02*
X157842857Y-73207188D01*
X157842857Y-73207188D02*
X157652381Y-73207188D01*
X157652381Y-73207188D02*
X157557143Y-73159569D01*
X157557143Y-73159569D02*
X157509524Y-73064330D01*
X157509524Y-73064330D02*
X157509524Y-72683378D01*
X157509524Y-72683378D02*
X157557143Y-72588140D01*
X157557143Y-72588140D02*
X157652381Y-72540521D01*
X157652381Y-72540521D02*
X157842857Y-72540521D01*
X157842857Y-72540521D02*
X157938095Y-72588140D01*
X157938095Y-72588140D02*
X157985714Y-72683378D01*
X157985714Y-72683378D02*
X157985714Y-72778616D01*
X157985714Y-72778616D02*
X157509524Y-72873854D01*
X158414286Y-73207188D02*
X158414286Y-72207188D01*
X158414286Y-72207188D02*
X158795238Y-72207188D01*
X158795238Y-72207188D02*
X158890476Y-72254807D01*
X158890476Y-72254807D02*
X158938095Y-72302426D01*
X158938095Y-72302426D02*
X158985714Y-72397664D01*
X158985714Y-72397664D02*
X158985714Y-72540521D01*
X158985714Y-72540521D02*
X158938095Y-72635759D01*
X158938095Y-72635759D02*
X158890476Y-72683378D01*
X158890476Y-72683378D02*
X158795238Y-72730997D01*
X158795238Y-72730997D02*
X158414286Y-72730997D01*
X159604762Y-72207188D02*
X159795238Y-72207188D01*
X159795238Y-72207188D02*
X159890476Y-72254807D01*
X159890476Y-72254807D02*
X159985714Y-72350045D01*
X159985714Y-72350045D02*
X160033333Y-72540521D01*
X160033333Y-72540521D02*
X160033333Y-72873854D01*
X160033333Y-72873854D02*
X159985714Y-73064330D01*
X159985714Y-73064330D02*
X159890476Y-73159569D01*
X159890476Y-73159569D02*
X159795238Y-73207188D01*
X159795238Y-73207188D02*
X159604762Y-73207188D01*
X159604762Y-73207188D02*
X159509524Y-73159569D01*
X159509524Y-73159569D02*
X159414286Y-73064330D01*
X159414286Y-73064330D02*
X159366667Y-72873854D01*
X159366667Y-72873854D02*
X159366667Y-72540521D01*
X159366667Y-72540521D02*
X159414286Y-72350045D01*
X159414286Y-72350045D02*
X159509524Y-72254807D01*
X159509524Y-72254807D02*
X159604762Y-72207188D01*
X160890476Y-72540521D02*
X160890476Y-73207188D01*
X160652381Y-72159569D02*
X160414286Y-72873854D01*
X160414286Y-72873854D02*
X161033333Y-72873854D01*
X162509524Y-72683378D02*
X162652381Y-72730997D01*
X162652381Y-72730997D02*
X162700000Y-72778616D01*
X162700000Y-72778616D02*
X162747619Y-72873854D01*
X162747619Y-72873854D02*
X162747619Y-73016711D01*
X162747619Y-73016711D02*
X162700000Y-73111949D01*
X162700000Y-73111949D02*
X162652381Y-73159569D01*
X162652381Y-73159569D02*
X162557143Y-73207188D01*
X162557143Y-73207188D02*
X162176191Y-73207188D01*
X162176191Y-73207188D02*
X162176191Y-72207188D01*
X162176191Y-72207188D02*
X162509524Y-72207188D01*
X162509524Y-72207188D02*
X162604762Y-72254807D01*
X162604762Y-72254807D02*
X162652381Y-72302426D01*
X162652381Y-72302426D02*
X162700000Y-72397664D01*
X162700000Y-72397664D02*
X162700000Y-72492902D01*
X162700000Y-72492902D02*
X162652381Y-72588140D01*
X162652381Y-72588140D02*
X162604762Y-72635759D01*
X162604762Y-72635759D02*
X162509524Y-72683378D01*
X162509524Y-72683378D02*
X162176191Y-72683378D01*
X163604762Y-73207188D02*
X163604762Y-72683378D01*
X163604762Y-72683378D02*
X163557143Y-72588140D01*
X163557143Y-72588140D02*
X163461905Y-72540521D01*
X163461905Y-72540521D02*
X163271429Y-72540521D01*
X163271429Y-72540521D02*
X163176191Y-72588140D01*
X163604762Y-73159569D02*
X163509524Y-73207188D01*
X163509524Y-73207188D02*
X163271429Y-73207188D01*
X163271429Y-73207188D02*
X163176191Y-73159569D01*
X163176191Y-73159569D02*
X163128572Y-73064330D01*
X163128572Y-73064330D02*
X163128572Y-72969092D01*
X163128572Y-72969092D02*
X163176191Y-72873854D01*
X163176191Y-72873854D02*
X163271429Y-72826235D01*
X163271429Y-72826235D02*
X163509524Y-72826235D01*
X163509524Y-72826235D02*
X163604762Y-72778616D01*
X163938096Y-72540521D02*
X164319048Y-72540521D01*
X164080953Y-72207188D02*
X164080953Y-73064330D01*
X164080953Y-73064330D02*
X164128572Y-73159569D01*
X164128572Y-73159569D02*
X164223810Y-73207188D01*
X164223810Y-73207188D02*
X164319048Y-73207188D01*
X164509525Y-72540521D02*
X164890477Y-72540521D01*
X164652382Y-72207188D02*
X164652382Y-73064330D01*
X164652382Y-73064330D02*
X164700001Y-73159569D01*
X164700001Y-73159569D02*
X164795239Y-73207188D01*
X164795239Y-73207188D02*
X164890477Y-73207188D01*
X165604763Y-73159569D02*
X165509525Y-73207188D01*
X165509525Y-73207188D02*
X165319049Y-73207188D01*
X165319049Y-73207188D02*
X165223811Y-73159569D01*
X165223811Y-73159569D02*
X165176192Y-73064330D01*
X165176192Y-73064330D02*
X165176192Y-72683378D01*
X165176192Y-72683378D02*
X165223811Y-72588140D01*
X165223811Y-72588140D02*
X165319049Y-72540521D01*
X165319049Y-72540521D02*
X165509525Y-72540521D01*
X165509525Y-72540521D02*
X165604763Y-72588140D01*
X165604763Y-72588140D02*
X165652382Y-72683378D01*
X165652382Y-72683378D02*
X165652382Y-72778616D01*
X165652382Y-72778616D02*
X165176192Y-72873854D01*
X166080954Y-73207188D02*
X166080954Y-72540521D01*
X166080954Y-72730997D02*
X166128573Y-72635759D01*
X166128573Y-72635759D02*
X166176192Y-72588140D01*
X166176192Y-72588140D02*
X166271430Y-72540521D01*
X166271430Y-72540521D02*
X166366668Y-72540521D01*
X166604764Y-72540521D02*
X166842859Y-73207188D01*
X167080954Y-72540521D02*
X166842859Y-73207188D01*
X166842859Y-73207188D02*
X166747621Y-73445283D01*
X166747621Y-73445283D02*
X166700002Y-73492902D01*
X166700002Y-73492902D02*
X166604764Y-73540521D01*
D10*
X128979774Y-82439171D02*
X128694060Y-82439171D01*
X128694060Y-82439171D02*
X128551203Y-82367742D01*
X128551203Y-82367742D02*
X128408346Y-82224885D01*
X128408346Y-82224885D02*
X128336917Y-81939171D01*
X128336917Y-81939171D02*
X128336917Y-81439171D01*
X128336917Y-81439171D02*
X128408346Y-81153457D01*
X128408346Y-81153457D02*
X128551203Y-81010600D01*
X128551203Y-81010600D02*
X128694060Y-80939171D01*
X128694060Y-80939171D02*
X128979774Y-80939171D01*
X128979774Y-80939171D02*
X129122632Y-81010600D01*
X129122632Y-81010600D02*
X129265489Y-81153457D01*
X129265489Y-81153457D02*
X129336917Y-81439171D01*
X129336917Y-81439171D02*
X129336917Y-81939171D01*
X129336917Y-81939171D02*
X129265489Y-82224885D01*
X129265489Y-82224885D02*
X129122632Y-82367742D01*
X129122632Y-82367742D02*
X128979774Y-82439171D01*
X127051203Y-81939171D02*
X127051203Y-80939171D01*
X127694060Y-81939171D02*
X127694060Y-81153457D01*
X127694060Y-81153457D02*
X127622631Y-81010600D01*
X127622631Y-81010600D02*
X127479774Y-80939171D01*
X127479774Y-80939171D02*
X127265488Y-80939171D01*
X127265488Y-80939171D02*
X127122631Y-81010600D01*
X127122631Y-81010600D02*
X127051203Y-81082028D01*
X126551202Y-81939171D02*
X125979774Y-81939171D01*
X126336917Y-82439171D02*
X126336917Y-81153457D01*
X126336917Y-81153457D02*
X126265488Y-81010600D01*
X126265488Y-81010600D02*
X126122631Y-80939171D01*
X126122631Y-80939171D02*
X125979774Y-80939171D01*
X125479774Y-81939171D02*
X125479774Y-80439171D01*
X125479774Y-81867742D02*
X125336917Y-81939171D01*
X125336917Y-81939171D02*
X125051202Y-81939171D01*
X125051202Y-81939171D02*
X124908345Y-81867742D01*
X124908345Y-81867742D02*
X124836917Y-81796314D01*
X124836917Y-81796314D02*
X124765488Y-81653457D01*
X124765488Y-81653457D02*
X124765488Y-81224885D01*
X124765488Y-81224885D02*
X124836917Y-81082028D01*
X124836917Y-81082028D02*
X124908345Y-81010600D01*
X124908345Y-81010600D02*
X125051202Y-80939171D01*
X125051202Y-80939171D02*
X125336917Y-80939171D01*
X125336917Y-80939171D02*
X125479774Y-81010600D01*
X123479774Y-81939171D02*
X123479774Y-80939171D01*
X124122631Y-81939171D02*
X124122631Y-81153457D01*
X124122631Y-81153457D02*
X124051202Y-81010600D01*
X124051202Y-81010600D02*
X123908345Y-80939171D01*
X123908345Y-80939171D02*
X123694059Y-80939171D01*
X123694059Y-80939171D02*
X123551202Y-81010600D01*
X123551202Y-81010600D02*
X123479774Y-81082028D01*
X122979773Y-81939171D02*
X122408345Y-81939171D01*
X122765488Y-82439171D02*
X122765488Y-81153457D01*
X122765488Y-81153457D02*
X122694059Y-81010600D01*
X122694059Y-81010600D02*
X122551202Y-80939171D01*
X122551202Y-80939171D02*
X122408345Y-80939171D01*
X120836916Y-82296314D02*
X120765488Y-82367742D01*
X120765488Y-82367742D02*
X120622631Y-82439171D01*
X120622631Y-82439171D02*
X120265488Y-82439171D01*
X120265488Y-82439171D02*
X120122631Y-82367742D01*
X120122631Y-82367742D02*
X120051202Y-82296314D01*
X120051202Y-82296314D02*
X119979773Y-82153457D01*
X119979773Y-82153457D02*
X119979773Y-82010600D01*
X119979773Y-82010600D02*
X120051202Y-81796314D01*
X120051202Y-81796314D02*
X120908345Y-80939171D01*
X120908345Y-80939171D02*
X119979773Y-80939171D01*
X86950001Y-124778328D02*
X87807144Y-124778328D01*
X87378572Y-126278328D02*
X87378572Y-124778328D01*
X88521429Y-126278328D02*
X88378572Y-126206900D01*
X88378572Y-126206900D02*
X88307143Y-126135471D01*
X88307143Y-126135471D02*
X88235715Y-125992614D01*
X88235715Y-125992614D02*
X88235715Y-125564042D01*
X88235715Y-125564042D02*
X88307143Y-125421185D01*
X88307143Y-125421185D02*
X88378572Y-125349757D01*
X88378572Y-125349757D02*
X88521429Y-125278328D01*
X88521429Y-125278328D02*
X88735715Y-125278328D01*
X88735715Y-125278328D02*
X88878572Y-125349757D01*
X88878572Y-125349757D02*
X88950001Y-125421185D01*
X88950001Y-125421185D02*
X89021429Y-125564042D01*
X89021429Y-125564042D02*
X89021429Y-125992614D01*
X89021429Y-125992614D02*
X88950001Y-126135471D01*
X88950001Y-126135471D02*
X88878572Y-126206900D01*
X88878572Y-126206900D02*
X88735715Y-126278328D01*
X88735715Y-126278328D02*
X88521429Y-126278328D01*
X90807143Y-126278328D02*
X90807143Y-124778328D01*
X90807143Y-124778328D02*
X91307143Y-125849757D01*
X91307143Y-125849757D02*
X91807143Y-124778328D01*
X91807143Y-124778328D02*
X91807143Y-126278328D01*
X92521429Y-126278328D02*
X92521429Y-124778328D01*
X92521429Y-124778328D02*
X93092858Y-124778328D01*
X93092858Y-124778328D02*
X93235715Y-124849757D01*
X93235715Y-124849757D02*
X93307144Y-124921185D01*
X93307144Y-124921185D02*
X93378572Y-125064042D01*
X93378572Y-125064042D02*
X93378572Y-125278328D01*
X93378572Y-125278328D02*
X93307144Y-125421185D01*
X93307144Y-125421185D02*
X93235715Y-125492614D01*
X93235715Y-125492614D02*
X93092858Y-125564042D01*
X93092858Y-125564042D02*
X92521429Y-125564042D01*
X94021429Y-126278328D02*
X94021429Y-124778328D01*
X94021429Y-124778328D02*
X94592858Y-124778328D01*
X94592858Y-124778328D02*
X94735715Y-124849757D01*
X94735715Y-124849757D02*
X94807144Y-124921185D01*
X94807144Y-124921185D02*
X94878572Y-125064042D01*
X94878572Y-125064042D02*
X94878572Y-125278328D01*
X94878572Y-125278328D02*
X94807144Y-125421185D01*
X94807144Y-125421185D02*
X94735715Y-125492614D01*
X94735715Y-125492614D02*
X94592858Y-125564042D01*
X94592858Y-125564042D02*
X94021429Y-125564042D01*
X95307144Y-124778328D02*
X96164287Y-124778328D01*
X95735715Y-126278328D02*
X95735715Y-124778328D01*
X98592858Y-126278328D02*
X97735715Y-126278328D01*
X98164286Y-126278328D02*
X98164286Y-124778328D01*
X98164286Y-124778328D02*
X98021429Y-124992614D01*
X98021429Y-124992614D02*
X97878572Y-125135471D01*
X97878572Y-125135471D02*
X97735715Y-125206900D01*
X99164286Y-124921185D02*
X99235714Y-124849757D01*
X99235714Y-124849757D02*
X99378572Y-124778328D01*
X99378572Y-124778328D02*
X99735714Y-124778328D01*
X99735714Y-124778328D02*
X99878572Y-124849757D01*
X99878572Y-124849757D02*
X99950000Y-124921185D01*
X99950000Y-124921185D02*
X100021429Y-125064042D01*
X100021429Y-125064042D02*
X100021429Y-125206900D01*
X100021429Y-125206900D02*
X99950000Y-125421185D01*
X99950000Y-125421185D02*
X99092857Y-126278328D01*
X99092857Y-126278328D02*
X100021429Y-126278328D01*
X100450000Y-124778328D02*
X100950000Y-126278328D01*
X100950000Y-126278328D02*
X101450000Y-124778328D01*
D12*
X132381541Y-108653152D02*
X132619636Y-109319819D01*
X132619636Y-109319819D02*
X132857731Y-108653152D01*
X133429160Y-108319819D02*
X133524398Y-108319819D01*
X133524398Y-108319819D02*
X133619636Y-108367438D01*
X133619636Y-108367438D02*
X133667255Y-108415057D01*
X133667255Y-108415057D02*
X133714874Y-108510295D01*
X133714874Y-108510295D02*
X133762493Y-108700771D01*
X133762493Y-108700771D02*
X133762493Y-108938866D01*
X133762493Y-108938866D02*
X133714874Y-109129342D01*
X133714874Y-109129342D02*
X133667255Y-109224580D01*
X133667255Y-109224580D02*
X133619636Y-109272200D01*
X133619636Y-109272200D02*
X133524398Y-109319819D01*
X133524398Y-109319819D02*
X133429160Y-109319819D01*
X133429160Y-109319819D02*
X133333922Y-109272200D01*
X133333922Y-109272200D02*
X133286303Y-109224580D01*
X133286303Y-109224580D02*
X133238684Y-109129342D01*
X133238684Y-109129342D02*
X133191065Y-108938866D01*
X133191065Y-108938866D02*
X133191065Y-108700771D01*
X133191065Y-108700771D02*
X133238684Y-108510295D01*
X133238684Y-108510295D02*
X133286303Y-108415057D01*
X133286303Y-108415057D02*
X133333922Y-108367438D01*
X133333922Y-108367438D02*
X133429160Y-108319819D01*
X134191065Y-109224580D02*
X134238684Y-109272200D01*
X134238684Y-109272200D02*
X134191065Y-109319819D01*
X134191065Y-109319819D02*
X134143446Y-109272200D01*
X134143446Y-109272200D02*
X134191065Y-109224580D01*
X134191065Y-109224580D02*
X134191065Y-109319819D01*
X134572017Y-108319819D02*
X135191064Y-108319819D01*
X135191064Y-108319819D02*
X134857731Y-108700771D01*
X134857731Y-108700771D02*
X135000588Y-108700771D01*
X135000588Y-108700771D02*
X135095826Y-108748390D01*
X135095826Y-108748390D02*
X135143445Y-108796009D01*
X135143445Y-108796009D02*
X135191064Y-108891247D01*
X135191064Y-108891247D02*
X135191064Y-109129342D01*
X135191064Y-109129342D02*
X135143445Y-109224580D01*
X135143445Y-109224580D02*
X135095826Y-109272200D01*
X135095826Y-109272200D02*
X135000588Y-109319819D01*
X135000588Y-109319819D02*
X134714874Y-109319819D01*
X134714874Y-109319819D02*
X134619636Y-109272200D01*
X134619636Y-109272200D02*
X134572017Y-109224580D01*
X136857731Y-108319819D02*
X136381541Y-108319819D01*
X136381541Y-108319819D02*
X136333922Y-108796009D01*
X136333922Y-108796009D02*
X136381541Y-108748390D01*
X136381541Y-108748390D02*
X136476779Y-108700771D01*
X136476779Y-108700771D02*
X136714874Y-108700771D01*
X136714874Y-108700771D02*
X136810112Y-108748390D01*
X136810112Y-108748390D02*
X136857731Y-108796009D01*
X136857731Y-108796009D02*
X136905350Y-108891247D01*
X136905350Y-108891247D02*
X136905350Y-109129342D01*
X136905350Y-109129342D02*
X136857731Y-109224580D01*
X136857731Y-109224580D02*
X136810112Y-109272200D01*
X136810112Y-109272200D02*
X136714874Y-109319819D01*
X136714874Y-109319819D02*
X136476779Y-109319819D01*
X136476779Y-109319819D02*
X136381541Y-109272200D01*
X136381541Y-109272200D02*
X136333922Y-109224580D01*
X138048207Y-108272200D02*
X137191065Y-109557914D01*
X138333922Y-108415057D02*
X138381541Y-108367438D01*
X138381541Y-108367438D02*
X138476779Y-108319819D01*
X138476779Y-108319819D02*
X138714874Y-108319819D01*
X138714874Y-108319819D02*
X138810112Y-108367438D01*
X138810112Y-108367438D02*
X138857731Y-108415057D01*
X138857731Y-108415057D02*
X138905350Y-108510295D01*
X138905350Y-108510295D02*
X138905350Y-108605533D01*
X138905350Y-108605533D02*
X138857731Y-108748390D01*
X138857731Y-108748390D02*
X138286303Y-109319819D01*
X138286303Y-109319819D02*
X138905350Y-109319819D01*
X139238684Y-108319819D02*
X139857731Y-108319819D01*
X139857731Y-108319819D02*
X139524398Y-108700771D01*
X139524398Y-108700771D02*
X139667255Y-108700771D01*
X139667255Y-108700771D02*
X139762493Y-108748390D01*
X139762493Y-108748390D02*
X139810112Y-108796009D01*
X139810112Y-108796009D02*
X139857731Y-108891247D01*
X139857731Y-108891247D02*
X139857731Y-109129342D01*
X139857731Y-109129342D02*
X139810112Y-109224580D01*
X139810112Y-109224580D02*
X139762493Y-109272200D01*
X139762493Y-109272200D02*
X139667255Y-109319819D01*
X139667255Y-109319819D02*
X139381541Y-109319819D01*
X139381541Y-109319819D02*
X139286303Y-109272200D01*
X139286303Y-109272200D02*
X139238684Y-109224580D01*
D10*
X112457366Y-75905624D02*
X112255336Y-76107655D01*
X112255336Y-76107655D02*
X112103813Y-76158162D01*
X112103813Y-76158162D02*
X111901782Y-76158162D01*
X111901782Y-76158162D02*
X111649244Y-76006639D01*
X111649244Y-76006639D02*
X111295691Y-75653086D01*
X111295691Y-75653086D02*
X111144168Y-75400548D01*
X111144168Y-75400548D02*
X111144168Y-75198517D01*
X111144168Y-75198517D02*
X111194676Y-75046994D01*
X111194676Y-75046994D02*
X111396706Y-74844964D01*
X111396706Y-74844964D02*
X111548229Y-74794456D01*
X111548229Y-74794456D02*
X111750259Y-74794456D01*
X111750259Y-74794456D02*
X112002798Y-74945979D01*
X112002798Y-74945979D02*
X112356351Y-75299533D01*
X112356351Y-75299533D02*
X112507874Y-75552071D01*
X112507874Y-75552071D02*
X112507874Y-75754101D01*
X112507874Y-75754101D02*
X112457366Y-75905624D01*
X110740107Y-76915777D02*
X110033000Y-76208670D01*
X111194675Y-76461208D02*
X110639091Y-75905624D01*
X110639091Y-75905624D02*
X110487568Y-75855117D01*
X110487568Y-75855117D02*
X110336046Y-75905624D01*
X110336046Y-75905624D02*
X110184523Y-76057147D01*
X110184523Y-76057147D02*
X110134015Y-76208670D01*
X110134015Y-76208670D02*
X110134015Y-76309685D01*
X110386553Y-77269330D02*
X109982492Y-77673391D01*
X110588584Y-77774407D02*
X109679446Y-76865269D01*
X109679446Y-76865269D02*
X109527923Y-76814762D01*
X109527923Y-76814762D02*
X109376401Y-76865269D01*
X109376401Y-76865269D02*
X109275385Y-76966285D01*
X109628939Y-78026945D02*
X108568278Y-76966285D01*
X109578431Y-77976437D02*
X109527923Y-78127960D01*
X109527923Y-78127960D02*
X109325893Y-78329991D01*
X109325893Y-78329991D02*
X109174370Y-78380498D01*
X109174370Y-78380498D02*
X109073355Y-78380498D01*
X109073355Y-78380498D02*
X108921832Y-78329991D01*
X108921832Y-78329991D02*
X108618786Y-78026945D01*
X108618786Y-78026945D02*
X108568278Y-77875422D01*
X108568278Y-77875422D02*
X108568278Y-77774407D01*
X108568278Y-77774407D02*
X108618786Y-77622884D01*
X108618786Y-77622884D02*
X108820817Y-77420853D01*
X108820817Y-77420853D02*
X108972339Y-77370346D01*
X108214725Y-79441159D02*
X107507618Y-78734052D01*
X108669294Y-78986590D02*
X108113710Y-78431006D01*
X108113710Y-78431006D02*
X107962187Y-78380498D01*
X107962187Y-78380498D02*
X107810664Y-78431006D01*
X107810664Y-78431006D02*
X107659141Y-78582529D01*
X107659141Y-78582529D02*
X107608633Y-78734052D01*
X107608633Y-78734052D02*
X107608633Y-78835067D01*
X107861171Y-79794712D02*
X107457110Y-80198773D01*
X108063202Y-80299788D02*
X107154065Y-79390651D01*
X107154065Y-79390651D02*
X107002542Y-79340143D01*
X107002542Y-79340143D02*
X106851019Y-79390651D01*
X106851019Y-79390651D02*
X106750004Y-79491666D01*
X105032744Y-81208926D02*
X105638836Y-80602834D01*
X105335790Y-80905880D02*
X106396450Y-81966540D01*
X106396450Y-81966540D02*
X106345943Y-81714002D01*
X106345943Y-81714002D02*
X106345943Y-81511971D01*
X106345943Y-81511971D02*
X106396450Y-81360448D01*
X157150000Y-125985156D02*
X156650000Y-125985156D01*
X156650000Y-126770870D02*
X156650000Y-125270870D01*
X156650000Y-125270870D02*
X157364286Y-125270870D01*
X157935714Y-126770870D02*
X157935714Y-125770870D01*
X157935714Y-126056584D02*
X158007143Y-125913727D01*
X158007143Y-125913727D02*
X158078572Y-125842299D01*
X158078572Y-125842299D02*
X158221429Y-125770870D01*
X158221429Y-125770870D02*
X158364286Y-125770870D01*
X159078571Y-126770870D02*
X158935714Y-126699442D01*
X158935714Y-126699442D02*
X158864285Y-126628013D01*
X158864285Y-126628013D02*
X158792857Y-126485156D01*
X158792857Y-126485156D02*
X158792857Y-126056584D01*
X158792857Y-126056584D02*
X158864285Y-125913727D01*
X158864285Y-125913727D02*
X158935714Y-125842299D01*
X158935714Y-125842299D02*
X159078571Y-125770870D01*
X159078571Y-125770870D02*
X159292857Y-125770870D01*
X159292857Y-125770870D02*
X159435714Y-125842299D01*
X159435714Y-125842299D02*
X159507143Y-125913727D01*
X159507143Y-125913727D02*
X159578571Y-126056584D01*
X159578571Y-126056584D02*
X159578571Y-126485156D01*
X159578571Y-126485156D02*
X159507143Y-126628013D01*
X159507143Y-126628013D02*
X159435714Y-126699442D01*
X159435714Y-126699442D02*
X159292857Y-126770870D01*
X159292857Y-126770870D02*
X159078571Y-126770870D01*
X160221428Y-126770870D02*
X160221428Y-125770870D01*
X160221428Y-125913727D02*
X160292857Y-125842299D01*
X160292857Y-125842299D02*
X160435714Y-125770870D01*
X160435714Y-125770870D02*
X160650000Y-125770870D01*
X160650000Y-125770870D02*
X160792857Y-125842299D01*
X160792857Y-125842299D02*
X160864286Y-125985156D01*
X160864286Y-125985156D02*
X160864286Y-126770870D01*
X160864286Y-125985156D02*
X160935714Y-125842299D01*
X160935714Y-125842299D02*
X161078571Y-125770870D01*
X161078571Y-125770870D02*
X161292857Y-125770870D01*
X161292857Y-125770870D02*
X161435714Y-125842299D01*
X161435714Y-125842299D02*
X161507143Y-125985156D01*
X161507143Y-125985156D02*
X161507143Y-126770870D01*
X153292858Y-129114358D02*
X153507144Y-129185786D01*
X153507144Y-129185786D02*
X153864286Y-129185786D01*
X153864286Y-129185786D02*
X154007144Y-129114358D01*
X154007144Y-129114358D02*
X154078572Y-129042929D01*
X154078572Y-129042929D02*
X154150001Y-128900072D01*
X154150001Y-128900072D02*
X154150001Y-128757215D01*
X154150001Y-128757215D02*
X154078572Y-128614358D01*
X154078572Y-128614358D02*
X154007144Y-128542929D01*
X154007144Y-128542929D02*
X153864286Y-128471500D01*
X153864286Y-128471500D02*
X153578572Y-128400072D01*
X153578572Y-128400072D02*
X153435715Y-128328643D01*
X153435715Y-128328643D02*
X153364286Y-128257215D01*
X153364286Y-128257215D02*
X153292858Y-128114358D01*
X153292858Y-128114358D02*
X153292858Y-127971500D01*
X153292858Y-127971500D02*
X153364286Y-127828643D01*
X153364286Y-127828643D02*
X153435715Y-127757215D01*
X153435715Y-127757215D02*
X153578572Y-127685786D01*
X153578572Y-127685786D02*
X153935715Y-127685786D01*
X153935715Y-127685786D02*
X154150001Y-127757215D01*
X155007143Y-129185786D02*
X154864286Y-129114358D01*
X154864286Y-129114358D02*
X154792857Y-129042929D01*
X154792857Y-129042929D02*
X154721429Y-128900072D01*
X154721429Y-128900072D02*
X154721429Y-128471500D01*
X154721429Y-128471500D02*
X154792857Y-128328643D01*
X154792857Y-128328643D02*
X154864286Y-128257215D01*
X154864286Y-128257215D02*
X155007143Y-128185786D01*
X155007143Y-128185786D02*
X155221429Y-128185786D01*
X155221429Y-128185786D02*
X155364286Y-128257215D01*
X155364286Y-128257215D02*
X155435715Y-128328643D01*
X155435715Y-128328643D02*
X155507143Y-128471500D01*
X155507143Y-128471500D02*
X155507143Y-128900072D01*
X155507143Y-128900072D02*
X155435715Y-129042929D01*
X155435715Y-129042929D02*
X155364286Y-129114358D01*
X155364286Y-129114358D02*
X155221429Y-129185786D01*
X155221429Y-129185786D02*
X155007143Y-129185786D01*
X156364286Y-129185786D02*
X156221429Y-129114358D01*
X156221429Y-129114358D02*
X156150000Y-128971500D01*
X156150000Y-128971500D02*
X156150000Y-127685786D01*
X157578572Y-129185786D02*
X157578572Y-128400072D01*
X157578572Y-128400072D02*
X157507143Y-128257215D01*
X157507143Y-128257215D02*
X157364286Y-128185786D01*
X157364286Y-128185786D02*
X157078572Y-128185786D01*
X157078572Y-128185786D02*
X156935714Y-128257215D01*
X157578572Y-129114358D02*
X157435714Y-129185786D01*
X157435714Y-129185786D02*
X157078572Y-129185786D01*
X157078572Y-129185786D02*
X156935714Y-129114358D01*
X156935714Y-129114358D02*
X156864286Y-128971500D01*
X156864286Y-128971500D02*
X156864286Y-128828643D01*
X156864286Y-128828643D02*
X156935714Y-128685786D01*
X156935714Y-128685786D02*
X157078572Y-128614358D01*
X157078572Y-128614358D02*
X157435714Y-128614358D01*
X157435714Y-128614358D02*
X157578572Y-128542929D01*
X158292857Y-129185786D02*
X158292857Y-128185786D01*
X158292857Y-128471500D02*
X158364286Y-128328643D01*
X158364286Y-128328643D02*
X158435715Y-128257215D01*
X158435715Y-128257215D02*
X158578572Y-128185786D01*
X158578572Y-128185786D02*
X158721429Y-128185786D01*
X160364285Y-129185786D02*
X160364285Y-127685786D01*
X160364285Y-127685786D02*
X160935714Y-127685786D01*
X160935714Y-127685786D02*
X161078571Y-127757215D01*
X161078571Y-127757215D02*
X161150000Y-127828643D01*
X161150000Y-127828643D02*
X161221428Y-127971500D01*
X161221428Y-127971500D02*
X161221428Y-128185786D01*
X161221428Y-128185786D02*
X161150000Y-128328643D01*
X161150000Y-128328643D02*
X161078571Y-128400072D01*
X161078571Y-128400072D02*
X160935714Y-128471500D01*
X160935714Y-128471500D02*
X160364285Y-128471500D01*
X162507143Y-129185786D02*
X162507143Y-128400072D01*
X162507143Y-128400072D02*
X162435714Y-128257215D01*
X162435714Y-128257215D02*
X162292857Y-128185786D01*
X162292857Y-128185786D02*
X162007143Y-128185786D01*
X162007143Y-128185786D02*
X161864285Y-128257215D01*
X162507143Y-129114358D02*
X162364285Y-129185786D01*
X162364285Y-129185786D02*
X162007143Y-129185786D01*
X162007143Y-129185786D02*
X161864285Y-129114358D01*
X161864285Y-129114358D02*
X161792857Y-128971500D01*
X161792857Y-128971500D02*
X161792857Y-128828643D01*
X161792857Y-128828643D02*
X161864285Y-128685786D01*
X161864285Y-128685786D02*
X162007143Y-128614358D01*
X162007143Y-128614358D02*
X162364285Y-128614358D01*
X162364285Y-128614358D02*
X162507143Y-128542929D01*
X163221428Y-128185786D02*
X163221428Y-129185786D01*
X163221428Y-128328643D02*
X163292857Y-128257215D01*
X163292857Y-128257215D02*
X163435714Y-128185786D01*
X163435714Y-128185786D02*
X163650000Y-128185786D01*
X163650000Y-128185786D02*
X163792857Y-128257215D01*
X163792857Y-128257215D02*
X163864286Y-128400072D01*
X163864286Y-128400072D02*
X163864286Y-129185786D01*
X165150000Y-129114358D02*
X165007143Y-129185786D01*
X165007143Y-129185786D02*
X164721429Y-129185786D01*
X164721429Y-129185786D02*
X164578571Y-129114358D01*
X164578571Y-129114358D02*
X164507143Y-128971500D01*
X164507143Y-128971500D02*
X164507143Y-128400072D01*
X164507143Y-128400072D02*
X164578571Y-128257215D01*
X164578571Y-128257215D02*
X164721429Y-128185786D01*
X164721429Y-128185786D02*
X165007143Y-128185786D01*
X165007143Y-128185786D02*
X165150000Y-128257215D01*
X165150000Y-128257215D02*
X165221429Y-128400072D01*
X165221429Y-128400072D02*
X165221429Y-128542929D01*
X165221429Y-128542929D02*
X164507143Y-128685786D01*
X166078571Y-129185786D02*
X165935714Y-129114358D01*
X165935714Y-129114358D02*
X165864285Y-128971500D01*
X165864285Y-128971500D02*
X165864285Y-127685786D01*
D12*
X117629408Y-56354819D02*
X117629408Y-57069104D01*
X117629408Y-57069104D02*
X117581789Y-57211961D01*
X117581789Y-57211961D02*
X117486551Y-57307200D01*
X117486551Y-57307200D02*
X117343694Y-57354819D01*
X117343694Y-57354819D02*
X117248456Y-57354819D01*
X118534170Y-56688152D02*
X118534170Y-57354819D01*
X118296075Y-56307200D02*
X118057980Y-57021485D01*
X118057980Y-57021485D02*
X118677027Y-57021485D01*
X111491314Y-68591259D02*
X112634172Y-68591259D01*
X112062743Y-69162687D02*
X112062743Y-68019830D01*
X123981790Y-68550425D02*
X124743695Y-68550425D01*
X96574647Y-69781378D02*
X96574647Y-68781378D01*
X96574647Y-68781378D02*
X96812742Y-68781378D01*
X96812742Y-68781378D02*
X96955599Y-68828997D01*
X96955599Y-68828997D02*
X97050837Y-68924235D01*
X97050837Y-68924235D02*
X97098456Y-69019473D01*
X97098456Y-69019473D02*
X97146075Y-69209949D01*
X97146075Y-69209949D02*
X97146075Y-69352806D01*
X97146075Y-69352806D02*
X97098456Y-69543282D01*
X97098456Y-69543282D02*
X97050837Y-69638520D01*
X97050837Y-69638520D02*
X96955599Y-69733759D01*
X96955599Y-69733759D02*
X96812742Y-69781378D01*
X96812742Y-69781378D02*
X96574647Y-69781378D01*
X97479409Y-68781378D02*
X98098456Y-68781378D01*
X98098456Y-68781378D02*
X97765123Y-69162330D01*
X97765123Y-69162330D02*
X97907980Y-69162330D01*
X97907980Y-69162330D02*
X98003218Y-69209949D01*
X98003218Y-69209949D02*
X98050837Y-69257568D01*
X98050837Y-69257568D02*
X98098456Y-69352806D01*
X98098456Y-69352806D02*
X98098456Y-69590901D01*
X98098456Y-69590901D02*
X98050837Y-69686139D01*
X98050837Y-69686139D02*
X98003218Y-69733759D01*
X98003218Y-69733759D02*
X97907980Y-69781378D01*
X97907980Y-69781378D02*
X97622266Y-69781378D01*
X97622266Y-69781378D02*
X97527028Y-69733759D01*
X97527028Y-69733759D02*
X97479409Y-69686139D01*
X118261904Y-119554819D02*
X118261904Y-118554819D01*
X118261904Y-118554819D02*
X118499999Y-118554819D01*
X118499999Y-118554819D02*
X118642856Y-118602438D01*
X118642856Y-118602438D02*
X118738094Y-118697676D01*
X118738094Y-118697676D02*
X118785713Y-118792914D01*
X118785713Y-118792914D02*
X118833332Y-118983390D01*
X118833332Y-118983390D02*
X118833332Y-119126247D01*
X118833332Y-119126247D02*
X118785713Y-119316723D01*
X118785713Y-119316723D02*
X118738094Y-119411961D01*
X118738094Y-119411961D02*
X118642856Y-119507200D01*
X118642856Y-119507200D02*
X118499999Y-119554819D01*
X118499999Y-119554819D02*
X118261904Y-119554819D01*
X119166666Y-118554819D02*
X119833332Y-118554819D01*
X119833332Y-118554819D02*
X119404761Y-119554819D01*
X151204761Y-72700057D02*
X151109523Y-72652438D01*
X151109523Y-72652438D02*
X151014285Y-72557200D01*
X151014285Y-72557200D02*
X150871428Y-72414342D01*
X150871428Y-72414342D02*
X150776190Y-72366723D01*
X150776190Y-72366723D02*
X150680952Y-72366723D01*
X150728571Y-72604819D02*
X150633333Y-72557200D01*
X150633333Y-72557200D02*
X150538095Y-72461961D01*
X150538095Y-72461961D02*
X150490476Y-72271485D01*
X150490476Y-72271485D02*
X150490476Y-71938152D01*
X150490476Y-71938152D02*
X150538095Y-71747676D01*
X150538095Y-71747676D02*
X150633333Y-71652438D01*
X150633333Y-71652438D02*
X150728571Y-71604819D01*
X150728571Y-71604819D02*
X150919047Y-71604819D01*
X150919047Y-71604819D02*
X151014285Y-71652438D01*
X151014285Y-71652438D02*
X151109523Y-71747676D01*
X151109523Y-71747676D02*
X151157142Y-71938152D01*
X151157142Y-71938152D02*
X151157142Y-72271485D01*
X151157142Y-72271485D02*
X151109523Y-72461961D01*
X151109523Y-72461961D02*
X151014285Y-72557200D01*
X151014285Y-72557200D02*
X150919047Y-72604819D01*
X150919047Y-72604819D02*
X150728571Y-72604819D01*
X151538095Y-71700057D02*
X151585714Y-71652438D01*
X151585714Y-71652438D02*
X151680952Y-71604819D01*
X151680952Y-71604819D02*
X151919047Y-71604819D01*
X151919047Y-71604819D02*
X152014285Y-71652438D01*
X152014285Y-71652438D02*
X152061904Y-71700057D01*
X152061904Y-71700057D02*
X152109523Y-71795295D01*
X152109523Y-71795295D02*
X152109523Y-71890533D01*
X152109523Y-71890533D02*
X152061904Y-72033390D01*
X152061904Y-72033390D02*
X151490476Y-72604819D01*
X151490476Y-72604819D02*
X152109523Y-72604819D01*
X120875784Y-72241776D02*
X120780546Y-72194157D01*
X120780546Y-72194157D02*
X120685308Y-72098919D01*
X120685308Y-72098919D02*
X120542451Y-71956061D01*
X120542451Y-71956061D02*
X120447213Y-71908442D01*
X120447213Y-71908442D02*
X120351975Y-71908442D01*
X120399594Y-72146538D02*
X120304356Y-72098919D01*
X120304356Y-72098919D02*
X120209118Y-72003680D01*
X120209118Y-72003680D02*
X120161499Y-71813204D01*
X120161499Y-71813204D02*
X120161499Y-71479871D01*
X120161499Y-71479871D02*
X120209118Y-71289395D01*
X120209118Y-71289395D02*
X120304356Y-71194157D01*
X120304356Y-71194157D02*
X120399594Y-71146538D01*
X120399594Y-71146538D02*
X120590070Y-71146538D01*
X120590070Y-71146538D02*
X120685308Y-71194157D01*
X120685308Y-71194157D02*
X120780546Y-71289395D01*
X120780546Y-71289395D02*
X120828165Y-71479871D01*
X120828165Y-71479871D02*
X120828165Y-71813204D01*
X120828165Y-71813204D02*
X120780546Y-72003680D01*
X120780546Y-72003680D02*
X120685308Y-72098919D01*
X120685308Y-72098919D02*
X120590070Y-72146538D01*
X120590070Y-72146538D02*
X120399594Y-72146538D01*
X121161499Y-71146538D02*
X121780546Y-71146538D01*
X121780546Y-71146538D02*
X121447213Y-71527490D01*
X121447213Y-71527490D02*
X121590070Y-71527490D01*
X121590070Y-71527490D02*
X121685308Y-71575109D01*
X121685308Y-71575109D02*
X121732927Y-71622728D01*
X121732927Y-71622728D02*
X121780546Y-71717966D01*
X121780546Y-71717966D02*
X121780546Y-71956061D01*
X121780546Y-71956061D02*
X121732927Y-72051299D01*
X121732927Y-72051299D02*
X121685308Y-72098919D01*
X121685308Y-72098919D02*
X121590070Y-72146538D01*
X121590070Y-72146538D02*
X121304356Y-72146538D01*
X121304356Y-72146538D02*
X121209118Y-72098919D01*
X121209118Y-72098919D02*
X121161499Y-72051299D01*
X103765756Y-69332598D02*
X103664741Y-69366270D01*
X103664741Y-69366270D02*
X103530054Y-69366270D01*
X103530054Y-69366270D02*
X103328023Y-69366270D01*
X103328023Y-69366270D02*
X103227008Y-69399942D01*
X103227008Y-69399942D02*
X103159664Y-69467285D01*
X103361695Y-69601972D02*
X103260680Y-69635644D01*
X103260680Y-69635644D02*
X103125993Y-69635644D01*
X103125993Y-69635644D02*
X102957634Y-69534629D01*
X102957634Y-69534629D02*
X102721932Y-69298927D01*
X102721932Y-69298927D02*
X102620916Y-69130568D01*
X102620916Y-69130568D02*
X102620916Y-68995881D01*
X102620916Y-68995881D02*
X102654588Y-68894866D01*
X102654588Y-68894866D02*
X102789275Y-68760179D01*
X102789275Y-68760179D02*
X102890290Y-68726507D01*
X102890290Y-68726507D02*
X103024977Y-68726507D01*
X103024977Y-68726507D02*
X103193336Y-68827522D01*
X103193336Y-68827522D02*
X103429038Y-69063224D01*
X103429038Y-69063224D02*
X103530054Y-69231583D01*
X103530054Y-69231583D02*
X103530054Y-69366270D01*
X103530054Y-69366270D02*
X103496382Y-69467285D01*
X103496382Y-69467285D02*
X103361695Y-69601972D01*
X104338176Y-68625492D02*
X103934115Y-69029553D01*
X104136145Y-68827522D02*
X103429038Y-68120415D01*
X103429038Y-68120415D02*
X103462710Y-68288774D01*
X103462710Y-68288774D02*
X103462710Y-68423461D01*
X103462710Y-68423461D02*
X103429038Y-68524476D01*
X105011611Y-67952057D02*
X104607550Y-68356118D01*
X104809580Y-68154087D02*
X104102473Y-67446980D01*
X104102473Y-67446980D02*
X104136145Y-67615339D01*
X104136145Y-67615339D02*
X104136145Y-67750026D01*
X104136145Y-67750026D02*
X104102473Y-67851041D01*
X115283332Y-105084580D02*
X115235713Y-105132200D01*
X115235713Y-105132200D02*
X115092856Y-105179819D01*
X115092856Y-105179819D02*
X114997618Y-105179819D01*
X114997618Y-105179819D02*
X114854761Y-105132200D01*
X114854761Y-105132200D02*
X114759523Y-105036961D01*
X114759523Y-105036961D02*
X114711904Y-104941723D01*
X114711904Y-104941723D02*
X114664285Y-104751247D01*
X114664285Y-104751247D02*
X114664285Y-104608390D01*
X114664285Y-104608390D02*
X114711904Y-104417914D01*
X114711904Y-104417914D02*
X114759523Y-104322676D01*
X114759523Y-104322676D02*
X114854761Y-104227438D01*
X114854761Y-104227438D02*
X114997618Y-104179819D01*
X114997618Y-104179819D02*
X115092856Y-104179819D01*
X115092856Y-104179819D02*
X115235713Y-104227438D01*
X115235713Y-104227438D02*
X115283332Y-104275057D01*
X115616666Y-104179819D02*
X116235713Y-104179819D01*
X116235713Y-104179819D02*
X115902380Y-104560771D01*
X115902380Y-104560771D02*
X116045237Y-104560771D01*
X116045237Y-104560771D02*
X116140475Y-104608390D01*
X116140475Y-104608390D02*
X116188094Y-104656009D01*
X116188094Y-104656009D02*
X116235713Y-104751247D01*
X116235713Y-104751247D02*
X116235713Y-104989342D01*
X116235713Y-104989342D02*
X116188094Y-105084580D01*
X116188094Y-105084580D02*
X116140475Y-105132200D01*
X116140475Y-105132200D02*
X116045237Y-105179819D01*
X116045237Y-105179819D02*
X115759523Y-105179819D01*
X115759523Y-105179819D02*
X115664285Y-105132200D01*
X115664285Y-105132200D02*
X115616666Y-105084580D01*
X181954819Y-121883333D02*
X182669104Y-121883333D01*
X182669104Y-121883333D02*
X182811961Y-121930952D01*
X182811961Y-121930952D02*
X182907200Y-122026190D01*
X182907200Y-122026190D02*
X182954819Y-122169047D01*
X182954819Y-122169047D02*
X182954819Y-122264285D01*
X182050057Y-121454761D02*
X182002438Y-121407142D01*
X182002438Y-121407142D02*
X181954819Y-121311904D01*
X181954819Y-121311904D02*
X181954819Y-121073809D01*
X181954819Y-121073809D02*
X182002438Y-120978571D01*
X182002438Y-120978571D02*
X182050057Y-120930952D01*
X182050057Y-120930952D02*
X182145295Y-120883333D01*
X182145295Y-120883333D02*
X182240533Y-120883333D01*
X182240533Y-120883333D02*
X182383390Y-120930952D01*
X182383390Y-120930952D02*
X182954819Y-121502380D01*
X182954819Y-121502380D02*
X182954819Y-120883333D01*
X172264700Y-125721428D02*
X172264700Y-124578571D01*
X172836128Y-125149999D02*
X171693271Y-125149999D01*
X172164700Y-118521428D02*
X172164700Y-117378571D01*
X154554819Y-118692857D02*
X154078628Y-119026190D01*
X154554819Y-119264285D02*
X153554819Y-119264285D01*
X153554819Y-119264285D02*
X153554819Y-118883333D01*
X153554819Y-118883333D02*
X153602438Y-118788095D01*
X153602438Y-118788095D02*
X153650057Y-118740476D01*
X153650057Y-118740476D02*
X153745295Y-118692857D01*
X153745295Y-118692857D02*
X153888152Y-118692857D01*
X153888152Y-118692857D02*
X153983390Y-118740476D01*
X153983390Y-118740476D02*
X154031009Y-118788095D01*
X154031009Y-118788095D02*
X154078628Y-118883333D01*
X154078628Y-118883333D02*
X154078628Y-119264285D01*
X154554819Y-117740476D02*
X154554819Y-118311904D01*
X154554819Y-118026190D02*
X153554819Y-118026190D01*
X153554819Y-118026190D02*
X153697676Y-118121428D01*
X153697676Y-118121428D02*
X153792914Y-118216666D01*
X153792914Y-118216666D02*
X153840533Y-118311904D01*
X153888152Y-116883333D02*
X154554819Y-116883333D01*
X153507200Y-117121428D02*
X154221485Y-117359523D01*
X154221485Y-117359523D02*
X154221485Y-116740476D01*
X100758002Y-73625744D02*
X100656987Y-73659416D01*
X100656987Y-73659416D02*
X100522300Y-73659416D01*
X100522300Y-73659416D02*
X100320269Y-73659416D01*
X100320269Y-73659416D02*
X100219254Y-73693088D01*
X100219254Y-73693088D02*
X100151911Y-73760431D01*
X100353941Y-73895118D02*
X100252926Y-73928790D01*
X100252926Y-73928790D02*
X100118239Y-73928790D01*
X100118239Y-73928790D02*
X99949880Y-73827775D01*
X99949880Y-73827775D02*
X99714178Y-73592072D01*
X99714178Y-73592072D02*
X99613163Y-73423714D01*
X99613163Y-73423714D02*
X99613163Y-73289027D01*
X99613163Y-73289027D02*
X99646834Y-73188011D01*
X99646834Y-73188011D02*
X99781521Y-73053324D01*
X99781521Y-73053324D02*
X99882537Y-73019653D01*
X99882537Y-73019653D02*
X100017224Y-73019653D01*
X100017224Y-73019653D02*
X100185582Y-73120668D01*
X100185582Y-73120668D02*
X100421285Y-73356370D01*
X100421285Y-73356370D02*
X100522300Y-73524729D01*
X100522300Y-73524729D02*
X100522300Y-73659416D01*
X100522300Y-73659416D02*
X100488628Y-73760431D01*
X100488628Y-73760431D02*
X100353941Y-73895118D01*
X100555972Y-72278874D02*
X100421285Y-72413561D01*
X100421285Y-72413561D02*
X100387613Y-72514576D01*
X100387613Y-72514576D02*
X100387613Y-72581920D01*
X100387613Y-72581920D02*
X100421285Y-72750279D01*
X100421285Y-72750279D02*
X100522300Y-72918637D01*
X100522300Y-72918637D02*
X100791674Y-73188011D01*
X100791674Y-73188011D02*
X100892689Y-73221683D01*
X100892689Y-73221683D02*
X100960033Y-73221683D01*
X100960033Y-73221683D02*
X101061048Y-73188011D01*
X101061048Y-73188011D02*
X101195735Y-73053324D01*
X101195735Y-73053324D02*
X101229407Y-72952309D01*
X101229407Y-72952309D02*
X101229407Y-72884966D01*
X101229407Y-72884966D02*
X101195735Y-72783950D01*
X101195735Y-72783950D02*
X101027376Y-72615592D01*
X101027376Y-72615592D02*
X100926361Y-72581920D01*
X100926361Y-72581920D02*
X100859017Y-72581920D01*
X100859017Y-72581920D02*
X100758002Y-72615592D01*
X100758002Y-72615592D02*
X100623315Y-72750279D01*
X100623315Y-72750279D02*
X100589643Y-72851294D01*
X100589643Y-72851294D02*
X100589643Y-72918637D01*
X100589643Y-72918637D02*
X100623315Y-73019653D01*
X140903924Y-56028260D02*
X140903924Y-56742545D01*
X140903924Y-56742545D02*
X140856305Y-56885402D01*
X140856305Y-56885402D02*
X140761067Y-56980641D01*
X140761067Y-56980641D02*
X140618210Y-57028260D01*
X140618210Y-57028260D02*
X140522972Y-57028260D01*
X141856305Y-56028260D02*
X141380115Y-56028260D01*
X141380115Y-56028260D02*
X141332496Y-56504450D01*
X141332496Y-56504450D02*
X141380115Y-56456831D01*
X141380115Y-56456831D02*
X141475353Y-56409212D01*
X141475353Y-56409212D02*
X141713448Y-56409212D01*
X141713448Y-56409212D02*
X141808686Y-56456831D01*
X141808686Y-56456831D02*
X141856305Y-56504450D01*
X141856305Y-56504450D02*
X141903924Y-56599688D01*
X141903924Y-56599688D02*
X141903924Y-56837783D01*
X141903924Y-56837783D02*
X141856305Y-56933021D01*
X141856305Y-56933021D02*
X141808686Y-56980641D01*
X141808686Y-56980641D02*
X141713448Y-57028260D01*
X141713448Y-57028260D02*
X141475353Y-57028260D01*
X141475353Y-57028260D02*
X141380115Y-56980641D01*
X141380115Y-56980641D02*
X141332496Y-56933021D01*
X135128572Y-68664700D02*
X136271430Y-68664700D01*
X135700001Y-69236128D02*
X135700001Y-68093271D01*
X147619048Y-68623866D02*
X148380953Y-68623866D01*
X86504819Y-116409523D02*
X87219104Y-116409523D01*
X87219104Y-116409523D02*
X87361961Y-116457142D01*
X87361961Y-116457142D02*
X87457200Y-116552380D01*
X87457200Y-116552380D02*
X87504819Y-116695237D01*
X87504819Y-116695237D02*
X87504819Y-116790475D01*
X87504819Y-115409523D02*
X87504819Y-115980951D01*
X87504819Y-115695237D02*
X86504819Y-115695237D01*
X86504819Y-115695237D02*
X86647676Y-115790475D01*
X86647676Y-115790475D02*
X86742914Y-115885713D01*
X86742914Y-115885713D02*
X86790533Y-115980951D01*
X87504819Y-114457142D02*
X87504819Y-115028570D01*
X87504819Y-114742856D02*
X86504819Y-114742856D01*
X86504819Y-114742856D02*
X86647676Y-114838094D01*
X86647676Y-114838094D02*
X86742914Y-114933332D01*
X86742914Y-114933332D02*
X86790533Y-115028570D01*
X97214700Y-119871428D02*
X97214700Y-118728571D01*
X97786128Y-119299999D02*
X96643271Y-119299999D01*
X96973866Y-112380951D02*
X96973866Y-111619047D01*
X98182142Y-116409580D02*
X98134523Y-116457200D01*
X98134523Y-116457200D02*
X97991666Y-116504819D01*
X97991666Y-116504819D02*
X97896428Y-116504819D01*
X97896428Y-116504819D02*
X97753571Y-116457200D01*
X97753571Y-116457200D02*
X97658333Y-116361961D01*
X97658333Y-116361961D02*
X97610714Y-116266723D01*
X97610714Y-116266723D02*
X97563095Y-116076247D01*
X97563095Y-116076247D02*
X97563095Y-115933390D01*
X97563095Y-115933390D02*
X97610714Y-115742914D01*
X97610714Y-115742914D02*
X97658333Y-115647676D01*
X97658333Y-115647676D02*
X97753571Y-115552438D01*
X97753571Y-115552438D02*
X97896428Y-115504819D01*
X97896428Y-115504819D02*
X97991666Y-115504819D01*
X97991666Y-115504819D02*
X98134523Y-115552438D01*
X98134523Y-115552438D02*
X98182142Y-115600057D01*
X99134523Y-116504819D02*
X98563095Y-116504819D01*
X98848809Y-116504819D02*
X98848809Y-115504819D01*
X98848809Y-115504819D02*
X98753571Y-115647676D01*
X98753571Y-115647676D02*
X98658333Y-115742914D01*
X98658333Y-115742914D02*
X98563095Y-115790533D01*
X99515476Y-115600057D02*
X99563095Y-115552438D01*
X99563095Y-115552438D02*
X99658333Y-115504819D01*
X99658333Y-115504819D02*
X99896428Y-115504819D01*
X99896428Y-115504819D02*
X99991666Y-115552438D01*
X99991666Y-115552438D02*
X100039285Y-115600057D01*
X100039285Y-115600057D02*
X100086904Y-115695295D01*
X100086904Y-115695295D02*
X100086904Y-115790533D01*
X100086904Y-115790533D02*
X100039285Y-115933390D01*
X100039285Y-115933390D02*
X99467857Y-116504819D01*
X99467857Y-116504819D02*
X100086904Y-116504819D01*
X181954819Y-89233333D02*
X182669104Y-89233333D01*
X182669104Y-89233333D02*
X182811961Y-89280952D01*
X182811961Y-89280952D02*
X182907200Y-89376190D01*
X182907200Y-89376190D02*
X182954819Y-89519047D01*
X182954819Y-89519047D02*
X182954819Y-89614285D01*
X182954819Y-88709523D02*
X182954819Y-88519047D01*
X182954819Y-88519047D02*
X182907200Y-88423809D01*
X182907200Y-88423809D02*
X182859580Y-88376190D01*
X182859580Y-88376190D02*
X182716723Y-88280952D01*
X182716723Y-88280952D02*
X182526247Y-88233333D01*
X182526247Y-88233333D02*
X182145295Y-88233333D01*
X182145295Y-88233333D02*
X182050057Y-88280952D01*
X182050057Y-88280952D02*
X182002438Y-88328571D01*
X182002438Y-88328571D02*
X181954819Y-88423809D01*
X181954819Y-88423809D02*
X181954819Y-88614285D01*
X181954819Y-88614285D02*
X182002438Y-88709523D01*
X182002438Y-88709523D02*
X182050057Y-88757142D01*
X182050057Y-88757142D02*
X182145295Y-88804761D01*
X182145295Y-88804761D02*
X182383390Y-88804761D01*
X182383390Y-88804761D02*
X182478628Y-88757142D01*
X182478628Y-88757142D02*
X182526247Y-88709523D01*
X182526247Y-88709523D02*
X182573866Y-88614285D01*
X182573866Y-88614285D02*
X182573866Y-88423809D01*
X182573866Y-88423809D02*
X182526247Y-88328571D01*
X182526247Y-88328571D02*
X182478628Y-88280952D01*
X182478628Y-88280952D02*
X182383390Y-88233333D01*
X172164700Y-93071428D02*
X172164700Y-91928571D01*
X172736128Y-92499999D02*
X171593271Y-92499999D01*
X172064700Y-85871428D02*
X172064700Y-84728571D01*
X123992260Y-127350057D02*
X123897022Y-127302438D01*
X123897022Y-127302438D02*
X123801784Y-127207200D01*
X123801784Y-127207200D02*
X123658927Y-127064342D01*
X123658927Y-127064342D02*
X123563689Y-127016723D01*
X123563689Y-127016723D02*
X123468451Y-127016723D01*
X123516070Y-127254819D02*
X123420832Y-127207200D01*
X123420832Y-127207200D02*
X123325594Y-127111961D01*
X123325594Y-127111961D02*
X123277975Y-126921485D01*
X123277975Y-126921485D02*
X123277975Y-126588152D01*
X123277975Y-126588152D02*
X123325594Y-126397676D01*
X123325594Y-126397676D02*
X123420832Y-126302438D01*
X123420832Y-126302438D02*
X123516070Y-126254819D01*
X123516070Y-126254819D02*
X123706546Y-126254819D01*
X123706546Y-126254819D02*
X123801784Y-126302438D01*
X123801784Y-126302438D02*
X123897022Y-126397676D01*
X123897022Y-126397676D02*
X123944641Y-126588152D01*
X123944641Y-126588152D02*
X123944641Y-126921485D01*
X123944641Y-126921485D02*
X123897022Y-127111961D01*
X123897022Y-127111961D02*
X123801784Y-127207200D01*
X123801784Y-127207200D02*
X123706546Y-127254819D01*
X123706546Y-127254819D02*
X123516070Y-127254819D01*
X124420832Y-127254819D02*
X124611308Y-127254819D01*
X124611308Y-127254819D02*
X124706546Y-127207200D01*
X124706546Y-127207200D02*
X124754165Y-127159580D01*
X124754165Y-127159580D02*
X124849403Y-127016723D01*
X124849403Y-127016723D02*
X124897022Y-126826247D01*
X124897022Y-126826247D02*
X124897022Y-126445295D01*
X124897022Y-126445295D02*
X124849403Y-126350057D01*
X124849403Y-126350057D02*
X124801784Y-126302438D01*
X124801784Y-126302438D02*
X124706546Y-126254819D01*
X124706546Y-126254819D02*
X124516070Y-126254819D01*
X124516070Y-126254819D02*
X124420832Y-126302438D01*
X124420832Y-126302438D02*
X124373213Y-126350057D01*
X124373213Y-126350057D02*
X124325594Y-126445295D01*
X124325594Y-126445295D02*
X124325594Y-126683390D01*
X124325594Y-126683390D02*
X124373213Y-126778628D01*
X124373213Y-126778628D02*
X124420832Y-126826247D01*
X124420832Y-126826247D02*
X124516070Y-126873866D01*
X124516070Y-126873866D02*
X124706546Y-126873866D01*
X124706546Y-126873866D02*
X124801784Y-126826247D01*
X124801784Y-126826247D02*
X124849403Y-126778628D01*
X124849403Y-126778628D02*
X124897022Y-126683390D01*
X163279981Y-62650057D02*
X163184743Y-62602438D01*
X163184743Y-62602438D02*
X163089505Y-62507200D01*
X163089505Y-62507200D02*
X162946648Y-62364342D01*
X162946648Y-62364342D02*
X162851410Y-62316723D01*
X162851410Y-62316723D02*
X162756172Y-62316723D01*
X162803791Y-62554819D02*
X162708553Y-62507200D01*
X162708553Y-62507200D02*
X162613315Y-62411961D01*
X162613315Y-62411961D02*
X162565696Y-62221485D01*
X162565696Y-62221485D02*
X162565696Y-61888152D01*
X162565696Y-61888152D02*
X162613315Y-61697676D01*
X162613315Y-61697676D02*
X162708553Y-61602438D01*
X162708553Y-61602438D02*
X162803791Y-61554819D01*
X162803791Y-61554819D02*
X162994267Y-61554819D01*
X162994267Y-61554819D02*
X163089505Y-61602438D01*
X163089505Y-61602438D02*
X163184743Y-61697676D01*
X163184743Y-61697676D02*
X163232362Y-61888152D01*
X163232362Y-61888152D02*
X163232362Y-62221485D01*
X163232362Y-62221485D02*
X163184743Y-62411961D01*
X163184743Y-62411961D02*
X163089505Y-62507200D01*
X163089505Y-62507200D02*
X162994267Y-62554819D01*
X162994267Y-62554819D02*
X162803791Y-62554819D01*
X164184743Y-62554819D02*
X163613315Y-62554819D01*
X163899029Y-62554819D02*
X163899029Y-61554819D01*
X163899029Y-61554819D02*
X163803791Y-61697676D01*
X163803791Y-61697676D02*
X163708553Y-61792914D01*
X163708553Y-61792914D02*
X163613315Y-61840533D01*
X164803791Y-61554819D02*
X164899029Y-61554819D01*
X164899029Y-61554819D02*
X164994267Y-61602438D01*
X164994267Y-61602438D02*
X165041886Y-61650057D01*
X165041886Y-61650057D02*
X165089505Y-61745295D01*
X165089505Y-61745295D02*
X165137124Y-61935771D01*
X165137124Y-61935771D02*
X165137124Y-62173866D01*
X165137124Y-62173866D02*
X165089505Y-62364342D01*
X165089505Y-62364342D02*
X165041886Y-62459580D01*
X165041886Y-62459580D02*
X164994267Y-62507200D01*
X164994267Y-62507200D02*
X164899029Y-62554819D01*
X164899029Y-62554819D02*
X164803791Y-62554819D01*
X164803791Y-62554819D02*
X164708553Y-62507200D01*
X164708553Y-62507200D02*
X164660934Y-62459580D01*
X164660934Y-62459580D02*
X164613315Y-62364342D01*
X164613315Y-62364342D02*
X164565696Y-62173866D01*
X164565696Y-62173866D02*
X164565696Y-61935771D01*
X164565696Y-61935771D02*
X164613315Y-61745295D01*
X164613315Y-61745295D02*
X164660934Y-61650057D01*
X164660934Y-61650057D02*
X164708553Y-61602438D01*
X164708553Y-61602438D02*
X164803791Y-61554819D01*
X87127674Y-95710874D02*
X87841959Y-95710874D01*
X87841959Y-95710874D02*
X87984816Y-95758493D01*
X87984816Y-95758493D02*
X88080055Y-95853731D01*
X88080055Y-95853731D02*
X88127674Y-95996588D01*
X88127674Y-95996588D02*
X88127674Y-96091826D01*
X87127674Y-94806112D02*
X87127674Y-94996588D01*
X87127674Y-94996588D02*
X87175293Y-95091826D01*
X87175293Y-95091826D02*
X87222912Y-95139445D01*
X87222912Y-95139445D02*
X87365769Y-95234683D01*
X87365769Y-95234683D02*
X87556245Y-95282302D01*
X87556245Y-95282302D02*
X87937197Y-95282302D01*
X87937197Y-95282302D02*
X88032435Y-95234683D01*
X88032435Y-95234683D02*
X88080055Y-95187064D01*
X88080055Y-95187064D02*
X88127674Y-95091826D01*
X88127674Y-95091826D02*
X88127674Y-94901350D01*
X88127674Y-94901350D02*
X88080055Y-94806112D01*
X88080055Y-94806112D02*
X88032435Y-94758493D01*
X88032435Y-94758493D02*
X87937197Y-94710874D01*
X87937197Y-94710874D02*
X87699102Y-94710874D01*
X87699102Y-94710874D02*
X87603864Y-94758493D01*
X87603864Y-94758493D02*
X87556245Y-94806112D01*
X87556245Y-94806112D02*
X87508626Y-94901350D01*
X87508626Y-94901350D02*
X87508626Y-95091826D01*
X87508626Y-95091826D02*
X87556245Y-95187064D01*
X87556245Y-95187064D02*
X87603864Y-95234683D01*
X87603864Y-95234683D02*
X87699102Y-95282302D01*
X133304820Y-135366667D02*
X132828629Y-135700000D01*
X133304820Y-135938095D02*
X132304820Y-135938095D01*
X132304820Y-135938095D02*
X132304820Y-135557143D01*
X132304820Y-135557143D02*
X132352439Y-135461905D01*
X132352439Y-135461905D02*
X132400058Y-135414286D01*
X132400058Y-135414286D02*
X132495296Y-135366667D01*
X132495296Y-135366667D02*
X132638153Y-135366667D01*
X132638153Y-135366667D02*
X132733391Y-135414286D01*
X132733391Y-135414286D02*
X132781010Y-135461905D01*
X132781010Y-135461905D02*
X132828629Y-135557143D01*
X132828629Y-135557143D02*
X132828629Y-135938095D01*
X133304820Y-134414286D02*
X133304820Y-134985714D01*
X133304820Y-134700000D02*
X132304820Y-134700000D01*
X132304820Y-134700000D02*
X132447677Y-134795238D01*
X132447677Y-134795238D02*
X132542915Y-134890476D01*
X132542915Y-134890476D02*
X132590534Y-134985714D01*
X181354819Y-105483333D02*
X182069104Y-105483333D01*
X182069104Y-105483333D02*
X182211961Y-105530952D01*
X182211961Y-105530952D02*
X182307200Y-105626190D01*
X182307200Y-105626190D02*
X182354819Y-105769047D01*
X182354819Y-105769047D02*
X182354819Y-105864285D01*
X182354819Y-104483333D02*
X182354819Y-105054761D01*
X182354819Y-104769047D02*
X181354819Y-104769047D01*
X181354819Y-104769047D02*
X181497676Y-104864285D01*
X181497676Y-104864285D02*
X181592914Y-104959523D01*
X181592914Y-104959523D02*
X181640533Y-105054761D01*
X172064700Y-109321428D02*
X172064700Y-108178571D01*
X172064700Y-102021428D02*
X172064700Y-100878571D01*
X172636128Y-101449999D02*
X171493271Y-101449999D01*
X125259579Y-106266666D02*
X125307199Y-106314285D01*
X125307199Y-106314285D02*
X125354818Y-106457142D01*
X125354818Y-106457142D02*
X125354818Y-106552380D01*
X125354818Y-106552380D02*
X125307199Y-106695237D01*
X125307199Y-106695237D02*
X125211960Y-106790475D01*
X125211960Y-106790475D02*
X125116722Y-106838094D01*
X125116722Y-106838094D02*
X124926246Y-106885713D01*
X124926246Y-106885713D02*
X124783389Y-106885713D01*
X124783389Y-106885713D02*
X124592913Y-106838094D01*
X124592913Y-106838094D02*
X124497675Y-106790475D01*
X124497675Y-106790475D02*
X124402437Y-106695237D01*
X124402437Y-106695237D02*
X124354818Y-106552380D01*
X124354818Y-106552380D02*
X124354818Y-106457142D01*
X124354818Y-106457142D02*
X124402437Y-106314285D01*
X124402437Y-106314285D02*
X124450056Y-106266666D01*
X124354818Y-105409523D02*
X124354818Y-105599999D01*
X124354818Y-105599999D02*
X124402437Y-105695237D01*
X124402437Y-105695237D02*
X124450056Y-105742856D01*
X124450056Y-105742856D02*
X124592913Y-105838094D01*
X124592913Y-105838094D02*
X124783389Y-105885713D01*
X124783389Y-105885713D02*
X125164341Y-105885713D01*
X125164341Y-105885713D02*
X125259579Y-105838094D01*
X125259579Y-105838094D02*
X125307199Y-105790475D01*
X125307199Y-105790475D02*
X125354818Y-105695237D01*
X125354818Y-105695237D02*
X125354818Y-105504761D01*
X125354818Y-105504761D02*
X125307199Y-105409523D01*
X125307199Y-105409523D02*
X125259579Y-105361904D01*
X125259579Y-105361904D02*
X125164341Y-105314285D01*
X125164341Y-105314285D02*
X124926246Y-105314285D01*
X124926246Y-105314285D02*
X124831008Y-105361904D01*
X124831008Y-105361904D02*
X124783389Y-105409523D01*
X124783389Y-105409523D02*
X124735770Y-105504761D01*
X124735770Y-105504761D02*
X124735770Y-105695237D01*
X124735770Y-105695237D02*
X124783389Y-105790475D01*
X124783389Y-105790475D02*
X124831008Y-105838094D01*
X124831008Y-105838094D02*
X124926246Y-105885713D01*
X106756990Y-94034888D02*
X106723318Y-93933873D01*
X106723318Y-93933873D02*
X106723318Y-93799186D01*
X106723318Y-93799186D02*
X106723318Y-93597155D01*
X106723318Y-93597155D02*
X106689646Y-93496140D01*
X106689646Y-93496140D02*
X106622303Y-93428796D01*
X106487616Y-93630827D02*
X106453944Y-93529812D01*
X106453944Y-93529812D02*
X106453944Y-93395125D01*
X106453944Y-93395125D02*
X106554959Y-93226766D01*
X106554959Y-93226766D02*
X106790661Y-92991064D01*
X106790661Y-92991064D02*
X106959020Y-92890048D01*
X106959020Y-92890048D02*
X107093707Y-92890048D01*
X107093707Y-92890048D02*
X107194722Y-92923720D01*
X107194722Y-92923720D02*
X107329409Y-93058407D01*
X107329409Y-93058407D02*
X107363081Y-93159422D01*
X107363081Y-93159422D02*
X107363081Y-93294109D01*
X107363081Y-93294109D02*
X107262066Y-93462468D01*
X107262066Y-93462468D02*
X107026364Y-93698170D01*
X107026364Y-93698170D02*
X106858005Y-93799186D01*
X106858005Y-93799186D02*
X106723318Y-93799186D01*
X106723318Y-93799186D02*
X106622303Y-93765514D01*
X106622303Y-93765514D02*
X106487616Y-93630827D01*
X107464096Y-94607308D02*
X107060035Y-94203247D01*
X107262066Y-94405277D02*
X107969173Y-93698170D01*
X107969173Y-93698170D02*
X107800814Y-93731842D01*
X107800814Y-93731842D02*
X107666127Y-93731842D01*
X107666127Y-93731842D02*
X107565112Y-93698170D01*
X108777295Y-94506292D02*
X108642608Y-94371605D01*
X108642608Y-94371605D02*
X108541593Y-94337934D01*
X108541593Y-94337934D02*
X108474249Y-94337934D01*
X108474249Y-94337934D02*
X108305890Y-94371605D01*
X108305890Y-94371605D02*
X108137531Y-94472621D01*
X108137531Y-94472621D02*
X107868157Y-94741995D01*
X107868157Y-94741995D02*
X107834486Y-94843010D01*
X107834486Y-94843010D02*
X107834486Y-94910353D01*
X107834486Y-94910353D02*
X107868157Y-95011369D01*
X107868157Y-95011369D02*
X108002844Y-95146056D01*
X108002844Y-95146056D02*
X108103860Y-95179728D01*
X108103860Y-95179728D02*
X108171203Y-95179728D01*
X108171203Y-95179728D02*
X108272218Y-95146056D01*
X108272218Y-95146056D02*
X108440577Y-94977697D01*
X108440577Y-94977697D02*
X108474249Y-94876682D01*
X108474249Y-94876682D02*
X108474249Y-94809338D01*
X108474249Y-94809338D02*
X108440577Y-94708323D01*
X108440577Y-94708323D02*
X108305890Y-94573636D01*
X108305890Y-94573636D02*
X108204875Y-94539964D01*
X108204875Y-94539964D02*
X108137531Y-94539964D01*
X108137531Y-94539964D02*
X108036516Y-94573636D01*
X123604819Y-136367857D02*
X123128628Y-136701190D01*
X123604819Y-136939285D02*
X122604819Y-136939285D01*
X122604819Y-136939285D02*
X122604819Y-136558333D01*
X122604819Y-136558333D02*
X122652438Y-136463095D01*
X122652438Y-136463095D02*
X122700057Y-136415476D01*
X122700057Y-136415476D02*
X122795295Y-136367857D01*
X122795295Y-136367857D02*
X122938152Y-136367857D01*
X122938152Y-136367857D02*
X123033390Y-136415476D01*
X123033390Y-136415476D02*
X123081009Y-136463095D01*
X123081009Y-136463095D02*
X123128628Y-136558333D01*
X123128628Y-136558333D02*
X123128628Y-136939285D01*
X123604819Y-135415476D02*
X123604819Y-135986904D01*
X123604819Y-135701190D02*
X122604819Y-135701190D01*
X122604819Y-135701190D02*
X122747676Y-135796428D01*
X122747676Y-135796428D02*
X122842914Y-135891666D01*
X122842914Y-135891666D02*
X122890533Y-135986904D01*
X122604819Y-135082142D02*
X122604819Y-134463095D01*
X122604819Y-134463095D02*
X122985771Y-134796428D01*
X122985771Y-134796428D02*
X122985771Y-134653571D01*
X122985771Y-134653571D02*
X123033390Y-134558333D01*
X123033390Y-134558333D02*
X123081009Y-134510714D01*
X123081009Y-134510714D02*
X123176247Y-134463095D01*
X123176247Y-134463095D02*
X123414342Y-134463095D01*
X123414342Y-134463095D02*
X123509580Y-134510714D01*
X123509580Y-134510714D02*
X123557200Y-134558333D01*
X123557200Y-134558333D02*
X123604819Y-134653571D01*
X123604819Y-134653571D02*
X123604819Y-134939285D01*
X123604819Y-134939285D02*
X123557200Y-135034523D01*
X123557200Y-135034523D02*
X123509580Y-135082142D01*
X171654819Y-114642857D02*
X171178628Y-114976190D01*
X171654819Y-115214285D02*
X170654819Y-115214285D01*
X170654819Y-115214285D02*
X170654819Y-114833333D01*
X170654819Y-114833333D02*
X170702438Y-114738095D01*
X170702438Y-114738095D02*
X170750057Y-114690476D01*
X170750057Y-114690476D02*
X170845295Y-114642857D01*
X170845295Y-114642857D02*
X170988152Y-114642857D01*
X170988152Y-114642857D02*
X171083390Y-114690476D01*
X171083390Y-114690476D02*
X171131009Y-114738095D01*
X171131009Y-114738095D02*
X171178628Y-114833333D01*
X171178628Y-114833333D02*
X171178628Y-115214285D01*
X171654819Y-113690476D02*
X171654819Y-114261904D01*
X171654819Y-113976190D02*
X170654819Y-113976190D01*
X170654819Y-113976190D02*
X170797676Y-114071428D01*
X170797676Y-114071428D02*
X170892914Y-114166666D01*
X170892914Y-114166666D02*
X170940533Y-114261904D01*
X170654819Y-112785714D02*
X170654819Y-113261904D01*
X170654819Y-113261904D02*
X171131009Y-113309523D01*
X171131009Y-113309523D02*
X171083390Y-113261904D01*
X171083390Y-113261904D02*
X171035771Y-113166666D01*
X171035771Y-113166666D02*
X171035771Y-112928571D01*
X171035771Y-112928571D02*
X171083390Y-112833333D01*
X171083390Y-112833333D02*
X171131009Y-112785714D01*
X171131009Y-112785714D02*
X171226247Y-112738095D01*
X171226247Y-112738095D02*
X171464342Y-112738095D01*
X171464342Y-112738095D02*
X171559580Y-112785714D01*
X171559580Y-112785714D02*
X171607200Y-112833333D01*
X171607200Y-112833333D02*
X171654819Y-112928571D01*
X171654819Y-112928571D02*
X171654819Y-113166666D01*
X171654819Y-113166666D02*
X171607200Y-113261904D01*
X171607200Y-113261904D02*
X171559580Y-113309523D01*
X103254819Y-118708871D02*
X104064342Y-118708871D01*
X104064342Y-118708871D02*
X104159580Y-118661252D01*
X104159580Y-118661252D02*
X104207200Y-118613633D01*
X104207200Y-118613633D02*
X104254819Y-118518395D01*
X104254819Y-118518395D02*
X104254819Y-118327919D01*
X104254819Y-118327919D02*
X104207200Y-118232681D01*
X104207200Y-118232681D02*
X104159580Y-118185062D01*
X104159580Y-118185062D02*
X104064342Y-118137443D01*
X104064342Y-118137443D02*
X103254819Y-118137443D01*
X103254819Y-117185062D02*
X103254819Y-117661252D01*
X103254819Y-117661252D02*
X103731009Y-117708871D01*
X103731009Y-117708871D02*
X103683390Y-117661252D01*
X103683390Y-117661252D02*
X103635771Y-117566014D01*
X103635771Y-117566014D02*
X103635771Y-117327919D01*
X103635771Y-117327919D02*
X103683390Y-117232681D01*
X103683390Y-117232681D02*
X103731009Y-117185062D01*
X103731009Y-117185062D02*
X103826247Y-117137443D01*
X103826247Y-117137443D02*
X104064342Y-117137443D01*
X104064342Y-117137443D02*
X104159580Y-117185062D01*
X104159580Y-117185062D02*
X104207200Y-117232681D01*
X104207200Y-117232681D02*
X104254819Y-117327919D01*
X104254819Y-117327919D02*
X104254819Y-117566014D01*
X104254819Y-117566014D02*
X104207200Y-117661252D01*
X104207200Y-117661252D02*
X104159580Y-117708871D01*
X118833332Y-114454819D02*
X118357142Y-114454819D01*
X118357142Y-114454819D02*
X118357142Y-113454819D01*
X119690475Y-114454819D02*
X119119047Y-114454819D01*
X119404761Y-114454819D02*
X119404761Y-113454819D01*
X119404761Y-113454819D02*
X119309523Y-113597676D01*
X119309523Y-113597676D02*
X119214285Y-113692914D01*
X119214285Y-113692914D02*
X119119047Y-113740533D01*
X161789580Y-114166666D02*
X161837200Y-114214285D01*
X161837200Y-114214285D02*
X161884819Y-114357142D01*
X161884819Y-114357142D02*
X161884819Y-114452380D01*
X161884819Y-114452380D02*
X161837200Y-114595237D01*
X161837200Y-114595237D02*
X161741961Y-114690475D01*
X161741961Y-114690475D02*
X161646723Y-114738094D01*
X161646723Y-114738094D02*
X161456247Y-114785713D01*
X161456247Y-114785713D02*
X161313390Y-114785713D01*
X161313390Y-114785713D02*
X161122914Y-114738094D01*
X161122914Y-114738094D02*
X161027676Y-114690475D01*
X161027676Y-114690475D02*
X160932438Y-114595237D01*
X160932438Y-114595237D02*
X160884819Y-114452380D01*
X160884819Y-114452380D02*
X160884819Y-114357142D01*
X160884819Y-114357142D02*
X160932438Y-114214285D01*
X160932438Y-114214285D02*
X160980057Y-114166666D01*
X161313390Y-113595237D02*
X161265771Y-113690475D01*
X161265771Y-113690475D02*
X161218152Y-113738094D01*
X161218152Y-113738094D02*
X161122914Y-113785713D01*
X161122914Y-113785713D02*
X161075295Y-113785713D01*
X161075295Y-113785713D02*
X160980057Y-113738094D01*
X160980057Y-113738094D02*
X160932438Y-113690475D01*
X160932438Y-113690475D02*
X160884819Y-113595237D01*
X160884819Y-113595237D02*
X160884819Y-113404761D01*
X160884819Y-113404761D02*
X160932438Y-113309523D01*
X160932438Y-113309523D02*
X160980057Y-113261904D01*
X160980057Y-113261904D02*
X161075295Y-113214285D01*
X161075295Y-113214285D02*
X161122914Y-113214285D01*
X161122914Y-113214285D02*
X161218152Y-113261904D01*
X161218152Y-113261904D02*
X161265771Y-113309523D01*
X161265771Y-113309523D02*
X161313390Y-113404761D01*
X161313390Y-113404761D02*
X161313390Y-113595237D01*
X161313390Y-113595237D02*
X161361009Y-113690475D01*
X161361009Y-113690475D02*
X161408628Y-113738094D01*
X161408628Y-113738094D02*
X161503866Y-113785713D01*
X161503866Y-113785713D02*
X161694342Y-113785713D01*
X161694342Y-113785713D02*
X161789580Y-113738094D01*
X161789580Y-113738094D02*
X161837200Y-113690475D01*
X161837200Y-113690475D02*
X161884819Y-113595237D01*
X161884819Y-113595237D02*
X161884819Y-113404761D01*
X161884819Y-113404761D02*
X161837200Y-113309523D01*
X161837200Y-113309523D02*
X161789580Y-113261904D01*
X161789580Y-113261904D02*
X161694342Y-113214285D01*
X161694342Y-113214285D02*
X161503866Y-113214285D01*
X161503866Y-113214285D02*
X161408628Y-113261904D01*
X161408628Y-113261904D02*
X161361009Y-113309523D01*
X161361009Y-113309523D02*
X161313390Y-113404761D01*
X127754759Y-127375058D02*
X127659521Y-127327439D01*
X127659521Y-127327439D02*
X127564283Y-127232201D01*
X127564283Y-127232201D02*
X127421426Y-127089343D01*
X127421426Y-127089343D02*
X127326188Y-127041724D01*
X127326188Y-127041724D02*
X127230950Y-127041724D01*
X127278569Y-127279820D02*
X127183331Y-127232201D01*
X127183331Y-127232201D02*
X127088093Y-127136962D01*
X127088093Y-127136962D02*
X127040474Y-126946486D01*
X127040474Y-126946486D02*
X127040474Y-126613153D01*
X127040474Y-126613153D02*
X127088093Y-126422677D01*
X127088093Y-126422677D02*
X127183331Y-126327439D01*
X127183331Y-126327439D02*
X127278569Y-126279820D01*
X127278569Y-126279820D02*
X127469045Y-126279820D01*
X127469045Y-126279820D02*
X127564283Y-126327439D01*
X127564283Y-126327439D02*
X127659521Y-126422677D01*
X127659521Y-126422677D02*
X127707140Y-126613153D01*
X127707140Y-126613153D02*
X127707140Y-126946486D01*
X127707140Y-126946486D02*
X127659521Y-127136962D01*
X127659521Y-127136962D02*
X127564283Y-127232201D01*
X127564283Y-127232201D02*
X127469045Y-127279820D01*
X127469045Y-127279820D02*
X127278569Y-127279820D01*
X128278569Y-126708391D02*
X128183331Y-126660772D01*
X128183331Y-126660772D02*
X128135712Y-126613153D01*
X128135712Y-126613153D02*
X128088093Y-126517915D01*
X128088093Y-126517915D02*
X128088093Y-126470296D01*
X128088093Y-126470296D02*
X128135712Y-126375058D01*
X128135712Y-126375058D02*
X128183331Y-126327439D01*
X128183331Y-126327439D02*
X128278569Y-126279820D01*
X128278569Y-126279820D02*
X128469045Y-126279820D01*
X128469045Y-126279820D02*
X128564283Y-126327439D01*
X128564283Y-126327439D02*
X128611902Y-126375058D01*
X128611902Y-126375058D02*
X128659521Y-126470296D01*
X128659521Y-126470296D02*
X128659521Y-126517915D01*
X128659521Y-126517915D02*
X128611902Y-126613153D01*
X128611902Y-126613153D02*
X128564283Y-126660772D01*
X128564283Y-126660772D02*
X128469045Y-126708391D01*
X128469045Y-126708391D02*
X128278569Y-126708391D01*
X128278569Y-126708391D02*
X128183331Y-126756010D01*
X128183331Y-126756010D02*
X128135712Y-126803629D01*
X128135712Y-126803629D02*
X128088093Y-126898867D01*
X128088093Y-126898867D02*
X128088093Y-127089343D01*
X128088093Y-127089343D02*
X128135712Y-127184581D01*
X128135712Y-127184581D02*
X128183331Y-127232201D01*
X128183331Y-127232201D02*
X128278569Y-127279820D01*
X128278569Y-127279820D02*
X128469045Y-127279820D01*
X128469045Y-127279820D02*
X128564283Y-127232201D01*
X128564283Y-127232201D02*
X128611902Y-127184581D01*
X128611902Y-127184581D02*
X128659521Y-127089343D01*
X128659521Y-127089343D02*
X128659521Y-126898867D01*
X128659521Y-126898867D02*
X128611902Y-126803629D01*
X128611902Y-126803629D02*
X128564283Y-126756010D01*
X128564283Y-126756010D02*
X128469045Y-126708391D01*
X156300595Y-116179819D02*
X156300595Y-116989342D01*
X156300595Y-116989342D02*
X156348214Y-117084580D01*
X156348214Y-117084580D02*
X156395833Y-117132200D01*
X156395833Y-117132200D02*
X156491071Y-117179819D01*
X156491071Y-117179819D02*
X156681547Y-117179819D01*
X156681547Y-117179819D02*
X156776785Y-117132200D01*
X156776785Y-117132200D02*
X156824404Y-117084580D01*
X156824404Y-117084580D02*
X156872023Y-116989342D01*
X156872023Y-116989342D02*
X156872023Y-116179819D01*
X157300595Y-116275057D02*
X157348214Y-116227438D01*
X157348214Y-116227438D02*
X157443452Y-116179819D01*
X157443452Y-116179819D02*
X157681547Y-116179819D01*
X157681547Y-116179819D02*
X157776785Y-116227438D01*
X157776785Y-116227438D02*
X157824404Y-116275057D01*
X157824404Y-116275057D02*
X157872023Y-116370295D01*
X157872023Y-116370295D02*
X157872023Y-116465533D01*
X157872023Y-116465533D02*
X157824404Y-116608390D01*
X157824404Y-116608390D02*
X157252976Y-117179819D01*
X157252976Y-117179819D02*
X157872023Y-117179819D01*
X159483333Y-60554819D02*
X159150000Y-60078628D01*
X158911905Y-60554819D02*
X158911905Y-59554819D01*
X158911905Y-59554819D02*
X159292857Y-59554819D01*
X159292857Y-59554819D02*
X159388095Y-59602438D01*
X159388095Y-59602438D02*
X159435714Y-59650057D01*
X159435714Y-59650057D02*
X159483333Y-59745295D01*
X159483333Y-59745295D02*
X159483333Y-59888152D01*
X159483333Y-59888152D02*
X159435714Y-59983390D01*
X159435714Y-59983390D02*
X159388095Y-60031009D01*
X159388095Y-60031009D02*
X159292857Y-60078628D01*
X159292857Y-60078628D02*
X158911905Y-60078628D01*
X160340476Y-59554819D02*
X160150000Y-59554819D01*
X160150000Y-59554819D02*
X160054762Y-59602438D01*
X160054762Y-59602438D02*
X160007143Y-59650057D01*
X160007143Y-59650057D02*
X159911905Y-59792914D01*
X159911905Y-59792914D02*
X159864286Y-59983390D01*
X159864286Y-59983390D02*
X159864286Y-60364342D01*
X159864286Y-60364342D02*
X159911905Y-60459580D01*
X159911905Y-60459580D02*
X159959524Y-60507200D01*
X159959524Y-60507200D02*
X160054762Y-60554819D01*
X160054762Y-60554819D02*
X160245238Y-60554819D01*
X160245238Y-60554819D02*
X160340476Y-60507200D01*
X160340476Y-60507200D02*
X160388095Y-60459580D01*
X160388095Y-60459580D02*
X160435714Y-60364342D01*
X160435714Y-60364342D02*
X160435714Y-60126247D01*
X160435714Y-60126247D02*
X160388095Y-60031009D01*
X160388095Y-60031009D02*
X160340476Y-59983390D01*
X160340476Y-59983390D02*
X160245238Y-59935771D01*
X160245238Y-59935771D02*
X160054762Y-59935771D01*
X160054762Y-59935771D02*
X159959524Y-59983390D01*
X159959524Y-59983390D02*
X159911905Y-60031009D01*
X159911905Y-60031009D02*
X159864286Y-60126247D01*
X113266666Y-128263829D02*
X113266666Y-128978114D01*
X113266666Y-128978114D02*
X113219047Y-129120971D01*
X113219047Y-129120971D02*
X113123809Y-129216210D01*
X113123809Y-129216210D02*
X112980952Y-129263829D01*
X112980952Y-129263829D02*
X112885714Y-129263829D01*
X113647619Y-128263829D02*
X114314285Y-128263829D01*
X114314285Y-128263829D02*
X113885714Y-129263829D01*
X114733332Y-119659580D02*
X114685713Y-119707200D01*
X114685713Y-119707200D02*
X114542856Y-119754819D01*
X114542856Y-119754819D02*
X114447618Y-119754819D01*
X114447618Y-119754819D02*
X114304761Y-119707200D01*
X114304761Y-119707200D02*
X114209523Y-119611961D01*
X114209523Y-119611961D02*
X114161904Y-119516723D01*
X114161904Y-119516723D02*
X114114285Y-119326247D01*
X114114285Y-119326247D02*
X114114285Y-119183390D01*
X114114285Y-119183390D02*
X114161904Y-118992914D01*
X114161904Y-118992914D02*
X114209523Y-118897676D01*
X114209523Y-118897676D02*
X114304761Y-118802438D01*
X114304761Y-118802438D02*
X114447618Y-118754819D01*
X114447618Y-118754819D02*
X114542856Y-118754819D01*
X114542856Y-118754819D02*
X114685713Y-118802438D01*
X114685713Y-118802438D02*
X114733332Y-118850057D01*
X115685713Y-119754819D02*
X115114285Y-119754819D01*
X115399999Y-119754819D02*
X115399999Y-118754819D01*
X115399999Y-118754819D02*
X115304761Y-118897676D01*
X115304761Y-118897676D02*
X115209523Y-118992914D01*
X115209523Y-118992914D02*
X115114285Y-119040533D01*
X121754818Y-104366666D02*
X121278627Y-104699999D01*
X121754818Y-104938094D02*
X120754818Y-104938094D01*
X120754818Y-104938094D02*
X120754818Y-104557142D01*
X120754818Y-104557142D02*
X120802437Y-104461904D01*
X120802437Y-104461904D02*
X120850056Y-104414285D01*
X120850056Y-104414285D02*
X120945294Y-104366666D01*
X120945294Y-104366666D02*
X121088151Y-104366666D01*
X121088151Y-104366666D02*
X121183389Y-104414285D01*
X121183389Y-104414285D02*
X121231008Y-104461904D01*
X121231008Y-104461904D02*
X121278627Y-104557142D01*
X121278627Y-104557142D02*
X121278627Y-104938094D01*
X120754818Y-104033332D02*
X120754818Y-103414285D01*
X120754818Y-103414285D02*
X121135770Y-103747618D01*
X121135770Y-103747618D02*
X121135770Y-103604761D01*
X121135770Y-103604761D02*
X121183389Y-103509523D01*
X121183389Y-103509523D02*
X121231008Y-103461904D01*
X121231008Y-103461904D02*
X121326246Y-103414285D01*
X121326246Y-103414285D02*
X121564341Y-103414285D01*
X121564341Y-103414285D02*
X121659579Y-103461904D01*
X121659579Y-103461904D02*
X121707199Y-103509523D01*
X121707199Y-103509523D02*
X121754818Y-103604761D01*
X121754818Y-103604761D02*
X121754818Y-103890475D01*
X121754818Y-103890475D02*
X121707199Y-103985713D01*
X121707199Y-103985713D02*
X121659579Y-104033332D01*
X117990474Y-110287295D02*
X117990474Y-110934914D01*
X117990474Y-110934914D02*
X118028569Y-111011104D01*
X118028569Y-111011104D02*
X118066664Y-111049200D01*
X118066664Y-111049200D02*
X118142855Y-111087295D01*
X118142855Y-111087295D02*
X118295236Y-111087295D01*
X118295236Y-111087295D02*
X118371426Y-111049200D01*
X118371426Y-111049200D02*
X118409521Y-111011104D01*
X118409521Y-111011104D02*
X118447617Y-110934914D01*
X118447617Y-110934914D02*
X118447617Y-110287295D01*
X118752378Y-110287295D02*
X119247616Y-110287295D01*
X119247616Y-110287295D02*
X118980950Y-110592057D01*
X118980950Y-110592057D02*
X119095235Y-110592057D01*
X119095235Y-110592057D02*
X119171426Y-110630152D01*
X119171426Y-110630152D02*
X119209521Y-110668247D01*
X119209521Y-110668247D02*
X119247616Y-110744438D01*
X119247616Y-110744438D02*
X119247616Y-110934914D01*
X119247616Y-110934914D02*
X119209521Y-111011104D01*
X119209521Y-111011104D02*
X119171426Y-111049200D01*
X119171426Y-111049200D02*
X119095235Y-111087295D01*
X119095235Y-111087295D02*
X118866664Y-111087295D01*
X118866664Y-111087295D02*
X118790473Y-111049200D01*
X118790473Y-111049200D02*
X118752378Y-111011104D01*
X164351768Y-126099586D02*
X164318096Y-125998571D01*
X164318096Y-125998571D02*
X164318096Y-125863884D01*
X164318096Y-125863884D02*
X164318096Y-125661853D01*
X164318096Y-125661853D02*
X164284424Y-125560838D01*
X164284424Y-125560838D02*
X164217081Y-125493494D01*
X164082394Y-125695525D02*
X164048722Y-125594510D01*
X164048722Y-125594510D02*
X164048722Y-125459823D01*
X164048722Y-125459823D02*
X164149737Y-125291464D01*
X164149737Y-125291464D02*
X164385439Y-125055762D01*
X164385439Y-125055762D02*
X164553798Y-124954746D01*
X164553798Y-124954746D02*
X164688485Y-124954746D01*
X164688485Y-124954746D02*
X164789500Y-124988418D01*
X164789500Y-124988418D02*
X164924187Y-125123105D01*
X164924187Y-125123105D02*
X164957859Y-125224120D01*
X164957859Y-125224120D02*
X164957859Y-125358807D01*
X164957859Y-125358807D02*
X164856844Y-125527166D01*
X164856844Y-125527166D02*
X164621142Y-125762868D01*
X164621142Y-125762868D02*
X164452783Y-125863884D01*
X164452783Y-125863884D02*
X164318096Y-125863884D01*
X164318096Y-125863884D02*
X164217081Y-125830212D01*
X164217081Y-125830212D02*
X164082394Y-125695525D01*
X165058874Y-126672006D02*
X164654813Y-126267945D01*
X164856844Y-126469975D02*
X165563951Y-125762868D01*
X165563951Y-125762868D02*
X165395592Y-125796540D01*
X165395592Y-125796540D02*
X165260905Y-125796540D01*
X165260905Y-125796540D02*
X165159890Y-125762868D01*
X166001684Y-126200601D02*
X166439416Y-126638334D01*
X166439416Y-126638334D02*
X165934340Y-126672006D01*
X165934340Y-126672006D02*
X166035355Y-126773021D01*
X166035355Y-126773021D02*
X166069027Y-126874036D01*
X166069027Y-126874036D02*
X166069027Y-126941380D01*
X166069027Y-126941380D02*
X166035355Y-127042395D01*
X166035355Y-127042395D02*
X165866996Y-127210754D01*
X165866996Y-127210754D02*
X165765981Y-127244426D01*
X165765981Y-127244426D02*
X165698638Y-127244426D01*
X165698638Y-127244426D02*
X165597622Y-127210754D01*
X165597622Y-127210754D02*
X165395592Y-127008723D01*
X165395592Y-127008723D02*
X165361920Y-126907708D01*
X165361920Y-126907708D02*
X165361920Y-126840364D01*
X122733332Y-111159581D02*
X122685713Y-111207201D01*
X122685713Y-111207201D02*
X122542856Y-111254820D01*
X122542856Y-111254820D02*
X122447618Y-111254820D01*
X122447618Y-111254820D02*
X122304761Y-111207201D01*
X122304761Y-111207201D02*
X122209523Y-111111962D01*
X122209523Y-111111962D02*
X122161904Y-111016724D01*
X122161904Y-111016724D02*
X122114285Y-110826248D01*
X122114285Y-110826248D02*
X122114285Y-110683391D01*
X122114285Y-110683391D02*
X122161904Y-110492915D01*
X122161904Y-110492915D02*
X122209523Y-110397677D01*
X122209523Y-110397677D02*
X122304761Y-110302439D01*
X122304761Y-110302439D02*
X122447618Y-110254820D01*
X122447618Y-110254820D02*
X122542856Y-110254820D01*
X122542856Y-110254820D02*
X122685713Y-110302439D01*
X122685713Y-110302439D02*
X122733332Y-110350058D01*
X123590475Y-110588153D02*
X123590475Y-111254820D01*
X123352380Y-110207201D02*
X123114285Y-110921486D01*
X123114285Y-110921486D02*
X123733332Y-110921486D01*
X143636371Y-70054819D02*
X143636371Y-69054819D01*
X143636371Y-69054819D02*
X143874466Y-69054819D01*
X143874466Y-69054819D02*
X144017323Y-69102438D01*
X144017323Y-69102438D02*
X144112561Y-69197676D01*
X144112561Y-69197676D02*
X144160180Y-69292914D01*
X144160180Y-69292914D02*
X144207799Y-69483390D01*
X144207799Y-69483390D02*
X144207799Y-69626247D01*
X144207799Y-69626247D02*
X144160180Y-69816723D01*
X144160180Y-69816723D02*
X144112561Y-69911961D01*
X144112561Y-69911961D02*
X144017323Y-70007200D01*
X144017323Y-70007200D02*
X143874466Y-70054819D01*
X143874466Y-70054819D02*
X143636371Y-70054819D01*
X145112561Y-69054819D02*
X144636371Y-69054819D01*
X144636371Y-69054819D02*
X144588752Y-69531009D01*
X144588752Y-69531009D02*
X144636371Y-69483390D01*
X144636371Y-69483390D02*
X144731609Y-69435771D01*
X144731609Y-69435771D02*
X144969704Y-69435771D01*
X144969704Y-69435771D02*
X145064942Y-69483390D01*
X145064942Y-69483390D02*
X145112561Y-69531009D01*
X145112561Y-69531009D02*
X145160180Y-69626247D01*
X145160180Y-69626247D02*
X145160180Y-69864342D01*
X145160180Y-69864342D02*
X145112561Y-69959580D01*
X145112561Y-69959580D02*
X145064942Y-70007200D01*
X145064942Y-70007200D02*
X144969704Y-70054819D01*
X144969704Y-70054819D02*
X144731609Y-70054819D01*
X144731609Y-70054819D02*
X144636371Y-70007200D01*
X144636371Y-70007200D02*
X144588752Y-69959580D01*
X131554819Y-136567858D02*
X131078628Y-136901191D01*
X131554819Y-137139286D02*
X130554819Y-137139286D01*
X130554819Y-137139286D02*
X130554819Y-136758334D01*
X130554819Y-136758334D02*
X130602438Y-136663096D01*
X130602438Y-136663096D02*
X130650057Y-136615477D01*
X130650057Y-136615477D02*
X130745295Y-136567858D01*
X130745295Y-136567858D02*
X130888152Y-136567858D01*
X130888152Y-136567858D02*
X130983390Y-136615477D01*
X130983390Y-136615477D02*
X131031009Y-136663096D01*
X131031009Y-136663096D02*
X131078628Y-136758334D01*
X131078628Y-136758334D02*
X131078628Y-137139286D01*
X131554819Y-135615477D02*
X131554819Y-136186905D01*
X131554819Y-135901191D02*
X130554819Y-135901191D01*
X130554819Y-135901191D02*
X130697676Y-135996429D01*
X130697676Y-135996429D02*
X130792914Y-136091667D01*
X130792914Y-136091667D02*
X130840533Y-136186905D01*
X131554819Y-134663096D02*
X131554819Y-135234524D01*
X131554819Y-134948810D02*
X130554819Y-134948810D01*
X130554819Y-134948810D02*
X130697676Y-135044048D01*
X130697676Y-135044048D02*
X130792914Y-135139286D01*
X130792914Y-135139286D02*
X130840533Y-135234524D01*
X157504819Y-78442857D02*
X157028628Y-78776190D01*
X157504819Y-79014285D02*
X156504819Y-79014285D01*
X156504819Y-79014285D02*
X156504819Y-78633333D01*
X156504819Y-78633333D02*
X156552438Y-78538095D01*
X156552438Y-78538095D02*
X156600057Y-78490476D01*
X156600057Y-78490476D02*
X156695295Y-78442857D01*
X156695295Y-78442857D02*
X156838152Y-78442857D01*
X156838152Y-78442857D02*
X156933390Y-78490476D01*
X156933390Y-78490476D02*
X156981009Y-78538095D01*
X156981009Y-78538095D02*
X157028628Y-78633333D01*
X157028628Y-78633333D02*
X157028628Y-79014285D01*
X157504819Y-77490476D02*
X157504819Y-78061904D01*
X157504819Y-77776190D02*
X156504819Y-77776190D01*
X156504819Y-77776190D02*
X156647676Y-77871428D01*
X156647676Y-77871428D02*
X156742914Y-77966666D01*
X156742914Y-77966666D02*
X156790533Y-78061904D01*
X156600057Y-77109523D02*
X156552438Y-77061904D01*
X156552438Y-77061904D02*
X156504819Y-76966666D01*
X156504819Y-76966666D02*
X156504819Y-76728571D01*
X156504819Y-76728571D02*
X156552438Y-76633333D01*
X156552438Y-76633333D02*
X156600057Y-76585714D01*
X156600057Y-76585714D02*
X156695295Y-76538095D01*
X156695295Y-76538095D02*
X156790533Y-76538095D01*
X156790533Y-76538095D02*
X156933390Y-76585714D01*
X156933390Y-76585714D02*
X157504819Y-77157142D01*
X157504819Y-77157142D02*
X157504819Y-76538095D01*
X131754760Y-127450057D02*
X131659522Y-127402438D01*
X131659522Y-127402438D02*
X131564284Y-127307200D01*
X131564284Y-127307200D02*
X131421427Y-127164342D01*
X131421427Y-127164342D02*
X131326189Y-127116723D01*
X131326189Y-127116723D02*
X131230951Y-127116723D01*
X131278570Y-127354819D02*
X131183332Y-127307200D01*
X131183332Y-127307200D02*
X131088094Y-127211961D01*
X131088094Y-127211961D02*
X131040475Y-127021485D01*
X131040475Y-127021485D02*
X131040475Y-126688152D01*
X131040475Y-126688152D02*
X131088094Y-126497676D01*
X131088094Y-126497676D02*
X131183332Y-126402438D01*
X131183332Y-126402438D02*
X131278570Y-126354819D01*
X131278570Y-126354819D02*
X131469046Y-126354819D01*
X131469046Y-126354819D02*
X131564284Y-126402438D01*
X131564284Y-126402438D02*
X131659522Y-126497676D01*
X131659522Y-126497676D02*
X131707141Y-126688152D01*
X131707141Y-126688152D02*
X131707141Y-127021485D01*
X131707141Y-127021485D02*
X131659522Y-127211961D01*
X131659522Y-127211961D02*
X131564284Y-127307200D01*
X131564284Y-127307200D02*
X131469046Y-127354819D01*
X131469046Y-127354819D02*
X131278570Y-127354819D01*
X132611903Y-126354819D02*
X132135713Y-126354819D01*
X132135713Y-126354819D02*
X132088094Y-126831009D01*
X132088094Y-126831009D02*
X132135713Y-126783390D01*
X132135713Y-126783390D02*
X132230951Y-126735771D01*
X132230951Y-126735771D02*
X132469046Y-126735771D01*
X132469046Y-126735771D02*
X132564284Y-126783390D01*
X132564284Y-126783390D02*
X132611903Y-126831009D01*
X132611903Y-126831009D02*
X132659522Y-126926247D01*
X132659522Y-126926247D02*
X132659522Y-127164342D01*
X132659522Y-127164342D02*
X132611903Y-127259580D01*
X132611903Y-127259580D02*
X132564284Y-127307200D01*
X132564284Y-127307200D02*
X132469046Y-127354819D01*
X132469046Y-127354819D02*
X132230951Y-127354819D01*
X132230951Y-127354819D02*
X132135713Y-127307200D01*
X132135713Y-127307200D02*
X132088094Y-127259580D01*
X94129408Y-56854819D02*
X94129408Y-57569104D01*
X94129408Y-57569104D02*
X94081789Y-57711961D01*
X94081789Y-57711961D02*
X93986551Y-57807200D01*
X93986551Y-57807200D02*
X93843694Y-57854819D01*
X93843694Y-57854819D02*
X93748456Y-57854819D01*
X94510361Y-56854819D02*
X95129408Y-56854819D01*
X95129408Y-56854819D02*
X94796075Y-57235771D01*
X94796075Y-57235771D02*
X94938932Y-57235771D01*
X94938932Y-57235771D02*
X95034170Y-57283390D01*
X95034170Y-57283390D02*
X95081789Y-57331009D01*
X95081789Y-57331009D02*
X95129408Y-57426247D01*
X95129408Y-57426247D02*
X95129408Y-57664342D01*
X95129408Y-57664342D02*
X95081789Y-57759580D01*
X95081789Y-57759580D02*
X95034170Y-57807200D01*
X95034170Y-57807200D02*
X94938932Y-57854819D01*
X94938932Y-57854819D02*
X94653218Y-57854819D01*
X94653218Y-57854819D02*
X94557980Y-57807200D01*
X94557980Y-57807200D02*
X94510361Y-57759580D01*
X100481790Y-68500425D02*
X101243695Y-68500425D01*
X87991314Y-68541259D02*
X89134172Y-68541259D01*
X88562743Y-69112687D02*
X88562743Y-67969830D01*
X129304818Y-135466666D02*
X128828627Y-135799999D01*
X129304818Y-136038094D02*
X128304818Y-136038094D01*
X128304818Y-136038094D02*
X128304818Y-135657142D01*
X128304818Y-135657142D02*
X128352437Y-135561904D01*
X128352437Y-135561904D02*
X128400056Y-135514285D01*
X128400056Y-135514285D02*
X128495294Y-135466666D01*
X128495294Y-135466666D02*
X128638151Y-135466666D01*
X128638151Y-135466666D02*
X128733389Y-135514285D01*
X128733389Y-135514285D02*
X128781008Y-135561904D01*
X128781008Y-135561904D02*
X128828627Y-135657142D01*
X128828627Y-135657142D02*
X128828627Y-136038094D01*
X129304818Y-134990475D02*
X129304818Y-134799999D01*
X129304818Y-134799999D02*
X129257199Y-134704761D01*
X129257199Y-134704761D02*
X129209579Y-134657142D01*
X129209579Y-134657142D02*
X129066722Y-134561904D01*
X129066722Y-134561904D02*
X128876246Y-134514285D01*
X128876246Y-134514285D02*
X128495294Y-134514285D01*
X128495294Y-134514285D02*
X128400056Y-134561904D01*
X128400056Y-134561904D02*
X128352437Y-134609523D01*
X128352437Y-134609523D02*
X128304818Y-134704761D01*
X128304818Y-134704761D02*
X128304818Y-134895237D01*
X128304818Y-134895237D02*
X128352437Y-134990475D01*
X128352437Y-134990475D02*
X128400056Y-135038094D01*
X128400056Y-135038094D02*
X128495294Y-135085713D01*
X128495294Y-135085713D02*
X128733389Y-135085713D01*
X128733389Y-135085713D02*
X128828627Y-135038094D01*
X128828627Y-135038094D02*
X128876246Y-134990475D01*
X128876246Y-134990475D02*
X128923865Y-134895237D01*
X128923865Y-134895237D02*
X128923865Y-134704761D01*
X128923865Y-134704761D02*
X128876246Y-134609523D01*
X128876246Y-134609523D02*
X128828627Y-134561904D01*
X128828627Y-134561904D02*
X128733389Y-134514285D01*
X181454819Y-66759523D02*
X182169104Y-66759523D01*
X182169104Y-66759523D02*
X182311961Y-66807142D01*
X182311961Y-66807142D02*
X182407200Y-66902380D01*
X182407200Y-66902380D02*
X182454819Y-67045237D01*
X182454819Y-67045237D02*
X182454819Y-67140475D01*
X182454819Y-65759523D02*
X182454819Y-66330951D01*
X182454819Y-66045237D02*
X181454819Y-66045237D01*
X181454819Y-66045237D02*
X181597676Y-66140475D01*
X181597676Y-66140475D02*
X181692914Y-66235713D01*
X181692914Y-66235713D02*
X181740533Y-66330951D01*
X181454819Y-65140475D02*
X181454819Y-65045237D01*
X181454819Y-65045237D02*
X181502438Y-64949999D01*
X181502438Y-64949999D02*
X181550057Y-64902380D01*
X181550057Y-64902380D02*
X181645295Y-64854761D01*
X181645295Y-64854761D02*
X181835771Y-64807142D01*
X181835771Y-64807142D02*
X182073866Y-64807142D01*
X182073866Y-64807142D02*
X182264342Y-64854761D01*
X182264342Y-64854761D02*
X182359580Y-64902380D01*
X182359580Y-64902380D02*
X182407200Y-64949999D01*
X182407200Y-64949999D02*
X182454819Y-65045237D01*
X182454819Y-65045237D02*
X182454819Y-65140475D01*
X182454819Y-65140475D02*
X182407200Y-65235713D01*
X182407200Y-65235713D02*
X182359580Y-65283332D01*
X182359580Y-65283332D02*
X182264342Y-65330951D01*
X182264342Y-65330951D02*
X182073866Y-65378570D01*
X182073866Y-65378570D02*
X181835771Y-65378570D01*
X181835771Y-65378570D02*
X181645295Y-65330951D01*
X181645295Y-65330951D02*
X181550057Y-65283332D01*
X181550057Y-65283332D02*
X181502438Y-65235713D01*
X181502438Y-65235713D02*
X181454819Y-65140475D01*
X122683333Y-119859580D02*
X122635714Y-119907200D01*
X122635714Y-119907200D02*
X122492857Y-119954819D01*
X122492857Y-119954819D02*
X122397619Y-119954819D01*
X122397619Y-119954819D02*
X122254762Y-119907200D01*
X122254762Y-119907200D02*
X122159524Y-119811961D01*
X122159524Y-119811961D02*
X122111905Y-119716723D01*
X122111905Y-119716723D02*
X122064286Y-119526247D01*
X122064286Y-119526247D02*
X122064286Y-119383390D01*
X122064286Y-119383390D02*
X122111905Y-119192914D01*
X122111905Y-119192914D02*
X122159524Y-119097676D01*
X122159524Y-119097676D02*
X122254762Y-119002438D01*
X122254762Y-119002438D02*
X122397619Y-118954819D01*
X122397619Y-118954819D02*
X122492857Y-118954819D01*
X122492857Y-118954819D02*
X122635714Y-119002438D01*
X122635714Y-119002438D02*
X122683333Y-119050057D01*
X123588095Y-118954819D02*
X123111905Y-118954819D01*
X123111905Y-118954819D02*
X123064286Y-119431009D01*
X123064286Y-119431009D02*
X123111905Y-119383390D01*
X123111905Y-119383390D02*
X123207143Y-119335771D01*
X123207143Y-119335771D02*
X123445238Y-119335771D01*
X123445238Y-119335771D02*
X123540476Y-119383390D01*
X123540476Y-119383390D02*
X123588095Y-119431009D01*
X123588095Y-119431009D02*
X123635714Y-119526247D01*
X123635714Y-119526247D02*
X123635714Y-119764342D01*
X123635714Y-119764342D02*
X123588095Y-119859580D01*
X123588095Y-119859580D02*
X123540476Y-119907200D01*
X123540476Y-119907200D02*
X123445238Y-119954819D01*
X123445238Y-119954819D02*
X123207143Y-119954819D01*
X123207143Y-119954819D02*
X123111905Y-119907200D01*
X123111905Y-119907200D02*
X123064286Y-119859580D01*
X127554819Y-135466666D02*
X127078628Y-135799999D01*
X127554819Y-136038094D02*
X126554819Y-136038094D01*
X126554819Y-136038094D02*
X126554819Y-135657142D01*
X126554819Y-135657142D02*
X126602438Y-135561904D01*
X126602438Y-135561904D02*
X126650057Y-135514285D01*
X126650057Y-135514285D02*
X126745295Y-135466666D01*
X126745295Y-135466666D02*
X126888152Y-135466666D01*
X126888152Y-135466666D02*
X126983390Y-135514285D01*
X126983390Y-135514285D02*
X127031009Y-135561904D01*
X127031009Y-135561904D02*
X127078628Y-135657142D01*
X127078628Y-135657142D02*
X127078628Y-136038094D01*
X126650057Y-135085713D02*
X126602438Y-135038094D01*
X126602438Y-135038094D02*
X126554819Y-134942856D01*
X126554819Y-134942856D02*
X126554819Y-134704761D01*
X126554819Y-134704761D02*
X126602438Y-134609523D01*
X126602438Y-134609523D02*
X126650057Y-134561904D01*
X126650057Y-134561904D02*
X126745295Y-134514285D01*
X126745295Y-134514285D02*
X126840533Y-134514285D01*
X126840533Y-134514285D02*
X126983390Y-134561904D01*
X126983390Y-134561904D02*
X127554819Y-135133332D01*
X127554819Y-135133332D02*
X127554819Y-134514285D01*
X151454819Y-118592857D02*
X150978628Y-118926190D01*
X151454819Y-119164285D02*
X150454819Y-119164285D01*
X150454819Y-119164285D02*
X150454819Y-118783333D01*
X150454819Y-118783333D02*
X150502438Y-118688095D01*
X150502438Y-118688095D02*
X150550057Y-118640476D01*
X150550057Y-118640476D02*
X150645295Y-118592857D01*
X150645295Y-118592857D02*
X150788152Y-118592857D01*
X150788152Y-118592857D02*
X150883390Y-118640476D01*
X150883390Y-118640476D02*
X150931009Y-118688095D01*
X150931009Y-118688095D02*
X150978628Y-118783333D01*
X150978628Y-118783333D02*
X150978628Y-119164285D01*
X151454819Y-117640476D02*
X151454819Y-118211904D01*
X151454819Y-117926190D02*
X150454819Y-117926190D01*
X150454819Y-117926190D02*
X150597676Y-118021428D01*
X150597676Y-118021428D02*
X150692914Y-118116666D01*
X150692914Y-118116666D02*
X150740533Y-118211904D01*
X150454819Y-116783333D02*
X150454819Y-116973809D01*
X150454819Y-116973809D02*
X150502438Y-117069047D01*
X150502438Y-117069047D02*
X150550057Y-117116666D01*
X150550057Y-117116666D02*
X150692914Y-117211904D01*
X150692914Y-117211904D02*
X150883390Y-117259523D01*
X150883390Y-117259523D02*
X151264342Y-117259523D01*
X151264342Y-117259523D02*
X151359580Y-117211904D01*
X151359580Y-117211904D02*
X151407200Y-117164285D01*
X151407200Y-117164285D02*
X151454819Y-117069047D01*
X151454819Y-117069047D02*
X151454819Y-116878571D01*
X151454819Y-116878571D02*
X151407200Y-116783333D01*
X151407200Y-116783333D02*
X151359580Y-116735714D01*
X151359580Y-116735714D02*
X151264342Y-116688095D01*
X151264342Y-116688095D02*
X151026247Y-116688095D01*
X151026247Y-116688095D02*
X150931009Y-116735714D01*
X150931009Y-116735714D02*
X150883390Y-116783333D01*
X150883390Y-116783333D02*
X150835771Y-116878571D01*
X150835771Y-116878571D02*
X150835771Y-117069047D01*
X150835771Y-117069047D02*
X150883390Y-117164285D01*
X150883390Y-117164285D02*
X150931009Y-117211904D01*
X150931009Y-117211904D02*
X151026247Y-117259523D01*
X123559579Y-106266665D02*
X123607199Y-106314284D01*
X123607199Y-106314284D02*
X123654818Y-106457141D01*
X123654818Y-106457141D02*
X123654818Y-106552379D01*
X123654818Y-106552379D02*
X123607199Y-106695236D01*
X123607199Y-106695236D02*
X123511960Y-106790474D01*
X123511960Y-106790474D02*
X123416722Y-106838093D01*
X123416722Y-106838093D02*
X123226246Y-106885712D01*
X123226246Y-106885712D02*
X123083389Y-106885712D01*
X123083389Y-106885712D02*
X122892913Y-106838093D01*
X122892913Y-106838093D02*
X122797675Y-106790474D01*
X122797675Y-106790474D02*
X122702437Y-106695236D01*
X122702437Y-106695236D02*
X122654818Y-106552379D01*
X122654818Y-106552379D02*
X122654818Y-106457141D01*
X122654818Y-106457141D02*
X122702437Y-106314284D01*
X122702437Y-106314284D02*
X122750056Y-106266665D01*
X122654818Y-105933331D02*
X122654818Y-105266665D01*
X122654818Y-105266665D02*
X123654818Y-105695236D01*
X102033333Y-107354818D02*
X101700000Y-106878627D01*
X101461905Y-107354818D02*
X101461905Y-106354818D01*
X101461905Y-106354818D02*
X101842857Y-106354818D01*
X101842857Y-106354818D02*
X101938095Y-106402437D01*
X101938095Y-106402437D02*
X101985714Y-106450056D01*
X101985714Y-106450056D02*
X102033333Y-106545294D01*
X102033333Y-106545294D02*
X102033333Y-106688151D01*
X102033333Y-106688151D02*
X101985714Y-106783389D01*
X101985714Y-106783389D02*
X101938095Y-106831008D01*
X101938095Y-106831008D02*
X101842857Y-106878627D01*
X101842857Y-106878627D02*
X101461905Y-106878627D01*
X102366667Y-106354818D02*
X103033333Y-106354818D01*
X103033333Y-106354818D02*
X102604762Y-107354818D01*
X119774647Y-70031377D02*
X119774647Y-69031377D01*
X119774647Y-69031377D02*
X120012742Y-69031377D01*
X120012742Y-69031377D02*
X120155599Y-69078996D01*
X120155599Y-69078996D02*
X120250837Y-69174234D01*
X120250837Y-69174234D02*
X120298456Y-69269472D01*
X120298456Y-69269472D02*
X120346075Y-69459948D01*
X120346075Y-69459948D02*
X120346075Y-69602805D01*
X120346075Y-69602805D02*
X120298456Y-69793281D01*
X120298456Y-69793281D02*
X120250837Y-69888519D01*
X120250837Y-69888519D02*
X120155599Y-69983758D01*
X120155599Y-69983758D02*
X120012742Y-70031377D01*
X120012742Y-70031377D02*
X119774647Y-70031377D01*
X121203218Y-69364710D02*
X121203218Y-70031377D01*
X120965123Y-68983758D02*
X120727028Y-69698043D01*
X120727028Y-69698043D02*
X121346075Y-69698043D01*
X158813669Y-62846216D02*
X158718431Y-62798597D01*
X158718431Y-62798597D02*
X158623193Y-62703359D01*
X158623193Y-62703359D02*
X158480336Y-62560501D01*
X158480336Y-62560501D02*
X158385098Y-62512882D01*
X158385098Y-62512882D02*
X158289860Y-62512882D01*
X158337479Y-62750978D02*
X158242241Y-62703359D01*
X158242241Y-62703359D02*
X158147003Y-62608120D01*
X158147003Y-62608120D02*
X158099384Y-62417644D01*
X158099384Y-62417644D02*
X158099384Y-62084311D01*
X158099384Y-62084311D02*
X158147003Y-61893835D01*
X158147003Y-61893835D02*
X158242241Y-61798597D01*
X158242241Y-61798597D02*
X158337479Y-61750978D01*
X158337479Y-61750978D02*
X158527955Y-61750978D01*
X158527955Y-61750978D02*
X158623193Y-61798597D01*
X158623193Y-61798597D02*
X158718431Y-61893835D01*
X158718431Y-61893835D02*
X158766050Y-62084311D01*
X158766050Y-62084311D02*
X158766050Y-62417644D01*
X158766050Y-62417644D02*
X158718431Y-62608120D01*
X158718431Y-62608120D02*
X158623193Y-62703359D01*
X158623193Y-62703359D02*
X158527955Y-62750978D01*
X158527955Y-62750978D02*
X158337479Y-62750978D01*
X159099384Y-61750978D02*
X159766050Y-61750978D01*
X159766050Y-61750978D02*
X159337479Y-62750978D01*
X175129580Y-79566666D02*
X175177200Y-79614285D01*
X175177200Y-79614285D02*
X175224819Y-79757142D01*
X175224819Y-79757142D02*
X175224819Y-79852380D01*
X175224819Y-79852380D02*
X175177200Y-79995237D01*
X175177200Y-79995237D02*
X175081961Y-80090475D01*
X175081961Y-80090475D02*
X174986723Y-80138094D01*
X174986723Y-80138094D02*
X174796247Y-80185713D01*
X174796247Y-80185713D02*
X174653390Y-80185713D01*
X174653390Y-80185713D02*
X174462914Y-80138094D01*
X174462914Y-80138094D02*
X174367676Y-80090475D01*
X174367676Y-80090475D02*
X174272438Y-79995237D01*
X174272438Y-79995237D02*
X174224819Y-79852380D01*
X174224819Y-79852380D02*
X174224819Y-79757142D01*
X174224819Y-79757142D02*
X174272438Y-79614285D01*
X174272438Y-79614285D02*
X174320057Y-79566666D01*
X175224819Y-79090475D02*
X175224819Y-78899999D01*
X175224819Y-78899999D02*
X175177200Y-78804761D01*
X175177200Y-78804761D02*
X175129580Y-78757142D01*
X175129580Y-78757142D02*
X174986723Y-78661904D01*
X174986723Y-78661904D02*
X174796247Y-78614285D01*
X174796247Y-78614285D02*
X174415295Y-78614285D01*
X174415295Y-78614285D02*
X174320057Y-78661904D01*
X174320057Y-78661904D02*
X174272438Y-78709523D01*
X174272438Y-78709523D02*
X174224819Y-78804761D01*
X174224819Y-78804761D02*
X174224819Y-78995237D01*
X174224819Y-78995237D02*
X174272438Y-79090475D01*
X174272438Y-79090475D02*
X174320057Y-79138094D01*
X174320057Y-79138094D02*
X174415295Y-79185713D01*
X174415295Y-79185713D02*
X174653390Y-79185713D01*
X174653390Y-79185713D02*
X174748628Y-79138094D01*
X174748628Y-79138094D02*
X174796247Y-79090475D01*
X174796247Y-79090475D02*
X174843866Y-78995237D01*
X174843866Y-78995237D02*
X174843866Y-78804761D01*
X174843866Y-78804761D02*
X174796247Y-78709523D01*
X174796247Y-78709523D02*
X174748628Y-78661904D01*
X174748628Y-78661904D02*
X174653390Y-78614285D01*
X127098737Y-106155009D02*
X126622546Y-106488342D01*
X127098737Y-106726437D02*
X126098737Y-106726437D01*
X126098737Y-106726437D02*
X126098737Y-106345485D01*
X126098737Y-106345485D02*
X126146356Y-106250247D01*
X126146356Y-106250247D02*
X126193975Y-106202628D01*
X126193975Y-106202628D02*
X126289213Y-106155009D01*
X126289213Y-106155009D02*
X126432070Y-106155009D01*
X126432070Y-106155009D02*
X126527308Y-106202628D01*
X126527308Y-106202628D02*
X126574927Y-106250247D01*
X126574927Y-106250247D02*
X126622546Y-106345485D01*
X126622546Y-106345485D02*
X126622546Y-106726437D01*
X126527308Y-105583580D02*
X126479689Y-105678818D01*
X126479689Y-105678818D02*
X126432070Y-105726437D01*
X126432070Y-105726437D02*
X126336832Y-105774056D01*
X126336832Y-105774056D02*
X126289213Y-105774056D01*
X126289213Y-105774056D02*
X126193975Y-105726437D01*
X126193975Y-105726437D02*
X126146356Y-105678818D01*
X126146356Y-105678818D02*
X126098737Y-105583580D01*
X126098737Y-105583580D02*
X126098737Y-105393104D01*
X126098737Y-105393104D02*
X126146356Y-105297866D01*
X126146356Y-105297866D02*
X126193975Y-105250247D01*
X126193975Y-105250247D02*
X126289213Y-105202628D01*
X126289213Y-105202628D02*
X126336832Y-105202628D01*
X126336832Y-105202628D02*
X126432070Y-105250247D01*
X126432070Y-105250247D02*
X126479689Y-105297866D01*
X126479689Y-105297866D02*
X126527308Y-105393104D01*
X126527308Y-105393104D02*
X126527308Y-105583580D01*
X126527308Y-105583580D02*
X126574927Y-105678818D01*
X126574927Y-105678818D02*
X126622546Y-105726437D01*
X126622546Y-105726437D02*
X126717784Y-105774056D01*
X126717784Y-105774056D02*
X126908260Y-105774056D01*
X126908260Y-105774056D02*
X127003498Y-105726437D01*
X127003498Y-105726437D02*
X127051118Y-105678818D01*
X127051118Y-105678818D02*
X127098737Y-105583580D01*
X127098737Y-105583580D02*
X127098737Y-105393104D01*
X127098737Y-105393104D02*
X127051118Y-105297866D01*
X127051118Y-105297866D02*
X127003498Y-105250247D01*
X127003498Y-105250247D02*
X126908260Y-105202628D01*
X126908260Y-105202628D02*
X126717784Y-105202628D01*
X126717784Y-105202628D02*
X126622546Y-105250247D01*
X126622546Y-105250247D02*
X126574927Y-105297866D01*
X126574927Y-105297866D02*
X126527308Y-105393104D01*
X108957142Y-91854819D02*
X108623809Y-91378628D01*
X108385714Y-91854819D02*
X108385714Y-90854819D01*
X108385714Y-90854819D02*
X108766666Y-90854819D01*
X108766666Y-90854819D02*
X108861904Y-90902438D01*
X108861904Y-90902438D02*
X108909523Y-90950057D01*
X108909523Y-90950057D02*
X108957142Y-91045295D01*
X108957142Y-91045295D02*
X108957142Y-91188152D01*
X108957142Y-91188152D02*
X108909523Y-91283390D01*
X108909523Y-91283390D02*
X108861904Y-91331009D01*
X108861904Y-91331009D02*
X108766666Y-91378628D01*
X108766666Y-91378628D02*
X108385714Y-91378628D01*
X109338095Y-90950057D02*
X109385714Y-90902438D01*
X109385714Y-90902438D02*
X109480952Y-90854819D01*
X109480952Y-90854819D02*
X109719047Y-90854819D01*
X109719047Y-90854819D02*
X109814285Y-90902438D01*
X109814285Y-90902438D02*
X109861904Y-90950057D01*
X109861904Y-90950057D02*
X109909523Y-91045295D01*
X109909523Y-91045295D02*
X109909523Y-91140533D01*
X109909523Y-91140533D02*
X109861904Y-91283390D01*
X109861904Y-91283390D02*
X109290476Y-91854819D01*
X109290476Y-91854819D02*
X109909523Y-91854819D01*
X110528571Y-90854819D02*
X110623809Y-90854819D01*
X110623809Y-90854819D02*
X110719047Y-90902438D01*
X110719047Y-90902438D02*
X110766666Y-90950057D01*
X110766666Y-90950057D02*
X110814285Y-91045295D01*
X110814285Y-91045295D02*
X110861904Y-91235771D01*
X110861904Y-91235771D02*
X110861904Y-91473866D01*
X110861904Y-91473866D02*
X110814285Y-91664342D01*
X110814285Y-91664342D02*
X110766666Y-91759580D01*
X110766666Y-91759580D02*
X110719047Y-91807200D01*
X110719047Y-91807200D02*
X110623809Y-91854819D01*
X110623809Y-91854819D02*
X110528571Y-91854819D01*
X110528571Y-91854819D02*
X110433333Y-91807200D01*
X110433333Y-91807200D02*
X110385714Y-91759580D01*
X110385714Y-91759580D02*
X110338095Y-91664342D01*
X110338095Y-91664342D02*
X110290476Y-91473866D01*
X110290476Y-91473866D02*
X110290476Y-91235771D01*
X110290476Y-91235771D02*
X110338095Y-91045295D01*
X110338095Y-91045295D02*
X110385714Y-90950057D01*
X110385714Y-90950057D02*
X110433333Y-90902438D01*
X110433333Y-90902438D02*
X110528571Y-90854819D01*
X128871842Y-106726437D02*
X127871842Y-106726437D01*
X127871842Y-106726437D02*
X127871842Y-106488342D01*
X127871842Y-106488342D02*
X127919461Y-106345485D01*
X127919461Y-106345485D02*
X128014699Y-106250247D01*
X128014699Y-106250247D02*
X128109937Y-106202628D01*
X128109937Y-106202628D02*
X128300413Y-106155009D01*
X128300413Y-106155009D02*
X128443270Y-106155009D01*
X128443270Y-106155009D02*
X128633746Y-106202628D01*
X128633746Y-106202628D02*
X128728984Y-106250247D01*
X128728984Y-106250247D02*
X128824223Y-106345485D01*
X128824223Y-106345485D02*
X128871842Y-106488342D01*
X128871842Y-106488342D02*
X128871842Y-106726437D01*
X127871842Y-105297866D02*
X127871842Y-105488342D01*
X127871842Y-105488342D02*
X127919461Y-105583580D01*
X127919461Y-105583580D02*
X127967080Y-105631199D01*
X127967080Y-105631199D02*
X128109937Y-105726437D01*
X128109937Y-105726437D02*
X128300413Y-105774056D01*
X128300413Y-105774056D02*
X128681365Y-105774056D01*
X128681365Y-105774056D02*
X128776603Y-105726437D01*
X128776603Y-105726437D02*
X128824223Y-105678818D01*
X128824223Y-105678818D02*
X128871842Y-105583580D01*
X128871842Y-105583580D02*
X128871842Y-105393104D01*
X128871842Y-105393104D02*
X128824223Y-105297866D01*
X128824223Y-105297866D02*
X128776603Y-105250247D01*
X128776603Y-105250247D02*
X128681365Y-105202628D01*
X128681365Y-105202628D02*
X128443270Y-105202628D01*
X128443270Y-105202628D02*
X128348032Y-105250247D01*
X128348032Y-105250247D02*
X128300413Y-105297866D01*
X128300413Y-105297866D02*
X128252794Y-105393104D01*
X128252794Y-105393104D02*
X128252794Y-105583580D01*
X128252794Y-105583580D02*
X128300413Y-105678818D01*
X128300413Y-105678818D02*
X128348032Y-105726437D01*
X128348032Y-105726437D02*
X128443270Y-105774056D01*
X113283332Y-105134580D02*
X113235713Y-105182200D01*
X113235713Y-105182200D02*
X113092856Y-105229819D01*
X113092856Y-105229819D02*
X112997618Y-105229819D01*
X112997618Y-105229819D02*
X112854761Y-105182200D01*
X112854761Y-105182200D02*
X112759523Y-105086961D01*
X112759523Y-105086961D02*
X112711904Y-104991723D01*
X112711904Y-104991723D02*
X112664285Y-104801247D01*
X112664285Y-104801247D02*
X112664285Y-104658390D01*
X112664285Y-104658390D02*
X112711904Y-104467914D01*
X112711904Y-104467914D02*
X112759523Y-104372676D01*
X112759523Y-104372676D02*
X112854761Y-104277438D01*
X112854761Y-104277438D02*
X112997618Y-104229819D01*
X112997618Y-104229819D02*
X113092856Y-104229819D01*
X113092856Y-104229819D02*
X113235713Y-104277438D01*
X113235713Y-104277438D02*
X113283332Y-104325057D01*
X113664285Y-104325057D02*
X113711904Y-104277438D01*
X113711904Y-104277438D02*
X113807142Y-104229819D01*
X113807142Y-104229819D02*
X114045237Y-104229819D01*
X114045237Y-104229819D02*
X114140475Y-104277438D01*
X114140475Y-104277438D02*
X114188094Y-104325057D01*
X114188094Y-104325057D02*
X114235713Y-104420295D01*
X114235713Y-104420295D02*
X114235713Y-104515533D01*
X114235713Y-104515533D02*
X114188094Y-104658390D01*
X114188094Y-104658390D02*
X113616666Y-105229819D01*
X113616666Y-105229819D02*
X114235713Y-105229819D01*
X118833332Y-104854818D02*
X118499999Y-104378627D01*
X118261904Y-104854818D02*
X118261904Y-103854818D01*
X118261904Y-103854818D02*
X118642856Y-103854818D01*
X118642856Y-103854818D02*
X118738094Y-103902437D01*
X118738094Y-103902437D02*
X118785713Y-103950056D01*
X118785713Y-103950056D02*
X118833332Y-104045294D01*
X118833332Y-104045294D02*
X118833332Y-104188151D01*
X118833332Y-104188151D02*
X118785713Y-104283389D01*
X118785713Y-104283389D02*
X118738094Y-104331008D01*
X118738094Y-104331008D02*
X118642856Y-104378627D01*
X118642856Y-104378627D02*
X118261904Y-104378627D01*
X119690475Y-104188151D02*
X119690475Y-104854818D01*
X119452380Y-103807199D02*
X119214285Y-104521484D01*
X119214285Y-104521484D02*
X119833332Y-104521484D01*
X128767503Y-72241776D02*
X128672265Y-72194157D01*
X128672265Y-72194157D02*
X128577027Y-72098919D01*
X128577027Y-72098919D02*
X128434170Y-71956061D01*
X128434170Y-71956061D02*
X128338932Y-71908442D01*
X128338932Y-71908442D02*
X128243694Y-71908442D01*
X128291313Y-72146538D02*
X128196075Y-72098919D01*
X128196075Y-72098919D02*
X128100837Y-72003680D01*
X128100837Y-72003680D02*
X128053218Y-71813204D01*
X128053218Y-71813204D02*
X128053218Y-71479871D01*
X128053218Y-71479871D02*
X128100837Y-71289395D01*
X128100837Y-71289395D02*
X128196075Y-71194157D01*
X128196075Y-71194157D02*
X128291313Y-71146538D01*
X128291313Y-71146538D02*
X128481789Y-71146538D01*
X128481789Y-71146538D02*
X128577027Y-71194157D01*
X128577027Y-71194157D02*
X128672265Y-71289395D01*
X128672265Y-71289395D02*
X128719884Y-71479871D01*
X128719884Y-71479871D02*
X128719884Y-71813204D01*
X128719884Y-71813204D02*
X128672265Y-72003680D01*
X128672265Y-72003680D02*
X128577027Y-72098919D01*
X128577027Y-72098919D02*
X128481789Y-72146538D01*
X128481789Y-72146538D02*
X128291313Y-72146538D01*
X129577027Y-71479871D02*
X129577027Y-72146538D01*
X129338932Y-71098919D02*
X129100837Y-71813204D01*
X129100837Y-71813204D02*
X129719884Y-71813204D01*
X181254819Y-79461904D02*
X182064342Y-79461904D01*
X182064342Y-79461904D02*
X182159580Y-79414285D01*
X182159580Y-79414285D02*
X182207200Y-79366666D01*
X182207200Y-79366666D02*
X182254819Y-79271428D01*
X182254819Y-79271428D02*
X182254819Y-79080952D01*
X182254819Y-79080952D02*
X182207200Y-78985714D01*
X182207200Y-78985714D02*
X182159580Y-78938095D01*
X182159580Y-78938095D02*
X182064342Y-78890476D01*
X182064342Y-78890476D02*
X181254819Y-78890476D01*
X181588152Y-77985714D02*
X182254819Y-77985714D01*
X181207200Y-78223809D02*
X181921485Y-78461904D01*
X181921485Y-78461904D02*
X181921485Y-77842857D01*
X125354819Y-136367857D02*
X124878628Y-136701190D01*
X125354819Y-136939285D02*
X124354819Y-136939285D01*
X124354819Y-136939285D02*
X124354819Y-136558333D01*
X124354819Y-136558333D02*
X124402438Y-136463095D01*
X124402438Y-136463095D02*
X124450057Y-136415476D01*
X124450057Y-136415476D02*
X124545295Y-136367857D01*
X124545295Y-136367857D02*
X124688152Y-136367857D01*
X124688152Y-136367857D02*
X124783390Y-136415476D01*
X124783390Y-136415476D02*
X124831009Y-136463095D01*
X124831009Y-136463095D02*
X124878628Y-136558333D01*
X124878628Y-136558333D02*
X124878628Y-136939285D01*
X125354819Y-135415476D02*
X125354819Y-135986904D01*
X125354819Y-135701190D02*
X124354819Y-135701190D01*
X124354819Y-135701190D02*
X124497676Y-135796428D01*
X124497676Y-135796428D02*
X124592914Y-135891666D01*
X124592914Y-135891666D02*
X124640533Y-135986904D01*
X124354819Y-134796428D02*
X124354819Y-134701190D01*
X124354819Y-134701190D02*
X124402438Y-134605952D01*
X124402438Y-134605952D02*
X124450057Y-134558333D01*
X124450057Y-134558333D02*
X124545295Y-134510714D01*
X124545295Y-134510714D02*
X124735771Y-134463095D01*
X124735771Y-134463095D02*
X124973866Y-134463095D01*
X124973866Y-134463095D02*
X125164342Y-134510714D01*
X125164342Y-134510714D02*
X125259580Y-134558333D01*
X125259580Y-134558333D02*
X125307200Y-134605952D01*
X125307200Y-134605952D02*
X125354819Y-134701190D01*
X125354819Y-134701190D02*
X125354819Y-134796428D01*
X125354819Y-134796428D02*
X125307200Y-134891666D01*
X125307200Y-134891666D02*
X125259580Y-134939285D01*
X125259580Y-134939285D02*
X125164342Y-134986904D01*
X125164342Y-134986904D02*
X124973866Y-135034523D01*
X124973866Y-135034523D02*
X124735771Y-135034523D01*
X124735771Y-135034523D02*
X124545295Y-134986904D01*
X124545295Y-134986904D02*
X124450057Y-134939285D01*
X124450057Y-134939285D02*
X124402438Y-134891666D01*
X124402438Y-134891666D02*
X124354819Y-134796428D01*
X144254761Y-72950057D02*
X144159523Y-72902438D01*
X144159523Y-72902438D02*
X144064285Y-72807200D01*
X144064285Y-72807200D02*
X143921428Y-72664342D01*
X143921428Y-72664342D02*
X143826190Y-72616723D01*
X143826190Y-72616723D02*
X143730952Y-72616723D01*
X143778571Y-72854819D02*
X143683333Y-72807200D01*
X143683333Y-72807200D02*
X143588095Y-72711961D01*
X143588095Y-72711961D02*
X143540476Y-72521485D01*
X143540476Y-72521485D02*
X143540476Y-72188152D01*
X143540476Y-72188152D02*
X143588095Y-71997676D01*
X143588095Y-71997676D02*
X143683333Y-71902438D01*
X143683333Y-71902438D02*
X143778571Y-71854819D01*
X143778571Y-71854819D02*
X143969047Y-71854819D01*
X143969047Y-71854819D02*
X144064285Y-71902438D01*
X144064285Y-71902438D02*
X144159523Y-71997676D01*
X144159523Y-71997676D02*
X144207142Y-72188152D01*
X144207142Y-72188152D02*
X144207142Y-72521485D01*
X144207142Y-72521485D02*
X144159523Y-72711961D01*
X144159523Y-72711961D02*
X144064285Y-72807200D01*
X144064285Y-72807200D02*
X143969047Y-72854819D01*
X143969047Y-72854819D02*
X143778571Y-72854819D01*
X145159523Y-72854819D02*
X144588095Y-72854819D01*
X144873809Y-72854819D02*
X144873809Y-71854819D01*
X144873809Y-71854819D02*
X144778571Y-71997676D01*
X144778571Y-71997676D02*
X144683333Y-72092914D01*
X144683333Y-72092914D02*
X144588095Y-72140533D01*
X171054819Y-120192857D02*
X170578628Y-120526190D01*
X171054819Y-120764285D02*
X170054819Y-120764285D01*
X170054819Y-120764285D02*
X170054819Y-120383333D01*
X170054819Y-120383333D02*
X170102438Y-120288095D01*
X170102438Y-120288095D02*
X170150057Y-120240476D01*
X170150057Y-120240476D02*
X170245295Y-120192857D01*
X170245295Y-120192857D02*
X170388152Y-120192857D01*
X170388152Y-120192857D02*
X170483390Y-120240476D01*
X170483390Y-120240476D02*
X170531009Y-120288095D01*
X170531009Y-120288095D02*
X170578628Y-120383333D01*
X170578628Y-120383333D02*
X170578628Y-120764285D01*
X171054819Y-119240476D02*
X171054819Y-119811904D01*
X171054819Y-119526190D02*
X170054819Y-119526190D01*
X170054819Y-119526190D02*
X170197676Y-119621428D01*
X170197676Y-119621428D02*
X170292914Y-119716666D01*
X170292914Y-119716666D02*
X170340533Y-119811904D01*
X170483390Y-118669047D02*
X170435771Y-118764285D01*
X170435771Y-118764285D02*
X170388152Y-118811904D01*
X170388152Y-118811904D02*
X170292914Y-118859523D01*
X170292914Y-118859523D02*
X170245295Y-118859523D01*
X170245295Y-118859523D02*
X170150057Y-118811904D01*
X170150057Y-118811904D02*
X170102438Y-118764285D01*
X170102438Y-118764285D02*
X170054819Y-118669047D01*
X170054819Y-118669047D02*
X170054819Y-118478571D01*
X170054819Y-118478571D02*
X170102438Y-118383333D01*
X170102438Y-118383333D02*
X170150057Y-118335714D01*
X170150057Y-118335714D02*
X170245295Y-118288095D01*
X170245295Y-118288095D02*
X170292914Y-118288095D01*
X170292914Y-118288095D02*
X170388152Y-118335714D01*
X170388152Y-118335714D02*
X170435771Y-118383333D01*
X170435771Y-118383333D02*
X170483390Y-118478571D01*
X170483390Y-118478571D02*
X170483390Y-118669047D01*
X170483390Y-118669047D02*
X170531009Y-118764285D01*
X170531009Y-118764285D02*
X170578628Y-118811904D01*
X170578628Y-118811904D02*
X170673866Y-118859523D01*
X170673866Y-118859523D02*
X170864342Y-118859523D01*
X170864342Y-118859523D02*
X170959580Y-118811904D01*
X170959580Y-118811904D02*
X171007200Y-118764285D01*
X171007200Y-118764285D02*
X171054819Y-118669047D01*
X171054819Y-118669047D02*
X171054819Y-118478571D01*
X171054819Y-118478571D02*
X171007200Y-118383333D01*
X171007200Y-118383333D02*
X170959580Y-118335714D01*
X170959580Y-118335714D02*
X170864342Y-118288095D01*
X170864342Y-118288095D02*
X170673866Y-118288095D01*
X170673866Y-118288095D02*
X170578628Y-118335714D01*
X170578628Y-118335714D02*
X170531009Y-118383333D01*
X170531009Y-118383333D02*
X170483390Y-118478571D01*
D14*
%TO.C,J4*%
X110102742Y-58216559D02*
X110102742Y-63826559D01*
X110102742Y-58216559D02*
X110952742Y-58216558D01*
X110952742Y-50516559D02*
X110952742Y-58216558D01*
X110952742Y-50516559D02*
X124972742Y-50516559D01*
X115512742Y-67936559D02*
X119252742Y-67936559D01*
X124972742Y-50516559D02*
X124972743Y-58216559D01*
X124972743Y-58216559D02*
X125822742Y-58216558D01*
X125822742Y-58216558D02*
X125822741Y-63826559D01*
X112972842Y-67785277D02*
G75*
G02*
X110102743Y-63826559I1239898J3918716D01*
G01*
X125822741Y-63826559D02*
G75*
G02*
X123829547Y-67349516I-4109999J0D01*
G01*
%TO.C,D3*%
X93002742Y-68376559D02*
X93002742Y-70076559D01*
X93002742Y-68376559D02*
X95662742Y-68376559D01*
X93002742Y-70076559D02*
X95662742Y-70076559D01*
%TO.C,D7*%
X117140000Y-116450000D02*
X117140000Y-118350000D01*
X117140000Y-116450000D02*
X120800000Y-116450000D01*
X117140000Y-118350000D02*
X120800000Y-118350000D01*
%TO.C,Q2*%
X148650000Y-74600000D02*
X148650000Y-78900000D01*
X148650000Y-78900000D02*
X148850000Y-78900000D01*
X148800000Y-74600000D02*
X148650000Y-74600000D01*
X153650000Y-78900000D02*
X153850000Y-78900000D01*
X153850000Y-74600000D02*
X153700000Y-74600000D01*
X153850000Y-78900000D02*
X153850000Y-74600000D01*
%TO.C,Q3*%
X118742742Y-74326559D02*
X118742742Y-78626559D01*
X118742742Y-78626559D02*
X118942742Y-78626559D01*
X118892742Y-74326559D02*
X118742742Y-74326559D01*
X123742742Y-78626559D02*
X123942742Y-78626559D01*
X123942742Y-74326559D02*
X123792742Y-74326559D01*
X123942742Y-78626559D02*
X123942742Y-74326559D01*
%TO.C,Q11*%
X104518558Y-72654234D02*
X107559117Y-75694793D01*
X111236072Y-72017838D02*
X108195513Y-68977279D01*
X107959836Y-76453729D02*
X107620425Y-76114318D01*
X108023476Y-76050678D01*
X107959836Y-76453729D01*
G36*
X107959836Y-76453729D02*
G01*
X107620425Y-76114318D01*
X108023476Y-76050678D01*
X107959836Y-76453729D01*
G37*
%TO.C,C3*%
X114689999Y-107140581D02*
X114689999Y-106859419D01*
X115709999Y-107140581D02*
X115709999Y-106859419D01*
%TO.C,J2*%
X173390000Y-120260000D02*
X173390000Y-124000000D01*
X191810000Y-129410000D02*
X177500000Y-129410000D01*
X191810001Y-113690000D02*
X177500000Y-113690001D01*
X191810001Y-113690000D02*
X191810000Y-129410000D01*
X173977042Y-115683194D02*
G75*
G02*
X177500000Y-113690001I3522955J-2116802D01*
G01*
X177500000Y-129410000D02*
G75*
G02*
X173569587Y-126501648I0J4110000D01*
G01*
%TO.C,R14*%
X153677500Y-114762742D02*
X153677500Y-115237258D01*
X154722500Y-114762742D02*
X154722500Y-115237258D01*
%TO.C,Q6*%
X100436397Y-76775697D02*
X103476956Y-79816256D01*
X100542463Y-76669631D02*
X100436397Y-76775697D01*
X103476956Y-79816256D02*
X103618377Y-79674835D01*
X104113352Y-73098742D02*
X104007286Y-73204808D01*
X107012490Y-76280722D02*
X107153911Y-76139301D01*
X107153911Y-76139301D02*
X104113352Y-73098742D01*
%TO.C,J5*%
X133740000Y-58290000D02*
X133740000Y-63900000D01*
X133740000Y-58290000D02*
X134590000Y-58289999D01*
X134590000Y-50590000D02*
X134590000Y-58289999D01*
X134590000Y-50590000D02*
X148610000Y-50590000D01*
X139150000Y-68010000D02*
X142890000Y-68010000D01*
X148610000Y-50590000D02*
X148610001Y-58290000D01*
X148610001Y-58290000D02*
X149460000Y-58289999D01*
X149460000Y-58289999D02*
X149459999Y-63900000D01*
X136610100Y-67858718D02*
G75*
G02*
X133740001Y-63900000I1239898J3918716D01*
G01*
X149459999Y-63900000D02*
G75*
G02*
X147466805Y-67422957I-4109999J0D01*
G01*
%TO.C,J11*%
X78240000Y-108590000D02*
X85940000Y-108589999D01*
X78240000Y-122610000D02*
X78240000Y-108590000D01*
X78240000Y-122610000D02*
X85939999Y-122610000D01*
X85939999Y-107740000D02*
X91550000Y-107740001D01*
X85940000Y-108589999D02*
X85939999Y-107740000D01*
X85940000Y-123460000D02*
X85939999Y-122610000D01*
X85940000Y-123460000D02*
X91550000Y-123460000D01*
X95660000Y-118050000D02*
X95660000Y-114310000D01*
X91550000Y-107740001D02*
G75*
G02*
X95072957Y-109733195I0J-4109999D01*
G01*
X95508718Y-120589900D02*
G75*
G02*
X91550000Y-123459999I-3918716J1239898D01*
G01*
%TO.C,C12*%
X98290000Y-117909419D02*
X98290000Y-118190581D01*
X99310000Y-117909419D02*
X99310000Y-118190581D01*
%TO.C,J9*%
X173390000Y-87610000D02*
X173390000Y-91350000D01*
X191810000Y-96760000D02*
X177500000Y-96760000D01*
X191810001Y-81040000D02*
X177500000Y-81040001D01*
X191810001Y-81040000D02*
X191810000Y-96760000D01*
X173977042Y-83033194D02*
G75*
G02*
X177500000Y-81040001I3522955J-2116802D01*
G01*
X177500000Y-96760000D02*
G75*
G02*
X173569587Y-93851648I0J4110000D01*
G01*
%TO.C,Q9*%
X124000000Y-127589999D02*
X123350000Y-127590000D01*
X124000000Y-127589999D02*
X124650000Y-127590000D01*
X124000000Y-130710001D02*
X123350000Y-130710000D01*
X124000000Y-130710001D02*
X125674999Y-130710000D01*
D15*
%TO.C,Q10*%
X161725000Y-64873841D02*
X161725000Y-68553841D01*
X166675000Y-68553841D02*
X166675000Y-64873841D01*
D13*
X166205000Y-62283841D02*
G75*
G02*
X166005000Y-62283841I-100000J0D01*
G01*
X166005000Y-62283841D02*
G75*
G02*
X166205000Y-62283841I100000J0D01*
G01*
D15*
%TO.C,J6*%
X72672855Y-84977541D02*
X72672855Y-105777541D01*
X72672855Y-105777541D02*
X86322855Y-105777541D01*
X86322855Y-84977541D02*
X72672855Y-84977541D01*
X89072855Y-105777541D02*
X99772856Y-105777541D01*
X99772855Y-87127541D02*
X99772856Y-84977541D01*
X99772855Y-92777540D02*
X99772855Y-97977542D01*
X99772856Y-84977541D02*
X89072855Y-84977541D01*
X99772856Y-105777541D02*
X99772855Y-103627541D01*
X100472855Y-89677541D02*
X101472855Y-89677541D01*
X100972855Y-90177541D02*
X100972854Y-89177541D01*
X101072855Y-100077541D02*
X101072854Y-101077541D01*
D14*
%TO.C,R1*%
X132327501Y-132937259D02*
X132327501Y-132462743D01*
X133372501Y-132937259D02*
X133372501Y-132462743D01*
%TO.C,J1*%
X173290000Y-102700000D02*
X173290000Y-106440000D01*
X183010000Y-97290000D02*
X177400000Y-97290000D01*
X183010000Y-97290000D02*
X183010001Y-98140000D01*
X183010000Y-112160001D02*
X183010001Y-113010000D01*
X183010001Y-113010000D02*
X177400000Y-113009999D01*
X190710000Y-98140000D02*
X183010001Y-98140000D01*
X190710000Y-98140000D02*
X190710000Y-112160000D01*
X190710000Y-112160000D02*
X183010000Y-112160001D01*
X173441282Y-100160100D02*
G75*
G02*
X177400000Y-97290001I3918716J-1239898D01*
G01*
X177400000Y-113009999D02*
G75*
G02*
X173877042Y-111016806I2J4110005D01*
G01*
%TO.C,C6*%
X124389999Y-108740581D02*
X124389999Y-108459419D01*
X125409999Y-108740581D02*
X125409999Y-108459419D01*
D15*
%TO.C,Q16*%
X101637223Y-96387401D02*
X104239376Y-98989554D01*
X107739554Y-95489376D02*
X105137401Y-92887223D01*
D13*
X103002944Y-91458867D02*
G75*
G02*
X102802944Y-91458867I-100000J0D01*
G01*
X102802944Y-91458867D02*
G75*
G02*
X103002944Y-91458867I100000J0D01*
G01*
D14*
%TO.C,R13*%
X122627500Y-132962258D02*
X122627500Y-132487742D01*
X123672500Y-132962258D02*
X123672500Y-132487742D01*
%TO.C,R15*%
X162400000Y-109900000D02*
X162399999Y-118200000D01*
X170400000Y-109900000D02*
X170400001Y-118200000D01*
%TO.C,U5*%
X99839999Y-117946967D02*
X99840000Y-117146967D01*
X99839999Y-117946967D02*
X99840000Y-118746967D01*
X102960001Y-117946967D02*
X102960000Y-117146967D01*
X102960001Y-117946967D02*
X102960000Y-118746967D01*
X103215000Y-116886967D02*
X102885000Y-116646967D01*
X103215000Y-116406967D01*
X103215000Y-116886967D01*
G36*
X103215000Y-116886967D02*
G01*
X102885000Y-116646967D01*
X103215000Y-116406967D01*
X103215000Y-116886967D01*
G37*
%TO.C,L1*%
X116539999Y-111390000D02*
X116539999Y-112190000D01*
X116539999Y-111390000D02*
X121659999Y-111390000D01*
X116539999Y-116010000D02*
X116539999Y-115210000D01*
X116539999Y-116010000D02*
X121659999Y-116010000D01*
X121659999Y-111390000D02*
X121659999Y-112190000D01*
X121659999Y-116010000D02*
X121659999Y-115210000D01*
%TO.C,C8*%
X159490000Y-113859419D02*
X159490000Y-114140581D01*
X160510000Y-113859419D02*
X160510000Y-114140581D01*
%TO.C,Q8*%
X127849999Y-127589999D02*
X127199999Y-127590000D01*
X127849999Y-127589999D02*
X128499999Y-127590000D01*
X127849999Y-130710001D02*
X127199999Y-130710000D01*
X127849999Y-130710001D02*
X129524998Y-130710000D01*
%TO.C,U2*%
X157062500Y-112764999D02*
X156262500Y-112765000D01*
X157062500Y-112764999D02*
X157862500Y-112765000D01*
X157062500Y-115885001D02*
X156262500Y-115885000D01*
X157062500Y-115885001D02*
X157862500Y-115885000D01*
X158602500Y-116140000D02*
X158122500Y-116140000D01*
X158362500Y-115810000D01*
X158602500Y-116140000D01*
G36*
X158602500Y-116140000D02*
G01*
X158122500Y-116140000D01*
X158362500Y-115810000D01*
X158602500Y-116140000D01*
G37*
%TO.C,R6*%
X157587258Y-59477500D02*
X157112742Y-59477500D01*
X157587258Y-60522500D02*
X157112742Y-60522500D01*
%TO.C,J7*%
X106615000Y-132710000D02*
X106615000Y-134310000D01*
X106615000Y-134310000D02*
X108415000Y-134310001D01*
X107885000Y-129840000D02*
X118815000Y-129840000D01*
X108415000Y-134310001D02*
X108415000Y-135250000D01*
X120085000Y-132710000D02*
X120085000Y-134310000D01*
X120085000Y-134310000D02*
X118285000Y-134310001D01*
%TO.C,C1*%
X109289998Y-112654437D02*
X109289999Y-118410000D01*
X109289999Y-118410000D02*
X111639999Y-118410000D01*
X110354436Y-111589999D02*
X109289998Y-112654437D01*
X110354436Y-111589999D02*
X111639999Y-111590000D01*
X114547499Y-110562500D02*
X114547499Y-111350000D01*
X114941249Y-110956250D02*
X114153749Y-110956249D01*
X115045562Y-111589999D02*
X113759999Y-111590000D01*
X115045562Y-111589999D02*
X116110000Y-112654437D01*
X116109999Y-118410000D02*
X113759999Y-118410000D01*
X116110000Y-112654437D02*
X116109999Y-118410000D01*
%TO.C,R3*%
X120777499Y-106937258D02*
X120777499Y-106462742D01*
X121822499Y-106937258D02*
X121822499Y-106462742D01*
%TO.C,U3*%
X118362498Y-107039999D02*
X117562498Y-107040000D01*
X118362498Y-107039999D02*
X119162498Y-107040000D01*
X118362498Y-110160001D02*
X117562498Y-110160000D01*
X118362498Y-110160001D02*
X120162498Y-110160000D01*
D15*
%TO.C,Q13*%
X164819509Y-123123636D02*
X167421662Y-125725789D01*
X170921840Y-122225611D02*
X168319687Y-119623458D01*
D13*
X169756119Y-127154145D02*
G75*
G02*
X169556119Y-127154145I-100000J0D01*
G01*
X169556119Y-127154145D02*
G75*
G02*
X169756119Y-127154145I100000J0D01*
G01*
D14*
%TO.C,C4*%
X120789999Y-109559420D02*
X120789999Y-109840582D01*
X121809999Y-109559420D02*
X121809999Y-109840582D01*
%TO.C,D5*%
X140064466Y-68550000D02*
X140064466Y-70250000D01*
X140064466Y-68550000D02*
X142724466Y-68550000D01*
X140064466Y-70250000D02*
X142724466Y-70250000D01*
%TO.C,R11*%
X130577500Y-132937258D02*
X130577500Y-132462742D01*
X131622500Y-132937258D02*
X131622500Y-132462742D01*
%TO.C,R12*%
X158000000Y-74700000D02*
X157999999Y-83000000D01*
X166000000Y-74700000D02*
X166000001Y-83000000D01*
%TO.C,Q5*%
X131850000Y-127715000D02*
X131200000Y-127715001D01*
X131850000Y-127715000D02*
X132500000Y-127715001D01*
X131850000Y-130835002D02*
X131200000Y-130835001D01*
X131850000Y-130835002D02*
X133524999Y-130835001D01*
%TO.C,J3*%
X86602742Y-58166559D02*
X86602742Y-63776559D01*
X86602742Y-58166559D02*
X87452742Y-58166558D01*
X87452742Y-50466559D02*
X87452742Y-58166558D01*
X87452742Y-50466559D02*
X101472742Y-50466559D01*
X92012742Y-67886559D02*
X95752742Y-67886559D01*
X101472742Y-50466559D02*
X101472743Y-58166559D01*
X101472743Y-58166559D02*
X102322742Y-58166558D01*
X102322742Y-58166558D02*
X102322741Y-63776559D01*
X89472842Y-67735277D02*
G75*
G02*
X86602743Y-63776559I1239898J3918716D01*
G01*
X102322741Y-63776559D02*
G75*
G02*
X100329547Y-67299516I-4109999J0D01*
G01*
%TO.C,R9*%
X128327500Y-132962258D02*
X128327500Y-132487742D01*
X129372500Y-132962258D02*
X129372500Y-132487742D01*
D15*
%TO.C,J10*%
X166199999Y-61250000D02*
X166200000Y-60250000D01*
X166300000Y-70950000D02*
X166300001Y-71950000D01*
X166800000Y-71450000D02*
X165800000Y-71450000D01*
X167599999Y-55550000D02*
X167600000Y-57700000D01*
X167599999Y-76350000D02*
X178300000Y-76350000D01*
X167600000Y-68550001D02*
X167600000Y-63349999D01*
X167600000Y-74200000D02*
X167599999Y-76350000D01*
X178300000Y-55550000D02*
X167599999Y-55550000D01*
X181050000Y-76350000D02*
X194700000Y-76350000D01*
X194700000Y-55550000D02*
X181050000Y-55550000D01*
X194700000Y-76350000D02*
X194700000Y-55550000D01*
D14*
%TO.C,C5*%
X122189999Y-112654437D02*
X122190000Y-118410000D01*
X122190000Y-118410000D02*
X124540000Y-118410000D01*
X123254437Y-111589999D02*
X122189999Y-112654437D01*
X123254437Y-111589999D02*
X124540000Y-111590000D01*
X127447500Y-110562500D02*
X127447500Y-111350000D01*
X127841250Y-110956250D02*
X127053750Y-110956249D01*
X127945563Y-111589999D02*
X126660000Y-111590000D01*
X127945563Y-111589999D02*
X129010001Y-112654437D01*
X129010000Y-118410000D02*
X126660000Y-118410000D01*
X129010001Y-112654437D02*
X129010000Y-118410000D01*
%TO.C,R2*%
X126577500Y-132962258D02*
X126577500Y-132487742D01*
X127622500Y-132962258D02*
X127622500Y-132487742D01*
%TO.C,R16*%
X150577500Y-114712742D02*
X150577500Y-115187258D01*
X151622500Y-114712742D02*
X151622500Y-115187258D01*
%TO.C,C7*%
X122689999Y-108740580D02*
X122689999Y-108459418D01*
X123709999Y-108740580D02*
X123709999Y-108459418D01*
%TO.C,R7*%
X98100000Y-107400000D02*
X106400000Y-107399999D01*
X98100000Y-115400000D02*
X106400000Y-115400001D01*
%TO.C,D4*%
X116402742Y-68526559D02*
X116402742Y-70226559D01*
X116402742Y-68526559D02*
X119062742Y-68526559D01*
X116402742Y-70226559D02*
X119062742Y-70226559D01*
D15*
%TO.C,Q7*%
X156375000Y-64885000D02*
X156375000Y-68565000D01*
X161325000Y-68565000D02*
X161325000Y-64885000D01*
D13*
X160855000Y-62295000D02*
G75*
G02*
X160655000Y-62295000I-100000J0D01*
G01*
X160655000Y-62295000D02*
G75*
G02*
X160855000Y-62295000I100000J0D01*
G01*
D16*
%TO.C,G\u002A\u002A\u002A*%
G36*
X136293805Y-91744742D02*
G01*
X137962140Y-91756026D01*
X137962140Y-95421562D01*
X136291087Y-95432849D01*
X134620034Y-95444137D01*
X134617989Y-94203817D01*
X134616584Y-93859329D01*
X134613662Y-93519980D01*
X134609477Y-93202025D01*
X134604286Y-92921715D01*
X134598341Y-92695305D01*
X134591961Y-92540175D01*
X134584323Y-92332357D01*
X134584139Y-92133734D01*
X134591166Y-91975543D01*
X134596723Y-91925155D01*
X134625470Y-91733458D01*
X136293805Y-91744742D01*
G37*
G36*
X137973384Y-103797886D02*
G01*
X137962140Y-105641936D01*
X136319249Y-105654307D01*
X135881185Y-105657039D01*
X135522296Y-105657885D01*
X135235528Y-105656664D01*
X135013825Y-105653195D01*
X134850134Y-105647300D01*
X134737398Y-105638797D01*
X134668562Y-105627503D01*
X134636571Y-105613240D01*
X134634770Y-105611183D01*
X134624491Y-105554482D01*
X134615578Y-105417480D01*
X134608155Y-105206114D01*
X134602348Y-104926323D01*
X134598282Y-104584043D01*
X134596083Y-104185212D01*
X134595827Y-103766044D01*
X134598472Y-101976401D01*
X137984628Y-101953838D01*
X137973384Y-103797886D01*
G37*
G36*
X133369440Y-95443124D02*
G01*
X132557912Y-95443124D01*
X132200256Y-95446303D01*
X131916282Y-95457353D01*
X131693608Y-95478538D01*
X131519849Y-95512127D01*
X131382624Y-95560387D01*
X131269549Y-95625583D01*
X131184864Y-95694458D01*
X131039729Y-95852559D01*
X130938693Y-96029241D01*
X130874575Y-96243815D01*
X130840193Y-96515592D01*
X130833362Y-96639563D01*
X130815364Y-97081333D01*
X134388752Y-97092365D01*
X137962140Y-97103395D01*
X137962140Y-100294567D01*
X130846690Y-100337691D01*
X130847374Y-100768931D01*
X130849972Y-100974813D01*
X130860131Y-101119843D01*
X130882568Y-101229367D01*
X130922002Y-101328732D01*
X130967759Y-101415790D01*
X131143704Y-101650010D01*
X131371300Y-101817003D01*
X131643320Y-101911488D01*
X131647193Y-101912229D01*
X131766239Y-101926529D01*
X131951551Y-101938787D01*
X132183154Y-101948128D01*
X132441073Y-101953677D01*
X132620657Y-101954839D01*
X133369440Y-101954839D01*
X133369440Y-103785061D01*
X133368704Y-104173595D01*
X133366596Y-104534635D01*
X133363276Y-104859231D01*
X133358901Y-105138429D01*
X133353627Y-105363277D01*
X133347612Y-105524822D01*
X133341011Y-105614113D01*
X133337097Y-105629228D01*
X133285164Y-105632334D01*
X133162128Y-105632032D01*
X132983056Y-105628585D01*
X132763014Y-105622253D01*
X132593209Y-105616267D01*
X131902821Y-105562082D01*
X131270621Y-105451198D01*
X130686135Y-105279110D01*
X130138889Y-105041316D01*
X129618409Y-104733307D01*
X129114222Y-104350581D01*
X128645473Y-103918356D01*
X128345085Y-103603939D01*
X128102381Y-103314691D01*
X127902057Y-103029829D01*
X127728813Y-102728569D01*
X127644368Y-102558574D01*
X127543553Y-102337029D01*
X127462979Y-102134206D01*
X127395586Y-101927108D01*
X127334318Y-101692738D01*
X127272116Y-101408095D01*
X127236395Y-101229181D01*
X127214087Y-101111915D01*
X127195430Y-101002356D01*
X127180098Y-100891705D01*
X127167765Y-100771167D01*
X127158106Y-100631944D01*
X127150796Y-100465240D01*
X127145508Y-100262257D01*
X127141921Y-100014198D01*
X127139704Y-99712267D01*
X127138536Y-99347666D01*
X127138089Y-98911599D01*
X127138031Y-98569610D01*
X127138031Y-96413413D01*
X127260858Y-95878513D01*
X127404762Y-95351302D01*
X127584785Y-94884196D01*
X127812466Y-94454633D01*
X128099342Y-94040048D01*
X128364042Y-93721114D01*
X128836430Y-93238771D01*
X129339520Y-92828167D01*
X129878742Y-92486887D01*
X130459527Y-92212513D01*
X131087306Y-92002627D01*
X131767507Y-91854813D01*
X132505562Y-91766656D01*
X132795882Y-91748602D01*
X133369440Y-91721094D01*
X133369440Y-95443124D01*
G37*
G36*
X133484733Y-84667144D02*
G01*
X134119883Y-84668586D01*
X134831400Y-84670649D01*
X135624070Y-84673200D01*
X135678256Y-84673379D01*
X140808320Y-84690305D01*
X141304245Y-84800090D01*
X141828641Y-84940169D01*
X142293863Y-85118834D01*
X142722285Y-85346593D01*
X143136281Y-85633953D01*
X143219213Y-85699416D01*
X143668838Y-86104714D01*
X144060915Y-86547903D01*
X144387617Y-87018188D01*
X144641115Y-87504772D01*
X144765215Y-87831748D01*
X144821475Y-88011203D01*
X144862941Y-88160819D01*
X144895072Y-88306807D01*
X144923316Y-88475377D01*
X144953127Y-88692741D01*
X144967067Y-88802038D01*
X144972022Y-88884372D01*
X144976822Y-89049252D01*
X144981448Y-89292974D01*
X144985873Y-89611835D01*
X144990076Y-90002131D01*
X144994034Y-90460161D01*
X144997722Y-90982221D01*
X145001120Y-91564608D01*
X145004203Y-92203620D01*
X145006948Y-92895552D01*
X145009333Y-93636703D01*
X145011333Y-94423370D01*
X145012927Y-95251849D01*
X145014090Y-96118437D01*
X145014357Y-96391852D01*
X145015176Y-97319057D01*
X145015870Y-98164000D01*
X145016394Y-98930665D01*
X145016705Y-99623037D01*
X145016761Y-100245102D01*
X145016515Y-100800843D01*
X145015925Y-101294247D01*
X145014950Y-101729298D01*
X145013542Y-102109981D01*
X145011661Y-102440281D01*
X145009262Y-102724183D01*
X145006300Y-102965672D01*
X145002734Y-103168733D01*
X144998518Y-103337351D01*
X144993610Y-103475512D01*
X144987966Y-103587199D01*
X144981542Y-103676399D01*
X144974295Y-103747095D01*
X144966180Y-103803274D01*
X144957155Y-103848921D01*
X144947176Y-103888017D01*
X144936198Y-103924552D01*
X144931773Y-103938540D01*
X144782744Y-104301236D01*
X144579158Y-104640813D01*
X144338251Y-104929563D01*
X144281255Y-104984157D01*
X144061666Y-105172403D01*
X143859967Y-105311886D01*
X143642375Y-105422897D01*
X143385773Y-105522008D01*
X143050764Y-105639190D01*
X141239559Y-105646669D01*
X140848239Y-105647813D01*
X140480341Y-105647983D01*
X140145566Y-105647243D01*
X139853618Y-105645653D01*
X139614198Y-105643275D01*
X139437010Y-105640170D01*
X139331756Y-105636402D01*
X139309763Y-105634396D01*
X139191172Y-105614645D01*
X139191172Y-101964791D01*
X139913498Y-101945977D01*
X140218724Y-101935754D01*
X140453071Y-101920619D01*
X140631898Y-101896857D01*
X140770564Y-101860756D01*
X140884431Y-101808599D01*
X140988857Y-101736672D01*
X141072161Y-101665781D01*
X141133278Y-101611652D01*
X141185373Y-101562786D01*
X141229199Y-101512186D01*
X141265510Y-101452856D01*
X141295055Y-101377799D01*
X141318591Y-101280017D01*
X141336870Y-101152514D01*
X141350644Y-100988294D01*
X141360666Y-100780359D01*
X141367689Y-100521713D01*
X141372467Y-100205358D01*
X141375751Y-99824298D01*
X141378295Y-99371536D01*
X141380852Y-98840074D01*
X141381074Y-98794897D01*
X141383185Y-98200688D01*
X141383293Y-97678082D01*
X141381426Y-97229317D01*
X141377611Y-96856627D01*
X141371876Y-96562246D01*
X141364248Y-96348410D01*
X141354756Y-96217353D01*
X141348823Y-96181632D01*
X141236661Y-95922572D01*
X141051066Y-95707859D01*
X140897148Y-95595400D01*
X140817711Y-95547774D01*
X140746508Y-95512969D01*
X140667965Y-95488485D01*
X140566506Y-95471817D01*
X140426556Y-95460465D01*
X140232539Y-95451927D01*
X139968881Y-95443700D01*
X139949235Y-95443124D01*
X139212734Y-95421563D01*
X139212734Y-91756027D01*
X140290832Y-91734465D01*
X141368931Y-91712903D01*
X141363724Y-90979796D01*
X141360772Y-90703625D01*
X141354995Y-90494930D01*
X141344272Y-90334945D01*
X141326484Y-90204899D01*
X141299512Y-90086026D01*
X141261235Y-89959559D01*
X141241966Y-89901698D01*
X141070031Y-89519038D01*
X140830089Y-89172678D01*
X140534041Y-88875424D01*
X140193787Y-88640083D01*
X139969706Y-88532439D01*
X139730221Y-88435484D01*
X134986588Y-88413921D01*
X130242954Y-88392360D01*
X129970036Y-88293729D01*
X129597073Y-88124570D01*
X129292423Y-87907944D01*
X129048437Y-87635976D01*
X128857472Y-87300793D01*
X128758421Y-87046097D01*
X128682844Y-86689534D01*
X128686672Y-86329489D01*
X128764396Y-85977600D01*
X128910511Y-85645503D01*
X129119506Y-85344836D01*
X129385874Y-85087231D01*
X129704109Y-84884329D01*
X129803476Y-84838167D01*
X129867550Y-84811405D01*
X129931426Y-84787413D01*
X129999890Y-84766057D01*
X130077727Y-84747199D01*
X130169723Y-84730711D01*
X130280663Y-84716454D01*
X130415332Y-84704295D01*
X130578515Y-84694101D01*
X130774998Y-84685736D01*
X131009566Y-84679067D01*
X131287004Y-84673960D01*
X131612098Y-84670279D01*
X131989633Y-84667891D01*
X132424393Y-84666664D01*
X132921164Y-84666458D01*
X133484733Y-84667144D01*
G37*
D14*
%TO.C,C9*%
X175690000Y-79540581D02*
X175690000Y-79259419D01*
X176710000Y-79540581D02*
X176710000Y-79259419D01*
%TO.C,R8*%
X126121417Y-108825601D02*
X126121417Y-108351085D01*
X127166417Y-108825601D02*
X127166417Y-108351085D01*
%TO.C,R20*%
X106412742Y-90877500D02*
X106887258Y-90877500D01*
X106412742Y-91922500D02*
X106887258Y-91922500D01*
%TO.C,D6*%
X127708917Y-107126198D02*
X127708917Y-109411198D01*
X129178917Y-107126198D02*
X127708917Y-107126198D01*
X129178917Y-109411198D02*
X129178917Y-107126198D01*
%TO.C,C2*%
X113189999Y-107140581D02*
X113189999Y-106859419D01*
X114209999Y-107140581D02*
X114209999Y-106859419D01*
%TO.C,R4*%
X119237257Y-105377499D02*
X118762741Y-105377499D01*
X119237257Y-106422499D02*
X118762741Y-106422499D01*
%TO.C,Q4*%
X126162742Y-74276559D02*
X126162742Y-78576559D01*
X126162742Y-78576559D02*
X126362742Y-78576559D01*
X126312742Y-74276559D02*
X126162742Y-74276559D01*
X131162742Y-78576559D02*
X131362742Y-78576559D01*
X131362742Y-74276559D02*
X131212742Y-74276559D01*
X131362742Y-78576559D02*
X131362742Y-74276559D01*
%TO.C,U4*%
X179000000Y-77139999D02*
X178200000Y-77140000D01*
X179000000Y-77139999D02*
X179800000Y-77140000D01*
X179000000Y-80260001D02*
X178200000Y-80260000D01*
X179000000Y-80260001D02*
X179800000Y-80260000D01*
X177700000Y-77215000D02*
X177460000Y-76885000D01*
X177940000Y-76885000D01*
X177700000Y-77215000D01*
G36*
X177700000Y-77215000D02*
G01*
X177460000Y-76885000D01*
X177940000Y-76885000D01*
X177700000Y-77215000D01*
G37*
%TO.C,R10*%
X124377500Y-132987258D02*
X124377500Y-132512742D01*
X125422500Y-132987258D02*
X125422500Y-132512742D01*
%TO.C,Q1*%
X141950000Y-74650000D02*
X141950000Y-78950000D01*
X141950000Y-78950000D02*
X142150000Y-78950000D01*
X142100000Y-74650000D02*
X141950000Y-74650000D01*
X146950000Y-78950000D02*
X147150000Y-78950000D01*
X147150000Y-74650000D02*
X147000000Y-74650000D01*
X147150000Y-78950000D02*
X147150000Y-74650000D01*
%TO.C,R18*%
X171477500Y-120312742D02*
X171477500Y-120787258D01*
X172522500Y-120312742D02*
X172522500Y-120787258D01*
%TD*%
%LPC*%
D17*
%TO.C,Q10*%
X163995000Y-69283841D02*
X163982500Y-69283841D01*
X163982500Y-69993841D01*
X163172500Y-69993841D01*
X163172500Y-69283841D01*
X162700000Y-69283841D01*
X162700000Y-69993841D01*
X161890000Y-69993841D01*
X161890000Y-68773841D01*
X162145000Y-68773841D01*
X162145000Y-65273841D01*
X163995001Y-65273841D01*
X163995000Y-69283841D01*
G36*
X163995000Y-69283841D02*
G01*
X163982500Y-69283841D01*
X163982500Y-69993841D01*
X163172500Y-69993841D01*
X163172500Y-69283841D01*
X162700000Y-69283841D01*
X162700000Y-69993841D01*
X161890000Y-69993841D01*
X161890000Y-68773841D01*
X162145000Y-68773841D01*
X162145000Y-65273841D01*
X163995001Y-65273841D01*
X163995000Y-69283841D01*
G37*
X166255000Y-68773841D02*
X166510000Y-68773841D01*
X166510000Y-69993841D01*
X165700000Y-69993841D01*
X165700000Y-69283841D01*
X165227500Y-69283841D01*
X165227500Y-69993841D01*
X164417500Y-69993841D01*
X164417500Y-69283841D01*
X164405000Y-69283841D01*
X164404999Y-65273841D01*
X166255000Y-65273841D01*
X166255000Y-68773841D01*
G36*
X166255000Y-68773841D02*
G01*
X166510000Y-68773841D01*
X166510000Y-69993841D01*
X165700000Y-69993841D01*
X165700000Y-69283841D01*
X165227500Y-69283841D01*
X165227500Y-69993841D01*
X164417500Y-69993841D01*
X164417500Y-69283841D01*
X164405000Y-69283841D01*
X164404999Y-65273841D01*
X166255000Y-65273841D01*
X166255000Y-68773841D01*
G37*
%TO.C,Q16*%
X106360696Y-97900610D02*
X106351857Y-97909449D01*
X106853903Y-98411494D01*
X106281146Y-98984251D01*
X105779101Y-98482205D01*
X105444993Y-98816313D01*
X105947038Y-99318359D01*
X105374282Y-99891115D01*
X104511612Y-99028445D01*
X104691924Y-98848133D01*
X102217050Y-96373259D01*
X103525198Y-95065111D01*
X106360696Y-97900610D01*
G36*
X106360696Y-97900610D02*
G01*
X106351857Y-97909449D01*
X106853903Y-98411494D01*
X106281146Y-98984251D01*
X105779101Y-98482205D01*
X105444993Y-98816313D01*
X105947038Y-99318359D01*
X105374282Y-99891115D01*
X104511612Y-99028445D01*
X104691924Y-98848133D01*
X102217050Y-96373259D01*
X103525198Y-95065111D01*
X106360696Y-97900610D01*
G37*
X107598133Y-95941924D02*
X107778445Y-95761612D01*
X108641115Y-96624282D01*
X108068359Y-97197038D01*
X107566313Y-96694993D01*
X107232205Y-97029101D01*
X107734251Y-97531146D01*
X107161494Y-98103903D01*
X106659449Y-97601857D01*
X106650610Y-97610696D01*
X103815111Y-94775198D01*
X105123259Y-93467050D01*
X107598133Y-95941924D01*
G36*
X107598133Y-95941924D02*
G01*
X107778445Y-95761612D01*
X108641115Y-96624282D01*
X108068359Y-97197038D01*
X107566313Y-96694993D01*
X107232205Y-97029101D01*
X107734251Y-97531146D01*
X107161494Y-98103903D01*
X106659449Y-97601857D01*
X106650610Y-97610696D01*
X103815111Y-94775198D01*
X105123259Y-93467050D01*
X107598133Y-95941924D01*
G37*
%TO.C,Q13*%
X165899614Y-121011155D02*
X165908453Y-121002316D01*
X168743952Y-123837814D01*
X167435804Y-125145962D01*
X164960930Y-122671088D01*
X164780618Y-122851400D01*
X163917948Y-121988730D01*
X164490704Y-121415974D01*
X164992750Y-121918019D01*
X165326858Y-121583911D01*
X164824812Y-121081866D01*
X165397569Y-120509109D01*
X165899614Y-121011155D01*
G36*
X165899614Y-121011155D02*
G01*
X165908453Y-121002316D01*
X168743952Y-123837814D01*
X167435804Y-125145962D01*
X164960930Y-122671088D01*
X164780618Y-122851400D01*
X163917948Y-121988730D01*
X164490704Y-121415974D01*
X164992750Y-121918019D01*
X165326858Y-121583911D01*
X164824812Y-121081866D01*
X165397569Y-120509109D01*
X165899614Y-121011155D01*
G37*
X168047451Y-119584567D02*
X167867139Y-119764879D01*
X170342013Y-122239753D01*
X169033865Y-123547901D01*
X166198367Y-120712402D01*
X166207206Y-120703563D01*
X165705160Y-120201518D01*
X166277917Y-119628761D01*
X166779962Y-120130807D01*
X167114070Y-119796699D01*
X166612025Y-119294653D01*
X167184781Y-118721897D01*
X168047451Y-119584567D01*
G36*
X168047451Y-119584567D02*
G01*
X167867139Y-119764879D01*
X170342013Y-122239753D01*
X169033865Y-123547901D01*
X166198367Y-120712402D01*
X166207206Y-120703563D01*
X165705160Y-120201518D01*
X166277917Y-119628761D01*
X166779962Y-120130807D01*
X167114070Y-119796699D01*
X166612025Y-119294653D01*
X167184781Y-118721897D01*
X168047451Y-119584567D01*
G37*
%TO.C,Q7*%
X158645000Y-69295000D02*
X158632500Y-69295000D01*
X158632500Y-70005000D01*
X157822500Y-70005000D01*
X157822500Y-69295000D01*
X157350000Y-69295000D01*
X157350000Y-70005000D01*
X156540000Y-70005000D01*
X156540000Y-68785000D01*
X156795000Y-68785000D01*
X156795000Y-65285000D01*
X158645001Y-65285000D01*
X158645000Y-69295000D01*
G36*
X158645000Y-69295000D02*
G01*
X158632500Y-69295000D01*
X158632500Y-70005000D01*
X157822500Y-70005000D01*
X157822500Y-69295000D01*
X157350000Y-69295000D01*
X157350000Y-70005000D01*
X156540000Y-70005000D01*
X156540000Y-68785000D01*
X156795000Y-68785000D01*
X156795000Y-65285000D01*
X158645001Y-65285000D01*
X158645000Y-69295000D01*
G37*
X160905000Y-68785000D02*
X161160000Y-68785000D01*
X161160000Y-70005000D01*
X160350000Y-70005000D01*
X160350000Y-69295000D01*
X159877500Y-69295000D01*
X159877500Y-70005000D01*
X159067500Y-70005000D01*
X159067500Y-69295000D01*
X159055000Y-69295000D01*
X159054999Y-65285000D01*
X160905000Y-65285000D01*
X160905000Y-68785000D01*
G36*
X160905000Y-68785000D02*
G01*
X161160000Y-68785000D01*
X161160000Y-70005000D01*
X160350000Y-70005000D01*
X160350000Y-69295000D01*
X159877500Y-69295000D01*
X159877500Y-70005000D01*
X159067500Y-70005000D01*
X159067500Y-69295000D01*
X159055000Y-69295000D01*
X159054999Y-65285000D01*
X160905000Y-65285000D01*
X160905000Y-68785000D01*
G37*
%TD*%
D18*
%TO.C,H1*%
X172122855Y-131217541D03*
%TD*%
D19*
%TO.C,J4*%
X111212742Y-59976559D03*
X124712742Y-59976559D03*
D20*
X121562742Y-65976559D03*
D21*
X114362742Y-65976559D03*
%TD*%
D22*
%TO.C,D3*%
X93562742Y-69226559D03*
X95662742Y-69226559D03*
%TD*%
D23*
%TO.C,D7*%
X118000001Y-117400000D03*
X120799999Y-117400000D03*
%TD*%
D24*
%TO.C,Q2*%
X149340000Y-79420000D03*
X150610000Y-79420000D03*
X151890000Y-79420000D03*
X153160000Y-79420000D03*
D25*
X151250000Y-76150000D03*
%TD*%
D24*
%TO.C,Q3*%
X119432742Y-79146559D03*
X120702742Y-79146559D03*
X121982742Y-79146559D03*
X123252742Y-79146559D03*
D25*
X121342742Y-75876559D03*
%TD*%
D26*
%TO.C,Q11*%
X108414716Y-75574585D03*
X109312742Y-74676559D03*
X110217838Y-73771463D03*
X111115864Y-72873437D03*
D27*
X107453051Y-71911772D03*
%TD*%
D28*
%TO.C,C3*%
X115199999Y-107775000D03*
X115199999Y-106225000D03*
%TD*%
D29*
%TO.C,J2*%
X181350000Y-114800000D03*
X181350000Y-128300000D03*
D30*
X175350000Y-117950000D03*
D21*
X175350000Y-125150000D03*
%TD*%
D31*
%TO.C,R14*%
X154200000Y-114175000D03*
X154200000Y-115825000D03*
%TD*%
D32*
%TO.C,Q6*%
X104332555Y-79696048D03*
X105230581Y-78798022D03*
X106135677Y-77892926D03*
X107033703Y-76994900D03*
D33*
X103370890Y-76033235D03*
%TD*%
D19*
%TO.C,J5*%
X134850000Y-60050000D03*
X148350000Y-60050000D03*
D20*
X145200000Y-66050000D03*
D21*
X138000000Y-66050000D03*
%TD*%
D29*
%TO.C,J11*%
X87700000Y-122350000D03*
X87700000Y-108850000D03*
D34*
X93700000Y-112000000D03*
D21*
X93700000Y-119200000D03*
%TD*%
D35*
%TO.C,C12*%
X98800000Y-117275000D03*
X98800000Y-118825000D03*
%TD*%
D29*
%TO.C,J9*%
X181350000Y-82150000D03*
X181350000Y-95650000D03*
D30*
X175350000Y-85300000D03*
D21*
X175350000Y-92500000D03*
%TD*%
D36*
%TO.C,Q9*%
X124937500Y-130100000D03*
X124937500Y-128200000D03*
X123062499Y-129150000D03*
%TD*%
D37*
%TO.C,Q10*%
X166105000Y-63918840D03*
X164835000Y-63918841D03*
X163565000Y-63918841D03*
X162295000Y-63918840D03*
%TD*%
D38*
%TO.C,J6*%
X97072855Y-100827541D03*
D39*
X97072855Y-89927541D03*
D40*
X87672855Y-85927541D03*
X87672855Y-104827541D03*
%TD*%
D18*
%TO.C,H3*%
X96902855Y-79877541D03*
%TD*%
D41*
%TO.C,R1*%
X132850001Y-133525001D03*
X132850001Y-131875001D03*
%TD*%
D29*
%TO.C,J1*%
X181250000Y-98400000D03*
X181250000Y-111900000D03*
D30*
X175250000Y-108750000D03*
D21*
X175250000Y-101550000D03*
%TD*%
D28*
%TO.C,C6*%
X124899999Y-109375000D03*
X124899999Y-107825000D03*
%TD*%
D42*
%TO.C,Q16*%
X104059063Y-92614986D03*
X103161038Y-93513012D03*
X102263012Y-94411038D03*
X101364986Y-95309063D03*
%TD*%
D41*
%TO.C,R13*%
X123150000Y-133550000D03*
X123150000Y-131900000D03*
%TD*%
D43*
%TO.C,R15*%
X166400000Y-111100000D03*
D44*
X166400000Y-116900000D03*
%TD*%
D45*
%TO.C,U5*%
X102375000Y-116809467D03*
X101725000Y-116809467D03*
X101075000Y-116809467D03*
X100425000Y-116809467D03*
X100425000Y-119084467D03*
X101075000Y-119084467D03*
X101725000Y-119084467D03*
X102375000Y-119084467D03*
%TD*%
D46*
%TO.C,L1*%
X117249998Y-113700000D03*
X120950000Y-113700000D03*
%TD*%
D35*
%TO.C,C8*%
X160000000Y-113225000D03*
X160000000Y-114775000D03*
%TD*%
D36*
%TO.C,Q8*%
X128787499Y-130100000D03*
X128787499Y-128200000D03*
X126912498Y-129150000D03*
%TD*%
D47*
%TO.C,U2*%
X158200000Y-115300000D03*
X158200000Y-114650000D03*
X158200000Y-114000000D03*
X158200000Y-113350000D03*
X155925000Y-113350000D03*
X155925000Y-114000000D03*
X155925000Y-114650000D03*
X155925000Y-115300000D03*
%TD*%
D48*
%TO.C,R6*%
X158175000Y-60000000D03*
X156525000Y-60000000D03*
%TD*%
D18*
%TO.C,H2*%
X96933324Y-131238010D03*
%TD*%
D49*
%TO.C,J7*%
X108975000Y-134400000D03*
X110225000Y-134400000D03*
X111475000Y-134400000D03*
X112725000Y-134400000D03*
X113975000Y-134400000D03*
X115225000Y-134400000D03*
X116475000Y-134400000D03*
X117725000Y-134400000D03*
D50*
X106450000Y-131550000D03*
X120250000Y-131550000D03*
%TD*%
D51*
%TO.C,C1*%
X112699999Y-112300000D03*
X112699999Y-117700000D03*
%TD*%
D41*
%TO.C,R3*%
X121299999Y-107525000D03*
X121299999Y-105875000D03*
%TD*%
D52*
%TO.C,U3*%
X119499998Y-109549999D03*
X119499998Y-108600000D03*
X119499998Y-107650001D03*
X117224998Y-107650001D03*
X117224998Y-108600000D03*
X117224998Y-109549999D03*
%TD*%
D53*
%TO.C,Q13*%
X168500000Y-125998026D03*
X169398025Y-125100000D03*
X170296051Y-124201974D03*
X171194077Y-123303949D03*
%TD*%
D35*
%TO.C,C4*%
X121299999Y-108925001D03*
X121299999Y-110475001D03*
%TD*%
D22*
%TO.C,D5*%
X140624466Y-69400000D03*
X142724466Y-69400000D03*
%TD*%
D41*
%TO.C,R11*%
X131100000Y-133525000D03*
X131100000Y-131875000D03*
%TD*%
D43*
%TO.C,R12*%
X162000000Y-75900000D03*
D44*
X162000000Y-81700000D03*
%TD*%
D36*
%TO.C,Q5*%
X132787500Y-130225001D03*
X132787500Y-128325001D03*
X130912499Y-129275001D03*
%TD*%
D19*
%TO.C,J3*%
X87712742Y-59926559D03*
X101212742Y-59926559D03*
D20*
X98062742Y-65926559D03*
D21*
X90862742Y-65926559D03*
%TD*%
D41*
%TO.C,R9*%
X128850000Y-133550000D03*
X128850000Y-131900000D03*
%TD*%
D18*
%TO.C,H4*%
X172112855Y-79917541D03*
%TD*%
D54*
%TO.C,J10*%
X170300000Y-60500000D03*
D39*
X170300000Y-71400000D03*
D40*
X179700000Y-75400000D03*
X179700000Y-56500000D03*
%TD*%
D51*
%TO.C,C5*%
X125600000Y-112200000D03*
X125600000Y-117800000D03*
%TD*%
D41*
%TO.C,R2*%
X127100000Y-133550000D03*
X127100000Y-131900000D03*
%TD*%
D31*
%TO.C,R16*%
X151100000Y-114125000D03*
X151100000Y-115775000D03*
%TD*%
D28*
%TO.C,C7*%
X123199999Y-109374999D03*
X123199999Y-107824999D03*
%TD*%
D55*
%TO.C,R7*%
X99300000Y-111400000D03*
D56*
X105100000Y-111400000D03*
%TD*%
D22*
%TO.C,D4*%
X116962742Y-69376559D03*
X119062742Y-69376559D03*
%TD*%
D37*
%TO.C,Q7*%
X160755000Y-63929999D03*
X159485000Y-63930000D03*
X158215000Y-63930000D03*
X156945000Y-63929999D03*
%TD*%
D28*
%TO.C,C9*%
X176200000Y-80175000D03*
X176200000Y-78625000D03*
%TD*%
D41*
%TO.C,R8*%
X126643917Y-109413343D03*
X126643917Y-107763343D03*
%TD*%
D57*
%TO.C,R20*%
X105825000Y-91400000D03*
X107475000Y-91400000D03*
%TD*%
D58*
%TO.C,D6*%
X128443917Y-107823697D03*
X128443917Y-109398699D03*
%TD*%
D28*
%TO.C,C2*%
X113699999Y-107775000D03*
X113699999Y-106225000D03*
%TD*%
D48*
%TO.C,R4*%
X119824999Y-105899999D03*
X118174999Y-105899999D03*
%TD*%
D24*
%TO.C,Q4*%
X126852742Y-79096559D03*
X128122742Y-79096559D03*
X129402742Y-79096559D03*
X130672742Y-79096559D03*
D25*
X128762742Y-75826559D03*
%TD*%
D59*
%TO.C,U4*%
X177862500Y-77725000D03*
X177862500Y-78375000D03*
X177862500Y-79025000D03*
X177862500Y-79675000D03*
X180137500Y-79675000D03*
X180137500Y-79025000D03*
X180137500Y-78375000D03*
X180137500Y-77725000D03*
%TD*%
D41*
%TO.C,R10*%
X124900000Y-133575000D03*
X124900000Y-131925000D03*
%TD*%
D24*
%TO.C,Q1*%
X142640000Y-79470000D03*
X143910000Y-79470000D03*
X145190000Y-79470000D03*
X146460000Y-79470000D03*
D25*
X144550000Y-76200000D03*
%TD*%
D31*
%TO.C,R18*%
X172000000Y-119725000D03*
X172000000Y-121375000D03*
%TD*%
%LPD*%
M02*
