0
SECTION
2
HEADER
9
$INSUNITS
70
4
9
$ACADVER
1
AC1014
9
$HANDSEED
5
FFFF
0
ENDSEC
0
SECTION
2
TABLES
0
TABLE
2
VPORT
5
8
100
AcDbSymbolTable
0
ENDTAB
0
TABLE
2
LTYPE
5
5
100
AcDbSymbolTable
0
LTYPE
5
14
100
AcDbSymbolTableRecord
100
AcDbLinetypeTableRecord
2
BYBLOCK
70
0
0
LTYPE
5
15
100
AcDbSymbolTableRecord
100
AcDbLinetypeTableRecord
2
BYLAYER
70
0
0
ENDTAB
0
TABLE
2
LAYER
5
2
100
AcDbSymbolTable
70
2
0
LAYER
5
50
100
AcDbSymbolTableRecord
100
AcDbLayerTableRecord
2
0
70
0
6
CONTINUOUS
0
ENDTAB
0
TABLE
2
STYLE
5
3
100
AcDbSymbolTable
70
1
0
STYLE
5
11
100
AcDbSymbolTableRecord
100
AcDbTextStyleTableRecord
2
STANDARD
70
0
0
ENDTAB
0
TABLE
2
VIEW
5
6
100
AcDbSymbolTable
70
0
0
ENDTAB
0
TABLE
2
UCS
5
7
100
AcDbSymbolTable
70
0
0
ENDTAB
0
TABLE
2
APPID
5
9
100
AcDbSymbolTable
70
2
0
APPID
5
12
100
AcDbSymbolTableRecord
100
AcDbRegAppTableRecord
2
ACAD
70
0
0
ENDTAB
0
TABLE
2
DIMSTYLE
5
A
100
AcDbSymbolTable
70
1
0
ENDTAB
0
TABLE
2
BLOCK_RECORD
5
1
100
AcDbSymbolTable
70
1
0
BLOCK_RECORD
5
1F
100
AcDbSymbolTableRecord
100
AcDbBlockTableRecord
2
*MODEL_SPACE
0
BLOCK_RECORD
5
1B
100
AcDbSymbolTableRecord
100
AcDbBlockTableRecord
2
*PAPER_SPACE
0
ENDTAB
0
ENDSEC
0
SECTION
2
BLOCKS
0
BLOCK
5
20
100
AcDbEntity
100
AcDbBlockBegin
2
*MODEL_SPACE
0
ENDBLK
5
21
100
AcDbEntity
100
AcDbBlockEnd
0
BLOCK
5
1C
100
AcDbEntity
100
AcDbBlockBegin
2
*PAPER_SPACE
0
ENDBLK
5
1D
100
AcDbEntity
100
AcDbBlockEnd
0
ENDSEC
0
SECTION
2
ENTITIES
0
SPLINE
5
100
100
AcDbEntity
8
0
100
AcDbSpline
70
4
71
3
72
8
73
4
74
0
42
0.000000001
43
0.0000000001
44
0.0000000001
40
0
40
0
40
0
40
0
40
1
40
1
40
1
40
1
41
1
41
1
41
1
41
1
10
-122.30337052602353
20
-203.55975466596669
30
0
10
-122.04306987701636
20
-204.497030304547
30
0
10
-121.46334428090634
20
-204.98900124418321
30
0
10
-120.68542664784971
20
-204.93277970818264
30
0
0
ELLIPSE
5
101
100
AcDbEntity
8
0
100
AcDbEllipse
10
-121.92021988914539
20
-173.69917281592774
30
0
11
-0.35139533260085232
21
-29.916495112306116
31
0.0
40
0.017787048679797919
41
5.2997496484017148
42
6.2222455280976154
0
LINE
5
102
100
AcDbEntity
8
0
100
AcDbLine
10
-122.55789633372211
20
-190.27267325269779
30
-8.1744956061710041e-31
11
-122.55948538401509
21
-177.89716571994205
31
0
0
LINE
5
103
100
AcDbEntity
8
0
100
AcDbLine
10
-122.55948538401509
20
-177.89716571994205
30
0
11
-117.23152248321755
21
-177.89716571994205
31
0
0
SPLINE
5
104
100
AcDbEntity
8
0
100
AcDbSpline
70
4
71
3
72
8
73
4
74
0
42
0.000000001
43
0.0000000001
44
0.0000000001
40
0
40
0
40
0
40
0
40
1
40
1
40
1
40
1
41
1
41
1
41
1
41
1
10
-109.97691361684386
20
-177.73492433098539
30
0
10
-111.03657115875465
20
-177.82415661044502
30
0
10
-114.30114579457822
20
-177.89716571994205
30
0
10
-117.23152248321755
20
-177.89716571994205
30
0
0
LINE
5
105
100
AcDbEntity
8
0
100
AcDbLine
10
-109.97691361684386
20
-177.73492433098539
30
0
11
-108.81097734966863
21
-177.63674384531959
31
0
0
LINE
5
106
100
AcDbEntity
8
0
100
AcDbLine
10
-108.81097734966863
20
-177.63674384531959
30
0
11
-108.45309190053526
21
-177.63258238660876
31
0
0
LINE
5
107
100
AcDbEntity
8
0
100
AcDbLine
10
-108.45309190053526
20
-177.63258238660876
30
0
11
-108.42340520703542
21
-177.60410739488441
31
0
0
LINE
5
108
100
AcDbEntity
8
0
100
AcDbLine
10
-108.42340520703542
20
-177.60410739488441
30
0
11
-108.05026442149068
21
-177.57268617180569
31
0
0
LINE
5
109
100
AcDbEntity
8
0
100
AcDbLine
10
-108.05026442149068
20
-177.57268617180569
30
0
11
-105.83748928009256
21
-175.35736596611719
31
0
0
SPLINE
5
110
100
AcDbEntity
8
0
100
AcDbSpline
70
4
71
3
72
8
73
4
74
0
42
0.000000001
43
0.0000000001
44
0.0000000001
40
0
40
0
40
0
40
0
40
1
40
1
40
1
40
1
41
1
41
1
41
1
41
1
10
-102.79746812123838
20
-168.34623707003973
30
0
10
-102.77444950042947
20
-172.46224875318589
30
0
10
-102.64307186065894
20
-172.15926983065984
30
0
10
-105.83748928009256
20
-175.35736596611719
30
0
0
SPLINE
5
111
100
AcDbEntity
8
0
100
AcDbSpline
70
4
71
3
72
8
73
4
74
0
42
0.000000001
43
0.0000000001
44
0.0000000001
40
0
40
0
40
0
40
0
40
1
40
1
40
1
40
1
41
1
41
1
41
1
41
1
10
-103.0044677601137
20
-163.9975813184935
30
0
10
-102.90136358836078
20
-164.46699711032292
30
0
10
-102.80821681915504
20
-166.42389316745181
30
0
10
-102.79746812123838
20
-168.34623707003973
30
0
0
SPLINE
5
112
100
AcDbEntity
8
0
100
AcDbSpline
70
4
71
3
72
8
73
4
74
0
42
0.000000001
43
0.0000000001
44
0.0000000001
40
0
40
0
40
0
40
0
40
1
40
1
40
1
40
1
41
1
41
1
41
1
41
1
10
-104.40182755727352
20
-162.98087012159408
30
0
10
-103.26248495676899
20
-163.13457520989161
30
0
10
-103.18099122304501
20
-163.19387391594631
30
0
10
-103.0044677601137
20
-163.9975813184935
30
0
0
SPLINE
5
113
100
AcDbEntity
8
0
100
AcDbSpline
70
4
71
3
72
8
73
4
74
0
42
0.000000001
43
0.0000000001
44
0.0000000001
40
0
40
0
40
0
40
0
40
1
40
1
40
1
40
1
41
1
41
1
41
1
41
1
10
-125.11992987254045
20
-162.54408476697984
30
0
10
-114.39042652069313
20
-162.69454392937405
30
0
10
-105.06728112477843
20
-162.89109523959539
30
0
10
-104.40182755727352
20
-162.98087012159408
30
0
0
SPLINE
5
114
100
AcDbEntity
8
0
100
AcDbSpline
70
4
71
3
72
8
73
4
74
0
42
0.000000001
43
0.0000000001
44
0.0000000001
40
0
40
0
40
0
40
0
40
1
40
1
40
1
40
1
41
1
41
1
41
1
41
1
10
-151.72579296051248
20
-162.13159379509671
30
5.0487097934144756e-28
10
-147.82207129099748
20
-162.20800708957097
30
0
10
-135.84942999461077
20
-162.39363206413967
30
0
10
-125.11992987254045
20
-162.54408476697984
30
0
0
LINE
5
115
100
AcDbEntity
8
0
100
AcDbLine
10
-151.72579296051248
20
-162.13159379509671
30
5.0487097934144756e-28
11
-158.82347342112445
21
-161.9926552473265
31
5.0487097934144756e-28
0
LINE
5
116
100
AcDbEntity
8
0
100
AcDbLine
10
-158.82347342112445
20
-161.9926552473265
30
5.0487097934144756e-28
11
-158.97913575429504
21
-159.642149494763
31
-5.0487097934144756e-28
0
SPLINE
5
117
100
AcDbEntity
8
0
100
AcDbSpline
70
4
71
3
72
8
73
4
74
0
42
0.000000001
43
0.0000000001
44
0.0000000001
40
0
40
0
40
0
40
0
40
1
40
1
40
1
40
1
41
1
41
1
41
1
41
1
10
-158.9904851907371
20
-140.4310223788776
30
-5.0487097934144756e-28
10
-159.18172674754049
20
-141.14377603081442
30
-5.0487097934144756e-28
10
-159.1725348021466
20
-156.72212101169009
30
5.0487097934144756e-28
10
-158.97913575429504
20
-159.642149494763
30
5.0487097934144756e-28
0
ELLIPSE
5
118
100
AcDbEntity
8
0
100
AcDbEllipse
10
-156.53246544957358
20
-141.18803992657604
30
5.0487097934144756e-28
11
2.447561033856724
21
-0.79238449696694557
31
0.0
40
0.52935721800370905
41
2.4130132892085103
42
3.1686688145179103
0
SPLINE
5
119
100
AcDbEntity
8
0
100
AcDbSpline
70
4
71
3
72
8
73
4
74
0
42
0.000000001
43
0.0000000001
44
0.0000000001
40
0
40
0
40
0
40
0
40
1
40
1
40
1
40
1
41
1
41
1
41
1
41
1
10
-131.09431972442849
20
-139.36339374728581
30
0
10
-145.51208955068174
20
-139.47143624809959
30
-5.0487097934144756e-28
10
-157.65535996694152
20
-139.63828006930729
30
5.0487097934144756e-28
10
-158.07936509389464
20
-139.73417860853255
30
5.0487097934144756e-28
0
SPLINE
5
120
100
AcDbEntity
8
0
100
AcDbSpline
70
4
71
3
72
8
73
4
74
0
42
0.000000001
43
0.0000000001
44
0.0000000001
40
0.69346685203058522
40
0.69346685203058522
40
0.69346685203058522
40
0.69346685203058522
40
1
40
1
40
1
40
1
41
1
41
1
41
1
41
1
10
-118.74112657568406
20
-139.24694200415232
30
0
10
-122.46616052110929
20
-139.29009127157576
30
0
10
-126.67479436285491
20
-139.33027711946431
30
0
10
-131.09431972442849
20
-139.36339374728581
30
0
0
SPLINE
5
121
100
AcDbEntity
8
0
100
AcDbSpline
70
4
71
3
72
8
73
4
74
0
42
0.000000001
43
0.0000000001
44
0.0000000001
40
0.38575832415505557
40
0.38575832415505557
40
0.38575832415505557
40
0.38575832415505557
40
0.77120286502151492
40
0.77120286502151492
40
0.77120286502151492
40
0.77120286502151492
41
1
41
1
41
1
41
1
10
-106.80774008729418
20
-139.06236489154932
30
0
10
-109.140725553517
20
-139.16634628185511
30
0
10
-112.8902423653082
20
-139.2208014073388
30
0
10
-118.74112657558223
20
-139.24694200415249
30
0
0
SPLINE
5
122
100
AcDbEntity
8
0
100
AcDbSpline
70
4
71
3
72
8
73
4
74
0
42
0.000000001
43
0.0000000001
44
0.0000000001
40
0
40
0
40
0
40
0
40
0.27092338441659486
40
0.27092338441659486
40
0.27092338441659486
40
0.27092338441659486
41
1
41
1
41
1
41
1
10
-104.04243411957006
20
-138.95613178439518
30
0
10
-104.16726477530764
20
-138.98754682857219
30
0
10
-105.15179363775474
20
-139.02390275968631
30
0
10
-106.80774008729418
20
-139.06236489154946
30
0
0
SPLINE
5
123
100
AcDbEntity
8
0
100
AcDbSpline
70
4
71
3
72
8
73
4
74
0
42
0.000000001
43
0.0000000001
44
0.0000000001
40
0
40
0
40
0
40
0
40
1
40
1
40
1
40
1
41
1
41
1
41
1
41
1
10
-102.76192442515276
20
-134.35345407036525
30
0
10
-102.7899233621238
20
-138.1077985527871
30
0
10
-102.94941298106096
20
-138.68105813530664
30
0
10
-104.04243411957006
20
-138.95613178439518
30
0
0
SPLINE
5
124
100
AcDbEntity
8
0
100
AcDbSpline
70
4
71
3
72
8
73
4
74
0
42
0.000000001
43
0.0000000001
44
0.0000000001
40
0
40
0
40
0
40
0
40
1
40
1
40
1
40
1
41
1
41
1
41
1
41
1
10
-104.29994101145647
20
-128.11363468356512
30
0
10
-102.95404125152808
20
-130.10367471245507
30
0
10
-102.73680321950496
20
-130.98502272474349
30
0
10
-102.76192442515276
20
-134.35345407036525
30
0
0
SPLINE
5
125
100
AcDbEntity
8
0
100
AcDbSpline
70
4
71
3
72
8
73
4
74
0
42
0.000000001
43
0.0000000001
44
0.0000000001
40
0
40
0
40
0
40
0
40
1
40
1
40
1
40
1
41
1
41
1
41
1
41
1
10
-115.12198716420711
20
-123.9975099582233
30
0
10
-108.06675566294572
20
-124.31911177503645
30
0
10
-106.45047511993627
20
-124.93385461357812
30
0
10
-104.29994101145647
20
-128.11363468356512
30
0
0
SPLINE
5
126
100
AcDbEntity
8
0
100
AcDbSpline
70
4
71
3
72
8
73
4
74
0
42
0.000000001
43
0.0000000001
44
0.0000000001
40
0
40
0
40
0
40
0
40
1
40
1
40
1
40
1
41
1
41
1
41
1
41
1
10
-121.27925345042131
20
-123.76856398450911
30
0
10
-120.57512976267718
20
-123.77211027967512
30
0
10
-117.80435896494767
20
-123.87523705986717
30
0
10
-115.12198716420711
20
-123.9975099582233
30
0
0
LINE
5
127
100
AcDbEntity
8
0
100
AcDbLine
10
-121.27925345042131
20
-123.76856398450911
30
0
11
-122.55948538401506
21
-123.76193648206771
31
0
0
LINE
5
128
100
AcDbEntity
8
0
100
AcDbLine
10
-122.55948538401506
20
-123.76193648206771
30
0
11
-122.55948538401509
21
-111.21941394992254
31
0
0
SPLINE
5
129
100
AcDbEntity
8
0
100
AcDbSpline
70
4
71
3
72
8
73
4
74
0
42
0.000000001
43
0.0000000001
44
0.0000000001
40
0
40
0
40
0
40
0
40
1
40
1
40
1
40
1
41
1
41
1
41
1
41
1
10
-122.33614630320452
20
-98.089466033255832
30
0
10
-122.46085445343239
20
-98.417469268119106
30
0
10
-122.55948538401506
20
-104.21592670627018
30
0
10
-122.55948538401506
20
-111.21941394992254
30
0
0
SPLINE
5
130
100
AcDbEntity
8
0
100
AcDbSpline
70
4
71
3
72
8
73
4
74
0
42
0.000000001
43
0.0000000001
44
0.0000000001
40
0
40
0
40
0
40
0
40
1
40
1
40
1
40
1
41
1
41
1
41
1
41
1
10
-119.82021460154436
20
-97.029491973197253
30
0
10
-120.85374324737769
20
-96.838625070527968
30
0
10
-122.0526106383282
20
-97.343710519746736
30
0
10
-122.33614630320452
20
-98.089466033255832
30
0
0
SPLINE
5
131
100
AcDbEntity
8
0
100
AcDbSpline
70
4
71
3
72
8
73
4
74
0
42
0.000000001
43
0.0000000001
44
0.0000000001
40
0
40
0
40
0
40
0
40
1
40
1
40
1
40
1
41
1
41
1
41
1
41
1
10
-114.34269041636369
20
-97.670421843802714
30
0
10
-116.91720704335751
20
-97.398823434785811
30
0
10
-119.38209211924456
20
-97.110404347057937
30
0
10
-119.82021460154436
20
-97.029491973197253
30
0
0
SPLINE
5
132
100
AcDbEntity
8
0
100
AcDbSpline
70
4
71
3
72
8
73
4
74
0
42
0.000000001
43
0.0000000001
44
0.0000000001
40
0
40
0
40
0
40
0
40
1
40
1
40
1
40
1
41
1
41
1
41
1
41
1
10
-102.13044488210264
20
-100.3738614800332
30
0
10
-105.46423040964983
20
-99.058412057832683
30
0
10
-109.35927366831683
20
-98.196152027721979
30
0
10
-114.34269041636369
20
-97.670421843802714
30
0
0
SPLINE
5
133
100
AcDbEntity
8
0
100
AcDbSpline
70
4
71
3
72
8
73
4
74
0
42
0.000000001
43
0.0000000001
44
0.0000000001
40
0
40
0
40
0
40
0
40
1
40
1
40
1
40
1
41
1
41
1
41
1
41
1
10
-94.060869610496184
20
-104.54830951877017
30
0
10
-95.713908245750076
20
-103.42721515841862
30
0
10
-99.963267732647864
20
-101.22900308159571
30
0
10
-102.13044488210264
20
-100.3738614800332
30
0
0
SPLINE
5
134
100
AcDbEntity
8
0
100
AcDbSpline
70
4
71
3
72
8
73
4
74
0
42
0.000000001
43
0.0000000001
44
0.0000000001
40
0
40
0
40
0
40
0
40
1
40
1
40
1
40
1
41
1
41
1
41
1
41
1
10
-79.874132193910867
20
-119.6386158135293
30
0
10
-81.899405860292717
20
-115.62656742282292
30
0
10
-89.241620813397361
20
-107.8167211296914
30
0
10
-94.060869610496184
20
-104.54830951877017
30
0
0
SPLINE
5
135
100
AcDbEntity
8
0
100
AcDbSpline
70
4
71
3
72
8
73
4
74
0
42
0.000000001
43
0.0000000001
44
0.0000000001
40
0
40
0
40
0
40
0
40
1
40
1
40
1
40
1
41
1
41
1
41
1
41
1
10
-76.343781629589984
20
-131.47328103569725
30
2.5243548967072378e-28
10
-76.954111785280489
20
-126.9184879957396
30
2.5243548967072378e-28
10
-78.044591896720519
20
-123.26292301364322
30
2.5243548967072378e-28
10
-79.874132193910867
20
-119.6386158135293
30
0
0
SPLINE
5
136
100
AcDbEntity
8
0
100
AcDbSpline
70
4
71
3
72
8
73
4
74
0
42
0.000000001
43
0.0000000001
44
0.0000000001
40
0
40
0
40
0
40
0
40
1
40
1
40
1
40
1
41
1
41
1
41
1
41
1
10
-75.590025958406727
20
-155.95045622694076
30
0
10
-75.421629421897535
20
-147.22555596855861
30
2.5243548967072378e-28
10
-75.776292851157777
20
-135.7083842868366
30
-2.5243548967072378e-28
10
-76.343781629589984
20
-131.47328103569725
30
2.5243548967072378e-28
0
SPLINE
5
137
100
AcDbEntity
8
0
100
AcDbSpline
70
4
71
3
72
8
73
4
74
0
42
0.000000001
43
0.0000000001
44
0.0000000001
40
0
40
0
40
0
40
0
40
1
40
1
40
1
40
1
41
1
41
1
41
1
41
1
10
-77.814446868288329
20
-176.31212358025294
30
2.5243548967072378e-28
10
-76.217035490063623
20
-171.20383719312727
30
0
10
-75.813054173179268
20
-167.50590722588285
30
-2.5243548967072378e-28
10
-75.590025958406727
20
-155.95045622694076
30
0
0
SPLINE
5
138
100
AcDbEntity
8
0
100
AcDbSpline
70
4
71
3
72
8
73
4
74
0
42
0.000000001
43
0.0000000001
44
0.0000000001
40
0
40
0
40
0
40
0
40
1
40
1
40
1
40
1
41
1
41
1
41
1
41
1
10
-81.775180561729073
20
-184.356112558321
30
0
10
-81.011333452252345
20
-184.02100058424057
30
0
10
-78.856678148297277
20
-179.64502414889716
30
0
10
-77.814446868288329
20
-176.31212358025294
30
2.5243548967072378e-28
0
ELLIPSE
5
139
100
AcDbEntity
8
0
100
AcDbEllipse
10
-81.017008415095546
20
-185.3949160987797
30
0
11
1.2139924582044463
21
-0.62206297144785894
31
0.0
40
0.78630395485450832
41
2.5716500601492998
42
2.9692300958822599
0
ELLIPSE
5
140
100
AcDbEntity
8
0
100
AcDbEllipse
10
-80.783535101167388
20
-186.22520846673302
30
0
11
-1.4775585141691541
21
1.6147744089315441
31
0.0
40
0.14431568566466116
41
5.9875854459108142
42
6.6570669465852976
0
ELLIPSE
5
141
100
AcDbEntity
8
0
100
AcDbEllipse
10
-80.984075413888036
20
-185.37631152728045
30
0
11
1.2666774385697495
21
-0.56189371444970804
31
0.0
40
0.77680456552241772
41
3.1267423450679419
42
3.473458965067342
0
SPLINE
5
142
100
AcDbEntity
8
0
100
AcDbSpline
70
4
71
3
72
8
73
4
74
0
42
0.000000001
43
0.0000000001
44
0.0000000001
40
0
40
0
40
0
40
0
40
1
40
1
40
1
40
1
41
1
41
1
41
1
41
1
10
-86.093973794964739
20
-190.30366619296456
30
0
10
-83.573325003969487
20
-187.68881934034408
30
0
10
-82.323847007143314
20
-185.98600338168524
30
0
10
-82.323847007143314
20
-185.16565939771712
30
0
0
SPLINE
5
143
100
AcDbEntity
8
0
100
AcDbSpline
70
4
71
3
72
8
73
4
74
0
42
0.000000001
43
0.0000000001
44
0.0000000001
40
0
40
0
40
0
40
0
40
1
40
1
40
1
40
1
41
1
41
1
41
1
41
1
10
-105.61174724518045
20
-202.74801077075384
30
0
10
-97.962553290712663
20
-200.21004310794254
30
0
10
-91.944895730999932
20
-196.37324080335679
30
0
10
-86.093973794964739
20
-190.30366619296456
30
0
0
SPLINE
5
144
100
AcDbEntity
8
0
100
AcDbSpline
70
4
71
3
72
8
73
4
74
0
42
0.000000001
43
0.0000000001
44
0.0000000001
40
0
40
0
40
0
40
0
40
1
40
1
40
1
40
1
41
1
41
1
41
1
41
1
10
-116.51716686187966
20
-204.58897075203637
30
0
10
-110.56241728403948
20
-204.09060727623682
30
0
10
-108.72166723826312
20
-203.77986962186873
30
0
10
-105.61174724518045
20
-202.74801077075384
30
0
0
LINE
5
145
100
AcDbEntity
8
0
100
AcDbLine
10
-116.51716686187966
20
-204.58897075203637
30
0
11
-116.51693431793434
21
-204.58897075203637
31
0
0
SPLINE
5
146
100
AcDbEntity
8
0
100
AcDbSpline
70
4
71
3
72
8
73
4
74
0
42
0.000000001
43
0.0000000001
44
0.0000000001
40
0
40
0
40
0
40
0
40
1
40
1
40
1
40
1
41
1
41
1
41
1
41
1
10
-120.68542664784971
20
-204.93277970818264
30
0
10
-120.44190146067523
20
-204.91515885221546
30
0
10
-118.56607926625792
20
-204.76046464470608
30
0
10
-116.51693431793434
20
-204.58897075203637
30
0
0
SPLINE
5
147
100
AcDbEntity
8
0
100
AcDbSpline
70
4
71
3
72
8
73
4
74
0
42
0.000000001
43
0.0000000001
44
0.0000000001
40
0
40
0
40
0
40
0
40
1
40
1
40
1
40
1
41
1
41
1
41
1
41
1
10
-158.81559922475401
20
-97.454000945365209
30
5.0487097934144756e-28
10
-159.06156612335425
20
-97.700239145235031
30
-5.0487097934144756e-28
10
-159.46665121653461
20
-117.29632984347718
30
-5.0487097934144756e-28
10
-159.29048625885233
20
-120.42664910820702
30
5.0487097934144756e-28
0
SPLINE
5
148
100
AcDbEntity
8
0
100
AcDbSpline
70
4
71
3
72
8
73
4
74
0
42
0.000000001
43
0.0000000001
44
0.0000000001
40
0
40
0
40
0
40
0
40
1
40
1
40
1
40
1
41
1
41
1
41
1
41
1
10
-134.96944494822404
20
-97.426689950899075
30
0
10
-135.14922725616677
20
-97.247721546764978
30
0
10
-158.63641119578264
20
-97.2746062106647
30
5.0487097934144756e-28
10
-158.81559922475401
20
-97.454000945365209
30
5.0487097934144756e-28
0
SPLINE
5
149
100
AcDbEntity
8
0
100
AcDbSpline
70
4
71
3
72
8
73
4
74
0
42
0.000000001
43
0.0000000001
44
0.0000000001
40
0
40
0
40
0
40
0
40
1
40
1
40
1
40
1
41
1
41
1
41
1
41
1
10
-134.98678885081193
20
-110.65568220960677
30
0
10
-134.90906749664526
20
-103.44762734917381
30
0
10
-134.90126435536925
20
-97.494579863822253
30
0
10
-134.96944494822404
20
-97.426689950899075
30
0
0
LINE
5
150
100
AcDbEntity
8
0
100
AcDbLine
10
-134.98678885081193
20
-110.65568220960677
30
0
11
-135.12808513580546
21
-123.76125822889385
31
0
0
LINE
5
151
100
AcDbEntity
8
0
100
AcDbLine
10
-135.12808513580546
20
-123.76125822889385
30
0
11
-146.53506328521951
21
-123.76125822889385
31
0
0
SPLINE
5
152
100
AcDbEntity
8
0
100
AcDbSpline
70
4
71
3
72
8
73
4
74
0
42
0.000000001
43
0.0000000001
44
0.0000000001
40
0
40
0
40
0
40
0
40
1
40
1
40
1
40
1
41
1
41
1
41
1
41
1
10
-158.535125388491
20
-123.53576811658917
30
-5.0487097934144756e-28
10
-158.20262630401834
20
-123.66218804863669
30
5.0487097934144756e-28
10
-152.93020910838032
20
-123.76125822889385
30
5.0487097934144756e-28
10
-146.53506328521951
20
-123.76125822889385
30
0
0
SPLINE
5
153
100
AcDbEntity
8
0
100
AcDbSpline
70
4
71
3
72
8
73
4
74
0
42
0.000000001
43
0.0000000001
44
0.0000000001
40
0
40
0
40
0
40
0
40
1
40
1
40
1
40
1
41
1
41
1
41
1
41
1
10
-159.29048625885233
20
-120.42664910820702
30
5.0487097934144756e-28
10
-159.13502417185688
20
-123.1890386345742
30
-5.0487097934144756e-28
10
-159.10326900421364
20
-123.31976062960999
30
-5.0487097934144756e-28
10
-158.535125388491
20
-123.53576811658917
30
-5.0487097934144756e-28
0
LWPOLYLINE
5
154
100
AcDbEntity
8
0
100
AcDbPolyline
90
4
70
1
43
0.0
10
-158.67454362746867
20
-6.0000000000000853
10
-158.67454362746867
20
-2.0000000000000639
10
-138.67454362746867
20
-2.0000000000000639
10
-138.67454362746867
20
-6.0000000000000853
0
SPLINE
5
155
100
AcDbEntity
8
0
100
AcDbSpline
70
4
71
3
72
8
73
4
74
0
42
0.000000001
43
0.0000000001
44
0.0000000001
40
0
40
0
40
0
40
0
40
1
40
1
40
1
40
1
41
1
41
1
41
1
41
1
10
-214.7971563333152
20
-188.53486266004623
30
5.0487097934144756e-28
10
-214.59202673533341
20
-191.5069599933185
30
5.0487097934144756e-28
10
-214.50114081004045
20
-191.91570603874902
30
5.0487097934144756e-28
10
-213.52554144480609
20
-194.25311827528054
30
5.0487097934144756e-28
0
SPLINE
5
156
100
AcDbEntity
8
0
100
AcDbSpline
70
4
71
3
72
8
73
4
74
0
42
0.000000001
43
0.0000000001
44
0.0000000001
40
0
40
0
40
0
40
0
40
1
40
1
40
1
40
1
41
1
41
1
41
1
41
1
10
-214.78215724884251
20
-76.453874500866519
30
5.0487097934144756e-28
10
-215.09308142283345
20
-81.846271453177707
30
5.0487097934144756e-28
10
-215.10677567739071
20
-184.04894138522525
30
-5.0487097934144756e-28
10
-214.7971563333152
20
-188.53486266004623
30
5.0487097934144756e-28
0
SPLINE
5
157
100
AcDbEntity
8
0
100
AcDbSpline
70
4
71
3
72
8
73
4
74
0
42
0.000000001
43
0.0000000001
44
0.0000000001
40
0
40
0
40
0
40
0
40
1
40
1
40
1
40
1
41
1
41
1
41
1
41
1
10
-211.32061143178521
20
-60.866169626192033
30
-5.0487097934144756e-28
10
-213.45188960968238
20
-64.727083831107393
30
-5.0487097934144756e-28
10
-214.33537573435686
20
-68.705510243054022
30
-5.0487097934144756e-28
10
-214.78215724884251
20
-76.453874500866519
30
5.0487097934144756e-28
0
SPLINE
5
158
100
AcDbEntity
8
0
100
AcDbSpline
70
4
71
3
72
8
73
4
74
0
42
0.000000001
43
0.0000000001
44
0.0000000001
40
0
40
0
40
0
40
0
40
1
40
1
40
1
40
1
41
1
41
1
41
1
41
1
10
-195.85735632517719
20
-45.484627878145147
30
5.0487097934144756e-28
10
-198.52019120473443
20
-45.484627878145147
30
5.0487097934144756e-28
10
-208.07791530548315
20
-54.991851185436786
30
5.0487097934144756e-28
10
-211.32061143178521
20
-60.866169626192033
30
-5.0487097934144756e-28
0
SPLINE
5
159
100
AcDbEntity
8
0
100
AcDbSpline
70
4
71
3
72
8
73
4
74
0
42
0.000000001
43
0.0000000001
44
0.0000000001
40
0
40
0
40
0
40
0
40
1
40
1
40
1
40
1
41
1
41
1
41
1
41
1
10
-194.93320084828918
20
-45.013855579968052
30
5.0487097934144756e-28
10
-195.21008317250789
20
-45.272780343965451
30
5.0487097934144756e-28
10
-195.62594926137507
20
-45.484627878145147
30
-5.0487097934144756e-28
10
-195.85735632517719
20
-45.484627878145147
30
5.0487097934144756e-28
0
SPLINE
5
160
100
AcDbEntity
8
0
100
AcDbSpline
70
4
71
3
72
8
73
4
74
0
42
0.000000001
43
0.0000000001
44
0.0000000001
40
0
40
0
40
0
40
0
40
1
40
1
40
1
40
1
41
1
41
1
41
1
41
1
10
-191.9912486388165
20
-43.646264637585261
30
-5.0487097934144756e-28
10
-193.33244584340633
20
-44.139516183809206
30
-5.0487097934144756e-28
10
-194.65630560496231
20
-44.754930815970688
30
-5.0487097934144756e-28
10
-194.93320084828918
20
-45.013855579968052
30
5.0487097934144756e-28
0
SPLINE
5
161
100
AcDbEntity
8
0
100
AcDbSpline
70
4
71
3
72
8
73
4
74
0
42
0.000000001
43
0.0000000001
44
0.0000000001
40
0
40
0
40
0
40
0
40
1
40
1
40
1
40
1
41
1
41
1
41
1
41
1
10
-144.07426387726051
20
-41.164775278047507
30
5.0487097934144756e-28
10
-187.15089809356911
20
-41.293333322481089
30
-5.0487097934144756e-28
10
-185.33816636342584
20
-41.199463083223264
30
5.0487097934144756e-28
10
-191.9912486388165
20
-43.646264637585261
30
-5.0487097934144756e-28
0
SPLINE
5
162
100
AcDbEntity
8
0
100
AcDbSpline
70
4
71
3
72
8
73
4
74
0
42
0.000000001
43
0.0000000001
44
0.0000000001
40
0
40
0
40
0
40
0
40
1
40
1
40
1
40
1
41
1
41
1
41
1
41
1
10
-102.74128292022924
20
-41.30701465793031
30
0
10
-105.71394384959122
20
-41.145474130586557
30
0
10
-120.52761974273901
20
-41.09449533013084
30
0
10
-144.07426387726051
20
-41.164775278047507
30
5.0487097934144756e-28
0
SPLINE
5
163
100
AcDbEntity
8
0
100
AcDbSpline
70
4
71
3
72
8
73
4
74
0
42
0.000000001
43
0.0000000001
44
0.0000000001
40
0
40
0
40
0
40
0
40
1
40
1
40
1
40
1
41
1
41
1
41
1
41
1
10
-96.279193508811588
20
-42.355464873587891
30
0
10
-96.279193508811588
20
-41.885829456921186
30
0
10
-98.388964601544359
20
-41.543524769421225
30
0
10
-102.74128292022924
20
-41.30701465793031
30
0
0
SPLINE
5
164
100
AcDbEntity
8
0
100
AcDbSpline
70
4
71
3
72
8
73
4
74
0
42
0.000000001
43
0.0000000001
44
0.0000000001
40
0.32343336581926713
40
0.32343336581926713
40
0.32343336581926713
40
0.32343336581926713
40
1
40
1
40
1
40
1
41
1
41
1
41
1
41
1
10
-95.979939097615357
20
-42.532154007710545
30
0
10
-96.15822294459916
20
-42.497212786205338
30
0
10
-96.279193508811588
20
-42.430983981289891
30
0
10
-96.279193508811588
20
-42.355464873587891
30
0
0
SPLINE
5
165
100
AcDbEntity
8
0
100
AcDbSpline
70
4
71
3
72
8
73
4
74
0
42
0.000000001
43
0.0000000001
44
0.0000000001
40
0.24173715396265483
40
0.24173715396265483
40
0.24173715396265483
40
0.24173715396265483
40
0.4910234192651069
40
0.4910234192651069
40
0.4910234192651069
40
0.4910234192651069
41
1
41
1
41
1
41
1
10
-95.82761802360406
20
-42.55290630834228
30
0
10
-95.884884721175723
20
-42.561362856148399
30
0
10
-95.936478174041312
20
-42.55417216876161
30
0
10
-95.979939097615357
20
-42.532154007710545
30
0
0
SPLINE
5
166
100
AcDbEntity
8
0
100
AcDbSpline
70
4
71
3
72
8
73
4
74
0
42
0.000000001
43
0.0000000001
44
0.0000000001
40
0
40
0
40
0
40
0
40
0.14447946734887326
40
0.14447946734887326
40
0.14447946734887326
40
0.14447946734887326
41
1
41
1
41
1
41
1
10
-95.691913464255947
20
-42.55841114230531
30
0
10
-95.73858084367258
20
-42.55841114230531
30
0
10
-95.784022336363478
20
-42.556504791699972
30
0
10
-95.827618023603492
20
-42.552906308342315
30
0
0
SPLINE
5
167
100
AcDbEntity
8
0
100
AcDbSpline
70
4
71
3
72
8
73
4
74
0
42
0.000000001
43
0.0000000001
44
0.0000000001
40
0
40
0
40
0
40
0
40
1
40
1
40
1
40
1
41
1
41
1
41
1
41
1
10
-89.269992789614022
20
-49.089265736218053
30
0
10
-90.412913983054807
20
-46.607285450573528
30
0
10
-94.394256883648865
20
-42.55841114230531
30
0
10
-95.691913464255947
20
-42.55841114230531
30
0
0
SPLINE
5
168
100
AcDbEntity
8
0
100
AcDbSpline
70
4
71
3
72
8
73
4
74
0
42
0.000000001
43
0.0000000001
44
0.0000000001
40
0
40
0
40
0
40
0
40
1
40
1
40
1
40
1
41
1
41
1
41
1
41
1
10
-88.287643190411544
20
-52.352942494030579
30
0
10
-88.501717655845283
20
-51.26634215223369
30
0
10
-88.943772391664794
20
-49.797685027396454
30
0
10
-89.269992789614022
20
-49.089265736218053
30
0
0
SPLINE
5
169
100
AcDbEntity
8
0
100
AcDbSpline
70
4
71
3
72
8
73
4
74
0
42
0.000000001
43
0.0000000001
44
0.0000000001
40
0
40
0
40
0
40
0
40
1
40
1
40
1
40
1
41
1
41
1
41
1
41
1
10
-89.443010329592042
20
-60.267136423067029
30
0
10
-88.10029674469213
20
-57.543129566784472
30
0
10
-87.744830715842852
20
-55.108187753633437
30
0
10
-88.287643190411544
20
-52.352942494030579
30
0
0
SPLINE
5
170
100
AcDbEntity
8
0
100
AcDbSpline
70
4
71
3
72
8
73
4
74
0
42
0.000000001
43
0.0000000001
44
0.0000000001
40
0
40
0
40
0
40
0
40
1
40
1
40
1
40
1
41
1
41
1
41
1
41
1
10
-96.188704846091881
20
-66.511483957246753
30
0
10
-92.65503003377502
20
-64.716283456758461
30
0
10
-90.780980986940705
20
-62.981518543835264
30
0
10
-89.443010329592042
20
-60.267136423067029
30
0
0
LINE
5
171
100
AcDbEntity
8
0
100
AcDbLine
10
-96.188704846091881
20
-66.511483957246753
30
0
11
-98.839637997336993
21
-67.85822345919982
31
0
0
LINE
5
172
100
AcDbEntity
8
0
100
AcDbLine
10
-98.839637997336993
20
-67.85822345919982
30
0
11
-135.90520178416153
21
-68.003653858776687
31
0
0
SPLINE
5
173
100
AcDbEntity
8
0
100
AcDbSpline
70
4
71
3
72
8
73
4
74
0
42
0.000000001
43
0.0000000001
44
0.0000000001
40
0
40
0
40
0
40
0
40
1
40
1
40
1
40
1
41
1
41
1
41
1
41
1
10
-174.0680920022605
20
-68.41264698214907
30
-5.0487097934144756e-28
10
-173.3210833352683
20
-68.23323932834046
30
-5.0487097934144756e-28
10
-161.13757635691545
20
-68.102665903047495
30
5.0487097934144756e-28
10
-135.90520178416153
20
-68.003653858776659
30
0
0
SPLINE
5
174
100
AcDbEntity
8
0
100
AcDbSpline
70
4
71
3
72
8
73
4
74
0
42
0.000000001
43
0.0000000001
44
0.0000000001
40
0
40
0
40
0
40
0
40
1
40
1
40
1
40
1
41
1
41
1
41
1
41
1
10
-181.28788387237768
20
-71.966809884981089
30
-5.0487097934144756e-28
10
-179.82696529327612
20
-70.851012358939442
30
-5.0487097934144756e-28
10
-175.6412776305157
20
-68.790479216849576
30
-5.0487097934144756e-28
10
-174.0680920022605
20
-68.41264698214907
30
-5.0487097934144756e-28
0
SPLINE
5
175
100
AcDbEntity
8
0
100
AcDbSpline
70
4
71
3
72
8
73
4
74
0
42
0.000000001
43
0.0000000001
44
0.0000000001
40
0
40
0
40
0
40
0
40
1
40
1
40
1
40
1
41
1
41
1
41
1
41
1
10
-187.97203660268366
20
-82.915960682507119
30
-5.0487097934144756e-28
10
-187.37805477081514
20
-79.045873910859996
30
-5.0487097934144756e-28
10
-184.6015059020001
20
-74.497650237357391
30
-5.0487097934144756e-28
10
-181.28788387237768
20
-71.966809884981089
30
-5.0487097934144756e-28
0
SPLINE
5
176
100
AcDbEntity
8
0
100
AcDbSpline
70
4
71
3
72
8
73
4
74
0
42
0.000000001
43
0.0000000001
44
0.0000000001
40
0
40
0
40
0
40
0
40
1
40
1
40
1
40
1
41
1
41
1
41
1
41
1
10
-188.13750453888159
20
-95.269870696341769
30
-5.0487097934144756e-28
10
-188.42698299347143
20
-93.566951384818324
30
-5.0487097934144756e-28
10
-188.3141862608868
20
-85.145269052461543
30
5.0487097934144756e-28
10
-187.97203660268366
20
-82.915960682507119
30
-5.0487097934144756e-28
0
SPLINE
5
177
100
AcDbEntity
8
0
100
AcDbSpline
70
4
71
3
72
8
73
4
74
0
42
0.000000001
43
0.0000000001
44
0.0000000001
40
0
40
0
40
0
40
0
40
1
40
1
40
1
40
1
41
1
41
1
41
1
41
1
10
-187.52923417348444
20
-96.584157398815734
30
-5.0487097934144756e-28
10
-187.78609188019018
20
-96.474254546439397
30
-5.0487097934144756e-28
10
-188.01792527455865
20
-95.973354888236287
30
5.0487097934144756e-28
10
-188.13750453888159
20
-95.269870696341769
30
-5.0487097934144756e-28
0
SPLINE
5
178
100
AcDbEntity
8
0
100
AcDbSpline
70
4
71
3
72
8
73
4
74
0
42
0.000000001
43
0.0000000001
44
0.0000000001
40
0.53709285030012111
40
0.53709285030012111
40
0.53709285030012111
40
0.53709285030012111
40
1
40
1
40
1
40
1
41
1
41
1
41
1
41
1
10
-185.54622056794619
20
-96.760732654608177
30
-5.0487097934144756e-28
10
-186.68015045084954
20
-96.692942689386499
30
5.0487097934144756e-28
10
-187.42356143325313
20
-96.629368825875659
30
5.0487097934144756e-28
10
-187.52923417348444
20
-96.584157398815734
30
-5.0487097934144756e-28
0
SPLINE
5
179
100
AcDbEntity
8
0
100
AcDbSpline
70
4
71
3
72
8
73
4
74
0
42
0.000000001
43
0.0000000001
44
0.0000000001
40
0.26469174079493457
40
0.26469174079493457
40
0.26469174079493457
40
0.26469174079493457
40
0.53544672604498178
40
0.53544672604498178
40
0.53544672604498178
40
0.53544672604498178
41
1
41
1
41
1
41
1
10
-182.98135357308115
20
-96.891157856015269
30
5.0487097934144756e-28
10
-183.9802242378812
20
-96.86182279765103
30
5.0487097934144756e-28
10
-184.84218203986583
20
-96.817997623663672
30
-5.0487097934144756e-28
10
-185.54622056794614
20
-96.760732654607651
30
5.0487097934144756e-28
0
SPLINE
5
180
100
AcDbEntity
8
0
100
AcDbSpline
70
4
71
3
72
8
73
4
74
0
42
0.000000001
43
0.0000000001
44
0.0000000001
40
0
40
0
40
0
40
0
40
0.24358757540003098
40
0.24358757540003098
40
0.24358757540003098
40
0.24358757540003098
41
1
41
1
41
1
41
1
10
-180.40824764190893
20
-96.991626067435533
30
5.0487097934144756e-28
10
-181.30666589003937
20
-96.960827022304485
30
5.0487097934144756e-28
10
-182.1763751549679
20
-96.9266505399208
30
-5.0487097934144756e-28
10
-182.98135357308084
20
-96.891157856016221
30
5.0487097934144756e-28
0
SPLINE
5
181
100
AcDbEntity
8
0
100
AcDbSpline
70
4
71
3
72
8
73
4
74
0
42
0.000000001
43
0.0000000001
44
0.0000000001
40
0
40
0
40
0
40
0
40
1
40
1
40
1
40
1
41
1
41
1
41
1
41
1
10
-172.82093944488741
20
-97.445771473522768
30
5.0487097934144756e-28
10
-173.30569021799943
20
-97.322432748750629
30
-5.0487097934144756e-28
10
-176.71997147817194
20
-97.118078297253234
30
-5.0487097934144756e-28
10
-180.40824764190893
20
-96.991626067435533
30
5.0487097934144756e-28
0
SPLINE
5
182
100
AcDbEntity
8
0
100
AcDbSpline
70
4
71
3
72
8
73
4
74
0
42
0.000000001
43
0.0000000001
44
0.0000000001
40
0
40
0
40
0
40
0
40
1
40
1
40
1
40
1
41
1
41
1
41
1
41
1
10
-171.78456859527807
20
-98.800908395723297
30
-5.0487097934144756e-28
10
-171.92859081207496
20
-97.750119821504526
30
-5.0487097934144756e-28
10
-172.00198426503718
20
-97.654143767630828
30
-5.0487097934144756e-28
10
-172.82093944488741
20
-97.445771473522768
30
5.0487097934144756e-28
0
SPLINE
5
183
100
AcDbEntity
8
0
100
AcDbSpline
70
4
71
3
72
8
73
4
74
0
42
0.000000001
43
0.0000000001
44
0.0000000001
40
0
40
0
40
0
40
0
40
1
40
1
40
1
40
1
41
1
41
1
41
1
41
1
10
-171.85305924672664
20
-122.49068332858459
30
-5.0487097934144756e-28
10
-171.61649099924944
20
-121.267172738985
30
-5.0487097934144756e-28
10
-171.55634609161595
20
-100.46594888237692
30
-5.0487097934144756e-28
10
-171.78456859527807
20
-98.800908395723297
30
-5.0487097934144756e-28
0
SPLINE
5
184
100
AcDbEntity
8
0
100
AcDbSpline
70
4
71
3
72
8
73
4
74
0
42
0.000000001
43
0.0000000001
44
0.0000000001
40
0
40
0
40
0
40
0
40
1
40
1
40
1
40
1
41
1
41
1
41
1
41
1
10
-172.22816554962378
20
-123.70994999118226
30
5.0487097934144756e-28
10
-172.1330938333152
20
-123.61467156914451
30
5.0487097934144756e-28
10
-171.96429922678848
20
-123.0660099683958
30
5.0487097934144756e-28
10
-171.85305924672664
20
-122.49068332858459
30
-5.0487097934144756e-28
0
SPLINE
5
185
100
AcDbEntity
8
0
100
AcDbSpline
70
4
71
3
72
8
73
4
74
0
42
0.000000001
43
0.0000000001
44
0.0000000001
40
0
40
0
40
0
40
0
40
1
40
1
40
1
40
1
41
1
41
1
41
1
41
1
10
-177.1971516539532
20
-124.03665485568423
30
5.0487097934144756e-28
10
-174.5592764911928
20
-123.95223494398175
30
-5.0487097934144756e-28
10
-172.32323080637832
20
-123.80521549411196
30
5.0487097934144756e-28
10
-172.22816554962378
20
-123.70994999118226
30
5.0487097934144756e-28
0
SPLINE
5
186
100
AcDbEntity
8
0
100
AcDbSpline
70
4
71
3
72
8
73
4
74
0
42
0.000000001
43
0.0000000001
44
0.0000000001
40
0
40
0
40
0
40
0
40
1
40
1
40
1
40
1
41
1
41
1
41
1
41
1
10
-183.98867509145322
20
-125.13621306287824
30
5.0487097934144756e-28
10
-183.46623928009254
20
-124.33889738905012
30
5.0487097934144756e-28
10
-182.6839614480613
20
-124.21223845350325
30
5.0487097934144756e-28
10
-177.1971516539532
20
-124.03665485568423
30
5.0487097934144756e-28
0
SPLINE
5
187
100
AcDbEntity
8
0
100
AcDbSpline
70
4
71
3
72
8
73
4
74
0
42
0.000000001
43
0.0000000001
44
0.0000000001
40
0
40
0
40
0
40
0
40
1
40
1
40
1
40
1
41
1
41
1
41
1
41
1
10
-184.69522111196108
20
-125.71205646701233
30
5.0487097934144756e-28
10
-184.51413397410295
20
-125.71205646701233
30
-5.0487097934144756e-28
10
-184.19619472442847
20
-125.45293145683982
30
-5.0487097934144756e-28
10
-183.98867509145322
20
-125.13621306287824
30
5.0487097934144756e-28
0
SPLINE
5
188
100
AcDbEntity
8
0
100
AcDbSpline
70
4
71
3
72
8
73
4
74
0
42
0.000000001
43
0.0000000001
44
0.0000000001
40
0
40
0
40
0
40
0
40
1
40
1
40
1
40
1
41
1
41
1
41
1
41
1
10
-187.43177242218238
20
-128.46414946424542
30
-5.0487097934144756e-28
10
-186.58237982371233
20
-127.05358956841209
30
-5.0487097934144756e-28
10
-185.24843023875144
20
-125.71205646701233
30
-5.0487097934144756e-28
10
-184.69522111196108
20
-125.71205646701233
30
5.0487097934144756e-28
0
SPLINE
5
189
100
AcDbEntity
8
0
100
AcDbSpline
70
4
71
3
72
8
73
4
74
0
42
0.000000001
43
0.0000000001
44
0.0000000001
40
0.16949181006885636
40
0.16949181006885636
40
0.16949181006885636
40
0.16949181006885636
40
1
40
1
40
1
40
1
41
1
41
1
41
1
41
1
10
-188.78687712697649
20
-142.5596601942681
30
-5.0487097934144756e-28
10
-188.73120918124994
20
-131.69653960581977
30
5.0487097934144756e-28
10
-188.47912524952778
20
-130.20344827849777
30
-5.0487097934144756e-28
10
-187.43177242218238
20
-128.46414946424542
30
-5.0487097934144756e-28
0
SPLINE
5
190
100
AcDbEntity
8
0
100
AcDbSpline
70
4
71
3
72
8
73
4
74
0
42
0.000000001
43
0.0000000001
44
0.0000000001
40
0.37055770049887643
40
0.37055770049887643
40
0.37055770049887643
40
0.37055770049887643
40
0.64606411767638272
40
0.64606411767638272
40
0.64606411767638272
40
0.64606411767638272
41
1
41
1
41
1
41
1
10
-188.7808347764711
20
-158.46908627837919
30
-5.0487097934144756e-28
10
-188.86689487408563
20
-153.36511827101856
30
5.0487097934144756e-28
10
-188.86964671910775
20
-147.58540383415152
30
-5.0487097934144756e-28
10
-188.78687712697638
20
-142.5596601942681
30
5.0487097934144756e-28
0
SPLINE
5
191
100
AcDbEntity
8
0
100
AcDbSpline
70
4
71
3
72
8
73
4
74
0
42
0.000000001
43
0.0000000001
44
0.0000000001
40
0
40
0
40
0
40
0
40
0.81661617267153386
40
0.81661617267153386
40
0.81661617267153386
40
0.81661617267153386
41
1
41
1
41
1
41
1
10
-187.75402665395322
20
-172.70881962008855
30
-5.0487097934144756e-28
10
-188.46693970014374
20
-171.32272992413331
30
-5.0487097934144756e-28
10
-188.71431845403782
20
-168.59140585039705
30
5.0487097934144756e-28
10
-188.78083477647129
20
-158.46908627837919
30
5.0487097934144756e-28
0
SPLINE
5
192
100
AcDbEntity
8
0
100
AcDbSpline
70
4
71
3
72
8
73
4
74
0
42
0.000000001
43
0.0000000001
44
0.0000000001
40
0
40
0
40
0
40
0
40
1
40
1
40
1
40
1
41
1
41
1
41
1
41
1
10
-182.30150417267069
20
-177.31614175347067
30
-5.0487097934144756e-28
10
-184.85784684438289
20
-176.6136523328978
30
5.0487097934144756e-28
10
-186.42804815867325
20
-175.28684378492414
30
-5.0487097934144756e-28
10
-187.75402665395322
20
-172.70881962008855
30
-5.0487097934144756e-28
0
SPLINE
5
193
100
AcDbEntity
8
0
100
AcDbSpline
70
4
71
3
72
8
73
4
74
0
42
0.000000001
43
0.0000000001
44
0.0000000001
40
0
40
0
40
0
40
0
40
1
40
1
40
1
40
1
41
1
41
1
41
1
41
1
10
-176.58459214467587
20
-177.84692976820051
30
5.0487097934144756e-28
10
-179.12349402048966
20
-177.74496570773499
30
-5.0487097934144756e-28
10
-181.56636816599752
20
-177.51815784640689
30
-5.0487097934144756e-28
10
-182.30150417267069
20
-177.31614175347067
30
-5.0487097934144756e-28
0
SPLINE
5
194
100
AcDbEntity
8
0
100
AcDbSpline
70
4
71
3
72
8
73
4
74
0
42
0.000000001
43
0.0000000001
44
0.0000000001
40
0
40
0
40
0
40
0
40
1
40
1
40
1
40
1
41
1
41
1
41
1
41
1
10
-171.95139949737768
20
-178.22482659844141
30
-5.0487097934144756e-28
10
-172.06135402618628
20
-178.114904367403
30
-5.0487097934144756e-28
10
-174.14629136342586
20
-177.94485014783916
30
5.0487097934144756e-28
10
-176.58459214467587
20
-177.84692976820051
30
5.0487097934144756e-28
0
SPLINE
5
195
100
AcDbEntity
8
0
100
AcDbSpline
70
4
71
3
72
8
73
4
74
0
42
0.000000001
43
0.0000000001
44
0.0000000001
40
0
40
0
40
0
40
0
40
1
40
1
40
1
40
1
41
1
41
1
41
1
41
1
10
-171.92671108185036
20
-204.29348087497135
30
-5.0487097934144756e-28
10
-171.68204255361138
20
-203.6976685669778
30
-5.0487097934144756e-28
10
-171.70593644399224
20
-178.47020890740137
30
-5.0487097934144756e-28
10
-171.95139949737768
20
-178.22482659844141
30
-5.0487097934144756e-28
0
SPLINE
5
196
100
AcDbEntity
8
0
100
AcDbSpline
70
4
71
3
72
8
73
4
74
0
42
0.000000001
43
0.0000000001
44
0.0000000001
40
0
40
0
40
0
40
0
40
1
40
1
40
1
40
1
41
1
41
1
41
1
41
1
10
-184.85090928334779
20
-204.71589452929874
30
5.0487097934144756e-28
10
-172.93602931915501
20
-204.71994305479112
30
-5.0487097934144756e-28
10
-172.09050599355282
20
-204.69232038684268
30
5.0487097934144756e-28
10
-171.92671108185036
20
-204.29348087497135
30
-5.0487097934144756e-28
0
SPLINE
5
197
100
AcDbEntity
8
0
100
AcDbSpline
70
4
71
3
72
8
73
4
74
0
42
0.000000001
43
0.0000000001
44
0.0000000001
40
0
40
0
40
0
40
0
40
1
40
1
40
1
40
1
41
1
41
1
41
1
41
1
10
-199.6725885639467
20
-204.4883462415892
30
5.0487097934144756e-28
10
-198.53258062937641
20
-204.61111571816187
30
-5.0487097934144756e-28
10
-191.86281978546361
20
-204.71350933897077
30
5.0487097934144756e-28
10
-184.85090928334779
20
-204.71589452929874
30
5.0487097934144756e-28
0
SPLINE
5
198
100
AcDbEntity
8
0
100
AcDbSpline
70
4
71
3
72
8
73
4
74
0
42
0.000000001
43
0.0000000001
44
0.0000000001
40
0
40
0
40
0
40
0
40
1
40
1
40
1
40
1
41
1
41
1
41
1
41
1
10
-210.28017106313288
20
-198.98251467573226
30
5.0487097934144756e-28
10
-206.56494563995582
20
-202.72715367821434
30
-5.0487097934144756e-28
10
-204.08790045359518
20
-204.01284958707868
30
-5.0487097934144756e-28
10
-199.6725885639467
20
-204.4883462415892
30
5.0487097934144756e-28
0
SPLINE
5
199
100
AcDbEntity
8
0
100
AcDbSpline
70
4
71
3
72
8
73
4
74
0
42
0.000000001
43
0.0000000001
44
0.0000000001
40
0
40
0
40
0
40
0
40
1
40
1
40
1
40
1
41
1
41
1
41
1
41
1
10
-213.52554144480609
20
-194.25311827528054
30
5.0487097934144756e-28
10
-212.55021338084129
20
-196.58989101596256
30
5.0487097934144756e-28
10
-212.31741105336732
20
-196.92914356418029
30
-5.0487097934144756e-28
10
-210.28017106313288
20
-198.98251467573226
30
5.0487097934144756e-28
0
LINE
5
200
100
AcDbEntity
8
0
100
AcDbLine
10
-159.23040594675922
20
-204.40649884728174
30
5.0487097934144756e-28
11
-159.1507790241518
21
-191.53739418216134
31
5.0487097934144756e-28
0
SPLINE
5
201
100
AcDbEntity
8
0
100
AcDbSpline
70
4
71
3
72
8
73
4
74
0
42
0.000000001
43
0.0000000001
44
0.0000000001
40
0
40
0
40
0
40
0
40
1
40
1
40
1
40
1
41
1
41
1
41
1
41
1
10
-158.8856853860496
20
-178.4830085137246
30
5.0487097934144756e-28
10
-158.9876882038393
20
-178.58491443820378
30
5.0487097934144756e-28
10
-159.10698324778463
20
-184.45938790825585
30
5.0487097934144756e-28
10
-159.1507790241518
20
-191.53739418216134
30
5.0487097934144756e-28
0
SPLINE
5
202
100
AcDbEntity
8
0
100
AcDbSpline
70
4
71
3
72
8
73
4
74
0
42
0.000000001
43
0.0000000001
44
0.0000000001
40
0
40
0
40
0
40
0
40
1
40
1
40
1
40
1
41
1
41
1
41
1
41
1
10
-144.70380555409972
20
-177.90151945936262
30
-5.0487097934144756e-28
10
-153.6066471475242
20
-177.92183798658428
30
-5.0487097934144756e-28
10
-158.52586884755675
20
-178.12355048048079
30
-5.0487097934144756e-28
10
-158.8856853860496
20
-178.4830085137246
30
5.0487097934144756e-28
0
SPLINE
5
203
100
AcDbEntity
8
0
100
AcDbSpline
70
4
71
3
72
8
73
4
74
0
42
0.000000001
43
0.0000000001
44
0.0000000001
40
0
40
0
40
0
40
0
40
1
40
1
40
1
40
1
41
1
41
1
41
1
41
1
10
-135.43740734039528
20
-178.14456986931546
30
0
10
-135.61768703399881
20
-177.96441936679264
30
0
10
-138.55148728627745
20
-177.88746992933335
30
0
10
-144.70380555409972
20
-177.90151945936262
30
-5.0487097934144756e-28
0
SPLINE
5
204
100
AcDbEntity
8
0
100
AcDbSpline
70
4
71
3
72
8
73
4
74
0
42
0.000000001
43
0.0000000001
44
0.0000000001
40
0
40
0
40
0
40
0
40
1
40
1
40
1
40
1
41
1
41
1
41
1
41
1
10
-135.10269262888812
20
-191.56419971652412
30
0
10
-135.15131369212054
20
-182.54508938022042
30
0
10
-135.25656566559059
20
-178.3252823530394
30
0
10
-135.43740734039528
20
-178.14456986931546
30
0
0
LINE
5
205
100
AcDbEntity
8
0
100
AcDbLine
10
-135.10269262888812
20
-191.56419971652412
30
0
11
-135.03177964467588
21
-204.72031609403672
31
0
0
LINE
5
206
100
AcDbEntity
8
0
100
AcDbLine
10
-135.03177964467588
20
-204.72031609403672
30
0
11
-146.19798437693498
21
-204.71753767835679
31
0
0
SPLINE
5
207
100
AcDbEntity
8
0
100
AcDbSpline
70
4
71
3
72
8
73
4
74
0
42
0.000000001
43
0.0000000001
44
0.0000000001
40
0
40
0
40
0
40
0
40
1
40
1
40
1
40
1
41
1
41
1
41
1
41
1
10
-158.2972975279767
20
-204.5606770979125
30
-5.0487097934144756e-28
10
-157.78408595978004
20
-204.64547327863755
30
5.0487097934144756e-28
10
-152.3393924579897
20
-204.71606167025948
30
-5.0487097934144756e-28
10
-146.19798437693501
20
-204.71753767835679
30
0
0
LINE
5
208
100
AcDbEntity
8
0
100
AcDbLine
10
-158.2972975279767
20
-204.5606770979125
30
-5.0487097934144756e-28
11
-159.23040594675922
21
-204.40649884728174
31
5.0487097934144756e-28
0
CIRCLE
5
209
100
AcDbEntity
8
0
100
AcDbCircle
10
-3.3612079453262389
20
-107.02121988991067
30
0
40
2.2499999999999964
210
-5.0580035113340542e-51
220
1.9725345279503663e-34
230
1
0
CIRCLE
5
210
100
AcDbEntity
8
0
100
AcDbCircle
10
81.553239302673006
20
-106.98182539290113
30
0
40
2.2499999999999964
210
-5.0580035113340542e-51
220
1.9725345279503663e-34
230
1
0
CIRCLE
5
211
100
AcDbEntity
8
0
100
AcDbCircle
10
-3.5863261215663456
20
-227.04657081809728
30
0
40
2.2499999999999964
210
-5.0580035113340542e-51
220
1.9725345279503663e-34
230
1
0
CIRCLE
5
212
100
AcDbEntity
8
0
100
AcDbCircle
10
81.659098077181341
20
-227.0236067173617
30
0
40
2.2500000000000053
210
-5.0580035112442238e-51
220
1.9725345279153338e-34
230
1
0
LWPOLYLINE
5
213
100
AcDbEntity
8
0
100
AcDbPolyline
90
48
70
1
43
0.0
10
-354.92941040393015
20
-92.119161872670048
10
-354.92941040393015
20
-121.91916187267005
10
-352.42941040393021
20
-121.91916187267005
10
-352.42941040393021
20
-153.21916187267007
10
-354.92941040393015
20
-153.21916187267007
10
-354.92941040393015
20
-183.01916187267008
10
-352.42941040393021
20
-183.01916187267008
10
-352.42941040393021
20
-214.31916187267007
10
-354.92941040393015
20
-214.31916187267007
10
-354.92941040393015
20
-237.63216187267005
10
-355.42941040393021
20
-237.63216187267005
10
-355.42941040393026
20
-237.73223304703379
10
-286.32941040393018
20
-237.73223304703382
10
-286.32941040393018
20
-237.00000000000014
10
-280.67454362746867
20
-237.00000000000011
10
-280.67454362746861
20
-242.65486677646223
10
-281.40677667450217
20
-242.65486677646223
10
-281.40677667450228
20
-311.75486677646228
10
-177.67454362746867
20
-311.75486677646228
10
-177.67454362746867
20
-314.25486677646228
10
-117.67454362746864
20
-314.25486677646228
10
-117.67454362746864
20
-311.75486677646222
10
-13.942310580434913
20
-311.75486677646228
10
-13.942310580435111
20
-242.65486677646223
10
-14.674543627468587
20
-242.65486677646223
10
-14.674543627468639
20
-237.00000000000011
10
-9.0196768510063468
20
-237.00000000000011
10
-9.0196768510063468
20
-237.73223304703365
10
81.480323148993747
20
-237.73223304703376
42
0.41421356237308982
10
86.480323148993762
20
-232.73223304703379
10
86.480323148993747
20
-97.098251707358827
42
0.41421356237309298
10
81.480323148993733
20
-92.098251707358827
10
57.080323148993713
20
-92.098251707358827
10
57.080323148993713
20
-60.949125853679433
10
59.580323148993713
20
-60.949125853679433
10
59.580323148993756
20
-31.149125853679465
10
57.080323148993756
20
-31.149125853679465
10
57.080323148993756
20
-7.1054273576010019e-14
10
49.301094381115291
20
1.5543122344752192e-14
42
-0.26763485891722039
10
37.000857788718712
20
-21.333525374931874
42
-1.3040171156957232
10
12.300236592396558
20
-21.333525374931916
42
-0.26763485891721989
10
0
20
0
10
-352.42941040393021
20
-7.1054273576010019e-14
10
-352.42941040393021
20
-31.109580936335064
10
-354.92941040393021
20
-31.109580936335064
10
-354.92941040393021
20
-60.909580936335033
10
-352.42941040393021
20
-60.909580936335033
10
-352.42941040393021
20
-92.119161872670048
0
LINE
5
214
100
AcDbEntity
8
0
100
AcDbLine
10
-280.67454362746867
20
-237.00000000000011
30
-5.0487097934144756e-28
11
-14.674543627468637
21
-237.00000000000011
31
-5.0487097934144756e-28
0
LINE
5
215
100
AcDbEntity
8
0
100
AcDbLine
10
-14.674543627468587
20
-242.65486677646223
30
0
11
-280.67454362746861
21
-242.65486677646223
31
0
0
LINE
5
216
100
AcDbEntity
8
0
100
AcDbLine
10
-14.674543627468635
20
-239.82743338823116
30
3.1554436208840472e-29
11
-280.67454362746867
21
-239.82743338823113
31
3.1554436208840472e-29
0
LINE
5
217
100
AcDbEntity
8
0
100
AcDbLine
10
-14.674543627468637
20
-237.00000000000011
30
-5.0487097934144756e-28
11
-14.674543627468639
21
-7.1054273576010019e-14
31
3.2052688243130486e-56
0
LINE
5
218
100
AcDbEntity
8
0
100
AcDbLine
10
-11.847110239237553
20
0
30
0
11
-11.847110239237534
21
-237.00000000000011
31
-1.8867743941112731e-30
0
LINE
5
219
100
AcDbEntity
8
0
100
AcDbLine
10
-9.019676851006297
20
0
30
0
11
-9.0196768510063468
21
-237.00000000000011
31
7.7263145912452678e-31
0
LINE
5
220
100
AcDbEntity
8
0
100
AcDbLine
10
-286.32941040393018
20
-237.00000000000014
30
-5.0487097934144756e-28
11
-286.32941040393018
21
0
31
-5.048709793414115e-28
0
LINE
5
221
100
AcDbEntity
8
0
100
AcDbLine
10
-283.50197701569948
20
-237.00000000000011
30
5.0487097934144756e-28
11
-283.50197701569948
21
0
31
5.0487097934144756e-28
0
LINE
5
222
100
AcDbEntity
8
0
100
AcDbLine
10
-280.67454362746867
20
-7.1054273576010019e-14
30
-5.0487097934144756e-28
11
-280.67454362746867
21
-237.00000000000011
31
-5.0487097934144756e-28
0
ENDSEC
0
SECTION
2
OBJECTS
0
DICTIONARY
5
C
100
AcDbDictionary
3
ACAD_GROUP
350
D
3
ACAD_MLINESTYLE
350
17
0
DICTIONARY
5
D
100
AcDbDictionary
0
DICTIONARY
5
1A
330
C
100
AcDbDictionary
0
DICTIONARY
5
17
100
AcDbDictionary
0
ENDSEC
0
EOF
