0
SECTION
2
HEADER
9
$INSUNITS
70
4
9
$ACADVER
1
AC1014
9
$HANDSEED
5
FFFF
0
ENDSEC
0
SECTION
2
TABLES
0
TABLE
2
VPORT
5
8
100
AcDbSymbolTable
0
ENDTAB
0
TABLE
2
LTYPE
5
5
100
AcDbSymbolTable
0
LTYPE
5
14
100
AcDbSymbolTableRecord
100
AcDbLinetypeTableRecord
2
BYBLOCK
70
0
0
LTYPE
5
15
100
AcDbSymbolTableRecord
100
AcDbLinetypeTableRecord
2
BYLAYER
70
0
0
ENDTAB
0
TABLE
2
LAYER
5
2
100
AcDbSymbolTable
70
2
0
LAYER
5
50
100
AcDbSymbolTableRecord
100
AcDbLayerTableRecord
2
0
70
0
6
CONTINUOUS
0
ENDTAB
0
TABLE
2
STYLE
5
3
100
AcDbSymbolTable
70
1
0
STYLE
5
11
100
AcDbSymbolTableRecord
100
AcDbTextStyleTableRecord
2
STANDARD
70
0
0
ENDTAB
0
TABLE
2
VIEW
5
6
100
AcDbSymbolTable
70
0
0
ENDTAB
0
TABLE
2
UCS
5
7
100
AcDbSymbolTable
70
0
0
ENDTAB
0
TABLE
2
APPID
5
9
100
AcDbSymbolTable
70
2
0
APPID
5
12
100
AcDbSymbolTableRecord
100
AcDbRegAppTableRecord
2
ACAD
70
0
0
ENDTAB
0
TABLE
2
DIMSTYLE
5
A
100
AcDbSymbolTable
70
1
0
ENDTAB
0
TABLE
2
BLOCK_RECORD
5
1
100
AcDbSymbolTable
70
1
0
BLOCK_RECORD
5
1F
100
AcDbSymbolTableRecord
100
AcDbBlockTableRecord
2
*MODEL_SPACE
0
BLOCK_RECORD
5
1B
100
AcDbSymbolTableRecord
100
AcDbBlockTableRecord
2
*PAPER_SPACE
0
ENDTAB
0
ENDSEC
0
SECTION
2
BLOCKS
0
BLOCK
5
20
100
AcDbEntity
100
AcDbBlockBegin
2
*MODEL_SPACE
0
ENDBLK
5
21
100
AcDbEntity
100
AcDbBlockEnd
0
BLOCK
5
1C
100
AcDbEntity
100
AcDbBlockBegin
2
*PAPER_SPACE
0
ENDBLK
5
1D
100
AcDbEntity
100
AcDbBlockEnd
0
ENDSEC
0
SECTION
2
ENTITIES
0
LWPOLYLINE
5
100
100
AcDbEntity
8
OUTER_PROFILES
100
AcDbPolyline
90
32
70
1
43
0.0
10
273.49999999999932
20
237.73223304703367
10
276
20
237.73223304703379
42
0.37179207842367473
10
271.0539071212894
20
242.00000000000003
10
168.10000000000002
20
242.00000000000003
10
168.10000000000002
20
239.50000000000003
10
107.90000000000001
20
239.50000000000003
10
107.90000000000001
20
242.00000000000003
10
4.9460928787106093
20
242.00000000000003
42
0.37179207842368045
10
-1.1102230246251565e-15
20
237.73223304703367
10
2.4999999999999645
20
237.73223304703367
10
2.4999999999999645
20
92.098251707358756
10
0
20
92.098251707358756
10
-3.5527136788005009e-14
20
61.049125853679378
10
2.4999999999999645
20
61.049125853679378
10
2.4999999999999645
20
31.049125853679378
10
-3.5527136788005009e-14
20
31.049125853679378
10
0
20
0
10
276
20
0
10
275.99999999999937
20
31.009580936334977
10
273.49999999999937
20
31.009580936334977
10
273.49999999999937
20
61.009580936334977
10
275.99999999999937
20
61.009580936334977
10
276
20
92.019161872669955
10
273.49999999999937
20
92.019161872669955
10
273.49999999999937
20
122.01916187266995
10
276
20
122.01916187266995
10
276
20
153.11916187266996
10
273.49999999999937
20
153.11916187266996
10
273.49999999999937
20
183.11916187266996
10
276
20
183.11916187266996
10
276
20
214.21916187266999
10
273.49999999999937
20
214.21916187266999
0
CIRCLE
5
101
100
AcDbEntity
8
INTERIOR_PROFILES
100
AcDbCircle
10
-13.000000178813949
20
9.9413207908398782
30
0
40
5.5000000000001918
210
0
220
0
230
-1
0
CIRCLE
5
102
100
AcDbEntity
8
INTERIOR_PROFILES
100
AcDbCircle
10
-13.00000017881402
20
145.00000876931762
30
0
40
5.5000000000001847
210
0
220
0
230
-1
0
CIRCLE
5
103
100
AcDbEntity
8
INTERIOR_PROFILES
100
AcDbCircle
10
-262.96541265328551
20
145.00000876931762
30
0
40
5.5000000000002025
210
0
220
0
230
-1
0
LWPOLYLINE
5
104
100
AcDbEntity
8
INTERIOR_PROFILES
100
AcDbPolyline
90
4
70
1
43
0.0
10
129
20
5.9999999999999964
10
149
20
5.9999999999999964
10
149
20
1.9999999999999929
10
129
20
1.9999999999999929
0
CIRCLE
5
105
100
AcDbEntity
8
INTERIOR_PROFILES
100
AcDbCircle
10
-262.96541265328551
20
9.9413207908398782
30
0
40
5.5000000000001981
210
0
220
0
230
-1
0
ENDSEC
0
SECTION
2
OBJECTS
0
DICTIONARY
5
C
100
AcDbDictionary
3
ACAD_GROUP
350
D
3
ACAD_MLINESTYLE
350
17
0
DICTIONARY
5
D
100
AcDbDictionary
0
DICTIONARY
5
1A
330
C
100
AcDbDictionary
0
DICTIONARY
5
17
100
AcDbDictionary
0
ENDSEC
0
EOF
