0
SECTION
2
HEADER
9
$INSUNITS
70
4
9
$ACADVER
1
AC1014
9
$HANDSEED
5
FFFF
0
ENDSEC
0
SECTION
2
TABLES
0
TABLE
2
VPORT
5
8
100
AcDbSymbolTable
0
ENDTAB
0
TABLE
2
LTYPE
5
5
100
AcDbSymbolTable
0
LTYPE
5
14
100
AcDbSymbolTableRecord
100
AcDbLinetypeTableRecord
2
BYBLOCK
70
0
0
LTYPE
5
15
100
AcDbSymbolTableRecord
100
AcDbLinetypeTableRecord
2
BYLAYER
70
0
0
ENDTAB
0
TABLE
2
LAYER
5
2
100
AcDbSymbolTable
70
2
0
LAYER
5
50
100
AcDbSymbolTableRecord
100
AcDbLayerTableRecord
2
0
70
0
6
CONTINUOUS
0
ENDTAB
0
TABLE
2
STYLE
5
3
100
AcDbSymbolTable
70
1
0
STYLE
5
11
100
AcDbSymbolTableRecord
100
AcDbTextStyleTableRecord
2
STANDARD
70
0
0
ENDTAB
0
TABLE
2
VIEW
5
6
100
AcDbSymbolTable
70
0
0
ENDTAB
0
TABLE
2
UCS
5
7
100
AcDbSymbolTable
70
0
0
ENDTAB
0
TABLE
2
APPID
5
9
100
AcDbSymbolTable
70
2
0
APPID
5
12
100
AcDbSymbolTableRecord
100
AcDbRegAppTableRecord
2
ACAD
70
0
0
ENDTAB
0
TABLE
2
DIMSTYLE
5
A
100
AcDbSymbolTable
70
1
0
ENDTAB
0
TABLE
2
BLOCK_RECORD
5
1
100
AcDbSymbolTable
70
1
0
BLOCK_RECORD
5
1F
100
AcDbSymbolTableRecord
100
AcDbBlockTableRecord
2
*MODEL_SPACE
0
BLOCK_RECORD
5
1B
100
AcDbSymbolTableRecord
100
AcDbBlockTableRecord
2
*PAPER_SPACE
0
ENDTAB
0
ENDSEC
0
SECTION
2
BLOCKS
0
BLOCK
5
20
100
AcDbEntity
100
AcDbBlockBegin
2
*MODEL_SPACE
0
ENDBLK
5
21
100
AcDbEntity
100
AcDbBlockEnd
0
BLOCK
5
1C
100
AcDbEntity
100
AcDbBlockBegin
2
*PAPER_SPACE
0
ENDBLK
5
1D
100
AcDbEntity
100
AcDbBlockEnd
0
ENDSEC
0
SECTION
2
ENTITIES
0
LWPOLYLINE
5
100
100
AcDbEntity
8
OUTER_PROFILES
100
AcDbPolyline
90
68
70
1
43
0.0
10
29.585786832601748
20
32.654866776461589
10
24.585786767408688
20
27.000000000000099
10
19.011465907272953
20
21.425679212545266
42
-1.170233526116933
10
11.32842202472624
20
13.742635430174012
10
-0.70710677657673271
20
1.7071067857963591
42
0.66817864027676699
10
1.3877787807814459e-15
20
-3.8857805861880479e-15
10
281.63604260018258
20
-1.3461454173580023e-14
42
0.66817863813581246
10
282.34314938094576
20
1.7071067816098933
10
270.23886456559148
20
13.811391582470486
42
-1.1886116426824553
10
262.57537157851448
20
21.474884560371219
10
257.05025613227093
20
26.999999999998927
10
252.0502561262829
20
32.654866776461716
10
252.05025612628319
20
38.654866776461709
10
251.31802307731419
20
38.654866776461709
10
251.31802307731419
20
44.309733552923241
10
256.97288985377577
20
44.3097335596945
10
256.97288985465252
20
43.577500510725727
10
262.97288985465252
20
43.577500517910003
10
268.62775663710119
20
38.577500518694464
10
274.95067085732353
20
32.254586306043187
42
-0.47988603767611032
10
281.01856629644533
20
26.186690874187182
10
293.92064988577732
20
13.284607300304238
42
0.66817863813580736
10
295.62775666654056
20
13.991714083111562
10
295.62775647299611
20
175.62775461684012
42
0.66817863863402915
10
293.92064968956527
20
176.33486139458498
10
280.86225334860899
20
163.27646497073911
42
-0.57820050569789372
10
274.12120391296179
20
156.53541549230243
10
268.62775650243685
20
151.04196804690733
10
262.97288973196061
20
146.04196801246508
10
256.97288973196055
20
146.04196800528061
10
256.9728897328373
20
145.30973495185859
10
251.31802296428174
20
145.30973495299332
10
251.31802293515801
20
150.96460172945487
10
252.0502559885804
20
150.964601733226
10
252.05025595767879
20
156.96460173322612
10
257.05025594041302
20
162.61946853543861
10
262.02896744357196
20
167.59818007020039
42
-1.0453786544877193
10
269.79948869395491
20
175.36870136990743
10
282.34314912754326
20
187.91236188311791
42
0.66817863863399396
10
281.63604233896228
20
189.61946866206029
10
2.0851155826950851e-06
20
189.61946721158068
42
0.66817863463062543
10
-0.70710469370971596
20
187.9123604331831
10
11.775403287442007
20
175.42985235356525
42
-1.0296228865146468
10
19.550264714119763
20
167.65499086555681
10
24.585788201752639
20
162.61946733820218
10
29.585788154169705
20
156.96460058749147
10
29.585788185071191
20
150.96460058749142
10
30.318021202709335
20
150.96460059126255
10
30.318021217596929
20
145.30973382903701
10
24.663154441134392
20
145.3097339027687
10
24.663154450681652
20
146.04196692040665
10
18.663154450681656
20
146.04196699863783
10
13.008287739412623
20
151.04196696718935
10
7.4891304239682572
20
156.56112432617061
42
-0.58987655600816835
10
0.68153665291379062
20
163.36871815092559
10
-12.28460515604967
20
176.33486006216998
42
0.668178634630613
10
-13.991711940025148
20
175.62775329681091
10
-13.99171404751851
20
13.99171422994975
42
0.66817864027675933
10
-12.28460727094177
20
13.284607431114901
10
0.5121225806175822
20
26.081337115823935
42
-0.4918091218012739
10
6.6727643626515345
20
32.241978817532313
10
13.008286273044387
20
38.577500645319404
10
18.663153114697693
20
43.577500636780179
10
24.66315311469776
20
43.577500558548891
10
24.663153124245021
20
44.309733626654264
10
30.318019900707167
20
44.309733552923291
10
30.318019900707167
20
38.654866776461716
10
29.585786832601872
20
38.654866776461709
0
LWPOLYLINE
5
101
100
AcDbEntity
8
INTERIOR_PROFILES
100
AcDbPolyline
90
6
70
1
43
0.0
10
61.978023427012502
20
62.334733500762283
42
-0.41421356231259665
10
58.118023648886997
20
58.47473372345641
10
42.758023598368894
20
58.474733723405592
10
42.758023648750779
20
70.144733773259105
10
58.168023633388806
20
70.144733839258265
42
-0.41421356836310108
10
61.978023491685484
20
66.334733935678273
0
LWPOLYLINE
5
102
100
AcDbEntity
8
INTERIOR_PROFILES
100
AcDbPolyline
90
6
70
1
43
0.0
10
94.118023648886933
20
58.52473372345645
10
78.758023598584856
20
58.524733723405518
10
78.758023648750822
20
70.144733773259034
10
94.118023633388859
20
70.14473383904415
42
-0.41421356836309903
10
97.928023491685551
20
66.334733935464186
10
97.928023427012576
20
62.334733501570739
42
-0.4142135623739629
0
LWPOLYLINE
5
103
100
AcDbEntity
8
INTERIOR_PROFILES
100
AcDbPolyline
90
6
70
1
43
0.0
10
114.75802359836892
20
58.474733723405272
10
114.75802364875034
20
70.144733773258793
10
130.11802364866961
20
70.14473383904442
42
-0.4142135629521847
10
133.97802349087686
20
66.284733989662044
10
133.97802342620383
20
62.284733439970168
42
-0.41421355763655016
10
130.16802364810229
20
58.474733723456886
0
CIRCLE
5
104
100
AcDbEntity
8
INTERIOR_PROFILES
100
AcDbCircle
10
-62.424788771693457
20
123.50296862652269
30
0
40
1.025000000000027
210
0
220
0
230
-1
0
CIRCLE
5
105
100
AcDbEntity
8
INTERIOR_PROFILES
100
AcDbCircle
10
-62.424788771692405
20
93.502968626521749
30
0
40
1.025000000000027
210
0
220
0
230
-1
0
CIRCLE
5
106
100
AcDbEntity
8
INTERIOR_PROFILES
100
AcDbCircle
10
-41.824788771693648
20
123.50296862652311
30
0
40
1.025000000000027
210
0
220
0
230
-1
0
CIRCLE
5
107
100
AcDbEntity
8
INTERIOR_PROFILES
100
AcDbCircle
10
-41.824788771692596
20
93.502968626522176
30
0
40
1.025000000000027
210
0
220
0
230
-1
0
CIRCLE
5
108
100
AcDbEntity
8
INTERIOR_PROFILES
100
AcDbCircle
10
-111.81802364889776
20
93.309733749318411
30
0
40
1.2500000000000355
210
0
220
0
230
-1
0
CIRCLE
5
109
100
AcDbEntity
8
INTERIOR_PROFILES
100
AcDbCircle
10
-136.81802364889722
20
124.30973374932009
30
0
40
1.2500000000000355
210
0
220
0
230
-1
0
CIRCLE
5
110
100
AcDbEntity
8
INTERIOR_PROFILES
100
AcDbCircle
10
-136.81802364889796
20
64.309733749318397
30
0
40
1.2500000000000444
210
0
220
0
230
-1
0
CIRCLE
5
111
100
AcDbEntity
8
INTERIOR_PROFILES
100
AcDbCircle
10
-75.818023648897125
20
124.30973374931889
30
0
40
1.2500000000000355
210
0
220
0
230
-1
0
CIRCLE
5
112
100
AcDbEntity
8
INTERIOR_PROFILES
100
AcDbCircle
10
-100.8180236488972
20
124.30973374931939
30
0
40
1.2500000000000355
210
0
220
0
230
-1
0
CIRCLE
5
113
100
AcDbEntity
8
INTERIOR_PROFILES
100
AcDbCircle
10
-100.81802364889846
20
93.309733749318582
30
0
40
1.2500000000000355
210
0
220
0
230
-1
0
CIRCLE
5
114
100
AcDbEntity
8
INTERIOR_PROFILES
100
AcDbCircle
10
-64.818023648898219
20
64.309733749317942
30
0
40
1.2500000000000444
210
0
220
0
230
-1
0
CIRCLE
5
115
100
AcDbEntity
8
INTERIOR_PROFILES
100
AcDbCircle
10
-39.818023648898162
20
64.309733749318212
30
0
40
1.2500000000000444
210
0
220
0
230
-1
0
CIRCLE
5
116
100
AcDbEntity
8
INTERIOR_PROFILES
100
AcDbCircle
10
-75.818023648898205
20
64.309733749318127
30
0
40
1.2500000000000444
210
0
220
0
230
-1
0
CIRCLE
5
117
100
AcDbEntity
8
INTERIOR_PROFILES
100
AcDbCircle
10
-100.81802364889828
20
64.309733749317985
30
0
40
1.2500000000000444
210
0
220
0
230
-1
0
CIRCLE
5
118
100
AcDbEntity
8
INTERIOR_PROFILES
100
AcDbCircle
10
-75.818023648898404
20
93.309733749319179
30
0
40
1.2500000000000355
210
0
220
0
230
-1
0
CIRCLE
5
119
100
AcDbEntity
8
INTERIOR_PROFILES
100
AcDbCircle
10
-111.81802364889718
20
124.30973374931959
30
0
40
1.2500000000000355
210
0
220
0
230
-1
0
CIRCLE
5
120
100
AcDbEntity
8
INTERIOR_PROFILES
100
AcDbCircle
10
-111.81802364889791
20
64.309733749317786
30
0
40
1.2500000000000444
210
0
220
0
230
-1
0
CIRCLE
5
121
100
AcDbEntity
8
INTERIOR_PROFILES
100
AcDbCircle
10
-136.81802364889785
20
93.309733749318895
30
0
40
1.2500000000000355
210
0
220
0
230
-1
0
LWPOLYLINE
5
122
100
AcDbEntity
8
INTERIOR_PROFILES
100
AcDbPolyline
90
6
70
1
43
0.0
10
133.97802349087601
20
126.28473398966375
10
133.97802342701152
20
122.33473343997187
42
-0.41421355763654877
10
130.16802364890995
20
118.52473372345858
10
114.75802359858397
20
118.52473372340708
10
114.75802364874963
20
130.14473377326058
10
130.11802364866887
20
130.14473383904618
42
-0.41421356295219008
0
LWPOLYLINE
5
123
100
AcDbEntity
8
INTERIOR_PROFILES
100
AcDbPolyline
90
133
70
1
43
0.0
10
239.06883606675984
20
82.971321673489172
10
238.99881408526431
20
82.83389604895747
10
238.88479091271398
20
82.61011101314142
10
238.80079037106839
20
82.480755067644054
10
238.66400063037696
20
82.270114282420792
10
238.56693010455771
20
82.150249840062003
10
238.40887580031236
20
81.955056629737555
10
238.29981483079621
20
81.845993893604884
10
238.12221273576242
20
81.66839779396534
10
238.00234239775421
20
81.571334032173269
10
237.80714682451091
20
81.413274045826626
10
237.67779733396307
20
81.329269350165788
10
237.46715428594877
20
81.192474174077788
10
237.32972815973233
20
81.1224519699567
10
237.10594953943513
20
81.008429083332544
10
236.96195635172222
20
80.953154690721675
10
236.72747373324279
20
80.863143767982166
10
236.57849451027886
20
80.823223435944115
10
236.33589443034865
20
80.758219804616402
10
236.1835531125968
20
80.734091662536613
10
235.93548171464633
20
80.694801603018846
10
235.78145231003219
20
80.686728508689782
10
235.53063918401349
20
80.673584151903853
10
222.15692036827548
20
80.673584811456607
10
214.13065244134054
20
80.673586995691011
10
200.75663840771034
20
80.673587878073477
10
192.73067761831675
20
80.673586619278211
10
179.35637786074548
20
80.673587278858861
10
171.33070279529289
20
80.6735895966616
10
157.95611135563803
20
80.673590256219043
10
149.93071485911196
20
80.673588863778448
10
149.77671097629644
20
80.681660843611112
10
149.52587044782058
20
80.694803402126212
10
149.37355484212074
20
80.718928074034039
10
149.12546182493651
20
80.758224595997518
10
148.9765010870122
20
80.79813905219018
10
148.73387946887348
20
80.863148512763985
10
148.58990799361081
20
80.918414606375606
10
148.355404185634
20
81.008433721312713
10
148.21799913857691
20
81.078445220769424
10
147.99418803438974
20
81.192478643220838
10
147.86485446297257
20
81.276470394976172
10
147.65419822098789
20
81.413275088205836
10
147.53434945684498
20
81.510324312455168
10
147.33914230002443
20
81.668401543371516
10
147.23009793547521
20
81.777449498182321
10
147.05248561799988
20
81.955064818411046
10
146.95543298513368
20
82.074909829948808
10
146.79735860983646
20
82.270114210874965
10
146.71337059748609
20
82.399450897707581
10
146.57656865373352
20
82.610113512627649
10
146.50655721606773
20
82.747518479486715
10
146.39252377637743
20
82.971326704232922
10
146.33725424001244
20
83.115297881344148
10
146.24722907753835
20
83.349796037498081
10
146.20731656638819
20
83.498756255671367
10
146.14231295548615
20
83.741384354087899
10
146.11818662779848
20
83.893699225152318
10
146.0788840567937
20
84.141789987231562
10
146.07081571684489
20
84.295792937041398
10
146.05767313417573
20
84.546634380072319
10
146.0576717720659
20
137.04663438007552
10
146.06574043548289
20
137.2006436565631
10
146.07888268122986
20
137.45147891746569
10
146.10301000641766
20
137.60380013642376
10
146.14231158210862
20
137.85188767802467
10
146.18222577200879
20
138.00085419140461
10
146.24722772301936
20
138.24347018260119
10
146.30249961856327
20
138.38744752593615
10
146.39252245729318
20
138.6219456232902
10
146.46253692376754
20
138.75935655019612
10
146.57656738706248
20
138.98315597875313
10
146.66055907795243
20
139.11249834262992
10
146.7973574122102
20
139.32315541929933
10
146.89441434400999
20
139.44300574922579
10
147.05248450586336
20
139.63820792317838
10
147.16153374995281
20
139.74726076568032
10
147.33914128867036
20
139.92486833999442
10
147.45899546456519
20
140.02192195295837
10
147.65419732485677
20
140.17999192523516
10
147.78353627626527
20
140.26398717604434
10
147.99418726641073
20
140.40079144716358
10
148.13159860849177
20
140.47080615817163
10
148.35540355687709
20
140.58483645082953
10
148.49938166338117
20
140.64010509303259
10
148.73387898873432
20
140.73012172447724
10
148.88284661549437
20
140.77003981697794
10
149.12546150083816
20
140.83504747701699
10
149.27778416962676
20
140.85917148060045
10
149.52587028444003
20
140.89846691132817
10
149.67988131833573
20
140.90653926639584
10
149.93071485897309
20
140.91968145947422
10
184.7045957337339
20
140.91968317441706
10
214.13065244136902
20
140.91968511597915
10
235.53063918370725
20
140.91968617136638
10
235.68467573962147
20
140.91161270180004
10
235.93548187791731
20
140.89847169036292
10
236.08783025897637
20
140.87434421686118
10
236.33589475450515
20
140.83505226867806
10
236.48488086619054
20
140.79512830005626
10
236.72747421327426
20
140.73012646927668
10
236.87147403227797
20
140.6748495280566
10
237.10595016808554
20
140.58484108882718
10
237.24338258937436
20
140.51481567312925
10
237.46715505415159
20
140.40079591632389
10
237.59650992444739
20
140.31678772164045
10
237.80714772053096
20
140.17999594779195
10
237.92702347044582
20
140.08292779729246
10
238.12221374700599
20
139.92487208940818
10
238.23127959605569
20
139.81580267712195
10
238.40887691217893
20
139.63821134321481
10
238.5059523846723
20
139.51834257129082
10
238.66400182805748
20
139.32315236801432
10
238.74800604824918
20
139.19379074546248
10
238.88479217943868
20
138.9831584782516
10
238.95481718974759
20
138.84572689366257
10
239.06883738589727
20
138.62194767386998
10
239.1241105148822
20
138.47794851743259
10
239.21412518701729
20
138.2434717511982
10
239.25404546905
20
138.09448253667756
10
239.31905340910163
20
137.85188873805578
10
239.34318443112929
20
137.69954421584691
10
239.38247048830789
20
137.45147945202535
10
239.39054754459397
20
137.29744656785135
10
239.40368262483781
20
137.04663438008157
10
239.40368126253213
20
84.546634380078387
10
239.3956045300072
20
84.392607822590335
10
239.38246911298938
20
84.141789452684009
10
239.35833908846428
20
83.989451278379406
10
239.31905203627372
20
83.741380313892293
10
239.27913343299338
20
83.592397394578342
10
239.21412383275094
20
83.349797449089792
10
239.15885306264209
20
83.2058044588819
0
LWPOLYLINE
5
124
100
AcDbEntity
8
INTERIOR_PROFILES
100
AcDbPolyline
90
4
70
1
43
0.0
10
216.56802299855235
20
74.309733552923277
10
216.56802299855235
20
49.309733552923277
10
176.56802299855241
20
49.309733552923277
10
176.56802299855235
20
74.309733552923277
0
LWPOLYLINE
5
125
100
AcDbEntity
8
INTERIOR_PROFILES
100
AcDbPolyline
90
8
70
1
43
0.0
10
59.97478877169349
20
119.65296862652265
42
-0.41421356237309509
10
59.77478877169348
20
119.45296862652263
10
47.274788771693466
20
119.45296862652286
42
-0.41421356237309509
10
44.27478877169343
20
122.45296862652303
10
44.274788771693579
20
124.55296862652307
42
-0.41421356237309165
10
47.274788771693622
20
127.5529686265231
10
59.774788771693636
20
127.5529686265229
42
-0.41421356237308204
10
59.974788771693632
20
127.35296862652291
0
LWPOLYLINE
5
126
100
AcDbEntity
8
INTERIOR_PROFILES
100
AcDbPolyline
90
6
70
1
43
0.0
10
94.118023648886151
20
118.47473372345766
10
78.758023598368055
20
118.47473372340633
10
78.758023648749571
20
130.14473377325987
10
94.118023648668782
20
130.14473383904547
42
-0.41421356295218881
10
97.978023490876069
20
126.28473398966307
10
97.978023427011351
20
122.33473350076363
42
-0.41421356231259393
0
LWPOLYLINE
5
127
100
AcDbEntity
8
INTERIOR_PROFILES
100
AcDbPolyline
90
6
70
1
43
0.0
10
130.1180236488868
20
87.474733723457206
10
114.75802359836869
20
87.474733723405876
10
114.75802364875024
20
99.144733773259404
10
130.11802364866946
20
99.14473383904496
42
-0.41421356295218742
10
133.97802349087672
20
95.28473398966257
10
133.97802342701218
20
91.334733500763178
42
-0.41421356231259526
0
LWPOLYLINE
5
128
100
AcDbEntity
8
INTERIOR_PROFILES
100
AcDbPolyline
90
6
70
1
43
0.0
10
94.118023648887174
20
87.474733723457163
10
78.758023598369064
20
87.474733723406501
10
78.75802364875112
20
99.144733773260043
10
94.118023648670302
20
99.144733839044946
42
-0.41421356295219147
10
97.978023490877447
20
95.284733989662357
10
97.978023427012715
20
91.334733500762979
42
-0.41421356231259393
0
LWPOLYLINE
5
129
100
AcDbEntity
8
INTERIOR_PROFILES
100
AcDbPolyline
90
8
70
1
43
0.0
10
44.224788771692815
20
94.552968626522159
42
-0.41421356237309587
10
47.274788771692997
20
97.602968626522184
10
59.774788771692997
20
97.602968626521985
42
-0.41421356237306384
10
60.024788771692982
20
97.352968626521985
10
60.02478877169284
20
89.652968626521726
42
-0.41421356237308465
10
59.774788771692833
20
89.402968626521726
10
47.274788771692855
20
89.402968626521925
42
-0.41421356237310103
10
44.224788771692758
20
92.452968626522107
0
LINE
5
130
100
AcDbEntity
8
BEND
100
AcDbLine
10
30.318021217271145
20
148.13716720303188
30
-2.9031305901629154e-14
11
251.31802294971982
21
148.13716834122417
31
-8.2277718165688405e-15
0
LINE
5
131
100
AcDbEntity
8
BEND
100
AcDbLine
10
27.490586512476138
20
44.309733589788742
30
-6.647451451589292e-13
11
27.490587829365882
21
145.30973386590318
31
-6.6474514484513563e-13
0
LINE
5
132
100
AcDbEntity
8
BEND
100
AcDbLine
10
251.31802307731419
20
41.482300164692475
30
-1.0868542114572032e-13
11
30.318019900707114
21
41.482300164692489
31
-1.2441926735156211e-13
0
LINE
5
133
100
AcDbEntity
8
BEND
100
AcDbLine
10
265.80032324587694
20
41.077500518302074
30
2.6045504031764459e-13
11
265.80032311719788
21
148.54196802968551
31
1.2517628076152074e-13
0
LINE
5
134
100
AcDbEntity
8
BEND
100
AcDbLine
10
15.835721095047131
20
148.54196698291355
30
-3.1664229474096187e-12
11
15.835719693870605
21
41.077500641049411
31
-6.3921704405721315e-12
0
LINE
5
135
100
AcDbEntity
8
BEND
100
AcDbLine
10
254.14545634460663
20
145.30973494847302
30
2.9799983148029092e-15
11
254.14545646554473
21
44.309733556308899
31
-5.9017858450458501e-15
0
LINE
5
136
100
AcDbEntity
8
BEND
100
AcDbLine
10
27.085786800005174
20
29.827433388230808
30
1.4151340445802298e-13
11
254.55025612927648
21
29.827433388230808
31
-2.3979482205439067e-14
0
LINE
5
137
100
AcDbEntity
8
BEND
100
AcDbLine
10
254.55025594904598
20
159.79203513433251
30
5.7218313069981961e-14
11
27.085788177961021
21
159.792033962847
31
-1.029923400810029e-12
0
LWPOLYLINE
5
138
100
AcDbEntity
8
BEND_EXTENT
100
AcDbPolyline
90
4
70
1
43
0.0
10
251.31802296428174
20
145.30973495299332
10
30.318021217596929
20
145.30973382903701
10
30.318019900707167
20
44.309733552923291
10
251.31802307731419
20
44.309733552923241
0
LINE
5
139
100
AcDbEntity
8
BEND_EXTENT
100
AcDbLine
10
268.62775650243685
20
151.04196804690733
30
-8.9370879501097386e-14
11
268.62775663710119
21
38.577500518694464
31
3.5888721866890112e-13
0
LINE
5
140
100
AcDbEntity
8
BEND_EXTENT
100
AcDbLine
10
24.585788201752639
20
162.61946733820218
30
-9.6937349013750154e-14
11
257.05025594041302
21
162.61946853543861
31
4.4101560344182235e-13
0
LINE
5
141
100
AcDbEntity
8
BEND_EXTENT
100
AcDbLine
10
13.008286273044387
20
38.577500645319404
30
-9.7296307007681412e-14
11
13.008287739412623
21
151.04196696718935
31
-3.8579372365901939e-12
0
LINE
5
142
100
AcDbEntity
8
BEND_EXTENT
100
AcDbLine
10
257.05025613227093
20
26.999999999998927
30
-8.9729837446706369e-14
11
24.585786767408706
21
27.000000000000099
31
-2.7294490984779635e-14
0
LINE
5
143
100
AcDbEntity
8
BEND_EXTENT
100
AcDbLine
10
262.97288985465252
20
43.577500517910003
30
-8.9546207443198959e-14
11
262.97288973196061
21
146.04196801246508
31
-8.9546207447002985e-14
0
LINE
5
144
100
AcDbEntity
8
BEND_EXTENT
100
AcDbLine
10
18.663154450681656
20
146.04196699863783
30
-9.7120979018147058e-14
11
18.663153114697693
21
43.577500636780172
31
-9.712097905956897e-14
0
LINE
5
145
100
AcDbEntity
8
BEND_EXTENT
100
AcDbLine
10
29.585786832601748
20
32.654866776461589
30
-9.6782325115741707e-14
11
252.0502561262829
21
32.654866776461716
31
-8.9884861387350704e-14
0
LINE
5
146
100
AcDbEntity
8
BEND_EXTENT
100
AcDbLine
10
252.05025595767879
20
156.96460173322612
30
-8.9884861392578226e-14
11
29.585788154169705
21
156.96460058749147
31
-9.6782325074766769e-14
0
LINE
5
147
100
AcDbEntity
8
BEND_EXTENT
100
AcDbLine
10
256.9728897328373
20
145.30973495185859
30
3.9053634680991936e-14
11
256.97288985377577
21
44.309733559694507
31
4.3494526783242239e-14
0
LINE
5
148
100
AcDbEntity
8
BEND_EXTENT
100
AcDbLine
10
30.318021202709335
20
150.96460059126255
30
9.4000382275075126e-16
11
251.31802293515796
21
150.96460172945487
31
6.108276722674603e-14
0
LINE
5
149
100
AcDbEntity
8
BEND_EXTENT
100
AcDbLine
10
24.663153124245021
20
44.309733626654264
30
-1.3137393853198943e-12
11
24.663154441134392
21
145.3097339027687
31
-1.4203207956430794e-12
0
LINE
5
150
100
AcDbEntity
8
BEND_EXTENT
100
AcDbLine
10
251.31802307731419
20
38.654866776461709
30
-1.0323024041336961e-13
11
30.318019900707185
21
38.654866776461716
31
-1.100822986801332e-13
0
ENDSEC
0
SECTION
2
OBJECTS
0
DICTIONARY
5
C
100
AcDbDictionary
3
ACAD_GROUP
350
D
3
ACAD_MLINESTYLE
350
17
0
DICTIONARY
5
D
100
AcDbDictionary
0
DICTIONARY
5
1A
330
C
100
AcDbDictionary
0
DICTIONARY
5
17
100
AcDbDictionary
0
ENDSEC
0
EOF
