M48
; DRILL file {KiCad 7.0.6-0} date 2023 August 19, Saturday 11:48:42
; FORMAT={-:-/ absolute / inch / decimal}
; #@! TF.CreationDate,2023-08-19T11:48:42+10:00
; #@! TF.GenerationSoftware,Kicad,Pcbnew,7.0.6-0
; #@! TF.FileFunction,Plated,1,2,PTH
FMAT,2
INCH
; #@! TA.AperFunction,Plated,PTH,ComponentDrill
T1C0.0118
; #@! TA.AperFunction,Plated,PTH,ViaDrill
T2C0.0157
; #@! TA.AperFunction,Plated,PTH,ComponentDrill
T3C0.0236
; #@! TA.AperFunction,Plated,PTH,ComponentDrill
T4C0.1063
; #@! TA.AperFunction,Plated,PTH,ComponentDrill
T5C0.1260
; #@! TA.AperFunction,Plated,PTH,ComponentDrill
T6C0.1535
%
G90
G05
T1
X4.4345Y-3.313
X4.4345Y-3.3642
X4.4345Y-3.4153
X4.5097Y-3.313
X4.5097Y-3.3642
X4.5097Y-3.4153
X4.9679Y-3.3069
X4.9679Y-3.3581
X4.9679Y-3.4093
X5.0431Y-3.3069
X5.0431Y-3.3581
X5.0431Y-3.4093
T2
X3.437Y-3.7402
X3.437Y-3.7992
X3.437Y-3.8583
X3.4961Y-3.7402
X3.4961Y-3.7992
X3.4961Y-3.8583
X3.5551Y-3.7402
X3.5551Y-3.7992
X3.5551Y-3.8583
X3.5748Y-3.1693
X3.8898Y-3.4941
X4.0669Y-3.1929
X4.2382Y-3.3602
X4.3878Y-4.124
X4.4038Y-4.7646
X4.4038Y-4.8236
X4.4038Y-4.8827
X4.4629Y-4.7646
X4.4629Y-4.8236
X4.4629Y-4.8827
X4.5039Y-3.4941
X4.5219Y-4.8237
X4.5219Y-4.8827
X4.5219Y-4.7646
X4.6457Y-3.3366
X4.7008Y-3.3543
X4.7598Y-3.3189
X4.8575Y-3.4323
X5.1099Y-3.5354
X5.1102Y-4.1535
X5.1693Y-4.6772
X5.1827Y-4.815
X5.1827Y-4.874
X5.1827Y-4.9331
X5.2468Y-4.8145
X5.2468Y-4.8735
X5.2468Y-4.9326
X5.2596Y-3.3297
X5.3051Y-3.2972
X5.3059Y-4.8735
X5.3059Y-4.8145
X5.3059Y-4.9326
X5.5481Y-4.6746
X5.5639Y-4.8724
X5.5639Y-4.9315
X5.5639Y-4.8133
X5.623Y-4.8133
X5.623Y-4.8724
X5.623Y-4.9315
X5.682Y-4.8133
X5.682Y-4.8724
X5.682Y-4.9315
X5.9291Y-3.9094
X6.1555Y-4.687
X6.1725Y-4.8311
X6.1725Y-4.8901
X6.1725Y-4.9492
X6.2316Y-4.9492
X6.2316Y-4.8311
X6.2316Y-4.8901
X6.2906Y-4.8311
X6.2906Y-4.8901
X6.2906Y-4.9492
X6.6378Y-4.7874
X6.689Y-4.8228
X6.689Y-4.8819
X6.689Y-4.9409
X6.748Y-4.8228
X6.748Y-4.8819
X6.748Y-4.9409
X6.8071Y-4.8228
X6.8071Y-4.8819
X6.8071Y-4.9409
X6.9764Y-3.2008
X7.0574Y-2.7562
X7.0589Y-2.8735
X7.1496Y-3.0906
X7.1624Y-2.8583
X7.1634Y-2.7795
T4
X3.4665Y-5.2362
X3.75Y-5.2362
X4.498Y-5.2362
X4.7815Y-5.2362
X5.5295Y-5.2362
X5.813Y-5.2362
X6.5571Y-5.2358
X6.8406Y-5.2358
X7.1693Y-3.7638
X7.1693Y-4.0472
T5
X3.5492Y-2.6756
X3.5496Y-4.6953
X6.5094Y-2.6748
X6.5106Y-4.6969
T6
X6.8642Y-3.689
X6.8642Y-4.1181
T3
G00X3.3425Y-5.4941
M15
G01X3.3425Y-5.4508
M16
G05
G00X3.874Y-5.4941
M15
G01X3.874Y-5.4508
M16
G05
G00X4.374Y-5.4941
M15
G01X4.374Y-5.4508
M16
G05
G00X4.9055Y-5.4941
M15
G01X4.9055Y-5.4508
M16
G05
G00X5.4055Y-5.4941
M15
G01X5.4055Y-5.4508
M16
G05
G00X5.937Y-5.4941
M15
G01X5.937Y-5.4508
M16
G05
G00X6.4331Y-5.4937
M15
G01X6.4331Y-5.4504
M16
G05
G00X6.9646Y-5.4937
M15
G01X6.9646Y-5.4504
M16
G05
G00X7.2146Y-3.5315
M15
G01X7.2539Y-3.5315
M16
G05
G00X7.2146Y-4.2756
M15
G01X7.2539Y-4.2756
M16
G05
G00X7.2352Y-2.6547
M15
G01X7.2785Y-2.6547
M16
G05
G00X7.2352Y-2.9949
M15
G01X7.2785Y-2.9949
M16
G05
G00X7.4272Y-3.6398
M15
G01X7.3839Y-3.6398
M16
G05
G00X7.4272Y-4.1713
M15
G01X7.3839Y-4.1713
M16
G05
G00X7.4065Y-2.6547
M15
G01X7.438Y-2.6547
M16
G05
G00X7.4065Y-2.9949
M15
G01X7.438Y-2.9949
M16
G05
T0
M30
