%TF.GenerationSoftware,KiCad,Pcbnew,7.0.6-0*%
%TF.CreationDate,2023-08-19T11:48:42+10:00*%
%TF.ProjectId,rear_screen,72656172-5f73-4637-9265-656e2e6b6963,rev?*%
%TF.SameCoordinates,Original*%
%TF.FileFunction,Copper,L2,Bot*%
%TF.FilePolarity,Positive*%
%FSLAX46Y46*%
G04 Gerber Fmt 4.6, Leading zero omitted, Abs format (unit mm)*
G04 Created by KiCad (PCBNEW 7.0.6-0) date 2023-08-19 11:48:42*
%MOMM*%
%LPD*%
G01*
G04 APERTURE LIST*
G04 Aperture macros list*
%AMRoundRect*
0 Rectangle with rounded corners*
0 $1 Rounding radius*
0 $2 $3 $4 $5 $6 $7 $8 $9 X,Y pos of 4 corners*
0 Add a 4 corners polygon primitive as box body*
4,1,4,$2,$3,$4,$5,$6,$7,$8,$9,$2,$3,0*
0 Add four circle primitives for the rounded corners*
1,1,$1+$1,$2,$3*
1,1,$1+$1,$4,$5*
1,1,$1+$1,$6,$7*
1,1,$1+$1,$8,$9*
0 Add four rect primitives between the rounded corners*
20,1,$1+$1,$2,$3,$4,$5,0*
20,1,$1+$1,$4,$5,$6,$7,0*
20,1,$1+$1,$6,$7,$8,$9,0*
20,1,$1+$1,$8,$9,$2,$3,0*%
G04 Aperture macros list end*
%TA.AperFunction,SMDPad,CuDef*%
%ADD10R,2.410000X3.100000*%
%TD*%
%TA.AperFunction,ComponentPad*%
%ADD11C,0.500000*%
%TD*%
%TA.AperFunction,ComponentPad*%
%ADD12C,5.600000*%
%TD*%
%TA.AperFunction,ComponentPad*%
%ADD13C,4.916000*%
%TD*%
%TA.AperFunction,ComponentPad*%
%ADD14R,4.916000X4.916000*%
%TD*%
%TA.AperFunction,ComponentPad*%
%ADD15O,2.600000X1.300000*%
%TD*%
%TA.AperFunction,ComponentPad*%
%ADD16R,0.900000X2.000000*%
%TD*%
%TA.AperFunction,ComponentPad*%
%ADD17RoundRect,1.025000X1.025000X1.025000X-1.025000X1.025000X-1.025000X-1.025000X1.025000X-1.025000X0*%
%TD*%
%TA.AperFunction,ComponentPad*%
%ADD18C,4.100000*%
%TD*%
%TA.AperFunction,ComponentPad*%
%ADD19O,2.100000X1.000000*%
%TD*%
%TA.AperFunction,ComponentPad*%
%ADD20O,1.800000X1.000000*%
%TD*%
%TA.AperFunction,ComponentPad*%
%ADD21R,2.000000X0.900000*%
%TD*%
%TA.AperFunction,ComponentPad*%
%ADD22RoundRect,1.025000X-1.025000X1.025000X-1.025000X-1.025000X1.025000X-1.025000X1.025000X1.025000X0*%
%TD*%
%TA.AperFunction,ViaPad*%
%ADD23C,0.800000*%
%TD*%
%TA.AperFunction,Conductor*%
%ADD24C,0.400000*%
%TD*%
%TA.AperFunction,Conductor*%
%ADD25C,0.200000*%
%TD*%
G04 APERTURE END LIST*
D10*
%TO.P,U2,9,TH*%
%TO.N,unconnected-(U2-TH-Pad9)*%
X127140712Y-85295111D03*
D11*
X126185712Y-86595111D03*
X126185712Y-83995111D03*
X126185712Y-85295111D03*
X128095712Y-86595111D03*
X128095712Y-85295111D03*
X128095712Y-83995111D03*
%TD*%
D10*
%TO.P,U1,9,TH*%
%TO.N,unconnected-(U1-TH-Pad9)*%
X113592032Y-85449584D03*
D11*
X112637032Y-86749584D03*
X112637032Y-84149584D03*
X112637032Y-85449584D03*
X114547032Y-86749584D03*
X114547032Y-85449584D03*
X114547032Y-84149584D03*
%TD*%
D12*
%TO.P,H2,1*%
%TO.N,N/C*%
X165339531Y-67939531D03*
%TD*%
D13*
%TO.P,J6,1,Pin_1*%
%TO.N,GND*%
X174350000Y-93700000D03*
D14*
%TO.P,J6,2,Pin_2*%
%TO.N,VIN*%
X174350000Y-104600000D03*
D15*
%TO.P,J6,S1*%
%TO.N,N/C*%
X183750000Y-108600000D03*
%TO.P,J6,S2*%
X183750000Y-89700000D03*
%TD*%
D16*
%TO.P,J3,*%
%TO.N,*%
X124600000Y-139000000D03*
X111100000Y-139000000D03*
D17*
%TO.P,J3,1,Pin_1*%
%TO.N,Net-(D3-A)*%
X114250000Y-133000000D03*
D18*
%TO.P,J3,2,Pin_2*%
%TO.N,VIN*%
X121450000Y-133000000D03*
%TD*%
D12*
%TO.P,H3,1*%
%TO.N,N/C*%
X165370000Y-119300000D03*
%TD*%
%TO.P,H4,1*%
%TO.N,N/C*%
X90160000Y-119260000D03*
%TD*%
D16*
%TO.P,J4,*%
%TO.N,*%
X150800000Y-139000000D03*
X137300000Y-139000000D03*
D17*
%TO.P,J4,1,Pin_1*%
%TO.N,Net-(D4-A)*%
X140450000Y-133000000D03*
D18*
%TO.P,J4,2,Pin_2*%
%TO.N,VIN*%
X147650000Y-133000000D03*
%TD*%
D19*
%TO.P,J13,S1,SHIELD*%
%TO.N,GND*%
X184325000Y-76070000D03*
D20*
X188525000Y-76070000D03*
D19*
X184325000Y-67430000D03*
D20*
X188525000Y-67430000D03*
%TD*%
D16*
%TO.P,J2,*%
%TO.N,*%
X98400000Y-139000000D03*
X84900000Y-139000000D03*
D17*
%TO.P,J2,1,Pin_1*%
%TO.N,Net-(D2-A)*%
X88050000Y-133000000D03*
D18*
%TO.P,J2,2,Pin_2*%
%TO.N,VIN*%
X95250000Y-133000000D03*
%TD*%
D16*
%TO.P,J5,*%
%TO.N,*%
X176900000Y-138990522D03*
X163400000Y-138990522D03*
D17*
%TO.P,J5,1,Pin_1*%
%TO.N,Net-(D5-A)*%
X166550000Y-132990522D03*
D18*
%TO.P,J5,2,Pin_2*%
%TO.N,VIN*%
X173750000Y-132990522D03*
%TD*%
D21*
%TO.P,J1,*%
%TO.N,*%
X188100000Y-92450000D03*
X188100000Y-105950000D03*
D22*
%TO.P,J1,1,Pin_1*%
%TO.N,GND*%
X182100000Y-95600000D03*
D18*
%TO.P,J1,2,Pin_2*%
%TO.N,VIN*%
X182100000Y-102800000D03*
%TD*%
D12*
%TO.P,H1,1*%
%TO.N,N/C*%
X90150000Y-67960000D03*
%TD*%
D23*
%TO.N,VIN*%
X90800000Y-80500000D03*
X177200000Y-81300000D03*
X181600000Y-78500000D03*
%TO.N,Net-(Q1-G)*%
X134750000Y-83750000D03*
X150600000Y-99300000D03*
%TO.N,Net-(Q3-G)*%
X129800000Y-105500000D03*
X129790712Y-89800000D03*
%TO.N,Net-(Q6-G)*%
X118000000Y-84750000D03*
X111450000Y-104750000D03*
%TO.N,Net-(Q7-G)*%
X98800000Y-88750000D03*
%TO.N,GPIO11*%
X120900000Y-84300000D03*
X123380000Y-87180000D03*
%TO.N,GPIO13*%
X107650000Y-85350000D03*
X103300000Y-81100000D03*
%TO.N,Net-(Q1-G)*%
X156350000Y-119050000D03*
X168600000Y-121600000D03*
%TO.N,Net-(D5-A)*%
X172900000Y-125500000D03*
X156781536Y-124209617D03*
X159781536Y-124209616D03*
X158281536Y-125709616D03*
X158281537Y-124209616D03*
X171400000Y-122500000D03*
X156781536Y-125709616D03*
X172900000Y-124000000D03*
X159781536Y-122709616D03*
X169900000Y-125500000D03*
X172900000Y-122500000D03*
X169900000Y-124000000D03*
X169900000Y-122500000D03*
X171400000Y-125500000D03*
X156781536Y-122709615D03*
X159781536Y-125709616D03*
X158281537Y-122709616D03*
X171400000Y-124000000D03*
%TO.N,Net-(D4-A)*%
X133269300Y-122287718D03*
X134769300Y-125287718D03*
X144323295Y-122259064D03*
X142823295Y-123759064D03*
X134769300Y-122287718D03*
X131640000Y-122300000D03*
X134769299Y-123787718D03*
X144323295Y-125259063D03*
X144323295Y-123759064D03*
X133269300Y-125287718D03*
X131640000Y-125300000D03*
X142823295Y-125259064D03*
X141323296Y-122259064D03*
X141323295Y-123759064D03*
X142823295Y-122259064D03*
X131640000Y-123800000D03*
X141323295Y-125259064D03*
X133269300Y-123787718D03*
%TO.N,Net-(D3-A)*%
X113356427Y-121020711D03*
X114856429Y-121020712D03*
X111856428Y-124020710D03*
X114856428Y-124020712D03*
X111856428Y-122520710D03*
X113356428Y-122520710D03*
X114856428Y-122520712D03*
X111856428Y-121020712D03*
X113356428Y-124020712D03*
%TO.N,Net-(D2-A)*%
X87300001Y-95000000D03*
X88800000Y-96500000D03*
X88800000Y-98000000D03*
X87300001Y-96500000D03*
X88800000Y-95000000D03*
X87300002Y-98000000D03*
X90300000Y-96500000D03*
X90300000Y-98000000D03*
X90300000Y-95000002D03*
%TO.N,VIN*%
X133595000Y-84575000D03*
X119400000Y-85200000D03*
%TO.N,Net-(J13-CC2)*%
X181949999Y-70600000D03*
X179257634Y-70007602D03*
%TO.N,Net-(J13-CC1)*%
X179295678Y-72987727D03*
X181925000Y-72600000D03*
%TO.N,Net-(Q3-G)*%
X131300000Y-118800000D03*
%TO.N,Net-(Q7-G)*%
X114400000Y-88750000D03*
%TO.N,Net-(Q3-G)*%
X140921719Y-118734840D03*
%TD*%
D24*
%TO.N,GPIO13*%
X107650000Y-85350000D02*
X103400000Y-81100000D01*
X103400000Y-81100000D02*
X103300000Y-81100000D01*
%TO.N,Net-(Q3-G)*%
X131300000Y-118800000D02*
X131365160Y-118734840D01*
X131365160Y-118734840D02*
X140921719Y-118734840D01*
%TO.N,GPIO11*%
X120900000Y-84300000D02*
X120900000Y-84700000D01*
X120900000Y-84700000D02*
X123380000Y-87180000D01*
%TO.N,Net-(Q7-G)*%
X114400000Y-88750000D02*
X98800000Y-88750000D01*
%TO.N,VIN*%
X181100000Y-78500000D02*
X181600000Y-78500000D01*
X177200000Y-81300000D02*
X179900000Y-78600000D01*
X179900000Y-78600000D02*
X181000000Y-78600000D01*
X181000000Y-78600000D02*
X181100000Y-78500000D01*
%TO.N,Net-(Q1-G)*%
X150600000Y-99300000D02*
X150300000Y-99300000D01*
X150300000Y-99300000D02*
X134750000Y-83750000D01*
%TO.N,Net-(Q3-G)*%
X129790712Y-89800000D02*
X129750000Y-89840712D01*
X129750000Y-89840712D02*
X129750000Y-105000000D01*
X129750000Y-105000000D02*
X129800000Y-105050000D01*
X129800000Y-105050000D02*
X129800000Y-105500000D01*
%TO.N,Net-(Q1-G)*%
X156350000Y-119050000D02*
X160594516Y-119050000D01*
X160594516Y-119050000D02*
X164044516Y-122500000D01*
X164044516Y-122500000D02*
X167700000Y-122500000D01*
X167700000Y-122500000D02*
X168600000Y-121600000D01*
%TO.N,Net-(Q6-G)*%
X118000000Y-88500000D02*
X118000000Y-84750000D01*
X111450000Y-104750000D02*
X111450000Y-95050000D01*
X111450000Y-95050000D02*
X118000000Y-88500000D01*
D25*
%TO.N,Net-(J13-CC2)*%
X181357602Y-70007602D02*
X179257634Y-70007602D01*
X181949999Y-70600000D02*
X181357602Y-70007602D01*
%TO.N,Net-(J13-CC1)*%
X181537273Y-72987727D02*
X179295678Y-72987727D01*
X181925000Y-72600000D02*
X181537273Y-72987727D01*
%TD*%
%TA.AperFunction,Conductor*%
%TO.N,VIN*%
G36*
X185539474Y-62067504D02*
G01*
X185544826Y-62067973D01*
X185928659Y-62118506D01*
X185933967Y-62119442D01*
X186311920Y-62203232D01*
X186317119Y-62204625D01*
X186686341Y-62321040D01*
X186691422Y-62322889D01*
X187049088Y-62471039D01*
X187053958Y-62473310D01*
X187397350Y-62652069D01*
X187402028Y-62654771D01*
X187728526Y-62862772D01*
X187732959Y-62865876D01*
X188040077Y-63101536D01*
X188044222Y-63105015D01*
X188329630Y-63366543D01*
X188333456Y-63370369D01*
X188594984Y-63655777D01*
X188598463Y-63659922D01*
X188834123Y-63967040D01*
X188837227Y-63971473D01*
X189045228Y-64297971D01*
X189047934Y-64302657D01*
X189226680Y-64646023D01*
X189228964Y-64650921D01*
X189248546Y-64698195D01*
X189377110Y-65008578D01*
X189378961Y-65013663D01*
X189495368Y-65382858D01*
X189496768Y-65388085D01*
X189580556Y-65766030D01*
X189581496Y-65771359D01*
X189632024Y-66155155D01*
X189632496Y-66160546D01*
X189646013Y-66470140D01*
X189629271Y-66537975D01*
X189578513Y-66585989D01*
X189509854Y-66598940D01*
X189451294Y-66577324D01*
X189413050Y-66550705D01*
X189226056Y-66470459D01*
X189026741Y-66429500D01*
X188074258Y-66429500D01*
X188074257Y-66429500D01*
X187922560Y-66444925D01*
X187728420Y-66505837D01*
X187728405Y-66505844D01*
X187550500Y-66604589D01*
X187550495Y-66604592D01*
X187396106Y-66737132D01*
X187396104Y-66737134D01*
X187271554Y-66898037D01*
X187271553Y-66898040D01*
X187181940Y-67080728D01*
X187130937Y-67277714D01*
X187120631Y-67480936D01*
X187151442Y-67682063D01*
X187151445Y-67682075D01*
X187222111Y-67872881D01*
X187222113Y-67872884D01*
X187222114Y-67872887D01*
X187268005Y-67946513D01*
X187329745Y-68045567D01*
X187329747Y-68045569D01*
X187329748Y-68045571D01*
X187469941Y-68193053D01*
X187559531Y-68255409D01*
X187636949Y-68309294D01*
X187636950Y-68309294D01*
X187636951Y-68309295D01*
X187823942Y-68389540D01*
X188023259Y-68430500D01*
X188975743Y-68430500D01*
X189127439Y-68415074D01*
X189321579Y-68354162D01*
X189321580Y-68354161D01*
X189321588Y-68354159D01*
X189465322Y-68274380D01*
X189533491Y-68259057D01*
X189599123Y-68283021D01*
X189641380Y-68338664D01*
X189649500Y-68382799D01*
X189649500Y-75117894D01*
X189629815Y-75184933D01*
X189577011Y-75230688D01*
X189507853Y-75240632D01*
X189454663Y-75219669D01*
X189413050Y-75190705D01*
X189226056Y-75110459D01*
X189026741Y-75069500D01*
X188074258Y-75069500D01*
X188074257Y-75069500D01*
X187922560Y-75084925D01*
X187728420Y-75145837D01*
X187728405Y-75145844D01*
X187550500Y-75244589D01*
X187550495Y-75244592D01*
X187396106Y-75377132D01*
X187396104Y-75377134D01*
X187271554Y-75538037D01*
X187271553Y-75538040D01*
X187181940Y-75720728D01*
X187130937Y-75917714D01*
X187120631Y-76120936D01*
X187151442Y-76322063D01*
X187151445Y-76322075D01*
X187222111Y-76512881D01*
X187222115Y-76512888D01*
X187329745Y-76685567D01*
X187329747Y-76685569D01*
X187329748Y-76685571D01*
X187469941Y-76833053D01*
X187564772Y-76899057D01*
X187636949Y-76949294D01*
X187636950Y-76949294D01*
X187636951Y-76949295D01*
X187823942Y-77029540D01*
X188023259Y-77070500D01*
X188975743Y-77070500D01*
X189127439Y-77055074D01*
X189321579Y-76994162D01*
X189321580Y-76994161D01*
X189321588Y-76994159D01*
X189465322Y-76914380D01*
X189533491Y-76899057D01*
X189599123Y-76923021D01*
X189641380Y-76978664D01*
X189649500Y-77022799D01*
X189649500Y-91538428D01*
X189629815Y-91605467D01*
X189577011Y-91651222D01*
X189507853Y-91661166D01*
X189451189Y-91637695D01*
X189408138Y-91605467D01*
X189342331Y-91556204D01*
X189342329Y-91556203D01*
X189342328Y-91556202D01*
X189207482Y-91505908D01*
X189207483Y-91505908D01*
X189147883Y-91499501D01*
X189147881Y-91499500D01*
X189147873Y-91499500D01*
X189147864Y-91499500D01*
X187052129Y-91499500D01*
X187052123Y-91499501D01*
X186992516Y-91505908D01*
X186857671Y-91556202D01*
X186857664Y-91556206D01*
X186742455Y-91642452D01*
X186742452Y-91642455D01*
X186656206Y-91757664D01*
X186656202Y-91757671D01*
X186605908Y-91892517D01*
X186599501Y-91952116D01*
X186599500Y-91952135D01*
X186599500Y-92947870D01*
X186599501Y-92947876D01*
X186605908Y-93007483D01*
X186656202Y-93142328D01*
X186656206Y-93142335D01*
X186742452Y-93257544D01*
X186742455Y-93257547D01*
X186857664Y-93343793D01*
X186857671Y-93343797D01*
X186992517Y-93394091D01*
X186992516Y-93394091D01*
X186999444Y-93394835D01*
X187052127Y-93400500D01*
X189147872Y-93400499D01*
X189207483Y-93394091D01*
X189342331Y-93343796D01*
X189451188Y-93262305D01*
X189516653Y-93237887D01*
X189584926Y-93252738D01*
X189634332Y-93302143D01*
X189649500Y-93361571D01*
X189649500Y-105038428D01*
X189629815Y-105105467D01*
X189577011Y-105151222D01*
X189507853Y-105161166D01*
X189451189Y-105137695D01*
X189408138Y-105105467D01*
X189342331Y-105056204D01*
X189342329Y-105056203D01*
X189342328Y-105056202D01*
X189207482Y-105005908D01*
X189207483Y-105005908D01*
X189147883Y-104999501D01*
X189147881Y-104999500D01*
X189147873Y-104999500D01*
X189147864Y-104999500D01*
X187052129Y-104999500D01*
X187052123Y-104999501D01*
X186992516Y-105005908D01*
X186857671Y-105056202D01*
X186857664Y-105056206D01*
X186742455Y-105142452D01*
X186742452Y-105142455D01*
X186656206Y-105257664D01*
X186656202Y-105257671D01*
X186605908Y-105392517D01*
X186599501Y-105452116D01*
X186599500Y-105452135D01*
X186599500Y-106447870D01*
X186599501Y-106447876D01*
X186605908Y-106507483D01*
X186656202Y-106642328D01*
X186656206Y-106642335D01*
X186742452Y-106757544D01*
X186742455Y-106757547D01*
X186857664Y-106843793D01*
X186857671Y-106843797D01*
X186992517Y-106894091D01*
X186992516Y-106894091D01*
X186999444Y-106894835D01*
X187052127Y-106900500D01*
X189147872Y-106900499D01*
X189207483Y-106894091D01*
X189342331Y-106843796D01*
X189451188Y-106762305D01*
X189516653Y-106737887D01*
X189584926Y-106752738D01*
X189634332Y-106802143D01*
X189649500Y-106861571D01*
X189649500Y-135950000D01*
X189632496Y-136339453D01*
X189632024Y-136344844D01*
X189581496Y-136728640D01*
X189580556Y-136733969D01*
X189496768Y-137111914D01*
X189495368Y-137117141D01*
X189378961Y-137486336D01*
X189377110Y-137491421D01*
X189228967Y-137849072D01*
X189226680Y-137853976D01*
X189047934Y-138197342D01*
X189045228Y-138202028D01*
X188837227Y-138528526D01*
X188834123Y-138532959D01*
X188598463Y-138840077D01*
X188594984Y-138844222D01*
X188333456Y-139129630D01*
X188329630Y-139133456D01*
X188044222Y-139394984D01*
X188040077Y-139398463D01*
X187732959Y-139634123D01*
X187728526Y-139637227D01*
X187402028Y-139845228D01*
X187397342Y-139847934D01*
X187053976Y-140026680D01*
X187049072Y-140028967D01*
X186691421Y-140177110D01*
X186686336Y-140178961D01*
X186317141Y-140295368D01*
X186311914Y-140296768D01*
X185933969Y-140380556D01*
X185928640Y-140381496D01*
X185544844Y-140432024D01*
X185539453Y-140432496D01*
X185150000Y-140449500D01*
X177879336Y-140449500D01*
X177812297Y-140429815D01*
X177766542Y-140377011D01*
X177756598Y-140307853D01*
X177780068Y-140251190D01*
X177793796Y-140232853D01*
X177844091Y-140098005D01*
X177850500Y-140038395D01*
X177850499Y-137942650D01*
X177844091Y-137883039D01*
X177833251Y-137853976D01*
X177793797Y-137748193D01*
X177793793Y-137748186D01*
X177707547Y-137632977D01*
X177707544Y-137632974D01*
X177592335Y-137546728D01*
X177592328Y-137546724D01*
X177457482Y-137496430D01*
X177457483Y-137496430D01*
X177397883Y-137490023D01*
X177397881Y-137490022D01*
X177397873Y-137490022D01*
X177397864Y-137490022D01*
X176402129Y-137490022D01*
X176402123Y-137490023D01*
X176342516Y-137496430D01*
X176207671Y-137546724D01*
X176207664Y-137546728D01*
X176092455Y-137632974D01*
X176092452Y-137632977D01*
X176006206Y-137748186D01*
X176006202Y-137748193D01*
X175955908Y-137883039D01*
X175949501Y-137942638D01*
X175949501Y-137942645D01*
X175949500Y-137942657D01*
X175949500Y-140038392D01*
X175949501Y-140038398D01*
X175955908Y-140098005D01*
X176006202Y-140232849D01*
X176006203Y-140232850D01*
X176006204Y-140232853D01*
X176019931Y-140251190D01*
X176044348Y-140316651D01*
X176029497Y-140384925D01*
X175980093Y-140434331D01*
X175920664Y-140449500D01*
X170379500Y-140449500D01*
X170312461Y-140429815D01*
X170266706Y-140377011D01*
X170255500Y-140325500D01*
X170255500Y-130285873D01*
X170275185Y-130218834D01*
X170310454Y-130182874D01*
X174525960Y-127357096D01*
X174606838Y-127289680D01*
X174642660Y-127252855D01*
X174707814Y-127170152D01*
X174766501Y-127038784D01*
X174785631Y-126971584D01*
X174804930Y-126829003D01*
X174756504Y-120969442D01*
X174756504Y-120969437D01*
X174744232Y-120862844D01*
X174744231Y-120862832D01*
X174732758Y-120811756D01*
X174698261Y-120710147D01*
X174619841Y-120589516D01*
X174573810Y-120536952D01*
X174567959Y-120530271D01*
X174560398Y-120525454D01*
X174531572Y-120500739D01*
X174464580Y-120443301D01*
X174464578Y-120443300D01*
X174464577Y-120443299D01*
X174334832Y-120384866D01*
X174333391Y-120384217D01*
X174333390Y-120384216D01*
X174333384Y-120384214D01*
X174266257Y-120364885D01*
X174266250Y-120364884D01*
X174123729Y-120345154D01*
X174123727Y-120345154D01*
X169432681Y-120369713D01*
X169432678Y-120369713D01*
X169312465Y-120384864D01*
X169312457Y-120384866D01*
X169255236Y-120399202D01*
X169142083Y-120442522D01*
X169025702Y-120527119D01*
X169025697Y-120527122D01*
X168975605Y-120575827D01*
X168975602Y-120575831D01*
X168901800Y-120671584D01*
X168845283Y-120712665D01*
X168777807Y-120717176D01*
X168776080Y-120716809D01*
X168694646Y-120699500D01*
X168548110Y-120699500D01*
X168481071Y-120679815D01*
X168435316Y-120627011D01*
X168425372Y-120557853D01*
X168432917Y-120529603D01*
X168478344Y-120415587D01*
X168502324Y-120355403D01*
X168598071Y-120010552D01*
X168621681Y-119866537D01*
X168655970Y-119657385D01*
X168655970Y-119657382D01*
X168655972Y-119657371D01*
X168675348Y-119300000D01*
X168655972Y-118942629D01*
X168652770Y-118923099D01*
X168598073Y-118589460D01*
X168598072Y-118589459D01*
X168598071Y-118589448D01*
X168545960Y-118401759D01*
X168502327Y-118244607D01*
X168502325Y-118244600D01*
X168486390Y-118204607D01*
X168418550Y-118034340D01*
X168369857Y-117912129D01*
X168369848Y-117912111D01*
X168202215Y-117595922D01*
X168202213Y-117595919D01*
X168202211Y-117595915D01*
X168001365Y-117299689D01*
X168001361Y-117299684D01*
X168001358Y-117299680D01*
X167769668Y-117026914D01*
X167769667Y-117026914D01*
X167509837Y-116780789D01*
X167509830Y-116780783D01*
X167509827Y-116780781D01*
X167442245Y-116729407D01*
X167224919Y-116564200D01*
X166918253Y-116379685D01*
X166918252Y-116379684D01*
X166918248Y-116379682D01*
X166918244Y-116379680D01*
X166593447Y-116229414D01*
X166593441Y-116229411D01*
X166593435Y-116229409D01*
X166423854Y-116172270D01*
X166254273Y-116115131D01*
X165904744Y-116038194D01*
X165548949Y-115999500D01*
X165548948Y-115999500D01*
X165191052Y-115999500D01*
X165191050Y-115999500D01*
X164835255Y-116038194D01*
X164485726Y-116115131D01*
X164237994Y-116198603D01*
X164146565Y-116229409D01*
X164146562Y-116229410D01*
X164146563Y-116229410D01*
X164146552Y-116229414D01*
X163821755Y-116379680D01*
X163821751Y-116379682D01*
X163593367Y-116517096D01*
X163515081Y-116564200D01*
X163426768Y-116631333D01*
X163230172Y-116780781D01*
X163230163Y-116780789D01*
X162970331Y-117026914D01*
X162738641Y-117299680D01*
X162738634Y-117299690D01*
X162537790Y-117595913D01*
X162537784Y-117595922D01*
X162370151Y-117912111D01*
X162370142Y-117912129D01*
X162237674Y-118244600D01*
X162237672Y-118244607D01*
X162141932Y-118589434D01*
X162141926Y-118589460D01*
X162084029Y-118942614D01*
X162084027Y-118942631D01*
X162067891Y-119240251D01*
X162044606Y-119306127D01*
X161989402Y-119348956D01*
X161919807Y-119355140D01*
X161857916Y-119322717D01*
X161856392Y-119321219D01*
X161523429Y-118988256D01*
X161106114Y-118570941D01*
X161103580Y-118568250D01*
X161062445Y-118521817D01*
X161062444Y-118521816D01*
X161062440Y-118521812D01*
X161011412Y-118486591D01*
X161008403Y-118484377D01*
X160959576Y-118446124D01*
X160959571Y-118446120D01*
X160950329Y-118441961D01*
X160930782Y-118430936D01*
X160922447Y-118425183D01*
X160922448Y-118425183D01*
X160922446Y-118425182D01*
X160864457Y-118403189D01*
X160861006Y-118401759D01*
X160804446Y-118376304D01*
X160794462Y-118374474D01*
X160772859Y-118368451D01*
X160763390Y-118364860D01*
X160763386Y-118364859D01*
X160701829Y-118357384D01*
X160698128Y-118356821D01*
X160637124Y-118345642D01*
X160637119Y-118345642D01*
X160575213Y-118349387D01*
X160571468Y-118349500D01*
X156958156Y-118349500D01*
X156891117Y-118329815D01*
X156885271Y-118325818D01*
X156802734Y-118265851D01*
X156802729Y-118265848D01*
X156629807Y-118188857D01*
X156629802Y-118188855D01*
X156484001Y-118157865D01*
X156444646Y-118149500D01*
X156255354Y-118149500D01*
X156222897Y-118156398D01*
X156070197Y-118188855D01*
X156070192Y-118188857D01*
X155897270Y-118265848D01*
X155897265Y-118265851D01*
X155744129Y-118377111D01*
X155617466Y-118517785D01*
X155522821Y-118681715D01*
X155522818Y-118681722D01*
X155464327Y-118861740D01*
X155464326Y-118861744D01*
X155444540Y-119050000D01*
X155464326Y-119238256D01*
X155464327Y-119238259D01*
X155522818Y-119418277D01*
X155522821Y-119418284D01*
X155617467Y-119582216D01*
X155723971Y-119700500D01*
X155744129Y-119722888D01*
X155897265Y-119834148D01*
X155897270Y-119834151D01*
X156070192Y-119911142D01*
X156070197Y-119911144D01*
X156255354Y-119950500D01*
X156255355Y-119950500D01*
X156444644Y-119950500D01*
X156444646Y-119950500D01*
X156629803Y-119911144D01*
X156802730Y-119834151D01*
X156867877Y-119786819D01*
X156885271Y-119774182D01*
X156951077Y-119750702D01*
X156958156Y-119750500D01*
X160252997Y-119750500D01*
X160320036Y-119770185D01*
X160340678Y-119786819D01*
X160757767Y-120203908D01*
X160791252Y-120265231D01*
X160786268Y-120334923D01*
X160744396Y-120390856D01*
X160678932Y-120415273D01*
X160670735Y-120415587D01*
X155270713Y-120443860D01*
X155270686Y-120443862D01*
X155164612Y-120455688D01*
X155164603Y-120455689D01*
X155164602Y-120455690D01*
X155148572Y-120459221D01*
X155113739Y-120466894D01*
X155113737Y-120466895D01*
X155012498Y-120500737D01*
X155012495Y-120500739D01*
X154891462Y-120578522D01*
X154891451Y-120578531D01*
X154838659Y-120624275D01*
X154744433Y-120733016D01*
X154744430Y-120733020D01*
X154684664Y-120863886D01*
X154664978Y-120930927D01*
X154664976Y-120930932D01*
X154657510Y-120982863D01*
X154646251Y-121061177D01*
X154644500Y-121073353D01*
X154644500Y-140325500D01*
X154624815Y-140392539D01*
X154572011Y-140438294D01*
X154520500Y-140449500D01*
X151786432Y-140449500D01*
X151719393Y-140429815D01*
X151673638Y-140377011D01*
X151663694Y-140307853D01*
X151687165Y-140251190D01*
X151690679Y-140246494D01*
X151693796Y-140242331D01*
X151744091Y-140107483D01*
X151750500Y-140047873D01*
X151750499Y-137952128D01*
X151744091Y-137892517D01*
X151693796Y-137757669D01*
X151693795Y-137757668D01*
X151693793Y-137757664D01*
X151607547Y-137642455D01*
X151607544Y-137642452D01*
X151492335Y-137556206D01*
X151492328Y-137556202D01*
X151357482Y-137505908D01*
X151357483Y-137505908D01*
X151297883Y-137499501D01*
X151297881Y-137499500D01*
X151297873Y-137499500D01*
X151297864Y-137499500D01*
X150302129Y-137499500D01*
X150302123Y-137499501D01*
X150242516Y-137505908D01*
X150107671Y-137556202D01*
X150107664Y-137556206D01*
X149992455Y-137642452D01*
X149992452Y-137642455D01*
X149906206Y-137757664D01*
X149906202Y-137757671D01*
X149855908Y-137892517D01*
X149850520Y-137942638D01*
X149849501Y-137952123D01*
X149849500Y-137952135D01*
X149849500Y-140047870D01*
X149849501Y-140047876D01*
X149855908Y-140107483D01*
X149906202Y-140242328D01*
X149906206Y-140242334D01*
X149912835Y-140251190D01*
X149937252Y-140316654D01*
X149922400Y-140384927D01*
X149872995Y-140434332D01*
X149813568Y-140449500D01*
X143929500Y-140449500D01*
X143862461Y-140429815D01*
X143816706Y-140377011D01*
X143805500Y-140325500D01*
X143805500Y-130664506D01*
X143821354Y-130603839D01*
X144036840Y-130219712D01*
X146024708Y-126676122D01*
X146073514Y-126554303D01*
X146089362Y-126492466D01*
X146105166Y-126362200D01*
X146056643Y-121218862D01*
X146044242Y-121112251D01*
X146032705Y-121061177D01*
X145998069Y-120959574D01*
X145919495Y-120839044D01*
X145873397Y-120786539D01*
X145764053Y-120693031D01*
X145632789Y-120634113D01*
X145632785Y-120634111D01*
X145632781Y-120634110D01*
X145632783Y-120634110D01*
X145576484Y-120617976D01*
X145570009Y-120615465D01*
X145423075Y-120595314D01*
X130298190Y-120693708D01*
X130298170Y-120693709D01*
X130192421Y-120705601D01*
X130192407Y-120705603D01*
X130192405Y-120705604D01*
X130167054Y-120711205D01*
X130141703Y-120716807D01*
X130141695Y-120716809D01*
X130040783Y-120750579D01*
X130040772Y-120750584D01*
X129919749Y-120828361D01*
X129919732Y-120828374D01*
X129866940Y-120874118D01*
X129772714Y-120982859D01*
X129772711Y-120982863D01*
X129712945Y-121113729D01*
X129693259Y-121180770D01*
X129693257Y-121180775D01*
X129672781Y-121323196D01*
X129672781Y-140325500D01*
X129653096Y-140392539D01*
X129600292Y-140438294D01*
X129548781Y-140449500D01*
X125586432Y-140449500D01*
X125519393Y-140429815D01*
X125473638Y-140377011D01*
X125463694Y-140307853D01*
X125487165Y-140251190D01*
X125490679Y-140246494D01*
X125493796Y-140242331D01*
X125544091Y-140107483D01*
X125550500Y-140047873D01*
X125550499Y-137952128D01*
X125544091Y-137892517D01*
X125493796Y-137757669D01*
X125493795Y-137757668D01*
X125493793Y-137757664D01*
X125407547Y-137642455D01*
X125407544Y-137642452D01*
X125292335Y-137556206D01*
X125292328Y-137556202D01*
X125157482Y-137505908D01*
X125157483Y-137505908D01*
X125097883Y-137499501D01*
X125097881Y-137499500D01*
X125097873Y-137499500D01*
X125097864Y-137499500D01*
X124102129Y-137499500D01*
X124102123Y-137499501D01*
X124042516Y-137505908D01*
X123907671Y-137556202D01*
X123907664Y-137556206D01*
X123792455Y-137642452D01*
X123792452Y-137642455D01*
X123706206Y-137757664D01*
X123706202Y-137757671D01*
X123655908Y-137892517D01*
X123650520Y-137942638D01*
X123649501Y-137952123D01*
X123649500Y-137952135D01*
X123649500Y-140047870D01*
X123649501Y-140047876D01*
X123655908Y-140107483D01*
X123706202Y-140242328D01*
X123706206Y-140242334D01*
X123712835Y-140251190D01*
X123737252Y-140316654D01*
X123722400Y-140384927D01*
X123672995Y-140434332D01*
X123613568Y-140449500D01*
X118149500Y-140449500D01*
X118082461Y-140429815D01*
X118036706Y-140377011D01*
X118025500Y-140325500D01*
X118025500Y-119974009D01*
X118025500Y-119974000D01*
X118013947Y-119866544D01*
X118002741Y-119815033D01*
X118002637Y-119814722D01*
X117968616Y-119712502D01*
X117968613Y-119712496D01*
X117890828Y-119591462D01*
X117890825Y-119591457D01*
X117890820Y-119591451D01*
X117845076Y-119538659D01*
X117845072Y-119538656D01*
X117845070Y-119538653D01*
X117736336Y-119444433D01*
X117736333Y-119444431D01*
X117736331Y-119444430D01*
X117605465Y-119384664D01*
X117605460Y-119384662D01*
X117605459Y-119384662D01*
X117582858Y-119378025D01*
X117538425Y-119364978D01*
X117538419Y-119364976D01*
X117452966Y-119352690D01*
X117396000Y-119344500D01*
X105124000Y-119344500D01*
X105123991Y-119344500D01*
X105123990Y-119344501D01*
X105016549Y-119356052D01*
X105016537Y-119356054D01*
X104965027Y-119367260D01*
X104862502Y-119401383D01*
X104862496Y-119401386D01*
X104741462Y-119479171D01*
X104741451Y-119479179D01*
X104688659Y-119524923D01*
X104594433Y-119633664D01*
X104594430Y-119633668D01*
X104534664Y-119764534D01*
X104514978Y-119831575D01*
X104514976Y-119831580D01*
X104503537Y-119911142D01*
X104494502Y-119973990D01*
X104494500Y-119974001D01*
X104494500Y-140325500D01*
X104474815Y-140392539D01*
X104422011Y-140438294D01*
X104370500Y-140449500D01*
X99386432Y-140449500D01*
X99319393Y-140429815D01*
X99273638Y-140377011D01*
X99263694Y-140307853D01*
X99287165Y-140251190D01*
X99290679Y-140246494D01*
X99293796Y-140242331D01*
X99344091Y-140107483D01*
X99350500Y-140047873D01*
X99350499Y-137952128D01*
X99344091Y-137892517D01*
X99293796Y-137757669D01*
X99293795Y-137757668D01*
X99293793Y-137757664D01*
X99207547Y-137642455D01*
X99207544Y-137642452D01*
X99092335Y-137556206D01*
X99092328Y-137556202D01*
X98957482Y-137505908D01*
X98957483Y-137505908D01*
X98897883Y-137499501D01*
X98897881Y-137499500D01*
X98897873Y-137499500D01*
X98897864Y-137499500D01*
X97902129Y-137499500D01*
X97902123Y-137499501D01*
X97842516Y-137505908D01*
X97707671Y-137556202D01*
X97707664Y-137556206D01*
X97592455Y-137642452D01*
X97592452Y-137642455D01*
X97506206Y-137757664D01*
X97506202Y-137757671D01*
X97455908Y-137892517D01*
X97450520Y-137942638D01*
X97449501Y-137952123D01*
X97449500Y-137952135D01*
X97449500Y-140047870D01*
X97449501Y-140047876D01*
X97455908Y-140107483D01*
X97506202Y-140242328D01*
X97506206Y-140242334D01*
X97512835Y-140251190D01*
X97537252Y-140316654D01*
X97522400Y-140384927D01*
X97472995Y-140434332D01*
X97413568Y-140449500D01*
X91761680Y-140449500D01*
X91694641Y-140429815D01*
X91648886Y-140377011D01*
X91637681Y-140324986D01*
X91711343Y-122553881D01*
X91711343Y-122553880D01*
X91710338Y-122530280D01*
X91710338Y-122530277D01*
X91707222Y-122495470D01*
X91700821Y-122448693D01*
X91658675Y-122323824D01*
X91655887Y-122254010D01*
X91691286Y-122193771D01*
X91712229Y-122177922D01*
X92014919Y-121995800D01*
X92299837Y-121779211D01*
X92559668Y-121533086D01*
X92791365Y-121260311D01*
X92992211Y-120964085D01*
X93159853Y-120647880D01*
X93292324Y-120315403D01*
X93388071Y-119970552D01*
X93413568Y-119815027D01*
X93445970Y-119617385D01*
X93445970Y-119617382D01*
X93445972Y-119617371D01*
X93463694Y-119290488D01*
X93465348Y-119260002D01*
X93465348Y-119259997D01*
X93453962Y-119049999D01*
X93445972Y-118902629D01*
X93439269Y-118861744D01*
X93429147Y-118800000D01*
X130394540Y-118800000D01*
X130414326Y-118988256D01*
X130414327Y-118988259D01*
X130472818Y-119168277D01*
X130472821Y-119168284D01*
X130567467Y-119332216D01*
X130660321Y-119435340D01*
X130694129Y-119472888D01*
X130847265Y-119584148D01*
X130847270Y-119584151D01*
X131020192Y-119661142D01*
X131020197Y-119661144D01*
X131205354Y-119700500D01*
X131205355Y-119700500D01*
X131394644Y-119700500D01*
X131394646Y-119700500D01*
X131579803Y-119661144D01*
X131752730Y-119584151D01*
X131905871Y-119472888D01*
X131905874Y-119472883D01*
X131910701Y-119468539D01*
X131912391Y-119470416D01*
X131962242Y-119439715D01*
X131994888Y-119435340D01*
X140313563Y-119435340D01*
X140380602Y-119455025D01*
X140386448Y-119459022D01*
X140468984Y-119518988D01*
X140468989Y-119518991D01*
X140641911Y-119595982D01*
X140641916Y-119595984D01*
X140827073Y-119635340D01*
X140827074Y-119635340D01*
X141016363Y-119635340D01*
X141016365Y-119635340D01*
X141201522Y-119595984D01*
X141374449Y-119518991D01*
X141527590Y-119407728D01*
X141654252Y-119267056D01*
X141748898Y-119103124D01*
X141807393Y-118923096D01*
X141827179Y-118734840D01*
X141807393Y-118546584D01*
X141748898Y-118366556D01*
X141654252Y-118202624D01*
X141527590Y-118061952D01*
X141527589Y-118061951D01*
X141374453Y-117950691D01*
X141374448Y-117950688D01*
X141201526Y-117873697D01*
X141201521Y-117873695D01*
X141055720Y-117842705D01*
X141016365Y-117834340D01*
X140827073Y-117834340D01*
X140794616Y-117841238D01*
X140641916Y-117873695D01*
X140641911Y-117873697D01*
X140468989Y-117950688D01*
X140468984Y-117950691D01*
X140386448Y-118010658D01*
X140320642Y-118034138D01*
X140313563Y-118034340D01*
X131817983Y-118034340D01*
X131758683Y-118018451D01*
X131758666Y-118018492D01*
X131758411Y-118018378D01*
X131755987Y-118017729D01*
X131752732Y-118015850D01*
X131579807Y-117938857D01*
X131579802Y-117938855D01*
X131434000Y-117907865D01*
X131394646Y-117899500D01*
X131205354Y-117899500D01*
X131172897Y-117906398D01*
X131020197Y-117938855D01*
X131020192Y-117938857D01*
X130847270Y-118015848D01*
X130847265Y-118015851D01*
X130694129Y-118127111D01*
X130567466Y-118267785D01*
X130472821Y-118431715D01*
X130472818Y-118431722D01*
X130414327Y-118611740D01*
X130414326Y-118611744D01*
X130394540Y-118800000D01*
X93429147Y-118800000D01*
X93388073Y-118549460D01*
X93388072Y-118549459D01*
X93388071Y-118549448D01*
X93331485Y-118345642D01*
X93292327Y-118204607D01*
X93292325Y-118204600D01*
X93286052Y-118188857D01*
X93217120Y-118015849D01*
X93159857Y-117872129D01*
X93159848Y-117872111D01*
X92992215Y-117555922D01*
X92992213Y-117555919D01*
X92992211Y-117555915D01*
X92791365Y-117259689D01*
X92791361Y-117259684D01*
X92791358Y-117259680D01*
X92559668Y-116986914D01*
X92342064Y-116780789D01*
X92299837Y-116740789D01*
X92299830Y-116740783D01*
X92299827Y-116740781D01*
X92232245Y-116689407D01*
X92014919Y-116524200D01*
X91736760Y-116356837D01*
X91689465Y-116305408D01*
X91677483Y-116236573D01*
X91688110Y-116198608D01*
X91697610Y-116178034D01*
X91717572Y-116111077D01*
X91738638Y-115968748D01*
X91768741Y-108706610D01*
X181949500Y-108706610D01*
X181988679Y-108916198D01*
X182065702Y-109115019D01*
X182177948Y-109296302D01*
X182321593Y-109453872D01*
X182491746Y-109582367D01*
X182682606Y-109677403D01*
X182682608Y-109677403D01*
X182682611Y-109677405D01*
X182887690Y-109735756D01*
X183046806Y-109750500D01*
X183046810Y-109750500D01*
X184453190Y-109750500D01*
X184453194Y-109750500D01*
X184612310Y-109735756D01*
X184817389Y-109677405D01*
X184817393Y-109677403D01*
X184817394Y-109677403D01*
X185008253Y-109582367D01*
X185008253Y-109582366D01*
X185008255Y-109582366D01*
X185178407Y-109453872D01*
X185322052Y-109296302D01*
X185434298Y-109115019D01*
X185511321Y-108916198D01*
X185550500Y-108706610D01*
X185550500Y-108493390D01*
X185511321Y-108283802D01*
X185434298Y-108084981D01*
X185322052Y-107903698D01*
X185178407Y-107746128D01*
X185178406Y-107746127D01*
X185008253Y-107617632D01*
X184817393Y-107522596D01*
X184612310Y-107464244D01*
X184612309Y-107464244D01*
X184453194Y-107449500D01*
X183046806Y-107449500D01*
X182919513Y-107461295D01*
X182887689Y-107464244D01*
X182682607Y-107522596D01*
X182682605Y-107522596D01*
X182491746Y-107617632D01*
X182321593Y-107746127D01*
X182177947Y-107903699D01*
X182065702Y-108084980D01*
X182065701Y-108084982D01*
X181988680Y-108283799D01*
X181988679Y-108283802D01*
X181949500Y-108493390D01*
X181949500Y-108706610D01*
X91768741Y-108706610D01*
X91834980Y-92726609D01*
X91823652Y-92618081D01*
X91812447Y-92566056D01*
X91791776Y-92503734D01*
X91778099Y-92462497D01*
X91700318Y-92341468D01*
X91700305Y-92341451D01*
X91654561Y-92288659D01*
X91654557Y-92288656D01*
X91654555Y-92288653D01*
X91545821Y-92194433D01*
X91545818Y-92194431D01*
X91545816Y-92194430D01*
X91414950Y-92134664D01*
X91414945Y-92134662D01*
X91414944Y-92134662D01*
X91392343Y-92128025D01*
X91347910Y-92114978D01*
X91347904Y-92114976D01*
X91259374Y-92102248D01*
X91205485Y-92094500D01*
X78923615Y-92094500D01*
X78923614Y-92094500D01*
X78851017Y-92102248D01*
X78782267Y-92089789D01*
X78731167Y-92042139D01*
X78713858Y-91978772D01*
X78718510Y-88750000D01*
X97894540Y-88750000D01*
X97914326Y-88938256D01*
X97914327Y-88938259D01*
X97972818Y-89118277D01*
X97972821Y-89118284D01*
X98067467Y-89282216D01*
X98109381Y-89328766D01*
X98194129Y-89422888D01*
X98347265Y-89534148D01*
X98347270Y-89534151D01*
X98520192Y-89611142D01*
X98520197Y-89611144D01*
X98705354Y-89650500D01*
X98705355Y-89650500D01*
X98894644Y-89650500D01*
X98894646Y-89650500D01*
X99079803Y-89611144D01*
X99252730Y-89534151D01*
X99268320Y-89522823D01*
X99335271Y-89474182D01*
X99401077Y-89450702D01*
X99408156Y-89450500D01*
X113791844Y-89450500D01*
X113858883Y-89470185D01*
X113864729Y-89474182D01*
X113947265Y-89534148D01*
X113947270Y-89534151D01*
X114120192Y-89611142D01*
X114120197Y-89611144D01*
X114305354Y-89650500D01*
X114305355Y-89650500D01*
X114494643Y-89650500D01*
X114494646Y-89650500D01*
X114564793Y-89635589D01*
X114634455Y-89640904D01*
X114690189Y-89683040D01*
X114695181Y-89690300D01*
X114729444Y-89744133D01*
X114729448Y-89744140D01*
X114774968Y-89797142D01*
X114774969Y-89797143D01*
X114883287Y-89891840D01*
X114933330Y-89914961D01*
X115013896Y-89952185D01*
X115013897Y-89952185D01*
X115013901Y-89952187D01*
X115080853Y-89972167D01*
X115080854Y-89972167D01*
X115223179Y-89993271D01*
X115223198Y-89993271D01*
X115226213Y-89993500D01*
X115227172Y-89993862D01*
X115227560Y-89993920D01*
X115227547Y-89994004D01*
X115291571Y-90018199D01*
X115333201Y-90074312D01*
X115337886Y-90144025D01*
X115304515Y-90204826D01*
X110970966Y-94538375D01*
X110968240Y-94540942D01*
X110921818Y-94582068D01*
X110886586Y-94633109D01*
X110884368Y-94636124D01*
X110846124Y-94684939D01*
X110846119Y-94684948D01*
X110841960Y-94694188D01*
X110830942Y-94713723D01*
X110825187Y-94722061D01*
X110825183Y-94722067D01*
X110825182Y-94722070D01*
X110825180Y-94722074D01*
X110825179Y-94722077D01*
X110803189Y-94780055D01*
X110801757Y-94783513D01*
X110776305Y-94840068D01*
X110774477Y-94850042D01*
X110768453Y-94871653D01*
X110764860Y-94881127D01*
X110764859Y-94881128D01*
X110757384Y-94942685D01*
X110756821Y-94946386D01*
X110745642Y-95007390D01*
X110745642Y-95007395D01*
X110749387Y-95069302D01*
X110749500Y-95073047D01*
X110749500Y-104134608D01*
X110729815Y-104201647D01*
X110717656Y-104217574D01*
X110717468Y-104217782D01*
X110717464Y-104217787D01*
X110622821Y-104381715D01*
X110622818Y-104381722D01*
X110564327Y-104561740D01*
X110564326Y-104561744D01*
X110544540Y-104750000D01*
X110564326Y-104938256D01*
X110564327Y-104938259D01*
X110622818Y-105118277D01*
X110622821Y-105118284D01*
X110717467Y-105282216D01*
X110816783Y-105392517D01*
X110844129Y-105422888D01*
X110997265Y-105534148D01*
X110997270Y-105534151D01*
X111170192Y-105611142D01*
X111170197Y-105611144D01*
X111355354Y-105650500D01*
X111355355Y-105650500D01*
X111544644Y-105650500D01*
X111544646Y-105650500D01*
X111729803Y-105611144D01*
X111902730Y-105534151D01*
X112055871Y-105422888D01*
X112182533Y-105282216D01*
X112277179Y-105118284D01*
X112335674Y-104938256D01*
X112355460Y-104750000D01*
X112335674Y-104561744D01*
X112277179Y-104381716D01*
X112182533Y-104217784D01*
X112182344Y-104217574D01*
X112182273Y-104217427D01*
X112178714Y-104212528D01*
X112179610Y-104211876D01*
X112152119Y-104154580D01*
X112150500Y-104134608D01*
X112150500Y-95391518D01*
X112170185Y-95324479D01*
X112186814Y-95303842D01*
X118479056Y-89011599D01*
X118481748Y-89009065D01*
X118528183Y-88967929D01*
X118563417Y-88916883D01*
X118565620Y-88913887D01*
X118603878Y-88865056D01*
X118608037Y-88855813D01*
X118619061Y-88836268D01*
X118624818Y-88827930D01*
X118646810Y-88769939D01*
X118648232Y-88766503D01*
X118673695Y-88709931D01*
X118675522Y-88699959D01*
X118681546Y-88678347D01*
X118685140Y-88668872D01*
X118692613Y-88607324D01*
X118693177Y-88603619D01*
X118696535Y-88585289D01*
X118704358Y-88542606D01*
X118700613Y-88480696D01*
X118700500Y-88476951D01*
X118700500Y-85365391D01*
X118720185Y-85298352D01*
X118732352Y-85282417D01*
X118732533Y-85282216D01*
X118827179Y-85118284D01*
X118885674Y-84938256D01*
X118905460Y-84750000D01*
X118885674Y-84561744D01*
X118827179Y-84381716D01*
X118732533Y-84217784D01*
X118605871Y-84077112D01*
X118582147Y-84059875D01*
X118539482Y-84004544D01*
X118533504Y-83934931D01*
X118536476Y-83923227D01*
X118551232Y-83875071D01*
X118551234Y-83875066D01*
X118573383Y-83732906D01*
X118586430Y-82623908D01*
X118603989Y-81131420D01*
X118603988Y-81131418D01*
X118603989Y-81131406D01*
X118593095Y-81020915D01*
X118592019Y-81015823D01*
X118597418Y-80946162D01*
X118639620Y-80890478D01*
X118705228Y-80866451D01*
X118713340Y-80866185D01*
X120408801Y-80866185D01*
X120475840Y-80885870D01*
X120521595Y-80938674D01*
X120531601Y-81007395D01*
X120514944Y-81126240D01*
X120522741Y-83322092D01*
X120522741Y-83322091D01*
X120524303Y-83349273D01*
X120524304Y-83349275D01*
X120528309Y-83385132D01*
X120516190Y-83453942D01*
X120468792Y-83505277D01*
X120455519Y-83512175D01*
X120447270Y-83515848D01*
X120294129Y-83627111D01*
X120167466Y-83767785D01*
X120072821Y-83931715D01*
X120072818Y-83931722D01*
X120014327Y-84111740D01*
X120014326Y-84111744D01*
X119994540Y-84300000D01*
X120014326Y-84488256D01*
X120014327Y-84488259D01*
X120072818Y-84668277D01*
X120072821Y-84668284D01*
X120167464Y-84832212D01*
X120167468Y-84832217D01*
X120202250Y-84870847D01*
X120221199Y-84904006D01*
X120223228Y-84903094D01*
X120226304Y-84909930D01*
X120226305Y-84909932D01*
X120239054Y-84938259D01*
X120251760Y-84966491D01*
X120253193Y-84969951D01*
X120275182Y-85027930D01*
X120275183Y-85027931D01*
X120280936Y-85036266D01*
X120291961Y-85055813D01*
X120296120Y-85065055D01*
X120296124Y-85065060D01*
X120334371Y-85113878D01*
X120336591Y-85116896D01*
X120371812Y-85167924D01*
X120371816Y-85167928D01*
X120371817Y-85167929D01*
X120418250Y-85209064D01*
X120420941Y-85211598D01*
X120574734Y-85365391D01*
X120720125Y-85510782D01*
X120753610Y-85572105D01*
X120748626Y-85641797D01*
X120726446Y-85679331D01*
X120631431Y-85789776D01*
X120572128Y-85920861D01*
X120552681Y-85987973D01*
X120552680Y-85987975D01*
X120532710Y-86130465D01*
X120544065Y-89328763D01*
X120555572Y-89434221D01*
X120555577Y-89434248D01*
X120566554Y-89484801D01*
X120566558Y-89484819D01*
X120599825Y-89585560D01*
X120599828Y-89585567D01*
X120677084Y-89706927D01*
X120677096Y-89706943D01*
X120722611Y-89759931D01*
X120722611Y-89759930D01*
X120722619Y-89759939D01*
X120722621Y-89759941D01*
X120722631Y-89759951D01*
X120790583Y-89819345D01*
X120830952Y-89854630D01*
X120830953Y-89854630D01*
X120830954Y-89854631D01*
X120961566Y-89914961D01*
X120961567Y-89914961D01*
X120961571Y-89914963D01*
X121028525Y-89934936D01*
X121170849Y-89956025D01*
X128815715Y-89988976D01*
X128882668Y-90008949D01*
X128928195Y-90061950D01*
X128933111Y-90074656D01*
X128963531Y-90168280D01*
X128963533Y-90168284D01*
X129032887Y-90288408D01*
X129049500Y-90350408D01*
X129049499Y-104965678D01*
X129032886Y-105027677D01*
X128972822Y-105131711D01*
X128972821Y-105131713D01*
X128931896Y-105257669D01*
X128914326Y-105311744D01*
X128894540Y-105500000D01*
X128914326Y-105688256D01*
X128914327Y-105688259D01*
X128972818Y-105868277D01*
X128972821Y-105868284D01*
X129067467Y-106032216D01*
X129194129Y-106172887D01*
X129194129Y-106172888D01*
X129347265Y-106284148D01*
X129347270Y-106284151D01*
X129520192Y-106361142D01*
X129520197Y-106361144D01*
X129705354Y-106400500D01*
X129705355Y-106400500D01*
X129894644Y-106400500D01*
X129894646Y-106400500D01*
X130079803Y-106361144D01*
X130252730Y-106284151D01*
X130405871Y-106172888D01*
X130532533Y-106032216D01*
X130627179Y-105868284D01*
X130685674Y-105688256D01*
X130705460Y-105500000D01*
X130685674Y-105311744D01*
X130627179Y-105131716D01*
X130567112Y-105027677D01*
X130532535Y-104967787D01*
X130532534Y-104967786D01*
X130532533Y-104967784D01*
X130516135Y-104949572D01*
X130485907Y-104886584D01*
X130485195Y-104881588D01*
X130485140Y-104881128D01*
X130481548Y-104871656D01*
X130475521Y-104850034D01*
X130473695Y-104840069D01*
X130461424Y-104812803D01*
X130450500Y-104761913D01*
X130450500Y-90460606D01*
X130470185Y-90393567D01*
X130482343Y-90377640D01*
X130523245Y-90332216D01*
X130617891Y-90168284D01*
X130645583Y-90083055D01*
X130685020Y-90025380D01*
X130749378Y-89998181D01*
X130764034Y-89997374D01*
X132524743Y-90004964D01*
X132630398Y-89994265D01*
X132681113Y-89983659D01*
X132782206Y-89951120D01*
X132904152Y-89874762D01*
X132956136Y-89830776D01*
X132956961Y-89830119D01*
X132957496Y-89829627D01*
X133019329Y-89759939D01*
X133052988Y-89722005D01*
X133114292Y-89591839D01*
X133134763Y-89525036D01*
X133156912Y-89382876D01*
X133211597Y-84734655D01*
X133211341Y-84719921D01*
X133210320Y-84698002D01*
X133209209Y-84683341D01*
X133199186Y-84587959D01*
X133199186Y-84562039D01*
X133199218Y-84561740D01*
X133213303Y-84427723D01*
X133214258Y-84416037D01*
X133215278Y-84398556D01*
X133215691Y-84386794D01*
X133223182Y-83750000D01*
X133844540Y-83750000D01*
X133864326Y-83938256D01*
X133864327Y-83938259D01*
X133922818Y-84118277D01*
X133922821Y-84118284D01*
X134017467Y-84282216D01*
X134107063Y-84381722D01*
X134144129Y-84422888D01*
X134297265Y-84534148D01*
X134297270Y-84534151D01*
X134470191Y-84611142D01*
X134470193Y-84611142D01*
X134470197Y-84611144D01*
X134625130Y-84644075D01*
X134686607Y-84677266D01*
X134687025Y-84677682D01*
X149788399Y-99779056D01*
X149790935Y-99781750D01*
X149832071Y-99828183D01*
X149883121Y-99863421D01*
X149886117Y-99865626D01*
X149916455Y-99889394D01*
X149932126Y-99904028D01*
X149994128Y-99972887D01*
X149994135Y-99972893D01*
X150147265Y-100084148D01*
X150147270Y-100084151D01*
X150320192Y-100161142D01*
X150320197Y-100161144D01*
X150505354Y-100200500D01*
X150505355Y-100200500D01*
X150694644Y-100200500D01*
X150694646Y-100200500D01*
X150879803Y-100161144D01*
X151052730Y-100084151D01*
X151205871Y-99972888D01*
X151332533Y-99832216D01*
X151427179Y-99668284D01*
X151485674Y-99488256D01*
X151505460Y-99300000D01*
X151485674Y-99111744D01*
X151427179Y-98931716D01*
X151332533Y-98767784D01*
X151205871Y-98627112D01*
X151205870Y-98627111D01*
X151052734Y-98515851D01*
X151052729Y-98515848D01*
X150879807Y-98438857D01*
X150879802Y-98438855D01*
X150698781Y-98400379D01*
X150694646Y-98399500D01*
X150505354Y-98399500D01*
X150505350Y-98399500D01*
X150476205Y-98405695D01*
X150406538Y-98400379D01*
X150362743Y-98372086D01*
X145690660Y-93700003D01*
X171386486Y-93700003D01*
X171406524Y-94044043D01*
X171406525Y-94044054D01*
X171466364Y-94383415D01*
X171466367Y-94383429D01*
X171565207Y-94713580D01*
X171701703Y-95030014D01*
X171701709Y-95030027D01*
X171874020Y-95328479D01*
X172079813Y-95604906D01*
X172079818Y-95604912D01*
X172201958Y-95734372D01*
X172316313Y-95855582D01*
X172580312Y-96077103D01*
X172868243Y-96266478D01*
X173176212Y-96421146D01*
X173500055Y-96539015D01*
X173548290Y-96550447D01*
X173835375Y-96618489D01*
X173835382Y-96618490D01*
X173835391Y-96618492D01*
X174177687Y-96658500D01*
X174177694Y-96658500D01*
X174522306Y-96658500D01*
X174522313Y-96658500D01*
X174864609Y-96618492D01*
X174864618Y-96618489D01*
X174864624Y-96618489D01*
X175065810Y-96570805D01*
X175199945Y-96539015D01*
X175523788Y-96421146D01*
X175831757Y-96266478D01*
X176119688Y-96077103D01*
X176383687Y-95855582D01*
X176620183Y-95604910D01*
X176825980Y-95328478D01*
X176998293Y-95030023D01*
X177134792Y-94713581D01*
X177197325Y-94504705D01*
X179549500Y-94504705D01*
X179549501Y-96695293D01*
X179559718Y-96840027D01*
X179559718Y-96840031D01*
X179559719Y-96840034D01*
X179559720Y-96840038D01*
X179613834Y-97080314D01*
X179613835Y-97080319D01*
X179705795Y-97308809D01*
X179833216Y-97519589D01*
X179833219Y-97519592D01*
X179992798Y-97707201D01*
X180102990Y-97800930D01*
X180180411Y-97866784D01*
X180391191Y-97994205D01*
X180619683Y-98086165D01*
X180859966Y-98140281D01*
X181004705Y-98150500D01*
X183195294Y-98150499D01*
X183340034Y-98140281D01*
X183580317Y-98086165D01*
X183808809Y-97994205D01*
X184019589Y-97866784D01*
X184207201Y-97707201D01*
X184366784Y-97519589D01*
X184494205Y-97308809D01*
X184586165Y-97080317D01*
X184640281Y-96840034D01*
X184650500Y-96695295D01*
X184650499Y-94504706D01*
X184640281Y-94359966D01*
X184586165Y-94119683D01*
X184494205Y-93891191D01*
X184366784Y-93680411D01*
X184300930Y-93602990D01*
X184207201Y-93492798D01*
X184032027Y-93343796D01*
X184019589Y-93333216D01*
X183808809Y-93205795D01*
X183651121Y-93142331D01*
X183580318Y-93113835D01*
X183340036Y-93059719D01*
X183340029Y-93059718D01*
X183195295Y-93049500D01*
X181004706Y-93049501D01*
X180988915Y-93050615D01*
X180859972Y-93059718D01*
X180859966Y-93059718D01*
X180859966Y-93059719D01*
X180859963Y-93059719D01*
X180859961Y-93059720D01*
X180619685Y-93113834D01*
X180619680Y-93113835D01*
X180391190Y-93205795D01*
X180391185Y-93205798D01*
X180180417Y-93333212D01*
X180180407Y-93333219D01*
X179992798Y-93492798D01*
X179833219Y-93680407D01*
X179833212Y-93680417D01*
X179705798Y-93891185D01*
X179705795Y-93891190D01*
X179613835Y-94119680D01*
X179613835Y-94119682D01*
X179559719Y-94359963D01*
X179559718Y-94359970D01*
X179549500Y-94504705D01*
X177197325Y-94504705D01*
X177233632Y-94383433D01*
X177293476Y-94044043D01*
X177313514Y-93700000D01*
X177312373Y-93680417D01*
X177296070Y-93400500D01*
X177293476Y-93355957D01*
X177289465Y-93333212D01*
X177233635Y-93016584D01*
X177233634Y-93016583D01*
X177233632Y-93016567D01*
X177134792Y-92686419D01*
X176998293Y-92369977D01*
X176862138Y-92134149D01*
X176825979Y-92071520D01*
X176620186Y-91795093D01*
X176620181Y-91795087D01*
X176471689Y-91637695D01*
X176383687Y-91544418D01*
X176119688Y-91322897D01*
X175831757Y-91133522D01*
X175826539Y-91130901D01*
X175523795Y-90978857D01*
X175523789Y-90978854D01*
X175199957Y-90860989D01*
X175199948Y-90860986D01*
X175199945Y-90860985D01*
X175199942Y-90860984D01*
X175199935Y-90860982D01*
X174864624Y-90781510D01*
X174864609Y-90781508D01*
X174864609Y-90781507D01*
X174522313Y-90741500D01*
X174177687Y-90741500D01*
X173878177Y-90776507D01*
X173835390Y-90781508D01*
X173835375Y-90781510D01*
X173500064Y-90860982D01*
X173500042Y-90860989D01*
X173176210Y-90978854D01*
X173176204Y-90978857D01*
X172868246Y-91133520D01*
X172580313Y-91322896D01*
X172316311Y-91544419D01*
X172316311Y-91544420D01*
X172079818Y-91795087D01*
X172079813Y-91795093D01*
X171874020Y-92071520D01*
X171701709Y-92369972D01*
X171701703Y-92369985D01*
X171565207Y-92686419D01*
X171466367Y-93016570D01*
X171466364Y-93016584D01*
X171406525Y-93355945D01*
X171406524Y-93355956D01*
X171386486Y-93699996D01*
X171386486Y-93700003D01*
X145690660Y-93700003D01*
X141797267Y-89806610D01*
X181949500Y-89806610D01*
X181988679Y-90016198D01*
X181988680Y-90016200D01*
X182047596Y-90168283D01*
X182065702Y-90215019D01*
X182177948Y-90396302D01*
X182321593Y-90553872D01*
X182491746Y-90682367D01*
X182682606Y-90777403D01*
X182682608Y-90777403D01*
X182682611Y-90777405D01*
X182887690Y-90835756D01*
X183046806Y-90850500D01*
X183046810Y-90850500D01*
X184453190Y-90850500D01*
X184453194Y-90850500D01*
X184612310Y-90835756D01*
X184817389Y-90777405D01*
X184817393Y-90777403D01*
X184817394Y-90777403D01*
X185008253Y-90682367D01*
X185008253Y-90682366D01*
X185008255Y-90682366D01*
X185178407Y-90553872D01*
X185322052Y-90396302D01*
X185434298Y-90215019D01*
X185511321Y-90016198D01*
X185550500Y-89806610D01*
X185550500Y-89593390D01*
X185511321Y-89383802D01*
X185434298Y-89184981D01*
X185322052Y-89003698D01*
X185178407Y-88846128D01*
X185165344Y-88836263D01*
X185008253Y-88717632D01*
X184817393Y-88622596D01*
X184612310Y-88564244D01*
X184585330Y-88561744D01*
X184453194Y-88549500D01*
X183046806Y-88549500D01*
X182919513Y-88561295D01*
X182887689Y-88564244D01*
X182682607Y-88622596D01*
X182682605Y-88622596D01*
X182491746Y-88717632D01*
X182321593Y-88846127D01*
X182177947Y-89003699D01*
X182065702Y-89184980D01*
X182065701Y-89184982D01*
X182028034Y-89282214D01*
X181988679Y-89383802D01*
X181949500Y-89593390D01*
X181949500Y-89806610D01*
X141797267Y-89806610D01*
X135676503Y-83685846D01*
X135643018Y-83624523D01*
X135640865Y-83611143D01*
X135635674Y-83561744D01*
X135620761Y-83515848D01*
X135577181Y-83381722D01*
X135577180Y-83381721D01*
X135577179Y-83381716D01*
X135482533Y-83217784D01*
X135355871Y-83077112D01*
X135355870Y-83077111D01*
X135202734Y-82965851D01*
X135202729Y-82965848D01*
X135029807Y-82888857D01*
X135029802Y-82888855D01*
X134884000Y-82857865D01*
X134844646Y-82849500D01*
X134655354Y-82849500D01*
X134622897Y-82856398D01*
X134470197Y-82888855D01*
X134470192Y-82888857D01*
X134297270Y-82965848D01*
X134297265Y-82965851D01*
X134144129Y-83077111D01*
X134017466Y-83217785D01*
X133922821Y-83381715D01*
X133922818Y-83381722D01*
X133879238Y-83515849D01*
X133864326Y-83561744D01*
X133844540Y-83750000D01*
X133223182Y-83750000D01*
X133225937Y-83515848D01*
X133253989Y-81131420D01*
X133253988Y-81131418D01*
X133253989Y-81131406D01*
X133243095Y-81020915D01*
X133242019Y-81015823D01*
X133247418Y-80946162D01*
X133289620Y-80890478D01*
X133355228Y-80866451D01*
X133363340Y-80866185D01*
X158043275Y-80866185D01*
X158043279Y-80866185D01*
X158227003Y-80833790D01*
X158402311Y-80769983D01*
X158563875Y-80676704D01*
X158706787Y-80556787D01*
X158826704Y-80413875D01*
X158919983Y-80252311D01*
X158983790Y-80077003D01*
X159016185Y-79893279D01*
X159016185Y-79800000D01*
X159016185Y-79734108D01*
X159016185Y-76120936D01*
X182770631Y-76120936D01*
X182801442Y-76322063D01*
X182801445Y-76322075D01*
X182872111Y-76512881D01*
X182872115Y-76512888D01*
X182979745Y-76685567D01*
X182979747Y-76685569D01*
X182979748Y-76685571D01*
X183119941Y-76833053D01*
X183214772Y-76899057D01*
X183286949Y-76949294D01*
X183286950Y-76949294D01*
X183286951Y-76949295D01*
X183473942Y-77029540D01*
X183673259Y-77070500D01*
X184925743Y-77070500D01*
X185077439Y-77055074D01*
X185271579Y-76994162D01*
X185271580Y-76994161D01*
X185271588Y-76994159D01*
X185449502Y-76895409D01*
X185603895Y-76762866D01*
X185728448Y-76601958D01*
X185818060Y-76419271D01*
X185869063Y-76222285D01*
X185879369Y-76019064D01*
X185848556Y-75817929D01*
X185777886Y-75627113D01*
X185670252Y-75454429D01*
X185530059Y-75306947D01*
X185530059Y-75306946D01*
X185525587Y-75303108D01*
X185487545Y-75244503D01*
X185487225Y-75174634D01*
X185503724Y-75139444D01*
X185578640Y-75028951D01*
X185645101Y-74862147D01*
X185674150Y-74684955D01*
X185664429Y-74505661D01*
X185664428Y-74505656D01*
X185616394Y-74332651D01*
X185616391Y-74332645D01*
X185532285Y-74174006D01*
X185416044Y-74037157D01*
X185416043Y-74037156D01*
X185273099Y-73928493D01*
X185110138Y-73853099D01*
X185110134Y-73853097D01*
X184934779Y-73814500D01*
X184800240Y-73814500D01*
X184800238Y-73814500D01*
X184666496Y-73829045D01*
X184666489Y-73829047D01*
X184496339Y-73886377D01*
X184496336Y-73886379D01*
X184342482Y-73978950D01*
X184212123Y-74102431D01*
X184111358Y-74251051D01*
X184111357Y-74251053D01*
X184044900Y-74417847D01*
X184044899Y-74417852D01*
X184044899Y-74417853D01*
X184020544Y-74566418D01*
X184015850Y-74595048D01*
X184025571Y-74774338D01*
X184025571Y-74774343D01*
X184063882Y-74912327D01*
X184062850Y-74982189D01*
X184024211Y-75040403D01*
X183960233Y-75068485D01*
X183944402Y-75069500D01*
X183724257Y-75069500D01*
X183572560Y-75084925D01*
X183378420Y-75145837D01*
X183378405Y-75145844D01*
X183200500Y-75244589D01*
X183200495Y-75244592D01*
X183046106Y-75377132D01*
X183046104Y-75377134D01*
X182921554Y-75538037D01*
X182921553Y-75538040D01*
X182831940Y-75720728D01*
X182780937Y-75917714D01*
X182770631Y-76120936D01*
X159016185Y-76120936D01*
X159016185Y-74640216D01*
X159016186Y-74640187D01*
X159016186Y-74631567D01*
X159016187Y-74631564D01*
X159016186Y-74617049D01*
X159016200Y-74617000D01*
X159016199Y-74565672D01*
X159016200Y-74565672D01*
X159016198Y-74472393D01*
X158983798Y-74288670D01*
X158983796Y-74288665D01*
X158983796Y-74288663D01*
X158919990Y-74113371D01*
X158919988Y-74113365D01*
X158826706Y-73951802D01*
X158773358Y-73888227D01*
X158706787Y-73808893D01*
X158662670Y-73771875D01*
X158563874Y-73688977D01*
X158402310Y-73595700D01*
X158314656Y-73563796D01*
X158227001Y-73531893D01*
X158043283Y-73499500D01*
X158043279Y-73499500D01*
X157985799Y-73499500D01*
X110464201Y-73499500D01*
X110462190Y-73499500D01*
X110461771Y-73499515D01*
X110406719Y-73499515D01*
X110223001Y-73531908D01*
X110110736Y-73572770D01*
X110047697Y-73595714D01*
X110047694Y-73595715D01*
X110047693Y-73595716D01*
X109886130Y-73688992D01*
X109743229Y-73808897D01*
X109743221Y-73808905D01*
X109623309Y-73951805D01*
X109530026Y-74113370D01*
X109530026Y-74113371D01*
X109466217Y-74288670D01*
X109433816Y-74472395D01*
X109433816Y-74472396D01*
X109433815Y-74527740D01*
X109433708Y-74530886D01*
X109433814Y-74566418D01*
X109433813Y-74633870D01*
X109434026Y-74637057D01*
X109441319Y-77070500D01*
X109449515Y-79805597D01*
X109449515Y-79893280D01*
X109481908Y-80076998D01*
X109481910Y-80077003D01*
X109545714Y-80252303D01*
X109545716Y-80252306D01*
X109578159Y-80308501D01*
X109594630Y-80376402D01*
X109571777Y-80442428D01*
X109516856Y-80485618D01*
X109470771Y-80494500D01*
X106744437Y-80494500D01*
X106636114Y-80506243D01*
X106636102Y-80506245D01*
X106584214Y-80517628D01*
X106584205Y-80517631D01*
X106480904Y-80552319D01*
X106360141Y-80630536D01*
X106308805Y-80675339D01*
X106307683Y-80676264D01*
X106213666Y-80785548D01*
X106154361Y-80916641D01*
X106134915Y-80983750D01*
X106114944Y-81126240D01*
X106119925Y-82529467D01*
X106100479Y-82596576D01*
X106047837Y-82642518D01*
X105978715Y-82652707D01*
X105915056Y-82623908D01*
X105908245Y-82617588D01*
X104198673Y-80908016D01*
X104168424Y-80858654D01*
X104127179Y-80731716D01*
X104032533Y-80567784D01*
X103905871Y-80427112D01*
X103905870Y-80427111D01*
X103752734Y-80315851D01*
X103752729Y-80315848D01*
X103579807Y-80238857D01*
X103579802Y-80238855D01*
X103434000Y-80207865D01*
X103394646Y-80199500D01*
X103205354Y-80199500D01*
X103172897Y-80206398D01*
X103020197Y-80238855D01*
X103020192Y-80238857D01*
X102847270Y-80315848D01*
X102847265Y-80315851D01*
X102694129Y-80427111D01*
X102567466Y-80567785D01*
X102472821Y-80731715D01*
X102472818Y-80731722D01*
X102415537Y-80908016D01*
X102414326Y-80911744D01*
X102394540Y-81100000D01*
X102414326Y-81288256D01*
X102414327Y-81288259D01*
X102472818Y-81468277D01*
X102472821Y-81468284D01*
X102567467Y-81632216D01*
X102694128Y-81772887D01*
X102694129Y-81772888D01*
X102847265Y-81884148D01*
X102847270Y-81884151D01*
X103020192Y-81961142D01*
X103020197Y-81961144D01*
X103205354Y-82000500D01*
X103258481Y-82000500D01*
X103325520Y-82020185D01*
X103346162Y-82036819D01*
X106449747Y-85140404D01*
X106483232Y-85201727D01*
X106478248Y-85271419D01*
X106436376Y-85327352D01*
X106429477Y-85332160D01*
X106376963Y-85366173D01*
X106376956Y-85366179D01*
X106324318Y-85412118D01*
X106324308Y-85412127D01*
X106230480Y-85521189D01*
X106230478Y-85521194D01*
X106171174Y-85652280D01*
X106163336Y-85679331D01*
X106151729Y-85719386D01*
X106151728Y-85719389D01*
X106141863Y-85789776D01*
X106131756Y-85861883D01*
X106139082Y-87925060D01*
X106119636Y-87992169D01*
X106066995Y-88038111D01*
X106015083Y-88049500D01*
X99408156Y-88049500D01*
X99341117Y-88029815D01*
X99335271Y-88025818D01*
X99252734Y-87965851D01*
X99252729Y-87965848D01*
X99079807Y-87888857D01*
X99079802Y-87888855D01*
X98934001Y-87857865D01*
X98894646Y-87849500D01*
X98705354Y-87849500D01*
X98672897Y-87856398D01*
X98520197Y-87888855D01*
X98520192Y-87888857D01*
X98347270Y-87965848D01*
X98347265Y-87965851D01*
X98194129Y-88077111D01*
X98067466Y-88217785D01*
X97972821Y-88381715D01*
X97972818Y-88381722D01*
X97941266Y-88478831D01*
X97914326Y-88561744D01*
X97894540Y-88750000D01*
X78718510Y-88750000D01*
X78748467Y-67960002D01*
X86844652Y-67960002D01*
X86864028Y-68317368D01*
X86864029Y-68317385D01*
X86921926Y-68670539D01*
X86921932Y-68670565D01*
X87017672Y-69015392D01*
X87017674Y-69015399D01*
X87150142Y-69347870D01*
X87150151Y-69347888D01*
X87317784Y-69664077D01*
X87317787Y-69664082D01*
X87317789Y-69664085D01*
X87504755Y-69939840D01*
X87518634Y-69960309D01*
X87518641Y-69960319D01*
X87732945Y-70212617D01*
X87750332Y-70233086D01*
X88010163Y-70479211D01*
X88295081Y-70695800D01*
X88601747Y-70880315D01*
X88601749Y-70880316D01*
X88601751Y-70880317D01*
X88601755Y-70880319D01*
X88791890Y-70968284D01*
X88926565Y-71030591D01*
X89265726Y-71144868D01*
X89615254Y-71221805D01*
X89971052Y-71260500D01*
X89971058Y-71260500D01*
X90328942Y-71260500D01*
X90328948Y-71260500D01*
X90684746Y-71221805D01*
X91034274Y-71144868D01*
X91373435Y-71030591D01*
X91698253Y-70880315D01*
X92004919Y-70695800D01*
X92289837Y-70479211D01*
X92549668Y-70233086D01*
X92781365Y-69960311D01*
X92982211Y-69664085D01*
X93149853Y-69347880D01*
X93282324Y-69015403D01*
X93378071Y-68670552D01*
X93414198Y-68450185D01*
X93435970Y-68317385D01*
X93435970Y-68317382D01*
X93435972Y-68317371D01*
X93455348Y-67960000D01*
X93454238Y-67939531D01*
X162034183Y-67939531D01*
X162052806Y-68283021D01*
X162053559Y-68296899D01*
X162053560Y-68296916D01*
X162111457Y-68650070D01*
X162111463Y-68650096D01*
X162207203Y-68994923D01*
X162207205Y-68994930D01*
X162339673Y-69327401D01*
X162339682Y-69327419D01*
X162507315Y-69643608D01*
X162507318Y-69643613D01*
X162507320Y-69643616D01*
X162699534Y-69927111D01*
X162708165Y-69939840D01*
X162708172Y-69939850D01*
X162925628Y-70195858D01*
X162939863Y-70212617D01*
X163199694Y-70458742D01*
X163484612Y-70675331D01*
X163791278Y-70859846D01*
X163791280Y-70859847D01*
X163791282Y-70859848D01*
X163791286Y-70859850D01*
X163895582Y-70908102D01*
X164116096Y-71010122D01*
X164455257Y-71124399D01*
X164804785Y-71201336D01*
X165160583Y-71240031D01*
X165160589Y-71240031D01*
X165518473Y-71240031D01*
X165518479Y-71240031D01*
X165874277Y-71201336D01*
X166223805Y-71124399D01*
X166562966Y-71010122D01*
X166887784Y-70859846D01*
X167194450Y-70675331D01*
X167479368Y-70458742D01*
X167739199Y-70212617D01*
X167913340Y-70007602D01*
X178352174Y-70007602D01*
X178371960Y-70195858D01*
X178371961Y-70195861D01*
X178430452Y-70375879D01*
X178430455Y-70375886D01*
X178525101Y-70539818D01*
X178647118Y-70675331D01*
X178651763Y-70680490D01*
X178804899Y-70791750D01*
X178804904Y-70791753D01*
X178977826Y-70868744D01*
X178977831Y-70868746D01*
X179162988Y-70908102D01*
X179162989Y-70908102D01*
X179352278Y-70908102D01*
X179352280Y-70908102D01*
X179537437Y-70868746D01*
X179710364Y-70791753D01*
X179863505Y-70680490D01*
X179891742Y-70649129D01*
X179951229Y-70612481D01*
X179983892Y-70608102D01*
X180933740Y-70608102D01*
X181000779Y-70627787D01*
X181046534Y-70680591D01*
X181057061Y-70719141D01*
X181064324Y-70788254D01*
X181122817Y-70968277D01*
X181122820Y-70968284D01*
X181217466Y-71132216D01*
X181332973Y-71260499D01*
X181344128Y-71272888D01*
X181497264Y-71384148D01*
X181497269Y-71384151D01*
X181670191Y-71461142D01*
X181670192Y-71461142D01*
X181670196Y-71461144D01*
X181718109Y-71471328D01*
X181740337Y-71476053D01*
X181801819Y-71509245D01*
X181835596Y-71570408D01*
X181830944Y-71640123D01*
X181789340Y-71696255D01*
X181740338Y-71718633D01*
X181645197Y-71738855D01*
X181645192Y-71738857D01*
X181472270Y-71815848D01*
X181472265Y-71815851D01*
X181319129Y-71927111D01*
X181192466Y-72067785D01*
X181097821Y-72231715D01*
X181097818Y-72231721D01*
X181075132Y-72301545D01*
X181035695Y-72359220D01*
X180971336Y-72386419D01*
X180957201Y-72387227D01*
X180021936Y-72387227D01*
X179954897Y-72367542D01*
X179929787Y-72346200D01*
X179901549Y-72314839D01*
X179901542Y-72314833D01*
X179748412Y-72203578D01*
X179748407Y-72203575D01*
X179575485Y-72126584D01*
X179575480Y-72126582D01*
X179429678Y-72095592D01*
X179390324Y-72087227D01*
X179201032Y-72087227D01*
X179168575Y-72094125D01*
X179015875Y-72126582D01*
X179015870Y-72126584D01*
X178842948Y-72203575D01*
X178842943Y-72203578D01*
X178689807Y-72314838D01*
X178563144Y-72455512D01*
X178468499Y-72619442D01*
X178468496Y-72619449D01*
X178413648Y-72788256D01*
X178410004Y-72799471D01*
X178390218Y-72987727D01*
X178410004Y-73175983D01*
X178410005Y-73175986D01*
X178468496Y-73356004D01*
X178468499Y-73356011D01*
X178563145Y-73519943D01*
X178689806Y-73660614D01*
X178689807Y-73660615D01*
X178842943Y-73771875D01*
X178842948Y-73771878D01*
X179015870Y-73848869D01*
X179015875Y-73848871D01*
X179201032Y-73888227D01*
X179201033Y-73888227D01*
X179390322Y-73888227D01*
X179390324Y-73888227D01*
X179575481Y-73848871D01*
X179748408Y-73771878D01*
X179901549Y-73660615D01*
X179929786Y-73629254D01*
X179989273Y-73592606D01*
X180021936Y-73588227D01*
X181493845Y-73588227D01*
X181501943Y-73588757D01*
X181537273Y-73593409D01*
X181537274Y-73593409D01*
X181589526Y-73586529D01*
X181694035Y-73572771D01*
X181840114Y-73512263D01*
X181840114Y-73512262D01*
X181845724Y-73509939D01*
X181893177Y-73500500D01*
X182019644Y-73500500D01*
X182019646Y-73500500D01*
X182204803Y-73461144D01*
X182377730Y-73384151D01*
X182530871Y-73272888D01*
X182657533Y-73132216D01*
X182752179Y-72968284D01*
X182810674Y-72788256D01*
X182830460Y-72600000D01*
X182810674Y-72411744D01*
X182752179Y-72231716D01*
X182657533Y-72067784D01*
X182530871Y-71927112D01*
X182530870Y-71927111D01*
X182377734Y-71815851D01*
X182377729Y-71815848D01*
X182204807Y-71738857D01*
X182204803Y-71738856D01*
X182134659Y-71723946D01*
X182073178Y-71690753D01*
X182039401Y-71629590D01*
X182044055Y-71559875D01*
X182085659Y-71503743D01*
X182134654Y-71481368D01*
X182229802Y-71461144D01*
X182229806Y-71461142D01*
X182229807Y-71461142D01*
X182288057Y-71435206D01*
X182402729Y-71384151D01*
X182555870Y-71272888D01*
X182682532Y-71132216D01*
X182777178Y-70968284D01*
X182835673Y-70788256D01*
X182855459Y-70600000D01*
X182835673Y-70411744D01*
X182777178Y-70231716D01*
X182682532Y-70067784D01*
X182555870Y-69927112D01*
X182555869Y-69927111D01*
X182402733Y-69815851D01*
X182402728Y-69815848D01*
X182229806Y-69738857D01*
X182229801Y-69738855D01*
X182083999Y-69707865D01*
X182044645Y-69699500D01*
X182044644Y-69699500D01*
X181950098Y-69699500D01*
X181883059Y-69679815D01*
X181862417Y-69663181D01*
X181838553Y-69639317D01*
X181812919Y-69613683D01*
X181807578Y-69607593D01*
X181785884Y-69579320D01*
X181775701Y-69571506D01*
X181734215Y-69539672D01*
X181660444Y-69483066D01*
X181660439Y-69483063D01*
X181514368Y-69422559D01*
X181514363Y-69422557D01*
X181357604Y-69401920D01*
X181357602Y-69401920D01*
X181343869Y-69403728D01*
X181322272Y-69406571D01*
X181314174Y-69407102D01*
X179983892Y-69407102D01*
X179916853Y-69387417D01*
X179891743Y-69366075D01*
X179863505Y-69334714D01*
X179863498Y-69334708D01*
X179710368Y-69223453D01*
X179710363Y-69223450D01*
X179537441Y-69146459D01*
X179537436Y-69146457D01*
X179391634Y-69115467D01*
X179352280Y-69107102D01*
X179162988Y-69107102D01*
X179130531Y-69114000D01*
X178977831Y-69146457D01*
X178977826Y-69146459D01*
X178804904Y-69223450D01*
X178804899Y-69223453D01*
X178651763Y-69334713D01*
X178525100Y-69475387D01*
X178430455Y-69639317D01*
X178430452Y-69639324D01*
X178371961Y-69819342D01*
X178371960Y-69819346D01*
X178352174Y-70007602D01*
X167913340Y-70007602D01*
X167970896Y-69939842D01*
X168171742Y-69643616D01*
X168339384Y-69327411D01*
X168471855Y-68994934D01*
X168567602Y-68650083D01*
X168616117Y-68354155D01*
X168625501Y-68296916D01*
X168625501Y-68296913D01*
X168625503Y-68296902D01*
X168644879Y-67939531D01*
X168625503Y-67582160D01*
X168608908Y-67480936D01*
X182770631Y-67480936D01*
X182801442Y-67682063D01*
X182801445Y-67682075D01*
X182872111Y-67872881D01*
X182872113Y-67872884D01*
X182872114Y-67872887D01*
X182918005Y-67946513D01*
X182979745Y-68045567D01*
X182979747Y-68045569D01*
X182979748Y-68045571D01*
X183119941Y-68193053D01*
X183209531Y-68255409D01*
X183286949Y-68309294D01*
X183286950Y-68309294D01*
X183286951Y-68309295D01*
X183473942Y-68389540D01*
X183673259Y-68430500D01*
X183944629Y-68430500D01*
X184011668Y-68450185D01*
X184057423Y-68502989D01*
X184067367Y-68572147D01*
X184059822Y-68600397D01*
X184044900Y-68637847D01*
X184044899Y-68637852D01*
X184044899Y-68637853D01*
X184039541Y-68670539D01*
X184015850Y-68815048D01*
X184025571Y-68994338D01*
X184025571Y-68994343D01*
X184073605Y-69167348D01*
X184073608Y-69167354D01*
X184157714Y-69325993D01*
X184273955Y-69462842D01*
X184273956Y-69462843D01*
X184416901Y-69571507D01*
X184579862Y-69646901D01*
X184579863Y-69646901D01*
X184579865Y-69646902D01*
X184633065Y-69658611D01*
X184755221Y-69685500D01*
X184755224Y-69685500D01*
X184889755Y-69685500D01*
X184889760Y-69685500D01*
X185023505Y-69670954D01*
X185193662Y-69613622D01*
X185347517Y-69521050D01*
X185477875Y-69397569D01*
X185578640Y-69248951D01*
X185645101Y-69082147D01*
X185674150Y-68904955D01*
X185664429Y-68725661D01*
X185649132Y-68670565D01*
X185616394Y-68552651D01*
X185616391Y-68552645D01*
X185532287Y-68394010D01*
X185532286Y-68394008D01*
X185509149Y-68366769D01*
X185480752Y-68302930D01*
X185491377Y-68233873D01*
X185522886Y-68192410D01*
X185603895Y-68122866D01*
X185728448Y-67961958D01*
X185818060Y-67779271D01*
X185869063Y-67582285D01*
X185879369Y-67379064D01*
X185848556Y-67177929D01*
X185777886Y-66987113D01*
X185670252Y-66814429D01*
X185530059Y-66666947D01*
X185393804Y-66572111D01*
X185363050Y-66550705D01*
X185176056Y-66470459D01*
X184976741Y-66429500D01*
X183724258Y-66429500D01*
X183724257Y-66429500D01*
X183572560Y-66444925D01*
X183378420Y-66505837D01*
X183378405Y-66505844D01*
X183200500Y-66604589D01*
X183200495Y-66604592D01*
X183046106Y-66737132D01*
X183046104Y-66737134D01*
X182921554Y-66898037D01*
X182921553Y-66898040D01*
X182831940Y-67080728D01*
X182780937Y-67277714D01*
X182770631Y-67480936D01*
X168608908Y-67480936D01*
X168567604Y-67228991D01*
X168567603Y-67228990D01*
X168567602Y-67228979D01*
X168526441Y-67080729D01*
X168471858Y-66884138D01*
X168471856Y-66884131D01*
X168444085Y-66814432D01*
X168366877Y-66620653D01*
X168339388Y-66551660D01*
X168339379Y-66551642D01*
X168338508Y-66550000D01*
X168171742Y-66235446D01*
X167970896Y-65939220D01*
X167970892Y-65939215D01*
X167970889Y-65939211D01*
X167739199Y-65666445D01*
X167739198Y-65666444D01*
X167479368Y-65420320D01*
X167479361Y-65420314D01*
X167479358Y-65420312D01*
X167411776Y-65368938D01*
X167194450Y-65203731D01*
X166887784Y-65019216D01*
X166887783Y-65019215D01*
X166887779Y-65019213D01*
X166887775Y-65019211D01*
X166562978Y-64868945D01*
X166562972Y-64868942D01*
X166562966Y-64868940D01*
X166393385Y-64811801D01*
X166223804Y-64754662D01*
X165874275Y-64677725D01*
X165518480Y-64639031D01*
X165518479Y-64639031D01*
X165160583Y-64639031D01*
X165160581Y-64639031D01*
X164804786Y-64677725D01*
X164455257Y-64754662D01*
X164199501Y-64840837D01*
X164116096Y-64868940D01*
X164116093Y-64868941D01*
X164116094Y-64868941D01*
X164116083Y-64868945D01*
X163791286Y-65019211D01*
X163791282Y-65019213D01*
X163562898Y-65156627D01*
X163484612Y-65203731D01*
X163396299Y-65270864D01*
X163199703Y-65420312D01*
X163199694Y-65420320D01*
X162939862Y-65666445D01*
X162708172Y-65939211D01*
X162708165Y-65939221D01*
X162507321Y-66235444D01*
X162507315Y-66235453D01*
X162339682Y-66551642D01*
X162339673Y-66551660D01*
X162207205Y-66884131D01*
X162207203Y-66884138D01*
X162111463Y-67228965D01*
X162111457Y-67228991D01*
X162053560Y-67582145D01*
X162053559Y-67582158D01*
X162053559Y-67582160D01*
X162034183Y-67939531D01*
X93454238Y-67939531D01*
X93435972Y-67602629D01*
X93432616Y-67582160D01*
X93378073Y-67249460D01*
X93378072Y-67249459D01*
X93378071Y-67249448D01*
X93282324Y-66904597D01*
X93215600Y-66737132D01*
X93149857Y-66572129D01*
X93149848Y-66572111D01*
X93138125Y-66550000D01*
X92982211Y-66255915D01*
X92781365Y-65959689D01*
X92781361Y-65959684D01*
X92781358Y-65959680D01*
X92549668Y-65686914D01*
X92528059Y-65666445D01*
X92289837Y-65440789D01*
X92289830Y-65440783D01*
X92289827Y-65440781D01*
X92213630Y-65382858D01*
X92004919Y-65224200D01*
X91698253Y-65039685D01*
X91698252Y-65039684D01*
X91698248Y-65039682D01*
X91698244Y-65039680D01*
X91373447Y-64889414D01*
X91373441Y-64889411D01*
X91373435Y-64889409D01*
X91203854Y-64832270D01*
X91034273Y-64775131D01*
X90684744Y-64698194D01*
X90328949Y-64659500D01*
X90328948Y-64659500D01*
X89971052Y-64659500D01*
X89971050Y-64659500D01*
X89615255Y-64698194D01*
X89265726Y-64775131D01*
X89009970Y-64861306D01*
X88926565Y-64889409D01*
X88926562Y-64889410D01*
X88926563Y-64889410D01*
X88926552Y-64889414D01*
X88601755Y-65039680D01*
X88601751Y-65039682D01*
X88373367Y-65177096D01*
X88295081Y-65224200D01*
X88206768Y-65291333D01*
X88010172Y-65440781D01*
X88010163Y-65440789D01*
X87750331Y-65686914D01*
X87518641Y-65959680D01*
X87518634Y-65959690D01*
X87317790Y-66255913D01*
X87317784Y-66255922D01*
X87150151Y-66572111D01*
X87150142Y-66572129D01*
X87017674Y-66904600D01*
X87017672Y-66904607D01*
X86921932Y-67249434D01*
X86921926Y-67249460D01*
X86864029Y-67602614D01*
X86864028Y-67602631D01*
X86844652Y-67959997D01*
X86844652Y-67960002D01*
X78748467Y-67960002D01*
X78750397Y-66620643D01*
X78750500Y-66619128D01*
X78750500Y-66550000D01*
X78753987Y-66470140D01*
X78767504Y-66160523D01*
X78767973Y-66155175D01*
X78818506Y-65771337D01*
X78819443Y-65766030D01*
X78836983Y-65686914D01*
X78903233Y-65388074D01*
X78904623Y-65382886D01*
X79021042Y-65013650D01*
X79022889Y-65008578D01*
X79035072Y-64979166D01*
X79171043Y-64650902D01*
X79173306Y-64646050D01*
X79352075Y-64302639D01*
X79354771Y-64297971D01*
X79562772Y-63971473D01*
X79565864Y-63967055D01*
X79801548Y-63659906D01*
X79805007Y-63655785D01*
X80066554Y-63370357D01*
X80070357Y-63366554D01*
X80355785Y-63105007D01*
X80359906Y-63101548D01*
X80667055Y-62865864D01*
X80671465Y-62862777D01*
X80997971Y-62654771D01*
X81002639Y-62652075D01*
X81346050Y-62473306D01*
X81350902Y-62471043D01*
X81708585Y-62322886D01*
X81713650Y-62321042D01*
X82082886Y-62204623D01*
X82088074Y-62203233D01*
X82466036Y-62119441D01*
X82471337Y-62118506D01*
X82855175Y-62067973D01*
X82860523Y-62067504D01*
X83250000Y-62050500D01*
X83315892Y-62050500D01*
X185084108Y-62050500D01*
X185150000Y-62050500D01*
X185539474Y-62067504D01*
G37*
%TD.AperFunction*%
%TD*%
%TA.AperFunction,Conductor*%
%TO.N,Net-(D2-A)*%
G36*
X91272524Y-92619685D02*
G01*
X91318279Y-92672489D01*
X91329484Y-92724514D01*
X91233142Y-115966653D01*
X91213180Y-116033610D01*
X91160186Y-116079146D01*
X91090987Y-116088803D01*
X91069549Y-116083648D01*
X91044273Y-116075131D01*
X90694744Y-115998194D01*
X90338949Y-115959500D01*
X90338948Y-115959500D01*
X89981052Y-115959500D01*
X89981050Y-115959500D01*
X89625255Y-115998194D01*
X89275726Y-116075131D01*
X89019970Y-116161306D01*
X88936565Y-116189409D01*
X88936562Y-116189410D01*
X88936563Y-116189410D01*
X88936552Y-116189414D01*
X88611755Y-116339680D01*
X88611751Y-116339682D01*
X88383367Y-116477096D01*
X88305081Y-116524200D01*
X88216768Y-116591333D01*
X88020172Y-116740781D01*
X88020163Y-116740789D01*
X87760331Y-116986914D01*
X87528641Y-117259680D01*
X87528634Y-117259690D01*
X87327790Y-117555913D01*
X87327784Y-117555922D01*
X87160151Y-117872111D01*
X87160142Y-117872129D01*
X87027674Y-118204600D01*
X87027672Y-118204607D01*
X86931932Y-118549434D01*
X86931926Y-118549460D01*
X86874029Y-118902614D01*
X86874028Y-118902631D01*
X86854652Y-119259997D01*
X86854652Y-119260002D01*
X86874028Y-119617368D01*
X86874029Y-119617385D01*
X86931926Y-119970539D01*
X86931932Y-119970565D01*
X87027672Y-120315392D01*
X87027674Y-120315399D01*
X87160142Y-120647870D01*
X87160151Y-120647888D01*
X87327784Y-120964077D01*
X87327790Y-120964086D01*
X87528634Y-121260309D01*
X87528641Y-121260319D01*
X87760331Y-121533085D01*
X87760332Y-121533086D01*
X88020163Y-121779211D01*
X88305081Y-121995800D01*
X88611747Y-122180315D01*
X88611749Y-122180316D01*
X88611751Y-122180317D01*
X88611755Y-122180319D01*
X88936552Y-122330585D01*
X88936565Y-122330591D01*
X89275726Y-122444868D01*
X89625254Y-122521805D01*
X89981052Y-122560500D01*
X89981058Y-122560500D01*
X90338942Y-122560500D01*
X90338948Y-122560500D01*
X90694746Y-122521805D01*
X91044274Y-122444868D01*
X91044294Y-122444861D01*
X91047503Y-122443971D01*
X91047551Y-122444146D01*
X91047555Y-122444146D01*
X91047567Y-122444204D01*
X91047887Y-122445355D01*
X91111958Y-122442797D01*
X91172197Y-122478195D01*
X91203735Y-122540542D01*
X91205798Y-122563587D01*
X91132172Y-140326014D01*
X91112210Y-140392971D01*
X91059216Y-140438507D01*
X91008173Y-140449500D01*
X85886432Y-140449500D01*
X85819393Y-140429815D01*
X85773638Y-140377011D01*
X85763694Y-140307853D01*
X85787165Y-140251190D01*
X85790679Y-140246494D01*
X85793796Y-140242331D01*
X85844091Y-140107483D01*
X85850500Y-140047873D01*
X85850499Y-137952128D01*
X85844091Y-137892517D01*
X85793796Y-137757669D01*
X85793795Y-137757668D01*
X85793793Y-137757664D01*
X85707547Y-137642455D01*
X85707544Y-137642452D01*
X85592335Y-137556206D01*
X85592328Y-137556202D01*
X85457482Y-137505908D01*
X85457483Y-137505908D01*
X85397883Y-137499501D01*
X85397881Y-137499500D01*
X85397873Y-137499500D01*
X85397864Y-137499500D01*
X84402129Y-137499500D01*
X84402123Y-137499501D01*
X84342516Y-137505908D01*
X84207671Y-137556202D01*
X84207664Y-137556206D01*
X84092455Y-137642452D01*
X84092452Y-137642455D01*
X84006206Y-137757664D01*
X84006202Y-137757671D01*
X83955908Y-137892517D01*
X83949601Y-137951185D01*
X83949501Y-137952123D01*
X83949500Y-137952135D01*
X83949500Y-140047870D01*
X83949501Y-140047876D01*
X83955908Y-140107483D01*
X84006202Y-140242328D01*
X84006206Y-140242334D01*
X84012835Y-140251190D01*
X84037252Y-140316654D01*
X84022400Y-140384927D01*
X83972995Y-140434332D01*
X83913568Y-140449500D01*
X83150000Y-140449500D01*
X82760546Y-140432496D01*
X82755155Y-140432024D01*
X82371359Y-140381496D01*
X82366030Y-140380556D01*
X81988085Y-140296768D01*
X81982865Y-140295370D01*
X81811193Y-140241242D01*
X81613663Y-140178961D01*
X81608578Y-140177110D01*
X81296578Y-140047876D01*
X81250921Y-140028964D01*
X81246031Y-140026684D01*
X80902657Y-139847934D01*
X80897971Y-139845228D01*
X80571473Y-139637227D01*
X80567040Y-139634123D01*
X80259922Y-139398463D01*
X80255777Y-139394984D01*
X79970369Y-139133456D01*
X79966543Y-139129630D01*
X79705015Y-138844222D01*
X79701536Y-138840077D01*
X79465876Y-138532959D01*
X79462772Y-138528526D01*
X79254771Y-138202028D01*
X79252065Y-138197342D01*
X79124418Y-137952135D01*
X79073310Y-137853958D01*
X79071039Y-137849088D01*
X78922889Y-137491421D01*
X78921038Y-137486336D01*
X78804625Y-137117119D01*
X78803231Y-137111914D01*
X78719443Y-136733969D01*
X78718506Y-136728659D01*
X78667973Y-136344826D01*
X78667504Y-136339474D01*
X78664577Y-136272434D01*
X78664520Y-136269599D01*
X78799616Y-92723613D01*
X78819508Y-92656637D01*
X78872454Y-92611046D01*
X78923615Y-92600000D01*
X91205485Y-92600000D01*
X91272524Y-92619685D01*
G37*
%TD.AperFunction*%
%TD*%
%TA.AperFunction,Conductor*%
%TO.N,Net-(D4-A)*%
G36*
X145493530Y-121120052D02*
G01*
X145539628Y-121172557D01*
X145551165Y-121223631D01*
X145599688Y-126366969D01*
X145583840Y-126428806D01*
X143300000Y-130499999D01*
X143300000Y-140325500D01*
X143280315Y-140392539D01*
X143227511Y-140438294D01*
X143176000Y-140449500D01*
X138286432Y-140449500D01*
X138219393Y-140429815D01*
X138173638Y-140377011D01*
X138163694Y-140307853D01*
X138187165Y-140251190D01*
X138190679Y-140246494D01*
X138193796Y-140242331D01*
X138244091Y-140107483D01*
X138250500Y-140047873D01*
X138250499Y-137952128D01*
X138244091Y-137892517D01*
X138193796Y-137757669D01*
X138193795Y-137757668D01*
X138193793Y-137757664D01*
X138107547Y-137642455D01*
X138107544Y-137642452D01*
X137992335Y-137556206D01*
X137992328Y-137556202D01*
X137857482Y-137505908D01*
X137857483Y-137505908D01*
X137797883Y-137499501D01*
X137797881Y-137499500D01*
X137797873Y-137499500D01*
X137797864Y-137499500D01*
X136802129Y-137499500D01*
X136802123Y-137499501D01*
X136742516Y-137505908D01*
X136607671Y-137556202D01*
X136607664Y-137556206D01*
X136492455Y-137642452D01*
X136492452Y-137642455D01*
X136406206Y-137757664D01*
X136406202Y-137757671D01*
X136355908Y-137892517D01*
X136349501Y-137952116D01*
X136349501Y-137952123D01*
X136349500Y-137952135D01*
X136349500Y-140047870D01*
X136349501Y-140047876D01*
X136355908Y-140107483D01*
X136406202Y-140242328D01*
X136406206Y-140242334D01*
X136412835Y-140251190D01*
X136437252Y-140316654D01*
X136422400Y-140384927D01*
X136372995Y-140434332D01*
X136313568Y-140449500D01*
X130302281Y-140449500D01*
X130235242Y-140429815D01*
X130189487Y-140377011D01*
X130178281Y-140325500D01*
X130178281Y-121323195D01*
X130197966Y-121256156D01*
X130250770Y-121210401D01*
X130301471Y-121199198D01*
X145426365Y-121100804D01*
X145493530Y-121120052D01*
G37*
%TD.AperFunction*%
%TD*%
%TA.AperFunction,Conductor*%
%TO.N,Net-(D5-A)*%
G36*
X174193517Y-120869980D02*
G01*
X174239548Y-120922544D01*
X174251021Y-120973620D01*
X174299447Y-126833181D01*
X174280317Y-126900381D01*
X174244495Y-126937206D01*
X169750000Y-129950000D01*
X169750000Y-140325500D01*
X169730315Y-140392539D01*
X169677511Y-140438294D01*
X169626000Y-140449500D01*
X164379336Y-140449500D01*
X164312297Y-140429815D01*
X164266542Y-140377011D01*
X164256598Y-140307853D01*
X164280068Y-140251190D01*
X164293796Y-140232853D01*
X164344091Y-140098005D01*
X164350500Y-140038395D01*
X164350499Y-137942650D01*
X164344091Y-137883039D01*
X164293796Y-137748191D01*
X164293795Y-137748190D01*
X164293793Y-137748186D01*
X164207547Y-137632977D01*
X164207544Y-137632974D01*
X164092335Y-137546728D01*
X164092328Y-137546724D01*
X163957482Y-137496430D01*
X163957483Y-137496430D01*
X163897883Y-137490023D01*
X163897881Y-137490022D01*
X163897873Y-137490022D01*
X163897864Y-137490022D01*
X162902129Y-137490022D01*
X162902123Y-137490023D01*
X162842516Y-137496430D01*
X162707671Y-137546724D01*
X162707664Y-137546728D01*
X162592455Y-137632974D01*
X162592452Y-137632977D01*
X162506206Y-137748186D01*
X162506202Y-137748193D01*
X162455908Y-137883039D01*
X162449501Y-137942638D01*
X162449501Y-137942645D01*
X162449500Y-137942657D01*
X162449500Y-140038392D01*
X162449501Y-140038398D01*
X162455908Y-140098005D01*
X162506202Y-140232849D01*
X162506203Y-140232850D01*
X162506204Y-140232853D01*
X162519931Y-140251190D01*
X162544348Y-140316651D01*
X162529497Y-140384925D01*
X162480093Y-140434331D01*
X162420664Y-140449500D01*
X155274000Y-140449500D01*
X155206961Y-140429815D01*
X155161206Y-140377011D01*
X155150000Y-140325500D01*
X155150000Y-121073352D01*
X155169685Y-121006313D01*
X155222489Y-120960558D01*
X155273350Y-120949354D01*
X161419028Y-120917177D01*
X161486163Y-120936509D01*
X161507352Y-120953493D01*
X163532915Y-122979056D01*
X163535451Y-122981750D01*
X163576587Y-123028183D01*
X163627646Y-123063427D01*
X163630628Y-123065621D01*
X163679459Y-123103877D01*
X163679463Y-123103880D01*
X163679462Y-123103880D01*
X163688693Y-123108034D01*
X163708247Y-123119062D01*
X163716582Y-123124816D01*
X163716584Y-123124816D01*
X163716586Y-123124818D01*
X163774595Y-123146817D01*
X163777992Y-123148224D01*
X163825286Y-123169509D01*
X163834580Y-123173693D01*
X163834581Y-123173693D01*
X163834585Y-123173695D01*
X163844550Y-123175521D01*
X163866172Y-123181548D01*
X163866183Y-123181552D01*
X163875644Y-123185140D01*
X163920767Y-123190618D01*
X163937190Y-123192613D01*
X163940887Y-123193175D01*
X164001910Y-123204358D01*
X164057268Y-123201009D01*
X164063819Y-123200613D01*
X164067564Y-123200500D01*
X167676952Y-123200500D01*
X167680697Y-123200613D01*
X167688042Y-123201057D01*
X167742606Y-123204358D01*
X167780314Y-123197447D01*
X167803621Y-123193177D01*
X167807325Y-123192613D01*
X167825170Y-123190446D01*
X167868872Y-123185140D01*
X167878335Y-123181550D01*
X167899961Y-123175522D01*
X167900893Y-123175351D01*
X167909932Y-123173695D01*
X167966512Y-123148229D01*
X167969942Y-123146809D01*
X168027930Y-123124818D01*
X168036266Y-123119062D01*
X168055821Y-123108034D01*
X168065057Y-123103878D01*
X168113896Y-123065613D01*
X168116876Y-123063421D01*
X168167929Y-123028183D01*
X168209065Y-122981748D01*
X168211599Y-122979056D01*
X168662976Y-122527680D01*
X168724295Y-122494198D01*
X168724304Y-122494195D01*
X168879803Y-122461144D01*
X168879807Y-122461142D01*
X168879808Y-122461142D01*
X168938058Y-122435206D01*
X169052730Y-122384151D01*
X169205871Y-122272888D01*
X169332533Y-122132216D01*
X169427179Y-121968284D01*
X169485674Y-121788256D01*
X169505460Y-121600000D01*
X169485674Y-121411744D01*
X169427179Y-121231716D01*
X169332533Y-121067784D01*
X169329284Y-121062156D01*
X169331637Y-121060797D01*
X169312183Y-121006311D01*
X169327993Y-120938254D01*
X169378087Y-120889548D01*
X169435323Y-120875207D01*
X174126376Y-120850647D01*
X174193517Y-120869980D01*
G37*
%TD.AperFunction*%
%TD*%
%TA.AperFunction,Conductor*%
%TO.N,Net-(D3-A)*%
G36*
X117463039Y-119869685D02*
G01*
X117508794Y-119922489D01*
X117520000Y-119974000D01*
X117520000Y-140325500D01*
X117500315Y-140392539D01*
X117447511Y-140438294D01*
X117396000Y-140449500D01*
X112086432Y-140449500D01*
X112019393Y-140429815D01*
X111973638Y-140377011D01*
X111963694Y-140307853D01*
X111987165Y-140251190D01*
X111990679Y-140246494D01*
X111993796Y-140242331D01*
X112044091Y-140107483D01*
X112050500Y-140047873D01*
X112050499Y-137952128D01*
X112044091Y-137892517D01*
X111993796Y-137757669D01*
X111993795Y-137757668D01*
X111993793Y-137757664D01*
X111907547Y-137642455D01*
X111907544Y-137642452D01*
X111792335Y-137556206D01*
X111792328Y-137556202D01*
X111657482Y-137505908D01*
X111657483Y-137505908D01*
X111597883Y-137499501D01*
X111597881Y-137499500D01*
X111597873Y-137499500D01*
X111597864Y-137499500D01*
X110602129Y-137499500D01*
X110602123Y-137499501D01*
X110542516Y-137505908D01*
X110407671Y-137556202D01*
X110407664Y-137556206D01*
X110292455Y-137642452D01*
X110292452Y-137642455D01*
X110206206Y-137757664D01*
X110206202Y-137757671D01*
X110155908Y-137892517D01*
X110149501Y-137952116D01*
X110149501Y-137952123D01*
X110149500Y-137952135D01*
X110149500Y-140047870D01*
X110149501Y-140047876D01*
X110155908Y-140107483D01*
X110206202Y-140242328D01*
X110206206Y-140242334D01*
X110212835Y-140251190D01*
X110237252Y-140316654D01*
X110222400Y-140384927D01*
X110172995Y-140434332D01*
X110113568Y-140449500D01*
X105124000Y-140449500D01*
X105056961Y-140429815D01*
X105011206Y-140377011D01*
X105000000Y-140325500D01*
X105000000Y-119974000D01*
X105019685Y-119906961D01*
X105072489Y-119861206D01*
X105124000Y-119850000D01*
X117396000Y-119850000D01*
X117463039Y-119869685D01*
G37*
%TD.AperFunction*%
%TD*%
%TA.AperFunction,Conductor*%
%TO.N,unconnected-(U1-TH-Pad9)*%
G36*
X118041572Y-81019685D02*
G01*
X118087327Y-81072489D01*
X118098524Y-81125459D01*
X118067918Y-83726959D01*
X118047447Y-83793762D01*
X117994108Y-83838893D01*
X117943927Y-83849500D01*
X117905354Y-83849500D01*
X117872897Y-83856398D01*
X117720197Y-83888855D01*
X117720192Y-83888857D01*
X117547270Y-83965848D01*
X117547265Y-83965851D01*
X117394129Y-84077111D01*
X117267466Y-84217785D01*
X117172821Y-84381715D01*
X117172818Y-84381722D01*
X117114327Y-84561740D01*
X117114326Y-84561744D01*
X117094540Y-84750000D01*
X117114326Y-84938256D01*
X117114327Y-84938259D01*
X117172818Y-85118277D01*
X117172821Y-85118284D01*
X117267466Y-85282215D01*
X117267648Y-85282417D01*
X117267716Y-85282559D01*
X117271285Y-85287471D01*
X117270386Y-85288123D01*
X117297879Y-85345408D01*
X117299500Y-85365391D01*
X117299500Y-88158480D01*
X117279815Y-88225519D01*
X117263181Y-88246161D01*
X116054618Y-89454723D01*
X115993295Y-89488208D01*
X115966391Y-89491041D01*
X115225406Y-89487776D01*
X115158454Y-89467796D01*
X115112932Y-89414791D01*
X115103293Y-89345589D01*
X115129785Y-89288248D01*
X115128715Y-89287471D01*
X115132529Y-89282220D01*
X115132533Y-89282216D01*
X115227179Y-89118284D01*
X115285674Y-88938256D01*
X115305460Y-88750000D01*
X115285674Y-88561744D01*
X115227179Y-88381716D01*
X115132533Y-88217784D01*
X115005871Y-88077112D01*
X114989008Y-88064860D01*
X114852734Y-87965851D01*
X114852729Y-87965848D01*
X114679807Y-87888857D01*
X114679802Y-87888855D01*
X114534001Y-87857865D01*
X114494646Y-87849500D01*
X114305354Y-87849500D01*
X114272897Y-87856398D01*
X114120197Y-87888855D01*
X114120192Y-87888857D01*
X113947270Y-87965848D01*
X113947265Y-87965851D01*
X113864729Y-88025818D01*
X113798923Y-88049298D01*
X113791844Y-88049500D01*
X106768588Y-88049500D01*
X106701549Y-88029815D01*
X106655794Y-87977011D01*
X106644589Y-87925940D01*
X106644318Y-87849500D01*
X106637254Y-85860082D01*
X106656700Y-85792976D01*
X106709341Y-85747034D01*
X106778464Y-85736845D01*
X106842122Y-85765644D01*
X106868640Y-85797645D01*
X106917467Y-85882216D01*
X107044128Y-86022888D01*
X107044129Y-86022888D01*
X107197265Y-86134148D01*
X107197270Y-86134151D01*
X107370192Y-86211142D01*
X107370197Y-86211144D01*
X107555354Y-86250500D01*
X107555355Y-86250500D01*
X107744644Y-86250500D01*
X107744646Y-86250500D01*
X107929803Y-86211144D01*
X108102730Y-86134151D01*
X108255871Y-86022888D01*
X108382533Y-85882216D01*
X108477179Y-85718284D01*
X108535674Y-85538256D01*
X108555460Y-85350000D01*
X108535674Y-85161744D01*
X108477179Y-84981716D01*
X108382533Y-84817784D01*
X108255871Y-84677112D01*
X108255870Y-84677111D01*
X108102734Y-84565851D01*
X108102729Y-84565848D01*
X107929807Y-84488857D01*
X107929802Y-84488855D01*
X107793490Y-84459882D01*
X107774872Y-84455924D01*
X107713391Y-84422733D01*
X107712973Y-84422316D01*
X106664435Y-83373778D01*
X106630950Y-83312455D01*
X106628117Y-83286545D01*
X106621866Y-81525702D01*
X106620442Y-81124440D01*
X106639888Y-81057331D01*
X106692529Y-81011389D01*
X106744441Y-81000000D01*
X117974533Y-81000000D01*
X118041572Y-81019685D01*
G37*
%TD.AperFunction*%
%TD*%
%TA.AperFunction,Conductor*%
%TO.N,unconnected-(U2-TH-Pad9)*%
G36*
X132691572Y-81019685D02*
G01*
X132737327Y-81072489D01*
X132748524Y-81125459D01*
X132711177Y-84300000D01*
X132710295Y-84374963D01*
X132709959Y-84380717D01*
X132689540Y-84575000D01*
X132705709Y-84728861D01*
X132706045Y-84736076D01*
X132651447Y-89376929D01*
X132630976Y-89443732D01*
X132577637Y-89488863D01*
X132526922Y-89499469D01*
X130723578Y-89491696D01*
X130656624Y-89471723D01*
X130616725Y-89429697D01*
X130612091Y-89421670D01*
X130523245Y-89267784D01*
X130396583Y-89127112D01*
X130396582Y-89127111D01*
X130243446Y-89015851D01*
X130243441Y-89015848D01*
X130070519Y-88938857D01*
X130070514Y-88938855D01*
X129924712Y-88907865D01*
X129885358Y-88899500D01*
X129696066Y-88899500D01*
X129663609Y-88906398D01*
X129510909Y-88938855D01*
X129510904Y-88938857D01*
X129337982Y-89015848D01*
X129337977Y-89015851D01*
X129184841Y-89127111D01*
X129058177Y-89267785D01*
X128969332Y-89421670D01*
X128918765Y-89469886D01*
X128861411Y-89483669D01*
X121173028Y-89450530D01*
X121106074Y-89430557D01*
X121060547Y-89377556D01*
X121049563Y-89326971D01*
X121049353Y-89267785D01*
X121038208Y-86128665D01*
X121057654Y-86061557D01*
X121110295Y-86015615D01*
X121179418Y-86005426D01*
X121243077Y-86034225D01*
X121249888Y-86040545D01*
X122453495Y-87244152D01*
X122486980Y-87305475D01*
X122489134Y-87318869D01*
X122494325Y-87368249D01*
X122494327Y-87368260D01*
X122552818Y-87548277D01*
X122552821Y-87548284D01*
X122647467Y-87712216D01*
X122774129Y-87852887D01*
X122774129Y-87852888D01*
X122927265Y-87964148D01*
X122927270Y-87964151D01*
X123100192Y-88041142D01*
X123100197Y-88041144D01*
X123285354Y-88080500D01*
X123285355Y-88080500D01*
X123474644Y-88080500D01*
X123474646Y-88080500D01*
X123659803Y-88041144D01*
X123832730Y-87964151D01*
X123985871Y-87852888D01*
X124112533Y-87712216D01*
X124207179Y-87548284D01*
X124265674Y-87368256D01*
X124285460Y-87180000D01*
X124265674Y-86991744D01*
X124207179Y-86811716D01*
X124112533Y-86647784D01*
X123985871Y-86507112D01*
X123985870Y-86507111D01*
X123832734Y-86395851D01*
X123832729Y-86395848D01*
X123659807Y-86318857D01*
X123659802Y-86318855D01*
X123523490Y-86289882D01*
X123504872Y-86285924D01*
X123443391Y-86252733D01*
X123442973Y-86252316D01*
X121813223Y-84622566D01*
X121779738Y-84561243D01*
X121782973Y-84496566D01*
X121785674Y-84488256D01*
X121805460Y-84300000D01*
X121785674Y-84111744D01*
X121727179Y-83931716D01*
X121632533Y-83767784D01*
X121505871Y-83627112D01*
X121505870Y-83627111D01*
X121352734Y-83515851D01*
X121352729Y-83515848D01*
X121179807Y-83438857D01*
X121179802Y-83438855D01*
X121126406Y-83427506D01*
X121064924Y-83394314D01*
X121031148Y-83333151D01*
X121028189Y-83306668D01*
X121021472Y-81414719D01*
X121020442Y-81124440D01*
X121039888Y-81057331D01*
X121092529Y-81011389D01*
X121144441Y-81000000D01*
X132624533Y-81000000D01*
X132691572Y-81019685D01*
G37*
%TD.AperFunction*%
%TD*%
M02*
