%TF.GenerationSoftware,KiCad,Pcbnew,7.0.6-0*%
%TF.CreationDate,2023-08-19T11:48:42+10:00*%
%TF.ProjectId,rear_screen,72656172-5f73-4637-9265-656e2e6b6963,rev?*%
%TF.SameCoordinates,Original*%
%TF.FileFunction,Soldermask,Top*%
%TF.FilePolarity,Negative*%
%FSLAX46Y46*%
G04 Gerber Fmt 4.6, Leading zero omitted, Abs format (unit mm)*
G04 Created by KiCad (PCBNEW 7.0.6-0) date 2023-08-19 11:48:42*
%MOMM*%
%LPD*%
G01*
G04 APERTURE LIST*
G04 Aperture macros list*
%AMRoundRect*
0 Rectangle with rounded corners*
0 $1 Rounding radius*
0 $2 $3 $4 $5 $6 $7 $8 $9 X,Y pos of 4 corners*
0 Add a 4 corners polygon primitive as box body*
4,1,4,$2,$3,$4,$5,$6,$7,$8,$9,$2,$3,0*
0 Add four circle primitives for the rounded corners*
1,1,$1+$1,$2,$3*
1,1,$1+$1,$4,$5*
1,1,$1+$1,$6,$7*
1,1,$1+$1,$8,$9*
0 Add four rect primitives between the rounded corners*
20,1,$1+$1,$2,$3,$4,$5,0*
20,1,$1+$1,$4,$5,$6,$7,0*
20,1,$1+$1,$6,$7,$8,$9,0*
20,1,$1+$1,$8,$9,$2,$3,0*%
%AMFreePoly0*
4,1,21,3.024497,2.399497,3.045000,2.350000,3.045000,-2.350000,3.024497,-2.399497,2.975000,-2.420000,1.425000,-2.420000,1.375503,-2.399497,1.355000,-2.350000,1.355000,-2.170000,-1.650000,-2.170000,-1.699497,-2.149497,-1.720000,-2.100000,-1.720000,2.100000,-1.699497,2.149497,-1.650000,2.170000,1.355000,2.170000,1.355000,2.350000,1.375503,2.399497,1.425000,2.420000,2.975000,2.420000,
3.024497,2.399497,3.024497,2.399497,$1*%
G04 Aperture macros list end*
%ADD10RoundRect,0.200000X0.200000X0.275000X-0.200000X0.275000X-0.200000X-0.275000X0.200000X-0.275000X0*%
%ADD11RoundRect,0.200000X-0.200000X-0.275000X0.200000X-0.275000X0.200000X0.275000X-0.200000X0.275000X0*%
%ADD12RoundRect,0.225000X-0.250000X0.225000X-0.250000X-0.225000X0.250000X-0.225000X0.250000X0.225000X0*%
%ADD13RoundRect,0.225000X0.250000X-0.225000X0.250000X0.225000X-0.250000X0.225000X-0.250000X-0.225000X0*%
%ADD14RoundRect,0.150000X-0.512500X-0.150000X0.512500X-0.150000X0.512500X0.150000X-0.512500X0.150000X0*%
%ADD15RoundRect,0.250000X0.550000X-1.500000X0.550000X1.500000X-0.550000X1.500000X-0.550000X-1.500000X0*%
%ADD16RoundRect,0.200000X-0.275000X0.200000X-0.275000X-0.200000X0.275000X-0.200000X0.275000X0.200000X0*%
%ADD17R,1.500000X2.500000*%
%ADD18R,1.200000X1.200000*%
%ADD19RoundRect,0.112500X0.187500X0.112500X-0.187500X0.112500X-0.187500X-0.112500X0.187500X-0.112500X0*%
%ADD20R,2.410000X3.100000*%
%ADD21RoundRect,0.150000X-0.650000X-0.150000X0.650000X-0.150000X0.650000X0.150000X-0.650000X0.150000X0*%
%ADD22RoundRect,0.112500X0.112500X-0.187500X0.112500X0.187500X-0.112500X0.187500X-0.112500X-0.187500X0*%
%ADD23RoundRect,0.150000X-0.700000X0.150000X-0.700000X-0.150000X0.700000X-0.150000X0.700000X0.150000X0*%
%ADD24RoundRect,0.500000X-0.900000X0.500000X-0.900000X-0.500000X0.900000X-0.500000X0.900000X0.500000X0*%
%ADD25C,5.600000*%
%ADD26C,4.916000*%
%ADD27R,4.916000X4.916000*%
%ADD28O,2.600000X1.300000*%
%ADD29R,0.900000X2.000000*%
%ADD30RoundRect,1.025000X1.025000X1.025000X-1.025000X1.025000X-1.025000X-1.025000X1.025000X-1.025000X0*%
%ADD31C,4.100000*%
%ADD32RoundRect,0.070000X0.350000X0.575000X-0.350000X0.575000X-0.350000X-0.575000X0.350000X-0.575000X0*%
%ADD33FreePoly0,270.000000*%
%ADD34C,0.650000*%
%ADD35R,1.240000X0.600000*%
%ADD36R,1.240000X0.300000*%
%ADD37O,2.100000X1.000000*%
%ADD38O,1.800000X1.000000*%
%ADD39FreePoly0,180.000000*%
%ADD40RoundRect,0.070000X0.575000X-0.350000X0.575000X0.350000X-0.575000X0.350000X-0.575000X-0.350000X0*%
%ADD41R,2.000000X0.900000*%
%ADD42RoundRect,1.025000X-1.025000X1.025000X-1.025000X-1.025000X1.025000X-1.025000X1.025000X1.025000X0*%
G04 APERTURE END LIST*
D10*
%TO.C,R6*%
X93400000Y-78900000D03*
X91750000Y-78900000D03*
%TD*%
D11*
%TO.C,R5*%
X91750000Y-80500000D03*
X93400000Y-80500000D03*
%TD*%
D12*
%TO.C,C6*%
X163600000Y-82625000D03*
X163600000Y-84175000D03*
%TD*%
D13*
%TO.C,C4*%
X167200000Y-83075000D03*
X167200000Y-81525000D03*
%TD*%
D14*
%TO.C,U3*%
X169000000Y-82450000D03*
X169000000Y-83400000D03*
X169000000Y-84350000D03*
X171275000Y-84350000D03*
X171275000Y-83400000D03*
X171275000Y-82450000D03*
%TD*%
D12*
%TO.C,C2*%
X175900000Y-83725000D03*
X175900000Y-85275000D03*
%TD*%
D11*
%TO.C,R4*%
X168675000Y-86100000D03*
X170325000Y-86100000D03*
%TD*%
D15*
%TO.C,C1*%
X175800000Y-80900000D03*
X175800000Y-75500000D03*
%TD*%
D16*
%TO.C,R3*%
X167200000Y-84475000D03*
X167200000Y-86125000D03*
%TD*%
D17*
%TO.C,L1*%
X171250000Y-78300000D03*
X167550000Y-78300000D03*
%TD*%
D15*
%TO.C,C5*%
X162900000Y-79800000D03*
X162900000Y-74200000D03*
%TD*%
D12*
%TO.C,C3*%
X173800000Y-83725000D03*
X173800000Y-85275000D03*
%TD*%
%TO.C,C7*%
X165300000Y-82625000D03*
X165300000Y-84175000D03*
%TD*%
D18*
%TO.C,D7*%
X170499999Y-74600000D03*
X167699999Y-74600000D03*
%TD*%
D19*
%TO.C,D5*%
X171550000Y-129700000D03*
X169450000Y-129700000D03*
%TD*%
%TO.C,D4*%
X145050000Y-129600000D03*
X142950000Y-129600000D03*
%TD*%
%TO.C,D3*%
X118750000Y-129700000D03*
X116650000Y-129700000D03*
%TD*%
%TO.C,D2*%
X92450000Y-129600000D03*
X90350000Y-129600000D03*
%TD*%
D20*
%TO.C,U2*%
X127140712Y-85295111D03*
D21*
X129790712Y-83390111D03*
X129790712Y-84660111D03*
X129790712Y-85930111D03*
X129790712Y-87200111D03*
X124490712Y-87200111D03*
X124490712Y-85930111D03*
X124490712Y-84660111D03*
X124490712Y-83390111D03*
%TD*%
D20*
%TO.C,U1*%
X113592032Y-85449584D03*
D21*
X116242032Y-83544584D03*
X116242032Y-84814584D03*
X116242032Y-86084584D03*
X116242032Y-87354584D03*
X110942032Y-87354584D03*
X110942032Y-86084584D03*
X110942032Y-84814584D03*
X110942032Y-83544584D03*
%TD*%
D22*
%TO.C,D1*%
X181600000Y-77850000D03*
X181600000Y-75750000D03*
%TD*%
D23*
%TO.C,J7*%
X95900000Y-73025000D03*
X95900000Y-74275000D03*
X95900000Y-75525000D03*
X95900000Y-76775000D03*
X95900000Y-78025000D03*
X95900000Y-79275000D03*
X95900000Y-80525000D03*
X95900000Y-81775000D03*
D24*
X98750000Y-70500000D03*
X98750000Y-84300000D03*
%TD*%
D25*
%TO.C,H2*%
X165339531Y-67939531D03*
%TD*%
D26*
%TO.C,J6*%
X174350000Y-93700000D03*
D27*
X174350000Y-104600000D03*
D28*
X183750000Y-108600000D03*
X183750000Y-89700000D03*
%TD*%
D29*
%TO.C,J3*%
X124600000Y-139000000D03*
X111100000Y-139000000D03*
D30*
X114250000Y-133000000D03*
D31*
X121450000Y-133000000D03*
%TD*%
D32*
%TO.C,Q2*%
X160180000Y-120230000D03*
X158910000Y-120230000D03*
X157630000Y-120230000D03*
X156360000Y-120230000D03*
D33*
X158270000Y-123500000D03*
%TD*%
D12*
%TO.C,C8*%
X131995000Y-85900000D03*
X131995000Y-87450000D03*
%TD*%
%TO.C,C9*%
X133595000Y-85900000D03*
X133595000Y-87450000D03*
%TD*%
D25*
%TO.C,H3*%
X165370000Y-119300000D03*
%TD*%
%TO.C,H4*%
X90160000Y-119260000D03*
%TD*%
D12*
%TO.C,C10*%
X120095000Y-86090001D03*
X120095000Y-87640001D03*
%TD*%
D29*
%TO.C,J4*%
X150800000Y-139000000D03*
X137300000Y-139000000D03*
D30*
X140450000Y-133000000D03*
D31*
X147650000Y-133000000D03*
%TD*%
D10*
%TO.C,R1*%
X178275000Y-73000000D03*
X176625000Y-73000000D03*
%TD*%
D12*
%TO.C,C11*%
X118495000Y-86090000D03*
X118495000Y-87640000D03*
%TD*%
D34*
%TO.C,J13*%
X184845000Y-74640000D03*
X184845000Y-68860000D03*
D35*
X183725000Y-74950000D03*
X183725000Y-74150000D03*
D36*
X183725000Y-73000000D03*
X183725000Y-72000000D03*
X183725000Y-71500000D03*
X183725000Y-70500000D03*
D35*
X183725000Y-69350000D03*
X183725000Y-68550000D03*
X183725000Y-68550000D03*
X183725000Y-69350000D03*
D36*
X183725000Y-70000000D03*
X183725000Y-71000000D03*
X183725000Y-72500000D03*
X183725000Y-73500000D03*
D35*
X183725000Y-74150000D03*
X183725000Y-74950000D03*
D37*
X184325000Y-76070000D03*
D38*
X188525000Y-76070000D03*
D37*
X184325000Y-67430000D03*
D38*
X188525000Y-67430000D03*
%TD*%
D32*
%TO.C,Q4*%
X135160000Y-119880000D03*
X133890000Y-119880000D03*
X132610000Y-119880000D03*
X131340000Y-119880000D03*
D33*
X133250000Y-123150000D03*
%TD*%
D32*
%TO.C,Q1*%
X173410000Y-120230000D03*
X172140000Y-120230000D03*
X170860000Y-120230000D03*
X169590000Y-120230000D03*
D33*
X171500000Y-123500000D03*
%TD*%
D39*
%TO.C,Q7*%
X89455435Y-96475877D03*
D40*
X92725435Y-94565877D03*
X92725435Y-95835877D03*
X92725435Y-97115877D03*
X92725435Y-98385877D03*
%TD*%
D29*
%TO.C,J2*%
X98400000Y-139000000D03*
X84900000Y-139000000D03*
D30*
X88050000Y-133000000D03*
D31*
X95250000Y-133000000D03*
%TD*%
D29*
%TO.C,J5*%
X176900000Y-138990522D03*
X163400000Y-138990522D03*
D30*
X166550000Y-132990522D03*
D31*
X173750000Y-132990522D03*
%TD*%
D41*
%TO.C,J1*%
X188100000Y-92450000D03*
X188100000Y-105950000D03*
D42*
X182100000Y-95600000D03*
D31*
X182100000Y-102800000D03*
%TD*%
D25*
%TO.C,H1*%
X90150000Y-67960000D03*
%TD*%
D32*
%TO.C,Q3*%
X144710000Y-119830000D03*
X143440000Y-119830000D03*
X142160000Y-119830000D03*
X140890000Y-119830000D03*
D33*
X142800000Y-123100000D03*
%TD*%
D11*
%TO.C,R2*%
X176625000Y-70000000D03*
X178275000Y-70000000D03*
%TD*%
D32*
%TO.C,Q6*%
X115260000Y-118530000D03*
X113990000Y-118530000D03*
X112710000Y-118530000D03*
X111440000Y-118530000D03*
D33*
X113350000Y-121800000D03*
%TD*%
M02*
