%TF.GenerationSoftware,KiCad,Pcbnew,7.0.6-0*%
%TF.CreationDate,2023-08-19T11:48:42+10:00*%
%TF.ProjectId,rear_screen,72656172-5f73-4637-9265-656e2e6b6963,rev?*%
%TF.SameCoordinates,Original*%
%TF.FileFunction,Legend,Top*%
%TF.FilePolarity,Positive*%
%FSLAX46Y46*%
G04 Gerber Fmt 4.6, Leading zero omitted, Abs format (unit mm)*
G04 Created by KiCad (PCBNEW 7.0.6-0) date 2023-08-19 11:48:42*
%MOMM*%
%LPD*%
G01*
G04 APERTURE LIST*
G04 Aperture macros list*
%AMRoundRect*
0 Rectangle with rounded corners*
0 $1 Rounding radius*
0 $2 $3 $4 $5 $6 $7 $8 $9 X,Y pos of 4 corners*
0 Add a 4 corners polygon primitive as box body*
4,1,4,$2,$3,$4,$5,$6,$7,$8,$9,$2,$3,0*
0 Add four circle primitives for the rounded corners*
1,1,$1+$1,$2,$3*
1,1,$1+$1,$4,$5*
1,1,$1+$1,$6,$7*
1,1,$1+$1,$8,$9*
0 Add four rect primitives between the rounded corners*
20,1,$1+$1,$2,$3,$4,$5,0*
20,1,$1+$1,$4,$5,$6,$7,0*
20,1,$1+$1,$6,$7,$8,$9,0*
20,1,$1+$1,$8,$9,$2,$3,0*%
%AMFreePoly0*
4,1,21,3.024497,2.399497,3.045000,2.350000,3.045000,-2.350000,3.024497,-2.399497,2.975000,-2.420000,1.425000,-2.420000,1.375503,-2.399497,1.355000,-2.350000,1.355000,-2.170000,-1.650000,-2.170000,-1.699497,-2.149497,-1.720000,-2.100000,-1.720000,2.100000,-1.699497,2.149497,-1.650000,2.170000,1.355000,2.170000,1.355000,2.350000,1.375503,2.399497,1.425000,2.420000,2.975000,2.420000,
3.024497,2.399497,3.024497,2.399497,$1*%
G04 Aperture macros list end*
%ADD10C,0.600000*%
%ADD11C,0.150000*%
%ADD12C,0.120000*%
%ADD13C,0.127000*%
%ADD14RoundRect,0.200000X0.200000X0.275000X-0.200000X0.275000X-0.200000X-0.275000X0.200000X-0.275000X0*%
%ADD15RoundRect,0.200000X-0.200000X-0.275000X0.200000X-0.275000X0.200000X0.275000X-0.200000X0.275000X0*%
%ADD16RoundRect,0.225000X-0.250000X0.225000X-0.250000X-0.225000X0.250000X-0.225000X0.250000X0.225000X0*%
%ADD17RoundRect,0.225000X0.250000X-0.225000X0.250000X0.225000X-0.250000X0.225000X-0.250000X-0.225000X0*%
%ADD18RoundRect,0.150000X-0.512500X-0.150000X0.512500X-0.150000X0.512500X0.150000X-0.512500X0.150000X0*%
%ADD19RoundRect,0.250000X0.550000X-1.500000X0.550000X1.500000X-0.550000X1.500000X-0.550000X-1.500000X0*%
%ADD20RoundRect,0.200000X-0.275000X0.200000X-0.275000X-0.200000X0.275000X-0.200000X0.275000X0.200000X0*%
%ADD21R,1.500000X2.500000*%
%ADD22R,1.200000X1.200000*%
%ADD23RoundRect,0.112500X0.187500X0.112500X-0.187500X0.112500X-0.187500X-0.112500X0.187500X-0.112500X0*%
%ADD24R,2.410000X3.100000*%
%ADD25RoundRect,0.150000X-0.650000X-0.150000X0.650000X-0.150000X0.650000X0.150000X-0.650000X0.150000X0*%
%ADD26RoundRect,0.112500X0.112500X-0.187500X0.112500X0.187500X-0.112500X0.187500X-0.112500X-0.187500X0*%
%ADD27RoundRect,0.150000X-0.700000X0.150000X-0.700000X-0.150000X0.700000X-0.150000X0.700000X0.150000X0*%
%ADD28RoundRect,0.500000X-0.900000X0.500000X-0.900000X-0.500000X0.900000X-0.500000X0.900000X0.500000X0*%
%ADD29C,5.600000*%
%ADD30C,4.916000*%
%ADD31R,4.916000X4.916000*%
%ADD32O,2.600000X1.300000*%
%ADD33R,0.900000X2.000000*%
%ADD34RoundRect,1.025000X1.025000X1.025000X-1.025000X1.025000X-1.025000X-1.025000X1.025000X-1.025000X0*%
%ADD35C,4.100000*%
%ADD36RoundRect,0.070000X0.350000X0.575000X-0.350000X0.575000X-0.350000X-0.575000X0.350000X-0.575000X0*%
%ADD37FreePoly0,270.000000*%
%ADD38C,0.650000*%
%ADD39R,1.240000X0.600000*%
%ADD40R,1.240000X0.300000*%
%ADD41O,2.100000X1.000000*%
%ADD42O,1.800000X1.000000*%
%ADD43FreePoly0,180.000000*%
%ADD44RoundRect,0.070000X0.575000X-0.350000X0.575000X0.350000X-0.575000X0.350000X-0.575000X-0.350000X0*%
%ADD45R,2.000000X0.900000*%
%ADD46RoundRect,1.025000X-1.025000X1.025000X-1.025000X-1.025000X1.025000X-1.025000X1.025000X1.025000X0*%
G04 APERTURE END LIST*
D10*
X80609021Y-74001657D02*
X80609021Y-76430228D01*
X80609021Y-76430228D02*
X80751878Y-76715942D01*
X80751878Y-76715942D02*
X80894736Y-76858800D01*
X80894736Y-76858800D02*
X81180450Y-77001657D01*
X81180450Y-77001657D02*
X81751878Y-77001657D01*
X81751878Y-77001657D02*
X82037593Y-76858800D01*
X82037593Y-76858800D02*
X82180450Y-76715942D01*
X82180450Y-76715942D02*
X82323307Y-76430228D01*
X82323307Y-76430228D02*
X82323307Y-74001657D01*
X83751878Y-77001657D02*
X83751878Y-74001657D01*
X83751878Y-74001657D02*
X84894735Y-74001657D01*
X84894735Y-74001657D02*
X85180450Y-74144514D01*
X85180450Y-74144514D02*
X85323307Y-74287371D01*
X85323307Y-74287371D02*
X85466164Y-74573085D01*
X85466164Y-74573085D02*
X85466164Y-75001657D01*
X85466164Y-75001657D02*
X85323307Y-75287371D01*
X85323307Y-75287371D02*
X85180450Y-75430228D01*
X85180450Y-75430228D02*
X84894735Y-75573085D01*
X84894735Y-75573085D02*
X83751878Y-75573085D01*
X86323307Y-74287371D02*
X86894735Y-73858800D01*
X86894735Y-73858800D02*
X87466164Y-74287371D01*
D11*
X80741541Y-78403152D02*
X80979636Y-79069819D01*
X80979636Y-79069819D02*
X81217731Y-78403152D01*
X81789160Y-78069819D02*
X81884398Y-78069819D01*
X81884398Y-78069819D02*
X81979636Y-78117438D01*
X81979636Y-78117438D02*
X82027255Y-78165057D01*
X82027255Y-78165057D02*
X82074874Y-78260295D01*
X82074874Y-78260295D02*
X82122493Y-78450771D01*
X82122493Y-78450771D02*
X82122493Y-78688866D01*
X82122493Y-78688866D02*
X82074874Y-78879342D01*
X82074874Y-78879342D02*
X82027255Y-78974580D01*
X82027255Y-78974580D02*
X81979636Y-79022200D01*
X81979636Y-79022200D02*
X81884398Y-79069819D01*
X81884398Y-79069819D02*
X81789160Y-79069819D01*
X81789160Y-79069819D02*
X81693922Y-79022200D01*
X81693922Y-79022200D02*
X81646303Y-78974580D01*
X81646303Y-78974580D02*
X81598684Y-78879342D01*
X81598684Y-78879342D02*
X81551065Y-78688866D01*
X81551065Y-78688866D02*
X81551065Y-78450771D01*
X81551065Y-78450771D02*
X81598684Y-78260295D01*
X81598684Y-78260295D02*
X81646303Y-78165057D01*
X81646303Y-78165057D02*
X81693922Y-78117438D01*
X81693922Y-78117438D02*
X81789160Y-78069819D01*
X82551065Y-78974580D02*
X82598684Y-79022200D01*
X82598684Y-79022200D02*
X82551065Y-79069819D01*
X82551065Y-79069819D02*
X82503446Y-79022200D01*
X82503446Y-79022200D02*
X82551065Y-78974580D01*
X82551065Y-78974580D02*
X82551065Y-79069819D01*
X83551064Y-79069819D02*
X82979636Y-79069819D01*
X83265350Y-79069819D02*
X83265350Y-78069819D01*
X83265350Y-78069819D02*
X83170112Y-78212676D01*
X83170112Y-78212676D02*
X83074874Y-78307914D01*
X83074874Y-78307914D02*
X82979636Y-78355533D01*
X84932017Y-78069819D02*
X85027255Y-78069819D01*
X85027255Y-78069819D02*
X85122493Y-78117438D01*
X85122493Y-78117438D02*
X85170112Y-78165057D01*
X85170112Y-78165057D02*
X85217731Y-78260295D01*
X85217731Y-78260295D02*
X85265350Y-78450771D01*
X85265350Y-78450771D02*
X85265350Y-78688866D01*
X85265350Y-78688866D02*
X85217731Y-78879342D01*
X85217731Y-78879342D02*
X85170112Y-78974580D01*
X85170112Y-78974580D02*
X85122493Y-79022200D01*
X85122493Y-79022200D02*
X85027255Y-79069819D01*
X85027255Y-79069819D02*
X84932017Y-79069819D01*
X84932017Y-79069819D02*
X84836779Y-79022200D01*
X84836779Y-79022200D02*
X84789160Y-78974580D01*
X84789160Y-78974580D02*
X84741541Y-78879342D01*
X84741541Y-78879342D02*
X84693922Y-78688866D01*
X84693922Y-78688866D02*
X84693922Y-78450771D01*
X84693922Y-78450771D02*
X84741541Y-78260295D01*
X84741541Y-78260295D02*
X84789160Y-78165057D01*
X84789160Y-78165057D02*
X84836779Y-78117438D01*
X84836779Y-78117438D02*
X84932017Y-78069819D01*
X86122493Y-78403152D02*
X86122493Y-79069819D01*
X85884398Y-78022200D02*
X85646303Y-78736485D01*
X85646303Y-78736485D02*
X86265350Y-78736485D01*
X87360588Y-78022200D02*
X86503446Y-79307914D01*
X87646303Y-78165057D02*
X87693922Y-78117438D01*
X87693922Y-78117438D02*
X87789160Y-78069819D01*
X87789160Y-78069819D02*
X88027255Y-78069819D01*
X88027255Y-78069819D02*
X88122493Y-78117438D01*
X88122493Y-78117438D02*
X88170112Y-78165057D01*
X88170112Y-78165057D02*
X88217731Y-78260295D01*
X88217731Y-78260295D02*
X88217731Y-78355533D01*
X88217731Y-78355533D02*
X88170112Y-78498390D01*
X88170112Y-78498390D02*
X87598684Y-79069819D01*
X87598684Y-79069819D02*
X88217731Y-79069819D01*
X88551065Y-78069819D02*
X89170112Y-78069819D01*
X89170112Y-78069819D02*
X88836779Y-78450771D01*
X88836779Y-78450771D02*
X88979636Y-78450771D01*
X88979636Y-78450771D02*
X89074874Y-78498390D01*
X89074874Y-78498390D02*
X89122493Y-78546009D01*
X89122493Y-78546009D02*
X89170112Y-78641247D01*
X89170112Y-78641247D02*
X89170112Y-78879342D01*
X89170112Y-78879342D02*
X89122493Y-78974580D01*
X89122493Y-78974580D02*
X89074874Y-79022200D01*
X89074874Y-79022200D02*
X88979636Y-79069819D01*
X88979636Y-79069819D02*
X88693922Y-79069819D01*
X88693922Y-79069819D02*
X88598684Y-79022200D01*
X88598684Y-79022200D02*
X88551065Y-78974580D01*
X140609819Y-110341792D02*
X140133628Y-110675125D01*
X140609819Y-110913220D02*
X139609819Y-110913220D01*
X139609819Y-110913220D02*
X139609819Y-110532268D01*
X139609819Y-110532268D02*
X139657438Y-110437030D01*
X139657438Y-110437030D02*
X139705057Y-110389411D01*
X139705057Y-110389411D02*
X139800295Y-110341792D01*
X139800295Y-110341792D02*
X139943152Y-110341792D01*
X139943152Y-110341792D02*
X140038390Y-110389411D01*
X140038390Y-110389411D02*
X140086009Y-110437030D01*
X140086009Y-110437030D02*
X140133628Y-110532268D01*
X140133628Y-110532268D02*
X140133628Y-110913220D01*
X140562200Y-109532268D02*
X140609819Y-109627506D01*
X140609819Y-109627506D02*
X140609819Y-109817982D01*
X140609819Y-109817982D02*
X140562200Y-109913220D01*
X140562200Y-109913220D02*
X140466961Y-109960839D01*
X140466961Y-109960839D02*
X140086009Y-109960839D01*
X140086009Y-109960839D02*
X139990771Y-109913220D01*
X139990771Y-109913220D02*
X139943152Y-109817982D01*
X139943152Y-109817982D02*
X139943152Y-109627506D01*
X139943152Y-109627506D02*
X139990771Y-109532268D01*
X139990771Y-109532268D02*
X140086009Y-109484649D01*
X140086009Y-109484649D02*
X140181247Y-109484649D01*
X140181247Y-109484649D02*
X140276485Y-109960839D01*
X140609819Y-108627506D02*
X140086009Y-108627506D01*
X140086009Y-108627506D02*
X139990771Y-108675125D01*
X139990771Y-108675125D02*
X139943152Y-108770363D01*
X139943152Y-108770363D02*
X139943152Y-108960839D01*
X139943152Y-108960839D02*
X139990771Y-109056077D01*
X140562200Y-108627506D02*
X140609819Y-108722744D01*
X140609819Y-108722744D02*
X140609819Y-108960839D01*
X140609819Y-108960839D02*
X140562200Y-109056077D01*
X140562200Y-109056077D02*
X140466961Y-109103696D01*
X140466961Y-109103696D02*
X140371723Y-109103696D01*
X140371723Y-109103696D02*
X140276485Y-109056077D01*
X140276485Y-109056077D02*
X140228866Y-108960839D01*
X140228866Y-108960839D02*
X140228866Y-108722744D01*
X140228866Y-108722744D02*
X140181247Y-108627506D01*
X140609819Y-108151315D02*
X139943152Y-108151315D01*
X140133628Y-108151315D02*
X140038390Y-108103696D01*
X140038390Y-108103696D02*
X139990771Y-108056077D01*
X139990771Y-108056077D02*
X139943152Y-107960839D01*
X139943152Y-107960839D02*
X139943152Y-107865601D01*
X140228866Y-107532267D02*
X140228866Y-106770363D01*
X140609819Y-106294172D02*
X139609819Y-106294172D01*
X139609819Y-105627506D02*
X139609819Y-105437030D01*
X139609819Y-105437030D02*
X139657438Y-105341792D01*
X139657438Y-105341792D02*
X139752676Y-105246554D01*
X139752676Y-105246554D02*
X139943152Y-105198935D01*
X139943152Y-105198935D02*
X140276485Y-105198935D01*
X140276485Y-105198935D02*
X140466961Y-105246554D01*
X140466961Y-105246554D02*
X140562200Y-105341792D01*
X140562200Y-105341792D02*
X140609819Y-105437030D01*
X140609819Y-105437030D02*
X140609819Y-105627506D01*
X140609819Y-105627506D02*
X140562200Y-105722744D01*
X140562200Y-105722744D02*
X140466961Y-105817982D01*
X140466961Y-105817982D02*
X140276485Y-105865601D01*
X140276485Y-105865601D02*
X139943152Y-105865601D01*
X139943152Y-105865601D02*
X139752676Y-105817982D01*
X139752676Y-105817982D02*
X139657438Y-105722744D01*
X139657438Y-105722744D02*
X139609819Y-105627506D01*
X140514580Y-104770363D02*
X140562200Y-104722744D01*
X140562200Y-104722744D02*
X140609819Y-104770363D01*
X140609819Y-104770363D02*
X140562200Y-104817982D01*
X140562200Y-104817982D02*
X140514580Y-104770363D01*
X140514580Y-104770363D02*
X140609819Y-104770363D01*
X139990771Y-104770363D02*
X140038390Y-104722744D01*
X140038390Y-104722744D02*
X140086009Y-104770363D01*
X140086009Y-104770363D02*
X140038390Y-104817982D01*
X140038390Y-104817982D02*
X139990771Y-104770363D01*
X139990771Y-104770363D02*
X140086009Y-104770363D01*
X140086009Y-103960840D02*
X140133628Y-103817983D01*
X140133628Y-103817983D02*
X140181247Y-103770364D01*
X140181247Y-103770364D02*
X140276485Y-103722745D01*
X140276485Y-103722745D02*
X140419342Y-103722745D01*
X140419342Y-103722745D02*
X140514580Y-103770364D01*
X140514580Y-103770364D02*
X140562200Y-103817983D01*
X140562200Y-103817983D02*
X140609819Y-103913221D01*
X140609819Y-103913221D02*
X140609819Y-104294173D01*
X140609819Y-104294173D02*
X139609819Y-104294173D01*
X139609819Y-104294173D02*
X139609819Y-103960840D01*
X139609819Y-103960840D02*
X139657438Y-103865602D01*
X139657438Y-103865602D02*
X139705057Y-103817983D01*
X139705057Y-103817983D02*
X139800295Y-103770364D01*
X139800295Y-103770364D02*
X139895533Y-103770364D01*
X139895533Y-103770364D02*
X139990771Y-103817983D01*
X139990771Y-103817983D02*
X140038390Y-103865602D01*
X140038390Y-103865602D02*
X140086009Y-103960840D01*
X140086009Y-103960840D02*
X140086009Y-104294173D01*
X140609819Y-102865602D02*
X140086009Y-102865602D01*
X140086009Y-102865602D02*
X139990771Y-102913221D01*
X139990771Y-102913221D02*
X139943152Y-103008459D01*
X139943152Y-103008459D02*
X139943152Y-103198935D01*
X139943152Y-103198935D02*
X139990771Y-103294173D01*
X140562200Y-102865602D02*
X140609819Y-102960840D01*
X140609819Y-102960840D02*
X140609819Y-103198935D01*
X140609819Y-103198935D02*
X140562200Y-103294173D01*
X140562200Y-103294173D02*
X140466961Y-103341792D01*
X140466961Y-103341792D02*
X140371723Y-103341792D01*
X140371723Y-103341792D02*
X140276485Y-103294173D01*
X140276485Y-103294173D02*
X140228866Y-103198935D01*
X140228866Y-103198935D02*
X140228866Y-102960840D01*
X140228866Y-102960840D02*
X140181247Y-102865602D01*
X140562200Y-102437030D02*
X140609819Y-102341792D01*
X140609819Y-102341792D02*
X140609819Y-102151316D01*
X140609819Y-102151316D02*
X140562200Y-102056078D01*
X140562200Y-102056078D02*
X140466961Y-102008459D01*
X140466961Y-102008459D02*
X140419342Y-102008459D01*
X140419342Y-102008459D02*
X140324104Y-102056078D01*
X140324104Y-102056078D02*
X140276485Y-102151316D01*
X140276485Y-102151316D02*
X140276485Y-102294173D01*
X140276485Y-102294173D02*
X140228866Y-102389411D01*
X140228866Y-102389411D02*
X140133628Y-102437030D01*
X140133628Y-102437030D02*
X140086009Y-102437030D01*
X140086009Y-102437030D02*
X139990771Y-102389411D01*
X139990771Y-102389411D02*
X139943152Y-102294173D01*
X139943152Y-102294173D02*
X139943152Y-102151316D01*
X139943152Y-102151316D02*
X139990771Y-102056078D01*
X140609819Y-101579887D02*
X139943152Y-101579887D01*
X139609819Y-101579887D02*
X139657438Y-101627506D01*
X139657438Y-101627506D02*
X139705057Y-101579887D01*
X139705057Y-101579887D02*
X139657438Y-101532268D01*
X139657438Y-101532268D02*
X139609819Y-101579887D01*
X139609819Y-101579887D02*
X139705057Y-101579887D01*
X140562200Y-100675126D02*
X140609819Y-100770364D01*
X140609819Y-100770364D02*
X140609819Y-100960840D01*
X140609819Y-100960840D02*
X140562200Y-101056078D01*
X140562200Y-101056078D02*
X140514580Y-101103697D01*
X140514580Y-101103697D02*
X140419342Y-101151316D01*
X140419342Y-101151316D02*
X140133628Y-101151316D01*
X140133628Y-101151316D02*
X140038390Y-101103697D01*
X140038390Y-101103697D02*
X139990771Y-101056078D01*
X139990771Y-101056078D02*
X139943152Y-100960840D01*
X139943152Y-100960840D02*
X139943152Y-100770364D01*
X139943152Y-100770364D02*
X139990771Y-100675126D01*
X141934104Y-110960839D02*
X141934104Y-110484649D01*
X142219819Y-111056077D02*
X141219819Y-110722744D01*
X141219819Y-110722744D02*
X142219819Y-110389411D01*
X142172200Y-109627506D02*
X142219819Y-109722744D01*
X142219819Y-109722744D02*
X142219819Y-109913220D01*
X142219819Y-109913220D02*
X142172200Y-110008458D01*
X142172200Y-110008458D02*
X142124580Y-110056077D01*
X142124580Y-110056077D02*
X142029342Y-110103696D01*
X142029342Y-110103696D02*
X141743628Y-110103696D01*
X141743628Y-110103696D02*
X141648390Y-110056077D01*
X141648390Y-110056077D02*
X141600771Y-110008458D01*
X141600771Y-110008458D02*
X141553152Y-109913220D01*
X141553152Y-109913220D02*
X141553152Y-109722744D01*
X141553152Y-109722744D02*
X141600771Y-109627506D01*
X142172200Y-108817982D02*
X142219819Y-108913220D01*
X142219819Y-108913220D02*
X142219819Y-109103696D01*
X142219819Y-109103696D02*
X142172200Y-109198934D01*
X142172200Y-109198934D02*
X142076961Y-109246553D01*
X142076961Y-109246553D02*
X141696009Y-109246553D01*
X141696009Y-109246553D02*
X141600771Y-109198934D01*
X141600771Y-109198934D02*
X141553152Y-109103696D01*
X141553152Y-109103696D02*
X141553152Y-108913220D01*
X141553152Y-108913220D02*
X141600771Y-108817982D01*
X141600771Y-108817982D02*
X141696009Y-108770363D01*
X141696009Y-108770363D02*
X141791247Y-108770363D01*
X141791247Y-108770363D02*
X141886485Y-109246553D01*
X141219819Y-108294172D02*
X141410295Y-108389410D01*
X142172200Y-107913220D02*
X142219819Y-107817982D01*
X142219819Y-107817982D02*
X142219819Y-107627506D01*
X142219819Y-107627506D02*
X142172200Y-107532268D01*
X142172200Y-107532268D02*
X142076961Y-107484649D01*
X142076961Y-107484649D02*
X142029342Y-107484649D01*
X142029342Y-107484649D02*
X141934104Y-107532268D01*
X141934104Y-107532268D02*
X141886485Y-107627506D01*
X141886485Y-107627506D02*
X141886485Y-107770363D01*
X141886485Y-107770363D02*
X141838866Y-107865601D01*
X141838866Y-107865601D02*
X141743628Y-107913220D01*
X141743628Y-107913220D02*
X141696009Y-107913220D01*
X141696009Y-107913220D02*
X141600771Y-107865601D01*
X141600771Y-107865601D02*
X141553152Y-107770363D01*
X141553152Y-107770363D02*
X141553152Y-107627506D01*
X141553152Y-107627506D02*
X141600771Y-107532268D01*
X141696009Y-106294172D02*
X141696009Y-105960839D01*
X142219819Y-105817982D02*
X142219819Y-106294172D01*
X142219819Y-106294172D02*
X141219819Y-106294172D01*
X141219819Y-106294172D02*
X141219819Y-105817982D01*
X142219819Y-105246553D02*
X142172200Y-105341791D01*
X142172200Y-105341791D02*
X142076961Y-105389410D01*
X142076961Y-105389410D02*
X141219819Y-105389410D01*
X142172200Y-104484648D02*
X142219819Y-104579886D01*
X142219819Y-104579886D02*
X142219819Y-104770362D01*
X142219819Y-104770362D02*
X142172200Y-104865600D01*
X142172200Y-104865600D02*
X142076961Y-104913219D01*
X142076961Y-104913219D02*
X141696009Y-104913219D01*
X141696009Y-104913219D02*
X141600771Y-104865600D01*
X141600771Y-104865600D02*
X141553152Y-104770362D01*
X141553152Y-104770362D02*
X141553152Y-104579886D01*
X141553152Y-104579886D02*
X141600771Y-104484648D01*
X141600771Y-104484648D02*
X141696009Y-104437029D01*
X141696009Y-104437029D02*
X141791247Y-104437029D01*
X141791247Y-104437029D02*
X141886485Y-104913219D01*
X142172200Y-103579886D02*
X142219819Y-103675124D01*
X142219819Y-103675124D02*
X142219819Y-103865600D01*
X142219819Y-103865600D02*
X142172200Y-103960838D01*
X142172200Y-103960838D02*
X142124580Y-104008457D01*
X142124580Y-104008457D02*
X142029342Y-104056076D01*
X142029342Y-104056076D02*
X141743628Y-104056076D01*
X141743628Y-104056076D02*
X141648390Y-104008457D01*
X141648390Y-104008457D02*
X141600771Y-103960838D01*
X141600771Y-103960838D02*
X141553152Y-103865600D01*
X141553152Y-103865600D02*
X141553152Y-103675124D01*
X141553152Y-103675124D02*
X141600771Y-103579886D01*
X141553152Y-103294171D02*
X141553152Y-102913219D01*
X141219819Y-103151314D02*
X142076961Y-103151314D01*
X142076961Y-103151314D02*
X142172200Y-103103695D01*
X142172200Y-103103695D02*
X142219819Y-103008457D01*
X142219819Y-103008457D02*
X142219819Y-102913219D01*
X142219819Y-102579885D02*
X141553152Y-102579885D01*
X141743628Y-102579885D02*
X141648390Y-102532266D01*
X141648390Y-102532266D02*
X141600771Y-102484647D01*
X141600771Y-102484647D02*
X141553152Y-102389409D01*
X141553152Y-102389409D02*
X141553152Y-102294171D01*
X142219819Y-101817980D02*
X142172200Y-101913218D01*
X142172200Y-101913218D02*
X142124580Y-101960837D01*
X142124580Y-101960837D02*
X142029342Y-102008456D01*
X142029342Y-102008456D02*
X141743628Y-102008456D01*
X141743628Y-102008456D02*
X141648390Y-101960837D01*
X141648390Y-101960837D02*
X141600771Y-101913218D01*
X141600771Y-101913218D02*
X141553152Y-101817980D01*
X141553152Y-101817980D02*
X141553152Y-101675123D01*
X141553152Y-101675123D02*
X141600771Y-101579885D01*
X141600771Y-101579885D02*
X141648390Y-101532266D01*
X141648390Y-101532266D02*
X141743628Y-101484647D01*
X141743628Y-101484647D02*
X142029342Y-101484647D01*
X142029342Y-101484647D02*
X142124580Y-101532266D01*
X142124580Y-101532266D02*
X142172200Y-101579885D01*
X142172200Y-101579885D02*
X142219819Y-101675123D01*
X142219819Y-101675123D02*
X142219819Y-101817980D01*
X141553152Y-101056075D02*
X142219819Y-101056075D01*
X141648390Y-101056075D02*
X141600771Y-101008456D01*
X141600771Y-101008456D02*
X141553152Y-100913218D01*
X141553152Y-100913218D02*
X141553152Y-100770361D01*
X141553152Y-100770361D02*
X141600771Y-100675123D01*
X141600771Y-100675123D02*
X141696009Y-100627504D01*
X141696009Y-100627504D02*
X142219819Y-100627504D01*
X142219819Y-100151313D02*
X141553152Y-100151313D01*
X141219819Y-100151313D02*
X141267438Y-100198932D01*
X141267438Y-100198932D02*
X141315057Y-100151313D01*
X141315057Y-100151313D02*
X141267438Y-100103694D01*
X141267438Y-100103694D02*
X141219819Y-100151313D01*
X141219819Y-100151313D02*
X141315057Y-100151313D01*
X142172200Y-99246552D02*
X142219819Y-99341790D01*
X142219819Y-99341790D02*
X142219819Y-99532266D01*
X142219819Y-99532266D02*
X142172200Y-99627504D01*
X142172200Y-99627504D02*
X142124580Y-99675123D01*
X142124580Y-99675123D02*
X142029342Y-99722742D01*
X142029342Y-99722742D02*
X141743628Y-99722742D01*
X141743628Y-99722742D02*
X141648390Y-99675123D01*
X141648390Y-99675123D02*
X141600771Y-99627504D01*
X141600771Y-99627504D02*
X141553152Y-99532266D01*
X141553152Y-99532266D02*
X141553152Y-99341790D01*
X141553152Y-99341790D02*
X141600771Y-99246552D01*
X142172200Y-98865599D02*
X142219819Y-98770361D01*
X142219819Y-98770361D02*
X142219819Y-98579885D01*
X142219819Y-98579885D02*
X142172200Y-98484647D01*
X142172200Y-98484647D02*
X142076961Y-98437028D01*
X142076961Y-98437028D02*
X142029342Y-98437028D01*
X142029342Y-98437028D02*
X141934104Y-98484647D01*
X141934104Y-98484647D02*
X141886485Y-98579885D01*
X141886485Y-98579885D02*
X141886485Y-98722742D01*
X141886485Y-98722742D02*
X141838866Y-98817980D01*
X141838866Y-98817980D02*
X141743628Y-98865599D01*
X141743628Y-98865599D02*
X141696009Y-98865599D01*
X141696009Y-98865599D02*
X141600771Y-98817980D01*
X141600771Y-98817980D02*
X141553152Y-98722742D01*
X141553152Y-98722742D02*
X141553152Y-98579885D01*
X141553152Y-98579885D02*
X141600771Y-98484647D01*
X92408333Y-77854819D02*
X92075000Y-77378628D01*
X91836905Y-77854819D02*
X91836905Y-76854819D01*
X91836905Y-76854819D02*
X92217857Y-76854819D01*
X92217857Y-76854819D02*
X92313095Y-76902438D01*
X92313095Y-76902438D02*
X92360714Y-76950057D01*
X92360714Y-76950057D02*
X92408333Y-77045295D01*
X92408333Y-77045295D02*
X92408333Y-77188152D01*
X92408333Y-77188152D02*
X92360714Y-77283390D01*
X92360714Y-77283390D02*
X92313095Y-77331009D01*
X92313095Y-77331009D02*
X92217857Y-77378628D01*
X92217857Y-77378628D02*
X91836905Y-77378628D01*
X93265476Y-76854819D02*
X93075000Y-76854819D01*
X93075000Y-76854819D02*
X92979762Y-76902438D01*
X92979762Y-76902438D02*
X92932143Y-76950057D01*
X92932143Y-76950057D02*
X92836905Y-77092914D01*
X92836905Y-77092914D02*
X92789286Y-77283390D01*
X92789286Y-77283390D02*
X92789286Y-77664342D01*
X92789286Y-77664342D02*
X92836905Y-77759580D01*
X92836905Y-77759580D02*
X92884524Y-77807200D01*
X92884524Y-77807200D02*
X92979762Y-77854819D01*
X92979762Y-77854819D02*
X93170238Y-77854819D01*
X93170238Y-77854819D02*
X93265476Y-77807200D01*
X93265476Y-77807200D02*
X93313095Y-77759580D01*
X93313095Y-77759580D02*
X93360714Y-77664342D01*
X93360714Y-77664342D02*
X93360714Y-77426247D01*
X93360714Y-77426247D02*
X93313095Y-77331009D01*
X93313095Y-77331009D02*
X93265476Y-77283390D01*
X93265476Y-77283390D02*
X93170238Y-77235771D01*
X93170238Y-77235771D02*
X92979762Y-77235771D01*
X92979762Y-77235771D02*
X92884524Y-77283390D01*
X92884524Y-77283390D02*
X92836905Y-77331009D01*
X92836905Y-77331009D02*
X92789286Y-77426247D01*
X92408333Y-82554819D02*
X92075000Y-82078628D01*
X91836905Y-82554819D02*
X91836905Y-81554819D01*
X91836905Y-81554819D02*
X92217857Y-81554819D01*
X92217857Y-81554819D02*
X92313095Y-81602438D01*
X92313095Y-81602438D02*
X92360714Y-81650057D01*
X92360714Y-81650057D02*
X92408333Y-81745295D01*
X92408333Y-81745295D02*
X92408333Y-81888152D01*
X92408333Y-81888152D02*
X92360714Y-81983390D01*
X92360714Y-81983390D02*
X92313095Y-82031009D01*
X92313095Y-82031009D02*
X92217857Y-82078628D01*
X92217857Y-82078628D02*
X91836905Y-82078628D01*
X93313095Y-81554819D02*
X92836905Y-81554819D01*
X92836905Y-81554819D02*
X92789286Y-82031009D01*
X92789286Y-82031009D02*
X92836905Y-81983390D01*
X92836905Y-81983390D02*
X92932143Y-81935771D01*
X92932143Y-81935771D02*
X93170238Y-81935771D01*
X93170238Y-81935771D02*
X93265476Y-81983390D01*
X93265476Y-81983390D02*
X93313095Y-82031009D01*
X93313095Y-82031009D02*
X93360714Y-82126247D01*
X93360714Y-82126247D02*
X93360714Y-82364342D01*
X93360714Y-82364342D02*
X93313095Y-82459580D01*
X93313095Y-82459580D02*
X93265476Y-82507200D01*
X93265476Y-82507200D02*
X93170238Y-82554819D01*
X93170238Y-82554819D02*
X92932143Y-82554819D01*
X92932143Y-82554819D02*
X92836905Y-82507200D01*
X92836905Y-82507200D02*
X92789286Y-82459580D01*
X163959580Y-86066666D02*
X164007200Y-86114285D01*
X164007200Y-86114285D02*
X164054819Y-86257142D01*
X164054819Y-86257142D02*
X164054819Y-86352380D01*
X164054819Y-86352380D02*
X164007200Y-86495237D01*
X164007200Y-86495237D02*
X163911961Y-86590475D01*
X163911961Y-86590475D02*
X163816723Y-86638094D01*
X163816723Y-86638094D02*
X163626247Y-86685713D01*
X163626247Y-86685713D02*
X163483390Y-86685713D01*
X163483390Y-86685713D02*
X163292914Y-86638094D01*
X163292914Y-86638094D02*
X163197676Y-86590475D01*
X163197676Y-86590475D02*
X163102438Y-86495237D01*
X163102438Y-86495237D02*
X163054819Y-86352380D01*
X163054819Y-86352380D02*
X163054819Y-86257142D01*
X163054819Y-86257142D02*
X163102438Y-86114285D01*
X163102438Y-86114285D02*
X163150057Y-86066666D01*
X163054819Y-85209523D02*
X163054819Y-85399999D01*
X163054819Y-85399999D02*
X163102438Y-85495237D01*
X163102438Y-85495237D02*
X163150057Y-85542856D01*
X163150057Y-85542856D02*
X163292914Y-85638094D01*
X163292914Y-85638094D02*
X163483390Y-85685713D01*
X163483390Y-85685713D02*
X163864342Y-85685713D01*
X163864342Y-85685713D02*
X163959580Y-85638094D01*
X163959580Y-85638094D02*
X164007200Y-85590475D01*
X164007200Y-85590475D02*
X164054819Y-85495237D01*
X164054819Y-85495237D02*
X164054819Y-85304761D01*
X164054819Y-85304761D02*
X164007200Y-85209523D01*
X164007200Y-85209523D02*
X163959580Y-85161904D01*
X163959580Y-85161904D02*
X163864342Y-85114285D01*
X163864342Y-85114285D02*
X163626247Y-85114285D01*
X163626247Y-85114285D02*
X163531009Y-85161904D01*
X163531009Y-85161904D02*
X163483390Y-85209523D01*
X163483390Y-85209523D02*
X163435771Y-85304761D01*
X163435771Y-85304761D02*
X163435771Y-85495237D01*
X163435771Y-85495237D02*
X163483390Y-85590475D01*
X163483390Y-85590475D02*
X163531009Y-85638094D01*
X163531009Y-85638094D02*
X163626247Y-85685713D01*
X165433333Y-81559580D02*
X165385714Y-81607200D01*
X165385714Y-81607200D02*
X165242857Y-81654819D01*
X165242857Y-81654819D02*
X165147619Y-81654819D01*
X165147619Y-81654819D02*
X165004762Y-81607200D01*
X165004762Y-81607200D02*
X164909524Y-81511961D01*
X164909524Y-81511961D02*
X164861905Y-81416723D01*
X164861905Y-81416723D02*
X164814286Y-81226247D01*
X164814286Y-81226247D02*
X164814286Y-81083390D01*
X164814286Y-81083390D02*
X164861905Y-80892914D01*
X164861905Y-80892914D02*
X164909524Y-80797676D01*
X164909524Y-80797676D02*
X165004762Y-80702438D01*
X165004762Y-80702438D02*
X165147619Y-80654819D01*
X165147619Y-80654819D02*
X165242857Y-80654819D01*
X165242857Y-80654819D02*
X165385714Y-80702438D01*
X165385714Y-80702438D02*
X165433333Y-80750057D01*
X166290476Y-80988152D02*
X166290476Y-81654819D01*
X166052381Y-80607200D02*
X165814286Y-81321485D01*
X165814286Y-81321485D02*
X166433333Y-81321485D01*
X169138095Y-80754819D02*
X169138095Y-81564342D01*
X169138095Y-81564342D02*
X169185714Y-81659580D01*
X169185714Y-81659580D02*
X169233333Y-81707200D01*
X169233333Y-81707200D02*
X169328571Y-81754819D01*
X169328571Y-81754819D02*
X169519047Y-81754819D01*
X169519047Y-81754819D02*
X169614285Y-81707200D01*
X169614285Y-81707200D02*
X169661904Y-81659580D01*
X169661904Y-81659580D02*
X169709523Y-81564342D01*
X169709523Y-81564342D02*
X169709523Y-80754819D01*
X170090476Y-80754819D02*
X170709523Y-80754819D01*
X170709523Y-80754819D02*
X170376190Y-81135771D01*
X170376190Y-81135771D02*
X170519047Y-81135771D01*
X170519047Y-81135771D02*
X170614285Y-81183390D01*
X170614285Y-81183390D02*
X170661904Y-81231009D01*
X170661904Y-81231009D02*
X170709523Y-81326247D01*
X170709523Y-81326247D02*
X170709523Y-81564342D01*
X170709523Y-81564342D02*
X170661904Y-81659580D01*
X170661904Y-81659580D02*
X170614285Y-81707200D01*
X170614285Y-81707200D02*
X170519047Y-81754819D01*
X170519047Y-81754819D02*
X170233333Y-81754819D01*
X170233333Y-81754819D02*
X170138095Y-81707200D01*
X170138095Y-81707200D02*
X170090476Y-81659580D01*
X175983333Y-87084580D02*
X175935714Y-87132200D01*
X175935714Y-87132200D02*
X175792857Y-87179819D01*
X175792857Y-87179819D02*
X175697619Y-87179819D01*
X175697619Y-87179819D02*
X175554762Y-87132200D01*
X175554762Y-87132200D02*
X175459524Y-87036961D01*
X175459524Y-87036961D02*
X175411905Y-86941723D01*
X175411905Y-86941723D02*
X175364286Y-86751247D01*
X175364286Y-86751247D02*
X175364286Y-86608390D01*
X175364286Y-86608390D02*
X175411905Y-86417914D01*
X175411905Y-86417914D02*
X175459524Y-86322676D01*
X175459524Y-86322676D02*
X175554762Y-86227438D01*
X175554762Y-86227438D02*
X175697619Y-86179819D01*
X175697619Y-86179819D02*
X175792857Y-86179819D01*
X175792857Y-86179819D02*
X175935714Y-86227438D01*
X175935714Y-86227438D02*
X175983333Y-86275057D01*
X176364286Y-86275057D02*
X176411905Y-86227438D01*
X176411905Y-86227438D02*
X176507143Y-86179819D01*
X176507143Y-86179819D02*
X176745238Y-86179819D01*
X176745238Y-86179819D02*
X176840476Y-86227438D01*
X176840476Y-86227438D02*
X176888095Y-86275057D01*
X176888095Y-86275057D02*
X176935714Y-86370295D01*
X176935714Y-86370295D02*
X176935714Y-86465533D01*
X176935714Y-86465533D02*
X176888095Y-86608390D01*
X176888095Y-86608390D02*
X176316667Y-87179819D01*
X176316667Y-87179819D02*
X176935714Y-87179819D01*
X169333333Y-88054819D02*
X169000000Y-87578628D01*
X168761905Y-88054819D02*
X168761905Y-87054819D01*
X168761905Y-87054819D02*
X169142857Y-87054819D01*
X169142857Y-87054819D02*
X169238095Y-87102438D01*
X169238095Y-87102438D02*
X169285714Y-87150057D01*
X169285714Y-87150057D02*
X169333333Y-87245295D01*
X169333333Y-87245295D02*
X169333333Y-87388152D01*
X169333333Y-87388152D02*
X169285714Y-87483390D01*
X169285714Y-87483390D02*
X169238095Y-87531009D01*
X169238095Y-87531009D02*
X169142857Y-87578628D01*
X169142857Y-87578628D02*
X168761905Y-87578628D01*
X170190476Y-87388152D02*
X170190476Y-88054819D01*
X169952381Y-87007200D02*
X169714286Y-87721485D01*
X169714286Y-87721485D02*
X170333333Y-87721485D01*
X173433333Y-74259580D02*
X173385714Y-74307200D01*
X173385714Y-74307200D02*
X173242857Y-74354819D01*
X173242857Y-74354819D02*
X173147619Y-74354819D01*
X173147619Y-74354819D02*
X173004762Y-74307200D01*
X173004762Y-74307200D02*
X172909524Y-74211961D01*
X172909524Y-74211961D02*
X172861905Y-74116723D01*
X172861905Y-74116723D02*
X172814286Y-73926247D01*
X172814286Y-73926247D02*
X172814286Y-73783390D01*
X172814286Y-73783390D02*
X172861905Y-73592914D01*
X172861905Y-73592914D02*
X172909524Y-73497676D01*
X172909524Y-73497676D02*
X173004762Y-73402438D01*
X173004762Y-73402438D02*
X173147619Y-73354819D01*
X173147619Y-73354819D02*
X173242857Y-73354819D01*
X173242857Y-73354819D02*
X173385714Y-73402438D01*
X173385714Y-73402438D02*
X173433333Y-73450057D01*
X174385714Y-74354819D02*
X173814286Y-74354819D01*
X174100000Y-74354819D02*
X174100000Y-73354819D01*
X174100000Y-73354819D02*
X174004762Y-73497676D01*
X174004762Y-73497676D02*
X173909524Y-73592914D01*
X173909524Y-73592914D02*
X173814286Y-73640533D01*
X167654819Y-87966666D02*
X167178628Y-88299999D01*
X167654819Y-88538094D02*
X166654819Y-88538094D01*
X166654819Y-88538094D02*
X166654819Y-88157142D01*
X166654819Y-88157142D02*
X166702438Y-88061904D01*
X166702438Y-88061904D02*
X166750057Y-88014285D01*
X166750057Y-88014285D02*
X166845295Y-87966666D01*
X166845295Y-87966666D02*
X166988152Y-87966666D01*
X166988152Y-87966666D02*
X167083390Y-88014285D01*
X167083390Y-88014285D02*
X167131009Y-88061904D01*
X167131009Y-88061904D02*
X167178628Y-88157142D01*
X167178628Y-88157142D02*
X167178628Y-88538094D01*
X166654819Y-87633332D02*
X166654819Y-87014285D01*
X166654819Y-87014285D02*
X167035771Y-87347618D01*
X167035771Y-87347618D02*
X167035771Y-87204761D01*
X167035771Y-87204761D02*
X167083390Y-87109523D01*
X167083390Y-87109523D02*
X167131009Y-87061904D01*
X167131009Y-87061904D02*
X167226247Y-87014285D01*
X167226247Y-87014285D02*
X167464342Y-87014285D01*
X167464342Y-87014285D02*
X167559580Y-87061904D01*
X167559580Y-87061904D02*
X167607200Y-87109523D01*
X167607200Y-87109523D02*
X167654819Y-87204761D01*
X167654819Y-87204761D02*
X167654819Y-87490475D01*
X167654819Y-87490475D02*
X167607200Y-87585713D01*
X167607200Y-87585713D02*
X167559580Y-87633332D01*
X169333333Y-78454819D02*
X168857143Y-78454819D01*
X168857143Y-78454819D02*
X168857143Y-77454819D01*
X170190476Y-78454819D02*
X169619048Y-78454819D01*
X169904762Y-78454819D02*
X169904762Y-77454819D01*
X169904762Y-77454819D02*
X169809524Y-77597676D01*
X169809524Y-77597676D02*
X169714286Y-77692914D01*
X169714286Y-77692914D02*
X169619048Y-77740533D01*
X165483333Y-72859580D02*
X165435714Y-72907200D01*
X165435714Y-72907200D02*
X165292857Y-72954819D01*
X165292857Y-72954819D02*
X165197619Y-72954819D01*
X165197619Y-72954819D02*
X165054762Y-72907200D01*
X165054762Y-72907200D02*
X164959524Y-72811961D01*
X164959524Y-72811961D02*
X164911905Y-72716723D01*
X164911905Y-72716723D02*
X164864286Y-72526247D01*
X164864286Y-72526247D02*
X164864286Y-72383390D01*
X164864286Y-72383390D02*
X164911905Y-72192914D01*
X164911905Y-72192914D02*
X164959524Y-72097676D01*
X164959524Y-72097676D02*
X165054762Y-72002438D01*
X165054762Y-72002438D02*
X165197619Y-71954819D01*
X165197619Y-71954819D02*
X165292857Y-71954819D01*
X165292857Y-71954819D02*
X165435714Y-72002438D01*
X165435714Y-72002438D02*
X165483333Y-72050057D01*
X166388095Y-71954819D02*
X165911905Y-71954819D01*
X165911905Y-71954819D02*
X165864286Y-72431009D01*
X165864286Y-72431009D02*
X165911905Y-72383390D01*
X165911905Y-72383390D02*
X166007143Y-72335771D01*
X166007143Y-72335771D02*
X166245238Y-72335771D01*
X166245238Y-72335771D02*
X166340476Y-72383390D01*
X166340476Y-72383390D02*
X166388095Y-72431009D01*
X166388095Y-72431009D02*
X166435714Y-72526247D01*
X166435714Y-72526247D02*
X166435714Y-72764342D01*
X166435714Y-72764342D02*
X166388095Y-72859580D01*
X166388095Y-72859580D02*
X166340476Y-72907200D01*
X166340476Y-72907200D02*
X166245238Y-72954819D01*
X166245238Y-72954819D02*
X166007143Y-72954819D01*
X166007143Y-72954819D02*
X165911905Y-72907200D01*
X165911905Y-72907200D02*
X165864286Y-72859580D01*
X173383333Y-87134580D02*
X173335714Y-87182200D01*
X173335714Y-87182200D02*
X173192857Y-87229819D01*
X173192857Y-87229819D02*
X173097619Y-87229819D01*
X173097619Y-87229819D02*
X172954762Y-87182200D01*
X172954762Y-87182200D02*
X172859524Y-87086961D01*
X172859524Y-87086961D02*
X172811905Y-86991723D01*
X172811905Y-86991723D02*
X172764286Y-86801247D01*
X172764286Y-86801247D02*
X172764286Y-86658390D01*
X172764286Y-86658390D02*
X172811905Y-86467914D01*
X172811905Y-86467914D02*
X172859524Y-86372676D01*
X172859524Y-86372676D02*
X172954762Y-86277438D01*
X172954762Y-86277438D02*
X173097619Y-86229819D01*
X173097619Y-86229819D02*
X173192857Y-86229819D01*
X173192857Y-86229819D02*
X173335714Y-86277438D01*
X173335714Y-86277438D02*
X173383333Y-86325057D01*
X173716667Y-86229819D02*
X174335714Y-86229819D01*
X174335714Y-86229819D02*
X174002381Y-86610771D01*
X174002381Y-86610771D02*
X174145238Y-86610771D01*
X174145238Y-86610771D02*
X174240476Y-86658390D01*
X174240476Y-86658390D02*
X174288095Y-86706009D01*
X174288095Y-86706009D02*
X174335714Y-86801247D01*
X174335714Y-86801247D02*
X174335714Y-87039342D01*
X174335714Y-87039342D02*
X174288095Y-87134580D01*
X174288095Y-87134580D02*
X174240476Y-87182200D01*
X174240476Y-87182200D02*
X174145238Y-87229819D01*
X174145238Y-87229819D02*
X173859524Y-87229819D01*
X173859524Y-87229819D02*
X173764286Y-87182200D01*
X173764286Y-87182200D02*
X173716667Y-87134580D01*
X165659580Y-86066666D02*
X165707200Y-86114285D01*
X165707200Y-86114285D02*
X165754819Y-86257142D01*
X165754819Y-86257142D02*
X165754819Y-86352380D01*
X165754819Y-86352380D02*
X165707200Y-86495237D01*
X165707200Y-86495237D02*
X165611961Y-86590475D01*
X165611961Y-86590475D02*
X165516723Y-86638094D01*
X165516723Y-86638094D02*
X165326247Y-86685713D01*
X165326247Y-86685713D02*
X165183390Y-86685713D01*
X165183390Y-86685713D02*
X164992914Y-86638094D01*
X164992914Y-86638094D02*
X164897676Y-86590475D01*
X164897676Y-86590475D02*
X164802438Y-86495237D01*
X164802438Y-86495237D02*
X164754819Y-86352380D01*
X164754819Y-86352380D02*
X164754819Y-86257142D01*
X164754819Y-86257142D02*
X164802438Y-86114285D01*
X164802438Y-86114285D02*
X164850057Y-86066666D01*
X164754819Y-85733332D02*
X164754819Y-85066666D01*
X164754819Y-85066666D02*
X165754819Y-85495237D01*
X168761905Y-73354819D02*
X168761905Y-72354819D01*
X168761905Y-72354819D02*
X169000000Y-72354819D01*
X169000000Y-72354819D02*
X169142857Y-72402438D01*
X169142857Y-72402438D02*
X169238095Y-72497676D01*
X169238095Y-72497676D02*
X169285714Y-72592914D01*
X169285714Y-72592914D02*
X169333333Y-72783390D01*
X169333333Y-72783390D02*
X169333333Y-72926247D01*
X169333333Y-72926247D02*
X169285714Y-73116723D01*
X169285714Y-73116723D02*
X169238095Y-73211961D01*
X169238095Y-73211961D02*
X169142857Y-73307200D01*
X169142857Y-73307200D02*
X169000000Y-73354819D01*
X169000000Y-73354819D02*
X168761905Y-73354819D01*
X169666667Y-72354819D02*
X170333333Y-72354819D01*
X170333333Y-72354819D02*
X169904762Y-73354819D01*
X167061905Y-129954819D02*
X167061905Y-128954819D01*
X167061905Y-128954819D02*
X167300000Y-128954819D01*
X167300000Y-128954819D02*
X167442857Y-129002438D01*
X167442857Y-129002438D02*
X167538095Y-129097676D01*
X167538095Y-129097676D02*
X167585714Y-129192914D01*
X167585714Y-129192914D02*
X167633333Y-129383390D01*
X167633333Y-129383390D02*
X167633333Y-129526247D01*
X167633333Y-129526247D02*
X167585714Y-129716723D01*
X167585714Y-129716723D02*
X167538095Y-129811961D01*
X167538095Y-129811961D02*
X167442857Y-129907200D01*
X167442857Y-129907200D02*
X167300000Y-129954819D01*
X167300000Y-129954819D02*
X167061905Y-129954819D01*
X168538095Y-128954819D02*
X168061905Y-128954819D01*
X168061905Y-128954819D02*
X168014286Y-129431009D01*
X168014286Y-129431009D02*
X168061905Y-129383390D01*
X168061905Y-129383390D02*
X168157143Y-129335771D01*
X168157143Y-129335771D02*
X168395238Y-129335771D01*
X168395238Y-129335771D02*
X168490476Y-129383390D01*
X168490476Y-129383390D02*
X168538095Y-129431009D01*
X168538095Y-129431009D02*
X168585714Y-129526247D01*
X168585714Y-129526247D02*
X168585714Y-129764342D01*
X168585714Y-129764342D02*
X168538095Y-129859580D01*
X168538095Y-129859580D02*
X168490476Y-129907200D01*
X168490476Y-129907200D02*
X168395238Y-129954819D01*
X168395238Y-129954819D02*
X168157143Y-129954819D01*
X168157143Y-129954819D02*
X168061905Y-129907200D01*
X168061905Y-129907200D02*
X168014286Y-129859580D01*
X140761905Y-129854819D02*
X140761905Y-128854819D01*
X140761905Y-128854819D02*
X141000000Y-128854819D01*
X141000000Y-128854819D02*
X141142857Y-128902438D01*
X141142857Y-128902438D02*
X141238095Y-128997676D01*
X141238095Y-128997676D02*
X141285714Y-129092914D01*
X141285714Y-129092914D02*
X141333333Y-129283390D01*
X141333333Y-129283390D02*
X141333333Y-129426247D01*
X141333333Y-129426247D02*
X141285714Y-129616723D01*
X141285714Y-129616723D02*
X141238095Y-129711961D01*
X141238095Y-129711961D02*
X141142857Y-129807200D01*
X141142857Y-129807200D02*
X141000000Y-129854819D01*
X141000000Y-129854819D02*
X140761905Y-129854819D01*
X142190476Y-129188152D02*
X142190476Y-129854819D01*
X141952381Y-128807200D02*
X141714286Y-129521485D01*
X141714286Y-129521485D02*
X142333333Y-129521485D01*
X114261905Y-130054819D02*
X114261905Y-129054819D01*
X114261905Y-129054819D02*
X114500000Y-129054819D01*
X114500000Y-129054819D02*
X114642857Y-129102438D01*
X114642857Y-129102438D02*
X114738095Y-129197676D01*
X114738095Y-129197676D02*
X114785714Y-129292914D01*
X114785714Y-129292914D02*
X114833333Y-129483390D01*
X114833333Y-129483390D02*
X114833333Y-129626247D01*
X114833333Y-129626247D02*
X114785714Y-129816723D01*
X114785714Y-129816723D02*
X114738095Y-129911961D01*
X114738095Y-129911961D02*
X114642857Y-130007200D01*
X114642857Y-130007200D02*
X114500000Y-130054819D01*
X114500000Y-130054819D02*
X114261905Y-130054819D01*
X115166667Y-129054819D02*
X115785714Y-129054819D01*
X115785714Y-129054819D02*
X115452381Y-129435771D01*
X115452381Y-129435771D02*
X115595238Y-129435771D01*
X115595238Y-129435771D02*
X115690476Y-129483390D01*
X115690476Y-129483390D02*
X115738095Y-129531009D01*
X115738095Y-129531009D02*
X115785714Y-129626247D01*
X115785714Y-129626247D02*
X115785714Y-129864342D01*
X115785714Y-129864342D02*
X115738095Y-129959580D01*
X115738095Y-129959580D02*
X115690476Y-130007200D01*
X115690476Y-130007200D02*
X115595238Y-130054819D01*
X115595238Y-130054819D02*
X115309524Y-130054819D01*
X115309524Y-130054819D02*
X115214286Y-130007200D01*
X115214286Y-130007200D02*
X115166667Y-129959580D01*
X88261905Y-129854819D02*
X88261905Y-128854819D01*
X88261905Y-128854819D02*
X88500000Y-128854819D01*
X88500000Y-128854819D02*
X88642857Y-128902438D01*
X88642857Y-128902438D02*
X88738095Y-128997676D01*
X88738095Y-128997676D02*
X88785714Y-129092914D01*
X88785714Y-129092914D02*
X88833333Y-129283390D01*
X88833333Y-129283390D02*
X88833333Y-129426247D01*
X88833333Y-129426247D02*
X88785714Y-129616723D01*
X88785714Y-129616723D02*
X88738095Y-129711961D01*
X88738095Y-129711961D02*
X88642857Y-129807200D01*
X88642857Y-129807200D02*
X88500000Y-129854819D01*
X88500000Y-129854819D02*
X88261905Y-129854819D01*
X89214286Y-128950057D02*
X89261905Y-128902438D01*
X89261905Y-128902438D02*
X89357143Y-128854819D01*
X89357143Y-128854819D02*
X89595238Y-128854819D01*
X89595238Y-128854819D02*
X89690476Y-128902438D01*
X89690476Y-128902438D02*
X89738095Y-128950057D01*
X89738095Y-128950057D02*
X89785714Y-129045295D01*
X89785714Y-129045295D02*
X89785714Y-129140533D01*
X89785714Y-129140533D02*
X89738095Y-129283390D01*
X89738095Y-129283390D02*
X89166667Y-129854819D01*
X89166667Y-129854819D02*
X89785714Y-129854819D01*
X126378807Y-81349930D02*
X126378807Y-82159453D01*
X126378807Y-82159453D02*
X126426426Y-82254691D01*
X126426426Y-82254691D02*
X126474045Y-82302311D01*
X126474045Y-82302311D02*
X126569283Y-82349930D01*
X126569283Y-82349930D02*
X126759759Y-82349930D01*
X126759759Y-82349930D02*
X126854997Y-82302311D01*
X126854997Y-82302311D02*
X126902616Y-82254691D01*
X126902616Y-82254691D02*
X126950235Y-82159453D01*
X126950235Y-82159453D02*
X126950235Y-81349930D01*
X127378807Y-81445168D02*
X127426426Y-81397549D01*
X127426426Y-81397549D02*
X127521664Y-81349930D01*
X127521664Y-81349930D02*
X127759759Y-81349930D01*
X127759759Y-81349930D02*
X127854997Y-81397549D01*
X127854997Y-81397549D02*
X127902616Y-81445168D01*
X127902616Y-81445168D02*
X127950235Y-81540406D01*
X127950235Y-81540406D02*
X127950235Y-81635644D01*
X127950235Y-81635644D02*
X127902616Y-81778501D01*
X127902616Y-81778501D02*
X127331188Y-82349930D01*
X127331188Y-82349930D02*
X127950235Y-82349930D01*
X112830127Y-81504403D02*
X112830127Y-82313926D01*
X112830127Y-82313926D02*
X112877746Y-82409164D01*
X112877746Y-82409164D02*
X112925365Y-82456784D01*
X112925365Y-82456784D02*
X113020603Y-82504403D01*
X113020603Y-82504403D02*
X113211079Y-82504403D01*
X113211079Y-82504403D02*
X113306317Y-82456784D01*
X113306317Y-82456784D02*
X113353936Y-82409164D01*
X113353936Y-82409164D02*
X113401555Y-82313926D01*
X113401555Y-82313926D02*
X113401555Y-81504403D01*
X114401555Y-82504403D02*
X113830127Y-82504403D01*
X114115841Y-82504403D02*
X114115841Y-81504403D01*
X114115841Y-81504403D02*
X114020603Y-81647260D01*
X114020603Y-81647260D02*
X113925365Y-81742498D01*
X113925365Y-81742498D02*
X113830127Y-81790117D01*
X180861905Y-79754819D02*
X180861905Y-78754819D01*
X180861905Y-78754819D02*
X181100000Y-78754819D01*
X181100000Y-78754819D02*
X181242857Y-78802438D01*
X181242857Y-78802438D02*
X181338095Y-78897676D01*
X181338095Y-78897676D02*
X181385714Y-78992914D01*
X181385714Y-78992914D02*
X181433333Y-79183390D01*
X181433333Y-79183390D02*
X181433333Y-79326247D01*
X181433333Y-79326247D02*
X181385714Y-79516723D01*
X181385714Y-79516723D02*
X181338095Y-79611961D01*
X181338095Y-79611961D02*
X181242857Y-79707200D01*
X181242857Y-79707200D02*
X181100000Y-79754819D01*
X181100000Y-79754819D02*
X180861905Y-79754819D01*
X182385714Y-79754819D02*
X181814286Y-79754819D01*
X182100000Y-79754819D02*
X182100000Y-78754819D01*
X182100000Y-78754819D02*
X182004762Y-78897676D01*
X182004762Y-78897676D02*
X181909524Y-78992914D01*
X181909524Y-78992914D02*
X181814286Y-79040533D01*
X98366666Y-67654819D02*
X98366666Y-68369104D01*
X98366666Y-68369104D02*
X98319047Y-68511961D01*
X98319047Y-68511961D02*
X98223809Y-68607200D01*
X98223809Y-68607200D02*
X98080952Y-68654819D01*
X98080952Y-68654819D02*
X97985714Y-68654819D01*
X98747619Y-67654819D02*
X99414285Y-67654819D01*
X99414285Y-67654819D02*
X98985714Y-68654819D01*
X168199819Y-106958333D02*
X168914104Y-106958333D01*
X168914104Y-106958333D02*
X169056961Y-107005952D01*
X169056961Y-107005952D02*
X169152200Y-107101190D01*
X169152200Y-107101190D02*
X169199819Y-107244047D01*
X169199819Y-107244047D02*
X169199819Y-107339285D01*
X168199819Y-106053571D02*
X168199819Y-106244047D01*
X168199819Y-106244047D02*
X168247438Y-106339285D01*
X168247438Y-106339285D02*
X168295057Y-106386904D01*
X168295057Y-106386904D02*
X168437914Y-106482142D01*
X168437914Y-106482142D02*
X168628390Y-106529761D01*
X168628390Y-106529761D02*
X169009342Y-106529761D01*
X169009342Y-106529761D02*
X169104580Y-106482142D01*
X169104580Y-106482142D02*
X169152200Y-106434523D01*
X169152200Y-106434523D02*
X169199819Y-106339285D01*
X169199819Y-106339285D02*
X169199819Y-106148809D01*
X169199819Y-106148809D02*
X169152200Y-106053571D01*
X169152200Y-106053571D02*
X169104580Y-106005952D01*
X169104580Y-106005952D02*
X169009342Y-105958333D01*
X169009342Y-105958333D02*
X168771247Y-105958333D01*
X168771247Y-105958333D02*
X168676009Y-106005952D01*
X168676009Y-106005952D02*
X168628390Y-106053571D01*
X168628390Y-106053571D02*
X168580771Y-106148809D01*
X168580771Y-106148809D02*
X168580771Y-106339285D01*
X168580771Y-106339285D02*
X168628390Y-106434523D01*
X168628390Y-106434523D02*
X168676009Y-106482142D01*
X168676009Y-106482142D02*
X168771247Y-106529761D01*
X117516666Y-136104819D02*
X117516666Y-136819104D01*
X117516666Y-136819104D02*
X117469047Y-136961961D01*
X117469047Y-136961961D02*
X117373809Y-137057200D01*
X117373809Y-137057200D02*
X117230952Y-137104819D01*
X117230952Y-137104819D02*
X117135714Y-137104819D01*
X117897619Y-136104819D02*
X118516666Y-136104819D01*
X118516666Y-136104819D02*
X118183333Y-136485771D01*
X118183333Y-136485771D02*
X118326190Y-136485771D01*
X118326190Y-136485771D02*
X118421428Y-136533390D01*
X118421428Y-136533390D02*
X118469047Y-136581009D01*
X118469047Y-136581009D02*
X118516666Y-136676247D01*
X118516666Y-136676247D02*
X118516666Y-136914342D01*
X118516666Y-136914342D02*
X118469047Y-137009580D01*
X118469047Y-137009580D02*
X118421428Y-137057200D01*
X118421428Y-137057200D02*
X118326190Y-137104819D01*
X118326190Y-137104819D02*
X118040476Y-137104819D01*
X118040476Y-137104819D02*
X117945238Y-137057200D01*
X117945238Y-137057200D02*
X117897619Y-137009580D01*
X111069048Y-130573866D02*
X111830953Y-130573866D01*
X123178571Y-130614700D02*
X124321429Y-130614700D01*
X123750000Y-131186128D02*
X123750000Y-130043271D01*
X158124761Y-128050057D02*
X158029523Y-128002438D01*
X158029523Y-128002438D02*
X157934285Y-127907200D01*
X157934285Y-127907200D02*
X157791428Y-127764342D01*
X157791428Y-127764342D02*
X157696190Y-127716723D01*
X157696190Y-127716723D02*
X157600952Y-127716723D01*
X157648571Y-127954819D02*
X157553333Y-127907200D01*
X157553333Y-127907200D02*
X157458095Y-127811961D01*
X157458095Y-127811961D02*
X157410476Y-127621485D01*
X157410476Y-127621485D02*
X157410476Y-127288152D01*
X157410476Y-127288152D02*
X157458095Y-127097676D01*
X157458095Y-127097676D02*
X157553333Y-127002438D01*
X157553333Y-127002438D02*
X157648571Y-126954819D01*
X157648571Y-126954819D02*
X157839047Y-126954819D01*
X157839047Y-126954819D02*
X157934285Y-127002438D01*
X157934285Y-127002438D02*
X158029523Y-127097676D01*
X158029523Y-127097676D02*
X158077142Y-127288152D01*
X158077142Y-127288152D02*
X158077142Y-127621485D01*
X158077142Y-127621485D02*
X158029523Y-127811961D01*
X158029523Y-127811961D02*
X157934285Y-127907200D01*
X157934285Y-127907200D02*
X157839047Y-127954819D01*
X157839047Y-127954819D02*
X157648571Y-127954819D01*
X158458095Y-127050057D02*
X158505714Y-127002438D01*
X158505714Y-127002438D02*
X158600952Y-126954819D01*
X158600952Y-126954819D02*
X158839047Y-126954819D01*
X158839047Y-126954819D02*
X158934285Y-127002438D01*
X158934285Y-127002438D02*
X158981904Y-127050057D01*
X158981904Y-127050057D02*
X159029523Y-127145295D01*
X159029523Y-127145295D02*
X159029523Y-127240533D01*
X159029523Y-127240533D02*
X158981904Y-127383390D01*
X158981904Y-127383390D02*
X158410476Y-127954819D01*
X158410476Y-127954819D02*
X159029523Y-127954819D01*
X132454580Y-89341666D02*
X132502200Y-89389285D01*
X132502200Y-89389285D02*
X132549819Y-89532142D01*
X132549819Y-89532142D02*
X132549819Y-89627380D01*
X132549819Y-89627380D02*
X132502200Y-89770237D01*
X132502200Y-89770237D02*
X132406961Y-89865475D01*
X132406961Y-89865475D02*
X132311723Y-89913094D01*
X132311723Y-89913094D02*
X132121247Y-89960713D01*
X132121247Y-89960713D02*
X131978390Y-89960713D01*
X131978390Y-89960713D02*
X131787914Y-89913094D01*
X131787914Y-89913094D02*
X131692676Y-89865475D01*
X131692676Y-89865475D02*
X131597438Y-89770237D01*
X131597438Y-89770237D02*
X131549819Y-89627380D01*
X131549819Y-89627380D02*
X131549819Y-89532142D01*
X131549819Y-89532142D02*
X131597438Y-89389285D01*
X131597438Y-89389285D02*
X131645057Y-89341666D01*
X131978390Y-88770237D02*
X131930771Y-88865475D01*
X131930771Y-88865475D02*
X131883152Y-88913094D01*
X131883152Y-88913094D02*
X131787914Y-88960713D01*
X131787914Y-88960713D02*
X131740295Y-88960713D01*
X131740295Y-88960713D02*
X131645057Y-88913094D01*
X131645057Y-88913094D02*
X131597438Y-88865475D01*
X131597438Y-88865475D02*
X131549819Y-88770237D01*
X131549819Y-88770237D02*
X131549819Y-88579761D01*
X131549819Y-88579761D02*
X131597438Y-88484523D01*
X131597438Y-88484523D02*
X131645057Y-88436904D01*
X131645057Y-88436904D02*
X131740295Y-88389285D01*
X131740295Y-88389285D02*
X131787914Y-88389285D01*
X131787914Y-88389285D02*
X131883152Y-88436904D01*
X131883152Y-88436904D02*
X131930771Y-88484523D01*
X131930771Y-88484523D02*
X131978390Y-88579761D01*
X131978390Y-88579761D02*
X131978390Y-88770237D01*
X131978390Y-88770237D02*
X132026009Y-88865475D01*
X132026009Y-88865475D02*
X132073628Y-88913094D01*
X132073628Y-88913094D02*
X132168866Y-88960713D01*
X132168866Y-88960713D02*
X132359342Y-88960713D01*
X132359342Y-88960713D02*
X132454580Y-88913094D01*
X132454580Y-88913094D02*
X132502200Y-88865475D01*
X132502200Y-88865475D02*
X132549819Y-88770237D01*
X132549819Y-88770237D02*
X132549819Y-88579761D01*
X132549819Y-88579761D02*
X132502200Y-88484523D01*
X132502200Y-88484523D02*
X132454580Y-88436904D01*
X132454580Y-88436904D02*
X132359342Y-88389285D01*
X132359342Y-88389285D02*
X132168866Y-88389285D01*
X132168866Y-88389285D02*
X132073628Y-88436904D01*
X132073628Y-88436904D02*
X132026009Y-88484523D01*
X132026009Y-88484523D02*
X131978390Y-88579761D01*
X134054580Y-89341666D02*
X134102200Y-89389285D01*
X134102200Y-89389285D02*
X134149819Y-89532142D01*
X134149819Y-89532142D02*
X134149819Y-89627380D01*
X134149819Y-89627380D02*
X134102200Y-89770237D01*
X134102200Y-89770237D02*
X134006961Y-89865475D01*
X134006961Y-89865475D02*
X133911723Y-89913094D01*
X133911723Y-89913094D02*
X133721247Y-89960713D01*
X133721247Y-89960713D02*
X133578390Y-89960713D01*
X133578390Y-89960713D02*
X133387914Y-89913094D01*
X133387914Y-89913094D02*
X133292676Y-89865475D01*
X133292676Y-89865475D02*
X133197438Y-89770237D01*
X133197438Y-89770237D02*
X133149819Y-89627380D01*
X133149819Y-89627380D02*
X133149819Y-89532142D01*
X133149819Y-89532142D02*
X133197438Y-89389285D01*
X133197438Y-89389285D02*
X133245057Y-89341666D01*
X134149819Y-88865475D02*
X134149819Y-88674999D01*
X134149819Y-88674999D02*
X134102200Y-88579761D01*
X134102200Y-88579761D02*
X134054580Y-88532142D01*
X134054580Y-88532142D02*
X133911723Y-88436904D01*
X133911723Y-88436904D02*
X133721247Y-88389285D01*
X133721247Y-88389285D02*
X133340295Y-88389285D01*
X133340295Y-88389285D02*
X133245057Y-88436904D01*
X133245057Y-88436904D02*
X133197438Y-88484523D01*
X133197438Y-88484523D02*
X133149819Y-88579761D01*
X133149819Y-88579761D02*
X133149819Y-88770237D01*
X133149819Y-88770237D02*
X133197438Y-88865475D01*
X133197438Y-88865475D02*
X133245057Y-88913094D01*
X133245057Y-88913094D02*
X133340295Y-88960713D01*
X133340295Y-88960713D02*
X133578390Y-88960713D01*
X133578390Y-88960713D02*
X133673628Y-88913094D01*
X133673628Y-88913094D02*
X133721247Y-88865475D01*
X133721247Y-88865475D02*
X133768866Y-88770237D01*
X133768866Y-88770237D02*
X133768866Y-88579761D01*
X133768866Y-88579761D02*
X133721247Y-88484523D01*
X133721247Y-88484523D02*
X133673628Y-88436904D01*
X133673628Y-88436904D02*
X133578390Y-88389285D01*
X120454580Y-90407858D02*
X120502200Y-90455477D01*
X120502200Y-90455477D02*
X120549819Y-90598334D01*
X120549819Y-90598334D02*
X120549819Y-90693572D01*
X120549819Y-90693572D02*
X120502200Y-90836429D01*
X120502200Y-90836429D02*
X120406961Y-90931667D01*
X120406961Y-90931667D02*
X120311723Y-90979286D01*
X120311723Y-90979286D02*
X120121247Y-91026905D01*
X120121247Y-91026905D02*
X119978390Y-91026905D01*
X119978390Y-91026905D02*
X119787914Y-90979286D01*
X119787914Y-90979286D02*
X119692676Y-90931667D01*
X119692676Y-90931667D02*
X119597438Y-90836429D01*
X119597438Y-90836429D02*
X119549819Y-90693572D01*
X119549819Y-90693572D02*
X119549819Y-90598334D01*
X119549819Y-90598334D02*
X119597438Y-90455477D01*
X119597438Y-90455477D02*
X119645057Y-90407858D01*
X120549819Y-89455477D02*
X120549819Y-90026905D01*
X120549819Y-89741191D02*
X119549819Y-89741191D01*
X119549819Y-89741191D02*
X119692676Y-89836429D01*
X119692676Y-89836429D02*
X119787914Y-89931667D01*
X119787914Y-89931667D02*
X119835533Y-90026905D01*
X119549819Y-88836429D02*
X119549819Y-88741191D01*
X119549819Y-88741191D02*
X119597438Y-88645953D01*
X119597438Y-88645953D02*
X119645057Y-88598334D01*
X119645057Y-88598334D02*
X119740295Y-88550715D01*
X119740295Y-88550715D02*
X119930771Y-88503096D01*
X119930771Y-88503096D02*
X120168866Y-88503096D01*
X120168866Y-88503096D02*
X120359342Y-88550715D01*
X120359342Y-88550715D02*
X120454580Y-88598334D01*
X120454580Y-88598334D02*
X120502200Y-88645953D01*
X120502200Y-88645953D02*
X120549819Y-88741191D01*
X120549819Y-88741191D02*
X120549819Y-88836429D01*
X120549819Y-88836429D02*
X120502200Y-88931667D01*
X120502200Y-88931667D02*
X120454580Y-88979286D01*
X120454580Y-88979286D02*
X120359342Y-89026905D01*
X120359342Y-89026905D02*
X120168866Y-89074524D01*
X120168866Y-89074524D02*
X119930771Y-89074524D01*
X119930771Y-89074524D02*
X119740295Y-89026905D01*
X119740295Y-89026905D02*
X119645057Y-88979286D01*
X119645057Y-88979286D02*
X119597438Y-88931667D01*
X119597438Y-88931667D02*
X119549819Y-88836429D01*
X143716666Y-136104819D02*
X143716666Y-136819104D01*
X143716666Y-136819104D02*
X143669047Y-136961961D01*
X143669047Y-136961961D02*
X143573809Y-137057200D01*
X143573809Y-137057200D02*
X143430952Y-137104819D01*
X143430952Y-137104819D02*
X143335714Y-137104819D01*
X144621428Y-136438152D02*
X144621428Y-137104819D01*
X144383333Y-136057200D02*
X144145238Y-136771485D01*
X144145238Y-136771485D02*
X144764285Y-136771485D01*
X149378571Y-130614700D02*
X150521429Y-130614700D01*
X149950000Y-131186128D02*
X149950000Y-130043271D01*
X137269048Y-130573866D02*
X138030953Y-130573866D01*
X179033333Y-72054819D02*
X178700000Y-71578628D01*
X178461905Y-72054819D02*
X178461905Y-71054819D01*
X178461905Y-71054819D02*
X178842857Y-71054819D01*
X178842857Y-71054819D02*
X178938095Y-71102438D01*
X178938095Y-71102438D02*
X178985714Y-71150057D01*
X178985714Y-71150057D02*
X179033333Y-71245295D01*
X179033333Y-71245295D02*
X179033333Y-71388152D01*
X179033333Y-71388152D02*
X178985714Y-71483390D01*
X178985714Y-71483390D02*
X178938095Y-71531009D01*
X178938095Y-71531009D02*
X178842857Y-71578628D01*
X178842857Y-71578628D02*
X178461905Y-71578628D01*
X179985714Y-72054819D02*
X179414286Y-72054819D01*
X179700000Y-72054819D02*
X179700000Y-71054819D01*
X179700000Y-71054819D02*
X179604762Y-71197676D01*
X179604762Y-71197676D02*
X179509524Y-71292914D01*
X179509524Y-71292914D02*
X179414286Y-71340533D01*
X118854580Y-90307857D02*
X118902200Y-90355476D01*
X118902200Y-90355476D02*
X118949819Y-90498333D01*
X118949819Y-90498333D02*
X118949819Y-90593571D01*
X118949819Y-90593571D02*
X118902200Y-90736428D01*
X118902200Y-90736428D02*
X118806961Y-90831666D01*
X118806961Y-90831666D02*
X118711723Y-90879285D01*
X118711723Y-90879285D02*
X118521247Y-90926904D01*
X118521247Y-90926904D02*
X118378390Y-90926904D01*
X118378390Y-90926904D02*
X118187914Y-90879285D01*
X118187914Y-90879285D02*
X118092676Y-90831666D01*
X118092676Y-90831666D02*
X117997438Y-90736428D01*
X117997438Y-90736428D02*
X117949819Y-90593571D01*
X117949819Y-90593571D02*
X117949819Y-90498333D01*
X117949819Y-90498333D02*
X117997438Y-90355476D01*
X117997438Y-90355476D02*
X118045057Y-90307857D01*
X118949819Y-89355476D02*
X118949819Y-89926904D01*
X118949819Y-89641190D02*
X117949819Y-89641190D01*
X117949819Y-89641190D02*
X118092676Y-89736428D01*
X118092676Y-89736428D02*
X118187914Y-89831666D01*
X118187914Y-89831666D02*
X118235533Y-89926904D01*
X118949819Y-88403095D02*
X118949819Y-88974523D01*
X118949819Y-88688809D02*
X117949819Y-88688809D01*
X117949819Y-88688809D02*
X118092676Y-88784047D01*
X118092676Y-88784047D02*
X118187914Y-88879285D01*
X118187914Y-88879285D02*
X118235533Y-88974523D01*
X181404819Y-72559523D02*
X182119104Y-72559523D01*
X182119104Y-72559523D02*
X182261961Y-72607142D01*
X182261961Y-72607142D02*
X182357200Y-72702380D01*
X182357200Y-72702380D02*
X182404819Y-72845237D01*
X182404819Y-72845237D02*
X182404819Y-72940475D01*
X182404819Y-71559523D02*
X182404819Y-72130951D01*
X182404819Y-71845237D02*
X181404819Y-71845237D01*
X181404819Y-71845237D02*
X181547676Y-71940475D01*
X181547676Y-71940475D02*
X181642914Y-72035713D01*
X181642914Y-72035713D02*
X181690533Y-72130951D01*
X181404819Y-71226189D02*
X181404819Y-70607142D01*
X181404819Y-70607142D02*
X181785771Y-70940475D01*
X181785771Y-70940475D02*
X181785771Y-70797618D01*
X181785771Y-70797618D02*
X181833390Y-70702380D01*
X181833390Y-70702380D02*
X181881009Y-70654761D01*
X181881009Y-70654761D02*
X181976247Y-70607142D01*
X181976247Y-70607142D02*
X182214342Y-70607142D01*
X182214342Y-70607142D02*
X182309580Y-70654761D01*
X182309580Y-70654761D02*
X182357200Y-70702380D01*
X182357200Y-70702380D02*
X182404819Y-70797618D01*
X182404819Y-70797618D02*
X182404819Y-71083332D01*
X182404819Y-71083332D02*
X182357200Y-71178570D01*
X182357200Y-71178570D02*
X182309580Y-71226189D01*
X133054761Y-127834897D02*
X132959523Y-127787278D01*
X132959523Y-127787278D02*
X132864285Y-127692040D01*
X132864285Y-127692040D02*
X132721428Y-127549182D01*
X132721428Y-127549182D02*
X132626190Y-127501563D01*
X132626190Y-127501563D02*
X132530952Y-127501563D01*
X132578571Y-127739659D02*
X132483333Y-127692040D01*
X132483333Y-127692040D02*
X132388095Y-127596801D01*
X132388095Y-127596801D02*
X132340476Y-127406325D01*
X132340476Y-127406325D02*
X132340476Y-127072992D01*
X132340476Y-127072992D02*
X132388095Y-126882516D01*
X132388095Y-126882516D02*
X132483333Y-126787278D01*
X132483333Y-126787278D02*
X132578571Y-126739659D01*
X132578571Y-126739659D02*
X132769047Y-126739659D01*
X132769047Y-126739659D02*
X132864285Y-126787278D01*
X132864285Y-126787278D02*
X132959523Y-126882516D01*
X132959523Y-126882516D02*
X133007142Y-127072992D01*
X133007142Y-127072992D02*
X133007142Y-127406325D01*
X133007142Y-127406325D02*
X132959523Y-127596801D01*
X132959523Y-127596801D02*
X132864285Y-127692040D01*
X132864285Y-127692040D02*
X132769047Y-127739659D01*
X132769047Y-127739659D02*
X132578571Y-127739659D01*
X133864285Y-127072992D02*
X133864285Y-127739659D01*
X133626190Y-126692040D02*
X133388095Y-127406325D01*
X133388095Y-127406325D02*
X134007142Y-127406325D01*
X171604761Y-127850057D02*
X171509523Y-127802438D01*
X171509523Y-127802438D02*
X171414285Y-127707200D01*
X171414285Y-127707200D02*
X171271428Y-127564342D01*
X171271428Y-127564342D02*
X171176190Y-127516723D01*
X171176190Y-127516723D02*
X171080952Y-127516723D01*
X171128571Y-127754819D02*
X171033333Y-127707200D01*
X171033333Y-127707200D02*
X170938095Y-127611961D01*
X170938095Y-127611961D02*
X170890476Y-127421485D01*
X170890476Y-127421485D02*
X170890476Y-127088152D01*
X170890476Y-127088152D02*
X170938095Y-126897676D01*
X170938095Y-126897676D02*
X171033333Y-126802438D01*
X171033333Y-126802438D02*
X171128571Y-126754819D01*
X171128571Y-126754819D02*
X171319047Y-126754819D01*
X171319047Y-126754819D02*
X171414285Y-126802438D01*
X171414285Y-126802438D02*
X171509523Y-126897676D01*
X171509523Y-126897676D02*
X171557142Y-127088152D01*
X171557142Y-127088152D02*
X171557142Y-127421485D01*
X171557142Y-127421485D02*
X171509523Y-127611961D01*
X171509523Y-127611961D02*
X171414285Y-127707200D01*
X171414285Y-127707200D02*
X171319047Y-127754819D01*
X171319047Y-127754819D02*
X171128571Y-127754819D01*
X172509523Y-127754819D02*
X171938095Y-127754819D01*
X172223809Y-127754819D02*
X172223809Y-126754819D01*
X172223809Y-126754819D02*
X172128571Y-126897676D01*
X172128571Y-126897676D02*
X172033333Y-126992914D01*
X172033333Y-126992914D02*
X171938095Y-127040533D01*
X85825492Y-96531115D02*
X85777873Y-96626353D01*
X85777873Y-96626353D02*
X85682635Y-96721591D01*
X85682635Y-96721591D02*
X85539777Y-96864448D01*
X85539777Y-96864448D02*
X85492158Y-96959686D01*
X85492158Y-96959686D02*
X85492158Y-97054924D01*
X85730254Y-97007305D02*
X85682635Y-97102543D01*
X85682635Y-97102543D02*
X85587396Y-97197781D01*
X85587396Y-97197781D02*
X85396920Y-97245400D01*
X85396920Y-97245400D02*
X85063587Y-97245400D01*
X85063587Y-97245400D02*
X84873111Y-97197781D01*
X84873111Y-97197781D02*
X84777873Y-97102543D01*
X84777873Y-97102543D02*
X84730254Y-97007305D01*
X84730254Y-97007305D02*
X84730254Y-96816829D01*
X84730254Y-96816829D02*
X84777873Y-96721591D01*
X84777873Y-96721591D02*
X84873111Y-96626353D01*
X84873111Y-96626353D02*
X85063587Y-96578734D01*
X85063587Y-96578734D02*
X85396920Y-96578734D01*
X85396920Y-96578734D02*
X85587396Y-96626353D01*
X85587396Y-96626353D02*
X85682635Y-96721591D01*
X85682635Y-96721591D02*
X85730254Y-96816829D01*
X85730254Y-96816829D02*
X85730254Y-97007305D01*
X84730254Y-96245400D02*
X84730254Y-95578734D01*
X84730254Y-95578734D02*
X85730254Y-96007305D01*
X91316666Y-135604819D02*
X91316666Y-136319104D01*
X91316666Y-136319104D02*
X91269047Y-136461961D01*
X91269047Y-136461961D02*
X91173809Y-136557200D01*
X91173809Y-136557200D02*
X91030952Y-136604819D01*
X91030952Y-136604819D02*
X90935714Y-136604819D01*
X91745238Y-135700057D02*
X91792857Y-135652438D01*
X91792857Y-135652438D02*
X91888095Y-135604819D01*
X91888095Y-135604819D02*
X92126190Y-135604819D01*
X92126190Y-135604819D02*
X92221428Y-135652438D01*
X92221428Y-135652438D02*
X92269047Y-135700057D01*
X92269047Y-135700057D02*
X92316666Y-135795295D01*
X92316666Y-135795295D02*
X92316666Y-135890533D01*
X92316666Y-135890533D02*
X92269047Y-136033390D01*
X92269047Y-136033390D02*
X91697619Y-136604819D01*
X91697619Y-136604819D02*
X92316666Y-136604819D01*
X84869048Y-130573866D02*
X85630953Y-130573866D01*
X96978571Y-130614700D02*
X98121429Y-130614700D01*
X97550000Y-131186128D02*
X97550000Y-130043271D01*
X170316666Y-136095341D02*
X170316666Y-136809626D01*
X170316666Y-136809626D02*
X170269047Y-136952483D01*
X170269047Y-136952483D02*
X170173809Y-137047722D01*
X170173809Y-137047722D02*
X170030952Y-137095341D01*
X170030952Y-137095341D02*
X169935714Y-137095341D01*
X171269047Y-136095341D02*
X170792857Y-136095341D01*
X170792857Y-136095341D02*
X170745238Y-136571531D01*
X170745238Y-136571531D02*
X170792857Y-136523912D01*
X170792857Y-136523912D02*
X170888095Y-136476293D01*
X170888095Y-136476293D02*
X171126190Y-136476293D01*
X171126190Y-136476293D02*
X171221428Y-136523912D01*
X171221428Y-136523912D02*
X171269047Y-136571531D01*
X171269047Y-136571531D02*
X171316666Y-136666769D01*
X171316666Y-136666769D02*
X171316666Y-136904864D01*
X171316666Y-136904864D02*
X171269047Y-137000102D01*
X171269047Y-137000102D02*
X171221428Y-137047722D01*
X171221428Y-137047722D02*
X171126190Y-137095341D01*
X171126190Y-137095341D02*
X170888095Y-137095341D01*
X170888095Y-137095341D02*
X170792857Y-137047722D01*
X170792857Y-137047722D02*
X170745238Y-137000102D01*
X175478571Y-130605222D02*
X176621429Y-130605222D01*
X176050000Y-131176650D02*
X176050000Y-130033793D01*
X163369048Y-130564388D02*
X164130953Y-130564388D01*
X185204819Y-99533333D02*
X185919104Y-99533333D01*
X185919104Y-99533333D02*
X186061961Y-99580952D01*
X186061961Y-99580952D02*
X186157200Y-99676190D01*
X186157200Y-99676190D02*
X186204819Y-99819047D01*
X186204819Y-99819047D02*
X186204819Y-99914285D01*
X186204819Y-98533333D02*
X186204819Y-99104761D01*
X186204819Y-98819047D02*
X185204819Y-98819047D01*
X185204819Y-98819047D02*
X185347676Y-98914285D01*
X185347676Y-98914285D02*
X185442914Y-99009523D01*
X185442914Y-99009523D02*
X185490533Y-99104761D01*
X179714700Y-93371428D02*
X179714700Y-92228571D01*
X179714700Y-105671428D02*
X179714700Y-104528571D01*
X180286128Y-105099999D02*
X179143271Y-105099999D01*
X143076480Y-127834897D02*
X142981242Y-127787278D01*
X142981242Y-127787278D02*
X142886004Y-127692040D01*
X142886004Y-127692040D02*
X142743147Y-127549182D01*
X142743147Y-127549182D02*
X142647909Y-127501563D01*
X142647909Y-127501563D02*
X142552671Y-127501563D01*
X142600290Y-127739659D02*
X142505052Y-127692040D01*
X142505052Y-127692040D02*
X142409814Y-127596801D01*
X142409814Y-127596801D02*
X142362195Y-127406325D01*
X142362195Y-127406325D02*
X142362195Y-127072992D01*
X142362195Y-127072992D02*
X142409814Y-126882516D01*
X142409814Y-126882516D02*
X142505052Y-126787278D01*
X142505052Y-126787278D02*
X142600290Y-126739659D01*
X142600290Y-126739659D02*
X142790766Y-126739659D01*
X142790766Y-126739659D02*
X142886004Y-126787278D01*
X142886004Y-126787278D02*
X142981242Y-126882516D01*
X142981242Y-126882516D02*
X143028861Y-127072992D01*
X143028861Y-127072992D02*
X143028861Y-127406325D01*
X143028861Y-127406325D02*
X142981242Y-127596801D01*
X142981242Y-127596801D02*
X142886004Y-127692040D01*
X142886004Y-127692040D02*
X142790766Y-127739659D01*
X142790766Y-127739659D02*
X142600290Y-127739659D01*
X143362195Y-126739659D02*
X143981242Y-126739659D01*
X143981242Y-126739659D02*
X143647909Y-127120611D01*
X143647909Y-127120611D02*
X143790766Y-127120611D01*
X143790766Y-127120611D02*
X143886004Y-127168230D01*
X143886004Y-127168230D02*
X143933623Y-127215849D01*
X143933623Y-127215849D02*
X143981242Y-127311087D01*
X143981242Y-127311087D02*
X143981242Y-127549182D01*
X143981242Y-127549182D02*
X143933623Y-127644420D01*
X143933623Y-127644420D02*
X143886004Y-127692040D01*
X143886004Y-127692040D02*
X143790766Y-127739659D01*
X143790766Y-127739659D02*
X143505052Y-127739659D01*
X143505052Y-127739659D02*
X143409814Y-127692040D01*
X143409814Y-127692040D02*
X143362195Y-127644420D01*
X179033333Y-68804819D02*
X178700000Y-68328628D01*
X178461905Y-68804819D02*
X178461905Y-67804819D01*
X178461905Y-67804819D02*
X178842857Y-67804819D01*
X178842857Y-67804819D02*
X178938095Y-67852438D01*
X178938095Y-67852438D02*
X178985714Y-67900057D01*
X178985714Y-67900057D02*
X179033333Y-67995295D01*
X179033333Y-67995295D02*
X179033333Y-68138152D01*
X179033333Y-68138152D02*
X178985714Y-68233390D01*
X178985714Y-68233390D02*
X178938095Y-68281009D01*
X178938095Y-68281009D02*
X178842857Y-68328628D01*
X178842857Y-68328628D02*
X178461905Y-68328628D01*
X179414286Y-67900057D02*
X179461905Y-67852438D01*
X179461905Y-67852438D02*
X179557143Y-67804819D01*
X179557143Y-67804819D02*
X179795238Y-67804819D01*
X179795238Y-67804819D02*
X179890476Y-67852438D01*
X179890476Y-67852438D02*
X179938095Y-67900057D01*
X179938095Y-67900057D02*
X179985714Y-67995295D01*
X179985714Y-67995295D02*
X179985714Y-68090533D01*
X179985714Y-68090533D02*
X179938095Y-68233390D01*
X179938095Y-68233390D02*
X179366667Y-68804819D01*
X179366667Y-68804819D02*
X179985714Y-68804819D01*
X113304761Y-126450057D02*
X113209523Y-126402438D01*
X113209523Y-126402438D02*
X113114285Y-126307200D01*
X113114285Y-126307200D02*
X112971428Y-126164342D01*
X112971428Y-126164342D02*
X112876190Y-126116723D01*
X112876190Y-126116723D02*
X112780952Y-126116723D01*
X112828571Y-126354819D02*
X112733333Y-126307200D01*
X112733333Y-126307200D02*
X112638095Y-126211961D01*
X112638095Y-126211961D02*
X112590476Y-126021485D01*
X112590476Y-126021485D02*
X112590476Y-125688152D01*
X112590476Y-125688152D02*
X112638095Y-125497676D01*
X112638095Y-125497676D02*
X112733333Y-125402438D01*
X112733333Y-125402438D02*
X112828571Y-125354819D01*
X112828571Y-125354819D02*
X113019047Y-125354819D01*
X113019047Y-125354819D02*
X113114285Y-125402438D01*
X113114285Y-125402438D02*
X113209523Y-125497676D01*
X113209523Y-125497676D02*
X113257142Y-125688152D01*
X113257142Y-125688152D02*
X113257142Y-126021485D01*
X113257142Y-126021485D02*
X113209523Y-126211961D01*
X113209523Y-126211961D02*
X113114285Y-126307200D01*
X113114285Y-126307200D02*
X113019047Y-126354819D01*
X113019047Y-126354819D02*
X112828571Y-126354819D01*
X114114285Y-125354819D02*
X113923809Y-125354819D01*
X113923809Y-125354819D02*
X113828571Y-125402438D01*
X113828571Y-125402438D02*
X113780952Y-125450057D01*
X113780952Y-125450057D02*
X113685714Y-125592914D01*
X113685714Y-125592914D02*
X113638095Y-125783390D01*
X113638095Y-125783390D02*
X113638095Y-126164342D01*
X113638095Y-126164342D02*
X113685714Y-126259580D01*
X113685714Y-126259580D02*
X113733333Y-126307200D01*
X113733333Y-126307200D02*
X113828571Y-126354819D01*
X113828571Y-126354819D02*
X114019047Y-126354819D01*
X114019047Y-126354819D02*
X114114285Y-126307200D01*
X114114285Y-126307200D02*
X114161904Y-126259580D01*
X114161904Y-126259580D02*
X114209523Y-126164342D01*
X114209523Y-126164342D02*
X114209523Y-125926247D01*
X114209523Y-125926247D02*
X114161904Y-125831009D01*
X114161904Y-125831009D02*
X114114285Y-125783390D01*
X114114285Y-125783390D02*
X114019047Y-125735771D01*
X114019047Y-125735771D02*
X113828571Y-125735771D01*
X113828571Y-125735771D02*
X113733333Y-125783390D01*
X113733333Y-125783390D02*
X113685714Y-125831009D01*
X113685714Y-125831009D02*
X113638095Y-125926247D01*
D12*
%TO.C,R6*%
X92812258Y-78377500D02*
X92337742Y-78377500D01*
X92812258Y-79422500D02*
X92337742Y-79422500D01*
%TO.C,R5*%
X92337742Y-81022500D02*
X92812258Y-81022500D01*
X92337742Y-79977500D02*
X92812258Y-79977500D01*
%TO.C,C6*%
X164110000Y-83259420D02*
X164110000Y-83540580D01*
X163090000Y-83259420D02*
X163090000Y-83540580D01*
%TO.C,C4*%
X166690000Y-82440580D02*
X166690000Y-82159420D01*
X167710000Y-82440580D02*
X167710000Y-82159420D01*
%TO.C,U3*%
X170137500Y-81840000D02*
X168337500Y-81840000D01*
X170137500Y-81840000D02*
X170937500Y-81840000D01*
X170137500Y-84960000D02*
X169337500Y-84960000D01*
X170137500Y-84960000D02*
X170937500Y-84960000D01*
%TO.C,C2*%
X176410000Y-84359420D02*
X176410000Y-84640580D01*
X175390000Y-84359420D02*
X175390000Y-84640580D01*
%TO.C,R4*%
X169262742Y-85577500D02*
X169737258Y-85577500D01*
X169262742Y-86622500D02*
X169737258Y-86622500D01*
%TO.C,C1*%
X173952500Y-82637500D02*
X173952500Y-81850000D01*
X173558750Y-82243750D02*
X174346250Y-82243750D01*
X173454437Y-81610000D02*
X174740000Y-81610000D01*
X173454437Y-81610000D02*
X172390000Y-80545563D01*
X178145563Y-81610000D02*
X176860000Y-81610000D01*
X178145563Y-81610000D02*
X179210000Y-80545563D01*
X172390000Y-80545563D02*
X172390000Y-74790000D01*
X179210000Y-80545563D02*
X179210000Y-74790000D01*
X172390000Y-74790000D02*
X174740000Y-74790000D01*
X179210000Y-74790000D02*
X176860000Y-74790000D01*
%TO.C,R3*%
X167722500Y-85062742D02*
X167722500Y-85537258D01*
X166677500Y-85062742D02*
X166677500Y-85537258D01*
%TO.C,L1*%
X171960000Y-80610000D02*
X171960000Y-79810000D01*
X171960000Y-80610000D02*
X166840000Y-80610000D01*
X171960000Y-75990000D02*
X171960000Y-76790000D01*
X171960000Y-75990000D02*
X166840000Y-75990000D01*
X166840000Y-80610000D02*
X166840000Y-79810000D01*
X166840000Y-75990000D02*
X166840000Y-76790000D01*
%TO.C,C5*%
X161052500Y-81437500D02*
X161052500Y-80650000D01*
X160658750Y-81043750D02*
X161446250Y-81043750D01*
X160554437Y-80410000D02*
X161840000Y-80410000D01*
X160554437Y-80410000D02*
X159490000Y-79345563D01*
X165245563Y-80410000D02*
X163960000Y-80410000D01*
X165245563Y-80410000D02*
X166310000Y-79345563D01*
X159490000Y-79345563D02*
X159490000Y-73590000D01*
X166310000Y-79345563D02*
X166310000Y-73590000D01*
X159490000Y-73590000D02*
X161840000Y-73590000D01*
X166310000Y-73590000D02*
X163960000Y-73590000D01*
%TO.C,C3*%
X174310000Y-84359420D02*
X174310000Y-84640580D01*
X173290000Y-84359420D02*
X173290000Y-84640580D01*
%TO.C,C7*%
X165810000Y-83259420D02*
X165810000Y-83540580D01*
X164790000Y-83259420D02*
X164790000Y-83540580D01*
%TO.C,D7*%
X171359999Y-75550000D02*
X171359999Y-73650000D01*
X171359999Y-75550000D02*
X167699999Y-75550000D01*
X171359999Y-73650000D02*
X167699999Y-73650000D01*
%TO.C,D5*%
X172110000Y-130550000D02*
X172110000Y-128850000D01*
X172110000Y-128850000D02*
X169450000Y-128850000D01*
X172110000Y-130550000D02*
X169450000Y-130550000D01*
%TO.C,D4*%
X145610000Y-130450000D02*
X145610000Y-128750000D01*
X145610000Y-128750000D02*
X142950000Y-128750000D01*
X145610000Y-130450000D02*
X142950000Y-130450000D01*
%TO.C,D3*%
X119310000Y-130550000D02*
X119310000Y-128850000D01*
X119310000Y-128850000D02*
X116650000Y-128850000D01*
X119310000Y-130550000D02*
X116650000Y-130550000D01*
%TO.C,D2*%
X93010000Y-130450000D02*
X93010000Y-128750000D01*
X93010000Y-128750000D02*
X90350000Y-128750000D01*
X93010000Y-130450000D02*
X90350000Y-130450000D01*
%TO.C,U2*%
X127140712Y-87855111D02*
X125190712Y-87855111D01*
X127140712Y-87855111D02*
X129090712Y-87855111D01*
X127140712Y-82735111D02*
X123690712Y-82735111D01*
X127140712Y-82735111D02*
X129090712Y-82735111D01*
%TO.C,U1*%
X113592032Y-88009584D02*
X111642032Y-88009584D01*
X113592032Y-88009584D02*
X115542032Y-88009584D01*
X113592032Y-82889584D02*
X110142032Y-82889584D01*
X113592032Y-82889584D02*
X115542032Y-82889584D01*
%TO.C,D1*%
X180750000Y-78410000D02*
X182450000Y-78410000D01*
X182450000Y-78410000D02*
X182450000Y-75750000D01*
X180750000Y-78410000D02*
X180750000Y-75750000D01*
%TO.C,J7*%
X97590000Y-70665000D02*
X95990000Y-70665000D01*
X95990000Y-70665000D02*
X95990000Y-72465000D01*
X100460000Y-71935000D02*
X100460000Y-82865000D01*
X95990000Y-72465000D02*
X95050000Y-72465000D01*
X97590000Y-84135000D02*
X95990000Y-84135000D01*
X95990000Y-84135000D02*
X95990000Y-82335000D01*
%TO.C,G\u002A\u002A\u002A*%
G36*
X129816410Y-100982571D02*
G01*
X131484745Y-100993856D01*
X131484745Y-104659391D01*
X129813692Y-104670678D01*
X128142639Y-104681966D01*
X128140595Y-103441646D01*
X128139189Y-103097158D01*
X128136267Y-102757809D01*
X128132083Y-102439854D01*
X128126891Y-102159544D01*
X128120946Y-101933134D01*
X128114566Y-101778004D01*
X128106928Y-101570186D01*
X128106744Y-101371563D01*
X128113771Y-101213372D01*
X128119328Y-101162984D01*
X128148075Y-100971287D01*
X129816410Y-100982571D01*
G37*
G36*
X131495989Y-113035715D02*
G01*
X131484745Y-114879765D01*
X129841854Y-114892136D01*
X129403790Y-114894868D01*
X129044901Y-114895714D01*
X128758133Y-114894493D01*
X128536430Y-114891025D01*
X128372739Y-114885129D01*
X128260003Y-114876625D01*
X128191167Y-114865332D01*
X128159176Y-114851069D01*
X128157375Y-114849012D01*
X128147096Y-114792311D01*
X128138183Y-114655309D01*
X128130760Y-114443944D01*
X128124953Y-114164152D01*
X128120887Y-113821872D01*
X128118688Y-113423041D01*
X128118432Y-113003873D01*
X128121077Y-111214230D01*
X131507233Y-111191666D01*
X131495989Y-113035715D01*
G37*
G36*
X126892045Y-104680953D02*
G01*
X126080517Y-104680953D01*
X125722861Y-104684132D01*
X125438887Y-104695182D01*
X125216213Y-104716367D01*
X125042454Y-104749956D01*
X124905229Y-104798216D01*
X124792154Y-104863411D01*
X124707469Y-104932287D01*
X124562334Y-105090388D01*
X124461298Y-105267070D01*
X124397180Y-105481644D01*
X124362798Y-105753421D01*
X124355967Y-105877392D01*
X124337969Y-106319162D01*
X127911357Y-106330194D01*
X131484745Y-106341225D01*
X131484745Y-109532396D01*
X124369295Y-109575520D01*
X124369980Y-110006760D01*
X124372577Y-110212642D01*
X124382736Y-110357672D01*
X124405173Y-110467196D01*
X124444607Y-110566561D01*
X124490364Y-110653619D01*
X124666309Y-110887839D01*
X124893905Y-111054832D01*
X125165925Y-111149316D01*
X125169798Y-111150058D01*
X125288844Y-111164358D01*
X125474156Y-111176616D01*
X125705759Y-111185957D01*
X125963678Y-111191506D01*
X126143262Y-111192668D01*
X126892045Y-111192668D01*
X126892045Y-113022890D01*
X126891308Y-113411424D01*
X126889201Y-113772464D01*
X126885881Y-114097060D01*
X126881506Y-114376258D01*
X126876232Y-114601106D01*
X126870217Y-114762651D01*
X126863616Y-114851942D01*
X126859702Y-114867057D01*
X126807769Y-114870163D01*
X126684733Y-114869861D01*
X126505661Y-114866413D01*
X126285619Y-114860082D01*
X126115814Y-114854096D01*
X125425426Y-114799911D01*
X124793226Y-114689027D01*
X124208740Y-114516940D01*
X123661494Y-114279145D01*
X123141014Y-113971136D01*
X122636827Y-113588410D01*
X122168078Y-113156185D01*
X121867690Y-112841768D01*
X121624986Y-112552520D01*
X121424662Y-112267658D01*
X121251418Y-111966397D01*
X121166973Y-111796403D01*
X121066158Y-111574857D01*
X120985584Y-111372035D01*
X120918191Y-111164937D01*
X120856923Y-110930567D01*
X120794721Y-110645925D01*
X120759000Y-110467010D01*
X120736692Y-110349744D01*
X120718035Y-110240185D01*
X120702703Y-110129534D01*
X120690370Y-110008996D01*
X120680711Y-109869773D01*
X120673401Y-109703069D01*
X120668114Y-109500086D01*
X120664526Y-109252027D01*
X120662309Y-108950096D01*
X120661141Y-108585495D01*
X120660694Y-108149428D01*
X120660636Y-107807439D01*
X120660636Y-105651242D01*
X120783463Y-105116342D01*
X120927367Y-104589130D01*
X121107390Y-104122025D01*
X121335071Y-103692462D01*
X121621947Y-103277877D01*
X121886647Y-102958943D01*
X122359035Y-102476600D01*
X122862125Y-102065996D01*
X123401347Y-101724716D01*
X123982132Y-101450341D01*
X124609910Y-101240456D01*
X125290112Y-101092643D01*
X126028167Y-101004485D01*
X126318487Y-100986431D01*
X126892045Y-100958923D01*
X126892045Y-104680953D01*
G37*
G36*
X127007338Y-93904973D02*
G01*
X127642488Y-93906415D01*
X128354005Y-93908478D01*
X129146674Y-93911029D01*
X129200861Y-93911208D01*
X134330925Y-93928134D01*
X134826850Y-94037919D01*
X135351246Y-94177998D01*
X135816468Y-94356663D01*
X136244890Y-94584422D01*
X136658887Y-94871782D01*
X136741818Y-94937245D01*
X137191443Y-95342543D01*
X137583520Y-95785732D01*
X137910222Y-96256017D01*
X138163720Y-96742601D01*
X138287820Y-97069578D01*
X138344079Y-97249032D01*
X138385547Y-97398648D01*
X138417677Y-97544636D01*
X138445921Y-97713206D01*
X138475732Y-97930570D01*
X138489672Y-98039866D01*
X138494627Y-98122201D01*
X138499428Y-98287081D01*
X138504052Y-98530803D01*
X138508478Y-98849664D01*
X138512681Y-99239960D01*
X138516639Y-99697990D01*
X138520328Y-100220050D01*
X138523725Y-100802437D01*
X138526808Y-101441449D01*
X138529553Y-102133381D01*
X138531938Y-102874532D01*
X138533938Y-103661199D01*
X138535531Y-104489678D01*
X138536695Y-105356266D01*
X138536962Y-105629680D01*
X138537781Y-106556886D01*
X138538475Y-107401829D01*
X138538999Y-108168494D01*
X138539310Y-108860866D01*
X138539365Y-109482931D01*
X138539120Y-110038672D01*
X138538531Y-110532076D01*
X138537555Y-110967127D01*
X138536148Y-111347810D01*
X138534266Y-111678110D01*
X138531867Y-111962012D01*
X138528905Y-112203501D01*
X138525339Y-112406562D01*
X138521123Y-112575180D01*
X138516215Y-112713341D01*
X138510571Y-112825028D01*
X138504147Y-112914228D01*
X138496899Y-112984924D01*
X138488785Y-113041103D01*
X138479760Y-113086749D01*
X138469781Y-113125846D01*
X138458804Y-113162381D01*
X138454379Y-113176369D01*
X138305349Y-113539065D01*
X138101762Y-113878642D01*
X137860856Y-114167392D01*
X137803860Y-114221986D01*
X137584271Y-114410232D01*
X137382572Y-114549715D01*
X137164981Y-114660726D01*
X136908379Y-114759837D01*
X136573369Y-114877019D01*
X134762164Y-114884498D01*
X134370844Y-114885642D01*
X134002946Y-114885812D01*
X133668171Y-114885072D01*
X133376223Y-114883482D01*
X133136803Y-114881104D01*
X132959615Y-114877999D01*
X132854361Y-114874231D01*
X132832368Y-114872225D01*
X132713777Y-114852474D01*
X132713777Y-111202620D01*
X133436103Y-111183807D01*
X133741329Y-111173583D01*
X133975676Y-111158448D01*
X134154503Y-111134686D01*
X134293170Y-111098585D01*
X134407036Y-111046428D01*
X134511462Y-110974501D01*
X134594766Y-110903610D01*
X134655883Y-110849481D01*
X134707978Y-110800615D01*
X134751804Y-110750015D01*
X134788114Y-110690685D01*
X134817660Y-110615628D01*
X134841196Y-110517846D01*
X134859475Y-110390343D01*
X134873249Y-110226123D01*
X134883271Y-110018188D01*
X134890294Y-109759542D01*
X134895072Y-109443187D01*
X134898356Y-109062127D01*
X134900900Y-108609365D01*
X134903457Y-108077904D01*
X134903679Y-108032727D01*
X134905790Y-107438517D01*
X134905898Y-106915911D01*
X134904031Y-106467146D01*
X134900216Y-106094456D01*
X134894481Y-105800075D01*
X134886853Y-105586239D01*
X134877361Y-105455182D01*
X134871428Y-105419461D01*
X134759266Y-105160401D01*
X134573671Y-104945688D01*
X134419753Y-104833229D01*
X134340316Y-104785603D01*
X134269113Y-104750798D01*
X134190570Y-104726314D01*
X134089111Y-104709646D01*
X133949161Y-104698294D01*
X133755144Y-104689756D01*
X133491486Y-104681529D01*
X133471840Y-104680953D01*
X132735339Y-104659391D01*
X132735339Y-100993856D01*
X133813437Y-100972294D01*
X134891536Y-100950732D01*
X134886329Y-100217625D01*
X134883377Y-99941454D01*
X134877600Y-99732759D01*
X134866877Y-99572773D01*
X134849089Y-99442728D01*
X134822117Y-99323855D01*
X134783840Y-99197387D01*
X134764571Y-99139527D01*
X134592636Y-98756867D01*
X134352694Y-98410507D01*
X134056646Y-98113253D01*
X133716392Y-97877912D01*
X133492311Y-97770268D01*
X133252826Y-97673313D01*
X128509193Y-97651751D01*
X123765559Y-97630189D01*
X123492641Y-97531558D01*
X123119678Y-97362399D01*
X122815028Y-97145773D01*
X122571043Y-96873805D01*
X122380077Y-96538622D01*
X122281026Y-96283926D01*
X122205449Y-95927363D01*
X122209277Y-95567318D01*
X122287001Y-95215429D01*
X122433115Y-94883332D01*
X122642111Y-94582664D01*
X122908479Y-94325060D01*
X123226714Y-94122158D01*
X123326081Y-94075996D01*
X123390155Y-94049234D01*
X123454031Y-94025242D01*
X123522495Y-94003885D01*
X123600332Y-93985029D01*
X123692328Y-93968540D01*
X123803268Y-93954283D01*
X123937937Y-93942124D01*
X124101120Y-93931930D01*
X124297603Y-93923565D01*
X124532171Y-93916896D01*
X124809609Y-93911789D01*
X125134703Y-93908108D01*
X125512237Y-93905720D01*
X125946998Y-93904492D01*
X126443769Y-93904287D01*
X127007338Y-93904973D01*
G37*
D13*
%TO.C,J6*%
X174750000Y-110900000D02*
X173750000Y-110900000D01*
X174250000Y-110400000D02*
X174250000Y-111400000D01*
X171650000Y-109550000D02*
X182350000Y-109550000D01*
X185100000Y-109550000D02*
X198750000Y-109550000D01*
X198750000Y-109550000D02*
X198750000Y-88750000D01*
X171650000Y-107400000D02*
X171650000Y-109550000D01*
X171650000Y-101750000D02*
X171650000Y-96550000D01*
X171650000Y-88750000D02*
X171650000Y-90900000D01*
X182350000Y-88750000D02*
X171650000Y-88750000D01*
X198750000Y-88750000D02*
X185100000Y-88750000D01*
X174250000Y-87900000D02*
X174250000Y-86900000D01*
D12*
%TO.C,J3*%
X125710000Y-140760000D02*
X125710000Y-135150000D01*
X125710000Y-140760000D02*
X124860000Y-140760000D01*
X124860000Y-148460000D02*
X124860000Y-140760000D01*
X124860000Y-148460000D02*
X110840000Y-148460000D01*
X120300000Y-131040000D02*
X116560000Y-131040000D01*
X110840000Y-148460000D02*
X110840000Y-140760000D01*
X110840000Y-140760000D02*
X109990000Y-140760000D01*
X109990000Y-140760000D02*
X109990000Y-135150000D01*
X125709999Y-135150000D02*
G75*
G03*
X122839900Y-131191282I-4109997J40002D01*
G01*
X111983194Y-131627042D02*
G75*
G03*
X109990000Y-135150000I2116806J-3522958D01*
G01*
%TO.C,Q2*%
X160870000Y-120750000D02*
X160670000Y-120750000D01*
X155870000Y-120750000D02*
X155670000Y-120750000D01*
X155670000Y-120750000D02*
X155670000Y-125050000D01*
X160870000Y-125050000D02*
X160870000Y-120750000D01*
X160720000Y-125050000D02*
X160870000Y-125050000D01*
X155670000Y-125050000D02*
X155820000Y-125050000D01*
%TO.C,C8*%
X132505000Y-86534420D02*
X132505000Y-86815580D01*
X131485000Y-86534420D02*
X131485000Y-86815580D01*
%TO.C,C9*%
X134105000Y-86534420D02*
X134105000Y-86815580D01*
X133085000Y-86534420D02*
X133085000Y-86815580D01*
%TO.C,C10*%
X120605000Y-86724421D02*
X120605000Y-87005581D01*
X119585000Y-86724421D02*
X119585000Y-87005581D01*
%TO.C,J4*%
X151910000Y-140760000D02*
X151910000Y-135150000D01*
X151910000Y-140760000D02*
X151060000Y-140760000D01*
X151060000Y-148460000D02*
X151060000Y-140760000D01*
X151060000Y-148460000D02*
X137040000Y-148460000D01*
X146500000Y-131040000D02*
X142760000Y-131040000D01*
X137040000Y-148460000D02*
X137040000Y-140760000D01*
X137040000Y-140760000D02*
X136190000Y-140760000D01*
X136190000Y-140760000D02*
X136190000Y-135150000D01*
X151909999Y-135150000D02*
G75*
G03*
X149039900Y-131191282I-4109997J40002D01*
G01*
X138183194Y-131627042D02*
G75*
G03*
X136190000Y-135150000I2116806J-3522958D01*
G01*
%TO.C,R1*%
X177687258Y-73522500D02*
X177212742Y-73522500D01*
X177687258Y-72477500D02*
X177212742Y-72477500D01*
%TO.C,C11*%
X119005000Y-86724420D02*
X119005000Y-87005580D01*
X117985000Y-86724420D02*
X117985000Y-87005580D01*
%TO.C,J13*%
X185600000Y-76330000D02*
X187520000Y-76330000D01*
X191235000Y-76330000D02*
X189530000Y-76330000D01*
X187520000Y-67170000D02*
X185600000Y-67170000D01*
X189530000Y-67170000D02*
X191235000Y-67170000D01*
X191235000Y-67170000D02*
X191235000Y-76330000D01*
%TO.C,Q4*%
X135850000Y-120400000D02*
X135650000Y-120400000D01*
X130850000Y-120400000D02*
X130650000Y-120400000D01*
X130650000Y-120400000D02*
X130650000Y-124700000D01*
X135850000Y-124700000D02*
X135850000Y-120400000D01*
X135700000Y-124700000D02*
X135850000Y-124700000D01*
X130650000Y-124700000D02*
X130800000Y-124700000D01*
%TO.C,Q1*%
X174100000Y-120750000D02*
X173900000Y-120750000D01*
X169100000Y-120750000D02*
X168900000Y-120750000D01*
X168900000Y-120750000D02*
X168900000Y-125050000D01*
X174100000Y-125050000D02*
X174100000Y-120750000D01*
X173950000Y-125050000D02*
X174100000Y-125050000D01*
X168900000Y-125050000D02*
X169050000Y-125050000D01*
%TO.C,Q7*%
X87905435Y-93875877D02*
X87905435Y-94025877D01*
X87905435Y-98925877D02*
X87905435Y-99075877D01*
X87905435Y-99075877D02*
X92205435Y-99075877D01*
X92205435Y-93875877D02*
X87905435Y-93875877D01*
X92205435Y-94075877D02*
X92205435Y-93875877D01*
X92205435Y-99075877D02*
X92205435Y-98875877D01*
%TO.C,J2*%
X99510000Y-140760000D02*
X99510000Y-135150000D01*
X99510000Y-140760000D02*
X98660000Y-140760000D01*
X98660000Y-148460000D02*
X98660000Y-140760000D01*
X98660000Y-148460000D02*
X84640000Y-148460000D01*
X94100000Y-131040000D02*
X90360000Y-131040000D01*
X84640000Y-148460000D02*
X84640000Y-140760000D01*
X84640000Y-140760000D02*
X83790000Y-140760000D01*
X83790000Y-140760000D02*
X83790000Y-135150000D01*
X99509999Y-135150000D02*
G75*
G03*
X96639900Y-131191282I-4109997J40002D01*
G01*
X85783194Y-131627042D02*
G75*
G03*
X83790000Y-135150000I2116806J-3522958D01*
G01*
%TO.C,J5*%
X178010000Y-140750522D02*
X178010000Y-135140522D01*
X178010000Y-140750522D02*
X177160000Y-140750522D01*
X177160000Y-148450522D02*
X177160000Y-140750522D01*
X177160000Y-148450522D02*
X163140000Y-148450522D01*
X172600000Y-131030522D02*
X168860000Y-131030522D01*
X163140000Y-148450522D02*
X163140000Y-140750522D01*
X163140000Y-140750522D02*
X162290000Y-140750522D01*
X162290000Y-140750522D02*
X162290000Y-135140522D01*
X178009999Y-135140522D02*
G75*
G03*
X175139900Y-131181804I-4109997J40002D01*
G01*
X164283194Y-131617564D02*
G75*
G03*
X162290000Y-135140522I2116806J-3522958D01*
G01*
%TO.C,J1*%
X198560000Y-91340000D02*
X184250000Y-91340000D01*
X198560000Y-91340000D02*
X198560000Y-107060000D01*
X180140000Y-97910000D02*
X180140000Y-101650000D01*
X198560000Y-107060000D02*
X184250000Y-107060000D01*
X184250000Y-91340001D02*
G75*
G03*
X180727043Y-93333194I-1J-4109998D01*
G01*
X180319587Y-104151648D02*
G75*
G03*
X184250000Y-107060000I3930413J1201648D01*
G01*
%TO.C,Q3*%
X145400000Y-120350000D02*
X145200000Y-120350000D01*
X140400000Y-120350000D02*
X140200000Y-120350000D01*
X140200000Y-120350000D02*
X140200000Y-124650000D01*
X145400000Y-124650000D02*
X145400000Y-120350000D01*
X145250000Y-124650000D02*
X145400000Y-124650000D01*
X140200000Y-124650000D02*
X140350000Y-124650000D01*
%TO.C,R2*%
X177212742Y-69477500D02*
X177687258Y-69477500D01*
X177212742Y-70522500D02*
X177687258Y-70522500D01*
%TO.C,Q6*%
X115950000Y-119050000D02*
X115750000Y-119050000D01*
X110950000Y-119050000D02*
X110750000Y-119050000D01*
X110750000Y-119050000D02*
X110750000Y-123350000D01*
X115950000Y-123350000D02*
X115950000Y-119050000D01*
X115800000Y-123350000D02*
X115950000Y-123350000D01*
X110750000Y-123350000D02*
X110900000Y-123350000D01*
%TD*%
%LPC*%
D14*
%TO.C,R6*%
X93400000Y-78900000D03*
X91750000Y-78900000D03*
%TD*%
D15*
%TO.C,R5*%
X91750000Y-80500000D03*
X93400000Y-80500000D03*
%TD*%
D16*
%TO.C,C6*%
X163600000Y-82625000D03*
X163600000Y-84175000D03*
%TD*%
D17*
%TO.C,C4*%
X167200000Y-83075000D03*
X167200000Y-81525000D03*
%TD*%
D18*
%TO.C,U3*%
X169000000Y-82450000D03*
X169000000Y-83400000D03*
X169000000Y-84350000D03*
X171275000Y-84350000D03*
X171275000Y-83400000D03*
X171275000Y-82450000D03*
%TD*%
D16*
%TO.C,C2*%
X175900000Y-83725000D03*
X175900000Y-85275000D03*
%TD*%
D15*
%TO.C,R4*%
X168675000Y-86100000D03*
X170325000Y-86100000D03*
%TD*%
D19*
%TO.C,C1*%
X175800000Y-80900000D03*
X175800000Y-75500000D03*
%TD*%
D20*
%TO.C,R3*%
X167200000Y-84475000D03*
X167200000Y-86125000D03*
%TD*%
D21*
%TO.C,L1*%
X171250000Y-78300000D03*
X167550000Y-78300000D03*
%TD*%
D19*
%TO.C,C5*%
X162900000Y-79800000D03*
X162900000Y-74200000D03*
%TD*%
D16*
%TO.C,C3*%
X173800000Y-83725000D03*
X173800000Y-85275000D03*
%TD*%
%TO.C,C7*%
X165300000Y-82625000D03*
X165300000Y-84175000D03*
%TD*%
D22*
%TO.C,D7*%
X170499999Y-74600000D03*
X167699999Y-74600000D03*
%TD*%
D23*
%TO.C,D5*%
X171550000Y-129700000D03*
X169450000Y-129700000D03*
%TD*%
%TO.C,D4*%
X145050000Y-129600000D03*
X142950000Y-129600000D03*
%TD*%
%TO.C,D3*%
X118750000Y-129700000D03*
X116650000Y-129700000D03*
%TD*%
%TO.C,D2*%
X92450000Y-129600000D03*
X90350000Y-129600000D03*
%TD*%
D24*
%TO.C,U2*%
X127140712Y-85295111D03*
D25*
X129790712Y-83390111D03*
X129790712Y-84660111D03*
X129790712Y-85930111D03*
X129790712Y-87200111D03*
X124490712Y-87200111D03*
X124490712Y-85930111D03*
X124490712Y-84660111D03*
X124490712Y-83390111D03*
%TD*%
D24*
%TO.C,U1*%
X113592032Y-85449584D03*
D25*
X116242032Y-83544584D03*
X116242032Y-84814584D03*
X116242032Y-86084584D03*
X116242032Y-87354584D03*
X110942032Y-87354584D03*
X110942032Y-86084584D03*
X110942032Y-84814584D03*
X110942032Y-83544584D03*
%TD*%
D26*
%TO.C,D1*%
X181600000Y-77850000D03*
X181600000Y-75750000D03*
%TD*%
D27*
%TO.C,J7*%
X95900000Y-73025000D03*
X95900000Y-74275000D03*
X95900000Y-75525000D03*
X95900000Y-76775000D03*
X95900000Y-78025000D03*
X95900000Y-79275000D03*
X95900000Y-80525000D03*
X95900000Y-81775000D03*
D28*
X98750000Y-70500000D03*
X98750000Y-84300000D03*
%TD*%
D29*
%TO.C,H2*%
X165339531Y-67939531D03*
%TD*%
D30*
%TO.C,J6*%
X174350000Y-93700000D03*
D31*
X174350000Y-104600000D03*
D32*
X183750000Y-108600000D03*
X183750000Y-89700000D03*
%TD*%
D33*
%TO.C,J3*%
X124600000Y-139000000D03*
X111100000Y-139000000D03*
D34*
X114250000Y-133000000D03*
D35*
X121450000Y-133000000D03*
%TD*%
D36*
%TO.C,Q2*%
X160180000Y-120230000D03*
X158910000Y-120230000D03*
X157630000Y-120230000D03*
X156360000Y-120230000D03*
D37*
X158270000Y-123500000D03*
%TD*%
D16*
%TO.C,C8*%
X131995000Y-85900000D03*
X131995000Y-87450000D03*
%TD*%
%TO.C,C9*%
X133595000Y-85900000D03*
X133595000Y-87450000D03*
%TD*%
D29*
%TO.C,H3*%
X165370000Y-119300000D03*
%TD*%
%TO.C,H4*%
X90160000Y-119260000D03*
%TD*%
D16*
%TO.C,C10*%
X120095000Y-86090001D03*
X120095000Y-87640001D03*
%TD*%
D33*
%TO.C,J4*%
X150800000Y-139000000D03*
X137300000Y-139000000D03*
D34*
X140450000Y-133000000D03*
D35*
X147650000Y-133000000D03*
%TD*%
D14*
%TO.C,R1*%
X178275000Y-73000000D03*
X176625000Y-73000000D03*
%TD*%
D16*
%TO.C,C11*%
X118495000Y-86090000D03*
X118495000Y-87640000D03*
%TD*%
D38*
%TO.C,J13*%
X184845000Y-74640000D03*
X184845000Y-68860000D03*
D39*
X183725000Y-74950000D03*
X183725000Y-74150000D03*
D40*
X183725000Y-73000000D03*
X183725000Y-72000000D03*
X183725000Y-71500000D03*
X183725000Y-70500000D03*
D39*
X183725000Y-69350000D03*
X183725000Y-68550000D03*
X183725000Y-68550000D03*
X183725000Y-69350000D03*
D40*
X183725000Y-70000000D03*
X183725000Y-71000000D03*
X183725000Y-72500000D03*
X183725000Y-73500000D03*
D39*
X183725000Y-74150000D03*
X183725000Y-74950000D03*
D41*
X184325000Y-76070000D03*
D42*
X188525000Y-76070000D03*
D41*
X184325000Y-67430000D03*
D42*
X188525000Y-67430000D03*
%TD*%
D36*
%TO.C,Q4*%
X135160000Y-119880000D03*
X133890000Y-119880000D03*
X132610000Y-119880000D03*
X131340000Y-119880000D03*
D37*
X133250000Y-123150000D03*
%TD*%
D36*
%TO.C,Q1*%
X173410000Y-120230000D03*
X172140000Y-120230000D03*
X170860000Y-120230000D03*
X169590000Y-120230000D03*
D37*
X171500000Y-123500000D03*
%TD*%
D43*
%TO.C,Q7*%
X89455435Y-96475877D03*
D44*
X92725435Y-94565877D03*
X92725435Y-95835877D03*
X92725435Y-97115877D03*
X92725435Y-98385877D03*
%TD*%
D33*
%TO.C,J2*%
X98400000Y-139000000D03*
X84900000Y-139000000D03*
D34*
X88050000Y-133000000D03*
D35*
X95250000Y-133000000D03*
%TD*%
D33*
%TO.C,J5*%
X176900000Y-138990522D03*
X163400000Y-138990522D03*
D34*
X166550000Y-132990522D03*
D35*
X173750000Y-132990522D03*
%TD*%
D45*
%TO.C,J1*%
X188100000Y-92450000D03*
X188100000Y-105950000D03*
D46*
X182100000Y-95600000D03*
D35*
X182100000Y-102800000D03*
%TD*%
D29*
%TO.C,H1*%
X90150000Y-67960000D03*
%TD*%
D36*
%TO.C,Q3*%
X144710000Y-119830000D03*
X143440000Y-119830000D03*
X142160000Y-119830000D03*
X140890000Y-119830000D03*
D37*
X142800000Y-123100000D03*
%TD*%
D15*
%TO.C,R2*%
X176625000Y-70000000D03*
X178275000Y-70000000D03*
%TD*%
D36*
%TO.C,Q6*%
X115260000Y-118530000D03*
X113990000Y-118530000D03*
X112710000Y-118530000D03*
X111440000Y-118530000D03*
D37*
X113350000Y-121800000D03*
%TD*%
%LPD*%
M02*
